<svg width="80" height="72" viewBox="0 0 80 72" fill="none" xmlns="http://www.w3.org/2000/svg">
<g filter="url(#filter0_d_4189_6038)">
<mask id="mask0_4189_6038" style="mask-type:luminance" maskUnits="userSpaceOnUse" x="2" y="2" width="76" height="67">
<path d="M2.14062 2H77.8607V68.6354H2.14062V2Z" fill="white"/>
</mask>
<g mask="url(#mask0_4189_6038)">
<path d="M75.0307 60.6096H73.4778V23.4758C73.8792 23.4415 74.2595 23.3385 74.6213 23.1694C74.9858 23.0004 75.308 22.7733 75.5932 22.4907C75.8757 22.2082 76.1002 21.8833 76.2692 21.5215C76.4383 21.1571 76.5413 20.7768 76.5756 20.378C76.6099 19.9766 76.5756 19.5857 76.4726 19.1975C76.367 18.8093 76.2006 18.4528 75.9708 18.1253C75.7411 17.7978 75.4611 17.5179 75.1337 17.2881C74.8035 17.0584 74.447 16.892 74.0588 16.789C74.1618 16.4695 74.2173 16.1393 74.2225 15.804V5.40934C74.2199 5.18487 74.1988 4.96303 74.1539 4.74119C74.1116 4.522 74.0456 4.30808 73.9584 4.09945C73.8739 3.89082 73.7683 3.69275 73.6415 3.50789C73.5174 3.32039 73.3748 3.14609 73.2164 2.98763C73.0579 2.82918 72.8836 2.68657 72.6987 2.56244C72.5112 2.43568 72.3132 2.33004 72.1045 2.24554C71.8985 2.15839 71.6846 2.09236 71.4628 2.05011C71.241 2.00521 71.0191 1.98409 70.7946 1.98145H9.20604C8.98156 1.98409 8.75709 2.00521 8.53789 2.05011C8.31605 2.09236 8.10214 2.15839 7.89351 2.24554C7.68752 2.33004 7.48945 2.43568 7.30195 2.56244C7.11444 2.68657 6.94278 2.82918 6.78169 2.98763C6.62323 3.14609 6.48062 3.32039 6.3565 3.50789C6.23238 3.69275 6.12674 3.89082 6.03959 4.09945C5.95244 4.30808 5.88906 4.522 5.84416 4.74119C5.79927 4.96303 5.77814 5.18487 5.77814 5.40934V15.804C5.78342 16.1393 5.83624 16.4695 5.93924 16.789C5.55366 16.892 5.1945 17.0584 4.86703 17.2881C4.53692 17.5179 4.25698 17.7978 4.02722 18.1253C3.79746 18.4528 3.63108 18.8119 3.52809 19.1975C3.42245 19.5857 3.38812 19.9766 3.42245 20.378C3.45678 20.7768 3.55978 21.1571 3.7288 21.5215C3.89782 21.8833 4.12493 22.2082 4.40751 22.4907C4.69009 22.7733 5.01492 23.0004 5.37672 23.1694C5.74117 23.3385 6.12146 23.4415 6.52024 23.4758V60.6096H4.97531C4.79572 60.6096 4.62142 60.6281 4.44448 60.6624C4.27018 60.6967 4.10117 60.7496 3.93479 60.8182C3.77105 60.8869 3.61524 60.9688 3.46735 61.0691C3.31682 61.1668 3.18213 61.2804 3.05537 61.4071C2.9286 61.5339 2.81504 61.6712 2.71733 61.8191C2.61698 61.967 2.53511 62.1228 2.46644 62.2866C2.39778 62.4529 2.34496 62.622 2.31063 62.7963C2.2763 62.9732 2.25781 63.1475 2.25781 63.3271V66.0287C2.25781 66.2083 2.2763 66.3826 2.31063 66.5596C2.34496 66.7339 2.39778 66.9029 2.46644 67.0692C2.53247 67.233 2.61698 67.3888 2.71733 67.5367C2.81504 67.6872 2.9286 67.8245 3.05537 67.9487C3.17949 68.0754 3.31682 68.189 3.46735 68.2867C3.61524 68.3871 3.77105 68.4716 3.93479 68.5402C4.10117 68.6063 4.27018 68.6591 4.44448 68.6934C4.62142 68.7277 4.79572 68.7462 4.97531 68.7462H75.0307C75.2076 68.7462 75.3845 68.7277 75.5588 68.6934C75.7358 68.6591 75.9048 68.6063 76.0685 68.5402C76.2349 68.4716 76.3907 68.3871 76.5386 68.2867C76.6865 68.189 76.8238 68.0754 76.9506 67.9487C77.0774 67.8245 77.1883 67.6872 77.2886 67.5367C77.3863 67.3888 77.4709 67.233 77.5395 67.0692C77.6082 66.9029 77.6584 66.7339 77.6953 66.5596C77.7297 66.3826 77.7455 66.2083 77.7482 66.0287V63.3271C77.7455 63.1475 77.7297 62.9732 77.6953 62.7963C77.6584 62.622 77.6082 62.4529 77.5395 62.2866C77.4709 62.1228 77.3863 61.967 77.2886 61.8191C77.1883 61.6712 77.0774 61.5339 76.9506 61.4071C76.8238 61.2804 76.6865 61.1668 76.5386 61.0691C76.3907 60.9688 76.2349 60.8869 76.0685 60.8182C75.9048 60.7496 75.7331 60.6967 75.5588 60.6624C75.3845 60.6281 75.2076 60.6096 75.0307 60.6096ZM9.09776 23.5075H70.9029V60.6069H50.1797V43.2562C50.1797 43.0845 50.1454 42.9208 50.082 42.7623C50.016 42.6039 49.9236 42.4666 49.8021 42.3451C49.6806 42.2236 49.5406 42.1312 49.3848 42.0651C49.2264 41.9991 49.0626 41.9674 48.891 41.9674H31.115C30.9433 41.9674 30.7796 41.9991 30.6212 42.0651C30.4627 42.1312 30.3227 42.2236 30.2039 42.3451C30.0824 42.4666 29.99 42.6039 29.924 42.7623C29.8579 42.9208 29.8262 43.0845 29.8262 43.2562V60.6069H9.09776V23.5075ZM41.2878 60.6069V44.5423H47.6022V60.6069H41.2878ZM32.4011 44.5423H38.7129V60.6069H32.4011V44.5423ZM8.35303 5.40934C8.35567 5.29843 8.37679 5.19015 8.41905 5.08451C8.4613 4.98152 8.52469 4.88908 8.60391 4.80986C8.68314 4.72799 8.77557 4.66725 8.87857 4.62499C8.9842 4.5801 9.09248 4.55897 9.20604 4.55897H70.7946C70.9082 4.55897 71.0165 4.5801 71.1195 4.62499C71.2251 4.66725 71.3149 4.72799 71.3968 4.80986C71.476 4.88908 71.5367 4.98152 71.579 5.08451C71.6239 5.19015 71.645 5.29843 71.645 5.40934V15.804C71.645 15.9175 71.6239 16.0258 71.579 16.1288C71.5367 16.2344 71.476 16.3269 71.3968 16.4061C71.3149 16.4853 71.2251 16.546 71.1195 16.5909C71.0165 16.6332 70.9082 16.6543 70.7946 16.6543H9.20604C9.09248 16.6543 8.9842 16.6332 8.87857 16.5909C8.77557 16.546 8.68314 16.4853 8.60391 16.4061C8.52469 16.3269 8.4613 16.2344 8.41905 16.1288C8.37679 16.0258 8.35567 15.9175 8.35303 15.804V5.40934ZM5.98677 20.0822C5.98677 19.9687 6.0079 19.8604 6.0528 19.7574C6.09505 19.6518 6.15579 19.5593 6.23766 19.4801C6.31689 19.4009 6.40932 19.3401 6.51231 19.2952C6.61531 19.253 6.72623 19.2319 6.83715 19.2319H73.1609C73.2745 19.2319 73.3827 19.253 73.4884 19.2952C73.5914 19.3401 73.6838 19.4009 73.763 19.4801C73.8422 19.5593 73.9056 19.6518 73.9479 19.7574C73.9901 19.8604 74.0113 19.9687 74.0113 20.0822C74.0113 20.1958 73.9901 20.3041 73.9479 20.4071C73.9056 20.5127 73.8422 20.6025 73.763 20.6844C73.6838 20.7636 73.5914 20.8243 73.4884 20.8666C73.3827 20.9115 73.2745 20.9326 73.1609 20.9326H6.83715C6.72623 20.9326 6.61531 20.9115 6.51231 20.8666C6.40932 20.8243 6.31689 20.7636 6.23766 20.6844C6.15579 20.6025 6.09505 20.5127 6.0528 20.4071C6.0079 20.3041 5.98677 20.1958 5.98677 20.0822ZM75.1706 66.0287C75.1706 66.1238 75.1231 66.1713 75.0307 66.1713H4.97531C4.88023 66.1713 4.83534 66.1238 4.83534 66.0287V63.3271C4.83534 63.232 4.88023 63.1871 4.97531 63.1871H75.0307C75.1231 63.1871 75.1706 63.232 75.1706 63.3271V66.0287Z" fill="#FFFBF4"/>
</g>
<path d="M26.0748 41.9688H11.5524C11.3808 41.9688 11.217 42.0004 11.0586 42.0665C10.9001 42.1325 10.7628 42.2249 10.6413 42.3464C10.5198 42.4679 10.4274 42.6052 10.3614 42.7637C10.2954 42.9221 10.2637 43.0859 10.2637 43.2575V57.7402C10.2637 57.9093 10.2954 58.073 10.3614 58.2315C10.4274 58.3899 10.5198 58.5299 10.6413 58.6487C10.7628 58.7702 10.9001 58.8626 11.0586 58.9287C11.217 58.9947 11.3808 59.0264 11.5524 59.0264H26.0748C26.2464 59.0264 26.4102 58.9947 26.5686 58.9287C26.7244 58.8626 26.8644 58.7702 26.9859 58.6487C27.1074 58.5299 27.1998 58.3899 27.2658 58.2315C27.3292 58.073 27.3635 57.9093 27.3635 57.7402V43.2575C27.3635 43.0859 27.3292 42.9221 27.2658 42.7637C27.1998 42.6052 27.1074 42.4679 26.9859 42.3464C26.8644 42.2249 26.7244 42.1325 26.5686 42.0665C26.4102 42.0004 26.2464 41.9688 26.0748 41.9688ZM24.786 56.4515H12.8412V44.5436H24.786V56.4515Z" fill="#FFFBF4"/>
<path d="M26.0748 27.4883H11.5524C11.3808 27.4883 11.217 27.52 11.0586 27.586C10.9001 27.652 10.7628 27.7444 10.6413 27.8659C10.5198 27.9848 10.4274 28.1247 10.3614 28.2832C10.2954 28.4416 10.2637 28.6054 10.2637 28.777V37.0748C10.2637 37.2464 10.2954 37.4102 10.3614 37.5686C10.4274 37.7271 10.5198 37.8644 10.6413 37.9859C10.7628 38.1074 10.9001 38.1998 11.0586 38.2658C11.217 38.3318 11.3808 38.3635 11.5524 38.3635H26.0748C26.2464 38.3635 26.4102 38.3318 26.5686 38.2658C26.7244 38.1998 26.8644 38.1074 26.9859 37.9859C27.1074 37.8644 27.1998 37.7271 27.2658 37.5686C27.3292 37.4102 27.3635 37.2464 27.3635 37.0748V28.777C27.3635 28.6054 27.3292 28.4416 27.2658 28.2832C27.1998 28.1247 27.1074 27.9848 26.9859 27.8659C26.8644 27.7444 26.7244 27.652 26.5686 27.586C26.4102 27.52 26.2464 27.4883 26.0748 27.4883ZM12.8412 30.0632H17.5262V35.786H12.8412V30.0632ZM24.786 35.786H20.1011V30.0632H24.786V35.786Z" fill="#FFFBF4"/>
<path d="M32.7399 38.3635H47.2623C47.4339 38.3635 47.5977 38.3292 47.7561 38.2658C47.9119 38.1998 48.0519 38.1074 48.1734 37.9859C48.2922 37.8644 48.3873 37.7271 48.4507 37.5686C48.5167 37.4102 48.551 37.2464 48.551 37.0748V28.777C48.551 28.6054 48.5167 28.4416 48.4507 28.2832C48.3873 28.1247 48.2922 27.9848 48.1734 27.8659C48.0519 27.7444 47.9119 27.652 47.7561 27.586C47.5977 27.52 47.4339 27.4883 47.2623 27.4883H32.7399C32.5683 27.4883 32.4045 27.52 32.2461 27.586C32.0876 27.652 31.9503 27.7444 31.8288 27.8659C31.7073 27.9848 31.6149 28.1247 31.5489 28.2832C31.4829 28.4416 31.4512 28.6054 31.4512 28.777V37.0748C31.4512 37.2464 31.4829 37.4102 31.5489 37.5686C31.6149 37.7271 31.7073 37.8644 31.8288 37.9859C31.9503 38.1074 32.0876 38.1998 32.2461 38.2658C32.4045 38.3292 32.5683 38.3635 32.7399 38.3635ZM45.9735 35.786H41.1248V30.0632H45.9735V35.786ZM34.0287 30.0632H38.5473V35.786H34.0287V30.0632Z" fill="#FFFBF4"/>
<path d="M53.2419 38.3635H67.7669C67.9359 38.3635 68.0996 38.3318 68.2581 38.2658C68.4165 38.1998 68.5565 38.1074 68.6754 37.9859C68.7968 37.8644 68.8893 37.7271 68.9553 37.5686C69.0213 37.4102 69.053 37.2464 69.053 37.0748V28.777C69.053 28.6054 69.0213 28.4416 68.9553 28.2832C68.8893 28.1247 68.7968 27.9848 68.6754 27.8659C68.5565 27.7444 68.4165 27.652 68.2581 27.586C68.0996 27.52 67.9359 27.4883 67.7669 27.4883H53.2419C53.0729 27.4883 52.9065 27.52 52.7507 27.586C52.5922 27.652 52.4523 27.7444 52.3308 27.8659C52.2119 27.9848 52.1169 28.1247 52.0535 28.2832C51.9875 28.4416 51.9531 28.6054 51.9531 28.777V37.0748C51.9531 37.2464 51.9875 37.4102 52.0535 37.5686C52.1169 37.7271 52.2119 37.8644 52.3308 37.9859C52.4523 38.1074 52.5922 38.1998 52.7507 38.2658C52.9065 38.3318 53.0729 38.3635 53.2419 38.3635ZM66.4781 35.786H61.7931V30.0632H66.4781V35.786ZM54.5307 30.0632H59.2156V35.786H54.5307V30.0632Z" fill="#FFFBF4"/>
<path d="M53.71 41.9688C53.5409 41.9688 53.3772 42.0004 53.2187 42.0665C53.0603 42.1325 52.9203 42.2249 52.8015 42.3464C52.68 42.4679 52.5876 42.6052 52.5215 42.7637C52.4555 42.9221 52.4238 43.0859 52.4238 43.2575V57.7402C52.4238 57.9093 52.4555 58.073 52.5215 58.2315C52.5876 58.3899 52.68 58.5299 52.8015 58.6487C52.9203 58.7702 53.0603 58.8626 53.2187 58.9287C53.3772 58.9947 53.5409 59.0264 53.71 59.0264H68.2349C68.404 59.0264 68.5677 58.9947 68.7261 58.9287C68.8846 58.8626 69.0246 58.7702 69.1434 58.6487C69.2649 58.5299 69.3573 58.3899 69.4233 58.2315C69.4894 58.073 69.5211 57.9093 69.5211 57.7402V43.2575C69.5211 43.0859 69.4894 42.9221 69.4233 42.7637C69.3573 42.6052 69.2649 42.4679 69.1434 42.3464C69.0246 42.2249 68.8846 42.1325 68.7261 42.0665C68.5677 42.0004 68.404 41.9688 68.2349 41.9688H53.71ZM66.9462 56.4515H54.9987V44.5436H66.9462V56.4515Z" fill="#FFFBF4"/>
<path d="M12.4894 14.1916H13.4349C13.6012 14.1916 13.7412 14.1335 13.8574 14.0173C13.9736 13.9011 14.0317 13.7611 14.0317 13.5974V9.91596L15.3548 13.7902C15.3944 13.909 15.4684 14.0067 15.5714 14.0807C15.6744 14.1546 15.7906 14.1916 15.9173 14.1916H16.8548C16.9816 14.1916 17.0978 14.1546 17.2008 14.0807C17.3038 14.0067 17.3751 13.909 17.4174 13.7902L18.7299 9.95029V13.5974C18.7299 13.7611 18.788 13.9011 18.9042 14.0173C19.0204 14.1335 19.1604 14.1916 19.3241 14.1916H20.2722C20.4359 14.1916 20.5759 14.1335 20.6921 14.0173C20.8083 13.9011 20.8664 13.7611 20.8664 13.5974V7.09811C20.8664 6.93437 20.8083 6.79441 20.6921 6.67821C20.5759 6.56201 20.4359 6.50391 20.2722 6.50391H18.7035C18.582 6.50391 18.4684 6.54088 18.3654 6.60954C18.2651 6.68085 18.1911 6.77328 18.1489 6.88948L16.9578 10.0427C16.9129 10.1589 16.8416 10.2514 16.7413 10.32C16.6383 10.3913 16.5274 10.4257 16.4032 10.4283C16.2791 10.4283 16.1682 10.394 16.0652 10.3227C15.9649 10.254 15.8909 10.1616 15.846 10.048L14.6259 6.8842C14.581 6.77064 14.5071 6.67821 14.4067 6.60954C14.3064 6.53824 14.1928 6.50391 14.0713 6.50391H12.4894C12.323 6.50391 12.1831 6.56201 12.0669 6.67821C11.9507 6.79441 11.8926 6.93437 11.8926 7.09811V13.5974C11.8926 13.7611 11.9507 13.9011 12.0669 14.0173C12.1831 14.1335 12.323 14.1916 12.4894 14.1916Z" fill="#F9DEB1"/>
<path d="M24.5964 14.1916H25.563C25.6898 14.1916 25.806 14.1546 25.9116 14.078C26.0146 14.0041 26.0859 13.9037 26.1255 13.7822L26.2708 13.3465C26.313 13.2224 26.3843 13.1247 26.4873 13.0507C26.593 12.9741 26.7065 12.9372 26.8359 12.9372H28.703C28.8298 12.9372 28.946 12.9741 29.0516 13.0507C29.1546 13.1247 29.2259 13.2224 29.2682 13.3465L29.4108 13.7822C29.4531 13.9037 29.5244 14.0041 29.6274 14.078C29.733 14.1546 29.8466 14.1916 29.976 14.1916H30.9557C31.0508 14.1916 31.1432 14.1678 31.2304 14.1229C31.3149 14.078 31.3862 14.0173 31.4417 13.9381C31.4971 13.8588 31.5315 13.7717 31.5447 13.674C31.5579 13.5789 31.5473 13.4838 31.513 13.394L29.1546 6.8974C29.1124 6.77856 29.0384 6.68349 28.9381 6.61218C28.8351 6.54088 28.7215 6.50391 28.5948 6.50391H26.9653C26.8386 6.50391 26.725 6.54088 26.6247 6.61218C26.5217 6.68349 26.4477 6.77856 26.4055 6.89476L24.0366 13.394C24.0049 13.4838 23.9943 13.5789 24.0075 13.674C24.0181 13.769 24.0524 13.8588 24.1079 13.9381C24.1633 14.0173 24.2346 14.078 24.3218 14.1229C24.4063 14.1678 24.4987 14.1916 24.5964 14.1916ZM27.2083 10.5207L27.7682 8.81734L28.336 10.5181C28.3677 10.6105 28.3756 10.7029 28.3597 10.7954C28.3465 10.8905 28.3122 10.9776 28.2567 11.0542C28.1986 11.1308 28.13 11.1915 28.0455 11.2364C27.961 11.2787 27.8685 11.3024 27.7734 11.3024C27.6784 11.3024 27.5886 11.2813 27.5041 11.2364C27.4196 11.1942 27.3483 11.1334 27.2928 11.0568C27.2347 10.9802 27.2004 10.8931 27.1845 10.798C27.1713 10.7056 27.1792 10.6132 27.2083 10.5207Z" fill="#F9DEB1"/>
<path d="M35.2758 14.1912H36.2239C36.3877 14.1912 36.5276 14.1331 36.6438 14.0169C36.76 13.9007 36.8181 13.7607 36.8181 13.5969V11.3548H37.0479L38.4053 13.8769C38.5162 14.0855 38.6905 14.1912 38.9282 14.1912H39.9291C40.1589 14.1912 40.3305 14.0908 40.4441 13.8927C40.5603 13.6947 40.5603 13.4966 40.4441 13.2985L39.5594 11.7694C39.4775 11.6242 39.459 11.4737 39.5039 11.3152C39.5515 11.1541 39.6465 11.0353 39.7918 10.956C40.0691 10.8055 40.3015 10.6022 40.4864 10.3486C40.7821 9.93665 40.9274 9.47713 40.9168 8.96744C40.9247 8.51848 40.8138 8.09858 40.5894 7.71037C40.357 7.31687 40.0321 7.02109 39.6201 6.82566C39.121 6.5959 38.5981 6.48763 38.0488 6.50347H35.2758C35.1121 6.50347 34.9721 6.56157 34.8559 6.67777C34.7397 6.79397 34.6816 6.93394 34.6816 7.09768V13.5969C34.6816 13.7607 34.7397 13.9007 34.8559 14.0169C34.9721 14.1331 35.1121 14.1912 35.2758 14.1912ZM36.8181 8.29137H37.8745C38.1201 8.27552 38.3367 8.34682 38.5242 8.50528C38.6853 8.66637 38.7592 8.8618 38.7486 9.08892C38.7645 9.32132 38.6905 9.51939 38.5294 9.68841C38.3393 9.84422 38.1227 9.91288 37.8745 9.8944H36.8181V8.29137Z" fill="#F9DEB1"/>
<path d="M44.6626 14.1916H45.6106C45.7744 14.1916 45.9144 14.1335 46.0306 14.0173C46.1468 13.9011 46.2049 13.7611 46.2049 13.5974V12.6757C46.2049 12.5463 46.2445 12.4301 46.3211 12.3245C46.395 12.2215 46.4954 12.1502 46.6195 12.1106C46.741 12.0709 46.8651 12.0709 46.9866 12.1106C47.1107 12.1528 47.2084 12.2241 47.285 12.3297L48.4364 13.9433C48.5553 14.1071 48.7164 14.1916 48.9197 14.1916H50.0104C50.256 14.1916 50.4329 14.0807 50.5412 13.8615C50.6521 13.6423 50.6337 13.4363 50.4858 13.2409L48.5024 10.592C48.4232 10.4864 48.3836 10.3676 48.3836 10.2329C48.3836 10.1008 48.4232 9.98198 48.5051 9.87635L50.3352 7.45727C50.4831 7.26185 50.5016 7.05586 50.3933 6.83402C50.2851 6.61482 50.1055 6.50391 49.8599 6.50391H48.8986C48.6952 6.50391 48.5341 6.58577 48.4153 6.75215L47.2823 8.32349C47.2084 8.42913 47.108 8.50043 46.9866 8.54269C46.8624 8.5823 46.741 8.5823 46.6168 8.54269C46.4954 8.50307 46.395 8.43177 46.3184 8.32613C46.2445 8.22314 46.2049 8.10694 46.2049 7.97753V7.09811C46.2049 6.93437 46.1468 6.79441 46.0306 6.67821C45.9144 6.56201 45.7744 6.50391 45.6106 6.50391H44.6626C44.4988 6.50391 44.3589 6.56201 44.2427 6.67821C44.1265 6.79441 44.0684 6.93437 44.0684 7.09811V13.5974C44.0684 13.7611 44.1265 13.9011 44.2427 14.0173C44.3589 14.1335 44.4988 14.1916 44.6626 14.1916Z" fill="#F9DEB1"/>
<path d="M54.7583 14.1916H58.4872C58.651 14.1916 58.7909 14.1335 58.9071 14.0173C59.0233 13.9011 59.0814 13.7611 59.0814 13.5974V13.0745C59.0814 12.9107 59.0233 12.7708 58.9071 12.6546C58.7909 12.5384 58.651 12.4803 58.4872 12.4803H56.8948C56.731 12.4803 56.5911 12.4222 56.4749 12.306C56.3587 12.1898 56.3006 12.0498 56.3006 11.8861V11.688C56.3006 11.5243 56.3587 11.3843 56.4749 11.2681C56.5911 11.1519 56.731 11.0938 56.8948 11.0938H58.1598C58.3235 11.0938 58.4635 11.0357 58.5797 10.9195C58.6959 10.8033 58.754 10.6633 58.754 10.4996V10.0638C58.754 9.90011 58.6959 9.76015 58.5797 9.64395C58.4635 9.52775 58.3235 9.46965 58.1598 9.46965H56.3006V8.21521H58.4872C58.651 8.21521 58.7909 8.15711 58.9071 8.04356C59.0233 7.92736 59.0814 7.78475 59.0814 7.62101V7.09811C59.0814 6.93437 59.0233 6.79441 58.9071 6.67821C58.7909 6.56201 58.651 6.50391 58.4872 6.50391H54.7583C54.5945 6.50391 54.4546 6.56201 54.3384 6.67821C54.2222 6.79441 54.1641 6.93437 54.1641 7.09811V13.5974C54.1641 13.7611 54.2222 13.9011 54.3384 14.0173C54.4546 14.1335 54.5945 14.1916 54.7583 14.1916Z" fill="#F9DEB1"/>
<path d="M62.4868 8.20465H63.3266C63.4903 8.20465 63.6303 8.26275 63.7465 8.37895C63.8627 8.49515 63.9208 8.63512 63.9208 8.8015V13.5974C63.9208 13.7611 63.9789 13.9011 64.0951 14.0173C64.2113 14.1335 64.3513 14.1916 64.515 14.1916H65.4631C65.6268 14.1916 65.7668 14.1335 65.883 14.0173C65.9992 13.9011 66.0573 13.7611 66.0573 13.5974V8.8015C66.0573 8.63512 66.1154 8.49515 66.2316 8.37895C66.3478 8.26275 66.4878 8.20465 66.6515 8.20465H67.5124C67.6762 8.20465 67.8161 8.14655 67.9323 8.03035C68.0485 7.91679 68.1066 7.77418 68.1066 7.61045V7.09811C68.1066 6.93437 68.0485 6.79441 67.9323 6.67821C67.8161 6.56201 67.6762 6.50391 67.5124 6.50391H62.4868C62.323 6.50391 62.1831 6.56201 62.0669 6.67821C61.9507 6.79441 61.8926 6.93437 61.8926 7.09811V7.61045C61.8926 7.77418 61.9507 7.91415 62.0669 8.03035C62.1831 8.14655 62.323 8.20465 62.4868 8.20465Z" fill="#F9DEB1"/>
</g>
<defs>
<filter id="filter0_d_4189_6038" x="0.229596" y="0.478837" width="79.5467" height="70.6922" filterUnits="userSpaceOnUse" color-interpolation-filters="sRGB">
<feFlood flood-opacity="0" result="BackgroundImageFix"/>
<feColorMatrix in="SourceAlpha" type="matrix" values="0 0 0 0 0 0 0 0 0 0 0 0 0 0 0 0 0 0 127 0" result="hardAlpha"/>
<feOffset dy="0.507054"/>
<feGaussianBlur stdDeviation="1.01411"/>
<feComposite in2="hardAlpha" operator="out"/>
<feColorMatrix type="matrix" values="0 0 0 0 0.419608 0 0 0 0 0.262745 0 0 0 0 0.211765 0 0 0 0.8 0"/>
<feBlend mode="normal" in2="BackgroundImageFix" result="effect1_dropShadow_4189_6038"/>
<feBlend mode="normal" in="SourceGraphic" in2="effect1_dropShadow_4189_6038" result="shape"/>
</filter>
</defs>
</svg>
