<svg width="62" height="63" viewBox="0 0 62 63" fill="none" xmlns="http://www.w3.org/2000/svg">
<mask id="mask0_1570_1745" style="mask-type:luminance" maskUnits="userSpaceOnUse" x="0" y="0" width="62" height="63">
<path d="M0 0.814453H61.9999V62.8144H0V0.814453Z" fill="white"/>
</mask>
<g mask="url(#mask0_1570_1745)">
<path fill-rule="evenodd" clip-rule="evenodd" d="M30.9793 0.769531C48.1036 0.769531 61.9841 14.6507 61.9841 31.7743C61.9841 48.8986 48.1036 62.7798 30.9793 62.7798C13.855 62.7798 -0.026123 48.8986 -0.026123 31.7743C-0.026123 14.6507 13.855 0.769531 30.9793 0.769531Z" fill="white"/>
</g>
<path fill-rule="evenodd" clip-rule="evenodd" d="M30.9793 2.76172C47.0025 2.76172 59.9918 15.751 59.9918 31.7742C59.9918 47.7981 47.0025 60.7868 30.9793 60.7868C14.9555 60.7868 1.9668 47.7981 1.9668 31.7742C1.9668 15.751 14.9555 2.76172 30.9793 2.76172Z" fill="#FFFFCC"/>
<path d="M21.9044 49.8564L21.4836 50.6822L19.3701 49.5981L20.362 47.6555C20.6706 47.564 21.0586 47.5391 21.5255 47.5846C21.9923 47.6349 22.4301 47.7598 22.8302 47.9641C23.3383 48.2267 23.7263 48.5601 23.9931 48.9688C24.2599 49.3732 24.389 49.8273 24.3763 50.3232C24.3642 50.8156 24.235 51.2988 23.9974 51.7656C23.7348 52.2743 23.3971 52.6702 22.9842 52.9582C22.5713 53.2413 22.1045 53.3875 21.5879 53.3875C21.192 53.3917 20.7622 53.2705 20.2996 53.0328C19.6951 52.7248 19.287 52.358 19.0785 51.9281C18.8699 51.4989 18.8323 51.0362 18.9615 50.5403L20.037 50.8574C19.9831 51.132 20.0122 51.3867 20.1328 51.6244C20.2498 51.8578 20.4499 52.0451 20.7331 52.1912C21.1587 52.4119 21.571 52.4495 21.9632 52.3077C22.3549 52.1615 22.6884 51.8244 22.9636 51.2909C23.2595 50.7113 23.3553 50.2111 23.2468 49.7897C23.1382 49.3689 22.8757 49.0524 22.4592 48.8396C22.2549 48.7354 22.0299 48.6729 21.7795 48.6438C21.5334 48.6183 21.3042 48.6268 21.0962 48.6687L20.7834 49.2859L21.9044 49.8564ZM18.0653 48.3728C17.6609 48.7602 17.265 49.0185 16.8776 49.1604C16.5896 49.2646 16.2895 49.315 15.9815 49.3107C15.6729 49.3065 15.3934 49.2525 15.1394 49.1398C14.7974 48.9936 14.4767 48.7602 14.1681 48.4352C13.6091 47.8514 13.3465 47.2135 13.3756 46.5175C13.4053 45.8215 13.7424 45.1673 14.3845 44.5501C15.0266 43.9414 15.6935 43.637 16.3853 43.6412C17.0777 43.6412 17.7028 43.9377 18.2569 44.5167C18.8159 45.1048 19.0827 45.7463 19.0536 46.4345C19.0281 47.1262 18.6989 47.7725 18.0653 48.3728ZM17.2523 47.5767C17.7028 47.1469 17.9447 46.7218 17.978 46.2926C18.0114 45.8633 17.878 45.4923 17.5736 45.1715C17.2693 44.8502 16.9025 44.7004 16.4775 44.7126C16.0518 44.7295 15.6104 44.9545 15.1515 45.3922C14.6974 45.8257 14.4555 46.2465 14.4221 46.6594C14.3888 47.0723 14.5306 47.4433 14.8435 47.7725C15.16 48.1018 15.5225 48.26 15.9439 48.2479C16.3604 48.2352 16.7982 48.0102 17.2523 47.5767ZM13.5302 43.212C13.0258 43.4412 12.5632 43.5582 12.1503 43.5624C11.8417 43.5667 11.5458 43.5121 11.2542 43.4078C10.9626 43.3035 10.7164 43.158 10.5121 42.9664C10.2411 42.716 10.0161 42.3868 9.83244 41.9824C9.49897 41.2488 9.46199 40.557 9.71603 39.9107C9.97431 39.2644 10.5121 38.7563 11.3209 38.3889C12.1297 38.0221 12.8591 37.9596 13.509 38.1888C14.1638 38.4222 14.6555 38.9061 14.9847 39.6354C15.3225 40.3775 15.36 41.0693 15.106 41.7114C14.8514 42.3535 14.3263 42.8537 13.5302 43.212ZM13.03 42.191C13.5927 41.9363 13.9637 41.6114 14.139 41.2197C14.3099 40.828 14.3057 40.4279 14.1262 40.0271C13.9425 39.627 13.6509 39.3602 13.2423 39.2353C12.8385 39.1061 12.3461 39.1728 11.7671 39.4354C11.196 39.6936 10.8249 40.015 10.6582 40.3903C10.4915 40.7692 10.4994 41.1651 10.6873 41.5823C10.8747 41.9951 11.1705 42.2662 11.5671 42.3911C11.9672 42.516 12.4547 42.4493 13.03 42.191ZM8.17361 36.7883L8.02385 34.7832C7.99051 34.3291 7.99414 33.9829 8.04871 33.7416C8.1154 33.416 8.26516 33.1287 8.48646 32.8825C8.71139 32.6369 8.9909 32.4405 9.33224 32.295C9.66995 32.1489 10.0956 32.0573 10.6036 32.0197C11.0541 31.9864 11.4458 32.0113 11.7793 32.0992C12.1837 32.2034 12.5214 32.3738 12.7839 32.6072C12.984 32.7825 13.1507 33.0286 13.2798 33.3451C13.3756 33.5828 13.4387 33.9041 13.4678 34.3085L13.626 36.376L8.17361 36.7883ZM9.01151 35.6169L12.6214 35.3422L12.559 34.525C12.5341 34.2164 12.5008 33.9999 12.4547 33.8665C12.3965 33.6913 12.3086 33.5494 12.1964 33.4415C12.0794 33.3287 11.8963 33.2493 11.6459 33.1953C11.4003 33.1371 11.0626 33.1244 10.6412 33.1578C10.2205 33.1911 9.89913 33.2493 9.67844 33.3415C9.46199 33.433 9.29101 33.5494 9.17824 33.6913C9.06183 33.8374 8.98665 34.012 8.95755 34.2206C8.93633 34.3752 8.94057 34.679 8.97392 35.1252L9.01151 35.6169ZM14.0929 27.5889L9.79121 26.1296L9.26979 27.6635L8.3943 27.3676L9.78697 23.2618L10.6625 23.5577L10.1453 25.0837L14.447 26.5382L14.0929 27.5889ZM15.3685 24.4459L10.6334 21.7194L11.1833 20.7608L15.9227 23.4867L15.3685 24.4459ZM16.3313 22.4821L12.3752 18.7097L13.5218 17.5092L16.894 19.3766L14.8641 16.1002L16.0106 14.8997L19.9661 18.6721L19.2616 19.41L16.144 16.4464L18.5158 20.1939L17.7822 20.9651L13.9262 18.7721L17.0401 21.7442L16.3313 22.4821ZM20.9168 18.0306L18.4237 13.1657L22.0257 11.3189L22.4464 12.1405L19.8327 13.4828L20.3832 14.562L22.8175 13.3161L23.2383 14.137L20.804 15.3836L21.4794 16.7004L24.1932 15.3126L24.614 16.1335L20.9168 18.0306ZM24.9141 14.0873L25.9563 13.7908C26.0812 14.1328 26.2564 14.3704 26.4814 14.5038C26.7027 14.633 26.9816 14.6705 27.3114 14.6123C27.657 14.5499 27.9074 14.4286 28.0571 14.2498C28.2075 14.0703 28.2657 13.883 28.2323 13.6829C28.2075 13.5574 28.1493 13.4531 28.0614 13.3785C27.9698 13.3033 27.8279 13.2494 27.6321 13.216C27.4945 13.1948 27.1944 13.1657 26.7233 13.1366C26.1145 13.0905 25.6768 12.9863 25.4064 12.8195C25.0226 12.5825 24.7934 12.249 24.7182 11.8191C24.6685 11.5445 24.7019 11.2735 24.814 11.0067C24.9226 10.7399 25.1142 10.5186 25.3852 10.3434C25.6519 10.1645 25.9939 10.0397 26.4068 9.96447C27.078 9.84321 27.6151 9.90202 28.0074 10.1433C28.3991 10.381 28.6495 10.7478 28.7574 11.2444L27.6739 11.4778C27.5781 11.2068 27.4448 11.0231 27.2695 10.9315C27.0986 10.8357 26.8567 10.8145 26.5523 10.8691C26.24 10.9273 26.0066 11.0358 25.852 11.1983C25.7562 11.2983 25.7186 11.4232 25.7435 11.5609C25.7647 11.69 25.8399 11.79 25.9605 11.861C26.1188 11.9525 26.4735 12.0113 27.0234 12.0447C27.5739 12.0738 27.9862 12.1362 28.2614 12.2235C28.5367 12.3114 28.7659 12.457 28.9532 12.6655C29.1369 12.8698 29.2576 13.1451 29.32 13.4828C29.3746 13.7908 29.3413 14.0952 29.2164 14.3953C29.0951 14.6954 28.8865 14.9373 28.5992 15.1247C28.3075 15.3126 27.928 15.446 27.4611 15.5291C26.7815 15.6503 26.2316 15.5879 25.8102 15.3417C25.3894 15.0913 25.0935 14.6748 24.9141 14.0873ZM35.6189 13.6829L35.8274 12.7825L38.1411 13.3161L37.6487 15.4418C37.3741 15.6085 37.0073 15.7255 36.5398 15.7958C36.073 15.8625 35.6231 15.8462 35.1854 15.7461C34.627 15.617 34.168 15.3878 33.8097 15.058C33.4513 14.7288 33.2179 14.3207 33.1094 13.8369C33.0009 13.3531 33.0051 12.8571 33.1221 12.3448C33.2513 11.79 33.4847 11.3232 33.8139 10.9442C34.1474 10.5647 34.5645 10.3101 35.0647 10.1852C35.4479 10.0851 35.8899 10.0936 36.3986 10.21C37.0612 10.3646 37.5445 10.6229 37.8531 10.9855C38.1617 11.3523 38.3114 11.79 38.3035 12.303L37.1861 12.2569C37.174 11.9816 37.0776 11.7403 36.9072 11.5402C36.7363 11.3402 36.4944 11.2068 36.1857 11.1358C35.7147 11.0273 35.3103 11.0898 34.9647 11.3232C34.6185 11.5566 34.3766 11.9695 34.2432 12.557C34.0977 13.1906 34.1268 13.695 34.3347 14.0788C34.5433 14.4577 34.8725 14.6997 35.3272 14.8082C35.5522 14.8579 35.7898 14.8664 36.036 14.8288C36.2815 14.7954 36.4986 14.733 36.6902 14.6414L36.8484 13.966L35.6189 13.6829ZM39.6871 14.2831C39.9872 13.8163 40.3128 13.4658 40.6542 13.2367C40.9088 13.0699 41.1877 12.9493 41.4878 12.8783C41.7879 12.8074 42.0759 12.7989 42.3512 12.845C42.7137 12.9074 43.0848 13.0572 43.4595 13.2991C44.1392 13.7326 44.5478 14.291 44.6854 14.9749C44.8231 15.6582 44.6478 16.3755 44.1683 17.1261C43.6893 17.8676 43.1139 18.3223 42.4427 18.4848C41.7673 18.6473 41.0919 18.5096 40.4171 18.0761C39.7332 17.6384 39.3203 17.08 39.1827 16.4003C39.0493 15.7255 39.216 15.0167 39.6871 14.2831ZM40.6626 14.8664C40.3292 15.3878 40.1958 15.8625 40.2667 16.2839C40.3334 16.7089 40.5541 17.0381 40.9252 17.2758C41.2962 17.5177 41.6879 17.5759 42.0965 17.4632C42.5052 17.3467 42.8805 17.0218 43.2224 16.4882C43.5638 15.9589 43.7014 15.4915 43.6347 15.0834C43.568 14.6748 43.3431 14.3498 42.9593 14.1037C42.5761 13.8575 42.1802 13.7908 41.78 13.9036C41.3756 14.0164 41.0046 14.3371 40.6626 14.8664ZM45.2566 18.2762C45.6943 17.9306 46.1151 17.7093 46.5152 17.605C46.8111 17.5305 47.1155 17.5092 47.4198 17.5426C47.7284 17.5717 48.0037 17.6596 48.245 17.793C48.5706 17.9718 48.8707 18.2344 49.1453 18.5848C49.6419 19.2184 49.842 19.8811 49.7498 20.5692C49.654 21.261 49.2581 21.8818 48.5578 22.4324C47.8618 22.9786 47.1658 23.2157 46.4776 23.149C45.7901 23.0787 45.1977 22.7282 44.7018 22.0989C44.1974 21.4568 43.9936 20.7941 44.0894 20.1102C44.181 19.4269 44.5727 18.814 45.2566 18.2762ZM45.9902 19.1474C45.5021 19.5312 45.2232 19.9356 45.148 20.3564C45.0728 20.7772 45.1729 21.1652 45.4439 21.5108C45.7149 21.857 46.0654 22.0443 46.4904 22.0698C46.9111 22.0947 47.3737 21.9109 47.8739 21.5193C48.3663 21.1319 48.6494 20.7359 48.7203 20.3273C48.7955 19.9229 48.6912 19.5391 48.4075 19.1808C48.1243 18.8225 47.7739 18.6309 47.3574 18.6054C46.9402 18.5763 46.4861 18.76 45.9902 19.1474ZM51.8925 23.2284L52.5388 25.1334C52.6849 25.5669 52.7637 25.9046 52.7722 26.1508C52.7849 26.4842 52.714 26.8007 52.5594 27.0924C52.4054 27.3846 52.1805 27.6429 51.8882 27.8678C51.5924 28.0934 51.2049 28.2892 50.7211 28.4517C50.2919 28.5972 49.9087 28.6681 49.5667 28.6681C49.1453 28.6639 48.7785 28.5851 48.462 28.4226C48.2244 28.3013 48.0037 28.1012 47.8036 27.8302C47.649 27.6259 47.5114 27.33 47.378 26.9426L46.7153 24.9794L51.8925 23.2284ZM51.3717 24.575L47.9449 25.7337L48.2074 26.5091C48.3074 26.8007 48.3954 27.0051 48.4705 27.1221C48.5706 27.2803 48.6912 27.3925 48.8289 27.4719C48.9665 27.5471 49.1666 27.5804 49.4206 27.5719C49.6752 27.5677 50.0045 27.4925 50.4046 27.3591C50.8048 27.2221 51.0964 27.0845 51.288 26.9426C51.4802 26.8007 51.6136 26.6425 51.6924 26.4758C51.7676 26.309 51.7924 26.1211 51.7718 25.9131C51.7548 25.7543 51.676 25.4669 51.5299 25.0419L51.3717 24.575ZM48.2868 33.8041L53.9557 32.5533L53.806 33.7374L49.6164 34.6044L53.464 36.4342L53.3142 37.6013L48.1371 34.9833L48.2868 33.8041ZM47.6448 37.397L52.8219 39.148L52.4679 40.1981L47.2907 38.4477L47.6448 37.397ZM51.7506 42.2031L50.6587 44.1002C50.4422 44.4749 50.267 44.7459 50.1294 44.9126C49.9917 45.0794 49.8335 45.2049 49.6498 45.2964C49.4667 45.3837 49.2666 45.4298 49.0453 45.4298C48.8246 45.4341 48.6118 45.3753 48.4075 45.2588C48.1868 45.1339 48.0201 44.9545 47.9036 44.7295C47.7866 44.5046 47.7406 44.2627 47.766 44.0081C47.5156 44.2457 47.2446 44.3833 46.953 44.4209C46.6613 44.4585 46.3776 44.4003 46.1023 44.2415C45.8901 44.1166 45.7064 43.9456 45.5609 43.7292C45.4148 43.5121 45.3275 43.2829 45.3063 43.0368C45.2857 42.7955 45.3311 42.5366 45.4524 42.2662C45.5276 42.0952 45.7355 41.7072 46.0817 41.0948L47.0112 39.4814L51.7506 42.2031ZM50.4089 42.7118L49.3163 42.0825L48.958 42.7118C48.7452 43.0828 48.616 43.3163 48.5742 43.4121C48.4996 43.5873 48.4827 43.7498 48.5203 43.8959C48.5621 44.0456 48.6579 44.1584 48.8119 44.25C48.958 44.3336 49.0999 44.3585 49.2375 44.3336C49.3751 44.3045 49.5 44.2166 49.6086 44.0669C49.6752 43.979 49.8377 43.7079 50.096 43.2623L50.4089 42.7118ZM48.5287 41.632L47.2616 40.8984L46.7487 41.7866C46.5528 42.1328 46.4358 42.3577 46.4025 42.462C46.3443 42.616 46.3443 42.77 46.3903 42.9161C46.44 43.0622 46.5486 43.1871 46.7153 43.2829C46.8614 43.3666 46.9991 43.3999 47.1403 43.3872C47.278 43.3745 47.4071 43.3163 47.5284 43.212C47.649 43.1077 47.837 42.8409 48.0867 42.4032L48.5287 41.632ZM44.027 44.1166L47.7994 48.0727L44.8728 50.8653L44.2349 50.1941L46.3612 48.1685L45.5233 47.2887L43.5474 49.1773L42.9096 48.5062L44.8855 46.6218L43.8639 45.5505L41.6588 47.6513L41.021 46.9844L44.027 44.1166ZM41.1841 48.9979L40.2461 49.5399C40.0418 49.2355 39.8126 49.0524 39.5665 48.9773C39.3161 48.9021 39.0372 48.9354 38.7328 49.0773C38.4115 49.2192 38.1993 49.398 38.0992 49.6108C37.9949 49.8194 37.9864 50.0195 38.0659 50.2026C38.1198 50.3196 38.1993 50.4027 38.3078 50.4566C38.4115 50.507 38.5661 50.5233 38.7661 50.5069C38.8995 50.4942 39.1996 50.4487 39.6623 50.3608C40.2625 50.2565 40.713 50.2487 41.0173 50.3487C41.4466 50.4863 41.7509 50.7531 41.9298 51.1448C42.0426 51.3988 42.0802 51.6698 42.0383 51.9578C41.9923 52.2452 41.8631 52.5035 41.6467 52.7412C41.4296 52.9788 41.1295 53.1874 40.7463 53.3584C40.1249 53.6415 39.5913 53.7124 39.1536 53.5791C38.7122 53.4457 38.3824 53.1498 38.1574 52.6957L39.1493 52.2034C39.3082 52.441 39.4828 52.5872 39.675 52.6326C39.8666 52.6829 40.1042 52.6454 40.3837 52.5162C40.6711 52.3871 40.8712 52.2246 40.9797 52.0282C41.0507 51.9033 41.0586 51.7784 41.0004 51.645C40.9464 51.528 40.8506 51.4491 40.713 51.4115C40.5377 51.3612 40.1794 51.3909 39.6416 51.4946C39.0996 51.5989 38.6867 51.6407 38.3951 51.6244C38.1077 51.6074 37.8488 51.5201 37.6196 51.3655C37.3905 51.2115 37.2031 50.978 37.0612 50.6609C36.9321 50.3778 36.8903 50.0734 36.9363 49.7527C36.9818 49.4314 37.1237 49.144 37.3571 48.8936C37.5948 48.6396 37.9282 48.4183 38.3617 48.2224C38.9911 47.9393 39.5374 47.8641 40.0084 48.0017C40.4753 48.1394 40.867 48.4728 41.1841 48.9979Z" fill="#1E57A4"/>
<path fill-rule="evenodd" clip-rule="evenodd" d="M30.9795 18.6006C38.2533 18.6006 44.1519 24.4992 44.1519 31.773C44.1519 39.0473 38.2533 44.9454 30.9795 44.9454C23.7052 44.9454 17.8071 39.0473 17.8071 31.773C17.8071 24.4992 23.7052 18.6006 30.9795 18.6006Z" fill="#E9B50A"/>
<path d="M30.9793 4.12988C38.612 4.12988 45.5274 7.22321 50.5294 12.2252C55.5313 17.2277 58.6289 24.1431 58.6289 31.7752C58.6289 39.4121 55.5313 46.3233 50.5294 51.3259C45.5274 56.3278 38.6156 59.4248 30.9793 59.4248C23.3466 59.4248 16.4312 56.3278 11.4293 51.3259C6.42671 46.3233 3.33398 39.4121 3.33398 31.7752C3.33398 24.1431 6.42671 17.2277 11.4293 12.2252C16.4312 7.22321 23.3424 4.12988 30.9793 4.12988ZM50.1583 12.5962C45.2521 7.68582 38.4701 4.6513 30.9793 4.6513C23.4885 4.6513 16.7065 7.68582 11.8003 12.5962C6.88931 17.5066 3.85479 24.2844 3.85479 31.7752C3.85479 39.266 6.88931 46.048 11.8003 50.9548C16.7065 55.8652 23.4885 58.8997 30.9793 58.8997C38.4701 58.8997 45.2521 55.8652 50.1583 50.9548C55.0687 46.048 58.1032 39.266 58.1032 31.7752C58.1032 24.2844 55.0687 17.5024 50.1583 12.5962Z" fill="#1E57A4"/>
<path fill-rule="evenodd" clip-rule="evenodd" d="M27.0565 23.9678C28.1157 23.9678 28.97 25.6224 28.97 27.6607C28.97 29.6991 28.1157 31.3543 27.0565 31.3543C25.9979 31.3543 25.1431 29.6991 25.1431 27.6607C25.1431 25.6224 25.9979 23.9678 27.0565 23.9678Z" fill="#1E57A4"/>
<path fill-rule="evenodd" clip-rule="evenodd" d="M34.5933 23.9678C35.6476 23.9678 36.5061 25.6224 36.5061 27.6607C36.5061 29.6991 35.6476 31.3543 34.5933 31.3543C33.5341 31.3543 32.6755 29.6991 32.6755 27.6607C32.6755 25.6224 33.5341 23.9678 34.5933 23.9678Z" fill="#1E57A4"/>
<path d="M40.1793 33.1875C39.6749 35.2386 38.5035 37.0266 36.9071 38.3107C35.281 39.6155 33.2221 40.3952 30.9794 40.3952C28.7367 40.3952 26.6777 39.6155 25.0516 38.3107C23.4552 37.0266 22.2839 35.2386 21.7794 33.1875C21.6212 33.1457 21.4751 33.0747 21.3544 32.9747C21.1586 32.8207 21.0209 32.6 20.9621 32.3496C20.9251 32.1744 21.0373 32.004 21.2125 31.9664C21.3878 31.9288 21.563 32.0374 21.6 32.212C21.6212 32.3163 21.6794 32.4078 21.7588 32.4709C21.8334 32.5333 21.9334 32.5709 22.0419 32.5709C22.1547 32.5709 22.2505 32.5333 22.3299 32.4709C22.4088 32.4078 22.467 32.3163 22.4882 32.212C22.5258 32.0374 22.7004 31.9288 22.8756 31.9664C23.0508 32.004 23.1594 32.1744 23.1218 32.3496C23.0678 32.6 22.9259 32.8207 22.7337 32.9747C22.6464 33.0456 22.5464 33.1044 22.4379 33.1457C22.9217 35.0094 24.0015 36.6349 25.456 37.8063C26.9693 39.0195 28.8864 39.7488 30.9794 39.7488C33.0717 39.7488 34.9894 39.0195 36.5027 37.8063C37.9572 36.6349 39.0371 35.0094 39.5203 33.1457C39.4124 33.1044 39.3123 33.0456 39.2244 32.9747C39.0286 32.8207 38.8909 32.6 38.837 32.3496C38.7994 32.1744 38.9079 32.004 39.0825 31.9664C39.2578 31.9288 39.433 32.0374 39.4706 32.212C39.4912 32.3163 39.5494 32.4078 39.6288 32.4709C39.704 32.5333 39.804 32.5709 39.9126 32.5709C40.0247 32.5709 40.1205 32.5333 40.1999 32.4709C40.2794 32.4078 40.3376 32.3163 40.3582 32.212C40.3958 32.0374 40.571 31.9288 40.7462 31.9664C40.9208 32.004 41.0294 32.1744 40.9918 32.3496C40.9378 32.6 40.7959 32.8207 40.6043 32.9747C40.4837 33.0747 40.3376 33.1457 40.1793 33.1875Z" fill="#1E57A4"/>
<path fill-rule="evenodd" clip-rule="evenodd" d="M27.5194 24.8125C27.7783 24.8125 27.9863 25.2169 27.9863 25.7129C27.9863 26.213 27.7783 26.6174 27.5194 26.6174C27.2612 26.6174 27.0483 26.213 27.0483 25.7129C27.0483 25.2169 27.2612 24.8125 27.5194 24.8125Z" fill="white"/>
<path fill-rule="evenodd" clip-rule="evenodd" d="M35.1769 24.8125C35.4358 24.8125 35.6438 25.2169 35.6438 25.7129C35.6438 26.213 35.4358 26.6174 35.1769 26.6174C34.9186 26.6174 34.7058 26.213 34.7058 25.7129C34.7058 25.2169 34.9186 24.8125 35.1769 24.8125Z" fill="white"/>
</svg>
