<svg width="63" height="64" viewBox="0 0 63 64" fill="none" xmlns="http://www.w3.org/2000/svg">
<path d="M23.0534 35.0076C20.2734 37.7089 18.2644 39.7514 16.0304 41.339C0.97841 52.032 -9.0565 29.6326 13.0427 30.0547C16.5502 30.1222 20.0552 30.3399 23.5443 30.7083L23.0534 35.0076Z" fill="white"/>
<path d="M1.36018 34.2943C1.01474 34.801 0.806948 35.2671 0.681749 35.6309C-0.139581 38.0247 0.829235 40.768 3.09068 42.4578C6.45531 44.9716 11.2502 44.4918 15.9167 41.177C17.8661 39.7926 19.6589 38.0424 21.9301 35.8262C22.233 35.5306 22.5443 35.2271 22.8668 34.9138L23.327 30.8806C19.923 30.5272 16.4633 30.3149 13.0384 30.2493C5.65496 30.1084 2.60955 32.4623 1.36018 34.2943ZM23.2405 35.098L23.1906 35.1465C22.8504 35.4769 22.5227 35.7967 22.2048 36.1074C19.9211 38.3354 18.1178 40.0948 16.1441 41.4969C11.3315 44.9159 6.36354 45.3931 2.85601 42.7725C0.45626 40.9804 -0.566306 38.0595 0.310086 35.5037C0.913793 33.7424 3.36402 29.6718 13.0463 29.8567C16.5479 29.9235 20.0869 30.1438 23.5649 30.5102L23.7622 30.5312L23.2405 35.098Z" fill="#1A1A1A"/>
<path d="M26.4088 33.8584C22.3224 36.6901 18.5508 39.9767 15.1848 43.637C13.6693 45.2856 12.203 47.1413 11.4446 49.2755C10.3112 52.4645 11.7343 57.0477 15.0196 58.3731C18.1856 59.6506 21.2651 57.5675 23.3267 55.2838C25.3987 52.9882 26.8198 50.0936 27.7375 47.1596C29.0045 43.1106 29.0917 38.7982 29.0845 34.5558L26.4088 33.8584Z" fill="white"/>
<path d="M13.1145 46.5013C12.5213 47.3711 11.9923 48.3229 11.6298 49.3422C10.5587 52.3562 11.8383 56.879 15.0934 58.1926C18.502 59.5672 21.6241 56.8784 23.1815 55.1531C25.0615 53.0713 26.5304 50.3628 27.5504 47.1017C28.784 43.1596 28.8935 38.9907 28.8889 34.709L26.4478 34.0719C22.4028 36.8833 18.6626 40.1457 15.3301 43.7705C14.6195 44.5434 13.8218 45.463 13.1145 46.5013ZM24.9651 53.5138C24.4997 54.1955 24.0029 54.83 23.4732 55.4166C21.847 57.2179 18.5767 60.0208 14.9466 58.5564C11.4948 57.1642 10.1301 52.3889 11.2601 49.2105C12.0782 46.9084 13.7103 44.9524 15.041 43.5051C18.4135 39.8363 22.2009 36.5365 26.2977 33.6983L26.3718 33.6465L29.2815 34.4049V34.5563C29.2887 38.9232 29.1904 43.1767 27.926 47.2191C27.1748 49.6195 26.1824 51.7275 24.9651 53.5138Z" fill="#1A1A1A"/>
<path d="M29.522 36.8185C29.465 41.1198 29.1091 45.4179 29.2382 49.7218C29.3562 53.6489 29.566 58.7919 32.4718 61.7842C34.159 63.5225 37.2339 64.4009 39.2725 62.7287C40.6818 61.5725 41.0849 59.5968 41.1806 57.7765C41.3884 53.8128 40.5605 49.7762 38.8254 46.2058C36.9474 42.343 33.9578 39.1226 31.0861 35.9814L29.522 36.8185Z" fill="white"/>
<path d="M29.7167 36.9372C29.6931 38.5425 29.6295 40.1707 29.5659 41.7465C29.4623 44.3593 29.3548 47.0599 29.4348 49.716C29.541 53.274 29.7022 58.6497 32.6126 61.6479C34.2474 63.3318 37.2109 64.1656 39.1479 62.5767C40.2628 61.6636 40.862 60.0898 40.9845 57.7661C41.191 53.8285 40.3835 49.8608 38.6484 46.2917C36.832 42.5554 33.9518 39.4058 31.1659 36.3604L31.044 36.2266L29.7167 36.9372ZM40.2229 61.973C39.9843 62.3224 39.7096 62.6239 39.3969 62.8809C37.2869 64.6113 34.0868 63.7297 32.3307 61.9212C29.3142 58.8148 29.1503 53.3461 29.0415 49.7278C28.9615 47.058 29.069 44.3501 29.1733 41.7308C29.2375 40.1196 29.3037 38.454 29.3253 36.8159L29.3273 36.6999L31.1279 35.7363L31.4563 36.0949C34.2605 39.1619 37.1611 42.3319 39.0017 46.12C40.7656 49.7488 41.5869 53.7833 41.3765 57.787C41.2821 59.5936 40.9019 60.9767 40.2229 61.973Z" fill="#1A1A1A"/>
<path d="M32.6953 36.66C35.6103 40.0122 38.3653 43.5295 41.4881 46.6942C44.0832 49.3241 47.1253 52.1348 50.9114 52.7451C53.1584 53.1076 55.6709 52.4849 57.1084 50.7203C58.6809 48.7905 58.6331 45.907 57.5607 43.6606C56.1304 40.6637 53.2318 38.0011 50.0776 37.1031C46.4528 36.0701 42.7519 35.3038 39.0156 34.8135L32.6953 36.66Z" fill="white"/>
<path d="M33.0448 36.7617C33.8831 37.7305 34.7202 38.7242 35.5311 39.6871C37.4726 41.9938 39.4804 44.3791 41.6278 46.5553C44.1789 49.1399 47.2126 51.9487 50.943 52.5505C53.3165 52.9326 55.6769 52.1657 56.9558 50.5951C58.563 48.6208 58.3316 45.7301 57.3838 43.7439C55.9214 40.6808 53.032 38.1474 50.024 37.2906C46.4319 36.2674 42.7336 35.5005 39.0307 35.0122L33.0448 36.7617ZM57.5293 50.4844C57.4454 50.6069 57.3563 50.7262 57.2612 50.8429C55.8945 52.5203 53.3899 53.343 50.88 52.9379C47.0329 52.3178 43.943 49.4605 41.3485 46.8313C39.1893 44.6433 37.177 42.252 35.2302 39.9395C34.3558 38.9012 33.4518 37.8275 32.5479 36.7879L32.3467 36.5565L38.9999 34.6123L39.0406 34.6169C42.7762 35.1079 46.5079 35.88 50.1315 36.9124C53.2437 37.7993 56.2295 40.4141 57.7378 43.5748C58.6843 45.5557 58.9517 48.3973 57.5293 50.4844Z" fill="#1A1A1A"/>
<path d="M36.9674 33.4035C43.5865 34.7243 50.3584 36.7078 57.1657 35.7049C59.1662 35.4099 61.3484 34.6836 62.2752 32.8863C62.7262 32.0105 62.8121 30.9814 62.6712 30.0067C61.9586 25.0807 56.8504 23.6563 52.6467 24.6651C47.4218 25.9204 42.3654 28.5174 36.8914 28.5037L36.9674 33.4035Z" fill="white"/>
<mask id="mask0_1570_1715" style="mask-type:luminance" maskUnits="userSpaceOnUse" x="36" y="24" width="27" height="13">
<path d="M36.5806 24.1328H63.0001V36.2148H36.5806V24.1328Z" fill="white"/>
</mask>
<g mask="url(#mask0_1570_1715)">
<path d="M37.1612 33.2389C38.2638 33.4605 39.3866 33.7037 40.4741 33.9383C45.9186 35.1149 51.5486 36.3315 57.1366 35.5076C59.6963 35.1307 61.3672 34.215 62.1007 32.7932C62.6002 31.8231 62.5812 30.7566 62.4763 30.0316C62.2167 28.2362 61.36 26.8341 59.9303 25.8647C58.0556 24.5943 55.3498 24.2161 52.6924 24.8539C50.9383 25.2747 49.1685 25.8601 47.4577 26.4251C44.1238 27.5263 40.6786 28.6649 37.0911 28.6964L37.1612 33.2389ZM62.1977 33.3969C61.3108 34.6974 59.6308 35.5371 57.1943 35.8963C51.5348 36.7301 45.8694 35.5063 40.3915 34.3225C39.2536 34.0766 38.0783 33.823 36.9285 33.5929L36.7732 33.5621L36.6919 28.3044H36.8918C40.4878 28.3142 43.9685 27.1645 47.3338 26.0521C49.0531 25.4845 50.8308 24.8972 52.6007 24.4717C55.3635 23.8084 58.1861 24.2082 60.1513 25.5402C61.6543 26.5588 62.593 28.0927 62.865 29.9759C62.9784 30.7566 62.9974 31.9109 62.4494 32.9735C62.374 33.119 62.2908 33.2606 62.1977 33.3969Z" fill="#1A1A1A"/>
</g>
<path d="M37.4506 27.7144C46.1306 26.6964 56.5398 21.8536 57.5525 18.508C57.995 17.0469 57.3421 15.4809 56.5109 14.2008C50.7872 5.38638 41.9695 16.2774 35.6919 24.3668L37.4506 27.7144Z" fill="white"/>
<path d="M37.5616 27.5038C46.0325 26.474 56.3631 21.763 57.3647 18.4508C57.7173 17.2866 57.3745 15.8924 56.346 14.3081C55.0246 12.2721 53.4481 11.2024 51.6612 11.127C46.8191 10.9231 41.2357 17.5502 35.9249 24.3876L37.5616 27.5038ZM57.3207 19.4052C55.0357 22.7567 45.4111 26.9794 37.4731 27.9095L37.3394 27.9253L35.4595 24.3463L35.5368 24.2466C40.9335 17.2932 46.6251 10.522 51.6776 10.7344C53.5989 10.815 55.2802 11.9457 56.6757 14.0944C57.7704 15.7797 58.129 17.2847 57.7409 18.5655C57.6583 18.8369 57.5167 19.1181 57.3207 19.4052Z" fill="#1A1A1A"/>
<path d="M26.9808 30.1091C16.4562 31.0071 1.28356 26.8795 1.15968 17.8999C1.09478 13.242 5.30697 10.4627 10.2271 12.3761C13.416 13.615 23.5794 22.1311 27.5111 28.5372L26.9808 30.1091Z" fill="white"/>
<path d="M2.36555 14.3441C1.69433 15.3293 1.33708 16.5564 1.35544 17.8988C1.3869 20.1878 2.42061 22.2703 4.42838 24.088C9.534 28.7105 19.5348 30.5177 26.8357 29.9258L27.2958 28.563C23.2705 22.0704 13.2264 13.7542 10.1561 12.5599C7.7799 11.6363 5.43128 11.7903 3.71258 12.984C3.17967 13.3543 2.72673 13.8145 2.36555 14.3441ZM27.1254 30.2955L26.9969 30.306C19.601 30.9379 9.38323 29.1045 4.16487 24.379C2.0732 22.4853 0.995574 20.3071 0.962144 17.9047C0.931991 15.7075 1.8523 13.7961 3.48906 12.6608C5.31657 11.3924 7.79826 11.222 10.2983 12.1941C13.4204 13.4081 23.65 21.8724 27.6786 28.4359L27.7271 28.5145L27.1254 30.2955Z" fill="#1A1A1A"/>
<path d="M26.7865 25.2378C20.7206 20.3551 11.5109 6.43903 17.8148 1.55038C19.9425 -0.0994871 23.6218 -0.144716 26.9936 3.28416C33.8068 10.2107 30.5719 17.8551 28.4134 24.9566L26.7865 25.2378Z" fill="white"/>
<path d="M26.8391 25.034L28.2641 24.7875C28.4365 24.2251 28.6141 23.6588 28.7931 23.0898C30.869 16.4969 33.0145 9.67848 26.8568 3.41854C23.5282 0.0342461 19.9761 0.117493 17.9323 1.70181C16.5957 2.7388 15.9088 4.26085 15.8911 6.22601C15.8354 12.3444 22.2074 21.2689 26.8391 25.034ZM28.5624 25.1251L26.7335 25.4417L26.666 25.3873C21.9681 21.6058 15.4506 12.4853 15.507 6.22273C15.526 4.13369 16.2627 2.51069 17.6969 1.39832C19.8751 -0.289566 23.6363 -0.402966 27.1308 3.14979C33.4497 9.57426 31.2689 16.5035 29.1595 23.2052C28.9688 23.8109 28.7793 24.4133 28.5971 25.0124L28.5624 25.1251Z" fill="#1A1A1A"/>
<path d="M30.7502 22.8145C31.3448 18.0805 31.5067 13.1034 32.8635 8.50772C33.9163 4.94448 36.2059 0.968925 40.2516 0.409136C41.9427 0.175126 43.7637 0.69493 44.9456 1.92594C46.6675 3.71805 46.7311 6.59697 45.8921 8.9351C44.819 11.9248 42.69 14.7709 40.736 17.248C38.5394 20.0312 36.0355 22.5732 33.2627 24.7849L30.7502 22.8145Z" fill="white"/>
<path d="M33.262 24.5332C35.9345 22.3858 38.3971 19.8936 40.5819 17.1255C42.4999 14.6942 44.6368 11.8507 45.7072 8.86824C46.4138 6.89784 46.6019 3.93305 44.8046 2.06163C43.7138 0.926319 41.9801 0.367185 40.2784 0.603162C35.69 1.23833 33.6966 6.38131 33.0523 8.56279C32.0677 11.8992 31.7105 15.4874 31.365 18.9569C31.2412 20.1984 31.114 21.4819 30.9593 22.7279L33.262 24.5332ZM43.4215 13.9725C42.6054 15.1695 41.7277 16.3074 40.8906 17.3686C38.6534 20.203 36.1292 22.7496 33.3859 24.9376L33.264 25.0346L30.5417 22.9003L30.5555 22.7889C30.7161 21.5133 30.8466 20.1945 30.9744 18.9182C31.3205 15.4304 31.6797 11.8239 32.676 8.45135C33.3407 6.19712 35.4094 0.880434 40.2247 0.2138C42.0482 -0.0385635 43.9111 0.565143 45.0871 1.7896C47.0096 3.79081 46.8222 6.92471 46.0769 9.00131C45.4581 10.7266 44.4939 12.3994 43.4215 13.9725Z" fill="#1A1A1A"/>
<path d="M26.2803 21.0477C31.5583 18.3511 38.0241 20.4427 40.7221 25.7194C43.4188 30.9968 41.3265 37.4606 36.0484 40.1573C30.7704 42.854 24.3053 40.7629 21.6073 35.4856C18.91 30.2089 21.0023 23.7444 26.2803 21.0477Z" fill="#FFF136"/>
<path d="M22.4692 24.6557C20.3676 27.7391 19.9685 31.8464 21.7822 35.3959C24.4264 40.5677 30.786 42.6253 35.9591 39.9817C38.4651 38.7015 40.3227 36.5227 41.1887 33.845C42.0552 31.168 41.8278 28.314 40.5469 25.8087C39.2654 23.3027 37.0859 21.4457 34.4083 20.5798C31.7306 19.7139 28.8759 19.9414 26.37 21.2222C24.7463 22.0521 23.4301 23.247 22.4692 24.6557ZM40.1917 36.7711C39.1737 38.2643 37.7926 39.4868 36.1381 40.3317C30.7716 43.073 24.1747 40.9394 21.4328 35.5748C18.6896 30.2096 20.8245 23.6141 26.1904 20.8722C28.79 19.5442 31.7522 19.3075 34.5295 20.2062C37.3068 21.1049 39.5683 23.0307 40.8963 25.6297C42.225 28.2288 42.4616 31.1889 41.5629 33.9663C41.2358 34.9757 40.7731 35.9177 40.1917 36.7711Z" fill="#1A1A1A"/>
<path d="M41.7169 31.338C41.3393 37.3534 36.1551 41.9242 30.1383 41.5466C24.1209 41.1691 19.5495 35.9861 19.9271 29.9707C20.3046 23.9552 25.4889 19.3845 31.5057 19.762C37.5224 20.1389 42.0945 25.3219 41.7169 31.338Z" fill="#FFBACC"/>
<path d="M31.5054 19.7605C25.4978 19.3829 20.3037 23.9628 19.9268 29.9691C19.5492 35.9754 24.1305 41.1682 30.138 41.5451C36.1456 41.922 41.3397 37.3421 41.7166 31.3364C42.0935 25.3302 37.513 20.1374 31.5054 19.7605ZM30.1105 41.9816C23.8624 41.5896 19.0976 36.1884 19.4896 29.9416C19.8816 23.6947 25.2841 18.9319 31.5329 19.3233C37.7811 19.7153 42.5458 25.1165 42.1538 31.3633C41.7619 37.6108 36.3586 42.3743 30.1105 41.9816Z" fill="#1E1E1E"/>
<path d="M29.136 26.5814C29.0187 28.441 28.3442 29.9126 27.6284 29.868C26.9126 29.8228 26.4275 28.2791 26.5442 26.4188C26.6609 24.5592 27.3354 23.0882 28.0512 23.1328C28.7669 23.1774 29.252 24.7217 29.136 26.5814Z" fill="#1E1E1E"/>
<path d="M34.306 24.415L35.1797 25.7064L36.7287 25.8833L35.7703 27.1117L36.0804 28.6397L34.6154 28.1081L33.2585 28.8757L33.3109 27.3182L32.1619 26.2648L33.6597 25.8335L34.306 24.415Z" fill="#1E1E1E"/>
<path d="M30.4355 38.5681C28.6696 38.4573 27.0335 37.7913 25.8136 36.6835C24.3971 35.3968 23.6603 33.627 23.6826 31.5648C23.6839 31.4036 23.8163 31.2744 23.9776 31.2764C24.1349 31.2777 24.268 31.4101 24.266 31.5714C24.2201 35.7875 27.5225 37.8614 30.6138 37.9932C33.6684 38.1295 36.8927 36.4502 37.21 32.394C37.2224 32.2347 37.3601 32.1154 37.5187 32.1252L37.5233 32.1259C37.6846 32.1384 37.8045 32.2786 37.7921 32.4392C37.446 36.8605 33.8145 38.7201 30.5882 38.5766C30.5371 38.574 30.4866 38.5713 30.4355 38.5681Z" fill="#1E1E1E"/>
</svg>
