<svg width="132" height="43" viewBox="0 0 132 43" fill="none" xmlns="http://www.w3.org/2000/svg">
<rect x="0.79248" y="0.857422" width="131.207" height="41.9146" rx="6" fill="#FF5055"/>
<path d="M15.9845 27.3054C15.9845 27.2814 15.9845 27.2334 15.9845 27.1854C15.9365 26.8734 16.0565 26.6094 16.2245 26.3694C16.4165 26.1294 16.6325 25.8894 16.8965 25.7214C16.9445 25.6974 16.9925 25.6734 17.0645 25.6494C17.2325 25.6494 17.4245 25.6494 17.6165 25.6734C17.8085 25.6734 18.0005 25.7934 18.1445 25.9134C18.4565 26.1774 18.7925 26.4174 19.1285 26.6334C19.1525 26.6574 19.2005 26.6814 19.2485 26.7054C19.5125 26.7774 19.7765 26.8254 20.0405 26.8974C20.1605 26.9214 20.3045 26.9214 20.4245 26.9454C20.7605 27.0174 21.0725 26.9214 21.3845 26.7294C21.4325 26.7054 21.4565 26.6574 21.5045 26.5854C21.8165 26.2014 21.9125 25.7694 21.9125 25.2654C21.9125 25.0014 21.7925 24.7614 21.6245 24.5694C21.4565 24.4014 21.2885 24.2334 21.0485 24.1374C20.4965 23.9214 19.9925 23.6094 19.4645 23.2974C18.9605 23.0094 18.4805 22.6974 17.9765 22.3854C17.6885 22.2174 17.4005 22.0254 17.1365 21.8094C16.8245 21.5214 16.5125 21.1854 16.2965 20.7774C16.0085 20.2494 15.8645 19.6734 15.8165 19.0734C15.7925 18.6654 15.7925 18.2574 15.7925 17.8494C15.7925 17.8254 15.7925 17.8014 15.7925 17.7774C15.9125 17.2974 16.0085 16.8414 16.2245 16.4094C16.3685 16.1214 16.5605 15.8814 16.7045 15.5934C16.8965 15.2814 17.2085 15.0414 17.4725 14.7534C17.7845 14.3934 18.1685 14.1054 18.5765 13.8654C18.7205 13.7694 18.8645 13.7214 19.0325 13.6734C19.2965 13.6014 19.5605 13.5294 19.8245 13.4814C20.5205 13.3614 21.2165 13.3614 21.9125 13.4814C22.2725 13.5534 22.6085 13.6974 22.9445 13.8654C23.3285 14.0574 23.6645 14.3214 24.0245 14.5854C24.1685 14.6814 24.3125 14.8254 24.4565 14.9694C24.4805 14.9934 24.5045 15.0414 24.5285 15.0654C24.5525 15.1374 24.5765 15.1854 24.6005 15.2574C24.7685 15.6894 24.7685 15.6894 24.6965 16.1454C24.6965 16.2174 24.6725 16.2894 24.6245 16.3614C24.5525 16.5294 24.4805 16.6974 24.3845 16.8414C24.2165 17.1294 23.9765 17.3214 23.7125 17.4654C23.6885 17.4654 23.6645 17.4894 23.6405 17.4894C23.2805 17.7294 22.8965 17.6574 22.5125 17.5374C22.3205 17.4894 22.1285 17.3934 21.9365 17.3214C21.6965 17.2254 21.4565 17.1294 21.1925 17.1294C20.8565 17.1294 20.5205 17.1054 20.2085 17.1534C19.9445 17.2014 19.7525 17.3214 19.5845 17.5614C19.3925 17.8494 19.2965 18.1374 19.3205 18.4974C19.3205 18.5454 19.3205 18.5934 19.3445 18.6414C19.5125 18.9774 19.6325 19.3134 19.9925 19.5054C20.2085 19.6014 20.4245 19.7214 20.6645 19.8174C21.1925 20.0334 21.7445 20.2974 22.2725 20.5614C22.8245 20.8734 23.3525 21.2574 23.8325 21.6654C23.9765 21.7614 24.1205 21.8814 24.2405 22.0014C24.8405 22.5294 25.2005 23.2014 25.2965 23.9934C25.3445 24.4974 25.3925 25.0254 25.4165 25.5534C25.4405 26.2974 25.2485 26.9934 24.9365 27.6654C24.7925 27.9534 24.6245 28.2174 24.4325 28.4814C24.1685 28.8654 23.9045 29.2494 23.5205 29.5374C23.0885 29.8734 22.6325 30.1854 22.1045 30.4014C21.7925 30.5214 21.4805 30.6174 21.1685 30.6894C20.5925 30.8094 20.0405 30.8094 19.5125 30.6174C19.1285 30.4974 18.7205 30.3774 18.3605 30.1854C18.0725 30.0414 17.7845 29.9694 17.4965 29.8494C17.4245 29.8254 17.3525 29.7774 17.2805 29.7294C17.2325 29.7054 17.1845 29.6574 17.1365 29.6334C16.8005 29.4654 16.5605 29.1534 16.3925 28.8414C16.3925 28.8174 16.3685 28.7934 16.3685 28.7694C16.0325 28.3374 15.9605 27.8334 15.9845 27.3054Z" fill="#FFFBF4"/>
<path d="M37.7129 19.1934C37.7129 20.2734 37.7129 21.3534 37.6889 22.4334C37.6889 23.1054 37.6649 23.7534 37.6169 24.4254C37.5449 25.4334 37.4249 26.4654 37.1129 27.4494C36.9209 28.0974 36.6809 28.7454 36.2009 29.2734C36.1049 29.3694 35.9849 29.4654 35.8889 29.5614C35.8169 29.6334 35.7449 29.6814 35.6969 29.7294C35.3849 30.0654 34.9769 30.2334 34.5449 30.3774C34.3529 30.4254 34.1369 30.4734 33.9209 30.5454C33.5369 30.6414 33.1529 30.6654 32.7449 30.6894C32.3609 30.6894 31.9769 30.6414 31.6169 30.4974C31.3289 30.3774 30.9929 30.2814 30.7049 30.1854C30.2489 30.0174 29.8409 29.7534 29.4809 29.4654C29.1929 29.2254 29.0009 28.8894 28.8329 28.5774C28.7369 28.3614 28.6409 28.1214 28.5209 27.9054C28.3289 27.5454 28.2089 27.1374 28.0889 26.7534C27.9689 26.2734 27.8489 25.7934 27.7769 25.2894C27.7289 25.0254 27.7049 24.7374 27.6809 24.4734C27.6569 24.1854 27.6329 23.8974 27.6089 23.6094C27.5129 22.8174 27.4649 22.0014 27.4889 21.1854C27.5369 19.7934 27.5609 18.4014 27.6089 16.9854C27.6089 16.6734 27.6329 16.3614 27.6329 16.0494C27.6329 15.9534 27.6569 15.8574 27.6809 15.7854C27.7769 15.3534 27.8729 14.9214 27.9929 14.4894C28.0649 14.0814 28.3289 13.7694 28.6889 13.5774C29.1449 13.3374 29.8169 13.4094 30.1289 13.7694C30.2729 13.9134 30.3449 14.0814 30.4169 14.2494C30.5609 14.6334 30.6089 15.0654 30.6089 15.4974C30.6569 16.3614 30.5609 17.2254 30.5369 18.0894C30.5369 18.2334 30.5369 18.3534 30.5369 18.4974C30.5369 18.7614 30.5129 19.0254 30.4889 19.2894C30.4889 19.4814 30.4649 19.6734 30.4649 19.8654C30.4649 20.7294 30.4409 21.5934 30.4649 22.4574C30.4649 23.1534 30.4889 23.8734 30.5369 24.5694C30.5609 25.0734 30.6569 25.5774 30.8489 26.0574C31.0409 26.5374 31.3289 26.9694 31.7609 27.3054C31.8329 27.3294 31.9049 27.3774 31.9769 27.4014C32.3129 27.4974 32.6489 27.4974 32.9849 27.3774C33.1769 27.3054 33.3449 27.1854 33.4649 26.9934C33.7049 26.6574 33.8729 26.2734 33.9929 25.8654C34.2809 25.0014 34.4009 24.1374 34.4489 23.2254C34.5209 21.7854 34.5449 20.3694 34.6169 18.9294C34.6649 18.0894 34.7609 17.2734 34.8329 16.4334C34.8569 16.0254 34.8809 15.6174 34.9289 15.2094C34.9769 14.6334 35.1929 14.1294 35.5289 13.6734C35.5769 13.6254 35.6249 13.5774 35.6729 13.5774C35.9129 13.5054 36.1529 13.4094 36.4169 13.3854C36.6089 13.3614 36.8249 13.4094 37.0409 13.4814C37.2329 13.5054 37.3769 13.6494 37.4969 13.8174C37.6649 14.1294 37.7849 14.4174 37.7609 14.7774C37.7369 15.1614 37.7369 15.5214 37.7369 15.9054C37.7369 17.0094 37.7369 18.0894 37.7369 19.1934C37.7369 19.1934 37.7369 19.1934 37.7129 19.1934Z" fill="#FFFBF4"/>
<path d="M49.8479 17.4654C49.8239 18.1614 49.7999 18.7374 49.6799 19.2894C49.6079 19.6734 49.4879 20.0574 49.2959 20.3934C49.1999 20.5614 49.1039 20.6814 48.9839 20.8254C48.8159 21.0414 48.7439 21.2574 48.7439 21.5454C48.7679 21.6654 48.7919 21.7614 48.8879 21.8334C49.0559 22.0014 49.1999 22.1934 49.3439 22.3614C49.6319 22.7454 49.7759 23.1534 49.8719 23.6094C49.9679 23.9934 49.9919 24.3774 49.9919 24.7614C49.9919 25.1454 50.0159 25.5534 49.9919 25.9374C49.9679 26.4654 49.9439 27.0174 49.7999 27.5454C49.7759 27.6654 49.7279 27.7854 49.6799 27.9294C49.6559 28.0254 49.6079 28.1214 49.5839 28.2414C49.5119 28.6014 49.3439 28.9374 49.1759 29.2734C48.9599 29.6574 48.6479 29.9214 48.2159 30.0174C47.7599 30.1374 47.3039 30.1854 46.8239 30.2094C46.5359 30.2094 46.2239 30.2334 45.9359 30.2334C45.6959 30.2574 45.4559 30.2334 45.2159 30.2334C44.9759 30.2334 44.7599 30.2334 44.5199 30.2094C44.0879 30.1614 43.6559 30.1854 43.2239 30.1854C42.8399 30.2094 42.4319 30.2094 42.0239 30.2094C41.9039 30.2094 41.7599 30.1614 41.6159 30.1374C41.5199 30.1374 41.4239 30.0894 41.3519 30.0894C41.1119 30.0654 40.8719 29.9694 40.6799 29.8734C40.5839 29.8254 40.5359 29.7534 40.4879 29.6814C40.2719 29.3694 40.1999 29.0094 40.1279 28.6254C40.1039 28.4334 40.1039 28.2174 40.0799 28.0014C40.0079 25.9614 40.0319 23.8974 40.0079 21.8574C40.0079 21.3534 39.9839 20.8734 39.9839 20.3694C39.9359 19.1934 39.9119 17.9934 39.8879 16.8174C39.8639 16.4574 39.8399 16.0734 39.9119 15.7134C39.9839 15.2334 39.9599 14.7534 40.0319 14.2734C40.0559 14.1294 40.0799 13.9854 40.1519 13.8654C40.2479 13.6974 40.3199 13.5534 40.3919 13.4094C40.4879 13.2174 40.6319 13.0974 40.7999 13.0254C41.0879 12.9054 41.3759 12.8574 41.6879 12.8574C41.9999 12.8574 42.3359 12.8574 42.6479 12.8574C43.1759 12.8574 43.7039 12.8574 44.2319 12.8814C44.5439 12.8814 44.8559 12.9294 45.1919 12.9774C45.6479 13.0254 46.1039 13.0974 46.5599 13.1694C46.8239 13.1934 47.0639 13.2894 47.2799 13.4094C47.5919 13.5534 47.8799 13.6974 48.1919 13.8654C48.4319 13.9854 48.5999 14.2014 48.7679 14.3934C49.1279 14.7534 49.3199 15.1854 49.5359 15.6414C49.6799 16.0014 49.7519 16.3854 49.7999 16.7934C49.8239 17.0574 49.8479 17.3214 49.8479 17.4654ZM44.0399 24.8814C44.0159 25.3374 44.0399 25.7214 44.1359 26.0814C44.1599 26.2014 44.2079 26.3454 44.2799 26.4174C44.4719 26.6334 44.6879 26.7774 45.0239 26.6814C45.0959 26.6574 45.1919 26.6574 45.2639 26.6574C45.5759 26.6334 45.8639 26.5374 46.1759 26.4414C46.4159 26.3694 46.5839 26.1774 46.6559 25.9374C46.7519 25.6974 46.7519 25.4814 46.7519 25.2414C46.7519 24.7854 46.7279 24.3294 46.5599 23.8974C46.4639 23.7054 46.3679 23.5374 46.1519 23.4174C45.8159 23.2734 45.4799 23.1294 45.0959 23.1294C44.8799 23.1534 44.6879 23.1534 44.4719 23.1294C44.2319 23.1294 44.0399 23.2494 43.9919 23.5374C43.9679 23.7054 43.9679 23.8734 43.9679 24.0414C43.9919 24.3534 44.0159 24.6414 44.0399 24.8814ZM45.2879 19.6734C45.4319 19.6734 45.5759 19.6734 45.6959 19.6734C45.8879 19.6494 46.0559 19.6254 46.1519 19.4334C46.2719 19.2174 46.3679 19.0014 46.3439 18.7374C46.3439 18.5694 46.3439 18.4014 46.3199 18.2094C46.2719 17.9454 46.2479 17.6814 46.1039 17.4414C46.0319 17.2974 45.9359 17.1774 45.7919 17.1054C45.3359 16.8414 44.8079 16.7934 44.2799 16.7934C44.0639 16.7694 43.9439 16.8894 43.9199 17.1054C43.8239 17.7054 43.7999 18.3054 43.8479 18.9054C43.8479 19.0494 43.8959 19.1934 43.9439 19.3374C44.0159 19.5294 44.1359 19.6254 44.3519 19.6254C44.6639 19.6254 44.9759 19.6494 45.2879 19.6734Z" fill="#FFFBF4"/>
<path d="M52.2189 27.3054C52.2189 27.2814 52.2189 27.2334 52.2189 27.1854C52.1709 26.8734 52.2909 26.6094 52.4589 26.3694C52.6509 26.1294 52.8669 25.8894 53.1309 25.7214C53.1789 25.6974 53.2269 25.6734 53.2989 25.6494C53.4669 25.6494 53.6589 25.6494 53.8509 25.6734C54.0429 25.6734 54.2349 25.7934 54.3789 25.9134C54.6909 26.1774 55.0269 26.4174 55.3629 26.6334C55.3869 26.6574 55.4349 26.6814 55.4829 26.7054C55.7469 26.7774 56.0109 26.8254 56.2749 26.8974C56.3949 26.9214 56.5389 26.9214 56.6589 26.9454C56.9949 27.0174 57.3069 26.9214 57.6189 26.7294C57.6669 26.7054 57.6909 26.6574 57.7389 26.5854C58.0509 26.2014 58.1469 25.7694 58.1469 25.2654C58.1469 25.0014 58.0269 24.7614 57.8589 24.5694C57.6909 24.4014 57.5229 24.2334 57.2829 24.1374C56.7309 23.9214 56.2269 23.6094 55.6989 23.2974C55.1949 23.0094 54.7149 22.6974 54.2109 22.3854C53.9229 22.2174 53.6349 22.0254 53.3709 21.8094C53.0589 21.5214 52.7469 21.1854 52.5309 20.7774C52.2429 20.2494 52.0989 19.6734 52.0509 19.0734C52.0269 18.6654 52.0269 18.2574 52.0269 17.8494C52.0269 17.8254 52.0269 17.8014 52.0269 17.7774C52.1469 17.2974 52.2429 16.8414 52.4589 16.4094C52.6029 16.1214 52.7949 15.8814 52.9389 15.5934C53.1309 15.2814 53.4429 15.0414 53.7069 14.7534C54.0189 14.3934 54.4029 14.1054 54.8109 13.8654C54.9549 13.7694 55.0989 13.7214 55.2669 13.6734C55.5309 13.6014 55.7949 13.5294 56.0589 13.4814C56.7549 13.3614 57.4509 13.3614 58.1469 13.4814C58.5069 13.5534 58.8429 13.6974 59.1789 13.8654C59.5629 14.0574 59.8989 14.3214 60.2589 14.5854C60.4029 14.6814 60.5469 14.8254 60.6909 14.9694C60.7149 14.9934 60.7389 15.0414 60.7629 15.0654C60.7869 15.1374 60.8109 15.1854 60.8349 15.2574C61.0029 15.6894 61.0029 15.6894 60.9309 16.1454C60.9309 16.2174 60.9069 16.2894 60.8589 16.3614C60.7869 16.5294 60.7149 16.6974 60.6189 16.8414C60.4509 17.1294 60.2109 17.3214 59.9469 17.4654C59.9229 17.4654 59.8989 17.4894 59.8749 17.4894C59.5149 17.7294 59.1309 17.6574 58.7469 17.5374C58.5549 17.4894 58.3629 17.3934 58.1709 17.3214C57.9309 17.2254 57.6909 17.1294 57.4269 17.1294C57.0909 17.1294 56.7549 17.1054 56.4429 17.1534C56.1789 17.2014 55.9869 17.3214 55.8189 17.5614C55.6269 17.8494 55.5309 18.1374 55.5549 18.4974C55.5549 18.5454 55.5549 18.5934 55.5789 18.6414C55.7469 18.9774 55.8669 19.3134 56.2269 19.5054C56.4429 19.6014 56.6589 19.7214 56.8989 19.8174C57.4269 20.0334 57.9789 20.2974 58.5069 20.5614C59.0589 20.8734 59.5869 21.2574 60.0669 21.6654C60.2109 21.7614 60.3549 21.8814 60.4749 22.0014C61.0749 22.5294 61.4349 23.2014 61.5309 23.9934C61.5789 24.4974 61.6269 25.0254 61.6509 25.5534C61.6749 26.2974 61.4829 26.9934 61.1709 27.6654C61.0269 27.9534 60.8589 28.2174 60.6669 28.4814C60.4029 28.8654 60.1389 29.2494 59.7549 29.5374C59.3229 29.8734 58.8669 30.1854 58.3389 30.4014C58.0269 30.5214 57.7149 30.6174 57.4029 30.6894C56.8269 30.8094 56.2749 30.8094 55.7469 30.6174C55.3629 30.4974 54.9549 30.3774 54.5949 30.1854C54.3069 30.0414 54.0189 29.9694 53.7309 29.8494C53.6589 29.8254 53.5869 29.7774 53.5149 29.7294C53.4669 29.7054 53.4189 29.6574 53.3709 29.6334C53.0349 29.4654 52.7949 29.1534 52.6269 28.8414C52.6269 28.8174 52.6029 28.7934 52.6029 28.7694C52.2669 28.3374 52.1949 27.8334 52.2189 27.3054Z" fill="#FFFBF4"/>
<path d="M67.1709 22.1934C67.1709 22.5774 67.1469 22.9614 67.1709 23.3454C67.1949 23.7054 67.2669 24.0414 67.3389 24.3534C67.4109 24.6894 67.5069 25.0014 67.6269 25.3134C67.7229 25.5774 67.9149 25.8174 68.1549 26.0334C68.2029 26.0574 68.2749 26.1054 68.2989 26.1534C68.5869 26.5134 68.9949 26.7054 69.4029 26.8494C69.7389 26.9694 70.0989 27.0654 70.5069 27.0174C70.8669 26.9694 71.1789 26.8734 71.5149 26.7294C71.7069 26.6574 71.8989 26.6334 72.0909 26.6094C72.1869 26.6094 72.2829 26.6094 72.3789 26.5854C72.7869 26.5374 73.1469 26.7054 73.5069 26.8494C73.8189 26.9934 73.9869 27.2814 74.1069 27.5934C74.2749 28.0734 74.2749 28.5774 74.0589 29.0574C73.9629 29.2974 73.7709 29.4654 73.5549 29.6334C73.3869 29.7294 73.1949 29.8254 73.0269 29.9214C72.8349 30.0174 72.6429 30.0894 72.4749 30.1614C71.9469 30.4014 71.4189 30.4974 70.8429 30.5214C70.2189 30.5694 69.5949 30.5694 68.9709 30.5214C68.6349 30.4734 68.3229 30.3774 68.0109 30.2334C67.7709 30.1134 67.5309 30.0174 67.2669 29.8974C66.9549 29.7774 66.6909 29.5614 66.4269 29.3694C66.2589 29.2254 66.0909 29.1054 65.9469 28.9854C65.8509 28.8894 65.7549 28.7934 65.6589 28.6974C65.2749 28.2414 64.9149 27.7614 64.6989 27.1614C64.6509 27.0414 64.6029 26.9214 64.5309 26.8014C64.3869 26.5134 64.3389 26.2254 64.2429 25.9374C64.0749 25.3854 63.9069 24.8574 63.8109 24.3294C63.7389 23.7294 63.6909 23.1294 63.7149 22.5294C63.7389 22.0494 63.8109 21.5454 63.9309 21.0654C63.9549 20.9694 63.9549 20.8494 63.9789 20.7294C64.0029 20.5134 64.0269 20.2734 64.0749 20.0334C64.1229 19.6734 64.1709 19.3134 64.2669 18.9774C64.3869 18.4734 64.5549 17.9934 64.6989 17.5134C64.7709 17.2734 64.9149 17.0814 65.0109 16.8654C65.3229 16.3374 65.5869 15.7854 65.9949 15.3054C66.4269 14.8014 66.9069 14.3454 67.4829 13.9854C67.5549 13.9614 67.6509 13.9134 67.7229 13.8894C67.8429 13.8414 67.9389 13.7934 68.0589 13.7454C68.2029 13.6734 68.3709 13.6254 68.5389 13.5294C68.9469 13.3614 69.4029 13.2654 69.8829 13.2174C70.2909 13.1694 70.6989 13.1454 71.1069 13.2414C71.1309 13.2654 71.1789 13.2654 71.2029 13.2654C71.8509 13.3134 72.4269 13.5294 72.9789 13.8414C73.2429 13.9854 73.4829 14.1774 73.7229 14.3454C73.8669 14.4414 73.9149 14.6094 73.9389 14.7534C73.9629 14.9694 73.9869 15.1854 73.9629 15.4014C73.8909 15.8574 73.7229 16.2654 73.4109 16.6014C73.0269 17.0334 72.5709 17.2014 72.0189 17.0574C71.7549 17.0094 71.5149 16.9374 71.2509 16.8654C71.1549 16.8414 71.0589 16.7694 70.9389 16.7214C70.8909 16.7214 70.8669 16.6734 70.8189 16.6734C70.3629 16.6014 69.9069 16.4814 69.4269 16.6734C69.1389 16.7934 68.8749 16.9134 68.6589 17.1054C68.3469 17.4414 68.0349 17.7774 67.8429 18.2094C67.6749 18.5934 67.5069 19.0014 67.4109 19.4334C67.3149 19.9374 67.1949 20.4414 67.1709 20.9694C67.1469 21.3774 67.1709 21.7854 67.1709 22.1934Z" fill="#FFFBF4"/>
<path d="M80.1453 27.9294C80.1453 28.3854 80.1453 28.8174 80.1453 29.2734C80.1453 29.6814 79.9773 30.0174 79.6893 30.3054C79.4733 30.4974 79.2093 30.6414 78.8973 30.6414C78.6573 30.6654 78.4173 30.6654 78.1773 30.6414C77.7453 30.6174 77.3613 30.4734 77.0733 30.1374C76.9053 29.9454 76.7853 29.7054 76.7853 29.4414C76.7613 28.8414 76.7613 28.2414 76.7373 27.6414C76.7133 26.6814 76.6893 25.6974 76.6653 24.7374C76.6173 23.5134 76.5933 22.3134 76.5453 21.0894C76.5213 20.1774 76.4733 19.2654 76.4493 18.3534C76.4493 17.7294 76.4493 17.1054 76.4733 16.4814C76.5213 15.9294 76.5933 15.4014 76.6413 14.8734C76.6413 14.8494 76.6413 14.8254 76.6413 14.8014C76.7853 14.4414 76.9293 14.1054 77.2173 13.8414C77.3853 13.6734 77.6013 13.6014 77.8173 13.6254C78.1533 13.6494 78.4653 13.6014 78.7773 13.6014C78.9453 13.5774 79.1133 13.6014 79.2573 13.6014C79.9053 13.6014 80.5293 13.6254 81.1533 13.6254C81.8253 13.6254 82.4973 13.6014 83.1453 13.6014C83.4093 13.6014 83.6733 13.6494 83.9133 13.7214C84.8013 14.0094 85.4013 14.6334 85.8813 15.4014C86.0013 15.5694 86.0493 15.7614 86.1453 15.9534C86.5533 16.9854 86.7693 18.0414 86.7693 19.1694C86.7693 19.6014 86.7693 20.0094 86.7693 20.4414C86.7453 21.1374 86.5533 21.8094 86.3373 22.4574C86.2173 22.8894 85.9773 23.2734 85.7373 23.6334C85.6893 23.7054 85.6173 23.7774 85.5453 23.8494C85.1853 24.1614 85.1133 24.6174 85.3533 25.0254C85.4733 25.2654 85.5693 25.5054 85.6893 25.7214C85.8333 26.0574 85.9773 26.3694 86.1213 26.7054C86.1213 26.7534 86.1453 26.8014 86.1693 26.8254C86.3133 27.2574 86.4813 27.6654 86.6973 28.0734C86.7933 28.2414 86.8173 28.4574 86.8653 28.6734C86.9133 28.9134 86.9373 29.1534 86.9613 29.4174C87.0093 29.7534 86.7933 29.9934 86.5773 30.2094C86.3853 30.4014 86.1693 30.3774 85.9533 30.3774C85.8333 30.3774 85.6893 30.4014 85.5693 30.4014C85.3533 30.4014 85.1133 30.4254 84.8973 30.4014C84.5613 30.3534 84.2013 30.2814 83.8893 30.1134C83.6733 29.9694 83.4573 29.8014 83.3373 29.5374C83.2413 29.2974 83.1693 29.0574 83.0493 28.8414C82.9053 28.5774 82.7373 28.3374 82.5693 28.0734C82.3533 27.7134 82.1373 27.3534 81.9693 26.9454C81.9213 26.8494 81.8733 26.7774 81.8493 26.7054C81.7773 26.5374 81.6813 26.3694 81.6333 26.1774C81.5373 25.8654 81.3213 25.6734 80.9853 25.7214C80.8413 25.7214 80.6733 25.7454 80.5293 25.7214C80.3853 25.7214 80.2893 25.7934 80.2413 25.9374C80.1693 26.1534 80.1213 26.3934 80.1213 26.6334C80.1213 27.0654 80.1453 27.4974 80.1453 27.9294ZM80.1453 19.8174C80.1693 19.8174 80.1693 19.8174 80.1693 19.8174C80.1453 20.3694 80.1453 20.9214 80.1213 21.4974C80.1213 21.6414 80.1213 21.7854 80.1213 21.9294C80.1213 22.3134 80.3613 22.5534 80.7453 22.5534C80.8893 22.5534 81.0573 22.5534 81.2253 22.5534C81.2733 22.5534 81.3453 22.5534 81.3933 22.5294C81.6573 22.4334 81.9453 22.3854 82.2093 22.2414C82.4493 22.1454 82.6173 21.9774 82.7853 21.8094C83.0013 21.5454 83.1693 21.2334 83.2413 20.8734C83.3373 20.3454 83.2893 19.7934 83.2893 19.2654C83.2893 19.0734 83.2653 18.8814 83.2413 18.6894C83.2173 18.4254 83.0973 18.2094 83.0253 17.9694C82.9293 17.7294 82.7853 17.5134 82.6413 17.3214C82.3533 16.9854 81.9933 16.8174 81.5613 16.8174C81.4173 16.8174 81.2493 16.8174 81.1053 16.8174C80.8653 16.8414 80.6253 16.9134 80.4573 17.0814C80.2413 17.2494 80.1693 17.4894 80.1453 17.7774C80.1453 18.4494 80.1453 19.1214 80.1453 19.8174Z" fill="#FFFBF4"/>
<path d="M92.648 16.0494C92.672 16.4094 92.72 16.9854 92.744 17.5614C92.768 18.1614 92.768 18.7374 92.792 19.3134C92.792 20.4894 92.792 21.6414 92.792 22.8174C92.768 23.7294 92.72 24.6414 92.696 25.5774C92.672 26.0814 92.672 26.6094 92.648 27.1374C92.624 27.6174 92.6 28.0734 92.576 28.5534C92.552 28.7694 92.552 29.0094 92.504 29.2254C92.504 29.3454 92.456 29.4894 92.384 29.6094C92.336 29.7294 92.264 29.8254 92.192 29.9454C92 30.2334 91.736 30.3534 91.4 30.3534C91.256 30.3534 91.088 30.3774 90.944 30.3534C90.632 30.3534 90.296 30.3054 90.056 30.0654C89.936 29.9454 89.816 29.7774 89.744 29.6094C89.576 29.2974 89.552 28.9614 89.552 28.6014C89.576 27.7614 89.624 26.9454 89.648 26.1294C89.648 25.7214 89.672 25.3134 89.672 24.9294C89.672 23.5374 89.672 22.1694 89.672 20.8014C89.672 20.1534 89.648 19.5054 89.6 18.8574C89.528 17.6814 89.504 16.5294 89.576 15.3774C89.576 15.0414 89.6 14.7294 89.648 14.3934C89.696 14.0574 89.864 13.7694 90.056 13.4814C90.152 13.3134 90.32 13.2174 90.536 13.2174C91.016 13.2414 91.496 13.2414 91.976 13.2654C92.144 13.2654 92.288 13.3614 92.384 13.5294C92.552 13.8174 92.648 14.1294 92.648 14.4414C92.672 14.9214 92.648 15.3774 92.648 16.0494Z" fill="#FFFBF4"/>
<path d="M104.785 17.4654C104.761 18.1614 104.737 18.7374 104.617 19.2894C104.545 19.6734 104.425 20.0574 104.233 20.3934C104.137 20.5614 104.041 20.6814 103.921 20.8254C103.753 21.0414 103.681 21.2574 103.681 21.5454C103.705 21.6654 103.729 21.7614 103.825 21.8334C103.993 22.0014 104.137 22.1934 104.281 22.3614C104.569 22.7454 104.713 23.1534 104.809 23.6094C104.905 23.9934 104.929 24.3774 104.929 24.7614C104.929 25.1454 104.953 25.5534 104.929 25.9374C104.905 26.4654 104.881 27.0174 104.737 27.5454C104.713 27.6654 104.665 27.7854 104.617 27.9294C104.593 28.0254 104.545 28.1214 104.521 28.2414C104.449 28.6014 104.281 28.9374 104.113 29.2734C103.897 29.6574 103.585 29.9214 103.153 30.0174C102.697 30.1374 102.241 30.1854 101.761 30.2094C101.473 30.2094 101.161 30.2334 100.873 30.2334C100.633 30.2574 100.393 30.2334 100.153 30.2334C99.9134 30.2334 99.6974 30.2334 99.4574 30.2094C99.0254 30.1614 98.5934 30.1854 98.1614 30.1854C97.7774 30.2094 97.3694 30.2094 96.9614 30.2094C96.8414 30.2094 96.6974 30.1614 96.5534 30.1374C96.4574 30.1374 96.3614 30.0894 96.2894 30.0894C96.0494 30.0654 95.8094 29.9694 95.6174 29.8734C95.5214 29.8254 95.4734 29.7534 95.4254 29.6814C95.2094 29.3694 95.1374 29.0094 95.0654 28.6254C95.0414 28.4334 95.0414 28.2174 95.0174 28.0014C94.9454 25.9614 94.9694 23.8974 94.9454 21.8574C94.9454 21.3534 94.9214 20.8734 94.9214 20.3694C94.8734 19.1934 94.8494 17.9934 94.8254 16.8174C94.8014 16.4574 94.7774 16.0734 94.8494 15.7134C94.9214 15.2334 94.8974 14.7534 94.9694 14.2734C94.9934 14.1294 95.0174 13.9854 95.0894 13.8654C95.1854 13.6974 95.2574 13.5534 95.3294 13.4094C95.4254 13.2174 95.5694 13.0974 95.7374 13.0254C96.0254 12.9054 96.3134 12.8574 96.6254 12.8574C96.9374 12.8574 97.2734 12.8574 97.5854 12.8574C98.1134 12.8574 98.6414 12.8574 99.1694 12.8814C99.4814 12.8814 99.7934 12.9294 100.129 12.9774C100.585 13.0254 101.041 13.0974 101.497 13.1694C101.761 13.1934 102.001 13.2894 102.217 13.4094C102.529 13.5534 102.817 13.6974 103.129 13.8654C103.369 13.9854 103.537 14.2014 103.705 14.3934C104.065 14.7534 104.257 15.1854 104.473 15.6414C104.617 16.0014 104.689 16.3854 104.737 16.7934C104.761 17.0574 104.785 17.3214 104.785 17.4654ZM98.9774 24.8814C98.9534 25.3374 98.9774 25.7214 99.0734 26.0814C99.0974 26.2014 99.1454 26.3454 99.2174 26.4174C99.4094 26.6334 99.6254 26.7774 99.9614 26.6814C100.033 26.6574 100.129 26.6574 100.201 26.6574C100.513 26.6334 100.801 26.5374 101.113 26.4414C101.353 26.3694 101.521 26.1774 101.593 25.9374C101.689 25.6974 101.689 25.4814 101.689 25.2414C101.689 24.7854 101.665 24.3294 101.497 23.8974C101.401 23.7054 101.305 23.5374 101.089 23.4174C100.753 23.2734 100.417 23.1294 100.033 23.1294C99.8174 23.1534 99.6254 23.1534 99.4094 23.1294C99.1694 23.1294 98.9774 23.2494 98.9294 23.5374C98.9054 23.7054 98.9054 23.8734 98.9054 24.0414C98.9294 24.3534 98.9534 24.6414 98.9774 24.8814ZM100.225 19.6734C100.369 19.6734 100.513 19.6734 100.633 19.6734C100.825 19.6494 100.993 19.6254 101.089 19.4334C101.209 19.2174 101.305 19.0014 101.281 18.7374C101.281 18.5694 101.281 18.4014 101.257 18.2094C101.209 17.9454 101.185 17.6814 101.041 17.4414C100.969 17.2974 100.873 17.1774 100.729 17.1054C100.273 16.8414 99.7454 16.7934 99.2174 16.7934C99.0014 16.7694 98.8814 16.8894 98.8574 17.1054C98.7614 17.7054 98.7374 18.3054 98.7854 18.9054C98.7854 19.0494 98.8334 19.1934 98.8814 19.3374C98.9534 19.5294 99.0734 19.6254 99.2894 19.6254C99.6014 19.6254 99.9134 19.6494 100.225 19.6734Z" fill="#FFFBF4"/>
<path d="M113.372 27.0654C114.188 27.0174 115.028 26.9934 115.844 26.9694C116.276 26.9454 116.588 27.1374 116.756 27.5214C117.02 28.1214 117.044 28.7214 116.948 29.3454C116.924 29.5374 116.828 29.7294 116.756 29.9214C116.66 30.1134 116.492 30.2094 116.3 30.2334C115.964 30.2574 115.652 30.2574 115.316 30.2574C115.124 30.2574 114.932 30.2334 114.716 30.2334C114.188 30.2574 113.636 30.2814 113.108 30.2814C112.724 30.3054 112.364 30.2574 112.004 30.2814C111.14 30.3054 110.3 30.3294 109.46 30.3534C108.956 30.3534 108.452 30.3294 107.948 30.3054C107.924 30.3054 107.876 30.3054 107.852 30.3054C107.66 30.1614 107.468 30.0414 107.3 29.8974C107.252 29.8494 107.228 29.8014 107.204 29.7294C107.06 29.3214 106.988 28.9134 107.036 28.4574C107.084 27.7374 107.108 27.0414 107.156 26.3454C107.204 25.4094 107.228 24.4734 107.276 23.5374C107.3 23.1774 107.276 22.7934 107.324 22.4334C107.396 21.6654 107.324 20.8974 107.3 20.1534C107.3 20.0814 107.3 20.0094 107.3 19.9614C107.252 18.6894 107.228 17.4414 107.204 16.1694C107.204 15.8094 107.252 15.4494 107.3 15.0654C107.3 14.8974 107.348 14.7534 107.396 14.5854C107.516 14.2254 107.612 13.8654 107.804 13.5294C107.9 13.3614 108.044 13.2414 108.236 13.1694C108.5 13.0974 108.764 13.0494 109.028 13.0734C109.436 13.0974 109.844 13.0974 110.252 13.1214C110.78 13.1454 111.308 13.1694 111.836 13.2174C112.58 13.2414 113.324 13.2654 114.068 13.2174C114.5 13.1694 114.932 13.1694 115.364 13.1694C115.556 13.1694 115.748 13.2414 115.94 13.2894C116.06 13.3134 116.18 13.3614 116.276 13.4094C116.54 13.5294 116.684 13.7694 116.732 14.0334C116.876 14.6574 116.9 15.2814 116.78 15.9054C116.756 16.0734 116.684 16.1934 116.564 16.3134C116.348 16.5054 116.108 16.6734 115.82 16.7694C115.604 16.8414 115.364 16.8174 115.124 16.8414C115.052 16.8414 115.004 16.8414 114.932 16.8414C114.476 16.9614 113.996 16.9134 113.516 16.9134C113.204 16.9134 112.892 16.9134 112.58 16.9854C112.484 17.0094 112.364 17.0094 112.244 17.0334C112.052 17.0574 111.836 17.1054 111.644 17.1534C111.38 17.2014 111.236 17.3694 111.236 17.6334C111.212 17.9454 111.212 18.2574 111.212 18.5694C111.212 18.6414 111.212 18.7134 111.212 18.7854C111.26 19.0254 111.356 19.1934 111.596 19.2654C111.668 19.2894 111.74 19.2894 111.836 19.2894C112.1 19.2894 112.388 19.2654 112.652 19.2654C112.748 19.2654 112.844 19.2654 112.94 19.2654C113.444 19.3134 113.948 19.2654 114.428 19.2894C114.908 19.2894 115.268 19.6014 115.364 20.0574C115.412 20.2254 115.412 20.3934 115.46 20.5614C115.508 20.7534 115.508 20.9214 115.508 21.1134C115.508 21.4974 115.364 21.7854 115.076 22.0014C114.86 22.1694 114.62 22.2654 114.356 22.2654C114.14 22.2654 113.924 22.3134 113.708 22.3134C113.66 22.3374 113.612 22.3374 113.564 22.3374C113.156 22.3854 112.748 22.4094 112.364 22.4334C112.1 22.4574 111.836 22.5054 111.596 22.5294C111.38 22.5534 111.308 22.6734 111.26 22.8654C111.164 23.2734 111.188 23.6814 111.164 24.0894C111.092 24.6894 111.092 25.2654 111.116 25.8654C111.116 26.0574 111.164 26.2734 111.188 26.4654C111.212 26.8014 111.452 26.9454 111.74 26.9934C111.98 27.0174 112.22 27.0174 112.46 27.0414C112.772 27.0414 113.06 27.0414 113.372 27.0414V27.0654Z" fill="#FFFBF4"/>
</svg>
