<svg width="210" height="244" viewBox="0 0 210 244" fill="none" xmlns="http://www.w3.org/2000/svg">
<path d="M130.059 173.84C133.003 164.869 133.784 154.917 130.572 146.039C129.781 143.852 128.703 141.682 126.91 140.2C124.358 138.091 120.772 137.726 117.479 138.063C113.435 138.476 109.536 139.799 105.796 141.394C97.5443 144.909 89.8318 149.831 83.6034 156.283C77.3774 162.734 72.6735 170.755 70.6765 179.499C70.0924 182.063 69.7362 184.703 69.9356 187.325C70.1541 190.205 71.0327 192.998 72.1345 195.667C73.9747 200.131 76.5131 204.393 80.1271 207.592C81.0674 208.425 82.1241 209.202 83.3541 209.453C84.5129 209.688 85.7097 209.437 86.8494 209.133C95.5165 206.817 103.305 201.349 108.422 193.983C108.797 193.442 109.163 192.888 109.645 192.442C110.26 191.872 111.032 191.509 111.789 191.148C118.863 187.762 125.891 183.54 130.223 177.001L130.059 173.84Z" fill="#C02328"/>
<path d="M194.677 191.613L185.936 186.503L127.35 218.934V225.78C128.694 225.232 130.04 224.693 131.389 224.163C146.939 218.075 163.236 213.508 177.59 204.97C183.809 201.268 189.629 196.794 194.677 191.613Z" fill="#5F7AB3"/>
<mask id="mask0_732_1712" style="mask-type:luminance" maskUnits="userSpaceOnUse" x="108" y="97" width="94" height="126">
<path d="M108.292 97.9785H201.452V222.594H108.292V97.9785Z" fill="white"/>
</mask>
<g mask="url(#mask0_732_1712)">
<path d="M189.073 108.735C184.54 102.11 173.033 98.2754 173.033 98.2754L121.074 104.9C121.074 104.9 108.519 139.773 108.868 145.161C109.218 150.548 117.585 184.761 119.331 187.202C121.074 189.643 122.121 193.477 122.467 196.268C122.816 199.058 125.607 201.499 125.607 201.499C125.607 201.499 124.562 205.683 123.864 208.124C123.166 210.565 125.257 214.402 125.257 214.402C125.257 214.402 126.305 221.725 127 222.074C127.699 222.423 131.885 218.237 151.413 213.355C157.174 211.916 162.903 210.809 168.118 209.964C171.347 208.447 174.512 206.799 177.59 204.968C186.834 199.471 195.195 192.264 201.451 183.559C200.117 178.307 196.914 173.239 196.396 172.204C195.7 170.81 195.351 158.605 196.745 146.749C198.141 134.891 193.606 115.363 189.073 108.735Z" fill="#ED4450"/>
</g>
<path d="M180.181 198.187C152.847 201.319 132.025 211.192 125.303 214.711C125.512 216.103 126.39 221.768 127.001 222.075C127.699 222.424 131.885 218.237 151.413 213.355C157.174 211.916 162.903 210.81 168.118 209.964C171.347 208.447 174.513 206.799 177.59 204.968C181.363 202.725 184.987 200.196 188.382 197.398C185.853 197.591 183.127 197.85 180.181 198.187Z" fill="#C02328"/>
<path d="M103.68 81.5347C105.53 84.8614 107.43 88.7651 106.041 92.3079C105.447 93.8276 104.262 95.2001 104.317 96.8314C104.34 97.5627 104.618 98.2585 104.875 98.9424C105.953 101.832 106.701 104.9 106.518 107.977C106.335 111.057 105.141 114.158 102.833 116.203C100.525 118.247 97.0268 119.043 94.2273 117.749C93.1706 117.262 91.8622 116.523 90.9765 117.281C90.6204 117.582 90.466 118.053 90.2903 118.485C89.6587 120.04 88.4928 121.46 86.9042 122.001C84.2851 122.892 81.5497 121.225 79.2867 119.636C78.109 121.455 75.9838 122.491 73.8419 122.835C71.7025 123.182 69.5155 122.925 67.3642 122.666C64.4079 122.315 61.4374 121.959 58.5713 121.151C56.7263 120.631 54.9074 119.909 53.3972 118.729C51.4477 117.207 50.1275 115.008 49.2038 112.715C46.2784 105.453 47.0548 97.2351 48.7859 89.6009C50.0729 83.9258 51.9298 78.2293 55.5295 73.6583C60.9197 66.8197 69.9928 63.2484 78.6646 64.0272C87.5691 64.8227 94.7188 69.776 100.437 76.3487C101.788 77.9016 102.683 79.7443 103.68 81.5347Z" fill="#1A1A1A"/>
<path d="M100.848 110.481C93.1755 106.992 68.4163 104.9 68.4163 104.9L42.6075 107.975C42.6075 107.975 23.4332 112.573 19.5959 115.363C15.761 118.153 14.3648 119.546 11.5771 124.079C8.78705 128.615 2.50879 136.636 2.50879 136.636L17.504 150.235L25.1761 181.272C25.1761 181.272 25.8742 196.617 24.4779 204.289C23.6017 209.119 20.6502 218.092 18.5844 224.078C30.8251 231.111 44.8206 235.492 58.816 237.701C69.4587 239.382 80.3673 239.959 90.9909 238.164C95.3102 237.435 99.5274 236.326 103.683 234.989C102.932 227.927 101.778 216.121 101.546 208.473C101.197 196.966 103.393 175.844 103.393 175.844L110.424 145.852L120.027 148.143C120.027 148.143 114.1 132.799 113.751 128.266C113.402 123.733 108.52 113.969 100.848 110.481Z" fill="#61B7B0"/>
<path d="M94.5687 129.002C93.9299 130.565 93.1606 132.051 92.3818 133.528C93.1796 130.876 94.3217 128.34 94.5948 125.543C94.6993 124.486 93.0894 124.519 92.9611 125.543C92.5408 128.867 90.8431 131.864 90.1592 135.131C89.4967 138.306 89.0052 141.602 88.5231 144.807C88.4068 145.581 89.5181 146.256 89.9194 145.396C90.9998 143.086 91.1826 140.448 91.5032 137.886C93.3482 135.331 94.5996 132.232 95.7465 129.328C96.0362 128.594 94.8608 128.288 94.5687 129.002Z" fill="#338C81"/>
<path d="M23.9409 132.355C23.0909 128.992 21.6851 125.697 20.3483 122.503C19.6977 120.948 18.8808 117.125 16.6701 117.22C16.1382 117.241 15.9506 118.115 16.5372 118.205C17.8954 118.412 18.5579 121.192 18.9829 122.206C19.446 123.313 19.8924 124.429 20.3245 125.549C21.2292 127.895 21.9487 130.315 22.8748 132.647C23.1312 133.295 24.119 133.062 23.9409 132.355Z" fill="#338C81" fill-opacity="0.5"/>
<path d="M55.8545 127.116C53.943 127.8 52.1384 128.712 50.4976 129.911C49.6451 130.533 48.8401 131.217 48.0898 131.956C47.7217 132.319 47.3727 132.701 47.0165 133.074C46.4134 133.708 46.259 134.207 45.3947 133.972C44.3547 133.691 43.8584 131.998 43.4286 131.091C42.9038 129.982 42.3957 128.869 41.8923 127.75C40.8427 125.414 39.8312 123.058 38.8173 120.705C38.4183 119.777 36.7728 120.456 37.167 121.401C38.3139 124.15 39.4607 126.898 40.667 129.624C41.5503 131.621 42.5073 135.123 44.566 136.265C46.4537 137.31 47.9378 135.026 49.099 133.841C51.1886 131.713 54.038 129.073 56.8352 128.033C58.0628 127.577 57.113 126.667 55.8545 127.116Z" fill="#338C81"/>
<path d="M67.8295 164.121C67.5755 156.917 67.0792 149.729 66.1769 142.574C66.0961 141.929 65.0751 141.905 65.144 142.574C67.6728 168.036 66.3075 193.563 66.2267 219.089C66.2054 225.621 66.2172 232.18 66.5663 238.705C67.0151 238.75 67.4639 238.79 67.915 238.831C67.5684 226.742 67.5446 214.682 67.7536 202.586C67.9768 189.768 68.2855 176.936 67.8295 164.121Z" fill="#338C81" fill-opacity="0.5"/>
<path d="M57.3388 214.537C56.1729 213.932 54.4585 214.112 53.1905 214.02C51.4856 213.894 49.7807 213.768 48.0782 213.642C44.5544 213.383 41.0329 213.113 37.5091 212.866C34.1183 212.628 30.972 212.376 27.7071 211.415C25.1711 210.669 24.9336 213.758 24.4919 215.527C23.6252 218.997 22.8986 222.501 22.2884 226.025C22.2836 226.051 22.2836 226.073 22.2812 226.099C22.7443 226.336 23.2073 226.576 23.6751 226.809C23.7511 226.719 23.8104 226.605 23.8389 226.453C24.3827 223.601 25.0001 220.763 25.7006 217.945C26.0045 216.734 26.1565 215.176 26.7264 214.058C27.1063 213.314 26.9425 213.31 27.783 213.447C28.3624 213.542 28.9561 213.865 29.5402 214.005C32.1261 214.628 34.871 214.67 37.5115 214.882C40.3514 215.112 43.1914 215.323 46.0313 215.542C48.8736 215.76 51.7136 215.979 54.5535 216.197C55.2065 216.249 56.078 216.107 56.4555 216.8C56.6858 217.221 56.522 218.218 56.5339 218.731C56.5647 220.125 56.5457 221.521 56.4721 222.912C56.3297 225.714 55.9735 228.502 55.406 231.249C55.0142 233.135 54.3754 234.97 53.8388 236.82C54.5939 236.967 55.349 237.107 56.1064 237.243C56.8354 235.058 57.2605 232.688 57.657 230.537C58.2174 227.493 58.5451 224.401 58.6163 221.305C58.6519 219.716 58.7659 217.978 58.5047 216.404C58.3741 215.618 58.0963 214.929 57.3388 214.537Z" fill="#338C81"/>
<path d="M85.4607 217.102C86.128 216.772 87.2915 216.741 88.0039 216.65C89.4832 216.463 90.972 216.385 92.4585 216.292C93.9426 216.197 95.429 216.102 96.906 215.917C97.6278 215.826 98.3473 215.72 99.062 215.58C99.5702 215.48 100.076 215.366 100.589 215.283C101.045 215.209 101.674 215.261 102.035 214.931C102.574 214.437 102.213 213.545 101.605 213.355C101.536 213.333 101.467 213.321 101.396 213.319C99.5583 213.262 97.7774 213.758 95.9585 213.946C93.8405 214.164 91.7105 214.224 89.5877 214.416C87.8139 214.575 85.5391 214.623 83.9197 215.428C82.4522 216.159 82.6018 217.883 82.597 219.284C82.5923 221.49 82.6659 223.696 82.8298 225.897C83.1551 230.292 83.7962 234.652 84.7721 238.947C85.3681 238.897 85.9618 238.838 86.553 238.772C86.553 238.767 86.553 238.76 86.553 238.753C85.2921 232.332 84.6012 225.828 84.6391 219.284C84.6463 218.343 84.5133 217.569 85.4607 217.102Z" fill="#338C81"/>
<path d="M71.4051 200.495C70.4458 200.533 69.8426 201.274 69.7833 202.083C69.3155 202.855 69.6551 204.004 70.4434 204.456C71.5642 205.097 72.9652 204.299 73.3142 203.142C73.7013 201.867 72.7989 200.438 71.4051 200.495Z" fill="#338C81"/>
<path d="M73.8465 228.739C72.8872 228.779 72.284 229.52 72.2247 230.33C71.7569 231.101 72.0965 232.251 72.8848 232.7C74.0056 233.343 75.4066 232.545 75.7556 231.389C76.1427 230.111 75.2403 228.684 73.8465 228.739Z" fill="#338C81"/>
<path d="M71.4051 173.64C70.4458 173.678 69.8426 174.419 69.7833 175.229C69.3155 176.001 69.6551 177.152 70.4434 177.601C71.5642 178.245 72.9652 177.444 73.3142 176.29C73.7013 175.013 72.7989 173.583 71.4051 173.64Z" fill="#338C81"/>
<path d="M70.3579 144.348C69.3985 144.386 68.7978 145.127 68.7384 145.937C68.2706 146.709 68.6102 147.858 69.3962 148.309C70.5193 148.95 71.9179 148.152 72.2694 146.996C72.654 145.721 71.7541 144.291 70.3579 144.348Z" fill="#338C81"/>
<path d="M108.868 148.142C108.868 148.142 118.898 149.836 120.026 148.142C120.724 147.095 112.007 144.308 112.007 144.308L108.868 148.142Z" fill="#1A1A1A"/>
<path d="M112.008 144.308C112.008 144.308 114.807 190.286 96.1459 199.032L90.3877 152.327C90.3853 152.327 101.197 140.471 112.008 144.308Z" fill="#E9946B"/>
<path d="M15.0627 142.563C15.0627 142.563 3.55568 136.636 2.50851 136.636C1.46372 136.636 6.69481 147.445 14.7136 151.631C22.7348 155.815 15.0627 142.563 15.0627 142.563Z" fill="#1A1A1A"/>
<path d="M12.2725 141.169C12.2725 141.169 14.0177 154.072 16.4588 165.579C18.8998 177.088 22.7346 193.477 29.3596 199.407C35.9869 205.334 41.7166 203.082 43.9083 198.628C46.0977 194.176 39.4727 169.416 39.4727 169.416C39.4727 169.416 34.5907 160.697 31.1049 152.327C31.1049 152.327 18.8998 143.959 12.2725 141.169Z" fill="#E9946B"/>
<path d="M33.3105 155.637C32.914 152.953 30.2236 145.329 29.1978 142.831C28.1839 140.361 27.0821 137.935 25.8996 135.541C25.2229 134.176 23.1926 135.372 23.8575 136.735C25.0756 139.236 26.2083 141.774 27.227 144.365C28.1507 146.723 30.7247 152.768 31.8787 155.022C32.4771 156.188 33.4744 156.741 33.3105 155.637Z" fill="#338C81"/>
<path d="M100.659 53.7527C101.006 50.9223 99.2273 47.8662 96.4753 46.8761C95.2358 46.4273 93.5997 46.1138 93.3148 44.8411C93.1462 44.0955 93.5665 43.3689 93.868 42.6731C94.7181 40.7047 94.616 38.266 93.3029 36.5374C91.7689 34.5166 89.0026 33.8446 86.4595 33.7877C83.7074 33.7259 80.9482 34.2293 78.4074 35.2527C77.1703 35.7538 75.8857 36.3878 74.5607 36.1669C72.654 35.8511 71.5189 33.961 70.3364 32.4437C66.7461 27.8323 60.4251 25.4625 54.6906 26.581C47.8971 27.9059 42.0035 34.6757 40.6572 41.3434C40.5812 41.7257 40.5171 42.1246 40.3057 42.4499C39.9923 42.9296 39.4295 43.1599 38.9285 43.4354C37.9051 43.9958 36.8413 44.929 36.4305 46.0474C36.2951 46.413 35.4261 49.4097 35.4783 49.4192C32.1421 48.9324 28.6634 49.7611 25.8306 51.5658C24.4676 52.4348 23.1117 53.5699 22.1952 54.9139C21.205 56.3671 20.685 58.0672 19.4645 59.378C18.5431 60.3658 17.1802 60.8122 16.1235 61.6551C14.8769 62.6501 14.1052 64.2125 14.0695 65.8058C14.0529 66.4683 14.1574 67.1427 13.9983 67.7838C13.5994 69.3985 11.7995 70.1417 10.5006 71.1818C7.82927 73.3188 7.17152 77.5716 9.06877 80.4187C5.84416 82.1877 4.52629 86.2197 4.53817 89.8954C4.54529 92.0729 4.92996 94.2883 5.98188 96.1927C7.03617 98.0971 8.8147 99.6619 10.9375 100.144C10.7309 103.653 11.7092 107.182 13.4379 110.245C14.6774 112.439 16.3586 114.462 18.5906 115.635C20.8274 116.808 23.4632 117.041 25.9731 116.744C28.0365 116.5 30.0074 115.897 31.9854 115.289C33.5502 114.811 35.2171 114.942 36.8342 114.465C40.2131 113.465 43.3451 111.482 45.6579 108.82C46.4558 107.902 47.8924 107.462 48.9348 106.823C49.8323 106.273 49.3028 101.374 50.35 101.217C55.8399 100.391 61.4747 99.187 65.9174 95.9268C69.313 93.4359 71.7635 89.9216 74.271 86.5521C79.267 79.8488 85.0182 73.8745 90.5389 67.6675C93.234 64.6376 95.8769 61.553 98.3488 58.3023C99.1893 57.1982 100.03 56.056 100.445 54.7358C100.548 54.4128 100.616 54.0851 100.659 53.7527Z" fill="#333333"/>
<path d="M45.9887 105.817C50.5027 102.593 53.8959 75.9482 53.8959 75.9482L72.8423 86.3986C71.8925 89.7823 71.4437 93.2609 70.8999 96.7396C70.3395 100.325 69.6628 103.889 69.1309 107.48C68.7628 109.961 68.1716 112.651 69.5488 114.931C70.5319 116.56 72.1228 117.631 73.8301 118.412C72.3579 124.006 72.7426 135.896 65.2509 135.87C61.1715 135.858 58.2864 126.583 56.8356 124.842C53.4922 120.832 50.7401 116.717 45.5186 107.43C47.8978 107.138 45.1078 106.447 45.9887 105.817Z" fill="#E9946B"/>
<path d="M54.9882 87.165L72.0777 89.6156C71.6027 91.9687 71.2727 94.3551 70.8999 96.7391C70.3395 100.325 69.6628 103.889 69.1309 107.479C69.0857 107.79 69.0359 108.104 68.986 108.419C53.8294 104.639 54.9882 87.165 54.9882 87.165Z" fill="#BF5F45"/>
<path d="M91.4422 66.2428C91.7699 69.9565 100.368 93.5926 81.9607 102.305C72.1705 106.94 55.4443 98.8427 53.2716 85.9893C53.2716 85.9893 43.6975 82.4347 47.568 72.4759C50.415 65.1528 56.6031 75.1995 56.6031 75.1995C56.6031 75.1995 57.6051 72.6492 58.8494 69.7238C59.6828 67.7648 61.6038 66.5253 63.7314 66.4755C66.0608 66.4232 68.1979 65.2739 69.7105 63.6284C70.6983 62.5527 72.0826 61.9805 73.5406 61.9069C75.9151 61.7858 79.1872 60.2708 80.8494 57.0937C82.4641 54.0115 84.1476 54.4983 86.5886 54.6788C86.5886 54.6788 91.01 61.3583 91.4422 66.2428Z" fill="#E9946B"/>
<path d="M72.085 73.2481C71.7098 72.9679 71.2966 72.842 70.8763 72.9513C70.8265 72.956 70.7766 72.9631 70.7291 72.9726C70.7101 72.9726 70.6935 72.9702 70.6745 72.975C70.6579 72.9797 70.646 72.9892 70.627 72.994C69.1667 73.3478 69.048 75.4326 69.9194 76.4632C70.0476 76.722 70.2281 76.9476 70.4917 77.0711C70.7529 77.1922 71.0521 77.2159 71.3394 77.1613C71.3655 77.1708 71.3892 77.1803 71.4201 77.1827C72.1301 77.2159 72.5551 76.7529 72.738 76.126C73.2533 75.2142 72.9707 73.9106 72.085 73.2481Z" fill="#1A1A1A"/>
<path d="M91.6297 71.8395C90.9007 71.1105 89.704 71.1414 89.032 71.9274C88.9726 71.9986 88.9204 72.0746 88.8752 72.1553C88.7161 72.4094 88.6497 72.7157 88.7066 73.0315C88.7114 73.0671 88.7185 73.1051 88.728 73.1407C88.7304 73.1526 88.7304 73.1621 88.7328 73.174C88.8966 73.713 89.0747 74.2592 89.4736 74.6771C90.2406 75.482 91.4967 75.1496 92.0191 74.252C92.4727 73.4708 92.2494 72.4593 91.6297 71.8395Z" fill="#1A1A1A"/>
<path d="M84.8502 83.7838C84.7006 83.2923 84.1544 82.9907 83.6605 83.1451C83.1738 83.2947 82.687 83.4466 82.2002 83.5986C81.7087 83.7506 81.4142 84.292 81.5615 84.7883C81.7111 85.2798 82.2572 85.5813 82.7511 85.427C83.2379 85.275 83.7247 85.1231 84.2114 84.9735C84.703 84.8191 84.9974 84.2801 84.8502 83.7838Z" fill="#CE7151"/>
<path d="M73.5119 63.4028C72.2891 63.9347 70.9949 64.2742 69.8006 64.875C68.5895 65.4829 67.4569 66.2451 66.2696 66.9004C65.2011 67.4917 66.0298 69.2109 67.1102 68.6149C68.2951 67.9595 69.4254 67.1949 70.6388 66.5894C71.8355 65.9934 73.1273 65.6514 74.3502 65.1172C75.4757 64.6256 74.6375 62.9089 73.5119 63.4028Z" fill="#333333"/>
<path d="M92.5246 65.7731C91.779 64.8399 90.8458 64.4481 89.7535 64.0516C88.6066 63.6337 87.823 65.3742 88.9818 65.7945C89.706 66.0581 90.4682 66.2504 90.9669 66.8749C91.7338 67.8318 93.2939 66.7348 92.5246 65.7731Z" fill="#333333"/>
<path d="M80.2653 89.2473C80.0658 89.0763 79.8379 88.9339 79.5838 88.8294C79.0044 88.5919 78.368 88.5397 77.7435 88.4874C76.9148 88.4186 76.0861 88.3521 75.2574 88.2832C74.3408 88.2073 73.3174 88.1645 72.6193 88.7629C72.1705 89.1476 71.9426 89.7459 71.9188 90.3348C71.8927 90.9237 72.0518 91.5079 72.2726 92.054C72.7167 93.1463 73.4195 94.127 74.3029 94.9034C75.3571 95.8295 76.2357 96.2712 77.6177 95.6918C78.9736 95.1243 81.3101 93.4099 81.3196 91.7572C81.3267 90.8264 80.9705 89.8552 80.2653 89.2473Z" fill="white"/>
<path d="M58.8106 69.9426C58.7133 70.218 58.623 70.4911 58.5328 70.757C57.8489 72.8134 57.4381 75.0146 56.182 76.8263C55.6691 77.5648 55.0209 78.2226 54.6433 79.0394C53.5012 81.4947 55.1253 84.4035 55.8567 86.7566C56.7234 89.5515 57.3835 92.408 57.8252 95.3002C58.0698 96.903 58.2289 98.6269 57.4928 100.073C56.4385 102.136 53.7172 103.307 53.4964 105.613C53.4062 106.551 53.7742 107.46 54.0141 108.37C55.0755 112.404 53.5795 116.721 51.2762 120.2C50.3502 121.596 49.2579 122.937 47.7952 123.749C46.6863 124.364 45.4135 124.642 44.1479 124.68C41.3032 124.766 38.5036 123.647 36.2407 121.923C33.9778 120.197 32.2111 117.894 30.7627 115.443C25.5862 106.677 24.4084 95.6516 27.6117 85.9873C30.8149 76.3229 38.3493 68.1878 47.7382 64.2508C51.63 62.6172 55.9683 61.6792 60.0905 62.5863C61.6577 62.9306 63.4362 64.3862 61.9687 66.0056C61.3514 66.6895 60.4443 67.0836 59.872 67.8269C59.3995 68.4371 59.0789 69.1946 58.8106 69.9426Z" fill="#333333"/>
<path d="M25.874 189.992C25.874 189.992 26.2231 178.832 33.1971 169.417C40.1711 159.999 56.9091 134.195 58.303 127.568C59.6992 120.943 59.6992 112.922 61.4421 108.389C63.185 103.856 73.6472 92.3465 75.3901 94.4385C75.922 93.9256 76.3471 93.396 77.0452 93.1538C77.7433 92.9116 78.6266 93.0399 79.0445 93.6477C79.1609 92.8974 79.8257 92.2681 80.5832 92.1945C80.5832 91.4062 80.9347 90.6012 81.5853 90.1572C82.2359 89.7131 83.1857 89.6989 83.7865 90.2094C84.0477 90.4326 84.2471 90.7437 84.5653 90.8743C84.9761 91.0453 85.4368 90.8577 85.8808 90.8268C87.2485 90.7342 88.2173 92.0924 88.8965 93.2844C90.409 95.9392 91.9525 98.6841 92.3158 101.716C92.9355 101.192 93.8782 100.664 94.4742 101.215C94.847 101.56 94.8328 102.144 94.7877 102.65C94.46 106.387 93.9874 110.22 92.2042 113.518C91.1 115.555 86.2322 123.602 86.7238 125.868C86.7238 125.868 85.8523 132.101 92.1306 146.4C98.4064 160.697 105.38 173.95 103.638 184.761C101.895 195.57 96.6635 200.801 91.7815 199.756C86.8995 198.709 85.3299 193.653 80.0988 175.519C74.8677 157.385 72.7758 134.369 72.7758 134.369C72.7758 134.369 68.2428 139.251 64.7546 148.319C61.2688 157.385 47.6675 199.58 40.3444 202.021C33.0214 204.462 28.1393 199.929 25.874 189.992Z" fill="#E9946B"/>
<path d="M93.0801 102.073C93.0231 101.263 91.7385 101.275 91.8216 102.073C92.0946 104.744 91.9332 107.339 91.5936 109.994C91.5247 110.54 92.4223 110.647 92.5458 110.125C93.1727 107.489 93.27 104.768 93.0801 102.073Z" fill="#CE7151"/>
<path d="M90.2709 94.884C90.2139 94.4898 90.0002 94.1265 89.8269 93.7727C89.2523 92.5973 88.2953 91.2818 87.0748 90.7167C86.7685 90.5719 86.2318 90.2822 85.8875 90.3083C85.4696 90.3415 85.0755 90.2561 84.705 90.0495C84.5863 89.8975 84.4699 89.7479 84.3536 89.5959C83.9072 89.292 83.6674 89.0854 83.1141 89.0284C82.1073 88.9239 81.1052 89.4701 80.5235 90.275C80.1863 90.7428 80.1649 91.1821 80.0058 91.7021C79.8966 92.0536 79.4787 92.1462 79.2341 92.4406C79.1937 92.4881 79.1629 92.538 79.1296 92.5878C78.0302 92.0464 76.767 92.2958 75.7032 93.1055C75.4444 93.3026 75.1475 93.7442 74.884 93.8772C74.5848 94.0292 74.1099 93.9247 73.7608 93.9888C72.9155 94.1408 72.2316 94.5563 71.5905 95.1215C70.351 95.8504 69.2468 96.6815 68.2685 97.6503C64.6165 100.785 61.995 105.444 60.6297 109.844C58.5448 116.559 59.6965 123.932 56.8114 130.44C56.5217 131.091 57.4644 131.67 57.785 131.008C60.6225 125.164 60.0645 118.663 61.3871 112.453C62.7002 106.279 66.661 99.3458 72.4999 96.5034C72.8324 96.342 72.9036 96.0404 72.8205 95.7721C72.8419 95.7578 72.8656 95.7412 72.887 95.727C72.9345 95.6985 72.9748 95.6629 73.0105 95.6272C73.3951 95.4468 73.8036 95.3304 74.2547 95.2972C74.6014 95.2711 74.9884 95.3827 75.3233 95.2449C76.3847 94.8128 77.1445 92.9963 78.4695 93.7656C78.4315 93.9033 78.4268 94.0553 78.4743 94.2286C78.6642 94.8935 78.5621 95.5584 78.6642 96.2304C78.7687 96.9071 79.0703 97.3417 79.3362 97.9448C80.1222 99.7186 79.0869 100.958 79.3338 102.706C79.5808 104.451 80.5923 105.823 80.609 107.664C80.6256 109.551 79.9655 111.392 79.2626 113.118C77.9875 116.243 76.8358 119.308 75.943 122.571C75.4942 124.207 75.233 127.004 74.694 128.614C74.1265 130.31 73.5566 131.476 72.9511 133.147C72.6614 133.947 73.4308 133.947 73.9698 133.252C76.0309 130.602 76.8216 126.855 77.6907 123.675C78.6951 120.009 80.0296 116.601 81.3997 113.068C82.0313 111.439 82.53 109.73 82.5846 107.975C82.6416 106.182 82.0147 104.843 81.4828 103.192C80.9461 101.528 81.9624 99.9228 81.4519 98.2012C81.2596 97.5506 80.8179 97.052 80.5686 96.4417C80.229 95.6059 80.4 94.6347 80.1293 93.7704C80.1293 93.768 80.1269 93.7632 80.1246 93.7609C80.0438 93.5139 80.552 93.2218 80.6659 93.0817C80.7918 92.9274 81.0696 92.6353 81.1361 92.4525C81.1622 92.3765 81.1551 92.2934 81.1551 92.2127C81.1361 91.0776 82.112 90.408 83.1663 90.484C83.3563 90.4983 83.5534 90.5386 83.6935 90.6692C83.8336 90.7974 83.8929 90.9922 83.9974 91.1489C84.2586 91.5359 84.7786 91.6499 85.2108 91.6926C87.165 91.8779 88.5565 93.5092 89.6369 94.9956C89.9076 95.3684 90.2923 95.5346 90.2852 95.0502C90.2852 95.0027 90.2804 94.9457 90.2709 94.884Z" fill="#CE7151"/>
<path d="M103.163 168.583C101.033 162.571 97.6061 156.01 94.9205 150.235C94.4314 149.188 93.0755 149.551 93.5243 150.584C95.9154 156.081 98.9192 162.894 100.971 168.526C102.965 174 104.005 179.784 102.139 185.447C101.759 186.599 103.521 187.048 103.937 185.944C106.052 180.302 105.129 174.13 103.163 168.583Z" fill="#CE7151"/>
<path d="M35.5933 164.655C33.0573 167.768 30.3859 171.268 28.6074 174.875C26.8194 178.501 26.0287 182.452 25.2926 186.394C25.1169 187.339 26.5155 187.754 26.7505 186.797C27.6861 182.989 28.6027 179.083 30.4524 175.597C32.3069 172.097 34.9925 169.152 37.1082 165.823C37.6852 164.919 36.2938 163.795 35.5933 164.655Z" fill="#CE7151"/>
<path d="M172.862 105.012C172.862 105.012 180.278 98.2517 178.179 94.0013C176.08 89.7509 170.815 90.1641 171.419 86.5857C172.019 83.0072 183.358 81.2358 179.022 70.9826C174.686 60.727 143.031 62.3275 131.023 66.8011C119.013 71.2747 111.186 80.5686 112.357 95.4854C113.321 107.769 120.77 116.163 126.241 118.381C131.712 120.601 164.081 99.9638 164.081 99.9638L172.862 105.012Z" fill="#ED4450"/>
<path d="M152.7 73.0462C152.7 73.0462 164.672 71.98 162.094 80.2552C160.683 84.7811 153.951 90.0858 143.496 102.02C133.039 113.955 132.88 90.4918 132.88 90.4918L134.946 71.79L152.7 73.0462Z" fill="#3A1714"/>
<mask id="mask1_732_1712" style="mask-type:luminance" maskUnits="userSpaceOnUse" x="93" y="4" width="76" height="74">
<path d="M93.7021 4.07812H168.471V77.9189H93.7021V4.07812Z" fill="white"/>
</mask>
<g mask="url(#mask1_732_1712)">
<path d="M167.183 49.0463C167.988 47.4079 168.209 45.3539 167.518 43.6229C166.853 41.9536 165.668 41.2222 164.319 41.0299C164.92 39.674 165.039 38.2232 163.987 36.8032C163.429 36.0481 162.69 35.5234 161.871 35.1933C161.94 34.4857 161.821 33.752 161.437 32.9945C161.147 32.4222 160.599 32.1444 160.031 32.123C159.867 30.7102 159.288 29.4018 158.179 28.4971C157.134 27.6423 156.12 27.412 155.242 27.6019C155.253 27.4761 155.277 27.3597 155.284 27.2291C156.229 25.2108 156.889 23.0072 156.044 20.8986C155.208 18.8114 153.674 17.7619 151.943 17.4318C152.696 15.3731 152.485 13.217 150.146 11.5643C148.353 10.2963 145.931 10.294 143.78 11.0871C143.773 10.9066 143.758 10.7214 143.735 10.5267C143.509 8.76001 142.59 7.03135 140.833 6.7939C139.596 6.62768 138.651 7.0741 137.969 7.86956C136.616 5.67787 133.906 4.16529 131.285 4.34101C129.502 4.45974 127.842 5.4048 126.628 6.76541C124.662 5.46891 122.145 5.68974 120.075 6.88413C118.405 7.50389 117.318 8.81463 116.777 10.4246C116.739 10.4127 116.705 10.3961 116.667 10.3866C116.61 10.3699 116.553 10.3604 116.496 10.3462C114.355 9.01171 111.396 8.85499 109.209 9.80243C107.654 10.4768 106.291 11.8517 105.647 13.3547C103.026 12.6732 100.157 13.3452 98.2552 15.7103C96.5954 17.7737 96.1157 21.9909 97.4336 24.705C96.3841 24.9947 95.344 25.3271 94.5771 26.512C93.3399 28.4235 93.8481 30.8099 94.9119 32.6668C94.9831 32.7903 95.0615 32.9066 95.1374 33.0277C94.399 34.3195 94.0333 35.8225 94.3064 37.252C94.7741 39.712 96.821 41.5784 99.0649 42.3264C98.2006 44.0598 97.8349 45.8597 99.205 47.8662C100.485 49.7397 102.643 50.4473 104.74 50.4948C105.182 50.9863 105.64 51.4636 106.07 51.9432C107.511 53.5627 108.981 55.1536 110.479 56.7089C116.461 62.9183 122.938 68.6053 130.031 73.2523C131.235 74.0406 132.456 74.8005 133.693 75.5247C135.697 76.6977 137.917 77.9562 140.045 77.0872C142.951 77.2581 145.637 76.8117 148.367 76.1516C148.396 76.173 148.422 76.1967 148.45 76.2157C151.58 78.4406 153.765 77.3412 154.752 75.0593C155.341 75.2778 155.961 75.311 156.588 75.0617C157.678 74.6295 158.205 73.5515 158.362 72.3951C159.67 71.8917 160.705 70.6284 161.097 69.1515C161.418 67.9405 161.278 66.7556 160.881 65.6324C161.81 65.224 162.612 64.4974 163.104 63.417C163.93 61.6052 163.481 60.2446 162.603 59.0597C163.887 58.5729 165.041 57.7632 165.68 56.7992C167.133 54.6051 166.654 52.5725 165.291 51.2523C166.017 50.7109 166.673 50.0887 167.183 49.0463Z" fill="#4B3333"/>
</g>
<path d="M137.095 110.466C147.538 97.2876 154.075 90.5962 154.075 90.5962C149.098 87.913 146.324 82.499 144.805 76.8524C144.206 74.6227 143.8 72.3669 143.525 70.2251C142.708 63.7307 143.121 58.3311 143.121 58.3311L121.812 67.2142L119.715 68.0856C119.715 68.0856 119.796 68.7505 119.92 69.8808C119.958 70.2749 120.003 70.7214 120.06 71.22C120.069 71.2461 120.074 71.2794 120.067 71.315C120.093 71.5263 120.11 71.7448 120.126 71.9727C120.133 72.044 120.138 72.1128 120.136 72.1841L120.138 72.2363C120.205 73.2835 120.243 74.3306 120.262 75.3802C120.34 78.7188 120.24 82.074 120.034 85.4078C119.91 87.4499 119.753 89.4825 119.568 91.5009C116.795 121.771 133.979 114.401 137.095 110.466Z" fill="#ED9567"/>
<path d="M119.568 91.5006C129.974 90.6933 134.927 84.6026 137.275 79.1032C137.529 78.5001 137.755 77.9088 137.957 77.3366C139.351 73.2714 139.405 69.9209 139.405 69.9209L126.462 70.7876L123.133 71.0132L120.06 71.2198C120.069 71.2459 120.074 71.2791 120.067 71.3147C120.093 71.5261 120.11 71.7445 120.126 71.9725C120.133 72.0437 120.138 72.1126 120.136 72.1838L120.138 72.2361C120.174 72.806 120.186 73.3782 120.207 73.9481C120.217 74.4396 120.219 74.9335 120.214 75.4274C120.2 78.747 119.915 82.0904 119.727 85.4242C119.822 85.4242 119.929 85.4171 120.034 85.4076C119.913 87.4497 119.754 89.4823 119.568 91.5006Z" fill="#4B3333"/>
<path d="M109.135 84.2249C112.183 85.2744 115.888 85.6805 119.727 85.424C119.822 85.424 119.929 85.4169 120.034 85.4074C126.143 84.9562 132.574 82.8619 137.275 79.103C137.983 78.545 138.65 77.9442 139.263 77.3126C141.207 75.3156 142.699 72.9577 143.527 70.2246C143.598 70.0252 143.653 69.8186 143.708 69.6096C143.708 69.6096 159.757 66.4539 151.19 55.6046C147.367 50.7748 141.73 55.5263 138.462 57.8842C137.377 55.6545 137.204 53.0022 138.002 50.6537C134.587 51.4682 130.826 50.1123 128.435 47.5455C126.044 44.9715 124.98 41.329 125.227 37.8384C123.477 37.9073 121.679 37.9761 120 37.4893C118.312 37.0049 116.721 35.858 116.166 34.1982C113.364 36.2712 109.669 37.1189 106.235 36.4517C105.898 37.1213 104.806 39.9541 103.609 43.9504C103.36 44.8076 103.096 45.7218 102.835 46.6859C102.548 47.7402 102.263 48.8491 101.992 50.0007C101.847 50.6134 101.709 51.2331 101.574 51.86C101.403 52.6246 101.251 53.3963 101.101 54.1752C98.8077 66.2307 98.6367 80.58 109.135 84.2249Z" fill="#ED9567"/>
<path d="M121.713 55.7077C121.594 56.2183 121.608 56.7596 121.76 57.1681C122.1 58.0894 123.104 58.7234 124.078 58.6118C125.301 58.4717 126.289 57.0707 126.051 55.8526C125.814 54.6178 123.857 53.8461 122.77 54.2783C122.214 54.4991 121.862 55.0785 121.713 55.7077Z" fill="#1A1A1A"/>
<path d="M100.864 54.4226C100.344 53.5772 100.455 52.3164 101.688 51.8438C103.813 51.0294 105.233 53.9453 103.11 55.0162C102.12 55.5149 101.284 55.1041 100.864 54.4226Z" fill="#1A1A1A"/>
<path d="M107.805 63.638C108.012 63.1227 108.634 62.852 109.154 63.0657C109.664 63.2747 110.177 63.486 110.688 63.695C111.205 63.9087 111.474 64.5189 111.265 65.0389C111.056 65.5542 110.434 65.8249 109.914 65.6112C109.403 65.4022 108.892 65.1909 108.38 64.982C107.862 64.7683 107.596 64.158 107.805 63.638Z" fill="#CE7151"/>
<path d="M122.125 42.2813C123.32 43.1005 124.63 43.7274 125.777 44.6131C126.943 45.5107 127.993 46.5531 129.123 47.4958C130.142 48.3435 128.9 49.9985 127.874 49.1413C126.744 48.201 125.697 47.1538 124.528 46.261C123.377 45.3801 122.068 44.7484 120.874 43.9292C119.777 43.1741 121.026 41.5262 122.125 42.2813Z" fill="#4B3333"/>
<path d="M101.557 46.7461C102.486 45.8461 103.545 45.5469 104.775 45.2667C106.069 44.9747 106.681 46.9455 105.376 47.2423C104.561 47.4276 103.711 47.5344 103.089 48.1375C102.137 49.0612 100.603 47.6745 101.557 46.7461Z" fill="#4B3333"/>
<path d="M110.694 71.4048C111.692 71.0747 112.903 71.1792 113.883 71.1151C114.857 71.0533 115.838 71.1198 116.795 71.3145C117.692 71.4974 118.846 71.9414 118.397 73.0313C117.93 74.1735 116.913 74.8716 115.876 75.4438C114.94 75.9567 113.976 76.4578 112.927 76.6572C111.072 77.0039 109.184 76.1325 108.93 74.1022C108.84 73.3732 109.092 72.6086 109.597 72.0768C109.906 71.7514 110.281 71.5401 110.694 71.4048Z" fill="white"/>
<path d="M152.368 101.545C155.37 97.5537 158.687 92.7761 162.909 90.1167C164.295 89.2428 165.642 91.3419 164.284 92.249C163.737 92.6147 163.203 92.997 162.676 93.3864C165.217 94.5903 167.753 95.8084 170.236 97.1286C171.754 97.936 170.279 99.0211 168.733 98.3563C165.803 97.0954 163.196 96.8176 160.33 95.419C160.29 95.4 160.261 95.3739 160.225 95.3549C157.955 97.3281 155.909 99.5435 154.104 101.985C153.035 103.428 151.292 102.977 152.368 101.545Z" fill="#C02328"/>
<path d="M103.115 113.095C103.115 113.095 97.1859 103.68 96.1411 97.4017C95.094 91.1259 95.443 83.4537 94.7449 78.2227C94.0468 72.9916 93.002 67.7605 96.1411 67.7605C96.1411 67.7605 95.8752 62.9972 98.9716 63.1111C98.9716 63.1111 100.325 60.0884 102.068 61.1355C103.813 62.1803 104.16 63.5765 104.16 63.5765C104.16 63.5765 106.746 61.8526 109.638 67.77C112.53 73.6897 115.669 81.0127 117.063 85.8948C118.457 90.7768 114.971 104.378 116.365 107.864C117.761 111.352 103.115 113.095 103.115 113.095Z" fill="#ED9567"/>
<path d="M121.423 119.197C121.423 119.197 117.586 107.341 116.541 106.992C115.494 106.643 107.126 108.04 101.895 111.528C96.664 115.014 95.2678 116.756 95.6168 118.153C95.9659 119.547 102.591 127.917 102.591 127.917C102.591 127.917 102.244 135.589 105.73 138.03C105.73 138.03 102.94 142.912 115.145 158.256C127.35 173.6 131.885 173.251 142.345 170.461C152.807 167.671 181.751 143.61 186.633 136.287C191.515 128.964 190.47 119.547 188.725 114.315C186.982 109.087 182.449 102.459 171.987 104.202C161.524 105.948 155.422 114.142 154.726 116.234C154.028 118.326 151.587 120.42 149.146 122.512C146.705 124.604 141.474 131.927 139.731 132.625C137.986 133.321 134.5 134.019 134.849 136.46C134.849 136.46 131.71 133.321 131.012 131.927C130.313 130.534 131.012 127.394 127.526 127.394C127.526 127.394 125.085 120.418 121.423 119.197Z" fill="#ED4450"/>
<path d="M161.334 108.621C158.449 110.552 156.656 113.035 154.885 115.961C152.993 119.088 149.583 120.223 146.945 122.583C145.748 123.654 144.684 124.872 143.756 126.183C142.799 127.532 142.177 129.182 141.089 130.429C139.308 132.464 135.951 132.599 134.792 135.111C134.151 134.373 133.543 133.613 133.023 132.792C131.954 131.106 131.814 128.821 130.297 127.437C129.205 126.437 128.404 126.292 127.742 124.777C127.345 123.873 126.963 123.001 126.379 122.192C125.783 121.363 125.08 120.622 124.27 119.998C123.783 119.622 123.028 119.297 122.66 118.803C122.261 118.267 122.071 117.364 121.829 116.752C120.725 113.983 119.331 111.176 117.935 108.735C117.424 107.842 116.498 107.911 116.916 108.892C119.678 115.362 120.469 118.528 120.725 119.157C117.959 119.601 115.261 120.344 112.666 121.444C111.272 122.035 109.919 122.726 108.617 123.502C107.378 124.241 105.785 125.055 105.008 126.309C104.851 126.566 105.113 126.896 105.395 126.815C106.703 126.437 107.822 125.411 108.997 124.73C110.377 123.93 111.813 123.229 113.293 122.626C115.931 121.553 118.688 120.824 121.504 120.425C122.1 121.035 122.948 121.451 123.556 122.021C124.548 122.951 125.268 124.063 125.766 125.324C126.103 126.178 126.346 127.014 127.039 127.67C127.922 128.503 128.981 128.757 129.535 129.937C129.983 130.897 130.192 131.944 130.679 132.896C131.686 134.869 133.286 136.47 134.744 138.108C136.437 140.012 137.957 142.055 139.287 144.227C142.027 148.708 143.758 153.54 144.879 158.65C145.164 159.949 147.073 159.384 146.85 158.109C146.135 154.046 144.724 150.066 142.853 146.374C144.102 148.228 145.057 150.311 145.945 152.391C146.228 153.049 147.384 152.571 147.116 151.897C145.532 147.946 143.532 144.082 140.047 141.58C139.37 140.575 138.655 139.595 137.902 138.645C137.42 138.037 136.9 137.453 136.373 136.871C136.409 136.8 136.44 136.721 136.459 136.631C136.853 134.919 138.598 134.382 140.016 133.708C141.232 133.126 142.224 132.385 143.027 131.288C143.912 130.08 144.523 128.695 145.37 127.458C146.337 126.043 147.51 124.761 148.818 123.657C151.072 121.752 153.959 120.748 155.728 118.297C156.623 117.058 157.241 115.647 158.084 114.375C159.181 112.722 160.601 111.264 162.173 110.055C162.992 109.424 162.246 108.013 161.334 108.621Z" fill="#C02328"/>
<path d="M187.461 130.782C186.343 136.859 181.492 141.591 177.381 145.91C173.11 150.403 168.491 154.577 163.573 158.351C158.656 162.124 153.418 165.716 147.854 168.478C142.036 171.363 134.958 172.992 128.927 169.744C125.702 168.008 123.005 165.329 120.454 162.743C117.864 160.117 115.473 157.31 113.172 154.428C112.621 153.737 111.438 154.646 111.939 155.38C115.71 160.889 120.416 166.346 125.878 170.242C131.482 174.243 138.382 174.367 144.713 172.082C151.026 169.805 156.83 165.871 162.225 161.943C167.708 157.954 172.863 153.521 177.607 148.679C180.243 145.991 182.805 143.194 185.122 140.226C187.243 137.514 189.076 134.539 189.427 131.048C189.539 129.932 187.665 129.673 187.461 130.782Z" fill="#C02328"/>
<path d="M188.847 114.18C188.002 111.276 186.705 108.59 184.226 106.748C179.145 102.972 171.988 103.67 166.548 106.259C166.066 106.487 166.406 107.268 166.909 107.114C172.275 105.487 178.15 104.072 183.153 107.553C188.432 111.229 188.496 118.649 188.707 124.388C188.729 124.975 189.674 125.169 189.783 124.533C190.362 121.164 189.795 117.436 188.847 114.18Z" fill="#C02328" fill-opacity="0.5"/>
<path d="M117.935 86.7665C117.723 85.1185 117.336 83.4967 116.61 82.0198C115.731 80.2294 114.888 78.4224 114.081 76.5987C112.559 73.1651 111.459 69.3469 109.427 66.1674C108.719 65.0609 107.862 63.9448 106.677 63.3275C106.157 63.0544 105.666 62.9998 105.105 62.8716C104.421 62.7172 104.49 62.8359 104.075 62.2257C103.899 61.9669 103.764 61.6795 103.576 61.4255C101.999 59.2908 100.301 60.1765 99.1047 62.3563C98.7675 62.9689 99.2068 63.014 99.5891 62.4394C101.531 59.514 102.384 62.6032 103.381 63.7311C104.096 64.5385 104.379 64.0683 105.426 64.3058C108.097 64.9065 109.519 69.1973 110.4 71.3795C111.367 73.7754 112.359 76.1594 113.428 78.5102C114.589 81.07 116.553 83.8933 116.961 86.681C117.07 87.4385 118.034 87.5358 117.935 86.7665Z" fill="#CE7151"/>
</svg>
