<svg xmlns="http://www.w3.org/2000/svg" xmlns:xlink="http://www.w3.org/1999/xlink" width="150" zoomAndPan="magnify" viewBox="0 0 112.5 112.499997" height="150" preserveAspectRatio="xMidYMid meet" version="1.0"><defs><clipPath id="4211131d52"><path d="M 0 0 L 112 0 L 112 90.347656 L 0 90.347656 Z M 0 0 " clip-rule="nonzero"/></clipPath></defs><g clip-path="url(#4211131d52)"><path fill="#000000" d="M 106.570312 86.734375 L 75.867188 86.734375 L 75.867188 57.824219 L 108.375 57.824219 L 108.375 84.925781 C 108.375 85.921875 107.566406 86.734375 106.570312 86.734375 Z M 3.625 84.925781 L 3.625 57.824219 L 36.132812 57.824219 L 36.132812 86.734375 L 5.433594 86.734375 C 4.4375 86.734375 3.625 85.921875 3.625 84.925781 Z M 5.433594 3.613281 L 36.132812 3.613281 L 36.132812 14.457031 L 3.625 14.457031 L 3.625 5.421875 C 3.625 4.425781 4.4375 3.613281 5.433594 3.613281 Z M 75.867188 18.070312 L 108.375 18.070312 L 108.375 54.210938 L 75.867188 54.210938 Z M 39.746094 14.457031 L 39.746094 3.613281 L 72.253906 3.613281 L 72.253906 14.457031 Z M 36.132812 54.210938 L 3.625 54.210938 L 3.625 18.070312 L 36.132812 18.070312 Z M 72.253906 57.824219 L 72.253906 86.734375 L 39.746094 86.734375 L 39.746094 57.824219 Z M 39.746094 54.210938 L 39.746094 18.070312 L 72.253906 18.070312 L 72.253906 54.210938 Z M 108.375 5.421875 L 108.375 14.457031 L 75.867188 14.457031 L 75.867188 3.613281 L 106.570312 3.613281 C 107.566406 3.613281 108.375 4.425781 108.375 5.421875 Z M 106.570312 0 L 5.433594 0 C 2.441406 0 0.015625 2.429688 0.015625 5.421875 L 0.015625 84.925781 C 0.015625 87.921875 2.441406 90.347656 5.433594 90.347656 L 106.570312 90.347656 C 109.5625 90.347656 111.988281 87.921875 111.988281 84.925781 L 111.988281 5.421875 C 111.988281 2.429688 109.5625 0 106.570312 0 " fill-opacity="1" fill-rule="nonzero"/></g><path fill="#000000" d="M 25.296875 7.226562 L 14.460938 7.226562 L 14.460938 10.84375 L 25.296875 10.84375 L 25.296875 7.226562 " fill-opacity="1" fill-rule="nonzero"/><path fill="#000000" d="M 50.582031 7.226562 L 50.582031 10.84375 L 61.417969 10.84375 L 61.417969 7.226562 L 50.582031 7.226562 " fill-opacity="1" fill-rule="nonzero"/><path fill="#000000" d="M 97.539062 10.84375 L 97.539062 7.226562 L 86.703125 7.226562 L 86.703125 10.84375 L 97.539062 10.84375 " fill-opacity="1" fill-rule="nonzero"/><path fill="#000000" d="M 56 39.753906 C 53.011719 39.753906 50.582031 37.324219 50.582031 34.332031 C 50.582031 31.339844 53.011719 28.910156 56 28.910156 C 58.992188 28.910156 61.417969 31.339844 61.417969 34.332031 C 61.417969 37.324219 58.992188 39.753906 56 39.753906 Z M 68.644531 36.140625 L 68.644531 32.527344 L 64.847656 32.527344 C 64.613281 31.375 64.15625 30.308594 63.527344 29.355469 L 68.113281 24.769531 L 65.558594 22.214844 L 60.976562 26.800781 C 60.023438 26.171875 58.957031 25.714844 57.808594 25.480469 L 57.808594 21.683594 L 54.195312 21.683594 L 54.195312 25.480469 C 53.046875 25.714844 51.980469 26.171875 51.027344 26.800781 L 46.441406 22.214844 L 43.886719 24.769531 L 48.472656 29.355469 C 47.847656 30.308594 47.386719 31.375 47.15625 32.527344 L 43.359375 32.527344 L 43.359375 36.140625 L 47.15625 36.140625 C 47.386719 37.289062 47.847656 38.355469 48.472656 39.308594 L 43.886719 43.898438 L 46.441406 46.453125 L 51.027344 41.863281 C 51.980469 42.492188 53.046875 42.949219 54.195312 43.183594 L 54.195312 46.980469 L 57.808594 46.980469 L 57.808594 43.183594 C 58.957031 42.949219 60.023438 42.492188 60.976562 41.863281 L 65.558594 46.453125 L 68.113281 43.898438 L 63.527344 39.308594 C 64.15625 38.355469 64.613281 37.289062 64.847656 36.140625 L 68.644531 36.140625 " fill-opacity="1" fill-rule="nonzero"/><path fill="#000000" d="M 43.359375 79.507812 L 43.359375 83.121094 L 46.972656 83.121094 C 48.960938 83.121094 50.582031 81.496094 50.582031 79.507812 L 50.582031 75.894531 C 50.582031 75.230469 50.390625 74.621094 50.082031 74.085938 C 50.390625 73.550781 50.582031 72.941406 50.582031 72.277344 L 50.582031 68.664062 C 50.582031 66.675781 48.960938 65.050781 46.972656 65.050781 L 43.359375 65.050781 L 43.359375 68.664062 L 46.972656 68.664062 L 46.972656 72.277344 L 43.359375 72.277344 L 43.359375 75.894531 L 46.972656 75.894531 L 46.972656 79.507812 L 43.359375 79.507812 " fill-opacity="1" fill-rule="nonzero"/><path fill="#000000" d="M 97.539062 65.050781 L 93.929688 65.050781 L 93.929688 68.664062 L 97.539062 68.664062 L 97.539062 72.277344 L 93.929688 72.277344 L 93.929688 75.894531 L 97.539062 75.894531 L 97.539062 79.507812 L 93.929688 79.507812 L 93.929688 83.121094 L 97.539062 83.121094 C 99.53125 83.121094 101.152344 81.496094 101.152344 79.507812 L 101.152344 75.894531 C 101.152344 75.230469 100.960938 74.621094 100.652344 74.085938 C 100.960938 73.550781 101.152344 72.941406 101.152344 72.277344 L 101.152344 68.664062 C 101.152344 66.675781 99.53125 65.050781 97.539062 65.050781 " fill-opacity="1" fill-rule="nonzero"/><path fill="#000000" d="M 57.808594 83.121094 L 61.417969 83.121094 L 61.417969 68.664062 C 61.417969 66.675781 59.796875 65.050781 57.808594 65.050781 L 54.195312 65.050781 L 54.195312 68.664062 L 57.808594 68.664062 L 57.808594 83.121094 " fill-opacity="1" fill-rule="nonzero"/><path fill="#000000" d="M 25.296875 65.050781 L 21.6875 65.050781 L 21.6875 68.664062 L 25.296875 68.664062 L 25.296875 83.121094 L 28.910156 83.121094 L 28.910156 68.664062 C 28.910156 66.675781 27.289062 65.050781 25.296875 65.050781 " fill-opacity="1" fill-rule="nonzero"/><path fill="#000000" d="M 66.835938 65.050781 C 67.832031 65.050781 68.644531 64.238281 68.644531 63.242188 C 68.644531 62.25 67.832031 61.4375 66.835938 61.4375 C 65.84375 61.4375 65.03125 62.25 65.03125 63.242188 C 65.03125 64.238281 65.84375 65.050781 66.835938 65.050781 " fill-opacity="1" fill-rule="nonzero"/><path fill="#000000" d="M 30.714844 61.4375 C 29.722656 61.4375 28.910156 62.25 28.910156 63.242188 C 28.910156 64.238281 29.722656 65.050781 30.714844 65.050781 C 31.710938 65.050781 32.523438 64.238281 32.523438 63.242188 C 32.523438 62.25 31.710938 61.4375 30.714844 61.4375 " fill-opacity="1" fill-rule="nonzero"/><path fill="#000000" d="M 13.15625 30.769531 L 14.347656 30.585938 L 14.644531 29.414062 C 15.246094 26.992188 17.398438 25.296875 19.878906 25.296875 C 22.363281 25.296875 24.515625 26.992188 25.113281 29.414062 L 25.40625 30.585938 L 26.605469 30.769531 C 27.945312 30.964844 28.910156 32.085938 28.910156 33.429688 C 28.910156 34.925781 27.695312 36.140625 26.203125 36.140625 L 13.558594 36.140625 C 12.0625 36.140625 10.851562 34.925781 10.851562 33.429688 C 10.851562 32.085938 11.824219 30.964844 13.15625 30.769531 Z M 13.558594 39.753906 L 26.203125 39.753906 C 29.6875 39.753906 32.523438 36.914062 32.523438 33.429688 C 32.523438 30.683594 30.792969 28.332031 28.289062 27.472656 C 26.964844 24.011719 23.648438 21.683594 19.878906 21.683594 C 16.113281 21.683594 12.796875 24.011719 11.472656 27.472656 C 8.964844 28.332031 7.238281 30.683594 7.238281 33.429688 C 7.238281 36.914062 10.074219 39.753906 13.558594 39.753906 " fill-opacity="1" fill-rule="nonzero"/><path fill="#000000" d="M 10.851562 50.59375 L 14.460938 50.59375 L 14.460938 43.367188 L 10.851562 43.367188 L 10.851562 50.59375 " fill-opacity="1" fill-rule="nonzero"/><path fill="#000000" d="M 18.074219 50.59375 L 21.6875 50.59375 L 21.6875 43.367188 L 18.074219 43.367188 L 18.074219 50.59375 " fill-opacity="1" fill-rule="nonzero"/><path fill="#000000" d="M 25.296875 50.59375 L 28.910156 50.59375 L 28.910156 43.367188 L 25.296875 43.367188 L 25.296875 50.59375 " fill-opacity="1" fill-rule="nonzero"/><path fill="#000000" d="M 12.65625 65.050781 C 9.664062 65.050781 7.238281 67.480469 7.238281 70.472656 L 7.238281 72.277344 L 10.851562 72.277344 L 10.851562 70.472656 C 10.851562 69.476562 11.660156 68.664062 12.65625 68.664062 C 13.652344 68.664062 14.460938 69.476562 14.460938 70.472656 L 14.460938 70.78125 C 14.460938 71.261719 14.273438 71.722656 13.933594 72.058594 L 7.238281 78.757812 L 7.238281 83.121094 L 18.074219 83.121094 L 18.074219 79.507812 L 11.597656 79.507812 L 16.488281 74.613281 C 17.511719 73.589844 18.074219 72.230469 18.074219 70.78125 L 18.074219 70.472656 C 18.074219 67.480469 15.648438 65.050781 12.65625 65.050781 " fill-opacity="1" fill-rule="nonzero"/><path fill="#000000" d="M 102.957031 61.4375 C 101.964844 61.4375 101.152344 62.25 101.152344 63.242188 C 101.152344 64.238281 101.964844 65.050781 102.957031 65.050781 C 103.953125 65.050781 104.765625 64.238281 104.765625 63.242188 C 104.765625 62.25 103.953125 61.4375 102.957031 61.4375 " fill-opacity="1" fill-rule="nonzero"/><path fill="#000000" d="M 84.898438 65.050781 C 81.90625 65.050781 79.480469 67.480469 79.480469 70.472656 L 79.480469 72.277344 L 83.089844 72.277344 L 83.089844 70.472656 C 83.089844 69.476562 83.902344 68.664062 84.898438 68.664062 C 85.890625 68.664062 86.703125 69.476562 86.703125 70.472656 L 86.703125 70.78125 C 86.703125 71.261719 86.511719 71.722656 86.175781 72.058594 L 79.480469 78.757812 L 79.480469 83.121094 L 90.316406 83.121094 L 90.316406 79.507812 L 83.839844 79.507812 L 88.726562 74.613281 C 89.75 73.589844 90.316406 72.230469 90.316406 70.78125 L 90.316406 70.472656 C 90.316406 67.480469 87.890625 65.050781 84.898438 65.050781 " fill-opacity="1" fill-rule="nonzero"/><path fill="#000000" d="M 98.441406 43.367188 L 85.800781 43.367188 C 84.304688 43.367188 83.089844 42.152344 83.089844 40.65625 C 83.089844 39.316406 84.058594 38.195312 85.398438 37.996094 L 86.597656 37.8125 L 86.886719 36.640625 C 87.488281 34.21875 89.636719 32.527344 92.121094 32.527344 C 94.605469 32.527344 96.757812 34.21875 97.355469 36.640625 L 97.644531 37.8125 L 98.84375 37.996094 C 100.183594 38.195312 101.152344 39.316406 101.152344 40.65625 C 101.152344 42.152344 99.9375 43.367188 98.441406 43.367188 Z M 86.703125 25.296875 C 88.691406 25.296875 90.316406 26.921875 90.316406 28.910156 C 90.316406 28.980469 90.300781 29.050781 90.292969 29.125 C 88.292969 29.539062 86.507812 30.621094 85.214844 32.164062 C 83.960938 31.59375 83.089844 30.335938 83.089844 28.910156 C 83.089844 26.921875 84.714844 25.296875 86.703125 25.296875 Z M 100.53125 34.699219 C 99.417969 31.804688 96.90625 29.722656 93.90625 29.109375 C 93.914062 29.046875 93.929688 28.976562 93.929688 28.910156 C 93.929688 24.921875 90.691406 21.683594 86.703125 21.683594 C 82.71875 21.683594 79.480469 24.921875 79.480469 28.910156 C 79.480469 31.464844 80.871094 33.753906 82.949219 35.03125 C 80.863281 36.074219 79.480469 38.199219 79.480469 40.65625 C 79.480469 44.144531 82.316406 46.980469 85.800781 46.980469 L 98.441406 46.980469 C 101.929688 46.980469 104.765625 44.144531 104.765625 40.65625 C 104.765625 37.910156 103.035156 35.5625 100.53125 34.699219 " fill-opacity="1" fill-rule="nonzero"/></svg>