<svg xmlns="http://www.w3.org/2000/svg" xmlns:xlink="http://www.w3.org/1999/xlink" width="150" zoomAndPan="magnify" viewBox="0 0 112.5 112.499997" height="150" preserveAspectRatio="xMidYMid meet" version="1.0"><defs><clipPath id="728d4157f8"><path d="M 0 0 L 112 0 L 112 98.5625 L 0 98.5625 Z M 0 0 " clip-rule="nonzero"/></clipPath></defs><g clip-path="url(#728d4157f8)"><path fill="#000000" d="M 107.8125 86.691406 L 105.515625 86.691406 L 105.515625 31.765625 C 106.109375 31.714844 106.671875 31.5625 107.207031 31.3125 C 107.746094 31.0625 108.222656 30.726562 108.644531 30.308594 C 109.0625 29.890625 109.394531 29.410156 109.644531 28.875 C 109.894531 28.335938 110.046875 27.773438 110.097656 27.183594 C 110.148438 26.589844 110.097656 26.011719 109.945312 25.4375 C 109.789062 24.863281 109.542969 24.335938 109.203125 23.851562 C 108.863281 23.367188 108.449219 22.953125 107.964844 22.613281 C 107.476562 22.273438 106.949219 22.027344 106.375 21.875 C 106.527344 21.402344 106.609375 20.914062 106.617188 20.417969 L 106.617188 5.042969 C 106.613281 4.710938 106.582031 4.382812 106.515625 4.054688 C 106.453125 3.730469 106.355469 3.414062 106.226562 3.105469 C 106.101562 2.796875 105.945312 2.503906 105.757812 2.230469 C 105.574219 1.953125 105.363281 1.695312 105.128906 1.460938 C 104.894531 1.226562 104.636719 1.015625 104.363281 0.832031 C 104.085938 0.644531 103.792969 0.488281 103.484375 0.363281 C 103.179688 0.234375 102.863281 0.136719 102.535156 0.0742188 C 102.207031 0.0078125 101.878906 -0.0234375 101.546875 -0.0273438 L 10.449219 -0.0273438 C 10.117188 -0.0234375 9.785156 0.0078125 9.460938 0.0742188 C 9.132812 0.136719 8.816406 0.234375 8.507812 0.363281 C 8.203125 0.488281 7.910156 0.644531 7.632812 0.832031 C 7.355469 1.015625 7.101562 1.226562 6.863281 1.460938 C 6.628906 1.695312 6.417969 1.953125 6.234375 2.230469 C 6.050781 2.503906 5.894531 2.796875 5.765625 3.105469 C 5.636719 3.414062 5.542969 3.730469 5.476562 4.054688 C 5.410156 4.382812 5.378906 4.710938 5.378906 5.042969 L 5.378906 20.417969 C 5.386719 20.914062 5.464844 21.402344 5.617188 21.875 C 5.046875 22.027344 4.515625 22.273438 4.03125 22.613281 C 3.542969 22.953125 3.128906 23.367188 2.789062 23.851562 C 2.449219 24.335938 2.203125 24.867188 2.050781 25.4375 C 1.894531 26.011719 1.84375 26.589844 1.894531 27.183594 C 1.945312 27.773438 2.097656 28.335938 2.347656 28.875 C 2.597656 29.410156 2.933594 29.890625 3.351562 30.308594 C 3.769531 30.726562 4.25 31.0625 4.785156 31.3125 C 5.324219 31.5625 5.886719 31.714844 6.476562 31.765625 L 6.476562 86.691406 L 4.191406 86.691406 C 3.925781 86.691406 3.667969 86.71875 3.40625 86.769531 C 3.148438 86.820312 2.898438 86.898438 2.652344 87 C 2.410156 87.101562 2.179688 87.222656 1.960938 87.371094 C 1.738281 87.515625 1.539062 87.683594 1.351562 87.871094 C 1.164062 88.058594 0.996094 88.261719 0.851562 88.480469 C 0.703125 88.699219 0.582031 88.929688 0.480469 89.171875 C 0.378906 89.417969 0.300781 89.667969 0.25 89.925781 C 0.199219 90.1875 0.171875 90.445312 0.171875 90.710938 L 0.171875 94.707031 C 0.171875 94.972656 0.199219 95.230469 0.25 95.492188 C 0.300781 95.75 0.378906 96 0.480469 96.246094 C 0.578125 96.488281 0.703125 96.71875 0.851562 96.9375 C 0.996094 97.160156 1.164062 97.363281 1.351562 97.546875 C 1.535156 97.734375 1.738281 97.902344 1.960938 98.046875 C 2.179688 98.195312 2.410156 98.320312 2.652344 98.421875 C 2.898438 98.519531 3.148438 98.597656 3.40625 98.648438 C 3.667969 98.699219 3.925781 98.726562 4.191406 98.726562 L 107.8125 98.726562 C 108.074219 98.726562 108.335938 98.699219 108.59375 98.648438 C 108.855469 98.597656 109.105469 98.519531 109.347656 98.421875 C 109.59375 98.320312 109.824219 98.195312 110.042969 98.046875 C 110.261719 97.902344 110.464844 97.734375 110.652344 97.546875 C 110.839844 97.363281 111.003906 97.160156 111.152344 96.9375 C 111.296875 96.71875 111.421875 96.488281 111.523438 96.246094 C 111.625 96 111.699219 95.75 111.753906 95.492188 C 111.804688 95.230469 111.828125 94.972656 111.832031 94.707031 L 111.832031 90.710938 C 111.828125 90.445312 111.804688 90.1875 111.753906 89.925781 C 111.699219 89.667969 111.625 89.417969 111.523438 89.171875 C 111.421875 88.929688 111.296875 88.699219 111.152344 88.480469 C 111.003906 88.261719 110.839844 88.058594 110.652344 87.871094 C 110.464844 87.683594 110.261719 87.515625 110.042969 87.371094 C 109.824219 87.222656 109.59375 87.101562 109.347656 87 C 109.105469 86.898438 108.851562 86.820312 108.59375 86.769531 C 108.335938 86.71875 108.074219 86.691406 107.8125 86.691406 Z M 10.289062 31.8125 L 101.707031 31.8125 L 101.707031 86.6875 L 71.054688 86.6875 L 71.054688 61.023438 C 71.054688 60.769531 71.003906 60.527344 70.910156 60.292969 C 70.8125 60.058594 70.675781 59.855469 70.496094 59.675781 C 70.316406 59.496094 70.109375 59.359375 69.878906 59.261719 C 69.644531 59.164062 69.402344 59.117188 69.148438 59.117188 L 42.855469 59.117188 C 42.601562 59.117188 42.359375 59.164062 42.125 59.261719 C 41.890625 59.359375 41.683594 59.496094 41.507812 59.675781 C 41.328125 59.855469 41.191406 60.058594 41.09375 60.292969 C 40.996094 60.527344 40.949219 60.769531 40.949219 61.023438 L 40.949219 86.6875 L 10.289062 86.6875 Z M 57.902344 86.6875 L 57.902344 62.925781 L 67.242188 62.925781 L 67.242188 86.6875 Z M 44.757812 62.925781 L 54.09375 62.925781 L 54.09375 86.6875 L 44.757812 86.6875 Z M 9.1875 5.042969 C 9.191406 4.878906 9.222656 4.71875 9.285156 4.5625 C 9.347656 4.410156 9.441406 4.273438 9.558594 4.15625 C 9.675781 4.035156 9.8125 3.945312 9.964844 3.882812 C 10.121094 3.816406 10.28125 3.785156 10.449219 3.785156 L 101.546875 3.785156 C 101.714844 3.785156 101.875 3.816406 102.027344 3.882812 C 102.183594 3.945312 102.316406 4.035156 102.4375 4.15625 C 102.554688 4.273438 102.644531 4.410156 102.707031 4.5625 C 102.773438 4.71875 102.804688 4.878906 102.804688 5.042969 L 102.804688 20.417969 C 102.804688 20.585938 102.773438 20.746094 102.707031 20.898438 C 102.644531 21.054688 102.554688 21.191406 102.4375 21.308594 C 102.316406 21.425781 102.183594 21.515625 102.027344 21.582031 C 101.875 21.644531 101.714844 21.675781 101.546875 21.675781 L 10.449219 21.675781 C 10.28125 21.675781 10.121094 21.644531 9.964844 21.582031 C 9.8125 21.515625 9.675781 21.425781 9.558594 21.308594 C 9.441406 21.191406 9.347656 21.054688 9.285156 20.898438 C 9.222656 20.746094 9.191406 20.585938 9.1875 20.417969 Z M 5.6875 26.746094 C 5.6875 26.578125 5.71875 26.417969 5.785156 26.265625 C 5.847656 26.109375 5.9375 25.972656 6.058594 25.855469 C 6.175781 25.738281 6.3125 25.648438 6.464844 25.582031 C 6.617188 25.519531 6.78125 25.488281 6.945312 25.488281 L 105.046875 25.488281 C 105.214844 25.488281 105.375 25.519531 105.53125 25.582031 C 105.683594 25.648438 105.820312 25.738281 105.9375 25.855469 C 106.054688 25.972656 106.148438 26.109375 106.210938 26.265625 C 106.273438 26.417969 106.304688 26.578125 106.304688 26.746094 C 106.304688 26.914062 106.273438 27.074219 106.210938 27.226562 C 106.148438 27.382812 106.054688 27.515625 105.9375 27.636719 C 105.820312 27.753906 105.683594 27.84375 105.53125 27.90625 C 105.375 27.972656 105.214844 28.003906 105.046875 28.003906 L 6.945312 28.003906 C 6.78125 28.003906 6.617188 27.972656 6.464844 27.90625 C 6.3125 27.84375 6.175781 27.753906 6.058594 27.636719 C 5.9375 27.515625 5.847656 27.382812 5.785156 27.226562 C 5.71875 27.074219 5.6875 26.914062 5.6875 26.746094 Z M 108.019531 94.707031 C 108.019531 94.847656 107.949219 94.917969 107.8125 94.917969 L 4.191406 94.917969 C 4.050781 94.917969 3.984375 94.847656 3.984375 94.707031 L 3.984375 90.710938 C 3.984375 90.570312 4.050781 90.503906 4.191406 90.503906 L 107.8125 90.503906 C 107.949219 90.503906 108.019531 90.570312 108.019531 90.710938 Z M 108.019531 94.707031 " fill-opacity="1" fill-rule="nonzero"/></g><path fill="#000000" d="M 35.402344 59.117188 L 13.921875 59.117188 C 13.667969 59.117188 13.425781 59.164062 13.191406 59.261719 C 12.957031 59.359375 12.753906 59.496094 12.574219 59.675781 C 12.394531 59.855469 12.257812 60.058594 12.160156 60.292969 C 12.0625 60.527344 12.015625 60.769531 12.015625 61.023438 L 12.015625 82.445312 C 12.015625 82.695312 12.0625 82.9375 12.160156 83.171875 C 12.257812 83.40625 12.394531 83.613281 12.574219 83.789062 C 12.753906 83.96875 12.957031 84.105469 13.191406 84.203125 C 13.425781 84.300781 13.667969 84.347656 13.921875 84.347656 L 35.402344 84.347656 C 35.65625 84.347656 35.898438 84.300781 36.132812 84.203125 C 36.363281 84.105469 36.570312 83.96875 36.75 83.789062 C 36.929688 83.613281 37.066406 83.40625 37.164062 83.171875 C 37.257812 82.9375 37.308594 82.695312 37.308594 82.445312 L 37.308594 61.023438 C 37.308594 60.769531 37.257812 60.527344 37.164062 60.292969 C 37.066406 60.058594 36.929688 59.855469 36.75 59.675781 C 36.570312 59.496094 36.363281 59.359375 36.132812 59.261719 C 35.898438 59.164062 35.65625 59.117188 35.402344 59.117188 Z M 33.496094 80.539062 L 15.828125 80.539062 L 15.828125 62.925781 L 33.496094 62.925781 Z M 33.496094 80.539062 " fill-opacity="1" fill-rule="nonzero"/><path fill="#000000" d="M 35.402344 37.699219 L 13.921875 37.699219 C 13.667969 37.699219 13.425781 37.746094 13.191406 37.84375 C 12.957031 37.941406 12.753906 38.078125 12.574219 38.257812 C 12.394531 38.433594 12.257812 38.640625 12.160156 38.875 C 12.0625 39.109375 12.015625 39.351562 12.015625 39.605469 L 12.015625 51.878906 C 12.015625 52.132812 12.0625 52.375 12.160156 52.609375 C 12.257812 52.84375 12.394531 53.046875 12.574219 53.226562 C 12.753906 53.40625 12.957031 53.542969 13.191406 53.640625 C 13.425781 53.738281 13.667969 53.785156 13.921875 53.785156 L 35.402344 53.785156 C 35.65625 53.785156 35.898438 53.738281 36.132812 53.640625 C 36.363281 53.542969 36.570312 53.40625 36.75 53.226562 C 36.929688 53.046875 37.066406 52.84375 37.164062 52.609375 C 37.257812 52.375 37.308594 52.132812 37.308594 51.878906 L 37.308594 39.605469 C 37.308594 39.351562 37.257812 39.109375 37.164062 38.875 C 37.066406 38.640625 36.929688 38.433594 36.75 38.257812 C 36.570312 38.078125 36.363281 37.941406 36.132812 37.84375 C 35.898438 37.746094 35.65625 37.699219 35.402344 37.699219 Z M 15.828125 41.507812 L 22.757812 41.507812 L 22.757812 49.972656 L 15.828125 49.972656 Z M 33.496094 49.972656 L 26.566406 49.972656 L 26.566406 41.507812 L 33.496094 41.507812 Z M 33.496094 49.972656 " fill-opacity="1" fill-rule="nonzero"/><path fill="#000000" d="M 45.261719 53.785156 L 66.742188 53.785156 C 66.996094 53.785156 67.238281 53.734375 67.472656 53.640625 C 67.703125 53.542969 67.910156 53.40625 68.089844 53.226562 C 68.265625 53.046875 68.40625 52.84375 68.5 52.609375 C 68.597656 52.375 68.648438 52.132812 68.648438 51.878906 L 68.648438 39.605469 C 68.648438 39.351562 68.597656 39.109375 68.5 38.875 C 68.40625 38.640625 68.265625 38.433594 68.089844 38.257812 C 67.910156 38.078125 67.703125 37.941406 67.472656 37.84375 C 67.238281 37.746094 66.996094 37.699219 66.742188 37.699219 L 45.261719 37.699219 C 45.007812 37.699219 44.765625 37.746094 44.53125 37.84375 C 44.296875 37.941406 44.09375 38.078125 43.914062 38.257812 C 43.734375 38.433594 43.597656 38.640625 43.5 38.875 C 43.402344 39.109375 43.355469 39.351562 43.355469 39.605469 L 43.355469 51.878906 C 43.355469 52.132812 43.402344 52.375 43.5 52.609375 C 43.597656 52.84375 43.734375 53.046875 43.914062 53.226562 C 44.09375 53.40625 44.296875 53.542969 44.53125 53.640625 C 44.765625 53.734375 45.007812 53.785156 45.261719 53.785156 Z M 64.835938 49.972656 L 57.664062 49.972656 L 57.664062 41.507812 L 64.835938 41.507812 Z M 47.167969 41.507812 L 53.851562 41.507812 L 53.851562 49.972656 L 47.167969 49.972656 Z M 47.167969 41.507812 " fill-opacity="1" fill-rule="nonzero"/><path fill="#000000" d="M 75.585938 53.785156 L 97.070312 53.785156 C 97.320312 53.785156 97.5625 53.738281 97.796875 53.640625 C 98.03125 53.542969 98.238281 53.40625 98.414062 53.226562 C 98.59375 53.046875 98.730469 52.84375 98.828125 52.609375 C 98.925781 52.375 98.972656 52.132812 98.972656 51.878906 L 98.972656 39.605469 C 98.972656 39.351562 98.925781 39.109375 98.828125 38.875 C 98.730469 38.640625 98.59375 38.433594 98.414062 38.257812 C 98.238281 38.078125 98.03125 37.941406 97.796875 37.84375 C 97.5625 37.746094 97.320312 37.699219 97.070312 37.699219 L 75.585938 37.699219 C 75.335938 37.699219 75.089844 37.746094 74.859375 37.84375 C 74.625 37.941406 74.417969 38.078125 74.238281 38.257812 C 74.0625 38.433594 73.921875 38.640625 73.828125 38.875 C 73.730469 39.109375 73.679688 39.351562 73.679688 39.605469 L 73.679688 51.878906 C 73.679688 52.132812 73.730469 52.375 73.828125 52.609375 C 73.921875 52.84375 74.0625 53.046875 74.238281 53.226562 C 74.417969 53.40625 74.625 53.542969 74.859375 53.640625 C 75.089844 53.738281 75.335938 53.785156 75.585938 53.785156 Z M 95.164062 49.972656 L 88.234375 49.972656 L 88.234375 41.507812 L 95.164062 41.507812 Z M 77.492188 41.507812 L 84.421875 41.507812 L 84.421875 49.972656 L 77.492188 49.972656 Z M 77.492188 41.507812 " fill-opacity="1" fill-rule="nonzero"/><path fill="#000000" d="M 76.277344 59.117188 C 76.027344 59.117188 75.785156 59.164062 75.550781 59.261719 C 75.316406 59.359375 75.109375 59.496094 74.933594 59.675781 C 74.753906 59.855469 74.617188 60.058594 74.519531 60.292969 C 74.421875 60.527344 74.375 60.769531 74.375 61.023438 L 74.375 82.445312 C 74.375 82.695312 74.421875 82.9375 74.519531 83.171875 C 74.617188 83.40625 74.753906 83.613281 74.933594 83.789062 C 75.109375 83.96875 75.316406 84.105469 75.550781 84.203125 C 75.785156 84.300781 76.027344 84.347656 76.277344 84.347656 L 97.761719 84.347656 C 98.011719 84.347656 98.253906 84.300781 98.488281 84.203125 C 98.722656 84.105469 98.929688 83.96875 99.105469 83.789062 C 99.285156 83.613281 99.421875 83.40625 99.519531 83.171875 C 99.617188 82.9375 99.664062 82.695312 99.664062 82.445312 L 99.664062 61.023438 C 99.664062 60.769531 99.617188 60.527344 99.519531 60.292969 C 99.421875 60.058594 99.285156 59.855469 99.105469 59.675781 C 98.929688 59.496094 98.722656 59.359375 98.488281 59.261719 C 98.253906 59.164062 98.011719 59.117188 97.761719 59.117188 Z M 95.855469 80.539062 L 78.183594 80.539062 L 78.183594 62.925781 L 95.855469 62.925781 Z M 95.855469 80.539062 " fill-opacity="1" fill-rule="nonzero"/><path fill="#000000" d="M 15.308594 18.03125 L 16.707031 18.03125 C 16.953125 18.03125 17.160156 17.945312 17.332031 17.773438 C 17.503906 17.601562 17.589844 17.394531 17.589844 17.152344 L 17.589844 11.707031 L 19.546875 17.4375 C 19.605469 17.613281 19.714844 17.757812 19.867188 17.867188 C 20.019531 17.976562 20.191406 18.03125 20.378906 18.03125 L 21.765625 18.03125 C 21.953125 18.03125 22.125 17.976562 22.277344 17.867188 C 22.429688 17.757812 22.535156 17.613281 22.597656 17.4375 L 24.539062 11.757812 L 24.539062 17.152344 C 24.539062 17.394531 24.625 17.601562 24.796875 17.773438 C 24.96875 17.945312 25.175781 18.03125 25.417969 18.03125 L 26.820312 18.03125 C 27.0625 18.03125 27.269531 17.945312 27.441406 17.773438 C 27.613281 17.601562 27.699219 17.394531 27.699219 17.152344 L 27.699219 7.539062 C 27.699219 7.296875 27.613281 7.089844 27.441406 6.917969 C 27.269531 6.746094 27.0625 6.660156 26.820312 6.660156 L 24.5 6.660156 C 24.320312 6.660156 24.152344 6.714844 24 6.816406 C 23.851562 6.921875 23.742188 7.058594 23.679688 7.230469 L 21.917969 11.894531 C 21.851562 12.066406 21.746094 12.203125 21.597656 12.304688 C 21.445312 12.410156 21.28125 12.460938 21.097656 12.464844 C 20.914062 12.464844 20.75 12.414062 20.597656 12.308594 C 20.449219 12.207031 20.339844 12.070312 20.273438 11.902344 L 18.46875 7.222656 C 18.402344 7.054688 18.292969 6.917969 18.144531 6.816406 C 17.996094 6.710938 17.828125 6.660156 17.648438 6.660156 L 15.308594 6.660156 C 15.0625 6.660156 14.855469 6.746094 14.683594 6.917969 C 14.511719 7.089844 14.425781 7.296875 14.425781 7.539062 L 14.425781 17.152344 C 14.425781 17.394531 14.511719 17.601562 14.683594 17.773438 C 14.855469 17.945312 15.0625 18.03125 15.308594 18.03125 Z M 15.308594 18.03125 " fill-opacity="1" fill-rule="nonzero"/><path fill="#000000" d="M 33.214844 18.03125 L 34.644531 18.03125 C 34.832031 18.03125 35.003906 17.976562 35.160156 17.863281 C 35.3125 17.753906 35.417969 17.605469 35.476562 17.425781 L 35.691406 16.78125 C 35.753906 16.597656 35.859375 16.453125 36.011719 16.34375 C 36.167969 16.230469 36.335938 16.175781 36.527344 16.175781 L 39.289062 16.175781 C 39.476562 16.175781 39.648438 16.230469 39.804688 16.34375 C 39.957031 16.453125 40.0625 16.597656 40.125 16.78125 L 40.335938 17.425781 C 40.398438 17.605469 40.503906 17.753906 40.65625 17.863281 C 40.8125 17.976562 40.980469 18.03125 41.171875 18.03125 L 42.621094 18.03125 C 42.761719 18.03125 42.898438 17.996094 43.027344 17.929688 C 43.152344 17.863281 43.257812 17.773438 43.339844 17.65625 C 43.421875 17.539062 43.472656 17.410156 43.492188 17.265625 C 43.511719 17.125 43.496094 16.984375 43.445312 16.851562 L 39.957031 7.242188 C 39.894531 7.066406 39.785156 6.925781 39.636719 6.820312 C 39.484375 6.714844 39.316406 6.660156 39.128906 6.660156 L 36.71875 6.660156 C 36.53125 6.660156 36.363281 6.714844 36.214844 6.820312 C 36.0625 6.925781 35.953125 7.066406 35.890625 7.238281 L 32.386719 16.851562 C 32.339844 16.984375 32.324219 17.125 32.34375 17.265625 C 32.359375 17.40625 32.410156 17.539062 32.492188 17.65625 C 32.574219 17.773438 32.679688 17.863281 32.808594 17.929688 C 32.933594 17.996094 33.070312 18.03125 33.214844 18.03125 Z M 37.078125 12.601562 L 37.90625 10.082031 L 38.746094 12.597656 C 38.792969 12.734375 38.804688 12.871094 38.78125 13.007812 C 38.761719 13.148438 38.710938 13.277344 38.628906 13.390625 C 38.542969 13.503906 38.441406 13.59375 38.316406 13.660156 C 38.191406 13.722656 38.054688 13.757812 37.914062 13.757812 C 37.773438 13.757812 37.640625 13.726562 37.515625 13.660156 C 37.390625 13.597656 37.285156 13.507812 37.203125 13.394531 C 37.117188 13.28125 37.066406 13.152344 37.042969 13.011719 C 37.023438 12.875 37.035156 12.738281 37.078125 12.601562 Z M 37.078125 12.601562 " fill-opacity="1" fill-rule="nonzero"/><path fill="#000000" d="M 49.011719 18.03125 L 50.414062 18.03125 C 50.65625 18.03125 50.863281 17.945312 51.035156 17.773438 C 51.207031 17.601562 51.292969 17.394531 51.292969 17.152344 L 51.292969 13.835938 L 51.632812 13.835938 L 53.640625 17.566406 C 53.804688 17.875 54.0625 18.03125 54.414062 18.03125 L 55.894531 18.03125 C 56.234375 18.03125 56.488281 17.882812 56.65625 17.589844 C 56.828125 17.296875 56.828125 17.003906 56.65625 16.710938 L 55.347656 14.449219 C 55.226562 14.234375 55.199219 14.011719 55.265625 13.777344 C 55.335938 13.539062 55.476562 13.363281 55.691406 13.246094 C 56.101562 13.023438 56.445312 12.722656 56.71875 12.347656 C 57.15625 11.738281 57.371094 11.058594 57.355469 10.304688 C 57.367188 9.640625 57.203125 9.019531 56.871094 8.445312 C 56.527344 7.863281 56.046875 7.425781 55.4375 7.136719 C 54.699219 6.796875 53.925781 6.636719 53.113281 6.660156 L 49.011719 6.660156 C 48.769531 6.660156 48.5625 6.746094 48.390625 6.917969 C 48.21875 7.089844 48.132812 7.296875 48.132812 7.539062 L 48.132812 17.152344 C 48.132812 17.394531 48.21875 17.601562 48.390625 17.773438 C 48.5625 17.945312 48.769531 18.03125 49.011719 18.03125 Z M 51.292969 9.304688 L 52.855469 9.304688 C 53.21875 9.28125 53.539062 9.386719 53.816406 9.621094 C 54.054688 9.859375 54.164062 10.148438 54.148438 10.484375 C 54.171875 10.828125 54.0625 11.121094 53.824219 11.371094 C 53.542969 11.601562 53.222656 11.703125 52.855469 11.675781 L 51.292969 11.675781 Z M 51.292969 9.304688 " fill-opacity="1" fill-rule="nonzero"/><path fill="#000000" d="M 62.894531 18.03125 L 64.296875 18.03125 C 64.539062 18.03125 64.746094 17.945312 64.917969 17.773438 C 65.089844 17.601562 65.175781 17.394531 65.175781 17.152344 L 65.175781 15.789062 C 65.175781 15.597656 65.234375 15.425781 65.347656 15.269531 C 65.457031 15.117188 65.605469 15.011719 65.789062 14.953125 C 65.96875 14.894531 66.152344 14.894531 66.332031 14.953125 C 66.515625 15.015625 66.660156 15.121094 66.773438 15.277344 L 68.476562 17.664062 C 68.652344 17.90625 68.890625 18.03125 69.191406 18.03125 L 70.804688 18.03125 C 71.167969 18.03125 71.429688 17.867188 71.589844 17.542969 C 71.753906 17.21875 71.726562 16.914062 71.507812 16.625 L 68.574219 12.707031 C 68.457031 12.550781 68.398438 12.375 68.398438 12.175781 C 68.398438 11.980469 68.457031 11.804688 68.578125 11.648438 L 71.285156 8.070312 C 71.503906 7.78125 71.53125 7.476562 71.371094 7.148438 C 71.210938 6.824219 70.945312 6.660156 70.582031 6.660156 L 69.160156 6.660156 C 68.859375 6.660156 68.621094 6.78125 68.445312 7.027344 L 66.769531 9.351562 C 66.660156 9.507812 66.511719 9.613281 66.332031 9.675781 C 66.148438 9.734375 65.96875 9.734375 65.785156 9.675781 C 65.605469 9.617188 65.457031 9.511719 65.34375 9.355469 C 65.234375 9.203125 65.175781 9.03125 65.175781 8.839844 L 65.175781 7.539062 C 65.175781 7.296875 65.089844 7.089844 64.917969 6.917969 C 64.746094 6.746094 64.539062 6.660156 64.296875 6.660156 L 62.894531 6.660156 C 62.652344 6.660156 62.445312 6.746094 62.273438 6.917969 C 62.101562 7.089844 62.015625 7.296875 62.015625 7.539062 L 62.015625 17.152344 C 62.015625 17.394531 62.101562 17.601562 62.273438 17.773438 C 62.445312 17.945312 62.652344 18.03125 62.894531 18.03125 Z M 62.894531 18.03125 " fill-opacity="1" fill-rule="nonzero"/><path fill="#000000" d="M 77.828125 18.03125 L 83.34375 18.03125 C 83.585938 18.03125 83.792969 17.945312 83.964844 17.773438 C 84.136719 17.601562 84.222656 17.394531 84.222656 17.152344 L 84.222656 16.378906 C 84.222656 16.136719 84.136719 15.929688 83.964844 15.757812 C 83.792969 15.585938 83.585938 15.5 83.34375 15.5 L 80.988281 15.5 C 80.746094 15.5 80.539062 15.414062 80.367188 15.242188 C 80.195312 15.070312 80.109375 14.863281 80.109375 14.621094 L 80.109375 14.328125 C 80.109375 14.085938 80.195312 13.878906 80.367188 13.707031 C 80.539062 13.535156 80.746094 13.449219 80.988281 13.449219 L 82.859375 13.449219 C 83.101562 13.449219 83.308594 13.363281 83.480469 13.191406 C 83.652344 13.019531 83.738281 12.8125 83.738281 12.570312 L 83.738281 11.925781 C 83.738281 11.683594 83.652344 11.476562 83.480469 11.304688 C 83.308594 11.132812 83.101562 11.046875 82.859375 11.046875 L 80.109375 11.046875 L 80.109375 9.191406 L 83.34375 9.191406 C 83.585938 9.191406 83.792969 9.105469 83.964844 8.9375 C 84.136719 8.765625 84.222656 8.554688 84.222656 8.3125 L 84.222656 7.539062 C 84.222656 7.296875 84.136719 7.089844 83.964844 6.917969 C 83.792969 6.746094 83.585938 6.660156 83.34375 6.660156 L 77.828125 6.660156 C 77.585938 6.660156 77.378906 6.746094 77.207031 6.917969 C 77.035156 7.089844 76.949219 7.296875 76.949219 7.539062 L 76.949219 17.152344 C 76.949219 17.394531 77.035156 17.601562 77.207031 17.773438 C 77.378906 17.945312 77.585938 18.03125 77.828125 18.03125 Z M 77.828125 18.03125 " fill-opacity="1" fill-rule="nonzero"/><path fill="#000000" d="M 89.261719 9.175781 L 90.503906 9.175781 C 90.746094 9.175781 90.953125 9.261719 91.125 9.433594 C 91.296875 9.605469 91.382812 9.8125 91.382812 10.058594 L 91.382812 17.152344 C 91.382812 17.394531 91.46875 17.601562 91.640625 17.773438 C 91.8125 17.945312 92.019531 18.03125 92.261719 18.03125 L 93.664062 18.03125 C 93.90625 18.03125 94.113281 17.945312 94.285156 17.773438 C 94.457031 17.601562 94.542969 17.394531 94.542969 17.152344 L 94.542969 10.058594 C 94.542969 9.8125 94.628906 9.605469 94.800781 9.433594 C 94.972656 9.261719 95.179688 9.175781 95.421875 9.175781 L 96.695312 9.175781 C 96.9375 9.175781 97.144531 9.089844 97.316406 8.917969 C 97.488281 8.75 97.574219 8.539062 97.574219 8.296875 L 97.574219 7.539062 C 97.574219 7.296875 97.488281 7.089844 97.316406 6.917969 C 97.144531 6.746094 96.9375 6.660156 96.695312 6.660156 L 89.261719 6.660156 C 89.019531 6.660156 88.8125 6.746094 88.640625 6.917969 C 88.46875 7.089844 88.382812 7.296875 88.382812 7.539062 L 88.382812 8.296875 C 88.382812 8.539062 88.46875 8.746094 88.640625 8.917969 C 88.8125 9.089844 89.019531 9.175781 89.261719 9.175781 Z M 89.261719 9.175781 " fill-opacity="1" fill-rule="nonzero"/></svg>