<svg xmlns="http://www.w3.org/2000/svg" xmlns:xlink="http://www.w3.org/1999/xlink" width="150" zoomAndPan="magnify" viewBox="0 0 112.5 112.499997" height="150" preserveAspectRatio="xMidYMid meet" version="1.0"><defs><clipPath id="aa111dcbc6"><path d="M 13 0.722656 L 92 0.722656 L 92 12 L 13 12 Z M 13 0.722656 " clip-rule="nonzero"/></clipPath><clipPath id="48eb38de1f"><path d="M 27 63 L 78 63 L 78 111.230469 L 27 111.230469 Z M 27 63 " clip-rule="nonzero"/></clipPath></defs><path fill="#51ade5" d="M 6.574219 35.207031 L 0.0390625 43.855469 L 6.574219 43.855469 Z M 6.574219 35.207031 " fill-opacity="1" fill-rule="nonzero"/><path fill="#51ade5" d="M 71.277344 61.726562 C 74.007812 61.390625 76.519531 63.234375 76.992188 65.933594 L 77.421875 68.375 L 82.734375 68.375 L 82.734375 57.925781 L 22.796875 57.925781 L 22.796875 68.375 L 28.109375 68.375 L 28.535156 65.933594 C 29.007812 63.234375 31.523438 61.390625 34.253906 61.726562 C 35.625 61.898438 36.847656 62.589844 37.691406 63.679688 C 38.53125 64.757812 38.898438 66.09375 38.726562 67.449219 L 38.613281 68.375 L 66.917969 68.375 L 66.800781 67.449219 C 66.628906 66.09375 67 64.757812 67.835938 63.679688 C 68.683594 62.589844 69.90625 61.898438 71.277344 61.726562 Z M 71.277344 61.726562 " fill-opacity="1" fill-rule="nonzero"/><path fill="#51ade5" d="M 98.046875 31.597656 L 99.199219 31.597656 L 99.199219 12.980469 L 6.328125 12.980469 L 6.328125 31.597656 Z M 84.667969 18.203125 C 86.941406 18.203125 88.785156 20.03125 88.785156 22.289062 C 88.785156 24.546875 86.941406 26.375 84.667969 26.375 C 82.394531 26.375 80.550781 24.546875 80.550781 22.289062 C 80.550781 20.03125 82.394531 18.203125 84.667969 18.203125 Z M 20.859375 18.203125 C 23.132812 18.203125 24.976562 20.03125 24.976562 22.289062 C 24.976562 24.546875 23.132812 26.375 20.859375 26.375 C 18.585938 26.375 16.742188 24.546875 16.742188 22.289062 C 16.742188 20.03125 18.585938 18.203125 20.859375 18.203125 Z M 20.859375 18.203125 " fill-opacity="1" fill-rule="nonzero"/><path fill="#51ade5" d="M 45.664062 70.1875 C 45.148438 71.628906 44.839844 73.347656 44.722656 75.417969 C 44.609375 77.421875 44.773438 79.359375 45.210938 81.179688 C 45.492188 82.351562 45.835938 83.289062 46.203125 83.890625 C 47.191406 85.507812 49.878906 87.78125 52.765625 87.78125 C 55.652344 87.78125 58.339844 85.507812 59.324219 83.890625 C 59.695312 83.289062 60.035156 82.351562 60.316406 81.179688 C 60.753906 79.359375 60.917969 77.421875 60.804688 75.417969 C 60.6875 73.347656 60.378906 71.628906 59.863281 70.183594 L 45.664062 70.183594 Z M 45.664062 70.1875 " fill-opacity="1" fill-rule="nonzero"/><g clip-path="url(#aa111dcbc6)"><path fill="#51ade5" d="M 13.53125 0.722656 L 91.996094 0.722656 L 91.996094 11.167969 L 13.53125 11.167969 Z M 13.53125 0.722656 " fill-opacity="1" fill-rule="nonzero"/></g><path fill="#51ade5" d="M 95.246094 33.410156 L 68.457031 33.410156 L 86.578125 39.667969 Z M 95.246094 33.410156 " fill-opacity="1" fill-rule="nonzero"/><path fill="#51ade5" d="M 8.386719 33.410156 L 8.386719 43.855469 L 97.140625 43.855469 L 97.140625 34.277344 L 87.257812 41.410156 C 87.101562 41.523438 86.914062 41.582031 86.726562 41.582031 C 86.628906 41.582031 86.527344 41.566406 86.429688 41.535156 L 62.902344 33.410156 Z M 8.386719 33.410156 " fill-opacity="1" fill-rule="nonzero"/><path fill="#51ade5" d="M 94.835938 47.464844 L 94.835938 56.113281 L 101.375 56.113281 Z M 94.835938 47.464844 " fill-opacity="1" fill-rule="nonzero"/><g clip-path="url(#48eb38de1f)"><path fill="#51ade5" d="M 75.207031 66.246094 C 74.902344 64.5 73.273438 63.304688 71.5 63.527344 C 70.609375 63.636719 69.816406 64.085938 69.265625 64.792969 C 68.726562 65.488281 68.488281 66.351562 68.597656 67.222656 L 69.664062 75.675781 C 69.988281 78.242188 68.324219 80.652344 65.796875 81.28125 L 61.914062 82.246094 C 61.617188 83.316406 61.269531 84.1875 60.871094 84.835938 C 59.75 86.675781 56.554688 89.59375 52.765625 89.59375 C 48.972656 89.59375 45.78125 86.675781 44.65625 84.835938 C 44.261719 84.1875 43.914062 83.316406 43.617188 82.246094 L 39.730469 81.28125 C 37.203125 80.652344 35.542969 78.242188 35.867188 75.675781 L 36.929688 67.222656 C 37.039062 66.351562 36.800781 65.488281 36.261719 64.792969 C 35.714844 64.085938 34.921875 63.636719 34.03125 63.527344 C 32.257812 63.304688 30.628906 64.5 30.320312 66.246094 L 27.96875 79.683594 C 27.398438 82.929688 29.011719 86.105469 31.984375 87.582031 L 38.605469 90.863281 C 40.261719 91.6875 41.351562 93.339844 41.449219 95.179688 L 42.304688 111.277344 L 63.226562 111.277344 L 64.078125 95.179688 C 64.175781 93.339844 65.265625 91.6875 66.925781 90.863281 L 73.542969 87.578125 C 76.515625 86.105469 78.132812 82.929688 77.5625 79.683594 Z M 75.207031 66.246094 " fill-opacity="1" fill-rule="nonzero"/></g><path fill="#51ade5" d="M 93.023438 45.667969 L 12.503906 45.667969 L 12.503906 56.113281 L 93.023438 56.113281 Z M 93.023438 45.667969 " fill-opacity="1" fill-rule="nonzero"/><path fill="#51ade5" d="M 70.320312 94.933594 C 69.816406 94.902344 69.390625 95.28125 69.355469 95.78125 L 69.023438 100.808594 C 68.992188 101.308594 69.371094 101.738281 69.871094 101.773438 C 69.890625 101.773438 69.910156 101.773438 69.929688 101.773438 C 70.402344 101.773438 70.800781 101.40625 70.832031 100.929688 L 71.164062 95.898438 C 71.199219 95.398438 70.820312 94.96875 70.320312 94.933594 Z M 70.320312 94.933594 " fill-opacity="1" fill-rule="nonzero"/><path fill="#51ade5" d="M 69.730469 104.070312 C 69.230469 104.035156 68.800781 104.414062 68.765625 104.914062 L 68.4375 109.945312 C 68.402344 110.445312 68.78125 110.875 69.28125 110.910156 C 69.300781 110.910156 69.320312 110.910156 69.339844 110.910156 C 69.816406 110.910156 70.214844 110.542969 70.246094 110.0625 L 70.574219 105.035156 C 70.609375 104.535156 70.230469 104.101562 69.730469 104.070312 Z M 69.730469 104.070312 " fill-opacity="1" fill-rule="nonzero"/><path fill="#51ade5" d="M 82.566406 85.511719 C 82.144531 85.246094 81.585938 85.375 81.316406 85.796875 L 78.632812 90.078125 C 78.367188 90.5 78.496094 91.058594 78.917969 91.324219 C 79.070312 91.417969 79.234375 91.464844 79.398438 91.464844 C 79.703125 91.464844 79.996094 91.3125 80.167969 91.039062 L 82.851562 86.761719 C 83.121094 86.335938 82.992188 85.777344 82.566406 85.511719 Z M 82.566406 85.511719 " fill-opacity="1" fill-rule="nonzero"/><path fill="#51ade5" d="M 35.597656 101.773438 C 35.617188 101.773438 35.640625 101.773438 35.660156 101.773438 C 36.160156 101.738281 36.539062 101.308594 36.503906 100.808594 L 36.171875 95.78125 C 36.140625 95.28125 35.710938 94.902344 35.210938 94.933594 C 34.710938 94.96875 34.332031 95.398438 34.363281 95.898438 L 34.695312 100.929688 C 34.726562 101.40625 35.125 101.773438 35.597656 101.773438 Z M 35.597656 101.773438 " fill-opacity="1" fill-rule="nonzero"/><path fill="#51ade5" d="M 35.796875 104.070312 C 35.296875 104.101562 34.921875 104.535156 34.953125 105.035156 L 35.285156 110.0625 C 35.316406 110.542969 35.714844 110.910156 36.1875 110.910156 C 36.207031 110.910156 36.226562 110.910156 36.25 110.90625 C 36.746094 110.875 37.125 110.445312 37.09375 109.945312 L 36.761719 104.914062 C 36.730469 104.414062 36.296875 104.035156 35.796875 104.070312 Z M 35.796875 104.070312 " fill-opacity="1" fill-rule="nonzero"/><path fill="#51ade5" d="M 24.210938 85.796875 C 23.945312 85.375 23.386719 85.246094 22.960938 85.511719 C 22.539062 85.777344 22.410156 86.335938 22.675781 86.761719 L 25.359375 91.039062 C 25.53125 91.3125 25.828125 91.464844 26.128906 91.464844 C 26.292969 91.464844 26.460938 91.417969 26.609375 91.324219 C 27.035156 91.058594 27.160156 90.5 26.894531 90.078125 Z M 24.210938 85.796875 " fill-opacity="1" fill-rule="nonzero"/><path fill="#51ade5" d="M 101.742188 65.496094 C 100.230469 64.5 98.605469 63.695312 96.894531 63.101562 L 92.96875 68.949219 C 94.65625 69.574219 96.269531 70.390625 97.769531 71.382812 C 99.277344 72.382812 100.660156 73.546875 101.890625 74.859375 L 105.820312 69.007812 C 104.617188 67.671875 103.246094 66.492188 101.742188 65.496094 Z M 101.742188 65.496094 " fill-opacity="1" fill-rule="nonzero"/><path fill="#51ade5" d="M 15.222656 65.488281 L 8.25 60.078125 C 6.476562 61.414062 4.882812 62.972656 3.507812 64.71875 C 2.132812 66.460938 0.996094 68.367188 0.117188 70.394531 L 7.09375 75.8125 C 8.007812 73.796875 9.160156 71.902344 10.535156 70.160156 C 11.90625 68.417969 13.480469 66.851562 15.222656 65.488281 Z M 15.222656 65.488281 " fill-opacity="1" fill-rule="nonzero"/><path fill="#51ade5" d="M 87.738281 79.773438 C 91.679688 85.121094 95.632812 87.148438 97.5 86.289062 C 98.664062 85.753906 99.480469 83.964844 99.117188 82.746094 C 98.539062 80.789062 94.394531 79.183594 87.738281 79.773438 Z M 87.738281 79.773438 " fill-opacity="1" fill-rule="nonzero"/><path fill="#51ade5" d="M 10.15625 81.414062 C 9.867188 82.300781 10.449219 83.671875 11.289062 84.089844 C 12.679688 84.773438 15.710938 83.320312 18.871094 79.367188 C 18.035156 79.28125 17.242188 79.242188 16.503906 79.242188 C 12.917969 79.242188 10.558594 80.1875 10.15625 81.414062 Z M 10.15625 81.414062 " fill-opacity="1" fill-rule="nonzero"/></svg>