<svg width="137" height="104" viewBox="0 0 137 104" fill="none" xmlns="http://www.w3.org/2000/svg">
<g filter="url(#filter0_d_1909_1299)">
<path d="M30.165 65.895C30.4642 66.7042 31.1765 67.3196 32.0598 67.4621V64.7354C31.5327 65.2881 30.8802 65.6813 30.165 65.895Z" fill="black"/>
<path d="M12.7442 38.3848C11.8581 38.5842 10.7099 39.0629 9.5417 40.1627C5.61262 43.8638 3.99997 52.2861 4.75501 65.1931C4.82909 66.4923 5.90325 67.4952 7.18539 67.4952C7.23383 67.4952 7.28227 67.4952 7.3307 67.4924C8.67554 67.4126 9.70125 66.2558 9.62432 64.9081C9.00035 54.2435 10.1942 48.5251 11.5475 45.6645C12.1088 43.2683 12.5077 40.3849 12.7442 38.3848Z" fill="black"/>
<mask id="mask0_1909_1299" style="mask-type:luminance" maskUnits="userSpaceOnUse" x="11" y="62" width="9" height="34">
<path d="M11.0215 62.9814H19.7743V95.2118H11.0215V62.9814Z" fill="white"/>
</mask>
<g mask="url(#mask0_1909_1299)">
<path d="M11.5713 63.1631V91.4473C11.5713 93.5358 13.2609 95.2253 15.3408 95.2253C17.4236 95.2253 19.1103 93.5358 19.1103 91.4473V63.901C15.2781 63.8497 12.7224 63.411 11.5713 63.1631Z" fill="black"/>
</g>
<mask id="mask1_1909_1299" style="mask-type:luminance" maskUnits="userSpaceOnUse" x="20" y="62" width="9" height="34">
<path d="M20.5059 62.9814H28.5293V95.2118H20.5059V62.9814Z" fill="white"/>
</mask>
<g mask="url(#mask1_1909_1299)">
<path d="M24.9702 63.6445C23.765 63.7756 22.2777 63.8782 20.5254 63.901V91.4472C20.5254 93.5357 22.215 95.2253 24.2949 95.2253C26.3777 95.2253 28.0644 93.5357 28.0644 91.4472V66.0094C26.711 65.7473 25.5714 64.8554 24.9702 63.6445Z" fill="black"/>
</g>
<path d="M12.96 29.6282C12.96 33.4262 16.0314 36.5034 19.818 36.5034C23.6075 36.5034 26.6789 33.4262 26.6789 29.6282C26.6789 29.3148 26.6505 29.0071 26.6106 28.7051H13.0283C12.9856 29.0071 12.96 29.3148 12.96 29.6282Z" fill="black"/>
<path d="M12.7504 28.0319H27.099C27.609 28.0319 28.0193 27.6188 28.0193 27.1088C28.0193 26.6016 27.609 26.1885 27.099 26.1885H26.9737C26.9138 23.8379 25.7086 21.775 23.8994 20.5356V21.0998C23.8994 21.5015 23.5746 21.8292 23.1728 21.8292C22.7711 21.8292 22.4434 21.5015 22.4434 21.0998V19.772C21.8793 19.5555 21.2781 19.4073 20.6541 19.3418V21.0998C20.6541 21.5015 20.3264 21.8292 19.9247 21.8292C19.523 21.8292 19.1982 21.5015 19.1982 21.0998V19.3418C18.5713 19.4073 17.973 19.5555 17.406 19.772V21.0998C17.406 21.5015 17.0812 21.8292 16.6766 21.8292C16.2749 21.8292 15.95 21.5015 15.95 21.0998V20.5356C14.1408 21.7779 12.9384 23.8379 12.8786 26.1885H12.7504C12.2432 26.1885 11.8301 26.6016 11.8301 27.1088C11.8301 27.6188 12.2432 28.0319 12.7504 28.0319Z" fill="black"/>
<path d="M20.2779 61.0483C21.6369 61.0369 23.1128 60.9799 24.4662 60.9058C24.3978 59.5924 24.3551 58.3216 24.3323 57.0964C23.016 57.1677 21.58 57.2247 20.2779 57.2361V55.0393C21.5857 55.0308 23.0046 54.9738 24.3181 54.9054C24.3238 53.5777 24.3579 52.3012 24.4206 51.0817C23.0786 51.1558 21.6084 51.2157 20.2779 51.2299V44.5969L22.543 38.2432H17.0981L19.3633 44.5969V51.2299C15.6707 51.1957 10.8868 50.7854 10.8384 50.7797L10.5107 54.5777C10.7187 54.5948 15.5197 55.008 19.3633 55.0422V57.2389C15.6707 57.2047 10.8868 56.7944 10.8384 56.7887L10.5107 60.5867C10.7216 60.6067 15.5225 61.0198 19.3633 61.0512V64.6725H20.2779V61.0483Z" fill="black"/>
<path d="M33.7461 59.6084V90.8871C33.7461 93.195 35.6123 95.0641 37.9145 95.0641C40.2167 95.0641 42.0829 93.195 42.0829 90.8871V60.4261C37.8461 60.372 35.0197 59.8848 33.7461 59.6084Z" fill="black"/>
<path d="M54.1436 61.8779C54.2176 63.0091 54.9955 63.9664 56.0639 64.2827V60.6328C55.5226 61.1998 54.8673 61.6215 54.1436 61.8779Z" fill="black"/>
<path d="M48.5186 60.1455C47.1908 60.288 45.5639 60.3991 43.6436 60.4247V90.8857C43.6436 93.1936 45.5126 95.0627 47.812 95.0627C50.1141 95.0627 51.9832 93.1936 51.9832 90.8857V62.1286C50.57 61.9833 49.3249 61.2368 48.5186 60.1455Z" fill="black"/>
<path d="M26.2047 61.8522C26.2874 63.291 27.4783 64.3994 28.8944 64.3994C28.9485 64.3994 28.9998 64.3965 29.054 64.3937C30.5412 64.3053 31.6781 63.026 31.5898 61.5388C30.9002 49.743 32.2223 43.4206 33.7153 40.2579C34.3364 37.6082 34.778 34.4199 35.0402 32.2061C34.06 32.4283 32.7893 32.9554 31.4986 34.172C27.1535 38.2635 25.3699 47.5776 26.2047 61.8522Z" fill="black"/>
<path d="M35.2783 22.5249C35.2783 26.7247 38.6746 30.1295 42.8629 30.1295C47.0541 30.1295 50.4504 26.7247 50.4504 22.5249C50.4504 22.1773 50.4162 21.8382 50.3735 21.5049H35.3524C35.3097 21.8382 35.2783 22.1773 35.2783 22.5249Z" fill="black"/>
<path d="M35.0445 20.7608H50.9118C51.476 20.7608 51.9318 20.3049 51.9318 19.7408C51.9318 19.1766 51.476 18.7208 50.9118 18.7208H50.7722C50.7067 16.1223 49.3761 13.8429 47.3759 12.4696V13.0936C47.3759 13.538 47.0141 13.8999 46.5696 13.8999C46.1251 13.8999 45.7633 13.538 45.7633 13.0936V11.6262C45.1393 11.384 44.4754 11.2216 43.7831 11.1504V13.0936C43.7831 13.538 43.4241 13.8999 42.9796 13.8999C42.5351 13.8999 42.1733 13.538 42.1733 13.0936V11.1504C41.4837 11.2216 40.8199 11.3869 40.1931 11.6262V13.0936C40.1931 13.538 39.8341 13.8999 39.3896 13.8999C38.9451 13.8999 38.5832 13.538 38.5832 13.0936V12.4724C36.5831 13.8429 35.2525 16.1251 35.187 18.7208H35.0445C34.4832 18.7208 34.0273 19.1766 34.0273 19.7408C34.0273 20.3049 34.4832 20.7608 35.0445 20.7608Z" fill="black"/>
<path d="M43.3702 57.0727C44.7151 57.0613 46.1653 57.0072 47.5301 56.9388C47.4589 55.631 47.4047 54.3602 47.3705 53.1294C46.0513 53.1949 44.6524 53.249 43.3702 53.2604V50.4283C44.6495 50.4169 46.0229 50.3685 47.3278 50.303C47.3249 48.9838 47.3449 47.7102 47.3905 46.4822C46.0656 46.5505 44.6581 46.6018 43.3702 46.6161V39.0799L45.8747 32.0537H39.8514L42.3588 39.0799V46.6161C38.2673 46.579 32.9677 46.1232 32.9136 46.1175L32.5859 49.9155C32.8167 49.9354 38.1163 50.3913 42.3588 50.4283V53.2604C38.2673 53.2234 32.9677 52.7675 32.9136 52.7618L32.5859 56.5598C32.8167 56.5798 38.1163 57.0357 42.3588 57.0727V61.2781H43.3702V57.0727Z" fill="black"/>
<path d="M127.568 40.1627C126.4 39.0629 125.251 38.5842 124.365 38.3848C124.602 40.3849 125.001 43.2683 125.562 45.6674C126.915 48.5251 128.109 54.2435 127.485 64.9081C127.408 66.2558 128.434 67.4126 129.779 67.4924C129.827 67.4952 129.876 67.4952 129.924 67.4952C131.203 67.4952 132.28 66.4923 132.354 65.1931C133.109 52.2861 131.497 43.8638 127.568 40.1627Z" fill="black"/>
<mask id="mask2_1909_1299" style="mask-type:luminance" maskUnits="userSpaceOnUse" x="117" y="62" width="9" height="34">
<path d="M117.517 62.9814H125.54V95.2118H117.517V62.9814Z" fill="white"/>
</mask>
<g mask="url(#mask2_1909_1299)">
<path d="M117.995 63.9001V91.4463C117.995 93.5348 119.685 95.2244 121.767 95.2244C123.847 95.2244 125.537 93.5348 125.537 91.4463V63.1621C124.383 63.41 121.83 63.8488 117.995 63.9001Z" fill="black"/>
</g>
<mask id="mask3_1909_1299" style="mask-type:luminance" maskUnits="userSpaceOnUse" x="108" y="62" width="9" height="34">
<path d="M108.762 62.9814H116.785V95.2118H108.762V62.9814Z" fill="white"/>
</mask>
<g mask="url(#mask3_1909_1299)">
<path d="M112.139 63.6445C111.538 64.8554 110.398 65.7473 109.042 66.0094V91.4472C109.042 93.5357 110.732 95.2253 112.812 95.2253C114.894 95.2253 116.581 93.5357 116.581 91.4472V63.901C114.829 63.8782 113.344 63.7756 112.139 63.6445Z" fill="black"/>
</g>
<path d="M105.05 64.7354V67.4621C105.933 67.3196 106.645 66.7042 106.945 65.895C106.229 65.6813 105.577 65.2881 105.05 64.7354Z" fill="black"/>
<path d="M110.429 29.6282C110.429 33.4262 113.5 36.5034 117.29 36.5034C121.076 36.5034 124.148 33.4262 124.148 29.6282C124.148 29.3148 124.119 29.0071 124.079 28.7051H110.497C110.457 29.0071 110.429 29.3148 110.429 29.6282Z" fill="black"/>
<path d="M110.008 28.0319H124.36C124.867 28.0319 125.277 27.6188 125.277 27.1088C125.277 26.6016 124.867 26.1885 124.36 26.1885H124.231C124.172 23.8379 122.966 21.7779 121.16 20.5356V21.0998C121.16 21.5015 120.832 21.8292 120.431 21.8292C120.029 21.8292 119.704 21.5015 119.704 21.0998V19.772C119.137 19.5555 118.536 19.4073 117.912 19.3418V21.0998C117.912 21.5015 117.587 21.8292 117.183 21.8292C116.781 21.8292 116.456 21.5015 116.456 21.0998V19.3418C115.832 19.4073 115.231 19.5526 114.664 19.772V21.0969C114.664 21.5015 114.339 21.8292 113.937 21.8292C113.536 21.8292 113.208 21.5015 113.208 21.0969V20.5356C111.399 21.775 110.196 23.8379 110.136 26.1856H110.008C109.501 26.1856 109.088 26.5988 109.088 27.1088C109.091 27.6188 109.501 28.0319 110.008 28.0319Z" fill="black"/>
<path d="M126.272 50.7797C126.224 50.7826 121.44 51.1957 117.747 51.2271V44.5969L120.013 38.2432H114.568L116.833 44.5969V51.2271C115.502 51.2157 114.032 51.1558 112.69 51.0817C112.753 52.3012 112.787 53.5748 112.793 54.9054C114.106 54.9738 115.525 55.0279 116.833 55.0393V57.2361C115.531 57.2247 114.095 57.1677 112.778 57.0936C112.756 58.3216 112.71 59.5924 112.645 60.9058C113.998 60.9799 115.474 61.0369 116.833 61.0483V64.6697H117.747V61.0483C121.591 61.017 126.392 60.6038 126.603 60.5839L126.272 56.7887C126.224 56.7916 121.443 57.2019 117.747 57.2361V55.0393C121.591 55.008 126.392 54.5948 126.603 54.5749L126.272 50.7797Z" fill="black"/>
<path d="M80.4424 60.6328V64.3938C81.7559 64.3112 82.7901 63.3025 82.9525 62.0375C81.9952 61.8295 81.129 61.348 80.4424 60.6328Z" fill="black"/>
<path d="M105.52 61.5359C105.431 63.0261 106.568 64.3054 108.056 64.3937C108.107 64.3965 108.161 64.3965 108.215 64.3965C109.631 64.3965 110.819 63.2882 110.905 61.8522C111.737 47.5776 109.956 38.2635 105.608 34.172C104.317 32.9554 103.047 32.4283 102.069 32.2061C102.329 34.4199 102.77 37.6082 103.391 40.2579C104.887 43.4206 106.209 49.743 105.52 61.5359Z" fill="black"/>
<path d="M88.0332 60.0801C87.3436 61.0488 86.3151 61.7497 85.127 62.0261V90.8858C85.127 93.1937 86.9932 95.0628 89.2954 95.0628C91.5975 95.0628 93.4638 93.1937 93.4638 90.8858V60.4248C91.2699 60.3963 89.4521 60.2539 88.0332 60.0801Z" fill="black"/>
<path d="M103.363 59.6084C102.09 59.8848 99.2632 60.372 95.0264 60.4261V90.8871C95.0264 93.195 96.8926 95.0641 99.1948 95.0641C101.497 95.0641 103.363 93.195 103.363 90.8871V59.6084Z" fill="black"/>
<path d="M86.6592 22.5249C86.6592 26.7247 90.0554 30.1295 94.2466 30.1295C98.435 30.1295 101.831 26.7247 101.831 22.5249C101.831 22.1773 101.8 21.8382 101.754 21.5049H86.7361C86.6905 21.8382 86.6592 22.1773 86.6592 22.5249Z" fill="black"/>
<path d="M86.1939 20.7608H102.064C102.625 20.7608 103.078 20.3049 103.078 19.7408C103.078 19.1766 102.625 18.7208 102.064 18.7208H101.922C101.856 16.1223 100.525 13.8429 98.5253 12.4724V13.0936C98.5253 13.538 98.1635 13.8999 97.719 13.8999C97.2745 13.8999 96.9127 13.538 96.9127 13.0936V11.6262C96.2887 11.384 95.6248 11.2216 94.9325 11.1504V13.0936C94.9325 13.538 94.5735 13.8999 94.129 13.8999C93.6845 13.8999 93.3227 13.538 93.3227 13.0936V11.1504C92.6332 11.2216 91.9693 11.384 91.3425 11.6262V13.0936C91.3425 13.538 90.9835 13.8999 90.539 13.8999C90.0945 13.8999 89.7327 13.538 89.7327 13.0936V12.4696C87.7325 13.8429 86.4019 16.1223 86.3335 18.7208H86.1939C85.6326 18.7208 85.1768 19.1766 85.1768 19.7408C85.1768 20.3049 85.6326 20.7608 86.1939 20.7608Z" fill="black"/>
<path d="M94.7501 57.0727C98.9926 57.0357 104.292 56.5798 104.523 56.5598L104.195 52.7618C104.141 52.7675 98.8445 53.2234 94.7501 53.2604V50.4255C98.9926 50.3913 104.292 49.9354 104.526 49.9155L104.195 46.1175C104.141 46.1232 98.8445 46.579 94.7501 46.6132V39.0799L97.2574 32.0537H91.2342L93.7415 39.0799V46.6132C92.2542 46.6018 90.6131 46.5334 89.1172 46.4508C89.1628 47.6788 89.1828 48.9496 89.1799 50.2716C90.6558 50.3514 92.2628 50.4141 93.7415 50.4255V53.2604C92.2628 53.2462 90.6273 53.1778 89.1372 53.0952C89.103 54.3289 89.0517 55.5997 88.9805 56.9074C90.5105 56.9901 92.1944 57.0585 93.7415 57.0698V61.2781H94.7501V57.0727Z" fill="black"/>
<path d="M80.975 57.0225C80.8752 58.7064 82.1574 60.1481 83.8356 60.2479C83.8954 60.2507 83.9552 60.2507 84.0151 60.2507C85.6135 60.2507 86.9555 58.9999 87.0495 57.3815C87.9897 41.2749 85.981 30.7698 81.0775 26.1513C79.6187 24.7779 78.1856 24.1825 77.0801 23.9346C77.3764 26.4305 77.8722 30.0233 78.5731 33.015C80.2598 36.5823 81.7528 43.7138 80.975 57.0225Z" fill="black"/>
<path d="M57.9678 54.8486V90.1334C57.9678 92.7375 60.0733 94.846 62.669 94.846C65.2675 94.846 67.373 92.7375 67.373 90.1334V55.7718C62.5978 55.7091 59.4095 55.1592 57.9678 54.8486Z" fill="black"/>
<path d="M49.4573 57.3787C49.5542 58.9999 50.8933 60.2507 52.4946 60.2507C52.5544 60.2507 52.6142 60.2507 52.6741 60.245C54.3523 60.1481 55.6316 58.7036 55.5347 57.0225C54.7568 43.7167 56.247 36.5851 57.9337 33.0179C58.6346 30.0262 59.1332 26.4305 59.4267 23.9346C58.3241 24.1825 56.8909 24.7779 55.4321 26.1513C50.5286 30.7698 48.5199 41.2749 49.4573 57.3787Z" fill="black"/>
<path d="M78.541 54.8486C77.0993 55.1592 73.9082 55.7091 69.1357 55.7718V90.1334C69.1357 92.7375 71.2413 94.846 73.837 94.846C76.4354 94.846 78.541 92.7375 78.541 90.1334V54.8486Z" fill="black"/>
<path d="M59.6934 13.0153C59.6934 17.7507 63.5256 21.5914 68.2524 21.5914C72.9793 21.5914 76.8115 17.7507 76.8115 13.0153C76.8115 12.6221 76.783 12.2374 76.7317 11.8613H59.7731C59.7219 12.2403 59.6934 12.6221 59.6934 13.0153Z" fill="black"/>
<mask id="mask4_1909_1299" style="mask-type:luminance" maskUnits="userSpaceOnUse" x="57" y="0" width="22" height="12">
<path d="M57.7051 0.180664H78.8577V11.1929H57.7051V0.180664Z" fill="white"/>
</mask>
<g mask="url(#mask4_1909_1299)">
<path d="M59.4353 11.0219H77.3341C77.9694 11.0219 78.4823 10.5062 78.4823 9.87086C78.4823 9.23548 77.9694 8.71977 77.3341 8.71977H77.1773C77.1033 5.79077 75.5989 3.21793 73.3423 1.66796V2.37171C73.3423 2.87318 72.9377 3.28061 72.4362 3.28061C71.9348 3.28061 71.5273 2.87318 71.5273 2.37171V0.716317C70.8207 0.445641 70.0714 0.260442 69.2936 0.180664V2.37171C69.2936 2.87318 68.8861 3.28061 68.3847 3.28061C67.8832 3.28061 67.4758 2.87318 67.4758 2.37171V0.180664C66.6951 0.260442 65.9486 0.445641 65.242 0.716317V2.37171C65.242 2.87318 64.8345 3.28061 64.3331 3.28061C63.8316 3.28061 63.4242 2.87318 63.4242 2.37171V1.6708C61.1676 3.21793 59.6661 5.79077 59.592 8.71977H59.4324C58.7999 8.71977 58.2842 9.23548 58.2842 9.87086C58.287 10.5062 58.7999 11.0219 59.4353 11.0219Z" fill="black"/>
</g>
<path d="M68.824 51.742C73.5992 51.7021 79.5684 51.1893 79.8305 51.1665L79.5 47.3685C79.4373 47.3742 73.4511 47.8899 68.824 47.9298V44.2457C73.5992 44.2058 79.5684 43.693 79.8305 43.6702L79.5 39.8722C79.4373 39.8779 73.4511 40.3936 68.824 40.4335V31.6892L71.6504 23.7627H64.8578L67.6843 31.6892V40.4335C63.0571 40.3936 57.0709 39.8779 57.0082 39.8722L56.6777 43.6702C56.9399 43.693 62.909 44.2058 67.6843 44.2457V47.9298C63.0571 47.8899 57.0709 47.3742 57.0082 47.3685L56.6777 51.1665C56.9399 51.1893 62.909 51.7021 67.6843 51.742V56.731H68.824V51.742Z" fill="black"/>
</g>
<defs>
<filter id="filter0_d_1909_1299" x="-1" y="0.180664" width="139.292" height="106.518" filterUnits="userSpaceOnUse" color-interpolation-filters="sRGB">
<feFlood flood-opacity="0" result="BackgroundImageFix"/>
<feColorMatrix in="SourceAlpha" type="matrix" values="0 0 0 0 0 0 0 0 0 0 0 0 0 0 0 0 0 0 127 0" result="hardAlpha"/>
<feOffset dy="4"/>
<feGaussianBlur stdDeviation="2"/>
<feComposite in2="hardAlpha" operator="out"/>
<feColorMatrix type="matrix" values="0 0 0 0 0 0 0 0 0 0 0 0 0 0 0 0 0 0 0.25 0"/>
<feBlend mode="normal" in2="BackgroundImageFix" result="effect1_dropShadow_1909_1299"/>
<feBlend mode="normal" in="SourceGraphic" in2="effect1_dropShadow_1909_1299" result="shape"/>
</filter>
</defs>
</svg>
