<svg width="106" height="104" viewBox="0 0 106 104" fill="none" xmlns="http://www.w3.org/2000/svg">
<g filter="url(#filter0_d_1909_1546)">
<path d="M92.5337 59.5755C93.2377 64.2033 93.7694 69.0224 93.0399 73.597C85.9685 73.563 76.2897 72.825 69.3289 70.8791C69.6437 66.1428 69.6224 59.1225 68.5931 54.4883C67.5637 49.8542 64.9925 45.3412 60.8198 43.0763C55.5987 40.2434 49.0696 41.4727 43.6507 43.9057C42.1939 44.5586 40.7626 45.2987 39.5121 46.2919C37.7979 47.6487 36.473 49.4373 35.3245 51.3003C31.2774 57.8741 28.9124 66.2343 31.7899 73.3971C26.7219 73.8331 20.7096 74.5477 13.6169 75.1347C13.0661 73.6523 12.7109 72.1168 12.594 70.5409C12.2835 66.3746 12.4664 62.1786 12.6365 58.0102C12.8024 54.0141 12.9789 50.0052 13.6254 46.0579C15.1205 36.9534 19.1656 28.2848 25.1843 21.2921C26.6326 19.6077 28.2085 18.0063 30.0524 16.7621C31.9345 15.4904 34.0591 14.6184 36.2114 13.8825C46.1836 10.4776 57.5234 10.0055 67.0299 14.5546C75.1349 18.4338 81.3003 25.6604 85.2688 33.725C89.2373 41.7875 91.1833 50.69 92.5337 59.5755Z" fill="#FABADB"/>
<mask id="mask0_1909_1546" style="mask-type:luminance" maskUnits="userSpaceOnUse" x="8" y="22" width="93" height="77">
<path d="M8.21094 22.0371H100.322V98.9165H8.21094V22.0371Z" fill="white"/>
</mask>
<g mask="url(#mask0_1909_1546)">
<path d="M99.898 90.289C99.0388 90.1337 98.1604 90.1231 97.2863 90.1146C96.8206 90.1103 96.3527 90.1039 95.8869 90.0997C95.5658 90.0976 95.1001 90.0082 94.7981 90.1486C94.3599 90.3528 94.4748 92.0712 94.4918 92.0712C95.1128 92.1562 95.7338 92.2243 96.3591 92.2775C96.3314 93.2834 95.5084 94.3064 94.9172 94.1809C94.1515 94.0171 93.6326 93.2962 93.3264 92.5731C92.5373 90.7164 92.6479 88.6152 92.8223 86.6055C92.9414 85.2231 93.086 83.8322 93.4901 82.5051C93.6177 82.0819 93.7879 81.6417 94.1388 81.3737C94.4897 81.1057 95.0703 81.0951 95.3212 81.4588C95.8189 81.1631 96.3059 80.6336 96.6483 80.1657C96.5441 79.3873 95.7891 78.794 95.0065 78.7344C94.2238 78.6749 93.454 79.0683 92.9116 79.6361C92.3693 80.2061 92.029 80.9356 91.7589 81.6736C90.8338 84.2129 90.6828 86.9628 90.6935 89.6658C90.6977 90.5995 90.7211 91.5416 90.9316 92.4497C91.1443 93.36 91.559 94.2447 92.246 94.8785C92.682 95.2804 93.2094 95.5697 93.7496 95.8206C94.3855 96.1184 95.1043 96.3757 95.7827 96.1864C96.3442 96.0312 97.4671 95.257 98.0562 93.713C98.1073 94.6828 98.137 95.6526 98.1413 96.6224C98.8452 96.7436 99.5534 96.8372 100.264 96.9053C100.519 94.7083 99.8299 92.5008 99.898 90.289ZM89.4514 91.8181C89.4812 91.1609 89.511 90.5038 89.5152 89.8466C89.5174 89.2235 89.4982 88.5982 89.477 87.973C89.3749 84.7892 89.2707 81.6055 89.1686 78.4218C88.4476 78.358 87.699 78.3197 86.9759 78.2559C87.4863 84.4043 87.5331 90.5888 87.112 96.7415C87.6501 96.7649 88.9665 96.5054 89.4663 96.3119C89.5365 94.787 89.3813 93.3408 89.4514 91.8181ZM82.6927 90.1167C82.6757 89.8126 82.6353 89.4914 82.446 89.2532C82.1908 88.93 81.7165 88.8449 81.3209 88.9555C80.9892 89.0491 80.7382 89.2277 80.5447 89.4638C80.6787 91.0418 80.8233 92.6178 80.9806 94.1937C81.155 94.1958 81.3358 94.1533 81.4868 94.0682C81.8611 93.8598 82.0951 93.4663 82.2609 93.0707C82.648 92.1456 82.7522 91.1205 82.6927 90.1167ZM79.9641 81.278C80.0364 82.5328 80.1172 83.7875 80.2044 85.0423C80.8764 84.9955 81.4804 84.4957 81.7378 83.8662C82.01 83.1921 81.9292 82.4137 81.6548 81.7395C81.5272 81.4226 81.3358 81.1057 81.0274 80.9611C80.3299 80.9611 80.0619 80.9186 79.9641 81.278ZM84.745 94.502C84.1431 95.7377 82.8905 96.7457 81.5166 96.6756C81.3698 96.6671 81.2231 96.6458 81.087 96.599C80.2724 96.6054 79.4579 96.5246 78.6625 96.3502C78.5328 96.3204 78.3945 96.2842 78.2988 96.1907C78.1691 96.0631 78.15 95.8653 78.1393 95.6845C77.9352 92.2881 77.731 88.8938 77.5268 85.4996C77.4247 83.8024 77.3227 82.1053 77.2206 80.4082C77.1823 79.7893 76.9165 79.03 77.4524 78.66C77.7799 78.4345 78.3818 78.3984 78.9305 78.4218C79.8705 78.3878 81.8611 78.207 82.3864 78.4324C83.3349 78.8386 83.856 79.8616 84.1878 80.8399C84.5472 81.9075 84.7684 83.0921 84.377 84.1491C83.8943 85.4421 83.4881 86.3141 82.4736 86.7203C83.286 86.5183 83.956 86.6012 84.6939 87.5923C85.2915 88.3983 85.3766 89.4659 85.3936 90.4697C85.417 91.8436 85.3468 93.2664 84.745 94.502ZM70.8021 94.9806C70.3704 91.1822 69.8429 87.3966 69.3155 83.6089C69.1092 82.1287 68.9029 80.6485 68.6966 79.1683C68.7115 79.0704 68.7243 78.9705 68.7392 78.8726C68.2096 78.8025 65.9744 78.8088 65.447 78.8918C65.3619 78.9045 65.2726 78.9216 65.2109 78.979C65.1428 79.0449 65.1216 79.1427 65.1067 79.2363C64.8536 80.6442 64.692 82.067 64.5729 83.494C64.3645 85.993 64.1752 90.6016 64.1156 91.1971C62.1952 86.4906 60.8617 79.7871 60.2556 78.4048C59.2773 78.3814 56.6763 78.3984 55.698 78.375C55.664 80.0168 55.7469 81.6587 55.8809 83.2963C56.1148 86.1716 56.5125 89.0321 56.7316 91.9117C56.8422 93.3579 56.9102 94.8104 56.8869 96.2608C56.8762 96.9903 56.6359 97.3987 57.342 97.5135C57.4845 97.5369 59.6963 97.2625 59.6963 97.2604C59.7239 92.9474 59.4581 88.6025 59.2412 84.2937C59.5836 85.0934 59.7941 85.9313 60.1259 86.8841C61.1339 89.7828 61.7316 93.0346 63.1607 95.7504C63.2309 95.8844 63.3181 96.0312 63.4648 96.0588C63.552 96.0758 63.6392 96.046 63.7222 96.0163C64.273 95.8206 65.079 95.491 65.598 95.2187C65.5661 95.1486 65.5363 95.0784 65.5044 95.0061C65.7022 94.7296 65.8638 94.4063 65.968 94.1362C66.1637 93.6365 66.2147 93.0941 66.2658 92.5603C66.4593 90.5654 66.6783 88.5748 66.9123 86.5863C67.3419 89.5361 67.814 92.4774 68.3415 95.4123C68.8583 95.2443 70.2832 95.1486 70.8021 94.9806ZM48.8031 88.8875C48.1651 87.4732 47.5271 86.0589 46.8891 84.6467C46.7657 86.1503 46.6317 87.6539 46.4871 89.1554C46.9188 89.1023 47.4059 89.1256 47.7546 89.0725C48.1056 89.0193 48.4543 88.9555 48.8031 88.8875ZM49.9643 91.4629C48.7308 91.6671 47.459 91.6607 46.2191 91.8245C46.032 93.5897 45.83 95.3549 45.6045 97.1179C44.6666 97.0754 43.5735 97.001 42.6335 97.0265C43.3161 91.0886 43.9988 85.1508 44.6815 79.2129C44.6985 79.0641 44.7198 78.9067 44.8134 78.7897C44.9516 78.6196 45.1941 78.594 45.411 78.5813C45.9257 78.5473 46.4403 78.5154 46.955 78.4835C47.0826 78.4749 47.2485 78.5281 47.3229 78.6111C47.3378 78.5983 47.3527 78.5855 47.3676 78.5749C49.4603 83.3154 51.5509 88.058 53.6436 92.7985C54.1987 94.0576 54.7601 95.3272 55.5895 96.4246C54.5645 96.5054 53.3458 96.6011 52.3186 96.6819C51.5339 94.9423 50.7491 93.2026 49.9643 91.4629ZM39.9453 95.3336C39.9346 95.2868 39.924 95.2379 39.8921 95.2039C39.8411 95.1528 39.7624 95.1486 39.6922 95.1507C38.6416 95.1656 37.591 95.3038 36.5446 95.2187C36.0874 95.1826 35.6323 95.1039 35.1771 95.0486C35.1474 93.3026 35.0729 91.5565 34.9496 89.8147C34.9049 89.2001 34.856 88.5876 34.8028 87.973C36.5957 87.8687 39.2541 87.6922 39.2668 87.7815C39.1818 87.2477 39.1499 86.1631 39.1648 85.6229C37.6697 85.7824 36.1873 85.759 34.688 85.7952C34.6625 85.7952 34.6391 85.7994 34.6135 85.8016C34.4796 84.2873 34.3456 82.771 34.2137 81.2567C36.03 81.3609 37.8802 80.9335 39.7092 81.0632C39.7071 80.6272 39.6709 79.9211 39.6029 79.4937C39.588 79.398 39.5646 79.2937 39.488 79.2342C39.4178 79.1789 39.32 79.1789 39.2307 79.1789C37.7207 79.2002 36.2107 79.1513 34.7071 79.03C34.4179 79.0066 34.0074 78.9045 33.6544 78.9365C33.6182 78.9343 33.58 78.9301 33.5438 78.9279C32.9675 78.8982 32.0849 78.6153 31.7658 79.1895C31.4809 79.7042 31.7467 80.9845 31.7552 81.5651C31.7807 83.2771 31.819 84.987 31.8998 86.6969C31.9806 88.4026 32.1019 90.1061 32.2911 91.8032C32.3443 92.286 32.759 96.8223 33.0844 96.8563C33.6501 96.918 34.2158 96.9776 34.7794 97.0371C35.2431 97.1902 35.9364 97.237 36.349 97.2625C36.8147 97.2902 37.2762 97.186 37.7398 97.1222C38.4991 97.0201 39.2732 97.0265 40.0303 97.1456C40.0559 96.7224 40.0282 95.7504 39.9453 95.3336ZM22.674 81.8097C22.8931 82.7072 23.059 83.6195 23.2227 84.5298C23.3121 85.0359 23.4035 85.5421 23.495 86.0483C23.5971 85.9759 23.6949 85.8951 23.7821 85.8101C24.6072 85.0062 25.0624 83.8386 25.0007 82.6901C24.9773 82.2605 24.8433 81.7778 24.4584 81.5885C24.2266 81.4736 23.9501 81.4907 23.6928 81.5332C23.3461 81.5885 23.0037 81.6842 22.674 81.8097ZM31.8509 94.4489C31.2788 94.9848 30.7089 95.5207 30.1368 96.0567C30.0453 96.1418 29.939 96.2332 29.8135 96.2289C29.6774 96.2226 29.5732 96.1077 29.4881 95.9993C28.1546 94.3404 26.7382 92.7517 25.241 91.2375C24.922 90.9142 24.5924 90.6016 24.2585 90.2975C24.6859 92.6773 25.1134 95.0592 25.5409 97.4391C24.4882 97.673 23.948 97.5475 22.874 97.4561C21.1449 91.6628 20.0688 85.674 19.6796 79.6404C20.3836 79.785 21.2364 79.6638 21.8786 79.3384C21.9042 79.4001 21.9254 79.4618 21.951 79.5213C21.9531 79.5192 21.9552 79.5149 21.9552 79.5128C23.1504 79.0066 24.5349 78.8471 25.7514 79.3001C26.9679 79.7552 27.959 80.8994 28.0143 82.1946C28.0419 82.8348 27.8548 83.4621 27.6506 84.0704C27.1402 85.5868 26.4192 87.1712 25.224 88.1622C27.204 90.4846 29.4286 92.5944 31.8509 94.4489ZM11.9021 83.3473C12.0659 84.0427 13.0272 91.4502 13.3908 94.5424C14.065 94.3914 14.5414 93.7641 14.8732 93.1579C16.5257 90.1486 14.8944 83.3473 11.9021 83.3473ZM18.0314 91.6394C17.6103 93.5663 16.851 95.474 15.4814 96.8946C14.1139 98.3153 12.4423 99.2319 10.5134 98.8129C9.99657 93.1856 9.27135 87.5774 8.33984 82.0032C9.24583 80.5506 11.1748 79.8701 12.8592 80.17C13.4929 80.2827 14.0969 80.5379 14.6456 80.8718C16.3619 81.916 17.5337 83.728 18.0463 85.6697C18.5588 87.6114 18.4589 89.6765 18.0314 91.6394ZM69.3325 70.8782C69.6473 66.142 69.626 59.1216 68.5967 54.4875C67.5673 49.8533 64.9961 45.3404 60.8234 43.0754C55.6023 40.2426 49.0732 41.4719 43.6543 43.9049C42.1975 44.5578 40.7662 45.2979 39.5157 46.291C37.8015 47.6479 36.4766 49.4365 35.3281 51.2995C31.2809 57.8733 32.0444 66.091 31.7935 73.3963C27.9101 73.7302 24.6221 74.2279 18.8098 74.7064C18.2547 69.3895 18.1569 64.0259 18.529 58.6942C18.7864 55.0319 19.2606 51.3739 20.2007 47.8266C22.472 39.2494 27.6485 31.2997 35.1367 26.5443C42.6271 21.791 52.4739 20.5512 60.5767 24.1624C64.726 26.0105 68.2777 29.0028 71.3721 32.329C74.509 35.702 77.2397 39.4642 79.3877 43.5391C84.2005 52.667 85.9296 62.9562 86.508 73.3453C81.6846 72.988 74.1347 72.2202 69.3325 70.8782Z" fill="#F9DEB1"/>
</g>
<mask id="mask1_1909_1546" style="mask-type:luminance" maskUnits="userSpaceOnUse" x="4" y="3" width="98" height="95">
<path d="M4.74219 3.77832H101.068V97.0506H4.74219V3.77832Z" fill="white"/>
</mask>
<g mask="url(#mask1_1909_1546)">
<path d="M98.2572 90.9447L98.2742 90.8682L95.2904 90.9086L95.2925 91.1127L98.0211 91.0766C97.5384 93.1523 96.7217 94.4411 95.6519 94.8005C94.8948 95.0557 94.059 94.8218 93.2338 94.1263C91.1475 92.3675 91.8515 86.5445 92.4576 83.2311C92.749 81.6296 93.2998 80.6237 94.0973 80.2451C94.9055 79.8602 95.6966 80.2855 95.7051 80.2898L95.8029 80.1111C95.7668 80.092 94.9161 79.6326 94.0122 80.0622C93.153 80.4684 92.5618 81.5233 92.2556 83.1928C91.6431 86.5509 90.9391 92.4568 93.102 94.2816C93.7485 94.826 94.4078 95.1046 95.0394 95.1046C95.2691 95.1046 95.4967 95.0685 95.7179 94.994C96.5069 94.7261 97.566 93.8456 98.1977 91.1978C98.8569 92.1995 99.0122 95.5002 99.0122 96.1084H99.2142C99.2142 96.0659 99.1419 91.9379 98.2572 90.9447ZM88.0106 78.7458C88.6188 82.6611 88.1446 95.8171 88.1382 95.9489L88.3424 95.9575C88.3466 95.8235 88.823 82.6483 88.2105 78.7139L88.0106 78.7458ZM83.3254 88.2055C82.3471 87.3357 80.8967 87.174 79.812 87.3825C79.7142 87.4101 79.6142 87.4335 79.5143 87.459C79.7525 91.1851 80.0013 94.9302 80.0438 95.5661C80.6351 95.5661 83.7571 95.4088 84.3164 92.1953C84.6227 90.4322 84.2803 89.0519 83.3254 88.2055ZM79.4994 87.2463C79.5845 87.2251 79.6738 87.2038 79.7631 87.1847C81.1944 86.8019 82.2131 86.1234 82.7937 85.1643C83.4381 84.103 83.5423 82.727 83.1 81.0703C82.8915 80.2898 82.4853 79.7453 81.892 79.4497C80.7924 78.9053 79.3548 79.3732 79.0358 79.4901C79.0528 80.1771 79.2697 83.6777 79.4994 87.2463ZM84.5164 92.2314C83.923 95.6491 80.4734 95.7682 79.9992 95.7682C79.9651 95.7682 79.9481 95.7682 79.946 95.7682L79.8546 95.7639L79.8482 95.6725C79.8056 95.0515 78.8316 80.428 78.8316 79.42V79.3519L78.8954 79.3264C78.9677 79.2966 80.6606 78.6139 81.9813 79.269C82.6299 79.5901 83.0723 80.1771 83.2956 81.0171C83.7529 82.7292 83.6423 84.1604 82.9681 85.2706C82.4832 86.0703 81.7133 86.6806 80.6733 87.0996C80.6776 87.0996 80.684 87.0996 80.6882 87.0996C81.6431 87.0996 82.6874 87.3676 83.4594 88.0524C84.1654 88.6776 84.9204 89.9111 84.5164 92.2314ZM66.7283 80.4025C66.605 80.394 66.4965 80.4727 66.4604 80.5918C66.1371 81.636 65.5756 83.716 65.431 85.9129C65.2715 88.3055 64.608 92.2101 64.3294 93.7775C64.3166 93.8477 64.2634 93.8818 64.2167 93.8881C64.1933 93.8924 64.1167 93.8988 64.0742 93.8201C63.5255 92.7992 62.4961 90.6746 61.7709 87.9226C60.9628 84.8516 59.1401 81.1596 58.3937 79.7134C58.3341 79.5965 58.2065 79.5369 58.0789 79.5624C57.9492 79.5901 57.8577 79.6943 57.8471 79.824C57.5919 83.3799 58.1151 96.5529 58.1193 96.6848L58.3235 96.6784C58.3171 96.5444 57.796 83.3842 58.0513 79.8389C58.0555 79.7794 58.1044 79.7645 58.1193 79.7624C58.1342 79.7581 58.1852 79.7517 58.2129 79.807C58.9572 81.2468 60.7713 84.9239 61.5753 87.9758C62.3047 90.7469 63.3426 92.8864 63.8955 93.9158C63.9636 94.0455 64.1039 94.1114 64.2486 94.0902C64.3953 94.0668 64.5059 93.9583 64.5314 93.8116C64.8079 92.242 65.4714 88.3288 65.6331 85.9256C65.7777 83.75 66.3349 81.6871 66.6539 80.6513C66.6667 80.6088 66.7028 80.6045 66.7198 80.6045C66.7347 80.6067 66.7709 80.6131 66.7794 80.6577C67.2813 83.0184 68.9423 90.9788 69.2889 94.2561L69.491 94.2348C69.1443 90.949 67.4812 82.9801 66.9793 80.6152C66.9538 80.494 66.8517 80.4089 66.7283 80.4025ZM50.4822 89.7665C48.7574 85.9618 46.9008 81.6339 46.3032 80.2345C46.1415 81.6466 45.4801 86.4594 44.9357 90.4131C45.4355 90.4024 47.5154 90.3259 50.4822 89.7665ZM46.4733 80.1133C47.509 82.542 52.7365 94.7303 53.8297 96.0064L53.6766 96.1382C53.1917 95.5746 51.9284 92.946 50.5694 89.9579C47.4941 90.5407 45.3546 90.6087 44.9059 90.6172C44.8655 90.915 44.8251 91.2084 44.7847 91.4956C44.4253 94.1114 44.1126 96.3722 44.1062 96.4806L43.9042 96.4785C43.9042 96.4019 44.1381 94.7069 44.5848 91.4679C45.1569 87.3186 45.9395 81.6381 46.1054 80.1643C46.116 80.0771 46.1819 80.0112 46.2691 79.9984C46.3542 79.9857 46.4371 80.0303 46.4733 80.1133ZM34.3403 95.9894C33.9426 94.624 33.5938 90.6406 33.3428 86.9954L38.3279 86.6296L38.313 86.4254L33.3279 86.7912C33.111 83.6032 32.9707 80.7173 32.943 80.1303C34.1616 80.143 39.0765 80.3323 39.1276 80.3344L39.1361 80.1303C39.0829 80.1282 33.8426 79.9282 32.8367 79.9282H32.7303L32.7367 80.0325C32.7601 80.5811 33.3556 93.4798 34.1616 96.1021L34.1786 96.1552L34.2297 96.1701C34.251 96.1744 35.5249 96.5317 37.0944 96.5317C37.8855 96.5317 38.7533 96.4402 39.5699 96.168L39.5061 95.9766C37.3092 96.7082 34.7401 96.0936 34.3403 95.9894ZM26.0098 84.1966C26.3608 83.0907 26.3033 82.0635 25.8461 81.3C24.7763 79.5157 21.8414 80.528 21.3651 80.7066C21.4437 82.9992 21.8244 85.7066 22.2838 88.2417C24.0362 87.459 25.4612 85.9129 26.0098 84.1966ZM30.2654 94.5772L30.1272 94.7239C30.0783 94.6772 25.1592 90.0302 23.5769 87.7334C23.1834 88.012 22.7623 88.2523 22.3221 88.4458C23.143 92.9141 24.1872 96.7975 24.2021 96.8571L24.0065 96.9124C23.9809 96.8145 21.3608 87.0783 21.1609 80.6407L21.1588 80.5726L21.2247 80.545C21.3672 80.4854 24.77 79.1137 26.0184 81.1958C26.5075 82.0082 26.5734 83.0971 26.2013 84.2583C25.7908 85.5492 24.8954 86.7466 23.7406 87.6121C25.3038 89.8899 30.2165 94.5304 30.2654 94.5772ZM16.0759 85.0303C14.047 80.7492 10.7633 81.821 10.2358 82.0252C10.5145 83.6245 11.8352 95.4577 11.9755 96.7273C13.2941 96.689 14.5297 95.8617 15.4634 94.3858C16.8968 92.1208 17.5667 88.18 16.0759 85.0303ZM16.2609 84.9431C17.7836 88.1587 17.0988 92.1825 15.6356 94.4943C14.6424 96.0659 13.309 96.9294 11.8841 96.9294H11.7947L11.7841 96.84C11.7692 96.7039 10.2699 83.2247 10.021 81.9848L10.0062 81.9061L10.0785 81.8721C10.1168 81.8551 13.9746 80.1218 16.2609 84.9431ZM100.992 63.9416C100.841 67.0891 100.471 70.2452 100.782 73.3821C91.1964 73.9287 79.4016 73.548 70.0312 71.0683C76.9282 72.8739 86.2029 73.565 93.0382 73.5969C93.7677 69.0223 93.236 64.2032 92.532 59.5754C91.1815 50.6899 89.2356 41.7874 85.2671 33.7249C81.2986 25.6603 75.1332 18.4337 67.0282 14.5545C57.5217 10.0054 46.1819 10.4775 36.2097 13.8825C34.0574 14.6183 31.9328 15.4903 30.0506 16.7621C28.2068 18.0062 26.6309 19.6076 25.1825 21.292C19.1639 28.2847 15.1188 36.9533 13.6237 46.0578C12.9772 50.0051 12.8007 54.014 12.6348 58.0101C12.4647 62.1785 12.2818 66.3746 12.5923 70.5408C12.7071 72.0997 13.058 73.6203 13.6003 75.0899C11.061 75.3281 8.67057 75.5472 6.64166 75.7216C4.66167 70.5642 4.67443 64.8837 4.77864 59.3606C4.94028 50.6941 5.26779 41.9277 7.62847 33.5867C9.98915 25.2456 14.602 17.2576 21.7904 12.4129C26.5628 9.19938 32.188 7.52777 37.7579 6.08584C42.4389 4.8736 47.2049 3.78258 52.0411 3.77833C57.4962 3.77408 62.847 5.14795 68.1299 6.51119C71.4476 7.36826 74.8142 8.24448 77.7746 9.96926C80.7988 11.7323 83.2658 14.3035 85.4819 17.0088C96.1645 30.0435 101.802 47.1084 100.992 63.9416Z" fill="#FDE5D4"/>
</g>
<path d="M69.3282 70.8791C69.6429 66.1429 69.6217 59.1225 68.5923 54.4884C67.563 49.8542 64.9918 45.3413 60.8191 43.0763C55.598 40.2435 49.0689 41.4727 43.65 43.9057C42.1932 44.5586 40.7619 45.2987 39.5114 46.2919C37.7972 47.6488 36.4722 49.4374 35.3238 51.3004C31.2766 57.8741 32.0401 66.0918 31.7892 73.3972C29.6178 73.5843 27.6335 73.8225 25.2877 74.0799C24.5774 68.6694 24.6029 63.1506 25.7301 57.8188C27.038 51.6364 29.8751 45.7113 34.2796 41.1814C35.9767 39.4332 37.912 37.8913 40.1026 36.8216C41.5807 36.0985 43.163 35.5987 44.7729 35.2584C52.7333 33.5847 61.6741 36.2707 66.757 42.6233C68.99 45.4157 70.4277 48.7526 71.7229 52.0852C72.4481 53.9482 73.1372 55.8303 73.6476 57.7635C74.8747 62.4083 75.0427 67.253 75.0236 72.0637C72.9479 71.7319 70.9764 71.3406 69.3282 70.8791Z" fill="#9171B2"/>
</g>
<defs>
<filter id="filter0_d_1909_1546" x="0" y="-0.563477" width="106" height="106" filterUnits="userSpaceOnUse" color-interpolation-filters="sRGB">
<feFlood flood-opacity="0" result="BackgroundImageFix"/>
<feColorMatrix in="SourceAlpha" type="matrix" values="0 0 0 0 0 0 0 0 0 0 0 0 0 0 0 0 0 0 127 0" result="hardAlpha"/>
<feOffset dy="1"/>
<feGaussianBlur stdDeviation="2"/>
<feComposite in2="hardAlpha" operator="out"/>
<feColorMatrix type="matrix" values="0 0 0 0 0 0 0 0 0 0 0 0 0 0 0 0 0 0 0.4 0"/>
<feBlend mode="normal" in2="BackgroundImageFix" result="effect1_dropShadow_1909_1546"/>
<feBlend mode="normal" in="SourceGraphic" in2="effect1_dropShadow_1909_1546" result="shape"/>
</filter>
</defs>
</svg>
