<svg width="111" height="113" viewBox="0 0 111 113" fill="none" xmlns="http://www.w3.org/2000/svg">
<g filter="url(#filter0_d_1909_1559)">
<mask id="mask0_1909_1559" style="mask-type:luminance" maskUnits="userSpaceOnUse" x="8" y="69" width="28" height="35">
<path d="M8.15625 69.5918H35.3101V103.347H8.15625V69.5918Z" fill="white"/>
</mask>
<g mask="url(#mask0_1909_1559)">
<path fill-rule="evenodd" clip-rule="evenodd" d="M31.6691 76.6776C32.9196 76.8392 33.6151 77.1646 34.1233 77.5134C34.6338 77.86 34.957 78.2322 35.0038 78.5214C35.0485 78.8128 34.8188 79.0212 34.3211 79.0659C33.8214 79.1127 33.0579 78.9978 32.2476 78.8702C31.4373 78.7426 30.5802 78.6044 29.3531 78.7192C25.2592 79.1063 24.7679 82.19 24.9891 86.0543C25.0954 87.9045 25.6293 89.8228 26.3289 92.0282C27.0265 94.2315 27.8878 96.7261 28.3961 98.6614C28.9023 100.599 29.0554 101.979 28.9235 102.67C28.7874 103.359 28.3663 103.359 27.8495 102.881C27.3327 102.4 26.7203 101.443 25.927 100.014C25.1316 98.5849 24.1554 96.6878 23.4005 95.3927C22.6433 94.0975 22.1074 93.4084 21.4375 93.3127C20.7676 93.217 19.9658 93.7147 19.4086 94.5207C18.8535 95.3246 18.5473 96.4369 17.9731 97.7406C17.3989 99.0464 16.5588 100.541 15.8293 101.452C15.102 102.364 14.4895 102.689 14.011 102.851C13.5325 103.015 13.188 103.015 13.1497 102.458C13.1114 101.903 13.3794 100.79 13.9259 99.3803C14.4704 97.9724 15.2934 96.2646 15.8591 94.4335C16.4227 92.6024 16.7289 90.6458 16.8821 88.9019C17.0692 86.7774 17.8008 81.8965 14.6278 83.2534C13.5729 83.7042 12.3564 84.674 11.2527 85.9245C10.1468 87.175 9.15146 88.7105 8.66445 88.9976C8.17743 89.2847 8.19444 88.3277 8.70698 87.0772C9.21952 85.831 10.2233 84.2933 11.208 83.028C14.834 78.3683 26.2035 75.9673 31.6691 76.6776ZM20.2253 70.0273C22.2542 70.0273 23.9002 71.6755 23.9002 73.7087C23.9002 75.7418 22.2542 77.3922 20.2253 77.3922C18.1943 77.3922 16.5482 75.7418 16.5482 73.7087C16.5482 71.6755 18.1943 70.0273 20.2253 70.0273Z" fill="#00CCFF"/>
</g>
<path fill-rule="evenodd" clip-rule="evenodd" d="M84.4162 101.951C84.7118 100.533 85.6901 97.6958 86.3961 95.1842C86.4493 95.0013 86.5067 94.7971 86.5663 94.578C85.9772 94.3654 85.5476 94.1357 85.2434 93.957C84.6884 93.6317 84.5544 93.4785 84.9755 92.9511C85.3966 92.4237 86.3749 91.522 87.0533 89.7674C87.6849 88.1383 88.3995 85.0142 88.2081 82.4834C88.0294 82.3345 87.8465 82.2069 87.6445 82.1091C86.9597 81.7773 86.058 81.7773 84.9351 81.9049C83.81 82.0326 82.4681 82.2878 81.1708 82.3345C79.8756 82.3813 78.6251 82.2197 77.8659 81.8475C77.1088 81.4754 76.8408 80.8969 77.0322 80.6948C77.2236 80.4907 77.8723 80.6651 78.9037 80.7353C79.933 80.8033 81.3452 80.7693 82.6595 80.4843C83.9738 80.2015 85.1903 79.6676 86.3515 79.1509C87.5148 78.6341 88.6271 78.1364 89.6351 77.8578C92.6444 77.0263 94.8073 77.8174 96.9531 80.1568C98.8991 82.2814 99.4052 83.2512 100.407 85.095C100.72 85.6692 103.678 90.4522 100.856 88.1936C100.288 87.7364 98.6566 85.7224 98.0909 84.876C96.1046 81.9092 95.1943 82.9109 96.1259 86.3732C96.5554 87.9746 97.0914 89.4697 97.7039 90.448C98.3185 91.4263 99.0075 91.8856 99.4457 92.2599C99.888 92.6342 100.079 92.9213 100.003 93.1893C99.9242 93.4573 99.5818 93.7082 98.595 94.0527C98.3121 94.1527 97.9782 94.259 97.5975 94.3654C97.9782 95.6031 98.3695 96.7707 98.6949 97.7532C99.2606 99.4589 99.6243 100.609 99.7391 101.32C99.854 102.03 99.72 102.298 99.3074 102.241C98.897 102.183 98.2079 101.798 97.4997 100.85C96.7915 99.9012 96.0642 98.387 95.4985 97.196C95.0838 96.3219 94.7562 95.6244 94.4032 95.0183C94.2926 95.0332 94.1799 95.0459 94.0672 95.0587C92.7316 95.2139 91.2557 95.2607 89.9456 95.1884C89.7202 95.7371 89.4714 96.3411 89.1736 96.9472C88.5016 98.3104 87.585 99.6907 86.8279 100.763C86.0729 101.837 85.4795 102.604 84.9904 102.987C84.5034 103.372 84.1205 103.372 84.4162 101.951ZM96.3258 77.6941C96.9021 77.6941 97.4699 77.3283 97.857 76.8774C98.2441 76.4308 98.4504 75.897 98.4844 75.4929C98.5184 75.0867 98.3802 74.8102 98.2185 74.6295C98.0548 74.4487 97.8655 74.3657 97.7698 74.3062C97.6741 74.2445 97.6741 74.2084 97.6741 74.3785C97.6741 74.5508 97.6741 74.9357 97.5295 75.2037C97.3827 75.4738 97.0914 75.6269 96.7979 75.6482C96.5065 75.6694 96.213 75.5546 96.0854 75.0952C95.8536 74.2743 95.9834 73.2301 95.7005 72.2518C95.4347 70.4802 93.9098 69.1191 92.066 69.1191C90.0349 69.1191 88.391 70.7673 88.391 72.8005C88.391 74.3105 89.0035 75.3121 90.5602 76.1309C92.3126 77.0518 95.0944 77.6983 96.3258 77.6941Z" fill="#FF6600"/>
<path fill-rule="evenodd" clip-rule="evenodd" d="M40.1521 89.1542C39.7268 89.888 39.1015 90.8662 38.6358 91.702C38.1721 92.5378 37.868 93.229 38.0871 94.42C38.3083 95.6088 39.0526 97.2974 39.4354 98.8499C39.8182 100.402 39.8395 101.823 39.5758 102.58C39.3142 103.337 38.7655 103.435 38.3168 102.763C37.868 102.093 37.5214 100.656 37.1301 99.7602C36.7409 98.8648 36.3091 98.5118 35.9136 98.7053C35.5159 98.8988 35.1543 99.6389 34.695 100.513C34.2377 101.385 33.6848 102.393 33.1318 102.882C32.5768 103.369 32.0238 103.339 31.7814 102.984C31.5411 102.629 31.6155 101.949 31.8813 101.002C32.1472 100.054 32.6044 98.8372 32.9341 97.6143C33.2658 96.3936 33.47 95.1643 32.9022 94.2711C32.3322 93.3779 30.9924 92.8228 29.8971 92.1423C28.8018 91.4596 27.9554 90.6536 27.7789 90.1134C27.6045 89.5711 28.1022 89.2946 28.9188 89.5307C29.7355 89.7646 30.8711 90.5132 31.8494 91.0343C32.8277 91.5574 33.6465 91.8552 34.3589 91.8573C35.0693 91.8594 35.6711 91.5638 36.3751 90.9194C37.079 90.2729 37.885 89.2797 38.6762 88.6417C39.4694 88.0016 40.2478 87.7145 40.5243 87.8187C40.8029 87.9229 40.5775 88.4163 40.1521 89.1542ZM34.0463 85.7451C32.5576 85.7451 31.3518 86.9531 31.3518 88.4439C31.3518 89.9347 32.5576 91.1448 34.0463 91.1448C35.535 91.1448 36.7409 89.9347 36.7409 88.4439C36.7409 86.9531 35.535 85.7451 34.0463 85.7451Z" fill="#A4BB22"/>
<path fill-rule="evenodd" clip-rule="evenodd" d="M70.4418 90.0427C70.78 90.0108 71.3733 90.2873 71.9327 90.7105C72.4941 91.1358 73.0066 91.7398 73.7319 92.0886C78.2618 94.2791 79.4953 89.7513 79.6165 87.3609C79.6526 86.6293 79.8377 86.3869 79.9334 86.1636C80.0269 85.9403 80.2183 85.7701 80.4735 86.121C80.7266 86.4719 81.0435 87.3396 81.0435 88.3902C81.0435 89.4387 80.7266 90.668 80.3459 91.6547C79.7611 93.1647 78.3234 94.5471 80.0014 95.7636C80.4034 96.0549 81.4412 96.2995 81.807 96.4526C82.1728 96.6079 82.3727 96.7014 82.0133 97.0353C81.7772 97.2544 81.2987 97.5776 80.6607 97.8967C81.1073 99.1195 81.539 100.502 81.605 101.376C81.6794 102.35 81.2987 102.69 80.8436 102.51C80.3885 102.329 79.8589 101.629 79.3294 100.708C78.9657 100.07 78.5999 99.3279 78.2277 98.792C77.377 99.0196 76.4987 99.1854 75.765 99.2897H75.7586C75.563 99.6554 75.3907 100.053 75.1929 100.432C74.8654 101.057 74.4634 101.629 74.0913 102.001C73.7212 102.371 73.3831 102.541 73.0768 102.552C72.7685 102.563 72.4941 102.414 72.5792 102.022C72.6642 101.629 73.1087 100.993 73.4362 100.03C73.5 99.8405 73.5596 99.6384 73.6149 99.4279C73.5383 99.4236 73.4681 99.4173 73.4043 99.4109C72.9662 99.3641 72.8812 99.2578 72.8812 99.145C72.8812 99.0344 72.9662 98.9175 73.1768 98.6112C74.104 97.265 74.0913 95.9061 73.0556 94.6236C72.5154 93.9559 71.7327 93.2136 71.1713 92.5565C70.6098 91.8993 70.2717 91.3272 70.1462 90.87C70.0186 90.4149 70.1037 90.0746 70.4418 90.0427ZM79.2294 88.2648C79.2932 87.9351 79.2996 87.7714 79.3017 87.6905C79.3039 87.6076 79.3039 87.6076 79.2124 87.7926C78.6637 88.8921 78.0725 88.4158 77.594 87.6225C77.1389 86.8696 76.3158 86.3656 75.3737 86.3656C73.9424 86.3656 72.7812 87.5268 72.7812 88.9602C72.7812 90.3957 74.053 91.6526 75.4843 91.6526C77.4706 91.6526 78.8636 90.166 79.2294 88.2648Z" fill="#FBBE09"/>
<path fill-rule="evenodd" clip-rule="evenodd" d="M53.9015 37.1227C51.796 36.5102 48.221 34.9683 45.5031 33.4328C42.7894 31.8931 40.9392 30.3576 39.6865 28.6392C38.4467 26.9187 37.8065 25.0174 37.7874 23.2352C37.7725 21.4552 38.3786 19.7878 39.4058 18.5458C40.4288 17.3059 41.8707 16.4935 43.2615 16.0958C44.6524 15.6939 45.988 15.713 47.2364 16.149C48.4911 16.5829 49.6587 17.4314 50.4328 18.0588C51.2091 18.6883 51.5876 19.0945 52.0023 19.0371C52.4149 18.9818 52.8552 18.4586 53.4145 17.4718C53.9717 16.4872 54.648 15.0304 55.6539 14.0202C56.662 13.0015 58.0061 12.4294 59.4543 12.3401C60.9026 12.2486 62.4509 12.6421 63.6185 13.5438C64.7796 14.4476 65.5623 15.8619 65.9727 17.4973C66.3832 19.137 66.4172 20.9958 65.8664 23.1417C65.3113 25.2833 64.1629 27.7098 62.6359 30.0854C61.1132 32.4609 59.2034 34.7897 57.9316 36.1104C56.6535 37.4289 56.0112 37.7394 53.9015 37.1227Z" fill="#EA556F"/>
<path fill-rule="evenodd" clip-rule="evenodd" d="M62.3921 45.9183C61.8562 44.9251 61.1246 43.0642 60.7056 41.5117C60.2866 39.9656 60.1782 38.7321 60.3547 37.656C60.5312 36.5777 60.9948 35.659 61.6371 35.0082C62.2836 34.3574 63.1067 33.9789 63.9297 33.9066C64.7527 33.8343 65.5715 34.0703 66.2202 34.434C66.8646 34.7977 67.341 35.2953 67.6323 35.9099C67.9258 36.5224 68.0385 37.2562 68.0896 37.7666C68.1406 38.277 68.13 38.562 68.3001 38.6938C68.4702 38.8235 68.819 38.798 69.3805 38.6449C69.9398 38.4918 70.7139 38.2153 71.4476 38.2153C72.1835 38.2196 72.8768 38.5045 73.4319 39.0022C73.9891 39.4998 74.4038 40.208 74.4952 40.9588C74.5867 41.7137 74.3527 42.5091 73.904 43.2492C73.4553 43.9915 72.7917 44.6763 71.8092 45.2462C70.8288 45.8183 69.5293 46.2734 68.1108 46.5712C66.6944 46.871 65.1547 47.0178 64.2147 47.0263C63.2768 47.0348 62.928 46.9114 62.3921 45.9183Z" fill="#EA556F"/>
<path fill-rule="evenodd" clip-rule="evenodd" d="M49.4637 46.9923C48.5599 46.9625 46.9733 46.72 45.7313 46.3861C44.4915 46.0523 43.594 45.6312 42.9219 45.0718C42.2456 44.5168 41.7969 43.8256 41.6055 43.1153C41.4162 42.4071 41.4885 41.6819 41.7671 41.08C42.05 40.4781 42.5434 40.006 43.058 39.7019C43.5663 39.3978 44.1023 39.268 44.6467 39.3127C45.1911 39.3574 45.742 39.5743 46.1184 39.7444C46.4906 39.9167 46.682 40.04 46.8436 39.9741C47.0031 39.906 47.1243 39.653 47.2434 39.2021C47.3689 38.7512 47.4816 38.1026 47.7857 37.5922C48.0792 37.0839 48.5599 36.7181 49.1256 36.531C49.6955 36.3459 50.3527 36.3417 50.9099 36.582C51.4692 36.8223 51.9264 37.3051 52.2561 37.9176C52.59 38.5258 52.7941 39.2659 52.7941 40.1783C52.7941 41.0885 52.5857 42.1753 52.2221 43.2833C51.8584 44.3849 51.3373 45.5142 50.9652 46.1714C50.593 46.8285 50.3676 47.0199 49.4637 46.9923Z" fill="#EA556F"/>
<path fill-rule="evenodd" clip-rule="evenodd" d="M64.5922 53.7749C64.118 53.5983 63.3247 53.1879 62.7292 52.7945C62.1337 52.3968 61.736 52.0161 61.4787 51.6035C61.2214 51.1909 61.1065 50.7443 61.1299 50.336C61.1533 49.9298 61.3192 49.5576 61.5744 49.2918C61.8317 49.0238 62.172 48.8622 62.4974 48.7941C62.8207 48.7239 63.1248 48.7494 63.4055 48.8707C63.6841 48.9898 63.9372 49.2024 64.1052 49.3577C64.2711 49.5151 64.3519 49.6129 64.4455 49.6065C64.5433 49.6001 64.6518 49.4874 64.7964 49.2726C64.9389 49.0536 65.1175 48.7324 65.3642 48.5176C65.6109 48.3007 65.9278 48.1922 66.2596 48.1944C66.5913 48.1965 66.9401 48.3113 67.1911 48.5389C67.4441 48.7643 67.5994 49.1003 67.6674 49.481C67.7334 49.8617 67.7142 50.2892 67.5505 50.7677C67.391 51.2505 67.089 51.7864 66.7019 52.3053C66.3149 52.8221 65.8406 53.3261 65.5258 53.6069C65.2153 53.8876 65.0622 53.9471 64.5922 53.7749Z" fill="#EA556F"/>
<path fill-rule="evenodd" clip-rule="evenodd" d="M84.2116 37.9838C84.3583 37.1778 84.7879 35.7954 85.2515 34.7342C85.7151 33.6687 86.2107 32.9243 86.7955 32.3969C87.3825 31.8716 88.0609 31.5611 88.7181 31.4846C89.3731 31.408 90.0111 31.5696 90.5088 31.9035C91.0064 32.2353 91.3573 32.7393 91.5594 33.2391C91.7614 33.7346 91.8039 34.2301 91.6933 34.7108C91.5828 35.1893 91.3148 35.6572 91.1127 35.9677C90.9107 36.2782 90.7767 36.4356 90.8129 36.5823C90.849 36.7354 91.0575 36.8779 91.4424 37.0459C91.8316 37.2182 92.3909 37.4117 92.8035 37.7414C93.2182 38.0795 93.4798 38.5516 93.567 39.0833C93.6584 39.6192 93.5734 40.2105 93.2841 40.672C92.9949 41.1398 92.5036 41.4844 91.9145 41.697C91.3275 41.9097 90.6406 41.999 89.8325 41.8736C89.0179 41.7502 88.0801 41.4184 87.1443 40.9442C86.2128 40.4742 85.277 39.8574 84.7432 39.4321C84.2073 39.0131 84.0669 38.7877 84.2116 37.9838Z" fill="#EA556F"/>
<path fill-rule="evenodd" clip-rule="evenodd" d="M42.7342 49.3062C41.9133 50.4419 40.2204 52.2624 38.7168 53.566C37.2111 54.8655 35.8947 55.6502 34.5952 56.033C33.2979 56.4094 32.0198 56.3861 30.9479 56.016C29.8782 55.6417 29.0084 54.9186 28.4852 54.0339C27.962 53.1534 27.7855 52.1092 27.845 51.1884C27.9046 50.2654 28.2023 49.4657 28.7319 48.8107C29.2614 48.1472 30.0207 47.6282 30.563 47.2986C31.1053 46.9647 31.4328 46.8243 31.486 46.5628C31.5413 46.3033 31.3222 45.9269 30.8522 45.3782C30.3822 44.8316 29.6527 44.1107 29.2636 43.2897C28.8701 42.4646 28.8148 41.5331 29.0743 40.642C29.3295 39.753 29.8994 38.9045 30.6906 38.3962C31.4817 37.8921 32.4962 37.7263 33.5638 37.8305C34.6356 37.9368 35.7564 38.3132 36.924 39.1086C38.0894 39.9019 39.2974 41.112 40.3927 42.5411C41.4879 43.9682 42.4747 45.6164 42.9915 46.667C43.5083 47.7176 43.5551 48.1706 42.7342 49.3062Z" fill="#EA556F"/>
<path fill-rule="evenodd" clip-rule="evenodd" d="M73.3888 54.7034C74.6329 54.4673 76.8638 54.3163 78.6524 54.395C80.4495 54.4758 81.7978 54.7778 82.8846 55.3265C83.9671 55.8837 84.7965 56.6919 85.2707 57.6021C85.745 58.506 85.8705 59.5204 85.6642 60.4243C85.4621 61.3303 84.9326 62.1214 84.3265 62.6914C83.7225 63.2592 83.0313 63.5995 82.2784 63.7037C81.5235 63.8121 80.7025 63.6845 80.1411 63.5633C79.5818 63.4442 79.2798 63.3379 79.0862 63.474C78.8863 63.6101 78.797 63.9929 78.7715 64.6437C78.7375 65.3008 78.7736 66.2196 78.5248 67.0001C78.2675 67.7891 77.7315 68.4314 77.0148 68.8546C76.2939 69.2842 75.3943 69.4883 74.567 69.3288C73.7333 69.1715 72.9613 68.6525 72.3275 67.9167C71.6917 67.1894 71.1812 66.2451 70.9112 65.0031C70.6368 63.7568 70.5921 62.215 70.7538 60.5965C70.9133 58.9866 71.2812 57.2895 71.5981 56.2772C71.9022 55.2712 72.1468 54.9395 73.3888 54.7034Z" fill="#EA556F"/>
<path fill-rule="evenodd" clip-rule="evenodd" d="M79.2884 41.4231C79.0608 41.3997 78.6653 41.3104 78.359 41.2062C78.0506 41.102 77.8316 40.9808 77.6721 40.8276C77.5104 40.6767 77.4105 40.4959 77.3722 40.313C77.3361 40.1301 77.368 39.9493 77.4488 39.8026C77.5296 39.6558 77.6614 39.5452 77.7954 39.4772C77.9294 39.4091 78.0676 39.3857 78.2038 39.4049C78.3399 39.4261 78.476 39.4899 78.5674 39.5389C78.6567 39.5899 78.7057 39.6239 78.7461 39.609C78.7865 39.5963 78.8226 39.5325 78.8588 39.4219C78.8971 39.3092 78.9396 39.1475 79.0225 39.0242C79.1076 38.9008 79.2331 38.8179 79.3777 38.7817C79.5266 38.7435 79.6903 38.7541 79.8286 38.8222C79.9647 38.8923 80.071 39.0221 80.1454 39.1816C80.2178 39.3411 80.2582 39.5304 80.2411 39.7622C80.2263 39.9918 80.1561 40.2619 80.0455 40.5342C79.9349 40.8064 79.786 41.0807 79.6797 41.2402C79.5755 41.3997 79.5159 41.4444 79.2884 41.4231Z" fill="#EA556F"/>
<path fill-rule="evenodd" clip-rule="evenodd" d="M43.8425 34.2921C43.9615 34.7131 44.0764 35.4851 44.1019 36.1061C44.1296 36.7293 44.0636 37.2078 43.9041 37.6012C43.7467 37.9925 43.4915 38.3009 43.1917 38.4923C42.8918 38.6837 42.5452 38.756 42.2261 38.7135C41.9093 38.6688 41.62 38.5093 41.4052 38.3158C41.1904 38.1244 41.0543 37.8926 40.9948 37.6352C40.9374 37.3758 40.9586 37.0908 40.982 36.8909C41.0075 36.6952 41.0352 36.5868 40.982 36.5208C40.9289 36.457 40.7949 36.4379 40.5673 36.4464C40.3419 36.4549 40.025 36.4953 39.7464 36.4315C39.4678 36.3656 39.2317 36.1997 39.0616 35.9636C38.8936 35.7276 38.7979 35.4213 38.8277 35.13C38.8574 34.8344 39.0148 34.5536 39.2466 34.3112C39.4806 34.0687 39.7932 33.8667 40.2143 33.7349C40.6354 33.603 41.167 33.5413 41.7306 33.552C42.2921 33.5583 42.8897 33.637 43.2448 33.7136C43.6043 33.7923 43.7234 33.8688 43.8425 34.2921Z" fill="#EA556F"/>
<path fill-rule="evenodd" clip-rule="evenodd" d="M35.3417 34.7062C34.5016 34.77 33.0129 34.704 31.8304 34.5169C30.6501 34.3319 29.7803 34.032 29.0997 33.5833C28.4213 33.1345 27.9386 32.5412 27.6897 31.9032C27.443 31.2673 27.4388 30.5888 27.6387 30.0019C27.8386 29.4192 28.2469 28.9343 28.6935 28.6025C29.1359 28.2686 29.6187 28.0963 30.1248 28.0836C30.6331 28.0708 31.1648 28.2154 31.5285 28.3367C31.89 28.4558 32.0814 28.5515 32.2218 28.4728C32.3621 28.3983 32.4493 28.1516 32.5153 27.722C32.5854 27.2946 32.628 26.6799 32.8555 26.1802C33.0788 25.6783 33.485 25.2933 33.9912 25.0658C34.5016 24.8382 35.1077 24.7659 35.6458 24.9339C36.186 25.0998 36.6581 25.5017 37.0239 26.0355C37.3918 26.5651 37.6555 27.2286 37.747 28.0729C37.8363 28.9151 37.7512 29.9402 37.5258 30.9993C37.2961 32.0584 36.9282 33.1515 36.6475 33.7959C36.371 34.4403 36.1796 34.6424 35.3417 34.7062Z" fill="#EA556F"/>
<path fill-rule="evenodd" clip-rule="evenodd" d="M41.177 59.3978C41.245 60.1698 41.2046 61.5394 41.0515 62.6262C40.8962 63.7129 40.6347 64.5168 40.2327 65.1485C39.8329 65.778 39.2948 66.231 38.7142 66.467C38.1358 66.701 37.5169 66.7159 36.9767 66.5393C36.4408 66.3628 35.9899 65.9949 35.6794 65.5908C35.3689 65.1889 35.2052 64.7465 35.186 64.2808C35.1669 63.815 35.2924 63.3259 35.3987 62.9898C35.5029 62.656 35.5858 62.4794 35.5135 62.3497C35.4433 62.2221 35.2158 62.1455 34.8223 62.0902C34.4289 62.0328 33.8675 62.0009 33.406 61.7989C32.9466 61.6011 32.5872 61.2332 32.3702 60.7717C32.1533 60.3081 32.081 59.753 32.2256 59.2553C32.3702 58.7577 32.7339 58.3175 33.2167 57.9751C33.6952 57.6284 34.2992 57.3774 35.0712 57.2817C35.841 57.1882 36.7811 57.252 37.753 57.4455C38.7249 57.639 39.7287 57.9644 40.3242 58.2132C40.9175 58.4578 41.1047 58.6301 41.177 59.3978Z" fill="#EA556F"/>
<path fill-rule="evenodd" clip-rule="evenodd" d="M70.5294 66.667C70.8123 67.1072 71.2163 67.943 71.463 68.6427C71.7097 69.3424 71.8012 69.906 71.7586 70.41C71.714 70.914 71.5332 71.3543 71.2589 71.6775C70.9845 71.9987 70.6187 72.2028 70.238 72.2666C69.8616 72.3283 69.4767 72.2475 69.1641 72.1029C68.8536 71.9583 68.6154 71.7456 68.4601 71.4734C68.3027 71.1969 68.2262 70.8651 68.1836 70.6312C68.1432 70.3973 68.139 70.2654 68.0539 70.2101C67.971 70.1569 67.8115 70.1803 67.5584 70.2718C67.3053 70.359 66.9586 70.5163 66.6184 70.5397C66.2802 70.5653 65.9485 70.4568 65.6762 70.2484C65.4019 70.0378 65.185 69.7273 65.1169 69.3828C65.0467 69.0383 65.1275 68.6619 65.3104 68.3046C65.4891 67.9473 65.7741 67.607 66.2079 67.3093C66.6396 67.0115 67.2224 66.7542 67.8668 66.5649C68.5112 66.3799 69.213 66.2587 69.6489 66.2225C70.0828 66.1821 70.2487 66.2289 70.5294 66.667Z" fill="#EA556F"/>
<path fill-rule="evenodd" clip-rule="evenodd" d="M70.0579 34.8166C69.2008 33.3704 68.012 30.6355 67.2974 28.3556C66.5871 26.0758 66.3553 24.2489 66.5552 22.6348C66.7615 21.0248 67.3952 19.6276 68.3161 18.6238C69.237 17.6221 70.4449 17.0096 71.6678 16.8543C72.8864 16.6991 74.1157 17.0011 75.0982 17.5072C76.0829 18.0134 76.8187 18.7237 77.2887 19.6212C77.7608 20.5208 77.9693 21.6054 78.0735 22.3604C78.1798 23.1175 78.1777 23.545 78.4393 23.7279C78.6987 23.9129 79.2176 23.8534 80.0428 23.596C80.8701 23.3387 82.0058 22.8793 83.0946 22.8432C84.1899 22.8028 85.2405 23.1898 86.0933 23.898C86.9483 24.6041 87.6097 25.6356 87.7862 26.7521C87.9648 27.8644 87.6607 29.0617 87.0376 30.191C86.4102 31.3203 85.4596 32.3751 84.0304 33.2832C82.6012 34.1892 80.6978 34.9399 78.603 35.4652C76.5125 35.9927 74.2326 36.2925 72.8332 36.3606C71.4317 36.4286 70.9107 36.2649 70.0579 34.8166Z" fill="#EA556F"/>
<path fill-rule="evenodd" clip-rule="evenodd" d="M48.407 54.3826C47.854 54.1699 46.931 53.6744 46.2377 53.2001C45.5423 52.7259 45.0808 52.2729 44.7852 51.7816C44.4896 51.2925 44.362 50.7672 44.396 50.2887C44.4321 49.8102 44.6321 49.3784 44.9362 49.0679C45.2382 48.7596 45.6444 48.5724 46.0272 48.498C46.41 48.4214 46.7673 48.4576 47.0927 48.6022C47.4181 48.7468 47.7137 49.002 47.9072 49.1892C48.1007 49.3742 48.1922 49.4912 48.3049 49.4848C48.4176 49.4784 48.5473 49.3487 48.7196 49.0977C48.8919 48.8468 49.1045 48.4703 49.398 48.2215C49.6915 47.9727 50.0658 47.8493 50.4571 47.8578C50.8463 47.8663 51.2525 48.0046 51.546 48.2747C51.8374 48.5448 52.016 48.9403 52.0883 49.3891C52.1606 49.8378 52.1287 50.3376 51.9331 50.899C51.7353 51.4626 51.3737 52.0879 50.908 52.6919C50.4465 53.2937 49.8829 53.8764 49.5107 54.1997C49.1386 54.5251 48.9599 54.5931 48.407 54.3826Z" fill="#EA556F"/>
<path fill-rule="evenodd" clip-rule="evenodd" d="M83.803 52.7497C84.5856 52.0372 85.7978 50.6144 86.6443 49.3788C87.4907 48.1389 87.9628 47.0841 88.1372 46.0782C88.3116 45.0722 88.1861 44.1194 87.8161 43.3453C87.446 42.5755 86.8314 41.9864 86.1275 41.6695C85.4235 41.3526 84.6281 41.3058 83.9455 41.4292C83.2649 41.5525 82.6928 41.8439 82.2462 42.2969C81.7975 42.7498 81.4742 43.3623 81.2722 43.7983C81.0702 44.2322 80.9915 44.4874 80.8022 44.5512C80.6129 44.615 80.313 44.4831 79.8643 44.1769C79.4156 43.8706 78.8158 43.3857 78.1672 43.1624C77.5185 42.9412 76.8188 42.9774 76.1766 43.2454C75.5322 43.5133 74.9452 44.011 74.6368 44.6469C74.3242 45.2849 74.2881 46.059 74.4582 46.8523C74.6262 47.6434 75.0026 48.4537 75.6959 49.2597C76.385 50.0657 77.3931 50.8675 78.5542 51.5672C79.7133 52.269 81.0276 52.8666 81.8549 53.1665C82.6801 53.4664 83.0246 53.4621 83.803 52.7497Z" fill="#EA556F"/>
<path fill-rule="evenodd" clip-rule="evenodd" d="M50.1715 103.037C52.8235 96.7254 52.8788 89.7412 53.0702 82.889C53.3701 72.3149 51.4433 62.2386 39.7549 56.875C39.6358 56.7878 39.5316 56.7049 39.4401 56.624C38.1109 55.4352 40.0186 52.4493 42.6472 53.8572C44.1529 54.659 45.6735 55.5352 47.3196 56.4241C48.9636 57.3131 50.0737 57.8299 50.9903 57.6598C51.9091 57.4854 52.6364 56.6262 53.3021 54.3591C53.9656 52.0899 54.5696 48.417 54.8694 45.9649C55.1693 43.5107 54.9077 42.6834 55.3033 42.0816C56.1008 40.8693 58.7911 41.0246 59.5546 41.988C59.9183 42.4474 59.8226 43.1662 59.9034 44.8591C59.9821 46.5519 60.2351 49.2209 60.3627 50.6139C60.4882 52.0048 60.4882 52.1197 60.5031 52.881C60.5201 53.6403 60.552 55.046 60.6307 55.8074C60.7094 56.5687 60.837 56.6815 61.3581 56.9983C61.8812 57.3131 62.8 57.8299 64.4928 56.4816C66.1857 55.1332 68.6569 51.9176 69.9542 49.9823C71.2515 48.0449 71.3791 47.3835 71.8853 47.2835C72.3914 47.1836 73.2783 47.6429 73.659 48.2746C74.0375 48.9062 73.912 49.708 72.7402 51.79C71.5684 53.8699 69.3524 57.228 68.2125 58.9656C67.0725 60.701 67.0172 60.8179 66.5515 61.8621C58.4572 82.6444 65.3584 100.615 67.702 103.037H50.1715Z" fill="#CC6F3C"/>
<path fill-rule="evenodd" clip-rule="evenodd" d="M27.2716 45.8742C26.9292 46.6462 26.1657 47.9307 25.4426 48.8835C24.7217 49.8363 24.0454 50.4637 23.3287 50.8507C22.6141 51.2378 21.8634 51.3845 21.1828 51.2995C20.5086 51.2165 19.911 50.8996 19.49 50.4466C19.071 49.9937 18.8371 49.4046 18.7562 48.8537C18.6733 48.305 18.7499 47.7968 18.9795 47.3438C19.2092 46.8887 19.5857 46.4888 19.8643 46.2251C20.1407 45.9635 20.3151 45.8402 20.3151 45.6786C20.313 45.519 20.1386 45.3255 19.7919 45.0639C19.4474 44.8002 18.9306 44.4706 18.5967 44.0325C18.2628 43.6007 18.1161 43.0584 18.1544 42.5034C18.1948 41.9462 18.4181 41.3783 18.82 40.9806C19.222 40.5829 19.8005 40.3575 20.4406 40.2873C21.0807 40.2108 21.7911 40.2937 22.5758 40.6127C23.3584 40.9317 24.2198 41.4932 25.0449 42.1929C25.868 42.8947 26.6527 43.739 27.0887 44.2919C27.5247 44.8406 27.6097 45.1043 27.2716 45.8742Z" fill="#EA556F"/>
<path fill-rule="evenodd" clip-rule="evenodd" d="M86.4339 54.268C86.5828 53.462 87.0081 52.0796 87.4739 51.0162C87.9396 49.9529 88.433 49.2085 89.0179 48.6811C89.6049 48.1558 90.2833 47.8432 90.9404 47.7687C91.5955 47.6922 92.2335 47.8538 92.7311 48.1877C93.2288 48.5195 93.5797 49.0235 93.7817 49.5212C93.9838 50.0188 94.0284 50.5143 93.9157 50.9928C93.8051 51.4735 93.5372 51.9414 93.3351 52.2497C93.1331 52.5624 92.9991 52.7176 93.0353 52.8665C93.0714 53.0196 93.2798 53.1621 93.6669 53.3301C94.054 53.5024 94.6154 53.6938 95.0259 54.0255C95.4406 54.3637 95.7022 54.8358 95.7894 55.3675C95.8808 55.9034 95.7957 56.4925 95.5065 56.9561C95.2194 57.424 94.726 57.7686 94.1369 57.9791C93.552 58.1939 92.863 58.2832 92.0548 58.1577C91.2424 58.0344 90.3024 57.7026 89.3667 57.2284C88.4352 56.7584 87.4994 56.1395 86.9656 55.7141C86.4318 55.2973 86.2893 55.0719 86.4339 54.268Z" fill="#EA556F"/>
<path fill-rule="evenodd" clip-rule="evenodd" d="M28.0583 56.1719C28.3093 56.9524 28.59 58.371 28.6836 59.5258C28.7793 60.6848 28.6963 61.5759 28.4326 62.3181C28.1668 63.0604 27.7159 63.6558 27.1736 64.0344C26.6334 64.4151 25.9954 64.5767 25.3999 64.5193C24.8045 64.464 24.2558 64.1875 23.841 63.8451C23.4285 63.5027 23.1541 63.088 23.0265 62.6116C22.8968 62.1374 22.9095 61.5993 22.9414 61.2293C22.9712 60.8592 23.0159 60.6572 22.9138 60.5445C22.8096 60.4275 22.5565 60.402 22.1376 60.4381C21.7165 60.47 21.1316 60.5678 20.6106 60.4721C20.0874 60.3722 19.6323 60.0808 19.3026 59.6555C18.9687 59.228 18.7646 58.6666 18.7986 58.1221C18.8326 57.5734 19.1006 57.0354 19.5196 56.5696C19.9343 56.1017 20.4957 55.6977 21.2699 55.4233C22.0418 55.1447 23.0265 54.9895 24.0729 54.9618C25.1171 54.9342 26.2315 55.0299 26.9056 55.1511C27.5734 55.2638 27.8052 55.3936 28.0583 56.1719Z" fill="#EA556F"/>
<path fill-rule="evenodd" clip-rule="evenodd" d="M46.3565 66.667C46.6373 67.1072 47.0435 67.943 47.288 68.6427C47.5347 69.3424 47.6283 69.906 47.5858 70.41C47.5411 70.914 47.3603 71.3543 47.086 71.6775C46.8117 71.9987 46.4437 72.2028 46.0652 72.2666C45.6887 72.3283 45.3038 72.2475 44.9912 72.1029C44.6786 71.9583 44.4425 71.7456 44.2872 71.4734C44.1299 71.1969 44.0512 70.8651 44.0108 70.6312C43.9704 70.3973 43.964 70.2654 43.881 70.2101C43.7981 70.1569 43.6386 70.1803 43.3855 70.2718C43.1303 70.359 42.7837 70.5163 42.4455 70.5397C42.1052 70.5653 41.7756 70.4568 41.5012 70.2484C41.2269 70.0378 41.01 69.7273 40.9419 69.3828C40.8739 69.0383 40.9547 68.6619 41.1355 68.3046C41.3162 67.9473 41.6012 67.607 42.0329 67.3093C42.4646 67.0115 43.0495 66.7542 43.6918 66.5649C44.3383 66.3799 45.0401 66.2587 45.4761 66.2225C45.9078 66.1821 46.0737 66.2289 46.3565 66.667Z" fill="#EA556F"/>
<path fill-rule="evenodd" clip-rule="evenodd" d="M33.7646 21.247C32.8586 21.2172 31.272 20.9748 30.0322 20.6388C28.7923 20.3049 27.8948 19.8838 27.2207 19.3266C26.5465 18.7694 26.0956 18.0782 25.9042 17.3679C25.7149 16.6597 25.7872 15.9366 26.068 15.3326C26.3487 14.7308 26.8442 14.2586 27.3589 13.9545C27.8672 13.6504 28.401 13.5207 28.9475 13.5674C29.4899 13.6121 30.0428 13.829 30.4171 13.9992C30.7893 14.1693 30.9828 14.2926 31.1423 14.2267C31.3018 14.1587 31.4252 13.9056 31.5421 13.4547C31.6676 13.006 31.7825 12.3552 32.0844 11.8448C32.3801 11.3365 32.8586 10.9707 33.4264 10.7857C33.9942 10.5985 34.6514 10.5943 35.2086 10.8346C35.7679 11.0749 36.2252 11.5577 36.5569 12.1702C36.8908 12.7784 37.095 13.5207 37.0929 14.4309C37.095 15.3432 36.8844 16.43 36.5229 17.5359C36.1571 18.6397 35.6382 19.7668 35.2639 20.4261C34.8917 21.0811 34.6663 21.2747 33.7646 21.247Z" fill="#EA556F"/>
<path fill-rule="evenodd" clip-rule="evenodd" d="M26.1252 29.8506C25.719 30.2802 24.9108 30.9501 24.209 31.4116C23.5072 31.8753 22.9117 32.1305 22.3481 32.2177C21.7846 32.307 21.2508 32.2262 20.8212 32.0114C20.3937 31.7966 20.0704 31.4478 19.9003 31.048C19.728 30.6503 19.711 30.2037 19.7876 29.8208C19.862 29.438 20.0321 29.1212 20.2895 28.8723C20.5468 28.6256 20.8935 28.4491 21.138 28.3407C21.3847 28.2322 21.5272 28.1897 21.5655 28.0833C21.6017 27.9791 21.5315 27.809 21.3635 27.5538C21.1955 27.2986 20.9317 26.9583 20.8127 26.5925C20.6957 26.2246 20.7212 25.8311 20.8786 25.4717C21.0338 25.1144 21.3188 24.7912 21.6782 24.621C22.0376 24.453 22.4715 24.4381 22.9117 24.5423C23.3541 24.6465 23.8049 24.8635 24.2494 25.259C24.6918 25.6567 25.132 26.2288 25.5148 26.8902C25.8934 27.5474 26.2166 28.2896 26.3761 28.7575C26.5356 29.2254 26.5293 29.4189 26.1252 29.8506Z" fill="#EA556F"/>
<path fill-rule="evenodd" clip-rule="evenodd" d="M80.6516 20.4492C80.2284 19.6474 79.6542 18.1438 79.3288 16.8997C79.0055 15.6535 78.9268 14.6645 79.0778 13.8032C79.2267 12.9398 79.6031 12.2061 80.1263 11.6893C80.6452 11.1725 81.3088 10.8769 81.9723 10.8216C82.6316 10.7705 83.2866 10.9662 83.8034 11.2639C84.3202 11.5553 84.6966 11.9572 84.9284 12.4549C85.1581 12.9504 85.2432 13.5374 85.2815 13.9478C85.3176 14.3583 85.3049 14.5858 85.4431 14.6922C85.5792 14.7985 85.8599 14.7794 86.3087 14.6603C86.7617 14.5454 87.3805 14.3243 87.9739 14.3349C88.5609 14.3413 89.1138 14.5752 89.5562 14.9772C90.0006 15.3812 90.3282 15.9512 90.3983 16.5531C90.4643 17.1592 90.2729 17.7972 89.9049 18.3884C89.5413 18.9796 89.0011 19.5241 88.21 19.9749C87.4188 20.4258 86.3746 20.781 85.2325 21.0128C84.0969 21.2425 82.8613 21.3467 82.1063 21.3488C81.3513 21.3488 81.0727 21.2488 80.6516 20.4492Z" fill="#EA556F"/>
<path fill-rule="evenodd" clip-rule="evenodd" d="M89.9721 27.4138C90.1274 26.9119 90.5017 26.0655 90.8781 25.4254C91.2545 24.7852 91.6246 24.3492 92.0372 24.0579C92.4497 23.7686 92.9006 23.624 93.326 23.624C93.7492 23.6283 94.1405 23.7771 94.4318 24.026C94.7211 24.2748 94.9104 24.6215 94.9997 24.9532C95.0911 25.2871 95.0805 25.6061 94.972 25.9017C94.8657 26.1973 94.6615 26.4717 94.5084 26.6546C94.3574 26.8354 94.2596 26.9247 94.2723 27.0246C94.2851 27.1225 94.4063 27.2309 94.6381 27.3649C94.87 27.5032 95.2124 27.6669 95.4505 27.9115C95.6866 28.1561 95.8163 28.4793 95.8334 28.8217C95.8504 29.1684 95.7525 29.5342 95.5356 29.8085C95.3166 30.0829 94.9763 30.2636 94.5871 30.3551C94.1979 30.4487 93.7556 30.4487 93.2473 30.3104C92.7432 30.1722 92.1711 29.8893 91.6118 29.5172C91.0546 29.145 90.5081 28.6835 90.1997 28.3751C89.8913 28.0667 89.819 27.9115 89.9721 27.4138Z" fill="#EA556F"/>
<path fill-rule="evenodd" clip-rule="evenodd" d="M92.3093 45.5271C92.4135 45.1932 92.6645 44.6254 92.9154 44.1979C93.1664 43.7704 93.4152 43.4791 93.6917 43.2834C93.9682 43.0899 94.2702 42.992 94.553 42.9942C94.8359 42.9963 95.0975 43.0963 95.2931 43.2621C95.4866 43.428 95.6121 43.6598 95.6738 43.8831C95.7333 44.1043 95.727 44.3191 95.6547 44.5169C95.5823 44.7147 95.4462 44.8976 95.3442 45.0209C95.2442 45.1422 95.1783 45.2017 95.1846 45.2676C95.1953 45.3336 95.2761 45.4059 95.4313 45.4952C95.5866 45.5866 95.8142 45.6972 95.9737 45.861C96.1332 46.0247 96.2204 46.2395 96.231 46.4714C96.2416 46.701 96.1778 46.9456 96.0311 47.1306C95.8843 47.3135 95.6568 47.4348 95.3973 47.4943C95.1357 47.5581 94.8401 47.5581 94.502 47.4645C94.1638 47.3731 93.781 47.1838 93.4067 46.935C93.0345 46.6862 92.6687 46.3778 92.4625 46.1715C92.2562 45.9652 92.2072 45.861 92.3093 45.5271Z" fill="#EA556F"/>
<mask id="mask1_1909_1559" style="mask-type:luminance" maskUnits="userSpaceOnUse" x="46" y="7" width="8" height="7">
<path d="M46.7461 7.47461H53.8238V13.5145H46.7461V7.47461Z" fill="white"/>
</mask>
<g mask="url(#mask1_1909_1559)">
<path fill-rule="evenodd" clip-rule="evenodd" d="M50.5903 13.3636C50.0905 13.2041 49.2484 12.8234 48.6103 12.4428C47.9745 12.0621 47.5427 11.6878 47.2535 11.2709C46.9664 10.8562 46.8239 10.4032 46.8303 9.9779C46.8345 9.55469 46.9877 9.16337 47.2386 8.87201C47.4874 8.58278 47.8341 8.39775 48.168 8.31056C48.4998 8.22124 48.8166 8.234 49.1122 8.34246C49.4079 8.45305 49.678 8.65934 49.8609 8.81246C50.0416 8.96559 50.1288 9.06341 50.2288 9.05278C50.3266 9.04002 50.4351 8.9188 50.5712 8.68699C50.7094 8.4573 50.8774 8.1149 51.122 7.87883C51.3666 7.64277 51.6898 7.51304 52.0322 7.49815C52.3789 7.48539 52.7447 7.58535 53.0169 7.8044C53.2891 8.02558 53.4678 8.36585 53.555 8.75929C53.6464 9.14848 53.6443 9.59297 53.5018 10.0991C53.3614 10.6032 53.0743 11.1752 52.7 11.7324C52.3257 12.2896 51.8621 12.832 51.5495 13.1403C51.2432 13.4466 51.0858 13.5189 50.5903 13.3636Z" fill="#EA556F"/>
</g>
<path fill-rule="evenodd" clip-rule="evenodd" d="M68.1968 15.1854C68.7158 15.1258 69.6175 14.9153 70.315 14.6664C71.0147 14.4176 71.5103 14.1348 71.8739 13.7817C72.2355 13.4308 72.463 13.014 72.5417 12.595C72.6183 12.1803 72.5438 11.7656 72.3546 11.4317C72.1653 11.0999 71.8612 10.849 71.5528 10.698C71.2444 10.5449 70.9275 10.496 70.6192 10.547C70.3087 10.598 70.0024 10.7469 69.7919 10.8617C69.5877 10.9766 69.4792 11.0574 69.3857 11.0255C69.2921 10.9936 69.2092 10.8554 69.1198 10.6023C69.0284 10.3492 68.9327 9.97916 68.737 9.70056C68.5435 9.41984 68.25 9.23269 67.9161 9.15187C67.5801 9.07106 67.2015 9.09658 66.8932 9.26033C66.5827 9.42409 66.3402 9.72396 66.1786 10.0898C66.0148 10.4555 65.9319 10.8915 65.9702 11.4168C66.0127 11.94 66.1828 12.5546 66.4423 13.1756C66.7018 13.7945 67.0505 14.4176 67.2972 14.7792C67.5397 15.1407 67.68 15.2407 68.1968 15.1854Z" fill="#EA556F"/>
<path fill-rule="evenodd" clip-rule="evenodd" d="M41.9017 82.3914C42.7652 82.1383 44.4751 81.9852 45.3598 81.898C46.2445 81.8087 46.3062 81.7853 46.3423 81.8597C46.3806 81.9342 46.3912 82.1043 46.4933 82.3149C46.5933 82.5275 46.7847 82.7806 46.8655 82.7721C46.9442 82.7636 46.9144 82.4956 46.9803 81.9703C47.0441 81.4472 47.2058 80.6667 47.3206 80.1328C47.4354 79.599 47.5014 79.3119 47.3908 79.2907C47.2781 79.2737 46.9867 79.5225 46.7102 79.8245C46.4338 80.1265 46.1743 80.4774 45.7192 80.6667C45.2662 80.8559 44.6197 80.8793 43.9817 80.9091C43.3458 80.9389 42.7205 80.9729 42.2782 80.9431C41.8315 80.9134 41.57 80.8198 41.4041 80.6241C41.2382 80.4285 41.1701 80.1286 41.0468 79.8968C40.9256 79.6607 40.7469 79.4927 40.3322 79.2715C39.9175 79.0525 39.2646 78.7803 38.8541 78.608C38.4437 78.4336 38.2736 78.357 38.0396 78.44C37.9907 78.4591 37.9375 78.4825 37.8822 78.5144L37.844 78.4357C37.6058 77.9508 37.2038 77.3235 36.753 76.9726C36.3 76.6195 35.8002 76.5472 35.277 76.7599C34.756 76.9747 34.2094 77.4787 33.816 78.0657C33.4246 78.6505 33.1865 79.3204 33.1482 79.8691C33.1099 80.4178 33.2715 80.8474 33.5267 81.1792C33.7841 81.5131 34.1328 81.7492 34.6284 81.8768L34.6773 81.8895L34.6305 81.9554C34.3583 82.3468 34.2753 82.6147 34.6284 82.9912C34.9771 83.3676 35.764 83.8503 36.5998 84.2757C37.4378 84.701 38.3289 85.0668 38.9881 85.2944C39.6453 85.5241 40.0749 85.6176 40.3577 85.5538C40.6406 85.4922 40.7767 85.2731 40.8596 84.8776C40.9426 84.482 40.9724 83.9099 40.9979 83.4505C41.0213 82.989 41.0383 82.6402 41.9017 82.3914ZM37.2038 79.0652L37.123 79.1461C36.7444 79.5204 36.2851 80.0265 35.8257 80.5369C35.7066 80.6709 35.5875 80.8028 35.4684 80.9346C35.1069 80.7624 34.7645 80.5178 34.5709 80.2094C34.3753 79.8968 34.3285 79.5204 34.4306 79.0823C34.5348 78.6441 34.7836 78.1486 35.0495 77.8722C35.3132 77.5978 35.5896 77.5446 35.8895 77.5999C36.1915 77.6531 36.5126 77.8105 36.7402 78.1125C36.9359 78.3741 37.0613 78.7441 37.2038 79.0652Z" fill="#00CCFF"/>
<path fill-rule="evenodd" clip-rule="evenodd" d="M47.1832 84.72C47.079 84.6711 46.9046 84.5584 46.777 84.4542C46.6472 84.35 46.5643 84.2543 46.5154 84.1522C46.4643 84.0523 46.4473 83.948 46.4622 83.8545C46.475 83.7609 46.5218 83.6801 46.5877 83.6248C46.6515 83.5674 46.7323 83.5376 46.8089 83.5291C46.8854 83.5206 46.9556 83.5333 47.0173 83.5674C47.079 83.5993 47.1321 83.6546 47.1683 83.695C47.2023 83.7332 47.2193 83.7566 47.2406 83.7588C47.264 83.7588 47.2895 83.7354 47.3278 83.6886C47.3661 83.6418 47.4129 83.5716 47.4745 83.5291C47.5362 83.4823 47.6128 83.4653 47.6893 83.4738C47.7638 83.4823 47.8425 83.5142 47.8956 83.5716C47.9488 83.629 47.9764 83.7099 47.9849 83.7992C47.9913 83.8885 47.9764 83.9863 47.9296 84.0927C47.8829 84.2011 47.802 84.316 47.7021 84.4287C47.6 84.5393 47.4809 84.6456 47.4022 84.7009C47.3257 84.7604 47.2895 84.7711 47.1832 84.72Z" fill="#EA556F"/>
<path fill-rule="evenodd" clip-rule="evenodd" d="M48.9859 86.8766C48.8817 86.8256 48.7073 86.715 48.5797 86.6108C48.4521 86.5066 48.367 86.4109 48.3181 86.3088C48.2671 86.2088 48.2501 86.1046 48.2649 86.0111C48.2798 85.9175 48.3245 85.8367 48.3904 85.7792C48.4542 85.7239 48.5372 85.6942 48.6137 85.6857C48.6882 85.675 48.7583 85.6878 48.82 85.7218C48.8817 85.7559 48.9349 85.8111 48.971 85.8494C49.005 85.8898 49.0221 85.9132 49.0433 85.9132C49.0667 85.9154 49.0944 85.892 49.1305 85.8452C49.1688 85.7984 49.2177 85.7282 49.2773 85.6835C49.3389 85.6389 49.4155 85.6219 49.4921 85.6282C49.5686 85.6368 49.6452 85.6708 49.6984 85.7282C49.7515 85.7856 49.7792 85.8664 49.7877 85.9558C49.7941 86.043 49.7792 86.1429 49.7324 86.2492C49.6856 86.3556 49.6048 86.4726 49.5048 86.5853C49.4049 86.6959 49.2836 86.8001 49.205 86.8575C49.1284 86.917 49.0922 86.9277 48.9859 86.8766Z" fill="#EA556F"/>
<path fill-rule="evenodd" clip-rule="evenodd" d="M47.0855 89.0329C46.9813 88.9818 46.8069 88.8712 46.6793 88.767C46.5496 88.6628 46.4667 88.565 46.4156 88.465C46.3667 88.3651 46.3497 88.2609 46.3646 88.1673C46.3773 88.0737 46.4241 87.9908 46.4901 87.9355C46.5539 87.8802 46.6347 87.8504 46.7112 87.8419C46.7878 87.8313 46.858 87.844 46.9197 87.8781C46.9813 87.9121 47.0345 87.9653 47.0685 88.0057C47.1047 88.044 47.1196 88.0695 47.143 88.0695C47.1642 88.0716 47.194 88.0482 47.2302 88.0014C47.2684 87.9546 47.3152 87.8845 47.3769 87.8398C47.4386 87.7951 47.513 87.7781 47.5896 87.7845C47.6661 87.793 47.7448 87.827 47.7959 87.8845C47.8512 87.9419 47.8788 88.0227 47.8852 88.1099C47.8937 88.1992 47.8788 88.297 47.832 88.4055C47.7852 88.5118 47.7044 88.6288 47.6045 88.7394C47.5024 88.8521 47.3833 88.9563 47.3046 89.0137C47.228 89.0712 47.1898 89.0818 47.0855 89.0329Z" fill="#EA556F"/>
<path fill-rule="evenodd" clip-rule="evenodd" d="M49.1363 90.3861C49.0321 90.335 48.8577 90.2244 48.7301 90.1202C48.6004 90.016 48.5174 89.9203 48.4664 89.8182C48.4175 89.7183 48.4005 89.6141 48.4154 89.5205C48.4281 89.4269 48.4749 89.3461 48.5387 89.2908C48.6025 89.2334 48.6855 89.2036 48.762 89.1951C48.8386 89.1866 48.9088 89.1994 48.9704 89.2313C49.0321 89.2653 49.0853 89.3206 49.1193 89.361C49.1555 89.3993 49.1704 89.4227 49.1937 89.4248C49.215 89.4248 49.2427 89.4014 49.2809 89.3546C49.3192 89.3078 49.366 89.2376 49.4277 89.1951C49.4894 89.1483 49.5638 89.1313 49.6404 89.1398C49.7169 89.1483 49.7935 89.1802 49.8466 89.2376C49.9019 89.2951 49.9296 89.3759 49.936 89.4652C49.9445 89.5545 49.9296 89.6523 49.8828 89.7587C49.836 89.865 49.7552 89.9841 49.6531 90.0947C49.5532 90.2053 49.4341 90.3095 49.3554 90.3669C49.2767 90.4265 49.2405 90.4371 49.1363 90.3861Z" fill="#EA556F"/>
<path fill-rule="evenodd" clip-rule="evenodd" d="M48.6382 82.4235C48.534 82.3725 48.3596 82.2619 48.232 82.1577C48.1023 82.0535 48.0194 81.9578 47.9705 81.8557C47.9194 81.7557 47.9024 81.6515 47.9173 81.5579C47.9301 81.4644 47.9768 81.3814 48.0428 81.3261C48.1044 81.2708 48.1874 81.2411 48.2639 81.2325C48.3405 81.2219 48.4107 81.2347 48.4724 81.2687C48.534 81.3027 48.5872 81.3559 48.6234 81.3963C48.6574 81.4367 48.6723 81.4601 48.6957 81.4622C48.7191 81.4622 48.7446 81.4388 48.7829 81.392C48.8211 81.3453 48.8679 81.2751 48.9296 81.2304C48.9913 81.1858 49.0657 81.1687 49.1423 81.1751C49.2188 81.1836 49.2975 81.2177 49.3507 81.2751C49.4039 81.3325 49.4315 81.4112 49.4379 81.5026C49.4464 81.592 49.4315 81.6877 49.3847 81.7961C49.3379 81.9025 49.255 82.0194 49.1572 82.13C49.0551 82.2427 48.936 82.3469 48.8573 82.4044C48.7807 82.4618 48.7446 82.4745 48.6382 82.4235Z" fill="#EA556F"/>
<path fill-rule="evenodd" clip-rule="evenodd" d="M47.7359 94.1833C47.6317 94.1322 47.4573 94.0216 47.3297 93.9174C47.2021 93.8132 47.117 93.7154 47.0681 93.6154C47.0171 93.5155 47.0001 93.4091 47.0149 93.3177C47.0298 93.2241 47.0745 93.1412 47.1404 93.0859C47.2042 93.0306 47.2872 93.0008 47.3637 92.9923C47.4382 92.9817 47.5083 92.9944 47.57 93.0285C47.6317 93.0625 47.6849 93.1157 47.721 93.1561C47.755 93.1943 47.7721 93.2199 47.7933 93.2199C47.8167 93.2199 47.8444 93.1965 47.8805 93.1518C47.9188 93.105 47.9677 93.0348 48.0273 92.9902C48.0889 92.9455 48.1655 92.9285 48.2421 92.9349C48.3186 92.9434 48.3952 92.9774 48.4484 93.0348C48.5015 93.0901 48.5292 93.171 48.5377 93.2603C48.5441 93.3496 48.5313 93.4474 48.4824 93.5559C48.4356 93.6622 48.3548 93.7792 48.2548 93.8898C48.1527 94.0025 48.0336 94.1067 47.9571 94.1641C47.8784 94.2216 47.8422 94.2322 47.7359 94.1833Z" fill="#EA556F"/>
<path fill-rule="evenodd" clip-rule="evenodd" d="M50.3767 95.0885C50.2704 95.0375 50.0981 94.9269 49.9684 94.8227C49.8408 94.7185 49.7578 94.6228 49.7068 94.5207C49.6557 94.4208 49.6387 94.3165 49.6536 94.223C49.6685 94.1294 49.7153 94.0486 49.7791 93.9912C49.8429 93.9359 49.9258 93.9061 50.0024 93.8976C50.079 93.8869 50.147 93.8997 50.2087 93.9337C50.2704 93.9678 50.3235 94.0231 50.3597 94.0613C50.3937 94.1017 50.4107 94.1251 50.4341 94.1251C50.4554 94.1273 50.483 94.1039 50.5213 94.0571C50.5575 94.0103 50.6064 93.9401 50.6681 93.8955C50.7276 93.8508 50.8042 93.8338 50.8807 93.8402C50.9573 93.8487 51.0339 93.8827 51.087 93.9401C51.1402 93.9975 51.17 94.0784 51.1763 94.1677C51.1827 94.257 51.17 94.3548 51.1232 94.4612C51.0743 94.5675 50.9935 94.6845 50.8935 94.7972C50.7935 94.9078 50.6744 95.012 50.5958 95.0694C50.5171 95.129 50.4809 95.1396 50.3767 95.0885Z" fill="#EA556F"/>
<path fill-rule="evenodd" clip-rule="evenodd" d="M47.4598 96.8285C47.3555 96.7774 47.1812 96.6668 47.0514 96.5626C46.9238 96.4584 46.8409 96.3627 46.7898 96.2606C46.7388 96.1607 46.7218 96.0565 46.7388 95.9629C46.7516 95.8693 46.7983 95.7885 46.8622 95.7311C46.926 95.6758 47.0089 95.646 47.0855 95.6375C47.162 95.629 47.2301 95.6417 47.2917 95.6736C47.3534 95.7077 47.4066 95.7608 47.4427 95.8012C47.4768 95.8417 47.4938 95.865 47.5172 95.8672C47.5384 95.8672 47.5661 95.8438 47.6044 95.797C47.6427 95.7502 47.6894 95.68 47.7511 95.6354C47.8128 95.5907 47.8872 95.5737 47.9638 95.5822C48.0404 95.5886 48.1169 95.6226 48.1701 95.68C48.2232 95.7374 48.253 95.8183 48.2594 95.9076C48.2679 95.9969 48.253 96.0947 48.2062 96.2011C48.1573 96.3095 48.0765 96.4244 47.9765 96.535C47.8766 96.6477 47.7575 96.7519 47.6788 96.8093C47.6001 96.8667 47.564 96.8795 47.4598 96.8285Z" fill="#EA556F"/>
<path fill-rule="evenodd" clip-rule="evenodd" d="M50.7244 99.681C50.6202 99.63 50.4458 99.5173 50.316 99.4152C50.1884 99.311 50.1055 99.2131 50.0544 99.1132C50.0034 99.0132 49.9864 98.9069 50.0013 98.8133C50.0162 98.7219 50.063 98.6389 50.1268 98.5836C50.1906 98.5283 50.2735 98.4986 50.3501 98.4879C50.4266 98.4794 50.4968 98.4922 50.5585 98.5262C50.6202 98.5602 50.6733 98.6134 50.7073 98.6538C50.7414 98.6921 50.7584 98.7176 50.7818 98.7176C50.803 98.7176 50.8307 98.6942 50.869 98.6474C50.9073 98.6028 50.954 98.5305 51.0157 98.4879C51.0774 98.4433 51.1518 98.4241 51.2284 98.4326C51.305 98.4411 51.3815 98.4752 51.4347 98.5305C51.4879 98.5879 51.5176 98.6708 51.524 98.7601C51.5325 98.8473 51.5176 98.9452 51.4708 99.0536C51.424 99.16 51.3411 99.2769 51.2412 99.3875C51.1412 99.4981 51.0221 99.6045 50.9434 99.6619C50.8647 99.7193 50.8286 99.7299 50.7244 99.681Z" fill="#EA556F"/>
<path fill-rule="evenodd" clip-rule="evenodd" d="M49.0553 102.325C48.9511 102.274 48.7767 102.163 48.6491 102.059C48.5194 101.955 48.4364 101.859 48.3854 101.757C48.3365 101.657 48.3194 101.553 48.3322 101.459C48.3492 101.366 48.3939 101.285 48.4577 101.227C48.5236 101.172 48.6044 101.142 48.681 101.134C48.7575 101.123 48.8277 101.136 48.8894 101.17C48.9511 101.204 49.0042 101.259 49.0383 101.298C49.0744 101.338 49.0914 101.361 49.1127 101.364C49.134 101.364 49.1616 101.34 49.1999 101.293C49.2382 101.247 49.285 101.176 49.3466 101.132C49.4083 101.087 49.4849 101.07 49.5593 101.076C49.6359 101.085 49.7146 101.119 49.7677 101.176C49.8209 101.234 49.8486 101.315 49.8549 101.404C49.8634 101.491 49.8486 101.591 49.8018 101.697C49.755 101.804 49.6742 101.921 49.5721 102.034C49.4721 102.144 49.353 102.248 49.2743 102.306C49.1978 102.365 49.1616 102.376 49.0553 102.325Z" fill="#EA556F"/>
<path fill-rule="evenodd" clip-rule="evenodd" d="M70.2751 83.1096C69.5392 82.814 68.0526 82.5312 67.2849 82.3759C66.515 82.2228 66.464 82.1973 66.4236 82.2589C66.3874 82.3206 66.3619 82.4695 66.2534 82.646C66.1471 82.8225 65.9578 83.0267 65.8876 83.0118C65.8175 82.999 65.8685 82.7651 65.8579 82.2994C65.8451 81.8336 65.7707 81.136 65.7154 80.6575C65.6622 80.179 65.6282 79.9217 65.7281 79.9153C65.8281 79.9068 66.062 80.1514 66.279 80.4406C66.4938 80.7277 66.6937 81.0595 67.0743 81.2658C67.4572 81.4699 68.0207 81.5486 68.5779 81.6294C69.133 81.7103 69.6796 81.7953 70.0709 81.806C70.4643 81.8187 70.7025 81.7592 70.8642 81.6018C71.0258 81.4444 71.113 81.1892 71.2406 80.9935C71.3682 80.8 71.5383 80.666 71.9233 80.5087C72.3061 80.3513 72.9015 80.1705 73.278 80.0535C73.6523 79.9366 73.8075 79.8834 74.0053 79.9791C74.0478 79.9982 74.0904 80.0238 74.1372 80.0557L74.1776 79.9897C74.4285 79.5857 74.8347 79.0689 75.2622 78.8009C75.6875 78.5308 76.1342 78.5095 76.5744 78.7435C77.0146 78.9774 77.4485 79.4666 77.7419 80.0153C78.0354 80.564 78.1886 81.1701 78.1737 81.655C78.1609 82.1398 77.9823 82.5035 77.7271 82.7736C77.474 83.0416 77.1465 83.2181 76.702 83.2883L76.6573 83.2968L76.6914 83.3585C76.8976 83.7243 76.9466 83.9667 76.6063 84.2666C76.266 84.5664 75.5344 84.9216 74.7624 85.2215C73.9925 85.5213 73.1801 85.7659 72.5825 85.9105C71.9849 86.053 71.6 86.0977 71.3576 86.019C71.1151 85.9382 71.0151 85.7361 70.9747 85.381C70.9365 85.0279 70.9599 84.5239 70.9769 84.1177C70.996 83.7115 71.0109 83.4052 70.2751 83.1096ZM74.6859 80.6001L74.7497 80.6767C75.0495 81.0382 75.4068 81.521 75.7662 82.0101C75.8598 82.1356 75.9534 82.2632 76.0448 82.3887C76.3787 82.2696 76.6999 82.0846 76.8976 81.8293C77.0954 81.5741 77.1677 81.2466 77.1167 80.8532C77.0635 80.4619 76.887 80.0025 76.6786 79.7388C76.4723 79.4751 76.232 79.4049 75.964 79.4262C75.696 79.4474 75.4004 79.558 75.175 79.8026C74.9793 80.0153 74.839 80.3279 74.6859 80.6001Z" fill="#FF6600"/>
<path fill-rule="evenodd" clip-rule="evenodd" d="M66.0413 85.1759C66.1413 85.1163 66.3008 84.9909 66.4156 84.8781C66.5326 84.7633 66.6028 84.6591 66.6411 84.5549C66.6793 84.4507 66.6836 84.3465 66.6581 84.2529C66.6326 84.1636 66.5773 84.0849 66.5049 84.036C66.4348 83.9849 66.3497 83.9636 66.2731 83.9615C66.1966 83.9573 66.1285 83.9764 66.0711 84.0147C66.0116 84.053 65.9669 84.1125 65.935 84.1529C65.9052 84.1976 65.8925 84.2231 65.8712 84.2252C65.8478 84.2274 65.818 84.2061 65.7755 84.1636C65.733 84.121 65.6755 84.053 65.6096 84.0147C65.5437 83.9764 65.465 83.9636 65.3905 83.9785C65.3161 83.9934 65.2417 84.0338 65.1949 84.0955C65.1502 84.1572 65.1311 84.2401 65.1353 84.3273C65.1375 84.4166 65.163 84.5123 65.2247 84.6165C65.2842 84.7186 65.3799 84.8271 65.4905 84.9292C65.6053 85.0313 65.7372 85.1248 65.8223 85.1759C65.9073 85.2269 65.9435 85.2333 66.0413 85.1759Z" fill="#EA556F"/>
<path fill-rule="evenodd" clip-rule="evenodd" d="M64.5079 87.4705C64.6057 87.411 64.7652 87.2855 64.8822 87.1707C64.997 87.058 65.0693 86.9538 65.1076 86.8495C65.1438 86.7453 65.1502 86.639 65.1246 86.5476C65.097 86.4561 65.0417 86.3795 64.9715 86.3306C64.8992 86.2796 64.8141 86.2562 64.7376 86.2541C64.661 86.2519 64.593 86.2711 64.5355 86.3094C64.4781 86.3476 64.4313 86.4072 64.4016 86.4497C64.3718 86.4901 64.359 86.5157 64.3356 86.5199C64.3144 86.522 64.2825 86.5008 64.2399 86.4561C64.1974 86.4136 64.1421 86.3476 64.074 86.3094C64.0081 86.2711 63.9316 86.2604 63.855 86.2732C63.7806 86.2881 63.7061 86.3285 63.6615 86.3902C63.6147 86.4497 63.5977 86.5327 63.5998 86.622C63.604 86.7113 63.6296 86.807 63.6891 86.9091C63.7487 87.0112 63.8444 87.1218 63.9571 87.2238C64.0719 87.3238 64.2016 87.4195 64.2867 87.4705C64.3718 87.5216 64.4101 87.5301 64.5079 87.4705Z" fill="#EA556F"/>
<path fill-rule="evenodd" clip-rule="evenodd" d="M66.6585 89.45C66.7585 89.3905 66.918 89.265 67.0328 89.1502C67.1477 89.0375 67.22 88.9354 67.2582 88.829C67.2965 88.7248 67.3008 88.6206 67.2753 88.5292C67.2497 88.4377 67.1944 88.359 67.1221 88.3101C67.052 88.2591 66.9669 88.2378 66.8903 88.2336C66.8116 88.2314 66.7457 88.2506 66.6883 88.2889C66.6287 88.3271 66.5841 88.3867 66.5522 88.4292C66.5224 88.4696 66.5096 88.4973 66.4884 88.4994C66.465 88.5015 66.4352 88.4803 66.3927 88.4377C66.3501 88.3952 66.2927 88.3293 66.2268 88.2889C66.1587 88.2506 66.0822 88.2399 66.0077 88.2527C65.9333 88.2676 65.8589 88.308 65.8121 88.3697C65.7674 88.4292 65.7483 88.5122 65.7525 88.6036C65.7547 88.6929 65.7823 88.7886 65.8419 88.8907C65.9014 88.9928 65.9971 89.1013 66.1077 89.2033C66.2225 89.3054 66.3544 89.399 66.4395 89.45C66.5245 89.5011 66.5607 89.5096 66.6585 89.45Z" fill="#EA556F"/>
<path fill-rule="evenodd" clip-rule="evenodd" d="M64.7757 90.9688C64.8757 90.9093 65.0352 90.7838 65.15 90.669C65.267 90.5563 65.3372 90.4542 65.3754 90.3478C65.4137 90.2436 65.418 90.1394 65.3924 90.048C65.3669 89.9565 65.3116 89.88 65.2393 89.8289C65.1691 89.78 65.0841 89.7566 65.0054 89.7545C64.9309 89.7502 64.8608 89.7694 64.8055 89.8077C64.7459 89.8459 64.7013 89.9055 64.6694 89.948C64.6396 89.9906 64.6268 90.0161 64.6034 90.0182C64.5822 90.0203 64.5524 89.9991 64.5099 89.9565C64.4652 89.914 64.4099 89.8481 64.344 89.8098C64.278 89.7694 64.1994 89.7587 64.1249 89.7736C64.0505 89.7864 63.9761 89.8268 63.9293 89.8885C63.8846 89.9501 63.8655 90.0331 63.8697 90.1224C63.8718 90.2117 63.8974 90.3074 63.9569 90.4095C64.0186 90.5116 64.1122 90.6201 64.227 90.7221C64.3397 90.8242 64.4716 90.9178 64.5566 90.9688C64.6396 91.0199 64.6779 91.0284 64.7757 90.9688Z" fill="#EA556F"/>
<path fill-rule="evenodd" clip-rule="evenodd" d="M64.3167 83.0174C64.4167 82.9579 64.5762 82.8324 64.691 82.7176C64.808 82.6027 64.8782 82.5006 64.9164 82.3964C64.9547 82.2922 64.959 82.1859 64.9335 82.0944C64.9079 82.003 64.8526 81.9264 64.7803 81.8775C64.7102 81.8265 64.6251 81.8031 64.5485 81.8009C64.472 81.7988 64.4039 81.818 64.3465 81.8562C64.2891 81.8945 64.2423 81.9519 64.2125 81.9945C64.1806 82.037 64.1678 82.0625 64.1466 82.0668C64.1232 82.0689 64.0934 82.0476 64.0509 82.003C64.0062 81.9604 63.9509 81.8945 63.885 81.8562C63.8191 81.818 63.7404 81.8052 63.6659 81.8201C63.5915 81.835 63.5171 81.8732 63.4724 81.9349C63.4256 81.9966 63.4065 82.0795 63.4107 82.1689C63.4129 82.2582 63.4405 82.3539 63.5001 82.456C63.5596 82.5581 63.6532 82.6686 63.7659 82.7707C63.8807 82.8707 64.0126 82.9664 64.0977 83.0174C64.1827 83.0685 64.2189 83.0748 64.3167 83.0174Z" fill="#EA556F"/>
<path fill-rule="evenodd" clip-rule="evenodd" d="M66.6294 94.6222C66.7272 94.5626 66.8867 94.4371 67.0037 94.3244C67.1185 94.2096 67.1887 94.1054 67.227 94.0033C67.2653 93.897 67.2695 93.7927 67.244 93.6992C67.2185 93.6098 67.1632 93.5312 67.093 93.4822C67.0207 93.4312 66.9356 93.4099 66.8591 93.4078C66.7825 93.4036 66.7145 93.4227 66.657 93.461C66.5996 93.4993 66.5528 93.5588 66.5209 93.6013C66.4912 93.6439 66.4784 93.6694 66.4571 93.6715C66.4359 93.6736 66.404 93.6524 66.3614 93.6098C66.3189 93.5673 66.2615 93.5014 66.1955 93.461C66.1296 93.4227 66.0509 93.4099 65.9765 93.4248C65.9021 93.4397 65.8276 93.4801 65.783 93.5418C65.7362 93.6035 65.717 93.6864 65.7213 93.7757C65.7234 93.8629 65.7511 93.9586 65.8106 94.0628C65.8702 94.1649 65.9659 94.2734 66.0786 94.3755C66.1913 94.4775 66.3231 94.5711 66.4082 94.6222C66.4933 94.6732 66.5316 94.6796 66.6294 94.6222Z" fill="#EA556F"/>
<path fill-rule="evenodd" clip-rule="evenodd" d="M67.2212 97.2254C67.319 97.1659 67.4806 97.0404 67.5955 96.9277C67.7103 96.8128 67.7826 96.7108 67.8209 96.6044C67.8592 96.5023 67.8635 96.396 67.8379 96.3046C67.8124 96.2131 67.755 96.1366 67.6848 96.0855C67.6146 96.0345 67.5296 96.0132 67.4509 96.0089C67.3743 96.0068 67.3063 96.026 67.2488 96.0642C67.1914 96.1025 67.1446 96.1621 67.1148 96.2046C67.0851 96.245 67.0702 96.2727 67.0489 96.2748C67.0277 96.2769 66.9979 96.2556 66.9532 96.2131C66.9107 96.1706 66.8554 96.1047 66.7873 96.0642C66.7214 96.026 66.6448 96.0153 66.5704 96.0281C66.4938 96.043 66.4215 96.0834 66.3748 96.1451C66.328 96.2067 66.3088 96.2897 66.3131 96.379C66.3173 96.4662 66.3429 96.5619 66.4024 96.6661C66.4619 96.7682 66.5576 96.8766 66.6704 96.9787C66.7831 97.0808 66.9149 97.1744 67 97.2254C67.0851 97.2765 67.1234 97.285 67.2212 97.2254Z" fill="#EA556F"/>
</g>
<defs>
<filter id="filter0_d_1909_1559" x="-1" y="-0.563477" width="114" height="113.999" filterUnits="userSpaceOnUse" color-interpolation-filters="sRGB">
<feFlood flood-opacity="0" result="BackgroundImageFix"/>
<feColorMatrix in="SourceAlpha" type="matrix" values="0 0 0 0 0 0 0 0 0 0 0 0 0 0 0 0 0 0 127 0" result="hardAlpha"/>
<feOffset dy="1"/>
<feGaussianBlur stdDeviation="4"/>
<feComposite in2="hardAlpha" operator="out"/>
<feColorMatrix type="matrix" values="0 0 0 0 0 0 0 0 0 0 0 0 0 0 0 0 0 0 0.55 0"/>
<feBlend mode="normal" in2="BackgroundImageFix" result="effect1_dropShadow_1909_1559"/>
<feBlend mode="normal" in="SourceGraphic" in2="effect1_dropShadow_1909_1559" result="shape"/>
</filter>
</defs>
</svg>
