<svg width="30" height="25" viewBox="0 0 30 25" fill="none" xmlns="http://www.w3.org/2000/svg">
<mask id="mask0_1719_1662" style="mask-type:luminance" maskUnits="userSpaceOnUse" x="0" y="0" width="30" height="25">
<path d="M0.245117 0.976562H29.0818V24.0724H0.245117V0.976562Z" fill="white"/>
</mask>
<g mask="url(#mask0_1719_1662)">
<path d="M18.061 3.93904L27.0442 12.7354L17.7061 21.1988V17.9446C17.7061 17.8927 17.7035 17.841 17.6984 17.7893C17.6933 17.7376 17.6857 17.6864 17.6755 17.6356C17.6655 17.5846 17.653 17.5343 17.6379 17.4847C17.6229 17.4351 17.6053 17.3861 17.5855 17.3384C17.5656 17.2904 17.5434 17.2436 17.519 17.1977C17.4944 17.152 17.4678 17.1075 17.439 17.0644C17.4103 17.0212 17.3794 16.9795 17.3465 16.9394C17.3136 16.8993 17.2786 16.861 17.242 16.8244C17.2053 16.7875 17.1669 16.7528 17.1268 16.7199C17.0866 16.6869 17.0452 16.6561 17.002 16.6274C16.9587 16.5984 16.9144 16.5717 16.8685 16.5474C16.8228 16.5228 16.776 16.5008 16.728 16.4808C16.68 16.4609 16.6313 16.4435 16.5817 16.4284C16.5319 16.4134 16.4818 16.4009 16.4308 16.3907C16.38 16.3807 16.3286 16.373 16.2771 16.3679C16.2254 16.3628 16.1737 16.3603 16.1218 16.3603C7.5663 16.3603 3.69728 18.4294 1.96411 20.3021C3.30757 9.0407 12.8643 8.12173 15.8746 8.12173C16.1913 8.12173 16.3626 8.12173 16.3626 8.12173H16.4767C16.5284 8.12173 16.5803 8.11918 16.6318 8.11408C16.6835 8.10898 16.7347 8.10133 16.7857 8.09136C16.8365 8.08116 16.8868 8.06864 16.9364 8.05357C16.9863 8.0385 17.035 8.02088 17.0829 8.00117C17.1309 7.98124 17.1778 7.95921 17.2234 7.93464C17.2693 7.9103 17.3136 7.88364 17.3567 7.85466C17.3999 7.82591 17.4416 7.79508 17.4817 7.76216C17.5218 7.72924 17.5603 7.69446 17.5969 7.6576C17.6335 7.62097 17.6683 7.58249 17.7012 7.54238C17.7341 7.50227 17.7652 7.46078 17.794 7.41766C17.8227 7.37454 17.8494 7.33002 17.8739 7.28412C17.8983 7.23845 17.9205 7.19162 17.9402 7.14363C17.9602 7.09564 17.9776 7.04696 17.9926 6.99735C18.0077 6.94774 18.0205 6.89743 18.0304 6.84643C18.0406 6.79566 18.0483 6.74442 18.0534 6.69272C18.0585 6.64102 18.061 6.58933 18.061 6.5374V3.93904ZM17.0723 0.985983C17.0331 0.985752 16.9944 0.989229 16.9559 0.99688C16.9174 1.0043 16.8801 1.01543 16.8439 1.03026C16.8075 1.04533 16.7732 1.06365 16.7405 1.08521C16.7081 1.107 16.6779 1.1318 16.6501 1.15939C16.6225 1.18721 16.5977 1.21735 16.5759 1.24981C16.5544 1.28249 16.5361 1.31681 16.5212 1.3532C16.5061 1.38937 16.495 1.42669 16.4876 1.46518C16.4799 1.50366 16.4765 1.54238 16.4767 1.58156V6.56267C16.4767 6.56267 16.2581 6.56267 15.8746 6.56267C13.0132 6.5374 0.880305 7.40236 0.246712 21.8897C0.244626 21.9277 0.244626 21.9659 0.24648 22.0042C0.248103 22.0425 0.252044 22.0805 0.257608 22.1183C0.263404 22.156 0.270823 22.1936 0.280328 22.2305C0.289833 22.2676 0.301192 22.3042 0.314175 22.3399C0.327389 22.3758 0.342458 22.4111 0.35915 22.4454C0.375842 22.4799 0.394156 22.5133 0.414326 22.546C0.434495 22.5784 0.456055 22.61 0.479238 22.6401C0.502653 22.6705 0.527459 22.6997 0.553656 22.7275C0.579853 22.7553 0.607441 22.7818 0.636187 22.8068C0.665166 22.8318 0.695304 22.8555 0.726601 22.8775C0.757899 22.8995 0.790123 22.9199 0.823507 22.9387C0.856658 22.9573 0.890969 22.9744 0.925976 22.9897C0.960982 23.005 0.996916 23.0185 1.03331 23.03C1.06971 23.0419 1.10657 23.0516 1.1439 23.0595C1.18145 23.0674 1.21924 23.0734 1.25726 23.0776C1.29528 23.0817 1.3333 23.0838 1.37155 23.0843C1.42395 23.0848 1.47634 23.0815 1.52827 23.0746C1.58043 23.0676 1.63167 23.0572 1.68221 23.0428C1.73275 23.0284 1.78189 23.0108 1.82988 22.9895C1.87787 22.9682 1.92401 22.9433 1.96852 22.9155C2.01303 22.8875 2.05522 22.8566 2.09533 22.8226C2.1352 22.7885 2.17253 22.7519 2.2073 22.7124C2.24208 22.6733 2.27384 22.6315 2.30259 22.5877C2.33133 22.5437 2.35707 22.498 2.37909 22.4505C3.01917 21.0848 5.63353 17.9446 16.1218 17.9446V23.4327C16.1218 23.4902 16.1299 23.5463 16.1463 23.6013C16.1628 23.6565 16.1867 23.7079 16.218 23.7561C16.2495 23.8041 16.2871 23.8468 16.3309 23.8839C16.3745 23.921 16.4227 23.9511 16.4753 23.9743C16.5277 23.9975 16.5824 24.0128 16.6394 24.02C16.6965 24.0272 16.7533 24.0262 16.8098 24.017C16.8664 24.0077 16.9207 23.9905 16.9724 23.9655C17.0241 23.9404 17.0711 23.9087 17.1135 23.87L28.8852 13.1916C28.9151 13.1645 28.942 13.1346 28.9661 13.1019C28.99 13.0692 29.0104 13.0344 29.0271 12.9976C29.044 12.9607 29.0568 12.9225 29.0658 12.8831C29.0748 12.8436 29.0799 12.8035 29.0809 12.7632C29.0816 12.7226 29.0785 12.6825 29.0711 12.6427C29.0639 12.6028 29.0526 12.5643 29.0375 12.5267C29.0222 12.4892 29.0034 12.4535 28.9809 12.4199C28.9585 12.386 28.933 12.355 28.9042 12.3264L17.4842 1.15058C17.4298 1.09587 17.3667 1.05368 17.2953 1.02424C17.2239 0.994561 17.1497 0.979724 17.0723 0.979492V0.985983Z" fill="#F9DEB1"/>
</g>
</svg>
