<svg width="149" height="150" viewBox="0 0 149 150" fill="none" xmlns="http://www.w3.org/2000/svg">
<g opacity="0.75" clip-path="url(#clip0_772_1076)">
<path d="M74.5015 0.589844C33.3551 0.589844 0 33.945 0 75.0917C0 116.234 33.3551 149.59 74.5015 149.59C115.644 149.59 149 116.234 149 75.0917C149 33.945 115.644 0.589844 74.5015 0.589844ZM57.1076 101.06C52.369 101.06 48.533 97.2175 48.533 92.4755C48.533 87.7403 52.369 83.9043 57.1076 83.9043C61.8462 83.9043 65.6885 87.7403 65.6885 92.4755C65.6852 97.2171 61.8462 101.06 57.1076 101.06ZM57.1076 66.2784C52.369 66.2784 48.5334 62.4371 48.533 57.6978C48.533 52.9626 52.3724 49.1232 57.1076 49.1232C61.8462 49.1232 65.6885 52.9622 65.6885 57.7008C65.6885 62.436 61.8492 66.2784 57.1076 66.2784ZM91.8924 101.06C87.1508 101.06 83.316 97.2175 83.316 92.4755C83.316 87.7403 87.1575 83.9043 91.8924 83.9043C96.6276 83.9043 100.47 87.7403 100.47 92.4755C100.47 97.2171 96.6276 101.06 91.8924 101.06ZM91.8924 66.2784C87.1508 66.2784 83.316 62.4371 83.316 57.6978C83.316 52.9626 87.1575 49.1232 91.8924 49.1232C96.6276 49.1232 100.47 52.9622 100.47 57.7008C100.47 62.436 96.6276 66.2784 91.8924 66.2784Z" fill="url(#paint0_linear_772_1076)" fill-opacity="0.7"/>
<path opacity="0.3" d="M74.5015 12.3096C39.8289 12.3096 11.7215 40.414 11.7215 75.09C11.7215 109.762 39.8289 137.87 74.5015 137.87C109.174 137.87 137.282 109.762 137.282 75.09C137.281 40.4136 109.174 12.3096 74.5015 12.3096ZM74.5015 127.044C45.8075 127.044 22.5437 103.784 22.5437 75.0889C22.5437 46.3911 45.8071 23.1307 74.5015 23.1307C103.196 23.1307 126.456 46.3911 126.456 75.0889C126.456 103.784 103.196 127.044 74.5015 127.044Z" fill="#EB9D3F"/>
</g>
<defs>
<linearGradient id="paint0_linear_772_1076" x1="74.5" y1="0.589844" x2="74.5" y2="149.59" gradientUnits="userSpaceOnUse">
<stop stop-color="#C57A30"/>
<stop offset="1" stop-color="#BF6D2A"/>
</linearGradient>
<clipPath id="clip0_772_1076">
<rect width="149" height="149" fill="white" transform="translate(0 0.589844)"/>
</clipPath>
</defs>
</svg>
