<svg width="50" height="58" viewBox="0 0 50 58" fill="none" xmlns="http://www.w3.org/2000/svg">
<mask id="mask0_3972_5621" style="mask-type:luminance" maskUnits="userSpaceOnUse" x="0" y="0" width="50" height="58">
<path d="M0 0H49.8179V57.6354H0V0Z" fill="white"/>
</mask>
<g mask="url(#mask0_3972_5621)">
<path fill-rule="evenodd" clip-rule="evenodd" d="M49.795 56.4793C49.795 57.4031 49.1076 57.8478 48.267 57.4484L26.4363 47.187C25.5957 46.7882 24.2216 46.7882 23.3809 47.187L1.55085 57.4484C0.710207 57.8478 0.0234375 57.4031 0.0234375 56.4793V1.69337C0.0234375 0.763908 0.781486 0.00585938 1.70755 0.00585938H48.1103C49.0364 0.00585938 49.795 0.763908 49.795 1.69337V56.4793Z" fill="#DE8D8C"/>
</g>
<path d="M46.8399 54.6712C46.5401 54.6712 46.234 54.6005 45.9297 54.4596L44.0724 53.6082C43.6329 53.4057 43.4405 52.887 43.6419 52.4468C43.8439 52.0084 44.3626 51.8138 44.8033 52.0169L46.66 52.8689C46.7245 52.8988 46.772 52.9113 46.8025 52.9153C46.8082 52.8898 46.8133 52.8525 46.8133 52.8032C46.8133 52.3201 47.2048 51.9162 47.689 51.9162C48.1721 51.9162 48.5642 52.2975 48.5642 52.7812V52.8032C48.5642 53.886 47.8389 54.6712 46.8399 54.6712ZM3.0558 54.6706C2.05449 54.6706 1.32812 53.8854 1.32812 52.8032V50.6207C1.32812 50.1371 1.72016 49.745 2.20384 49.745C2.68752 49.745 3.07956 50.1371 3.07956 50.6207V52.8032C3.07956 52.8525 3.08465 52.8898 3.0903 52.9153C3.11237 52.9119 3.14009 52.9068 3.17516 52.8938C3.63056 52.7303 4.13177 52.9673 4.2947 53.4221C4.45819 53.8781 4.22115 54.3787 3.76576 54.5422C3.52816 54.6271 3.28943 54.6706 3.0558 54.6706ZM7.18037 52.8988C6.8483 52.8988 6.5315 52.7088 6.38386 52.3874C6.18246 51.9479 6.37537 51.428 6.81436 51.226L10.5214 49.525C10.9616 49.323 11.4809 49.517 11.6823 49.956C11.8837 50.3956 11.6913 50.9155 11.2518 51.1163L7.54525 52.818C7.42645 52.8717 7.302 52.8988 7.18037 52.8988ZM40.7308 51.9875C40.6086 51.9875 40.4842 51.9609 40.3659 51.9066L36.6594 50.2055C36.2198 50.0036 36.0275 49.4842 36.2289 49.0447C36.4303 48.6051 36.9496 48.4122 37.3897 48.6142L41.0962 50.3153C41.5358 50.5172 41.7287 51.0365 41.5268 51.4761C41.3797 51.798 41.0623 51.9875 40.7308 51.9875ZM47.689 49.577C47.2048 49.577 46.8133 49.185 46.8133 48.7019V44.6225C46.8133 44.1394 47.2048 43.7474 47.689 43.7474C48.1721 43.7474 48.5642 44.1394 48.5642 44.6225V48.7019C48.5642 49.185 48.1721 49.577 47.689 49.577ZM14.5934 49.4955C14.2613 49.4955 13.9445 49.3066 13.7969 48.9858C13.5955 48.5452 13.7884 48.0264 14.2274 47.8244L17.9345 46.1234C18.374 45.9214 18.8939 46.1149 19.0953 46.5544C19.2967 46.9934 19.1044 47.5133 18.6648 47.7147L14.9583 49.4158C14.8401 49.4701 14.7156 49.4955 14.5934 49.4955ZM33.3166 48.5848C33.1944 48.5848 33.0711 48.5582 32.9523 48.5044L29.2458 46.8033C28.8062 46.6008 28.6133 46.0815 28.8153 45.6419C29.0167 45.203 29.536 45.0101 29.9761 45.212L33.6826 46.9131C34.1216 47.1145 34.3151 47.6344 34.1132 48.0734C33.9661 48.3947 33.6481 48.5848 33.3166 48.5848ZM2.20384 47.4171C1.72016 47.4171 1.32812 47.0257 1.32812 46.5426V42.4638C1.32812 41.9801 1.72016 41.5881 2.20384 41.5881C2.68752 41.5881 3.07956 41.9801 3.07956 42.4638V46.5426C3.07899 47.0257 2.68752 47.4171 2.20384 47.4171ZM22.0076 46.0934C21.6755 46.0934 21.3587 45.9039 21.2111 45.5837C21.0091 45.1436 21.202 44.6237 21.6416 44.4223L23.1871 43.7129C23.9615 43.3559 25.158 43.2699 26.0959 43.5013C26.5655 43.6173 26.8523 44.0913 26.7369 44.5609C26.6209 45.0304 26.1446 45.3167 25.6768 45.2018C25.1229 45.0649 24.3338 45.1124 23.9191 45.3037L22.3719 46.0136C22.2542 46.0679 22.1292 46.0934 22.0076 46.0934ZM47.689 41.4195C47.2048 41.4195 46.8133 41.028 46.8133 40.5444V36.4656C46.8133 35.9819 47.2048 35.5899 47.689 35.5899C48.1721 35.5899 48.5642 35.9819 48.5642 36.4656V40.5444C48.5642 41.028 48.1721 41.4195 47.689 41.4195ZM2.20384 39.2602C1.72016 39.2602 1.32812 38.8682 1.32812 38.385V34.3057C1.32812 33.8232 1.72016 33.4306 2.20384 33.4306C2.68752 33.4306 3.07956 33.8232 3.07956 34.3057V38.385C3.07899 38.8682 2.68752 39.2602 2.20384 39.2602ZM47.689 33.262C47.2048 33.262 46.8133 32.87 46.8133 32.3868V28.3081C46.8133 27.8244 47.2048 27.4324 47.689 27.4324C48.1721 27.4324 48.5642 27.8244 48.5642 28.3081V32.3868C48.5642 32.87 48.1721 33.262 47.689 33.262ZM2.20384 31.1027C1.72016 31.1027 1.32812 30.7112 1.32812 30.2275V26.1488C1.32812 25.6651 1.72016 25.2731 2.20384 25.2731C2.68752 25.2731 3.07956 25.6651 3.07956 26.1488V30.2275C3.07899 30.7112 2.68752 31.1027 2.20384 31.1027ZM47.689 25.1045C47.2048 25.1045 46.8133 24.713 46.8133 24.2288V20.15C46.8133 19.6663 47.2048 19.2743 47.689 19.2743C48.1721 19.2743 48.5642 19.6663 48.5642 20.15V24.2288C48.5642 24.713 48.1721 25.1045 47.689 25.1045ZM2.20384 22.9458C1.72016 22.9458 1.32812 22.5532 1.32812 22.07V17.9913C1.32812 17.5076 1.72016 17.1156 2.20384 17.1156C2.68752 17.1156 3.07956 17.5076 3.07956 17.9913V22.07C3.07899 22.5532 2.68752 22.9458 2.20384 22.9458ZM47.689 16.9476C47.2048 16.9476 46.8133 16.5555 46.8133 16.0718V11.9931C46.8133 11.5094 47.2048 11.1174 47.689 11.1174C48.1721 11.1174 48.5642 11.5094 48.5642 11.9931V16.0718C48.5642 16.5555 48.1721 16.9476 47.689 16.9476ZM2.20384 14.7877C1.72016 14.7877 1.32812 14.3956 1.32812 13.912V9.83321C1.32812 9.3501 1.72016 8.95806 2.20384 8.95806C2.68752 8.95806 3.07956 9.3501 3.07956 9.83321V13.912C3.07899 14.3962 2.68752 14.7877 2.20384 14.7877ZM47.689 8.79005C47.2048 8.79005 46.8133 8.39858 46.8133 7.9149V3.91817C46.7867 3.43506 47.1567 3.00512 47.6392 2.9791C48.132 2.95817 48.5347 3.30608 48.5608 3.78806C48.5636 3.83332 48.5647 3.87857 48.5642 3.92496V7.9149C48.5642 8.39801 48.1721 8.79005 47.689 8.79005ZM2.20384 6.63074C1.72016 6.63074 1.32812 6.23871 1.32812 5.75503V3.91761C1.32812 2.70473 2.28757 1.66439 3.51232 1.54786C3.99487 1.50204 4.42141 1.8556 4.46667 2.33702C4.51249 2.81844 4.15893 3.24611 3.67751 3.29137C3.34261 3.32305 3.07956 3.59855 3.07956 3.91761V5.75503C3.07899 6.23871 2.68752 6.63074 2.20384 6.63074ZM44.3785 3.28854H40.3003C39.8161 3.28854 39.4246 2.89651 39.4246 2.41282C39.4246 1.92914 39.8166 1.53711 40.3003 1.53711H44.3785C44.8622 1.53711 45.2542 1.92914 45.2542 2.41282C45.2542 2.89651 44.8622 3.28854 44.3785 3.28854ZM36.2215 3.28854H32.1439C31.6602 3.28854 31.2682 2.89651 31.2682 2.41282C31.2682 1.92914 31.6602 1.53711 32.1439 1.53711H36.2215C36.7058 1.53711 37.0978 1.92914 37.0978 2.41282C37.0978 2.89651 36.7052 3.28854 36.2215 3.28854ZM28.0652 3.28854H23.9864C23.5027 3.28854 23.1113 2.89651 23.1113 2.41282C23.1113 1.92914 23.5027 1.53711 23.9864 1.53711H28.0652C28.5489 1.53711 28.9409 1.92914 28.9409 2.41282C28.9409 2.89651 28.5489 3.28854 28.0652 3.28854ZM19.9082 3.28854H15.8295C15.3464 3.28854 14.9538 2.89651 14.9538 2.41282C14.9538 1.92914 15.3464 1.53711 15.8295 1.53711H19.9082C20.3919 1.53711 20.7839 1.92914 20.7839 2.41282C20.7839 2.89651 20.3919 3.28854 19.9082 3.28854ZM11.7513 3.28854H7.67254C7.18886 3.28854 6.79739 2.89651 6.79739 2.41282C6.79739 1.92914 7.18942 1.53711 7.67254 1.53711H11.7513C12.235 1.53711 12.627 1.92914 12.627 2.41282C12.627 2.89651 12.235 3.28854 11.7513 3.28854Z" fill="#FFFBF4"/>
</svg>
