<svg width="462" height="78" viewBox="0 0 462 78" fill="none" xmlns="http://www.w3.org/2000/svg">
<path d="M88.0213 56.0693H57.7725V24.8849V3.31364C57.7725 3.31364 169.97 0.5 233.984 0.5C299.895 0.5 412.596 3.31364 412.596 3.31364V24.8849V56.0693H379.946C379.946 56.0693 292.081 53.9591 233.984 54.1936C175.887 54.428 88.0213 56.0693 88.0213 56.0693Z" fill="#FCC14A" fill-opacity="0.8"/>
<path d="M385.506 74.264L412.59 55.9754V24.8848L456.005 28.4018L435.691 52.0833L461.979 77.8749L385.506 74.264Z" fill="#EAB64A" fill-opacity="0.8"/>
<path d="M385.517 74.2662L412.601 55.9775H385.517V74.2662Z" fill="#C79D4A" fill-opacity="0.8"/>
<path d="M82.8664 74.3579L57.7736 56.0692V24.8848L6.39327 28.4018L33.8758 52.0833L0.0205078 77.8749L82.8664 74.3579Z" fill="#EAB64A" fill-opacity="0.8"/>
<path d="M82.8662 74.358L57.7734 56.0693H82.8662V74.358Z" fill="#C79D4A" fill-opacity="0.8"/>
</svg>
