<svg width="50" height="67" viewBox="0 0 50 67" fill="none" xmlns="http://www.w3.org/2000/svg">
<g clip-path="url(#clip0_706_1259)">
<mask id="mask0_706_1259" style="mask-type:luminance" maskUnits="userSpaceOnUse" x="10" y="0" width="30" height="20">
<path d="M10.8638 0.908203H39.5917V19.5674H10.8638V0.908203Z" fill="white"/>
</mask>
<g mask="url(#mask0_706_1259)">
<path d="M39.4637 19.5191H32.888V15.14C32.888 10.9156 29.4453 7.47686 25.2152 7.47686C20.9857 7.47686 17.543 10.9156 17.543 15.14V19.5191H10.9673V15.14C10.9673 7.29305 17.3592 0.908203 25.2152 0.908203C33.0718 0.908203 39.4637 7.29305 39.4637 15.14V19.5191Z" fill="#9C34C2"/>
</g>
<mask id="mask1_706_1259" style="mask-type:luminance" maskUnits="userSpaceOnUse" x="4" y="58" width="43" height="8">
<path d="M4.25879 58.8613H46.195V65.4977H4.25879V58.8613Z" fill="white"/>
</mask>
<g mask="url(#mask1_706_1259)">
<path d="M46.0389 62.2134C46.0389 62.2669 46.0305 62.3204 46.0137 62.3746C45.9969 62.4281 45.9718 62.4817 45.9383 62.5352C45.9054 62.5887 45.8634 62.6422 45.8131 62.6951C45.7635 62.748 45.7048 62.8015 45.6384 62.8538C45.5719 62.9067 45.4978 62.9589 45.4146 63.0111C45.332 63.0634 45.2411 63.115 45.1418 63.1666C45.0431 63.2182 44.936 63.2691 44.8212 63.3194C44.7064 63.3704 44.5839 63.4207 44.4536 63.4703C44.3233 63.52 44.1853 63.569 44.0396 63.6174C43.8938 63.6658 43.7403 63.7141 43.5797 63.7612C43.4191 63.8089 43.2515 63.8554 43.076 63.9018C42.9006 63.9476 42.7187 63.9934 42.5291 64.0379C42.3395 64.0824 42.1435 64.1262 41.9409 64.1694C41.7378 64.2127 41.5282 64.2552 41.3115 64.2965C41.0954 64.3384 40.8729 64.3791 40.644 64.419C40.415 64.4584 40.1803 64.4977 39.9391 64.5358C39.6985 64.5738 39.4515 64.6106 39.1993 64.6467C38.9465 64.6828 38.6885 64.7176 38.4254 64.7518C38.1616 64.786 37.8933 64.8189 37.6192 64.8511C37.3458 64.8834 37.0672 64.9143 36.7834 64.944C36.5003 64.9737 36.2126 65.0027 35.9198 65.0304C35.6277 65.0582 35.3317 65.0846 35.0311 65.1098C34.7299 65.1349 34.4262 65.1594 34.1179 65.182C33.8096 65.2052 33.4981 65.2271 33.1834 65.2478C32.8687 65.2678 32.5507 65.2871 32.2295 65.3052C31.909 65.3239 31.5852 65.3406 31.2595 65.3561C30.9332 65.3716 30.6049 65.3858 30.2741 65.3993C29.9439 65.4122 29.6111 65.4238 29.277 65.4342C28.9423 65.4451 28.6069 65.4542 28.2696 65.4619C27.933 65.4696 27.5944 65.4761 27.2551 65.4819C26.9159 65.487 26.5767 65.4909 26.2362 65.4935C25.8956 65.4961 25.5551 65.4974 25.2139 65.4974C24.8734 65.4974 24.5329 65.4961 24.1924 65.4935C23.8518 65.4909 23.512 65.487 23.1734 65.4819C22.8341 65.4761 22.4955 65.4696 22.1589 65.4619C21.8216 65.4542 21.4856 65.4451 21.1515 65.4342C20.8174 65.4238 20.4846 65.4122 20.1544 65.3993C19.8236 65.3858 19.4953 65.3716 19.169 65.3561C18.8433 65.3406 18.5195 65.3239 18.1983 65.3052C17.8778 65.2871 17.5599 65.2678 17.2451 65.2478C16.9304 65.2271 16.6189 65.2052 16.3106 65.182C16.0023 65.1594 15.6979 65.1349 15.3974 65.1098C15.0968 65.0846 14.8008 65.0582 14.508 65.0304C14.2159 65.0027 13.9282 64.9737 13.6445 64.944C13.3613 64.9143 13.0827 64.8834 12.8093 64.8511C12.5352 64.8189 12.2669 64.786 12.0031 64.7518C11.74 64.7176 11.482 64.6828 11.2292 64.6467C10.977 64.6106 10.73 64.5738 10.4888 64.5358C10.2482 64.4977 10.0128 64.4584 9.78452 64.419C9.55557 64.3791 9.33307 64.3384 9.11637 64.2965C8.90032 64.2552 8.69072 64.2127 8.48756 64.1694C8.28505 64.1262 8.08835 64.0824 7.89938 64.0379C7.70977 63.9934 7.5279 63.9476 7.35248 63.9018C7.17705 63.8554 7.00937 63.8089 6.84878 63.7612C6.68819 63.7141 6.5347 63.6658 6.38894 63.6174C6.24319 63.569 6.10517 63.52 5.9749 63.4703C5.84462 63.4207 5.72208 63.3704 5.60728 63.3194C5.49249 63.2691 5.38543 63.2182 5.28611 63.1666C5.18743 63.115 5.0965 63.0634 5.01394 63.0111C4.93075 62.9589 4.85658 62.9067 4.78951 62.8538C4.72308 62.8015 4.66504 62.748 4.61538 62.6951C4.56507 62.6422 4.52315 62.5887 4.49026 62.5352C4.45672 62.4817 4.43157 62.4281 4.4148 62.3746C4.39803 62.3204 4.38965 62.2669 4.38965 62.2134C4.38965 62.1592 4.39803 62.1057 4.4148 62.0521C4.43157 61.9986 4.45672 61.9451 4.49026 61.8915C4.52315 61.838 4.56507 61.7845 4.61538 61.7316C4.66504 61.6781 4.72308 61.6252 4.78951 61.5723C4.85658 61.5201 4.93075 61.4672 5.01394 61.4149C5.0965 61.3633 5.18743 61.3111 5.28611 61.2601C5.38543 61.2086 5.49249 61.1576 5.60728 61.1067C5.72208 61.0563 5.84462 61.006 5.9749 60.9564C6.10517 60.9067 6.24319 60.8577 6.38894 60.8093C6.5347 60.7603 6.68819 60.7126 6.84878 60.6649C7.00937 60.6178 7.17705 60.5707 7.35248 60.5249C7.5279 60.4785 7.70977 60.4333 7.89938 60.3888C8.08835 60.3437 8.28505 60.2998 8.48756 60.2566C8.69072 60.2134 8.90032 60.1715 9.11637 60.1296C9.33307 60.0883 9.55557 60.0477 9.78452 60.0077C10.0128 59.9677 10.2482 59.929 10.4888 59.891C10.73 59.8529 10.977 59.8161 11.2292 59.78C11.482 59.7439 11.74 59.7084 12.0031 59.6743C12.2669 59.6401 12.5352 59.6072 12.8093 59.5756C13.0827 59.5433 13.3613 59.5124 13.6445 59.4827C13.9282 59.4524 14.2159 59.424 14.508 59.3963C14.8008 59.3686 15.0968 59.3421 15.3974 59.317C15.6979 59.2912 16.0023 59.2673 16.3106 59.2441C16.6189 59.2215 16.9304 59.1996 17.2451 59.1789C17.5599 59.1583 17.8778 59.139 18.1983 59.1209C18.5195 59.1028 18.8433 59.0861 19.169 59.0706C19.4953 59.0551 19.8236 59.0403 20.1544 59.0274C20.4846 59.0145 20.8174 59.0029 21.1515 58.9919C21.4856 58.9816 21.8216 58.9726 22.1589 58.9648C22.4955 58.9564 22.8341 58.95 23.1734 58.9448C23.512 58.9397 23.8518 58.9358 24.1924 58.9332C24.5329 58.93 24.8734 58.9287 25.2139 58.9287C25.5551 58.9287 25.8956 58.93 26.2362 58.9332C26.5767 58.9358 26.9159 58.9397 27.2551 58.9448C27.5944 58.95 27.933 58.9564 28.2696 58.9648C28.6069 58.9726 28.9423 58.9816 29.277 58.9919C29.6111 59.0029 29.9439 59.0145 30.2741 59.0274C30.6049 59.0403 30.9332 59.0551 31.2595 59.0706C31.5852 59.0861 31.909 59.1028 32.2295 59.1209C32.5507 59.139 32.8687 59.1583 33.1834 59.1789C33.4981 59.1996 33.8096 59.2215 34.1179 59.2441C34.4262 59.2673 34.7299 59.2912 35.0311 59.317C35.3317 59.3421 35.6277 59.3686 35.9198 59.3963C36.2126 59.424 36.5003 59.4524 36.7834 59.4827C37.0672 59.5124 37.3458 59.5433 37.6192 59.5756C37.8933 59.6072 38.1616 59.6401 38.4254 59.6743C38.6885 59.7084 38.9465 59.7439 39.1993 59.78C39.4515 59.8161 39.6985 59.8529 39.9391 59.891C40.1803 59.929 40.415 59.9677 40.644 60.0077C40.8729 60.0477 41.0954 60.0883 41.3115 60.1296C41.5282 60.1715 41.7378 60.2134 41.9409 60.2566C42.1435 60.2998 42.3395 60.3437 42.5291 60.3888C42.7187 60.4333 42.9006 60.4785 43.076 60.5249C43.2515 60.5707 43.4191 60.6178 43.5797 60.6649C43.7403 60.7126 43.8938 60.7603 44.0396 60.8093C44.1853 60.8577 44.3233 60.9067 44.4536 60.9564C44.5839 61.006 44.7064 61.0563 44.8212 61.1067C44.936 61.1576 45.0431 61.2086 45.1418 61.2601C45.2411 61.3111 45.332 61.3633 45.4146 61.4149C45.4978 61.4672 45.5719 61.5201 45.6384 61.5723C45.7048 61.6252 45.7635 61.6781 45.8131 61.7316C45.8634 61.7845 45.9054 61.838 45.9383 61.8915C45.9718 61.9451 45.9969 61.9986 46.0137 62.0521C46.0305 62.1057 46.0389 62.1592 46.0389 62.2134Z" fill="black" fill-opacity="0.5"/>
</g>
<mask id="mask2_706_1259" style="mask-type:luminance" maskUnits="userSpaceOnUse" x="1" y="16" width="49" height="39">
<path d="M1.0874 16.1006H49.333V54.5696H1.0874V16.1006Z" fill="white"/>
</mask>
<g mask="url(#mask2_706_1259)">
<path d="M42.7516 16.2354H7.67878C4.04651 16.2354 1.10303 19.1756 1.10303 22.8034V47.9829C1.10303 51.6106 4.04651 54.5515 7.67878 54.5515H42.7516C46.3839 54.5515 49.328 51.6106 49.328 47.9829V22.8034C49.328 19.1756 46.3839 16.2354 42.7516 16.2354Z" fill="#FFA500"/>
</g>
<mask id="mask3_706_1259" style="mask-type:luminance" maskUnits="userSpaceOnUse" x="1" y="16" width="28" height="27">
<path d="M1.0874 16.1006H28.53V42.5171H1.0874V16.1006Z" fill="white"/>
</mask>
<g mask="url(#mask3_706_1259)">
<path d="M23.0237 21.7089C26.0497 21.7089 28.5037 19.2575 28.5037 16.2354H7.67878C4.04651 16.2354 1.10303 19.1756 1.10303 22.8034V42.5093C4.12906 42.5093 6.58303 40.0579 6.58303 37.0351V22.8034C6.58303 22.2003 7.07512 21.7089 7.67878 21.7089H23.0237Z" fill="white" fill-opacity="0.3"/>
</g>
<path d="M49.3272 47.982V29.3711C46.3012 29.3711 43.8472 31.8225 43.8472 34.8447V47.982C43.8472 48.585 43.3551 49.0764 42.7508 49.0764H24.1187C21.0926 49.0764 18.6387 51.5278 18.6387 54.5506H42.7508C46.3831 54.5506 49.3272 51.6097 49.3272 47.982Z" fill="black" fill-opacity="0.15"/>
<path d="M5.48573 29.3709C4.57831 29.3709 3.8418 28.635 3.8418 27.7289V22.8023C3.8418 20.6895 5.56248 18.9707 7.67787 18.9707H13.7061C14.6135 18.9707 15.35 19.7066 15.35 20.6127C15.35 21.5195 14.6135 22.2554 13.7061 22.2554H7.67787C7.37668 22.2554 7.13032 22.5017 7.13032 22.8023V27.7289C7.13032 28.635 6.3938 29.3709 5.48573 29.3709Z" fill="white" fill-opacity="0.6"/>
<path d="M23.9209 38.6541C21.7236 36.0834 26.2278 31.9758 26.7309 31.1877C27.9085 29.3445 26.331 27.6702 23.7281 28.6512C21.4514 29.5109 19.6288 31.4508 18.2339 29.7359C13.8541 24.3643 32.8481 20.0071 32.8481 29.4012C32.8481 32.8542 29.5686 34.3769 27.7208 36.4368C26.7006 37.5725 27.2126 38.1704 26.3794 38.814C25.6822 39.3545 24.5136 39.35 23.9209 38.6541ZM23.0902 45.9283C20.199 42.9939 24.6271 38.6057 27.4983 41.5253C30.3896 44.4695 25.9531 48.8395 23.0902 45.9283Z" fill="#9C34C2"/>
</g>
<defs>
<clipPath id="clip0_706_1259">
<rect width="48.6642" height="66" fill="white" transform="translate(0.626465 0.25)"/>
</clipPath>
</defs>
</svg>
