<svg width="123" height="60" viewBox="0 0 123 60" fill="none" xmlns="http://www.w3.org/2000/svg">
<g opacity="0.9">
<mask id="mask0_706_1437" style="mask-type:luminance" maskUnits="userSpaceOnUse" x="0" y="0" width="109" height="56">
<path d="M0.135742 0.181641H108.724V55.3575H0.135742V0.181641Z" fill="white"/>
</mask>
<g mask="url(#mask0_706_1437)">
<path d="M99.533 23.561L99.7761 23.6917C101.114 24.479 101.99 25.5891 102.404 27.0222C102.597 27.7861 102.629 28.5161 102.5 29.2122C102.367 29.8701 102.139 30.4665 101.816 31.0007C101.654 31.2685 101.468 31.5201 101.258 31.7568C100.692 32.3214 100.323 32.6416 100.153 32.7179C99.586 33.0981 98.9783 33.3722 98.3296 33.5411C98.0052 33.6252 97.671 33.6832 97.3261 33.7143C96.4464 33.7468 95.9065 33.7341 95.7058 33.6768C95.1461 33.5991 94.5073 33.3913 93.7893 33.0543C92.4269 32.3469 91.4913 31.2678 90.9825 29.8185C90.8892 29.5195 90.8249 29.2114 90.7896 28.8942C90.7507 28.0843 90.7613 27.5875 90.8228 27.4031C90.9549 26.7452 91.1832 26.1488 91.5068 25.6138C91.6686 25.3467 91.8545 25.0945 92.0644 24.8584C92.6304 24.2938 92.9993 23.973 93.1696 23.8974C93.7363 23.5172 94.344 23.2423 94.9928 23.0741C95.3171 22.99 95.6514 22.9321 95.9962 22.9003C96.1559 22.8515 96.6958 22.8642 97.6166 22.9384C98.177 23.0162 98.8158 23.2232 99.533 23.561ZM95.7637 0.256836L0.133095 0.875868L0.127441 54.5974L96.7601 55.2751L108.671 44.6477L108.277 11.7725L95.7637 0.256836Z" fill="#B5714A"/>
</g>
<path d="M101.277 24.6414L103.697 25.0647C103.749 25.0738 103.801 25.0859 103.851 25.1021L103.852 25.1028C103.84 25.0986 103.829 25.0958 103.821 25.0936H103.822C104.072 25.1601 105.675 25.4774 108.634 26.0462C109.26 26.1663 109.67 26.7719 109.55 27.398C109.429 28.0241 108.824 28.434 108.197 28.3139C105.187 27.7351 103.531 27.4058 103.229 27.326H103.23C103.2 27.3175 103.171 27.3097 103.145 27.3012L103.3 27.3394L100.88 26.9168C100.252 26.8066 99.8316 26.2087 99.9412 25.5805C100.051 24.9523 100.649 24.5318 101.277 24.6414Z" fill="#F3D0AC"/>
<path d="M101.236 27.7863C101.622 27.8068 102.151 27.8089 102.821 27.7913L102.719 27.7983C103.348 27.7255 104.249 27.6655 105.422 27.6174L105.455 27.616C105.448 27.616 105.443 27.6167 105.439 27.6167H105.439C105.696 27.5998 106.545 27.4118 107.987 27.0521C108.606 26.898 109.233 27.274 109.387 27.893C109.542 28.5121 109.165 29.1382 108.546 29.2929C106.97 29.6858 105.985 29.895 105.59 29.9211H105.591C105.553 29.9232 105.517 29.9247 105.483 29.9254L105.516 29.9247C104.401 29.9699 103.557 30.0264 102.985 30.0928C102.951 30.0964 102.916 30.0992 102.881 30.0999C102.149 30.119 101.559 30.1162 101.112 30.0921C100.474 30.0575 99.9862 29.5134 100.021 28.8767C100.055 28.24 100.6 27.7517 101.236 27.7863Z" fill="#F3D0AC"/>
<path d="M101.906 28.3801V28.3808C101.868 28.3567 101.835 28.3412 101.81 28.3341C101.814 28.3348 101.819 28.3362 101.826 28.3377L101.814 28.3355C102.706 28.5037 103.254 28.6175 103.461 28.6761L103.438 28.6705C103.736 28.7496 104.098 28.8634 104.522 29.0111L104.543 29.0189C104.787 29.1093 104.981 29.1842 105.124 29.2422L105.126 29.2436L106.822 29.9425L106.787 29.9283C106.802 29.934 106.818 29.9404 106.836 29.9474L106.837 29.9481C107 30.0138 107.482 30.2421 108.283 30.6329L108.254 30.6187C108.441 30.7035 108.614 30.7756 108.773 30.8343L108.807 30.8477H108.807L108.82 30.8534C108.907 30.8901 108.991 30.9297 109.073 30.9735C109.637 31.2724 109.852 31.9713 109.553 32.5345C109.254 33.0977 108.554 33.3125 107.991 33.0136C107.969 33.0016 107.947 32.991 107.922 32.9811L107.935 32.9861H107.934L107.968 32.9988C107.759 32.9217 107.536 32.8292 107.3 32.7225L107.271 32.7083C106.517 32.3409 106.083 32.1345 105.968 32.0879H105.969C105.972 32.0886 105.974 32.09 105.978 32.0914L105.943 32.0773L104.246 31.3784L104.249 31.3791C104.13 31.3311 103.961 31.266 103.741 31.1841L103.762 31.1918C103.392 31.0625 103.086 30.9664 102.844 30.9021L102.821 30.8958C102.685 30.8562 102.206 30.7594 101.386 30.6046L101.375 30.6025C101.309 30.5891 101.245 30.5742 101.183 30.5566C101.002 30.5057 100.84 30.4357 100.696 30.3467C100.152 30.0131 99.9826 29.3015 100.317 28.7588C100.651 28.2154 101.363 28.0465 101.906 28.3801Z" fill="#F3D0AC"/>
<path d="M109.229 28.5279C109.215 28.5265 109.204 28.5258 109.196 28.5258C109.494 28.5109 110.109 28.2014 111.043 27.5972L110.965 27.6516C112.097 26.7796 112.817 26.0892 113.125 25.5811C113.14 25.5578 113.155 25.5345 113.171 25.5119C113.904 24.4801 114.426 23.3516 114.736 22.1256C114.741 22.1037 114.748 22.0817 114.755 22.0598C114.836 21.8019 114.86 21.6323 114.826 21.5503C114.828 21.5525 114.829 21.5546 114.83 21.5567C114.826 21.5518 114.818 21.5447 114.806 21.5362L114.905 21.5998C113.971 21.0684 112.927 21.4896 111.771 22.8633L111.845 22.7658C111.364 23.4788 111.051 24.1417 110.906 24.755L110.894 24.7996V24.8003L110.903 24.7671C110.745 25.4009 110.585 26.1754 110.422 27.0912L110.428 27.058L110.087 29.3624L110.085 29.3822C110.091 29.3434 110.092 29.3137 110.089 29.2911C110.089 29.2939 110.09 29.2974 110.092 29.3031C110.241 29.9228 109.859 30.5468 109.239 30.6959C108.619 30.845 107.995 30.4641 107.846 29.8437C107.829 29.7737 107.815 29.7038 107.805 29.6352C107.772 29.4169 107.772 29.2077 107.806 29.0056L107.802 29.0254L108.143 26.721L108.148 26.6877C108.32 25.721 108.49 24.895 108.661 24.2102L108.67 24.177L108.658 24.2208C108.869 23.3354 109.293 22.4195 109.93 21.4754C109.952 21.4415 109.977 21.409 110.003 21.3779C111.984 19.0219 113.999 18.4269 116.047 19.5922C116.082 19.612 116.114 19.6332 116.147 19.6558C116.326 19.7837 116.483 19.9293 116.617 20.0925C116.761 20.2685 116.876 20.4614 116.962 20.672H116.963C117.21 21.2719 117.208 21.9673 116.956 22.7587L116.975 22.6923C116.594 24.1968 115.954 25.5825 115.054 26.8489L115.1 26.7796C114.642 27.5329 113.734 28.4325 112.376 29.4805C112.351 29.4995 112.325 29.5179 112.298 29.5356C111.018 30.3638 110.023 30.7963 109.314 30.8323C109.201 30.838 109.092 30.8351 108.986 30.8245C108.352 30.7574 107.892 30.1885 107.959 29.5547C108.026 28.9201 108.594 28.4608 109.229 28.5279Z" fill="#F3D0AC"/>
<path d="M110.177 30.9939C116.393 31.1145 120.184 29.4433 121.551 25.9805L121.56 25.959C122.145 24.3786 122.147 22.7754 121.565 21.1492L121.567 21.1527C121.049 19.6901 119.704 17.2568 117.53 13.8529L117.622 14.0302C117.143 12.8545 116.902 11.8505 116.901 11.0184L116.898 11.0974C117.174 7.2611 119.508 5.11227 121.737 3.58177C122.273 3.21318 122.391 2.50509 122 2C121.609 1.49491 120.858 1.38337 120.321 1.75196C117.488 3.69748 114.827 6.40475 114.5 10.9443C114.498 10.9706 114.497 10.9969 114.497 11.0233C114.5 12.1332 114.794 13.406 115.378 14.8416C115.404 14.9039 115.435 14.9635 115.471 15.0196C117.553 18.2815 118.825 20.5638 119.287 21.8684L119.288 21.8719C119.694 23.0075 119.695 24.1216 119.291 25.2128L119.299 25.1913C118.328 27.6488 115.305 28.8288 110.226 28.7304C109.563 28.7172 109.014 29.214 109 29.8389C108.986 30.4639 109.513 30.9808 110.177 30.9939Z" fill="#F3D0AC"/>
<path d="M107.887 31.3421C110.115 31.4374 111.431 31.6224 111.833 31.897C111.831 31.8956 111.828 31.8934 111.825 31.8898C111.867 31.9235 111.91 31.9544 111.956 31.9823C114.021 33.2227 115.442 34.4639 116.219 35.7057L116.244 35.7444C116.735 36.465 117.114 37.5247 117.383 38.9236C117.391 38.9645 117.401 39.0053 117.413 39.0462C117.578 39.5861 117.732 41.4768 117.875 44.7162C117.876 44.7442 117.878 44.7714 117.881 44.7987C117.877 46.5469 117.276 48.2414 116.177 49.6014L114.99 51.0711C114.422 51.7745 114.709 52.8277 115.555 53.1455C116.114 53.3549 116.743 53.1661 117.093 52.684L118.441 50.8306C119.779 48.9909 120.5 46.7747 120.5 44.5C120.5 41.1089 119.877 39.1859 119.638 38.4116C119.31 36.7324 118.815 35.405 118.156 34.4294C117.187 32.8918 115.532 31.4152 113.19 30.0001C113.168 29.9839 113.145 29.968 113.122 29.9525C112.36 29.432 110.647 29.1151 107.983 29.0011C107.346 28.9738 106.808 29.4757 106.781 30.1224C106.754 30.7692 107.249 31.3148 107.887 31.3421Z" fill="#F3D0AC"/>
<path d="M4.85535 4.21427L4.86241 4.09837L4.85535 4.21497C4.84475 4.30684 4.83697 4.47856 4.83203 4.73154L4.83132 4.74567C4.82567 4.91174 4.82355 5.4912 4.82425 6.48617L4.82355 6.5208L4.80093 7.24724C4.78256 7.8373 4.28861 8.30158 3.69784 8.2832C3.10707 8.26483 2.6428 7.77088 2.66117 7.18011L2.68378 6.45367V6.48829C2.68237 5.46858 2.6852 4.86368 2.69156 4.67359V4.68843C2.69792 4.36761 2.71064 4.12664 2.72901 3.96694L2.72194 4.08353C2.79756 3.3797 3.32896 2.95924 3.9162 3.02779C4.50343 3.09633 4.92389 3.62774 4.85535 4.21427Z" fill="#F3D0AC"/>
<path d="M4.82942 13.3207C4.86122 13.2642 4.88242 13.2161 4.89231 13.1752C4.82164 13.4564 4.7849 14.3772 4.78207 15.9368C4.78136 16.5275 4.30154 17.006 3.71007 17.0052C3.1193 17.0045 2.6409 16.5247 2.6416 15.9332C2.64443 14.1977 2.70238 13.1031 2.81685 12.6515C2.85289 12.5081 2.90165 12.3816 2.96313 12.2728C3.25216 11.7576 3.90511 11.5746 4.42026 11.8636C4.93612 12.1533 5.11915 12.8056 4.82942 13.3207Z" fill="#F3D0AC"/>
<path d="M4.97812 21.6316C4.923 21.8323 4.88555 22.0662 4.86788 22.3319V22.3312C4.85445 22.5242 4.84739 22.6605 4.84597 22.739V22.7291C4.83891 23.4555 4.82053 24.0852 4.79227 24.618C4.75976 25.208 4.25521 25.6603 3.66515 25.6285C3.07509 25.5967 2.62212 25.0922 2.65392 24.5021C2.68148 24.0011 2.69844 23.4032 2.70551 22.7072V22.6973C2.70763 22.5849 2.71611 22.4153 2.73165 22.1878V22.1864C2.75992 21.7765 2.82069 21.4006 2.91538 21.06C3.07297 20.4904 3.66232 20.1569 4.23259 20.3144C4.80216 20.472 5.13641 21.0614 4.97812 21.6316Z" fill="#F3D0AC"/>
<path d="M5.26475 29.8076L5.281 29.6295L5.26475 29.8069C5.2591 29.8429 5.25486 29.9115 5.25203 30.0125V30.0083L5.2061 32.3085C5.19479 32.8992 4.70578 33.3685 4.11502 33.3572C3.52354 33.3451 3.05432 32.8568 3.06563 32.2654L3.11156 29.9652L3.11227 29.9602C3.11651 29.7631 3.12994 29.5991 3.15043 29.4684L3.15114 29.467C3.15255 29.4571 3.15396 29.4465 3.15608 29.4366L3.13983 29.6147C3.25855 28.8536 3.81398 28.465 4.39627 28.5681C4.97855 28.6706 5.36722 29.226 5.26475 29.8076Z" fill="#F3D0AC"/>
<path d="M5.48592 37.1934L5.49935 39.5282V39.5332C5.50005 39.5911 5.50288 39.6858 5.50853 39.8165C5.53397 40.4066 5.07535 40.9062 4.48459 40.9316C3.89453 40.9571 3.39492 40.4992 3.36948 39.9084C3.36241 39.748 3.35888 39.6243 3.35888 39.5367V39.5409L3.34475 37.2061C3.34121 36.6154 3.81821 36.1334 4.40897 36.1299C5.00045 36.1264 5.48239 36.6027 5.48592 37.1934Z" fill="#F3D0AC"/>
<path d="M5.15341 44.4515L5.15977 45.3843L5.15836 45.3405C5.1838 45.8768 5.20217 46.3885 5.21206 46.8754C5.22407 47.4661 4.75415 47.9551 4.16338 47.9671C3.57261 47.9792 3.08361 47.5099 3.07159 46.9192C3.0617 46.4514 3.04474 45.9595 3.02001 45.443L3.0186 45.3991L3.01224 44.4664C3.008 43.8756 3.48428 43.3929 4.07505 43.3887C4.66652 43.3845 5.14917 43.8607 5.15341 44.4515Z" fill="#F3D0AC"/>
<path d="M7.88289 49.4014C8.01292 49.4021 8.1387 49.407 8.26025 49.4162L8.27792 49.4176C9.37253 49.5208 9.99015 49.5738 10.1308 49.5773H10.1315C10.1237 49.5773 10.1131 49.5773 10.1011 49.5773C10.1251 49.5766 10.1491 49.5773 10.1725 49.5781C10.7145 49.5993 11.248 49.5993 11.773 49.5766C12.3638 49.5512 12.8627 50.0098 12.8882 50.5999C12.9129 51.1906 12.455 51.6895 11.8642 51.715C11.2805 51.7397 10.689 51.7404 10.0884 51.7164L10.1597 51.7171C10.1343 51.7178 10.106 51.7178 10.0749 51.7171H10.0757C9.88627 51.7122 9.2206 51.6563 8.07793 51.5489L8.0956 51.5503C8.02564 51.5447 7.95073 51.5419 7.87159 51.5419C7.28082 51.5383 6.80383 51.0571 6.80665 50.4656C6.81019 49.8748 7.29213 49.3979 7.88289 49.4014Z" fill="#F3D0AC"/>
<path d="M16.6085 50.0451C16.8099 50.0649 17.0169 50.0769 17.2304 50.0805H17.2176L19.1715 50.0925L19.1828 50.0932H19.1843H19.1779C19.3277 50.0946 19.4705 50.0996 19.6054 50.1073C20.1955 50.1427 20.6456 50.6493 20.6103 51.2394C20.575 51.8295 20.0676 52.2789 19.4775 52.2436C19.3772 52.2379 19.2698 52.2344 19.1546 52.233H19.1468H19.1581L17.2042 52.2202H17.1908C16.9215 52.2153 16.6587 52.2004 16.4014 52.1757C15.8128 52.1185 15.3824 51.5955 15.4397 51.0069C15.4969 50.419 16.0198 49.9879 16.6085 50.0451Z" fill="#F3D0AC"/>
<path d="M23.3702 50.1483C23.703 50.2021 23.8995 50.2317 23.9588 50.2388H23.9581C23.9073 50.2331 23.8507 50.2324 23.7878 50.2374C23.903 50.2282 24.0182 50.2388 24.1299 50.2671L24.3525 50.3504L24.1284 50.2664C24.0797 50.2543 24.0373 50.2466 23.9998 50.243C24.0585 50.2487 24.2337 50.2558 24.5249 50.2664C25.1156 50.2861 25.5785 50.7815 25.558 51.3723C25.5375 51.963 25.0422 52.4252 24.4514 52.4054C24.12 52.3934 23.9051 52.3835 23.8062 52.3743V52.375C23.7327 52.368 23.6663 52.3574 23.6062 52.3418L23.3822 52.2584V52.2577L23.9461 52.3715C23.8762 52.3764 23.7999 52.3743 23.7179 52.3651H23.7172C23.626 52.3552 23.3971 52.3206 23.0317 52.262C22.448 52.1687 22.0502 51.6196 22.1434 51.0359C22.2374 50.4522 22.7865 50.0551 23.3702 50.1483Z" fill="#F3D0AC"/>
<path d="M28.0991 50.2759C28.8559 50.1564 30.3717 50.0773 32.6471 50.0363C33.2379 50.0257 33.7262 50.4963 33.7361 51.0878C33.7467 51.6786 33.2761 52.1662 32.6853 52.1768C30.5088 52.2149 29.0905 52.2863 28.4312 52.3902C27.8475 52.4821 27.2999 52.0828 27.208 51.4991C27.1161 50.9154 27.5147 50.3677 28.0991 50.2759Z" fill="#F3D0AC"/>
<path d="M35.6405 50.0805C36.0306 50.0148 36.42 49.9568 36.8079 49.9073C37.3945 49.8317 37.9308 50.2458 38.0064 50.8324C38.0813 51.4182 37.6672 51.9545 37.0807 52.0301C36.7203 52.0761 36.3592 52.1298 35.9974 52.1906C35.4144 52.2895 34.8618 51.8966 34.7636 51.3136C34.6654 50.7313 35.0583 50.1787 35.6405 50.0805Z" fill="#F3D0AC"/>
<path d="M40.4539 50.268L40.4554 50.2673C40.5451 50.2333 40.6455 50.21 40.7585 50.1973H40.7578C40.9309 50.1775 41.4348 50.1514 42.2686 50.1189L42.3181 50.1182L44.0007 50.1309C44.5914 50.1351 45.067 50.6185 45.0628 51.2092C45.0585 51.8 44.5752 52.2756 43.9844 52.2714L42.3019 52.2586L42.3513 52.2572C41.5719 52.2876 41.1217 52.3102 41.0023 52.3236C41.0666 52.3166 41.1373 52.2982 41.2143 52.2685C40.6631 52.4784 40.0448 52.2014 39.8342 51.6488C39.6243 51.0962 39.902 50.4779 40.4539 50.268Z" fill="#F3D0AC"/>
<path d="M47.298 50.263C47.8393 50.2227 48.6018 50.2008 49.5862 50.1973C50.177 50.1959 50.6582 50.6728 50.6603 51.2636C50.6624 51.8551 50.1847 52.3356 49.5933 52.3377C48.6598 52.3413 47.9474 52.3611 47.457 52.3978C46.8677 52.4416 46.3539 51.9992 46.3101 51.4099C46.2663 50.8205 46.7087 50.3068 47.298 50.263Z" fill="#F3D0AC"/>
<path d="M53.5127 50.0649L53.4696 50.0692L53.5134 50.0649C53.7551 50.0458 54.5833 50.0437 55.9987 50.0572L55.9923 50.0564C56.2086 50.0572 56.7676 50.0289 57.6685 49.9709C58.2586 49.9335 58.7681 50.3808 58.8056 50.9702C58.8437 51.5602 58.3957 52.069 57.8063 52.1072C56.8573 52.1679 56.2503 52.1976 55.9853 52.1969H55.9789C54.625 52.1842 53.8575 52.1849 53.6766 52.1983L53.7204 52.1948C53.0873 52.2443 52.5728 51.8033 52.5276 51.214C52.4824 50.6246 52.9233 50.1102 53.5127 50.0649Z" fill="#F3D0AC"/>
<path d="M61.5452 49.9788C61.8935 49.875 62.4115 49.7965 63.0984 49.7435C63.6885 49.6976 64.2029 50.1385 64.2488 50.7279C64.2941 51.3165 63.8531 51.8317 63.2638 51.8769C62.7288 51.9186 62.3592 51.9695 62.1564 52.0303C61.5897 52.1992 60.9933 51.8769 60.8244 51.3102C60.6562 50.7441 60.9784 50.1477 61.5452 49.9788Z" fill="#F3D0AC"/>
<path d="M66.8517 50.0158C67.5767 49.8745 68.8289 49.7678 70.6076 49.6943C71.1983 49.6696 71.6972 50.1289 71.7212 50.7197C71.746 51.3097 71.2867 51.8086 70.6959 51.8327C69.0246 51.9019 67.8799 51.9966 67.2608 52.1167C66.6807 52.2298 66.1189 51.851 66.0058 51.2709C65.8927 50.6907 66.2715 50.1289 66.8517 50.0158Z" fill="#F3D0AC"/>
<path d="M74.0489 49.9027H74.0503L74.0511 49.902L74.0496 49.9027C74.8171 49.8108 75.3471 49.7698 75.6403 49.7797L74.5436 50.9952C74.4461 50.2878 74.7535 49.885 75.4644 49.7868H75.4637C75.5209 49.779 75.5852 49.7748 75.6552 49.7755C75.8481 49.7755 76.4714 49.8172 77.5257 49.8998C78.115 49.9465 78.5553 50.4616 78.5094 51.0503C78.4634 51.6396 77.9483 52.0799 77.3589 52.0339C76.3576 51.9555 75.788 51.9159 75.6488 51.9152C75.6792 51.9152 75.7159 51.9124 75.7583 51.9067H75.7576C76.4586 51.8099 76.7611 51.4093 76.6643 50.704C76.7074 51.0157 76.6106 51.3315 76.3986 51.5661C76.1873 51.8007 75.8827 51.9301 75.5675 51.9195C75.3838 51.9131 74.9626 51.9491 74.3033 52.0276H74.3019L74.3012 52.0283C73.7154 52.0975 73.1826 51.6785 73.1126 51.092C73.0426 50.5047 73.4617 49.9726 74.0489 49.9027Z" fill="#F3D0AC"/>
<path d="M81.1066 50.3044C81.3122 50.2133 81.568 50.1249 81.8733 50.0394C82.4429 49.879 83.0336 50.2104 83.1933 50.78C83.3537 51.3489 83.0216 51.9396 82.4527 52.0993C82.2457 52.158 82.086 52.2117 81.9743 52.2612C81.4337 52.5007 80.8013 52.2569 80.5617 51.7163C80.3222 51.1757 80.5667 50.544 81.1066 50.3044Z" fill="#F3D0AC"/>
<path d="M84.932 50.1954C85.1334 50.194 85.3744 50.2159 85.6549 50.2611L85.5468 50.2491C85.5871 50.2512 85.6309 50.2561 85.6789 50.2639L85.6796 50.2646C85.7764 50.2795 86.0322 50.3303 86.4471 50.4159L86.4329 50.413C86.4753 50.4215 86.5523 50.4335 86.6633 50.4491L86.6704 50.4498C86.7382 50.4597 86.8605 50.4689 87.0364 50.478C87.6272 50.5084 88.0816 51.0109 88.0512 51.6016C88.0215 52.1917 87.5184 52.6461 86.9283 52.6157C86.6845 52.6037 86.4951 52.5874 86.3608 52.5676L86.3679 52.569C86.2188 52.5478 86.105 52.5302 86.0273 52.5146L86.0132 52.5118C85.6295 52.4327 85.4061 52.3881 85.3418 52.3775H85.3426C85.3652 52.3811 85.3913 52.3839 85.4224 52.386C85.3878 52.3839 85.3503 52.3797 85.3136 52.374C85.151 52.3479 85.0288 52.3351 84.9468 52.3351C84.3561 52.3394 83.8734 51.8638 83.8692 51.273C83.8649 50.6816 84.3405 50.1996 84.932 50.1954Z" fill="#F3D0AC"/>
<path d="M90.0585 50.5974C90.2589 50.5778 90.5009 50.5778 90.7844 50.5975L90.6756 50.5953C90.7159 50.5938 90.76 50.5948 90.8086 50.5982C90.9063 50.6042 91.1665 50.6324 91.5873 50.6801L91.573 50.6785C91.616 50.6832 91.6938 50.6882 91.8057 50.6936L91.8128 50.6937C91.8812 50.6974 92.0038 50.6955 92.1799 50.6888C92.771 50.6656 93.2689 51.125 93.292 51.7161C93.3157 52.3064 92.8557 52.8044 92.2653 52.8274C92.0214 52.8375 91.8314 52.8384 91.6959 52.8308L91.703 52.8316C91.5526 52.824 91.4377 52.8167 91.3589 52.8082L91.3446 52.8067C90.9553 52.7625 90.7288 52.7383 90.6638 52.7336C90.6867 52.7351 90.7137 52.7355 90.7448 52.7348C90.7102 52.7358 90.6725 52.7349 90.6354 52.7326C90.4712 52.7213 90.3482 52.7197 90.2666 52.7271C89.6786 52.7847 89.155 52.3546 89.0974 51.7667C89.0397 51.178 89.4698 50.6551 90.0585 50.5974Z" fill="#F3D0AC"/>
<path d="M101.869 47.9663C101.919 47.9373 101.959 47.9097 101.987 47.8836L101.986 47.8843C101.982 47.8878 101.975 47.8949 101.965 47.9055L101.979 47.8914L101.165 48.7598L101.162 48.7627C101.076 48.8538 100.993 48.9379 100.913 49.0157L100.932 48.9959C100.664 49.2686 100.396 49.5082 100.129 49.7138C99.6601 50.0735 98.9881 49.9859 98.6277 49.5174C98.2673 49.0489 98.355 48.3768 98.8242 48.0164C99.0136 47.8709 99.2072 47.697 99.4058 47.4956L99.4255 47.4758C99.4821 47.4214 99.5421 47.3607 99.605 47.2935L99.6022 47.2964L100.416 46.4279L100.43 46.4144C100.467 46.3756 100.502 46.341 100.536 46.3099C100.625 46.2279 100.714 46.1608 100.803 46.1099C101.316 45.8159 101.97 45.9926 102.264 46.5056C102.559 47.0179 102.382 47.6716 101.869 47.9663Z" fill="#F3D0AC"/>
<path d="M97.5365 51.5729C97.5926 51.5583 97.638 51.5422 97.6722 51.5244C97.6672 51.5267 97.6576 51.5322 97.6453 51.5398L97.662 51.5297L96.647 52.1516L96.6435 52.1535C96.5369 52.2188 96.4342 52.2778 96.3366 52.3316L96.3603 52.3176C96.0298 52.5097 95.7081 52.6697 95.3953 52.7971C94.8483 53.0199 94.2235 52.7574 94 52.2102C93.7766 51.6629 94.0391 51.0381 94.587 50.8148C94.8081 50.7246 95.0409 50.6083 95.2857 50.4667L95.31 50.4528C95.379 50.4153 95.453 50.3726 95.5314 50.3246L95.5279 50.3265L96.5429 49.7047L96.5594 49.6953C96.6058 49.6677 96.6491 49.6437 96.69 49.6227C96.7976 49.5672 96.9012 49.5261 96.9999 49.5004C97.5725 49.3528 98.1567 49.6965 98.3043 50.269C98.4527 50.8411 98.1093 51.4246 97.5365 51.5729Z" fill="#F3D0AC"/>
<path d="M106.295 44.4032C106.256 44.418 106.223 44.4364 106.195 44.4597L106.193 44.4611L105.823 44.7699L105.848 44.748C105.395 45.1501 105.111 45.3953 104.994 45.4844C104.968 45.5048 104.942 45.5232 104.918 45.5395C104.429 45.8709 103.764 45.7437 103.432 45.2547C103.1 44.7657 103.227 44.1 103.716 43.7679C103.706 43.7757 103.697 43.782 103.69 43.787C103.767 43.7283 104.012 43.5149 104.427 43.1467L104.453 43.1255L104.824 42.8167L104.822 42.8181C105.037 42.6379 105.279 42.4973 105.548 42.3977C106.102 42.1913 106.718 42.4733 106.925 43.0273C107.131 43.5813 106.849 44.1968 106.295 44.4032Z" fill="#F3D0AC"/>
<path d="M104.429 40.1189L104.426 39.3401L104.427 39.3055C104.435 39.0017 104.441 38.6723 104.443 38.3169C104.446 37.7254 104.928 37.2491 105.519 37.252C106.11 37.2555 106.587 37.7367 106.584 38.3275C106.582 38.6999 106.576 39.0462 106.567 39.3677L106.567 39.3324L106.57 40.1104C106.572 40.7019 106.095 41.1824 105.504 41.1852C104.912 41.1873 104.431 40.7096 104.429 40.1189Z" fill="#F3D0AC"/>
<path d="M104.663 34.2661C104.673 34.2018 104.68 34.1432 104.683 34.0902C104.683 34.069 104.685 34.0478 104.687 34.0266L104.688 34.0245C104.686 34.0351 104.685 34.0442 104.685 34.0513C104.69 33.9799 104.698 33.6895 104.71 33.18L104.712 33.144L104.805 31.5215C104.839 30.9314 105.345 30.4806 105.935 30.5145C106.526 30.5484 106.976 31.0544 106.942 31.6444L106.849 33.2676L106.851 33.2316C106.837 33.7694 106.828 34.0874 106.822 34.1877C106.82 34.2103 106.818 34.2315 106.816 34.2506L106.821 34.1849C106.815 34.3241 106.799 34.4689 106.774 34.6188C106.677 35.2018 106.125 35.5954 105.542 35.4978C104.959 35.4003 104.565 34.8484 104.663 34.2661Z" fill="#F3D0AC"/>
<path d="M103.351 23.4405C103.361 23.0977 103.362 22.873 103.356 22.767L103.355 22.7536C103.344 22.5296 103.319 22.2208 103.279 21.8286L103.277 21.8074C103.268 21.7049 103.261 21.5671 103.252 21.3933C103.225 20.8025 103.681 20.3022 104.272 20.2746C104.863 20.2471 105.364 20.7036 105.391 21.2943C105.398 21.4427 105.405 21.5565 105.411 21.6349L105.409 21.613C105.452 22.042 105.48 22.3861 105.494 22.6462L105.493 22.6327C105.504 22.8038 105.503 23.0935 105.492 23.5012C105.475 24.092 104.982 24.5577 104.391 24.5407C103.8 24.5238 103.335 24.0312 103.351 23.4405Z" fill="#F3D0AC"/>
<path d="M103.316 17.1829C103.331 16.9554 103.337 16.7914 103.334 16.689V16.6854L103.306 15.6C103.292 15.0092 103.759 14.5181 104.35 14.5033C104.941 14.4884 105.432 14.9555 105.447 15.5463L105.475 16.6317L105.474 16.6275C105.479 16.7971 105.472 17.0289 105.452 17.3235C105.413 17.9136 104.904 18.3602 104.313 18.3213C103.723 18.2825 103.277 17.7723 103.316 17.1829Z" fill="#F3D0AC"/>
<path d="M102.086 13.35H102.087C102.093 13.3642 102.098 13.3748 102.103 13.3818C102.062 13.3175 101.962 13.2108 101.801 13.061L101.784 13.0447C101.751 13.0129 101.685 12.9543 101.585 12.8681L101.591 12.8737L100.501 11.9487C100.051 11.5664 99.9954 10.8908 100.378 10.44C100.76 9.98986 101.436 9.93403 101.886 10.317L102.977 11.2414L102.982 11.247C103.115 11.3608 103.213 11.4484 103.276 11.5099L103.258 11.4929C103.556 11.7699 103.775 12.0194 103.915 12.2413C103.962 12.3155 104.001 12.3897 104.035 12.4625C104.28 13.0009 104.042 13.6355 103.505 13.88C102.966 14.1252 102.332 13.8878 102.086 13.35Z" fill="#F3D0AC"/>
<path d="M97.9959 9.49663C97.7803 9.25213 97.6553 9.1108 97.6192 9.07264C97.6383 9.09242 97.6609 9.11433 97.6878 9.13765C97.6616 9.11504 97.6362 9.09101 97.6122 9.06628L97.6178 9.07122L97.6164 9.07052L97.6107 9.06486C97.4673 8.91576 97.3026 8.74899 97.1161 8.56455C96.6949 8.14974 96.6907 7.47206 97.1062 7.05159C97.5217 6.63113 98.1994 6.62689 98.6199 7.0417C98.8191 7.23886 98.9972 7.41835 99.1534 7.58088L99.1484 7.57523L99.1491 7.57664L99.0792 7.51021C99.111 7.53777 99.1435 7.56887 99.1774 7.60561V7.60491C99.2304 7.66073 99.3717 7.82044 99.6035 8.08331C99.9936 8.5271 99.9505 9.20337 99.506 9.59344C99.0622 9.98422 98.386 9.94041 97.9959 9.49663Z" fill="#F3D0AC"/>
<path d="M95.3624 6.74608L94.8437 6.32421L94.8755 6.34894C94.6013 6.1426 94.4317 6.01257 94.3667 5.95886C94.359 5.9525 94.3519 5.94685 94.3455 5.9412L94.4014 5.98572L94.4007 5.98501L94.3773 5.96734C94.2996 5.90657 94.2212 5.84015 94.142 5.76807L94.1611 5.78573C93.9625 5.61402 93.7166 5.34054 93.4248 4.96601C93.0615 4.49962 93.1449 3.82758 93.6113 3.46436C94.0777 3.10114 94.7504 3.18452 95.1137 3.65021C95.3193 3.9145 95.4684 4.08622 95.561 4.16607L95.5801 4.18303C95.6203 4.21978 95.6592 4.25229 95.6953 4.28055L95.6719 4.26288H95.6726L95.7285 4.3074C95.7271 4.30599 95.7256 4.30528 95.7249 4.30458H95.7256C95.768 4.33991 95.9143 4.45156 96.1638 4.63953L96.1956 4.66427L96.7143 5.08685C97.1729 5.45996 97.2414 6.13412 96.8683 6.59203C96.4952 7.05065 95.821 7.1192 95.3624 6.74608Z" fill="#F3D0AC"/>
<path d="M90.8629 5.44567C90.5908 5.39974 90.2968 5.37572 89.9802 5.37218L90.0311 5.37148L88.1889 5.44073C87.5988 5.46334 87.1013 5.0026 87.0794 4.41183C87.0568 3.82107 87.5182 3.32429 88.109 3.30238L89.9513 3.23313L90.0021 3.23242C90.4304 3.23666 90.836 3.27058 91.2197 3.33559C91.802 3.43382 92.1949 3.98643 92.0967 4.56871C91.9985 5.15171 91.4459 5.54461 90.8629 5.44567Z" fill="#F3D0AC"/>
<path d="M84.3973 5.561C83.2992 5.58927 82.6448 5.59634 82.4335 5.58432C82.3925 5.5815 82.3544 5.57796 82.3197 5.57302L82.4575 5.58291C82.4625 5.58291 82.466 5.58291 82.4681 5.58291H82.4674C82.4526 5.58362 82.425 5.58574 82.3862 5.59068C81.7982 5.65782 81.2675 5.23594 81.2004 4.64941C81.1333 4.06218 81.5544 3.53148 82.1417 3.46435C82.2356 3.45304 82.3176 3.44668 82.3876 3.44386H82.3869C82.4144 3.44315 82.4406 3.44244 82.466 3.44244C82.5119 3.44244 82.5586 3.44598 82.6045 3.45234C82.5869 3.44951 82.5734 3.4481 82.5621 3.44739C82.7119 3.45658 83.3055 3.4481 84.3429 3.42124C84.9337 3.4064 85.4248 3.8728 85.4403 4.46356C85.4552 5.05433 84.9881 5.54616 84.3973 5.561Z" fill="#F3D0AC"/>
<path d="M78.1338 5.68405C77.8787 5.66073 77.6483 5.64872 77.442 5.64872H77.4434L75.3143 5.6473H75.315C75.0429 5.6473 74.8754 5.64942 74.8132 5.65437H74.8125C74.8139 5.65437 74.8154 5.65366 74.8175 5.65366C74.2288 5.70878 73.7073 5.27631 73.6522 4.68837C73.5971 4.09972 74.0296 3.57821 74.6182 3.52309C74.6295 3.52168 74.6415 3.52097 74.6535 3.51956H74.6528C74.7687 3.51108 74.9892 3.50684 75.3143 3.50684H75.3157L77.4448 3.50825H77.4462C77.7162 3.50896 78.0102 3.5238 78.3282 3.55277C78.9168 3.60647 79.3507 4.12728 79.297 4.71593C79.2433 5.30457 78.7225 5.73776 78.1338 5.68405Z" fill="#F3D0AC"/>
<path d="M71.3212 5.71753C70.7099 5.71188 70.1326 5.71258 69.5892 5.71965H69.5538L68.356 5.69562C67.7653 5.68432 67.2953 5.19602 67.3074 4.60525C67.3187 4.01378 67.807 3.54456 68.3984 3.55586L69.5962 3.57918H69.5609C70.1191 3.57212 70.712 3.57141 71.3403 3.57706C71.9317 3.58272 72.4066 4.06607 72.4009 4.65684C72.396 5.2476 71.9119 5.72248 71.3212 5.71753Z" fill="#F3D0AC"/>
<path d="M64.9758 5.68259L64.9694 5.6833C64.9652 5.684 64.9659 5.684 64.9694 5.6833L64.968 5.684C64.6189 5.73983 63.7094 5.75891 62.2396 5.74195C61.6488 5.73488 61.1753 5.25012 61.1817 4.65935C61.1888 4.06858 61.6735 3.59512 62.265 3.60148C63.6126 3.61773 64.4005 3.60713 64.6288 3.57039H64.6274C64.6337 3.56968 64.6358 3.56968 64.6344 3.56968C65.2118 3.47499 65.7623 3.87001 65.8584 4.453C65.9538 5.036 65.5587 5.58648 64.9758 5.68259Z" fill="#F3D0AC"/>
<path d="M58.2375 5.60906C57.8552 5.65994 56.8779 5.73273 55.3063 5.82813C54.7163 5.86346 54.2089 5.41473 54.1728 4.82467C54.1375 4.23461 54.5869 3.72723 55.177 3.6919C56.6963 3.60004 57.622 3.53149 57.9535 3.48697C58.5393 3.40924 59.0785 3.82051 59.1569 4.40633C59.2353 4.99215 58.8234 5.53063 58.2375 5.60906Z" fill="#F3D0AC"/>
<path d="M50.8289 5.47785C49.5032 5.53297 48.5238 5.55911 47.8899 5.55558L47.9337 5.55487C47.827 5.55911 47.7373 5.56547 47.6659 5.57537C47.0794 5.6531 46.5409 5.24182 46.4632 4.656C46.3848 4.07018 46.7967 3.53171 47.3826 3.45327C47.5232 3.4349 47.6815 3.42218 47.8574 3.41582L47.9005 3.41511C48.5012 3.41865 49.4474 3.39321 50.7399 3.33879C51.3299 3.31477 51.8288 3.77339 51.8536 4.36345C51.8783 4.95421 51.4197 5.45311 50.8289 5.47785Z" fill="#F3D0AC"/>
<path d="M43.2366 5.12808C43.0402 5.13727 42.4749 5.13939 41.5392 5.13515L41.5816 5.13444C40.8467 5.15988 40.3259 5.17472 40.0192 5.17896H39.9902C39.3437 5.16907 38.972 5.16695 38.8744 5.17119V5.17048C39.521 5.14292 39.8496 4.79313 39.8602 4.12322L39.8609 4.11332C39.8567 4.7048 39.374 5.18038 38.7826 5.17614C38.1918 5.1719 37.7155 4.68996 37.7198 4.09848V4.0893C37.7304 3.41514 38.0844 3.06323 38.7819 3.03284H38.7812C38.9197 3.02648 39.3331 3.0286 40.0213 3.0385H39.9924C40.2835 3.03496 40.7881 3.02083 41.5067 2.99539L41.5491 2.99468C42.448 2.99892 42.978 2.99751 43.1384 2.99044C43.7285 2.96288 44.2295 3.41938 44.257 4.01015C44.2839 4.60021 43.8274 5.10123 43.2366 5.12808Z" fill="#F3D0AC"/>
<path d="M31.7078 5.32013C31.6103 5.30953 31.5022 5.30317 31.3821 5.30105L31.3891 5.30176C30.6902 5.29469 29.7136 5.27985 28.4593 5.25653H28.4438C28.306 5.25159 28.1738 5.25512 28.0473 5.26713C27.4587 5.32225 26.9372 4.88907 26.8821 4.30113C26.8276 3.71249 27.2601 3.19097 27.8488 3.13585C28.065 3.11607 28.2862 3.10971 28.5137 3.11748L28.4982 3.11677C29.7469 3.13939 30.7171 3.15423 31.4103 3.16129H31.4174C31.604 3.16412 31.7785 3.17472 31.941 3.19309C32.529 3.2574 32.953 3.78598 32.8887 4.37321C32.8236 4.96044 32.2951 5.38444 31.7078 5.32013Z" fill="#F3D0AC"/>
<path d="M23.3446 5.67039C23.2138 5.63223 23.0315 5.59407 22.7955 5.55732L22.8089 5.55944C22.4867 5.5128 22.2796 5.49019 22.1892 5.49161H22.1899C22.1906 5.49161 22.1913 5.49161 22.1913 5.49161C21.6005 5.51563 21.1023 5.0556 21.079 4.46554C21.055 3.87477 21.5143 3.37658 22.1051 3.35326C22.1199 3.35255 22.1355 3.35184 22.1517 3.35184H22.1524C22.3574 3.34831 22.6782 3.37799 23.1149 3.44088L23.1283 3.443C23.4548 3.49459 23.7283 3.55183 23.9474 3.61684C24.5148 3.78291 24.8399 4.37791 24.6731 4.94465C24.5063 5.5121 23.912 5.83645 23.3446 5.67039Z" fill="#F3D0AC"/>
<path d="M18.0109 5.38919C17.0159 5.36516 16.4492 5.35597 16.3114 5.36304C16.3496 5.36092 16.3934 5.35456 16.4435 5.34396C16.3672 5.36021 16.2888 5.36869 16.2096 5.36799C15.9701 5.36657 15.2818 5.41533 14.1469 5.51497C13.5575 5.56585 13.0382 5.13055 12.9866 4.5419C12.935 3.95326 13.371 3.43386 13.9596 3.38228C15.1624 3.27769 15.9171 3.2261 16.2238 3.22822H16.2245L15.9906 3.25225C16.0549 3.23812 16.1262 3.22893 16.2054 3.2254C16.3955 3.21621 17.0152 3.22398 18.0632 3.24942C18.654 3.26356 19.1218 3.75468 19.1076 4.34545C19.0928 4.93622 18.6024 5.40332 18.0109 5.38919Z" fill="#F3D0AC"/>
<path d="M9.91107 5.51738C9.77044 5.47145 9.63194 5.43823 9.49485 5.41774L9.50121 5.41915C9.14364 5.36898 8.86309 5.34001 8.65887 5.33224C8.0681 5.30892 7.60807 4.81143 7.63068 4.22137C7.654 3.6306 8.15149 3.17057 8.74226 3.19318C9.01715 3.20449 9.36906 3.23911 9.7973 3.29918L9.80436 3.29989C10.0644 3.33805 10.3245 3.40023 10.5831 3.48574C11.1449 3.67159 11.4495 4.27649 11.2636 4.83758C11.0778 5.39866 10.4722 5.70323 9.91107 5.51738Z" fill="#F3D0AC"/>
<mask id="mask1_706_1437" style="mask-type:luminance" maskUnits="userSpaceOnUse" x="18" y="11" width="31" height="27">
<path d="M18.4531 11.7588H48.4833V37.809H18.4531V11.7588Z" fill="white"/>
</mask>
<g mask="url(#mask1_706_1437)">
<mask id="mask2_706_1437" style="mask-type:luminance" maskUnits="userSpaceOnUse" x="13" y="-11" width="77" height="78">
<path d="M56.2606 -10.3379L89.2022 37.2683L46.8366 66.584L13.895 18.9778L56.2606 -10.3379Z" fill="white"/>
</mask>
<g mask="url(#mask2_706_1437)">
<mask id="mask3_706_1437" style="mask-type:luminance" maskUnits="userSpaceOnUse" x="13" y="-11" width="77" height="78">
<path d="M56.2601 -10.3389L89.2017 37.2673L46.8361 66.583L13.8945 18.9768L56.2601 -10.3389Z" fill="white"/>
</mask>
<g mask="url(#mask3_706_1437)">
<mask id="mask4_706_1437" style="mask-type:luminance" maskUnits="userSpaceOnUse" x="13" y="-11" width="77" height="78">
<path d="M56.2596 -10.3408L89.2012 37.2653L46.8356 66.581L13.894 18.9749L56.2596 -10.3408Z" fill="white"/>
</mask>
<g mask="url(#mask4_706_1437)">
<path d="M46.6714 21.6625C44.1995 18.1214 40.4683 15.6573 36.6192 13.762C33.1297 12.1141 28.9491 11.1312 25.124 12.5261C21.7631 13.7825 19.3534 17.0424 18.7301 20.4682C18.1563 24.0086 19.9222 27.4189 22.2754 29.8965C25.0377 32.7634 28.506 34.925 32.2011 36.4507C35.5677 37.7884 39.5539 38.3446 43.0031 36.7094C45.9082 35.277 47.7427 32.6941 48.3228 29.5742C46.3788 29.5304 44.6913 29.5 42.7812 29.9622C41.982 30.3925 41.5545 31.2497 40.5531 31.5614C38.3696 32.5309 35.9443 31.8002 33.8978 30.9529C30.9595 29.5954 28.0983 27.8662 25.9995 25.3915C24.8081 23.974 23.9064 21.9183 24.8045 20.0789C25.4851 18.4726 27.2326 17.4981 28.9427 17.5674C32.1722 17.6338 35.0454 19.2782 37.6466 20.9693C39.1942 22.0236 40.4733 23.0511 41.5566 24.5859C43.4589 23.8051 45.6036 23.4828 47.6367 23.4235C47.3293 22.755 47.0855 22.2695 46.6714 21.6625Z" fill="white"/>
</g>
</g>
</g>
</g>
<mask id="mask5_706_1437" style="mask-type:luminance" maskUnits="userSpaceOnUse" x="17" y="10" width="34" height="30">
<path d="M17.0054 10.1328H50.1109V39.4393H17.0054V10.1328Z" fill="white"/>
</mask>
<g mask="url(#mask5_706_1437)">
<mask id="mask6_706_1437" style="mask-type:luminance" maskUnits="userSpaceOnUse" x="13" y="-11" width="77" height="78">
<path d="M56.2577 -10.3389L89.1992 37.2673L46.8337 66.583L13.8921 18.9768L56.2577 -10.3389Z" fill="white"/>
</mask>
<g mask="url(#mask6_706_1437)">
<mask id="mask7_706_1437" style="mask-type:luminance" maskUnits="userSpaceOnUse" x="13" y="-11" width="77" height="78">
<path d="M56.2567 -10.3398L89.1982 37.2663L46.8327 66.582L13.8911 18.9759L56.2567 -10.3398Z" fill="white"/>
</mask>
<g mask="url(#mask7_706_1437)">
<mask id="mask8_706_1437" style="mask-type:luminance" maskUnits="userSpaceOnUse" x="13" y="-11" width="77" height="78">
<path d="M56.2562 -10.3389L89.1978 37.2673L46.8322 66.583L13.8906 18.9768L56.2562 -10.3389Z" fill="white"/>
</mask>
<g mask="url(#mask8_706_1437)">
<path d="M46.6684 21.6636C44.1965 18.1225 40.4653 15.6584 36.6162 13.7632C33.1267 12.1152 28.9461 11.1323 25.121 12.5272C21.7601 13.7837 19.3504 17.0435 18.7271 20.4693C18.1533 24.0097 19.9193 27.42 22.2724 29.8976C25.0348 32.7645 28.503 34.9262 32.1981 36.4518C35.5647 37.7895 39.5509 38.3457 43.0001 36.7105C45.9052 35.2781 47.7397 32.6952 48.3198 29.5753C46.3758 29.5315 44.6883 29.5011 42.7782 29.9633C41.979 30.3937 41.5515 31.2508 40.5501 31.5625C38.3666 32.532 35.9413 31.8013 33.8948 30.954C30.9565 29.5965 28.0953 27.8673 25.9965 25.3926C24.8051 23.9751 23.9034 21.9194 24.8016 20.08C25.4821 18.4737 27.2296 17.4993 28.9397 17.5685C32.1692 17.6349 35.0424 19.2793 37.6437 20.9704C39.1912 22.0247 40.4703 23.0522 41.5536 24.587C43.4559 23.8062 45.6006 23.484 47.6337 23.4246C47.3263 22.7561 47.0825 22.2706 46.6684 21.6636Z" stroke="black" stroke-width="0.285073"/>
</g>
</g>
</g>
</g>
<mask id="mask9_706_1437" style="mask-type:luminance" maskUnits="userSpaceOnUse" x="35" y="23" width="33" height="20">
<path d="M35.457 23.5186H67.2962V42.1517H35.457V23.5186Z" fill="white"/>
</mask>
<g mask="url(#mask9_706_1437)">
<mask id="mask10_706_1437" style="mask-type:luminance" maskUnits="userSpaceOnUse" x="13" y="-11" width="77" height="78">
<path d="M56.2606 -10.3398L89.2022 37.2663L46.8366 66.582L13.895 18.9759L56.2606 -10.3398Z" fill="white"/>
</mask>
<g mask="url(#mask10_706_1437)">
<mask id="mask11_706_1437" style="mask-type:luminance" maskUnits="userSpaceOnUse" x="13" y="-11" width="77" height="78">
<path d="M56.2567 -10.3389L89.1982 37.2673L46.8327 66.583L13.8911 18.9768L56.2567 -10.3389Z" fill="white"/>
</mask>
<g mask="url(#mask11_706_1437)">
<mask id="mask12_706_1437" style="mask-type:luminance" maskUnits="userSpaceOnUse" x="13" y="-11" width="77" height="78">
<path d="M56.2557 -10.3398L89.1973 37.2663L46.8317 66.582L13.8901 18.9759L56.2557 -10.3398Z" fill="white"/>
</mask>
<g mask="url(#mask12_706_1437)">
<path d="M65.8517 30.6631C64.0688 28.2725 61.5524 26.4768 58.7229 25.4642C55.1055 24.1618 51.2076 23.535 47.3224 23.6756C46.3811 23.8078 45.1261 23.8396 44.0817 24.094C41.8161 24.5971 39.6453 25.6373 37.8186 27.0832C36.4137 28.2322 35.4244 29.5946 35.6237 31.3938C37.3147 31.8573 39.304 32.2439 40.7816 31.0673C41.1321 29.9621 42.4026 29.6716 43.469 29.5656C47.769 28.9085 52.1319 29.4257 56.2652 30.5189C57.6502 30.9168 59.0883 31.4446 60.3157 32.2488C61.1079 32.7894 61.7184 33.7597 61.4012 34.7518C61.31 36.0287 59.9256 36.1312 59.354 36.8089C58.6904 38.4349 59.5843 40.0284 61.0888 40.9909C63.0915 40.3669 64.4073 39.8348 65.834 38.2498C67.4183 36.2853 67.6777 33.3159 66.2672 31.263C66.1372 31.0574 65.998 30.8574 65.8524 30.6631H65.8517ZM52.8633 36.3107C50.2105 36.028 48.2347 35.8394 45.7204 34.9921C44.2449 36.6605 42.1617 37.524 39.9739 37.8116C43.698 40.5831 48.1117 41.5626 52.7184 42.0198C53.5127 42.1844 54.018 42.1427 53.5156 41.3329C53.0089 39.7458 52.4824 37.9664 52.8633 36.3107Z" fill="white"/>
</g>
</g>
</g>
</g>
<mask id="mask13_706_1437" style="mask-type:luminance" maskUnits="userSpaceOnUse" x="33" y="21" width="36" height="23">
<path d="M33.8271 21.8896H68.9226V43.7791H33.8271V21.8896Z" fill="white"/>
</mask>
<g mask="url(#mask13_706_1437)">
<mask id="mask14_706_1437" style="mask-type:luminance" maskUnits="userSpaceOnUse" x="13" y="-11" width="77" height="78">
<path d="M56.2606 -10.3389L89.2022 37.2673L46.8366 66.583L13.895 18.9768L56.2606 -10.3389Z" fill="white"/>
</mask>
<g mask="url(#mask14_706_1437)">
<mask id="mask15_706_1437" style="mask-type:luminance" maskUnits="userSpaceOnUse" x="13" y="-11" width="77" height="78">
<path d="M56.2601 -10.3418L89.2017 37.2644L46.8361 66.5801L13.8945 18.9739L56.2601 -10.3418Z" fill="white"/>
</mask>
<g mask="url(#mask15_706_1437)">
<mask id="mask16_706_1437" style="mask-type:luminance" maskUnits="userSpaceOnUse" x="13" y="-11" width="77" height="78">
<path d="M56.2596 -10.3438L89.2012 37.2624L46.8356 66.5781L13.894 18.972L56.2596 -10.3438Z" fill="white"/>
</mask>
<g mask="url(#mask16_706_1437)">
<path d="M65.8529 30.6603C64.07 28.2697 61.5536 26.474 58.7241 25.4614C55.1067 24.159 51.2088 23.5322 47.3236 23.6729C46.3823 23.805 45.1273 23.8368 44.0829 24.0912C41.8173 24.5943 39.6465 25.6345 37.8198 27.0804C36.4149 28.2294 35.4256 29.5918 35.6249 31.391C37.3159 31.8545 39.3052 32.2411 40.7828 31.0645C41.1333 29.9593 42.4039 29.6688 43.4702 29.5628C47.7702 28.9057 52.1331 29.4229 56.2664 30.5161C57.6514 30.914 59.0895 31.4419 60.3169 32.246C61.1091 32.7866 61.7197 33.7569 61.4024 34.749C61.3112 36.0259 59.9269 36.1284 59.3552 36.8061C58.6916 38.4321 59.5855 40.0256 61.09 40.9881C63.0927 40.3641 64.4085 39.832 65.8352 38.247C67.4196 36.2825 67.6789 33.3131 66.2684 31.2602C66.1384 31.0546 65.9992 30.8546 65.8536 30.6603L65.8529 30.6603ZM52.8645 36.3079C50.2117 36.0252 48.2359 35.8366 45.7216 34.9893C44.2461 36.6577 42.1629 37.5212 39.9751 37.8088C43.6992 40.5803 48.113 41.5598 52.7197 42.017C53.5139 42.1816 54.0192 42.1399 53.5168 41.3301C53.0101 39.743 52.4836 37.9636 52.8645 36.3079Z" stroke="black" stroke-width="0.285073"/>
</g>
</g>
</g>
</g>
<mask id="mask17_706_1437" style="mask-type:luminance" maskUnits="userSpaceOnUse" x="53" y="24" width="32" height="24">
<path d="M53.0068 24.2412H84.846V47.5779H53.0068V24.2412Z" fill="white"/>
</mask>
<g mask="url(#mask17_706_1437)">
<mask id="mask18_706_1437" style="mask-type:luminance" maskUnits="userSpaceOnUse" x="13" y="-11" width="77" height="78">
<path d="M56.264 -10.3389L89.2056 37.2673L46.84 66.583L13.8984 18.9768L56.264 -10.3389Z" fill="white"/>
</mask>
<g mask="url(#mask18_706_1437)">
<mask id="mask19_706_1437" style="mask-type:luminance" maskUnits="userSpaceOnUse" x="13" y="-11" width="77" height="78">
<path d="M56.2645 -10.3418L89.2061 37.2644L46.8405 66.5801L13.8989 18.9739L56.2645 -10.3418Z" fill="white"/>
</mask>
<g mask="url(#mask19_706_1437)">
<mask id="mask20_706_1437" style="mask-type:luminance" maskUnits="userSpaceOnUse" x="13" y="-11" width="77" height="78">
<path d="M56.264 -10.3447L89.2056 37.2614L46.84 66.5771L13.8984 18.971L56.264 -10.3447Z" fill="white"/>
</mask>
<g mask="url(#mask20_706_1437)">
<path d="M83.0412 28.7253C81.064 25.7305 77.3095 24.4832 73.791 24.4055C69.8337 24.3334 65.2617 25.2047 61.5715 26.6817C63.2025 27.2979 65.8447 29.9266 66.5485 31.294C69.4995 30.4997 73.0236 29.6072 75.9838 30.499C77.7957 30.9824 79.0825 32.7469 78.932 34.6196C78.7737 36.8696 76.7145 38.4122 74.8376 39.3732C72.0095 40.7442 68.9116 41.5399 65.8058 41.8197C63.647 41.954 61.0987 41.7625 59.6529 40.0092C58.4686 38.5373 58.5837 36.242 59.9101 34.8238C60.1391 34.1821 61.3447 33.8118 61.0592 33.356C60.8083 32.5759 58.7654 31.4481 56.485 30.8022C54.0406 32.8275 52.792 35.1227 53.0824 38.2574C53.3043 41.4268 54.9982 44.5439 57.8877 46.0137C61.2132 47.8037 65.2447 47.7556 68.9356 47.1027C73.408 46.2342 78.0324 44.758 81.4342 41.554C83.6122 39.5443 84.9838 36.6031 84.6877 33.6748C84.5379 31.9222 84.015 30.1853 83.0419 28.7253H83.0412Z" fill="white"/>
</g>
</g>
</g>
</g>
<mask id="mask21_706_1437" style="mask-type:luminance" maskUnits="userSpaceOnUse" x="51" y="22" width="36" height="28">
<path d="M51.3779 22.6133H86.4734V49.2062H51.3779V22.6133Z" fill="white"/>
</mask>
<g mask="url(#mask21_706_1437)">
<mask id="mask22_706_1437" style="mask-type:luminance" maskUnits="userSpaceOnUse" x="13" y="-11" width="77" height="78">
<path d="M56.2611 -10.3389L89.2026 37.2673L46.8371 66.583L13.8955 18.9768L56.2611 -10.3389Z" fill="white"/>
</mask>
<g mask="url(#mask22_706_1437)">
<mask id="mask23_706_1437" style="mask-type:luminance" maskUnits="userSpaceOnUse" x="13" y="-11" width="77" height="78">
<path d="M56.2611 -10.3418L89.2026 37.2644L46.8371 66.5801L13.8955 18.9739L56.2611 -10.3418Z" fill="white"/>
</mask>
<g mask="url(#mask23_706_1437)">
<mask id="mask24_706_1437" style="mask-type:luminance" maskUnits="userSpaceOnUse" x="13" y="-11" width="77" height="78">
<path d="M56.2606 -10.3438L89.2022 37.2624L46.8366 66.5781L13.895 18.972L56.2606 -10.3438Z" fill="white"/>
</mask>
<g mask="url(#mask24_706_1437)">
<path d="M83.0391 28.7269C81.0618 25.7321 77.3073 24.4849 73.7889 24.4071C69.8316 24.335 65.2595 25.2064 61.5694 26.6833C63.2003 27.2995 65.8425 29.9282 66.5464 31.2956C69.4974 30.5013 73.0215 29.6088 75.9817 30.5006C77.7935 30.984 79.0804 32.7485 78.9298 34.6212C78.7715 36.8712 76.7123 38.4138 74.8355 39.3748C72.0074 40.7458 68.9094 41.5415 65.8037 41.8213C63.6448 41.9556 61.0966 41.7641 59.6508 40.0108C58.4664 38.5389 58.5816 36.2436 59.908 34.8254C60.137 34.1837 61.3425 33.8134 61.057 33.3577C60.8062 32.5775 58.7632 31.4497 56.4828 30.8038C54.0385 32.8291 52.7898 35.1243 53.0803 38.259C53.3022 41.4284 54.996 44.5455 57.8856 46.0153C61.2111 47.8053 65.2426 47.7572 68.9335 47.1043C73.4059 46.2358 78.0303 44.7596 81.4321 41.5556C83.61 39.5459 84.9817 36.6047 84.6856 33.6764C84.5358 31.9238 84.0128 30.1869 83.0398 28.7269L83.0391 28.7269Z" stroke="black" stroke-width="0.285073"/>
</g>
</g>
</g>
</g>
</g>
</svg>
