<svg width="90" height="90" viewBox="0 0 90 90" fill="none" xmlns="http://www.w3.org/2000/svg">
<mask id="mask0_1461_1135" style="mask-type:luminance" maskUnits="userSpaceOnUse" x="0" y="0" width="90" height="90">
<path d="M0 0H90V90H0V0Z" fill="white"/>
</mask>
<g mask="url(#mask0_1461_1135)">
<path d="M11.7565 13.2078V37.7461C11.7565 38.547 12.4069 39.1974 13.2078 39.1974H37.7461C38.547 39.1974 39.1974 38.547 39.1974 37.7461V13.2078C39.1974 12.406 38.547 11.7565 37.7461 11.7565H13.2078C12.4043 11.7565 11.7565 12.4043 11.7565 13.2078ZM14.6565 14.6565H36.2931V36.2922H14.6565V14.6565ZM0 17.2123V1.4513C0 0.650401 0.650401 0 1.4513 0H17.2123C18.0132 0 18.6636 0.650401 18.6636 1.4513C18.6636 2.2522 18.0132 2.9026 17.2123 2.9026H2.9026V17.2123C2.9026 18.0132 2.2522 18.6636 1.4513 18.6636C0.650401 18.6636 0 18.0132 0 17.2123ZM71.3364 1.4513C71.3364 0.650401 71.9868 0 72.7877 0H88.5487C89.3505 0 90 0.650401 90 1.4513V17.2123C90 18.0132 89.3505 18.6636 88.5487 18.6636C87.7478 18.6636 87.0983 18.0132 87.0983 17.2123V2.9026H72.7877C71.9868 2.9026 71.3364 2.2522 71.3364 1.4513ZM18.6636 88.5487C18.6636 89.3496 18.0132 90 17.2123 90H1.4513C0.650401 90 0 89.3496 0 88.5487V72.7877C0 71.9868 0.650401 71.3364 1.4513 71.3364C2.2522 71.3364 2.9026 71.9868 2.9026 72.7877V87.0974H17.2123C18.0132 87.0974 18.6636 87.7478 18.6636 88.5487ZM90 72.7877V88.5487C90 89.3496 89.3505 90 88.5487 90H72.7877C71.9868 90 71.3364 89.3496 71.3364 88.5487C71.3364 87.7478 71.9868 87.0974 72.7877 87.0974H87.0983V72.7877C87.0983 71.9868 87.7478 71.3364 88.5487 71.3364C89.3505 71.3364 90 71.9868 90 72.7877ZM52.2539 39.1974H76.7931C77.594 39.1974 78.2444 38.547 78.2444 37.7461V13.2078C78.2444 12.406 77.594 11.7565 76.7931 11.7565H52.2539C51.453 11.7565 50.8026 12.406 50.8026 13.2078V37.7461C50.8026 38.547 51.453 39.1974 52.2539 39.1974ZM53.7052 14.6565H75.3418V36.2922H53.7052V14.6565ZM37.7461 50.8026H13.2078C12.4069 50.8026 11.7565 51.453 11.7565 52.2539V76.7931C11.7565 77.594 12.4069 78.2435 13.2078 78.2435H37.7461C38.547 78.2435 39.1974 77.594 39.1974 76.7931V52.2539C39.1974 51.453 38.547 50.8026 37.7461 50.8026ZM36.2948 75.3435H14.6565V53.7078H36.2931V75.3435H36.2948ZM56.5699 71.0257H52.2539C51.453 71.0257 50.8026 71.6761 50.8026 72.477V76.7931C50.8026 77.594 51.453 78.2435 52.2539 78.2435H56.5699C57.3708 78.2435 58.0212 77.594 58.0212 76.7931V72.477C58.0212 71.6761 57.3726 71.0257 56.5699 71.0257ZM55.1186 75.3435H53.7052V73.931H55.1186V75.3435ZM46.4513 13.2078V13.2228C46.4513 14.0245 45.8009 14.6741 45 14.6741C44.1991 14.6741 43.5487 14.0245 43.5487 13.2228V13.2078C43.5487 12.406 44.1991 11.7565 45 11.7565C45.8009 11.7565 46.4513 12.4043 46.4513 13.2078ZM46.4513 18.3846V37.7461C46.4513 38.547 45.8009 39.1974 45 39.1974C44.1991 39.1974 43.5487 38.547 43.5487 37.7461V18.3846C43.5487 17.5837 44.1991 16.9333 45 16.9333C45.8009 16.9333 46.4513 17.5837 46.4513 18.3846ZM46.4513 44.9912V45.007C46.4513 45.8079 45.8009 46.4583 45 46.4583C44.1991 46.4583 43.5487 45.8079 43.5487 45.007V44.9912C43.5487 44.1903 44.1991 43.5399 45 43.5399C45.8009 43.5399 46.4513 44.1903 46.4513 44.9912ZM46.4513 76.7772V76.7931C46.4513 77.594 45.8009 78.2435 45 78.2435C44.1991 78.2435 43.5487 77.594 43.5487 76.7931V76.7772C43.5487 75.9763 44.1991 75.3259 45 75.3259C45.8009 75.3259 46.4513 75.9763 46.4513 76.7772ZM46.4513 52.2539V71.6154C46.4513 72.4163 45.8009 73.0667 45 73.0667C44.1991 73.0667 43.5487 72.4163 43.5487 71.6154V52.2539C43.5487 51.453 44.1991 50.8026 45 50.8026C45.8009 50.8026 46.4513 51.453 46.4513 52.2539ZM13.2236 43.5487C14.0245 43.5487 14.6749 44.1991 14.6749 45C14.6749 45.8009 14.0245 46.4513 13.2236 46.4513H13.2078C12.4069 46.4513 11.7565 45.8009 11.7565 45C11.7565 44.1991 12.4069 43.5487 13.2078 43.5487H13.2236ZM39.1974 45C39.1974 45.8009 38.547 46.4513 37.7461 46.4513H18.3846C17.5837 46.4513 16.9333 45.8009 16.9333 45C16.9333 44.1991 17.5837 43.5487 18.3846 43.5487H37.7461C38.547 43.5487 39.1974 44.1991 39.1974 45ZM78.2444 45C78.2444 45.8009 77.594 46.4513 76.7931 46.4513H76.7772C75.9763 46.4513 75.3259 45.8009 75.3259 45C75.3259 44.1991 75.9763 43.5487 76.7772 43.5487H76.7931C77.5957 43.5487 78.2444 44.1991 78.2444 45ZM71.6154 46.4513H52.2539C51.453 46.4513 50.8026 45.8009 50.8026 45C50.8026 44.1991 51.453 43.5487 52.2539 43.5487H71.6154C72.4163 43.5487 73.0667 44.1991 73.0667 45C73.0667 45.8009 72.4163 46.4513 71.6154 46.4513ZM30.8593 21.5433V29.4071C30.8593 30.2089 30.2089 30.8584 29.408 30.8584H21.5442C20.7424 30.8584 20.0929 30.2089 20.0929 29.4071V21.5433C20.0929 20.7424 20.7424 20.092 21.5442 20.092H29.408C30.2089 20.092 30.8593 20.7424 30.8593 21.5433ZM69.908 21.5433V29.4071C69.908 30.2089 69.2576 30.8584 68.4567 30.8584H60.5929C59.792 30.8584 59.1416 30.2089 59.1416 29.4071V21.5433C59.1416 20.7424 59.792 20.092 60.5929 20.092H68.4567C69.2576 20.092 69.908 20.7424 69.908 21.5433ZM20.0929 68.4567V60.5929C20.0929 59.792 20.7424 59.1416 21.5442 59.1416H29.408C30.2089 59.1416 30.8593 59.792 30.8593 60.5929V68.4567C30.8593 69.2576 30.2089 69.908 29.408 69.908H21.5442C20.7424 69.908 20.0929 69.2576 20.0929 68.4567ZM50.8026 56.635V52.2565C50.8026 51.4556 51.453 50.8052 52.2539 50.8052C53.0556 50.8052 53.7052 51.4556 53.7052 52.2565V56.635C53.7052 57.4359 53.0556 58.0864 52.2539 58.0864C51.453 58.0864 50.8026 57.4359 50.8026 56.635ZM58.3161 53.7052V56.635C58.3161 57.4333 57.6674 58.0793 56.8709 58.0793C56.0727 58.0793 55.4267 57.4315 55.4267 56.635V52.2539C55.4267 51.4556 56.0744 50.8096 56.8709 50.8096C56.914 50.8096 56.9545 50.8114 56.9977 50.8166C57.0531 50.8096 57.1121 50.8052 57.1702 50.8052H62.251C63.0519 50.8052 63.7023 51.4556 63.7023 52.2565C63.7023 53.0574 63.0519 53.7078 62.251 53.7078H58.3161V53.7052ZM78.2444 52.2539V76.7931C78.2444 77.594 77.594 78.2435 76.7931 78.2435C75.9922 78.2435 75.3418 77.594 75.3418 76.7931V52.2539C75.3418 51.453 75.9922 50.8026 76.7931 50.8026C77.5957 50.8026 78.2444 51.453 78.2444 52.2539ZM50.8026 60.7953V60.7795C50.8026 59.9786 51.453 59.3282 52.2539 59.3282C53.0556 59.3282 53.7052 59.9786 53.7052 60.7795V60.7953C53.7052 61.5962 53.0556 62.2466 52.2539 62.2466C51.453 62.2466 50.8026 61.5962 50.8026 60.7953ZM63.6997 56.6166V56.6324C63.6997 57.4333 63.0502 58.0837 62.2484 58.0837C61.4475 58.0837 60.7971 57.4333 60.7971 56.6324V56.6166C60.7971 55.8157 61.4475 55.1653 62.2484 55.1653C63.0502 55.1653 63.6997 55.8157 63.6997 56.6166ZM73.6608 52.2539C73.6608 53.0548 73.0104 53.7052 72.2095 53.7052H67.17C66.3682 53.7052 65.7187 53.0548 65.7187 52.2539C65.7187 51.453 66.3682 50.8026 67.17 50.8026H72.2095C73.0104 50.8026 73.6608 51.453 73.6608 52.2539ZM50.8026 68.1777V65.2161C50.8026 64.4152 51.453 63.7648 52.2539 63.7648C53.0556 63.7648 53.7052 64.4152 53.7052 65.2161V68.1777C53.7052 68.9786 53.0556 69.629 52.2539 69.629C51.453 69.629 50.8026 68.9786 50.8026 68.1777ZM72.2095 78.2435H67.17C66.3682 78.2435 65.7187 77.594 65.7187 76.7931C65.7187 75.9913 66.3682 75.3418 67.17 75.3418H72.2095C73.0104 75.3418 73.6608 75.9913 73.6608 76.7931C73.6608 77.594 73.0104 78.2435 72.2095 78.2435ZM65.7187 72.4797C65.7187 71.6788 66.3682 71.0284 67.17 71.0284H72.2095C73.0104 71.0284 73.6608 71.6788 73.6608 72.4797C73.6608 73.2806 73.0104 73.931 72.2095 73.931H67.17C66.3682 73.931 65.7187 73.2806 65.7187 72.4797ZM65.3877 60.7795C65.3877 61.5804 64.7373 62.2308 63.9364 62.2308H60.6149C59.814 62.2308 59.1636 61.5804 59.1636 60.7795C59.1636 59.9786 59.814 59.3282 60.6149 59.3282H63.9364C64.7373 59.3282 65.3877 59.9786 65.3877 60.7795ZM62.809 76.7772V76.7931C62.809 77.594 62.1586 78.2435 61.3577 78.2435C60.5568 78.2435 59.9064 77.594 59.9064 76.7931V76.7772C59.9064 75.9763 60.5568 75.3259 61.3577 75.3259C62.1613 75.3259 62.809 75.9763 62.809 76.7772ZM62.809 72.47V72.4858C62.809 73.2867 62.1586 73.9371 61.3577 73.9371C60.5568 73.9371 59.9064 73.2867 59.9064 72.4858V72.47C59.9064 71.6691 60.5568 71.0196 61.3577 71.0196C62.1613 71.0196 62.809 71.6691 62.809 72.47ZM58.0212 68.1618V68.1777C58.0212 68.9786 57.3708 69.629 56.5699 69.629C55.769 69.629 55.1186 68.9786 55.1186 68.1777V68.1618C55.1186 67.3609 55.769 66.7105 56.5699 66.7105C57.3708 66.7105 58.0212 67.3609 58.0212 68.1618ZM58.0212 64.4645C58.0212 65.2663 57.3708 65.9158 56.5699 65.9158C55.769 65.9158 55.1186 65.2663 55.1186 64.4645C55.1186 63.6618 55.769 63.0132 56.5699 63.0132C57.3708 63.0114 58.0212 63.6618 58.0212 64.4645ZM58.0212 60.7953C58.0212 61.5962 57.3708 62.2466 56.5699 62.2466C55.769 62.2466 55.1186 61.5962 55.1186 60.7953V60.7795C55.1186 59.9786 55.769 59.3282 56.5699 59.3282C57.3708 59.3282 58.0212 59.9786 58.0212 60.7795V60.7953ZM72.2077 58.0864C71.4059 58.0864 70.7564 57.4359 70.7564 56.635V56.6192C70.7564 55.8183 71.4059 55.1679 72.2077 55.1679C73.0086 55.1679 73.6581 55.8183 73.6581 56.6192V56.635C73.6581 57.4359 73.0086 58.0864 72.2077 58.0864ZM64.5525 56.6166C64.5525 55.8157 65.2029 55.1653 66.0038 55.1653H68.065C68.8659 55.1653 69.5163 55.8157 69.5163 56.6166C69.5163 57.4175 68.8659 58.0679 68.065 58.0679H66.0038C65.2029 58.0679 64.5525 57.4175 64.5525 56.6166ZM73.6608 60.7795C73.6608 59.9786 73.0104 59.3282 72.2095 59.3282H67.8943C67.0934 59.3282 66.443 59.9786 66.443 60.7795V65.0947C66.443 65.8956 67.0934 66.546 67.8943 66.546H72.2095C73.0104 66.546 73.6608 65.8956 73.6608 65.0947V60.7795ZM70.7582 63.6434H69.3456V62.2308H70.7582V63.6434ZM65.3877 64.6088C65.3877 65.4097 64.7373 66.0601 63.9364 66.0601H60.6149C59.814 66.0601 59.1636 65.4097 59.1636 64.6088C59.1636 63.8079 59.814 63.1575 60.6149 63.1575H63.9364C64.7373 63.1575 65.3877 63.8079 65.3877 64.6088ZM65.3877 68.1777C65.3877 68.9786 64.7373 69.629 63.9364 69.629H60.6149C59.814 69.629 59.1636 68.9786 59.1636 68.1777C59.1636 67.3768 59.814 66.7264 60.6149 66.7264H63.9364C64.7373 66.7264 65.3877 67.3768 65.3877 68.1777ZM67.8943 70.1122C67.0934 70.1122 66.443 69.4618 66.443 68.6609V68.645C66.443 67.8441 67.0934 67.1937 67.8943 67.1937C68.6952 67.1937 69.3456 67.8441 69.3456 68.645V68.6609C69.3456 69.4618 68.6952 70.1122 67.8943 70.1122ZM72.2077 70.1122C71.4059 70.1122 70.7564 69.4618 70.7564 68.6609V68.645C70.7564 67.8441 71.4059 67.1937 72.2077 67.1937C73.0086 67.1937 73.6581 67.8441 73.6581 68.645V68.6609C73.6581 69.4618 73.0086 70.1122 72.2077 70.1122Z" fill="black"/>
</g>
</svg>
