<svg width="251" height="251" viewBox="0 0 251 251" fill="none" xmlns="http://www.w3.org/2000/svg">
<g filter="url(#filter0_d_2425_3274)">
<g clip-path="url(#clip0_2425_3274)">
<rect x="14" y="14" width="223" height="223" rx="111.5" fill="#6B4336" fill-opacity="0.7" shape-rendering="crispEdges"/>
<g opacity="0.8" filter="url(#filter1_d_2425_3274)">
<mask id="mask0_2425_3274" style="mask-type:luminance" maskUnits="userSpaceOnUse" x="14" y="14" width="223" height="223">
<path d="M14 14H237V237H14V14Z" fill="white"/>
</mask>
<g mask="url(#mask0_2425_3274)">
<path d="M204.39 184.613L203.773 185.403L214.059 193.227L214.761 192.348C215.026 192.083 215.201 191.733 215.376 191.468L205.005 183.821C204.74 184.086 204.565 184.348 204.39 184.613ZM207.554 180.042L218.277 187.162C218.717 186.547 219.067 185.93 219.507 185.315L208.609 178.371C208.344 178.988 207.904 179.515 207.554 180.042ZM211.07 174.504L222.233 180.92L223.288 178.988L211.947 172.745L211.07 174.504ZM199.642 190.413L209.311 198.94C209.838 198.413 210.278 197.798 210.718 197.27L200.874 188.919C200.522 189.446 200.082 189.886 199.642 190.413ZM195.159 195.161L204.3 204.303L205.882 202.719L196.566 193.754L195.159 195.161ZM214.059 168.792L225.66 174.504C226.012 173.8 226.277 173.185 226.627 172.483L214.936 167.032C214.674 167.56 214.409 168.175 214.059 168.792ZM220.914 150.419L233.396 153.673C233.571 152.968 233.746 152.266 233.924 151.474L221.354 148.487C221.179 149.189 221.089 149.804 220.914 150.419ZM216.783 162.814L228.738 167.735C229.001 167.032 229.265 166.33 229.528 165.626L217.485 160.967C217.223 161.582 216.958 162.199 216.783 162.814ZM222.496 143.124L222.321 144.091L234.978 146.553L235.153 145.498C235.241 145.146 235.241 144.794 235.331 144.444L222.583 142.245C222.583 142.509 222.583 142.772 222.496 143.124ZM223.288 137.674L236.12 139.256L236.385 137.059L223.55 135.74L223.288 137.674ZM223.903 131.169L236.823 131.874C236.912 131.169 236.912 130.379 236.912 129.675L223.99 129.237C223.99 129.852 223.99 130.467 223.903 131.169ZM218.98 156.661L231.197 160.705L231.902 158.593L219.597 154.727L218.98 156.661ZM151.299 220.651L154.637 233.132C155.342 232.957 156.044 232.782 156.749 232.517L153.145 220.124C152.618 220.299 151.913 220.474 151.299 220.651ZM138.554 223.2L140.223 236.033L142.42 235.681L140.488 222.936L138.554 223.2ZM157.539 218.717L161.759 230.935L163.869 230.233L159.385 218.102L157.539 218.717ZM133.016 223.728L132.049 223.815L132.928 236.735L135.212 236.56L134.158 223.728H133.016ZM125.544 224.08V237H127.74L127.478 224.08H125.544ZM144.969 222.146L147.518 234.803C148.222 234.626 149.012 234.451 149.717 234.363L146.903 221.793C146.288 221.881 145.586 221.968 144.969 222.146ZM186.107 203.246L194.017 213.444C194.632 213.004 195.159 212.477 195.776 212.037L187.6 202.016C187.072 202.456 186.635 202.808 186.107 203.246ZM191.82 198.413L191.116 199.027L199.73 208.696L200.522 207.994L201.312 207.202L192.523 197.71L191.82 198.413ZM180.832 207.114L188.129 217.75L189.974 216.52L182.502 205.972L180.832 207.114ZM175.294 210.543L181.799 221.706C182.414 221.354 183.119 221.001 183.733 220.564L176.966 209.576C176.436 209.928 175.822 210.191 175.294 210.543ZM170.461 213.267L169.581 213.707L175.382 225.222L177.316 224.167L171.338 212.74L170.461 213.267ZM163.604 216.431L168.614 228.298C169.317 228.034 169.934 227.684 170.636 227.419L165.363 215.641C164.836 215.903 164.219 216.168 163.604 216.431ZM83.2652 228.651C83.9676 228.913 84.6721 229.178 85.3745 229.44L90.0327 217.398C89.4179 217.135 88.803 216.958 88.1882 216.695L83.2652 228.651ZM90.2099 231.287L92.3192 231.99L96.1853 219.684L94.3409 219.069L90.2099 231.287ZM82.2106 214.059L76.4956 225.662C77.2001 226.012 77.8149 226.277 78.5173 226.629L83.9676 214.936C83.4403 214.674 82.8254 214.409 82.2106 214.059ZM97.3297 233.396C98.032 233.571 98.7343 233.749 99.5264 233.924L102.515 221.354C101.9 221.179 101.196 221.091 100.581 220.914L97.3297 233.396ZM106.909 222.321L104.449 234.978L105.504 235.153C105.854 235.243 106.206 235.243 106.559 235.331L108.755 222.586C108.403 222.496 108.14 222.496 107.788 222.408L106.909 222.321ZM55.841 195.161L46.6995 204.303L48.2815 205.885L57.2479 196.566L55.841 195.161ZM60.5867 199.642L52.0601 209.311C52.5874 209.838 53.2045 210.278 53.7318 210.718L62.0811 200.874C61.5538 200.522 61.114 200.082 60.5867 199.642ZM76.4956 210.983L70.0804 222.233L72.0146 223.288L78.2547 211.95L76.4956 210.983ZM70.96 207.554L63.8403 218.277C64.4551 218.717 65.0699 219.069 65.6847 219.507L72.6294 208.609C72.0146 208.344 71.4873 207.906 70.96 207.554ZM66.3893 204.39L65.5972 203.773L57.7752 214.059L58.6525 214.761C58.9173 215.026 59.2696 215.201 59.5321 215.376L67.1791 205.005C66.9166 204.74 66.6518 204.565 66.3893 204.39ZM111.744 236.12L113.941 236.385L115.26 223.55L113.326 223.288L111.744 236.12ZM119.129 236.735C119.831 236.825 120.621 236.825 121.325 236.825L121.765 223.903C121.148 223.903 120.446 223.903 119.831 223.815L119.129 236.735ZM43.8858 180.832L33.2499 188.129L34.4818 189.974L45.0279 182.504L43.8858 180.832ZM47.7542 186.107L37.5581 194.017C37.9979 194.632 38.5252 195.161 38.9628 195.776L48.9838 187.602C48.544 187.074 48.1939 186.635 47.7542 186.107ZM52.5874 191.82L51.9726 191.118L42.3039 199.732L43.0062 200.522L43.7983 201.314L53.292 192.523L52.5874 191.82ZM30.3509 151.299L17.8684 154.64C18.0434 155.342 18.2207 156.044 18.4832 156.749L30.8782 153.145C30.7009 152.528 30.5259 151.913 30.3509 151.299ZM40.4572 175.294L29.294 181.799C29.6463 182.414 29.9986 183.119 30.4384 183.733L41.4243 176.966C41.0742 176.439 40.8095 175.822 40.4572 175.294ZM37.7331 170.461L37.2934 169.581L25.7802 175.294L26.8348 177.228L38.2604 171.251L37.7331 170.461ZM34.5693 163.604L22.7016 168.614C22.9664 169.319 23.3187 169.934 23.5812 170.636L35.3592 165.363C35.0966 164.836 34.8319 164.221 34.5693 163.604ZM26.9223 125.544H14V127.743L26.9223 127.478V125.544ZM28.8565 144.971L16.199 147.52C16.374 148.222 16.549 149.014 16.6365 149.717L29.2065 146.903C29.119 146.201 29.0315 145.586 28.8565 144.971ZM27.2723 133.016L27.1848 132.049L14.2648 132.928L14.4398 135.212L27.2723 134.158V133.016ZM32.2828 157.539L20.0651 161.759L20.7697 163.869L32.8999 159.385L32.2828 157.539ZM27.7996 138.554L14.9671 140.223L15.3194 142.422L28.0644 140.488L27.7996 138.554ZM30.1736 100.581L17.6934 97.3297C17.5161 98.032 17.3411 98.7343 17.1661 99.5264L29.7338 102.515C29.8213 101.813 29.9986 101.196 30.1736 100.581ZM28.5042 107.876L28.6792 106.911L16.0217 104.449L15.8467 105.504C15.7592 105.854 15.7592 106.206 15.6717 106.559L28.4167 108.755C28.4167 108.493 28.4167 108.228 28.5042 107.876ZM36.9433 82.2106L25.3404 76.4978C24.9881 77.2001 24.7233 77.8149 24.3733 78.5195L36.0637 83.9676C36.3263 83.4403 36.591 82.8254 36.9433 82.2106ZM32.0203 94.3409L19.8026 90.2974L19.098 92.4067L31.4055 96.275L32.0203 94.3409ZM34.3046 88.1882L22.3516 83.2652C22.0868 83.9676 21.8243 84.6721 21.5595 85.3745L33.6022 90.0327C33.7772 89.4179 34.042 88.803 34.3046 88.1882ZM40.0196 76.4978L28.8565 70.0804L27.7996 72.0146L39.14 78.2547L40.0196 76.4978ZM43.446 70.96L32.7226 63.8403C32.2828 64.4551 31.9328 65.0699 31.493 65.6847L42.3914 72.6294C42.6561 72.0146 43.0959 71.4873 43.446 70.96ZM51.3578 60.5867L41.689 52.0601C41.1617 52.5874 40.7219 53.2045 40.2822 53.7318L50.1259 62.0811C50.4782 61.5538 50.918 61.0265 51.3578 60.5867ZM46.612 66.3893L47.2268 65.5972L36.9433 57.7752L36.2387 58.6525C35.9762 58.9173 35.799 59.2696 35.6239 59.5321L45.995 67.1791C46.2598 66.9166 46.4348 66.6518 46.612 66.3893ZM55.841 55.841L46.6995 46.6995L45.1176 48.2815L54.4341 57.2479L55.841 55.841ZM27.0973 119.831L14.1773 119.129C14.0875 119.831 14.0875 120.623 14.0875 121.325L27.0098 121.765C27.0098 121.15 27.0973 120.533 27.0973 119.831ZM27.7121 113.326L14.8796 111.744L14.6171 113.941L27.4496 115.26L27.7121 113.326ZM64.8949 47.7542L56.9831 37.5581C56.3683 37.9979 55.841 38.5252 55.2262 38.965L63.4005 48.9838C63.9278 48.5462 64.3676 48.1064 64.8949 47.7542ZM80.539 37.7331L81.4186 37.2934L75.6182 25.7802L73.684 26.8348L79.6616 38.2604L80.539 37.7331ZM70.1679 43.8858L62.9607 33.2499L61.114 34.4818L68.586 45.0301L70.1679 43.8858ZM99.7014 30.3509L96.3626 17.8684C95.658 18.0434 94.9557 18.2207 94.2511 18.4832L97.857 30.8782C98.4718 30.7009 99.0866 30.5259 99.7014 30.3509ZM87.3962 34.5693L82.3857 22.7039C81.6833 22.9664 81.0663 23.3187 80.3639 23.5812L85.637 35.3614C86.1665 35.0966 86.7813 34.8319 87.3962 34.5693ZM59.1798 52.5874L59.8844 51.9726L51.2703 42.3039L50.4782 43.0084L49.6883 43.7983L58.4775 53.292L59.1798 52.5874ZM93.4613 32.2828L89.2428 20.0651L87.1314 20.7697L91.6146 32.8999L93.4613 32.2828ZM75.7057 40.4594L69.2008 29.2963C68.586 29.6463 67.8814 29.9986 67.2666 30.4384L74.0363 41.4243C74.5636 41.0742 75.1784 40.7219 75.7057 40.4594ZM125.456 14H123.26L123.522 26.9223H125.456V14ZM110.777 14.9671L108.58 15.3194L110.514 28.0644L112.446 27.8019L110.777 14.9671ZM103.482 16.199C102.778 16.374 101.988 16.549 101.283 16.6388L104.097 29.2065C104.712 29.0315 105.414 28.944 106.031 28.769L103.482 16.199ZM117.017 14.3523L115.875 14.4398L116.93 27.2746L117.897 27.1848L118.864 27.0973L117.984 14.1773L117.017 14.3523ZM184.613 46.612L185.403 47.2268L193.227 36.9433L192.348 36.2387C192.083 35.9762 191.733 35.799 191.468 35.6239L183.821 45.995C184.086 46.2598 184.348 46.4348 184.613 46.612ZM180.042 43.446L187.162 32.7226C186.545 32.2828 185.93 31.9328 185.315 31.493L178.371 42.3914C178.985 42.6561 179.515 43.0959 180.042 43.446ZM190.413 51.3578L198.94 41.689C198.413 41.1617 197.798 40.7219 197.27 40.2822L188.919 50.1281C189.446 50.4782 189.974 50.918 190.413 51.3578ZM151.561 17.0763L148.575 29.6463C149.189 29.8236 149.892 29.9111 150.507 30.0861L153.76 17.6059C152.968 17.4286 152.266 17.2536 151.561 17.0763ZM174.504 39.9321L180.92 28.769L178.985 27.7121L172.745 39.0525L174.504 39.9321ZM195.159 55.841L204.3 46.6995L202.719 45.1176L193.754 54.4341L195.159 55.841ZM145.409 15.8467C145.058 15.7592 144.706 15.7592 144.354 15.6717L142.157 28.4167C142.509 28.5042 142.772 28.5042 143.124 28.5917L144.091 28.769L146.553 16.1115L145.409 15.8467ZM137.059 14.6171L135.74 27.4496L137.674 27.7121L139.256 14.8796L137.059 14.6171ZM129.147 27.0098C129.762 27.0098 130.467 27.0098 131.082 27.0973L131.784 14.1773C131.082 14.0898 130.292 14.0898 129.587 14.0898L129.147 27.0098ZM168.789 36.9433L174.504 25.3404C173.8 24.9881 173.185 24.7256 172.483 24.3733L167.032 36.0637C167.56 36.3263 168.175 36.591 168.789 36.9433ZM160.792 19.7151L158.681 19.0105L154.815 31.318L156.659 31.9328L160.792 19.7151ZM167.735 22.2641C167.032 21.9993 166.33 21.7368 165.626 21.472L160.967 33.5147C161.582 33.7772 162.197 33.9545 162.814 34.217L167.735 22.2641ZM222.146 106.031L234.801 103.482C234.626 102.778 234.451 101.988 234.363 101.283L221.793 104.097C221.881 104.712 222.056 105.416 222.146 106.031ZM220.651 99.7014L233.132 96.3626C232.957 95.658 232.782 94.9557 232.517 94.2533L220.124 97.857C220.299 98.3843 220.474 99.0866 220.651 99.7014ZM218.717 93.4613L230.935 89.2428L230.23 87.1336L218.102 91.6146L218.717 93.4613ZM223.2 112.446L236.033 110.777L235.681 108.58L222.936 110.514L223.2 112.446ZM224.078 125.456H237V123.26L224.078 123.522V125.456ZM223.815 117.984L223.903 118.951L236.823 118.074L236.735 116.93L236.648 115.788L223.815 116.842V117.984ZM216.431 87.3962L228.298 82.3857C228.034 81.6833 227.681 81.0685 227.419 80.3639L215.641 85.6392C215.903 86.1665 216.168 86.7813 216.431 87.3962ZM198.413 59.1798L199.027 59.8844L208.696 51.2703L207.994 50.4782L207.202 49.6883L197.708 58.4775L198.413 59.1798ZM213.267 80.5412L213.707 81.4186L225.222 75.6182L224.167 73.684L212.74 79.6616L213.267 80.5412ZM203.246 64.8949L213.442 56.9831C213.004 56.3683 212.475 55.841 212.037 55.2262L202.016 63.4005C202.456 63.9278 202.896 64.3676 203.246 64.8949ZM207.114 70.1679L217.75 62.8732L216.518 61.0265L205.972 68.4985L207.114 70.1679ZM210.543 75.7057L221.706 69.2008C221.354 68.586 221.001 67.8837 220.562 67.2666L209.576 74.0363C209.926 74.5636 210.278 75.1784 210.543 75.7057Z" fill="white"/>
</g>
</g>
</g>
</g>
<defs>
<filter id="filter0_d_2425_3274" x="0" y="0" width="251" height="251" filterUnits="userSpaceOnUse" color-interpolation-filters="sRGB">
<feFlood flood-opacity="0" result="BackgroundImageFix"/>
<feColorMatrix in="SourceAlpha" type="matrix" values="0 0 0 0 0 0 0 0 0 0 0 0 0 0 0 0 0 0 127 0" result="hardAlpha"/>
<feMorphology radius="5" operator="dilate" in="SourceAlpha" result="effect1_dropShadow_2425_3274"/>
<feOffset/>
<feGaussianBlur stdDeviation="4.5"/>
<feComposite in2="hardAlpha" operator="out"/>
<feColorMatrix type="matrix" values="0 0 0 0 0.976471 0 0 0 0 0.870588 0 0 0 0 0.694118 0 0 0 0.6 0"/>
<feBlend mode="normal" in2="BackgroundImageFix" result="effect1_dropShadow_2425_3274"/>
<feBlend mode="normal" in="SourceGraphic" in2="effect1_dropShadow_2425_3274" result="shape"/>
</filter>
<filter id="filter1_d_2425_3274" x="8.28205" y="14" width="234.436" height="234.436" filterUnits="userSpaceOnUse" color-interpolation-filters="sRGB">
<feFlood flood-opacity="0" result="BackgroundImageFix"/>
<feColorMatrix in="SourceAlpha" type="matrix" values="0 0 0 0 0 0 0 0 0 0 0 0 0 0 0 0 0 0 127 0" result="hardAlpha"/>
<feOffset dy="5.71795"/>
<feGaussianBlur stdDeviation="2.85897"/>
<feComposite in2="hardAlpha" operator="out"/>
<feColorMatrix type="matrix" values="0 0 0 0 1 0 0 0 0 0.984578 0 0 0 0 0.958333 0 0 0 1 0"/>
<feBlend mode="normal" in2="BackgroundImageFix" result="effect1_dropShadow_2425_3274"/>
<feBlend mode="normal" in="SourceGraphic" in2="effect1_dropShadow_2425_3274" result="shape"/>
</filter>
<clipPath id="clip0_2425_3274">
<rect x="14" y="14" width="223" height="223" rx="111.5" fill="white"/>
</clipPath>
</defs>
</svg>
