<svg xmlns="http://www.w3.org/2000/svg" xmlns:xlink="http://www.w3.org/1999/xlink" width="902" zoomAndPan="magnify" viewBox="0 0 676.5 399.749989" height="533" preserveAspectRatio="xMidYMid meet" version="1.0"><defs><clipPath id="0e5b3006b3"><path d="M 3.746094 5.472656 L 391.960938 5.472656 L 391.960938 393.6875 L 3.746094 393.6875 Z M 3.746094 5.472656 " clip-rule="nonzero"/></clipPath></defs><g clip-path="url(#0e5b3006b3)"><path fill="#ffffff" d="M 335.191406 302.488281 L 334.117188 303.863281 L 352.023438 317.484375 L 353.246094 315.953125 C 353.707031 315.492188 354.011719 314.882812 354.316406 314.421875 L 336.261719 301.109375 C 335.800781 301.570312 335.496094 302.027344 335.191406 302.488281 Z M 340.699219 294.53125 L 359.367188 306.925781 C 360.132812 305.855469 360.742188 304.78125 361.507812 303.710938 L 342.535156 291.621094 C 342.074219 292.695312 341.308594 293.613281 340.699219 294.53125 Z M 346.820312 284.890625 L 366.253906 296.058594 L 368.089844 292.695312 L 348.347656 281.828125 Z M 326.925781 312.585938 L 343.757812 327.429688 C 344.675781 326.511719 345.441406 325.441406 346.207031 324.523438 L 329.070312 309.984375 C 328.457031 310.902344 327.691406 311.667969 326.925781 312.585938 Z M 319.121094 320.851562 L 335.035156 336.765625 L 337.789062 334.007812 L 321.570312 318.402344 Z M 352.023438 274.945312 L 372.21875 284.890625 C 372.832031 283.664062 373.292969 282.59375 373.902344 281.371094 L 353.550781 271.882812 C 353.09375 272.800781 352.632812 273.871094 352.023438 274.945312 Z M 363.957031 242.960938 L 385.6875 248.625 C 385.992188 247.398438 386.296875 246.175781 386.605469 244.796875 L 364.722656 239.597656 C 364.417969 240.820312 364.261719 241.890625 363.957031 242.960938 Z M 356.765625 264.539062 L 377.578125 273.105469 C 378.035156 271.882812 378.496094 270.660156 378.953125 269.433594 L 357.988281 261.324219 C 357.53125 262.394531 357.070312 263.46875 356.765625 264.539062 Z M 366.710938 230.261719 L 366.40625 231.945312 L 388.441406 236.230469 L 388.746094 234.394531 C 388.898438 233.78125 388.898438 233.167969 389.054688 232.558594 L 366.863281 228.730469 C 366.863281 229.191406 366.863281 229.648438 366.710938 230.261719 Z M 368.089844 220.773438 L 390.429688 223.527344 L 390.890625 219.703125 L 368.546875 217.40625 Z M 369.160156 209.449219 L 391.652344 210.675781 C 391.808594 209.449219 391.808594 208.074219 391.808594 206.847656 L 369.3125 206.085938 C 369.3125 207.15625 369.3125 208.226562 369.160156 209.449219 Z M 360.589844 253.828125 L 381.859375 260.867188 L 383.085938 257.191406 L 361.664062 250.460938 Z M 242.765625 365.226562 L 248.578125 386.953125 C 249.804688 386.648438 251.027344 386.34375 252.253906 385.882812 L 245.980469 364.308594 C 245.0625 364.613281 243.835938 364.917969 242.765625 365.226562 Z M 220.578125 369.664062 L 223.484375 392.003906 L 227.308594 391.390625 L 223.945312 369.203125 Z M 253.628906 361.859375 L 260.976562 383.128906 L 264.648438 381.90625 L 256.84375 360.789062 Z M 210.9375 370.582031 L 209.253906 370.734375 L 210.785156 393.226562 L 214.761719 392.921875 L 212.925781 370.582031 Z M 197.929688 371.195312 L 197.929688 393.6875 L 201.753906 393.6875 L 201.296875 371.195312 Z M 231.746094 367.828125 L 236.183594 389.863281 C 237.410156 389.554688 238.785156 389.25 240.011719 389.097656 L 235.113281 367.214844 C 234.042969 367.367188 232.820312 367.519531 231.746094 367.828125 Z M 303.363281 334.925781 L 317.132812 352.679688 C 318.203125 351.914062 319.121094 350.996094 320.195312 350.230469 L 305.960938 332.785156 C 305.042969 333.550781 304.28125 334.164062 303.363281 334.925781 Z M 313.308594 326.511719 L 312.082031 327.582031 L 327.078125 344.414062 L 328.457031 343.191406 L 329.832031 341.8125 L 314.53125 325.289062 Z M 294.179688 341.660156 L 306.882812 360.175781 L 310.09375 358.035156 L 297.085938 339.671875 Z M 284.539062 347.628906 L 295.863281 367.0625 C 296.933594 366.449219 298.160156 365.835938 299.230469 365.074219 L 287.449219 345.945312 C 286.527344 346.558594 285.457031 347.015625 284.539062 347.628906 Z M 276.125 352.371094 L 274.59375 353.136719 L 284.691406 373.183594 L 288.058594 371.347656 L 277.652344 351.453125 Z M 264.1875 357.878906 L 272.910156 378.539062 C 274.132812 378.078125 275.207031 377.46875 276.429688 377.007812 L 267.25 356.503906 C 266.332031 356.960938 265.257812 357.421875 264.1875 357.878906 Z M 124.328125 379.152344 C 125.550781 379.609375 126.777344 380.070312 128 380.527344 L 136.109375 359.5625 C 135.039062 359.105469 133.96875 358.796875 132.898438 358.339844 Z M 136.417969 383.742188 L 140.089844 384.964844 L 146.820312 363.542969 L 143.609375 362.472656 Z M 122.492188 353.75 L 112.542969 373.949219 C 113.769531 374.558594 114.839844 375.019531 116.0625 375.632812 L 125.550781 355.277344 C 124.632812 354.820312 123.5625 354.359375 122.492188 353.75 Z M 148.8125 387.414062 C 150.035156 387.71875 151.257812 388.027344 152.636719 388.332031 L 157.839844 366.449219 C 156.769531 366.144531 155.542969 365.992188 154.472656 365.683594 Z M 165.488281 368.132812 L 161.207031 390.167969 L 163.042969 390.472656 C 163.652344 390.628906 164.265625 390.628906 164.878906 390.78125 L 168.703125 368.59375 C 168.089844 368.4375 167.632812 368.4375 167.019531 368.285156 Z M 76.585938 320.851562 L 60.671875 336.765625 L 63.425781 339.519531 L 79.035156 323.296875 Z M 84.847656 328.652344 L 70.003906 345.484375 C 70.921875 346.402344 71.996094 347.167969 72.914062 347.933594 L 87.449219 330.796875 C 86.53125 330.183594 85.765625 329.417969 84.847656 328.652344 Z M 112.542969 348.394531 L 101.375 367.980469 L 104.742188 369.816406 L 115.605469 350.078125 Z M 102.90625 342.425781 L 90.511719 361.09375 C 91.582031 361.859375 92.652344 362.472656 93.722656 363.234375 L 105.8125 344.261719 C 104.742188 343.800781 103.824219 343.039062 102.90625 342.425781 Z M 94.949219 336.917969 L 93.570312 335.84375 L 79.953125 353.75 L 81.480469 354.972656 C 81.941406 355.433594 82.554688 355.738281 83.011719 356.042969 L 96.324219 337.988281 C 95.867188 337.527344 95.40625 337.222656 94.949219 336.917969 Z M 173.90625 392.15625 L 177.730469 392.617188 L 180.027344 370.273438 L 176.660156 369.816406 Z M 186.761719 393.226562 C 187.984375 393.382812 189.359375 393.382812 190.585938 393.382812 L 191.351562 370.886719 C 190.277344 370.886719 189.054688 370.886719 187.984375 370.734375 Z M 55.773438 295.90625 L 37.257812 308.609375 L 39.402344 311.820312 L 57.761719 298.816406 Z M 62.507812 305.089844 L 44.757812 318.859375 C 45.523438 319.929688 46.441406 320.851562 47.203125 321.921875 L 64.648438 307.691406 C 63.882812 306.773438 63.273438 306.007812 62.507812 305.089844 Z M 70.921875 315.035156 L 69.851562 313.8125 L 53.019531 328.808594 L 54.242188 330.183594 L 55.621094 331.5625 L 72.148438 316.257812 Z M 32.210938 244.492188 L 10.480469 250.308594 C 10.785156 251.53125 11.09375 252.753906 11.550781 253.980469 L 33.128906 247.707031 C 32.820312 246.632812 32.515625 245.5625 32.210938 244.492188 Z M 49.804688 286.265625 L 30.371094 297.589844 C 30.984375 298.660156 31.597656 299.886719 32.363281 300.957031 L 51.488281 289.175781 C 50.878906 288.257812 50.417969 287.183594 49.804688 286.265625 Z M 45.0625 277.851562 L 44.296875 276.320312 L 24.253906 286.265625 L 26.089844 289.632812 L 45.980469 279.226562 Z M 39.554688 265.914062 L 18.894531 274.636719 C 19.355469 275.863281 19.96875 276.933594 20.425781 278.15625 L 40.929688 268.976562 C 40.472656 268.058594 40.011719 266.988281 39.554688 265.914062 Z M 26.242188 199.65625 L 3.746094 199.65625 L 3.746094 203.484375 L 26.242188 203.023438 Z M 29.609375 233.476562 L 7.574219 237.914062 C 7.878906 239.136719 8.183594 240.515625 8.335938 241.738281 L 30.21875 236.839844 C 30.066406 235.617188 29.914062 234.546875 29.609375 233.476562 Z M 26.851562 212.664062 L 26.699219 210.980469 L 4.207031 212.511719 L 4.511719 216.488281 L 26.851562 214.652344 Z M 35.574219 255.355469 L 14.304688 262.703125 L 15.53125 266.375 L 36.648438 258.570312 Z M 27.769531 222.304688 L 5.429688 225.210938 L 6.042969 229.039062 L 28.230469 225.671875 Z M 31.902344 156.199219 L 10.175781 150.539062 C 9.867188 151.761719 9.5625 152.984375 9.257812 154.363281 L 31.136719 159.566406 C 31.289062 158.34375 31.597656 157.269531 31.902344 156.199219 Z M 28.996094 168.898438 L 29.300781 167.21875 L 7.265625 162.933594 L 6.960938 164.769531 C 6.808594 165.378906 6.808594 165.992188 6.65625 166.605469 L 28.84375 170.429688 C 28.84375 169.972656 28.84375 169.511719 28.996094 168.898438 Z M 43.6875 124.21875 L 23.488281 114.273438 C 22.875 115.496094 22.414062 116.566406 21.804688 117.792969 L 42.15625 127.277344 C 42.613281 126.359375 43.074219 125.289062 43.6875 124.21875 Z M 35.117188 145.335938 L 13.847656 138.296875 L 12.621094 141.96875 L 34.046875 148.703125 Z M 39.09375 134.625 L 18.285156 126.054688 C 17.824219 127.277344 17.367188 128.503906 16.90625 129.726562 L 37.871094 137.835938 C 38.175781 136.765625 38.636719 135.695312 39.09375 134.625 Z M 49.042969 114.273438 L 29.609375 103.101562 L 27.769531 106.46875 L 47.511719 117.332031 Z M 55.007812 104.632812 L 36.339844 92.238281 C 35.574219 93.308594 34.964844 94.378906 34.199219 95.449219 L 53.171875 107.539062 C 53.632812 106.46875 54.398438 105.550781 55.007812 104.632812 Z M 68.78125 86.574219 L 51.949219 71.730469 C 51.03125 72.648438 50.265625 73.722656 49.5 74.640625 L 66.636719 89.175781 C 67.25 88.257812 68.015625 87.339844 68.78125 86.574219 Z M 60.519531 96.675781 L 61.589844 95.296875 L 43.6875 81.679688 L 42.460938 83.207031 C 42.003906 83.667969 41.695312 84.28125 41.390625 84.738281 L 59.445312 98.050781 C 59.90625 97.59375 60.210938 97.132812 60.519531 96.675781 Z M 76.585938 78.3125 L 60.671875 62.398438 L 57.917969 65.152344 L 74.136719 80.761719 Z M 26.546875 189.710938 L 4.054688 188.488281 C 3.898438 189.710938 3.898438 191.089844 3.898438 192.3125 L 26.394531 193.078125 C 26.394531 192.007812 26.546875 190.933594 26.546875 189.710938 Z M 27.617188 178.386719 L 5.277344 175.632812 L 4.820312 179.457031 L 27.160156 181.753906 Z M 92.347656 64.234375 L 78.574219 46.484375 C 77.503906 47.25 76.585938 48.167969 75.515625 48.933594 L 89.746094 66.375 C 90.664062 65.613281 91.429688 64.847656 92.347656 64.234375 Z M 119.582031 46.789062 L 121.113281 46.023438 L 111.015625 25.980469 L 107.648438 27.816406 L 118.054688 47.707031 Z M 101.527344 57.5 L 88.980469 38.984375 L 85.765625 41.128906 L 98.773438 59.492188 Z M 152.941406 33.9375 L 147.128906 12.207031 C 145.902344 12.511719 144.679688 12.820312 143.453125 13.277344 L 149.730469 34.855469 C 150.800781 34.546875 151.871094 34.242188 152.941406 33.9375 Z M 131.519531 41.28125 L 122.796875 20.625 C 121.574219 21.082031 120.5 21.695312 119.277344 22.152344 L 128.457031 42.660156 C 129.378906 42.199219 130.449219 41.738281 131.519531 41.28125 Z M 82.398438 72.648438 L 83.625 71.578125 L 68.628906 54.746094 L 67.25 55.972656 L 65.875 57.347656 L 81.175781 73.875 Z M 142.078125 37.300781 L 134.734375 16.03125 L 131.058594 17.257812 L 138.863281 38.375 Z M 111.167969 51.535156 L 99.84375 32.101562 C 98.773438 32.710938 97.546875 33.324219 96.476562 34.089844 L 108.261719 53.214844 C 109.179688 52.605469 110.25 51.992188 111.167969 51.535156 Z M 197.777344 5.472656 L 193.953125 5.472656 L 194.410156 27.96875 L 197.777344 27.96875 Z M 172.222656 7.15625 L 168.398438 7.769531 L 171.765625 29.957031 L 175.128906 29.5 Z M 159.523438 9.300781 C 158.296875 9.605469 156.921875 9.910156 155.695312 10.066406 L 160.59375 31.945312 C 161.664062 31.640625 162.886719 31.488281 163.960938 31.183594 Z M 183.085938 6.085938 L 181.097656 6.238281 L 182.933594 28.582031 L 184.617188 28.425781 L 186.300781 28.273438 L 184.769531 5.78125 Z M 300.761719 62.246094 L 302.136719 63.316406 L 315.757812 45.414062 L 314.226562 44.1875 C 313.765625 43.730469 313.15625 43.421875 312.695312 43.117188 L 299.382812 61.171875 C 299.84375 61.632812 300.300781 61.9375 300.761719 62.246094 Z M 292.804688 56.734375 L 305.199219 38.066406 C 304.125 37.300781 303.054688 36.691406 301.984375 35.925781 L 289.894531 54.898438 C 290.964844 55.359375 291.886719 56.125 292.804688 56.734375 Z M 310.859375 70.507812 L 325.703125 53.675781 C 324.785156 52.757812 323.714844 51.992188 322.796875 51.226562 L 308.257812 68.367188 C 309.175781 68.976562 310.09375 69.742188 310.859375 70.507812 Z M 243.222656 10.828125 L 238.023438 32.710938 C 239.09375 33.019531 240.316406 33.171875 241.386719 33.476562 L 247.050781 11.75 C 245.671875 11.441406 244.449219 11.136719 243.222656 10.828125 Z M 283.164062 50.617188 L 294.332031 31.183594 L 290.964844 29.34375 L 280.101562 49.085938 Z M 319.121094 78.3125 L 335.035156 62.398438 L 332.28125 59.644531 L 316.675781 75.863281 Z M 232.511719 8.6875 C 231.902344 8.535156 231.289062 8.535156 230.675781 8.382812 L 226.851562 30.570312 C 227.464844 30.722656 227.921875 30.722656 228.535156 30.875 L 230.21875 31.183594 L 234.503906 9.148438 Z M 217.976562 6.546875 L 215.679688 28.886719 L 219.046875 29.34375 L 221.800781 7.003906 Z M 204.203125 28.121094 C 205.273438 28.121094 206.5 28.121094 207.570312 28.273438 L 208.792969 5.78125 C 207.570312 5.628906 206.195312 5.628906 204.96875 5.628906 Z M 273.214844 45.414062 L 283.164062 25.214844 C 281.9375 24.601562 280.867188 24.144531 279.644531 23.53125 L 270.15625 43.882812 C 271.074219 44.339844 272.144531 44.800781 273.214844 45.414062 Z M 259.292969 15.421875 L 255.617188 14.195312 L 248.886719 35.621094 L 252.097656 36.691406 Z M 271.378906 19.859375 C 270.15625 19.398438 268.933594 18.941406 267.707031 18.480469 L 259.597656 39.445312 C 260.667969 39.902344 261.738281 40.210938 262.8125 40.667969 Z M 366.101562 165.6875 L 388.132812 161.25 C 387.828125 160.023438 387.523438 158.648438 387.371094 157.421875 L 365.488281 162.320312 C 365.640625 163.390625 365.945312 164.617188 366.101562 165.6875 Z M 363.5 154.667969 L 385.226562 148.855469 C 384.921875 147.628906 384.617188 146.40625 384.15625 145.183594 L 362.582031 151.457031 C 362.886719 152.375 363.191406 153.597656 363.5 154.667969 Z M 360.132812 143.804688 L 381.402344 136.460938 L 380.175781 132.789062 L 359.0625 140.589844 Z M 367.9375 176.855469 L 390.277344 173.949219 L 389.664062 170.125 L 367.476562 173.492188 Z M 369.464844 199.503906 L 391.960938 199.503906 L 391.960938 195.679688 L 369.464844 196.136719 Z M 369.007812 186.496094 L 369.160156 188.179688 L 391.652344 186.652344 L 391.5 184.660156 L 391.347656 182.671875 L 369.007812 184.507812 Z M 356.152344 133.246094 L 376.8125 124.523438 C 376.351562 123.300781 375.738281 122.230469 375.28125 121.003906 L 354.777344 130.1875 C 355.234375 131.105469 355.695312 132.175781 356.152344 133.246094 Z M 324.785156 84.125 L 325.855469 85.351562 L 342.6875 70.355469 L 341.464844 68.976562 L 340.085938 67.601562 L 323.558594 82.902344 Z M 350.644531 121.3125 L 351.410156 122.839844 L 371.457031 112.742188 L 369.621094 109.375 L 349.726562 119.78125 Z M 333.199219 94.074219 L 350.949219 80.300781 C 350.1875 79.230469 349.265625 78.3125 348.503906 77.242188 L 331.058594 91.472656 C 331.824219 92.390625 332.589844 93.15625 333.199219 94.074219 Z M 339.933594 103.253906 L 358.449219 90.554688 L 356.304688 87.339844 L 337.945312 100.347656 Z M 345.902344 112.894531 L 365.335938 101.570312 C 364.722656 100.5 364.109375 99.277344 363.34375 98.203125 L 344.21875 109.988281 C 344.828125 110.90625 345.441406 111.976562 345.902344 112.894531 Z M 345.902344 112.894531 " fill-opacity="1" fill-rule="nonzero"/></g></svg>