<svg width="253" height="53" viewBox="0 0 253 53" fill="none" xmlns="http://www.w3.org/2000/svg">
<mask id="mask0_2072_1887" style="mask-type:luminance" maskUnits="userSpaceOnUse" x="21" y="4" width="232" height="44">
<path d="M21.3547 4.62891H253V47.3384H21.3547V4.62891Z" fill="white"/>
</mask>
<g mask="url(#mask0_2072_1887)">
<path d="M24.1118 47.1193H232.119C243.381 47.1193 252.511 37.9896 252.511 26.7276C252.511 15.4656 243.381 6.33594 232.119 6.33594H24.1118V47.1193Z" fill="#E5AD4D" fill-opacity="0.85"/>
<path d="M72.3966 24.4214C72.3966 25.3214 72.3966 26.2214 72.3766 27.1214C72.3766 27.6814 72.3566 28.2214 72.3166 28.7814C72.2566 29.6214 72.1566 30.4814 71.8966 31.3014C71.7366 31.8414 71.5366 32.3814 71.1366 32.8214C71.0566 32.9014 70.9566 32.9814 70.8766 33.0614C70.8166 33.1214 70.7566 33.1614 70.7166 33.2014C70.4566 33.4814 70.1166 33.6214 69.7566 33.7414C69.5966 33.7814 69.4166 33.8214 69.2366 33.8814C68.9166 33.9614 68.5966 33.9814 68.2566 34.0014C67.9366 34.0014 67.6166 33.9614 67.3166 33.8414C67.0766 33.7414 66.7966 33.6614 66.5566 33.5814C66.1766 33.4414 65.8366 33.2214 65.5366 32.9814C65.2966 32.7814 65.1366 32.5014 64.9966 32.2414C64.9166 32.0614 64.8366 31.8614 64.7366 31.6814C64.5766 31.3814 64.4766 31.0414 64.3766 30.7214C64.2766 30.3214 64.1766 29.9214 64.1166 29.5014C64.0766 29.2814 64.0566 29.0414 64.0366 28.8214C64.0166 28.5814 63.9966 28.3414 63.9766 28.1014C63.8966 27.4414 63.8566 26.7614 63.8766 26.0814C63.9166 24.9214 63.9366 23.7614 63.9766 22.5814C63.9766 22.3214 63.9966 22.0614 63.9966 21.8014C63.9966 21.7214 64.0166 21.6414 64.0366 21.5814C64.1166 21.2214 64.1966 20.8614 64.2966 20.5014C64.3566 20.1614 64.5766 19.9014 64.8766 19.7414C65.2566 19.5414 65.8166 19.6014 66.0766 19.9014C66.1966 20.0214 66.2566 20.1614 66.3166 20.3014C66.4366 20.6214 66.4766 20.9814 66.4766 21.3414C66.5166 22.0614 66.4366 22.7814 66.4166 23.5014C66.4166 23.6214 66.4166 23.7214 66.4166 23.8414C66.4166 24.0614 66.3966 24.2814 66.3766 24.5014C66.3766 24.6614 66.3566 24.8214 66.3566 24.9814C66.3566 25.7014 66.3366 26.4214 66.3566 27.1414C66.3566 27.7214 66.3766 28.3214 66.4166 28.9014C66.4366 29.3214 66.5166 29.7414 66.6766 30.1414C66.8366 30.5414 67.0766 30.9014 67.4366 31.1814C67.4966 31.2014 67.5566 31.2414 67.6166 31.2614C67.8966 31.3414 68.1766 31.3414 68.4566 31.2414C68.6166 31.1814 68.7566 31.0814 68.8566 30.9214C69.0566 30.6414 69.1966 30.3214 69.2966 29.9814C69.5366 29.2614 69.6366 28.5414 69.6766 27.7814C69.7366 26.5814 69.7566 25.4014 69.8166 24.2014C69.8566 23.5014 69.9366 22.8214 69.9966 22.1214C70.0166 21.7814 70.0366 21.4414 70.0766 21.1014C70.1166 20.6214 70.2966 20.2014 70.5766 19.8214C70.6166 19.7814 70.6566 19.7414 70.6966 19.7414C70.8966 19.6814 71.0966 19.6014 71.3166 19.5814C71.4766 19.5614 71.6566 19.6014 71.8366 19.6614C71.9966 19.6814 72.1166 19.8014 72.2166 19.9414C72.3566 20.2014 72.4566 20.4414 72.4366 20.7414C72.4166 21.0614 72.4166 21.3614 72.4166 21.6814C72.4166 22.6014 72.4166 23.5014 72.4166 24.4214C72.4166 24.4214 72.4166 24.4214 72.3966 24.4214ZM74.4291 30.9214C74.4091 30.3214 74.3891 29.7014 74.3691 29.1014C74.3491 28.1014 74.3291 27.0814 74.3091 26.0814C74.3091 25.5414 74.2691 25.0214 74.2491 24.4814C74.2291 23.8014 74.1891 23.1214 74.1891 22.4414C74.1691 22.0014 74.2091 21.5614 74.2291 21.1214C74.2291 20.8414 74.3091 20.5814 74.4291 20.3214C74.5491 20.0614 74.7691 19.9014 75.0091 19.8014C75.1491 19.7414 75.2891 19.7214 75.4291 19.7214C75.5091 19.7214 75.6091 19.6814 75.7091 19.6614C75.8291 19.6614 75.9291 19.6614 76.0491 19.6414C76.6691 19.5614 77.3091 19.6014 77.9491 19.6014C78.4491 19.6014 78.9691 19.6214 79.4691 19.6414C80.0091 19.6614 80.5291 19.7814 81.0091 20.0014C81.3291 20.1214 81.5491 20.3414 81.7291 20.6214C82.1291 21.1814 82.4091 21.8014 82.5491 22.4614C82.6491 22.9014 82.7491 23.3414 82.8291 23.7814C82.8691 24.0414 82.8691 24.3214 82.8691 24.6014C82.9091 25.2414 82.8491 25.8814 82.7291 26.5014C82.6491 26.8614 82.5691 27.2014 82.4091 27.5414C82.2691 27.8414 82.1091 28.1214 81.8891 28.3614C81.8491 28.4214 81.7891 28.4814 81.7491 28.5414C81.3291 29.0414 80.7891 29.3614 80.1691 29.5014C79.5291 29.6614 78.8691 29.7214 78.2291 29.8014C78.0491 29.8214 77.8691 29.8414 77.7091 29.8414C77.6091 29.8614 77.5491 29.9014 77.4891 29.9614C77.3691 30.1414 77.3091 30.3214 77.3091 30.5214C77.2891 31.1214 77.2691 31.7214 77.2491 32.3214C77.2491 32.5214 77.2291 32.7414 77.2091 32.9414C77.1891 33.0614 77.1691 33.2014 77.1291 33.3014C77.0091 33.6814 76.6891 33.8014 76.3491 33.8614C76.2491 33.8814 76.1491 33.8614 76.0491 33.8614C76.0091 33.8614 75.9491 33.8814 75.9091 33.9014C75.8091 33.9414 75.6891 33.9614 75.5891 33.9414C75.4891 33.9414 75.3691 33.9414 75.2491 33.9014C75.1491 33.8814 75.0291 33.8014 74.9291 33.7414C74.7491 33.6614 74.6891 33.4814 74.5891 33.3214C74.4891 33.1014 74.4291 32.8814 74.4491 32.6414C74.4691 32.0614 74.4491 31.5014 74.4491 30.9214C74.4491 30.9214 74.4491 30.9214 74.4291 30.9214ZM77.4491 25.2614C77.4291 25.2614 77.4291 25.2614 77.4091 25.2614C77.4091 25.7414 77.4291 26.2214 77.4091 26.7014C77.4091 26.9814 77.5691 27.1814 77.8491 27.2214C77.9291 27.2414 78.0091 27.2214 78.0891 27.2414C78.3291 27.2414 78.5691 27.1614 78.8091 27.0814C78.9891 27.0214 79.1691 26.9414 79.3091 26.7814C79.5491 26.5414 79.7091 26.2614 79.8091 25.9414C79.9891 25.3814 80.0491 24.8014 80.0091 24.2014C79.9891 23.8214 79.9491 23.4614 79.7491 23.1214C79.7291 23.0814 79.7091 23.0414 79.6891 22.9814C79.6491 22.8014 79.5291 22.7014 79.3491 22.6414C79.1091 22.5414 78.8491 22.4814 78.5891 22.5014C78.3491 22.5214 78.1091 22.5414 77.8691 22.5614C77.6491 22.5614 77.5891 22.6014 77.5491 22.8214C77.4691 23.1414 77.4491 23.4814 77.3891 23.8014C77.3891 23.8214 77.3891 23.8614 77.4091 23.8814C77.4091 24.3414 77.4291 24.8014 77.4491 25.2614ZM86.8677 22.8014C86.9077 23.4814 86.9277 24.0814 86.9677 24.6814C86.9677 24.7214 86.9877 24.7414 86.9877 24.7814C87.0277 26.0414 87.1077 27.3014 87.1077 28.5814C87.0877 29.1014 87.1077 29.6414 87.1077 30.1614C87.1077 30.2214 87.1077 30.2814 87.1077 30.3414C87.1477 30.6014 87.3477 30.8014 87.6277 30.7814C88.0477 30.7614 88.4477 30.8214 88.8677 30.8414C89.1277 30.8614 89.3877 30.8814 89.6477 30.8814C89.7477 30.8814 89.8477 30.8814 89.9677 30.9014C90.2677 30.9214 90.4877 31.0814 90.5877 31.3814C90.7277 31.8014 90.7477 32.2214 90.6677 32.6614C90.5877 32.9814 90.3877 33.2214 90.1077 33.4014C90.0277 33.4414 89.9077 33.4614 89.8077 33.4614C89.4877 33.4614 89.1677 33.4614 88.8477 33.4814C88.2277 33.5014 87.6077 33.5214 87.0077 33.5414C86.4877 33.5614 85.9677 33.5814 85.4277 33.6014C85.3277 33.6014 85.2077 33.6014 85.1077 33.5814C85.0077 33.5614 84.8877 33.5214 84.8277 33.4614C84.5277 33.1814 84.3677 32.8414 84.3677 32.4414C84.3277 31.4414 84.3077 30.4614 84.2877 29.4614C84.2677 28.4414 84.2677 27.4414 84.2477 26.4214C84.2277 24.9214 84.2277 23.4014 84.2277 21.8814C84.2277 21.7814 84.2277 21.6614 84.2477 21.5614C84.3277 21.1814 84.3477 20.8014 84.4877 20.4414C84.5477 20.2414 84.6477 20.0614 84.7877 19.9214C85.0277 19.7014 85.3077 19.6414 85.5877 19.5814C85.6477 19.5814 85.7077 19.5814 85.7677 19.5814C85.9877 19.5214 86.1677 19.6214 86.3477 19.7414C86.4077 19.7814 86.4677 19.8614 86.4877 19.9414C86.5477 20.1214 86.6077 20.3014 86.6477 20.5014C86.7277 20.8014 86.7677 21.1214 86.8277 21.4414C86.8477 21.5214 86.8477 21.6214 86.8477 21.7214C86.8677 22.1014 86.8677 22.5014 86.8677 22.8014ZM101.405 25.7014C101.385 26.7614 101.285 27.7614 101.085 28.7414C101.005 29.2214 100.885 29.6814 100.705 30.1214C100.625 30.3214 100.545 30.5214 100.465 30.7214C100.305 31.0614 100.085 31.3414 99.8654 31.6414C99.7054 31.9014 99.5254 32.1414 99.3254 32.3814C98.9854 32.7614 98.6254 33.1014 98.1654 33.3214C97.8454 33.4814 97.5054 33.6014 97.1454 33.6614C96.9854 33.6814 96.8254 33.7014 96.6654 33.7214C96.6254 33.7214 96.5654 33.7214 96.5254 33.7214C96.2254 33.6814 95.9254 33.6414 95.6254 33.6014C95.3854 33.5414 95.1254 33.4814 94.8854 33.3814C94.6654 33.3014 94.4454 33.2014 94.2454 33.0614C94.0654 32.9614 93.9054 32.8014 93.7254 32.6614C93.7054 32.6414 93.6654 32.6014 93.6254 32.5814C93.2454 32.3214 92.9854 31.9614 92.7254 31.5814C92.2254 30.8414 92.0054 30.0214 91.8854 29.1414C91.8054 28.5814 91.8054 28.0014 91.8454 27.4014C91.8654 27.1014 91.8454 26.7814 91.8654 26.4814C91.8654 25.9814 91.9254 25.4814 92.0054 25.0014C92.0454 24.7614 92.0654 24.5014 92.0854 24.2614C92.1654 23.7414 92.2254 23.2214 92.3854 22.7014C92.6454 21.9814 92.9454 21.2614 93.5254 20.7214C93.9054 20.3414 94.3054 19.9614 94.8054 19.7014C95.1854 19.5014 95.5654 19.3414 96.0054 19.2614C96.4054 19.2214 96.8054 19.1614 97.2054 19.2014C97.5054 19.2214 97.8054 19.2614 98.1054 19.3614C98.5054 19.5014 98.8854 19.7214 99.2654 19.9414C99.5454 20.1014 99.7654 20.3414 99.9454 20.6014C100.245 21.0014 100.465 21.4414 100.625 21.9214C100.805 22.4614 100.965 22.9814 101.125 23.5214C101.325 24.2414 101.425 24.8414 101.405 25.7014ZM98.3054 26.2014C98.2854 25.9414 98.2854 25.6814 98.2654 25.4014C98.2254 24.7814 98.1454 24.1414 97.9054 23.5414C97.7654 23.2214 97.6254 22.9014 97.3854 22.6214C97.3054 22.5214 97.2054 22.4414 97.0654 22.4214C96.9054 22.3814 96.7654 22.3414 96.6054 22.3214C96.3254 22.3014 96.0654 22.3214 95.8654 22.5214C95.5254 22.8414 95.2454 23.2014 95.0254 23.6014C94.5854 24.4014 94.4254 25.2614 94.3854 26.1414C94.3454 26.9814 94.3854 27.8014 94.5454 28.6214C94.6054 28.9414 94.6654 29.2814 94.8254 29.5814C94.9654 29.8614 95.1654 30.1014 95.4254 30.2814C95.6654 30.4214 95.9254 30.5414 96.1854 30.6214C96.5054 30.7414 96.8054 30.6614 97.0854 30.5014C97.3654 30.3414 97.5654 30.0814 97.7054 29.7814C97.9254 29.3214 98.0854 28.8214 98.1654 28.3014C98.2654 27.6014 98.3254 26.9014 98.3054 26.2014ZM106.856 19.4214C106.976 19.4214 107.096 19.4214 107.236 19.4214C107.416 19.4014 107.596 19.4614 107.756 19.5814C107.936 19.7014 108.116 19.8414 108.256 20.0014C108.296 20.0614 108.336 20.1014 108.356 20.1614C108.476 20.4614 108.576 20.7814 108.616 21.1014C108.636 21.3414 108.736 21.5814 108.796 21.8414C108.876 22.1614 108.956 22.4814 109.016 22.8014C109.036 22.8414 109.036 22.8614 109.036 22.8814C109.016 23.1614 109.116 23.4214 109.196 23.6614C109.316 24.0614 109.416 24.4614 109.536 24.8614C109.556 24.9814 109.596 25.0814 109.636 25.2014C109.716 25.5214 109.796 25.8414 109.876 26.1614C110.036 26.7414 110.216 27.3214 110.376 27.9014C110.576 28.6814 110.756 29.4814 110.956 30.2614C111.076 30.7214 111.216 31.1614 111.336 31.6014C111.416 31.8814 111.496 32.1414 111.556 32.4214C111.576 32.6214 111.516 32.8214 111.456 33.0214C111.336 33.3414 111.056 33.4614 110.776 33.5414C110.216 33.7014 109.636 33.7214 109.076 33.5614C109.056 33.5414 109.016 33.5414 109.016 33.5414C108.856 33.4014 108.676 33.2614 108.556 33.1014C108.396 32.9414 108.316 32.7214 108.276 32.5014C108.236 32.2814 108.116 32.1214 107.916 32.0414C107.856 32.0414 107.796 32.0214 107.736 32.0214C107.176 32.0014 106.616 32.0014 106.056 31.9814C105.956 31.9814 105.836 31.9614 105.716 31.9614C105.536 31.9414 105.396 32.0014 105.296 32.1414C105.216 32.2814 105.116 32.4414 105.076 32.5814C104.976 32.9014 104.796 33.1414 104.536 33.3014C104.456 33.3614 104.376 33.4214 104.296 33.4614C104.116 33.5614 103.936 33.6014 103.716 33.6014C103.296 33.6214 102.896 33.5414 102.496 33.4614C102.336 33.4214 102.176 33.3414 102.016 33.2614C101.876 33.2014 101.836 33.0414 101.836 32.9214C101.816 32.6614 101.816 32.4014 101.916 32.1414C102.016 31.8214 102.136 31.4814 102.216 31.1414C102.316 30.8014 102.376 30.4614 102.456 30.1214C102.576 29.6214 102.676 29.1214 102.796 28.6214C102.956 28.0014 103.136 27.4014 103.296 26.8014C103.376 26.4214 103.476 26.0614 103.556 25.7014C103.656 25.3214 103.756 24.9614 103.856 24.6014C103.936 24.3414 103.996 24.1014 104.076 23.8414C104.236 23.3014 104.416 22.7814 104.556 22.2414C104.636 21.9414 104.676 21.6214 104.756 21.3014C104.876 20.9214 104.976 20.5214 105.136 20.1414C105.296 19.8014 105.596 19.5814 105.976 19.5014C105.996 19.5014 106.036 19.5014 106.056 19.5014C106.316 19.3814 106.576 19.4214 106.856 19.4214ZM106.976 28.4014C106.996 28.4014 107.016 28.4014 107.036 28.4014C107.336 28.4014 107.496 28.2214 107.436 27.9214C107.416 27.8014 107.376 27.7014 107.336 27.5814C107.256 27.3414 107.176 27.1014 107.116 26.8614C107.056 26.5614 107.016 26.2814 106.956 25.9814C106.936 25.9414 106.936 25.9014 106.916 25.8614C106.876 25.7814 106.816 25.7814 106.756 25.8614C106.736 25.9014 106.716 25.9814 106.696 26.0414C106.616 26.4814 106.436 26.9214 106.376 27.3814C106.376 27.4614 106.336 27.5214 106.316 27.6014C106.276 27.7214 106.216 27.8614 106.176 28.0014C106.116 28.2014 106.156 28.3014 106.356 28.3214C106.576 28.3614 106.776 28.3814 106.976 28.4014ZM113.289 25.9814C113.289 24.7614 113.289 23.5414 113.309 22.3014C113.309 21.9614 113.369 21.6214 113.389 21.2814C113.389 20.9014 113.509 20.5414 113.569 20.1614C113.649 19.7414 114.149 19.3614 114.549 19.3814C114.929 19.3814 115.329 19.3414 115.709 19.3014C116.089 19.2614 116.469 19.2814 116.849 19.3014C117.349 19.3214 117.849 19.3414 118.329 19.3814C118.569 19.4014 118.809 19.4614 119.049 19.5014C119.189 19.5214 119.329 19.5614 119.469 19.5814C119.509 19.6014 119.569 19.6014 119.609 19.6214C120.049 19.8014 120.509 19.9614 120.909 20.2414C121.229 20.4614 121.489 20.7214 121.689 21.0414C121.829 21.2614 121.969 21.4814 122.069 21.7214C122.189 21.9614 122.269 22.2414 122.369 22.5014C122.409 22.6014 122.429 22.7014 122.469 22.8014C122.489 22.9014 122.529 23.0214 122.549 23.1214C122.589 23.4614 122.629 23.7814 122.689 24.1214C122.689 24.1614 122.689 24.2014 122.689 24.2214C122.709 24.9814 122.789 25.7214 122.769 26.4814C122.749 26.9214 122.729 27.3814 122.689 27.8214C122.649 28.3414 122.489 28.8414 122.369 29.3414C122.329 29.4614 122.309 29.5614 122.309 29.6614C122.269 29.9414 122.149 30.2014 122.049 30.4614C121.829 30.9814 121.529 31.4614 121.189 31.9014C121.069 32.0614 120.909 32.1814 120.769 32.3014C120.369 32.6814 119.889 32.9214 119.409 33.1414C119.209 33.2214 119.009 33.3214 118.789 33.3614C118.549 33.4214 118.309 33.4214 118.049 33.4414C117.709 33.4814 117.369 33.4814 117.029 33.5014C116.829 33.5014 116.629 33.5214 116.409 33.5214C115.889 33.5414 115.369 33.5414 114.849 33.5414C114.669 33.5414 114.489 33.5414 114.309 33.5214C114.269 33.5214 114.189 33.5214 114.149 33.4814C113.869 33.3214 113.649 33.1014 113.549 32.7814C113.529 32.7014 113.529 32.6214 113.509 32.5414C113.489 32.2214 113.489 31.9214 113.469 31.6014C113.429 31.0214 113.389 30.4214 113.349 29.8414C113.349 29.7214 113.329 29.6014 113.329 29.4814C113.309 28.3214 113.309 27.1614 113.289 25.9814ZM116.509 26.8414C116.529 27.5214 116.549 28.1814 116.569 28.8614C116.569 29.1814 116.569 29.5214 116.569 29.8414C116.589 30.0814 116.729 30.2414 116.989 30.2814C117.069 30.2814 117.169 30.2814 117.269 30.2614C117.709 30.1214 118.129 29.9414 118.529 29.7414C118.669 29.6614 118.789 29.5614 118.909 29.4214C119.209 29.0414 119.409 28.6014 119.529 28.1214C119.729 27.3014 119.809 26.5014 119.789 25.6614C119.769 25.1414 119.689 24.6414 119.509 24.1414C119.289 23.5614 118.889 23.1414 118.429 22.7414C118.409 22.7214 118.369 22.6814 118.329 22.6814C118.089 22.6014 117.849 22.5014 117.609 22.4414C117.449 22.4014 117.269 22.4014 117.109 22.3814C116.969 22.3614 116.849 22.4414 116.809 22.5814C116.769 22.7214 116.709 22.8814 116.669 23.0414C116.649 23.1414 116.649 23.2414 116.629 23.3414C116.589 23.5414 116.549 23.7414 116.529 23.9414C116.509 24.1414 116.509 24.3414 116.489 24.5214C116.489 24.8014 116.489 25.0814 116.489 25.3614C116.489 25.8614 116.509 26.3414 116.509 26.8414ZM128.934 19.4414C129.174 19.4814 129.414 19.5014 129.654 19.5614C129.894 19.6414 130.134 19.7414 130.314 19.9414C130.374 20.0014 130.414 20.0614 130.454 20.1214C130.554 20.3014 130.634 20.4814 130.714 20.6814C130.914 21.1014 131.074 21.5214 131.274 21.9214C131.354 22.1214 131.454 22.3014 131.574 22.4814C131.614 22.5614 131.674 22.6414 131.794 22.6214C131.894 22.6214 131.974 22.6014 132.014 22.5014C132.174 22.2414 132.314 21.9814 132.454 21.7214C132.714 21.2214 132.974 20.7414 133.254 20.2414C133.274 20.1814 133.334 20.1414 133.394 20.0814C133.534 19.9614 133.714 19.8614 133.894 19.7814C133.954 19.7614 134.014 19.7414 134.074 19.7414C134.494 19.7414 134.914 19.7614 135.354 19.8614C135.594 19.9414 135.694 20.1214 135.774 20.3214C135.814 20.5014 135.814 20.6614 135.754 20.8614C135.634 21.2414 135.474 21.6014 135.314 21.9814C135.134 22.3814 134.954 22.7814 134.814 23.1814C134.634 23.7014 134.374 24.1814 134.154 24.6614C133.994 25.0414 133.814 25.4214 133.674 25.8214C133.474 26.3814 133.334 26.9614 133.334 27.5614C133.334 28.2814 133.294 28.9814 133.294 29.6814C133.274 30.0614 133.294 30.4214 133.294 30.8014C133.294 31.3814 133.294 31.9614 133.294 32.5214C133.274 32.7814 133.194 33.0414 133.054 33.2414C132.874 33.5214 132.594 33.6414 132.274 33.6614C131.874 33.6814 131.494 33.6214 131.114 33.4814C130.914 33.3814 130.754 33.2214 130.714 33.0014C130.674 32.8214 130.654 32.6614 130.654 32.4814C130.634 31.5014 130.594 30.5414 130.594 29.5814C130.594 28.6614 130.634 27.7214 130.634 26.8014C130.654 26.3014 130.514 25.8214 130.354 25.3414C130.314 25.2414 130.234 25.1214 130.154 25.0214C129.814 24.4814 129.494 23.9014 129.194 23.3414C128.974 22.8814 128.734 22.4614 128.494 22.0214C128.394 21.8214 128.294 21.6214 128.194 21.4214C128.134 21.3214 128.074 21.2214 127.994 21.1414C127.794 20.8614 127.714 20.5614 127.754 20.2214C127.794 19.8814 127.994 19.6814 128.294 19.5414C128.494 19.4614 128.714 19.4214 128.934 19.4414ZM146.308 25.7014C146.288 26.7614 146.188 27.7614 145.988 28.7414C145.908 29.2214 145.788 29.6814 145.608 30.1214C145.528 30.3214 145.448 30.5214 145.368 30.7214C145.208 31.0614 144.988 31.3414 144.768 31.6414C144.608 31.9014 144.428 32.1414 144.228 32.3814C143.888 32.7614 143.528 33.1014 143.068 33.3214C142.748 33.4814 142.408 33.6014 142.048 33.6614C141.888 33.6814 141.728 33.7014 141.568 33.7214C141.528 33.7214 141.468 33.7214 141.428 33.7214C141.128 33.6814 140.828 33.6414 140.528 33.6014C140.288 33.5414 140.028 33.4814 139.788 33.3814C139.568 33.3014 139.348 33.2014 139.148 33.0614C138.968 32.9614 138.808 32.8014 138.628 32.6614C138.608 32.6414 138.568 32.6014 138.528 32.5814C138.148 32.3214 137.888 31.9614 137.628 31.5814C137.128 30.8414 136.908 30.0214 136.788 29.1414C136.708 28.5814 136.708 28.0014 136.748 27.4014C136.768 27.1014 136.748 26.7814 136.768 26.4814C136.768 25.9814 136.828 25.4814 136.908 25.0014C136.948 24.7614 136.968 24.5014 136.988 24.2614C137.068 23.7414 137.128 23.2214 137.288 22.7014C137.548 21.9814 137.848 21.2614 138.428 20.7214C138.808 20.3414 139.208 19.9614 139.708 19.7014C140.088 19.5014 140.468 19.3414 140.908 19.2614C141.308 19.2214 141.708 19.1614 142.108 19.2014C142.408 19.2214 142.708 19.2614 143.008 19.3614C143.408 19.5014 143.788 19.7214 144.168 19.9414C144.448 20.1014 144.668 20.3414 144.848 20.6014C145.148 21.0014 145.368 21.4414 145.528 21.9214C145.708 22.4614 145.868 22.9814 146.028 23.5214C146.228 24.2414 146.328 24.8414 146.308 25.7014ZM143.208 26.2014C143.188 25.9414 143.188 25.6814 143.168 25.4014C143.128 24.7814 143.048 24.1414 142.808 23.5414C142.668 23.2214 142.528 22.9014 142.288 22.6214C142.208 22.5214 142.108 22.4414 141.968 22.4214C141.808 22.3814 141.668 22.3414 141.508 22.3214C141.228 22.3014 140.968 22.3214 140.768 22.5214C140.428 22.8414 140.148 23.2014 139.928 23.6014C139.488 24.4014 139.328 25.2614 139.288 26.1414C139.248 26.9814 139.288 27.8014 139.448 28.6214C139.508 28.9414 139.568 29.2814 139.728 29.5814C139.868 29.8614 140.068 30.1014 140.328 30.2814C140.568 30.4214 140.828 30.5414 141.088 30.6214C141.408 30.7414 141.708 30.6614 141.988 30.5014C142.268 30.3414 142.468 30.0814 142.608 29.7814C142.828 29.3214 142.988 28.8214 143.068 28.3014C143.168 27.6014 143.228 26.9014 143.208 26.2014ZM156.635 24.4214C156.635 25.3214 156.635 26.2214 156.615 27.1214C156.615 27.6814 156.595 28.2214 156.555 28.7814C156.495 29.6214 156.395 30.4814 156.135 31.3014C155.975 31.8414 155.775 32.3814 155.375 32.8214C155.295 32.9014 155.195 32.9814 155.115 33.0614C155.055 33.1214 154.995 33.1614 154.955 33.2014C154.695 33.4814 154.355 33.6214 153.995 33.7414C153.835 33.7814 153.655 33.8214 153.475 33.8814C153.155 33.9614 152.835 33.9814 152.495 34.0014C152.175 34.0014 151.855 33.9614 151.555 33.8414C151.315 33.7414 151.035 33.6614 150.795 33.5814C150.415 33.4414 150.075 33.2214 149.775 32.9814C149.535 32.7814 149.375 32.5014 149.235 32.2414C149.155 32.0614 149.075 31.8614 148.975 31.6814C148.815 31.3814 148.715 31.0414 148.615 30.7214C148.515 30.3214 148.415 29.9214 148.355 29.5014C148.315 29.2814 148.295 29.0414 148.275 28.8214C148.255 28.5814 148.235 28.3414 148.215 28.1014C148.135 27.4414 148.095 26.7614 148.115 26.0814C148.155 24.9214 148.175 23.7614 148.215 22.5814C148.215 22.3214 148.235 22.0614 148.235 21.8014C148.235 21.7214 148.255 21.6414 148.275 21.5814C148.355 21.2214 148.435 20.8614 148.535 20.5014C148.595 20.1614 148.815 19.9014 149.115 19.7414C149.495 19.5414 150.055 19.6014 150.315 19.9014C150.435 20.0214 150.495 20.1614 150.555 20.3014C150.675 20.6214 150.715 20.9814 150.715 21.3414C150.755 22.0614 150.675 22.7814 150.655 23.5014C150.655 23.6214 150.655 23.7214 150.655 23.8414C150.655 24.0614 150.635 24.2814 150.615 24.5014C150.615 24.6614 150.595 24.8214 150.595 24.9814C150.595 25.7014 150.575 26.4214 150.595 27.1414C150.595 27.7214 150.615 28.3214 150.655 28.9014C150.675 29.3214 150.755 29.7414 150.915 30.1414C151.075 30.5414 151.315 30.9014 151.675 31.1814C151.735 31.2014 151.795 31.2414 151.855 31.2614C152.135 31.3414 152.415 31.3414 152.695 31.2414C152.855 31.1814 152.995 31.0814 153.095 30.9214C153.295 30.6414 153.435 30.3214 153.535 29.9814C153.775 29.2614 153.875 28.5414 153.915 27.7814C153.975 26.5814 153.995 25.4014 154.055 24.2014C154.095 23.5014 154.175 22.8214 154.235 22.1214C154.255 21.7814 154.275 21.4414 154.315 21.1014C154.355 20.6214 154.535 20.2014 154.815 19.8214C154.855 19.7814 154.895 19.7414 154.935 19.7414C155.135 19.6814 155.335 19.6014 155.555 19.5814C155.715 19.5614 155.895 19.6014 156.075 19.6614C156.235 19.6814 156.355 19.8014 156.455 19.9414C156.595 20.2014 156.695 20.4414 156.675 20.7414C156.655 21.0614 156.655 21.3614 156.655 21.6814C156.655 22.6014 156.655 23.5014 156.655 24.4214C156.655 24.4214 156.655 24.4214 156.635 24.4214ZM161.487 31.7014C161.487 32.0814 161.487 32.4414 161.487 32.8214C161.487 33.1614 161.347 33.4414 161.107 33.6814C160.927 33.8414 160.707 33.9614 160.447 33.9614C160.247 33.9814 160.047 33.9814 159.847 33.9614C159.487 33.9414 159.167 33.8214 158.927 33.5414C158.787 33.3814 158.687 33.1814 158.687 32.9614C158.667 32.4614 158.667 31.9614 158.647 31.4614C158.627 30.6614 158.607 29.8414 158.587 29.0414C158.547 28.0214 158.527 27.0214 158.487 26.0014C158.467 25.2414 158.427 24.4814 158.407 23.7214C158.407 23.2014 158.407 22.6814 158.427 22.1614C158.467 21.7014 158.527 21.2614 158.567 20.8214C158.567 20.8014 158.567 20.7814 158.567 20.7614C158.687 20.4614 158.807 20.1814 159.047 19.9614C159.187 19.8214 159.367 19.7614 159.547 19.7814C159.827 19.8014 160.087 19.7614 160.347 19.7614C160.487 19.7414 160.627 19.7614 160.747 19.7614C161.287 19.7614 161.807 19.7814 162.327 19.7814C162.887 19.7814 163.447 19.7614 163.987 19.7614C164.207 19.7614 164.427 19.8014 164.627 19.8614C165.367 20.1014 165.867 20.6214 166.267 21.2614C166.367 21.4014 166.407 21.5614 166.487 21.7214C166.827 22.5814 167.007 23.4614 167.007 24.4014C167.007 24.7614 167.007 25.1014 167.007 25.4614C166.987 26.0414 166.827 26.6014 166.647 27.1414C166.547 27.5014 166.347 27.8214 166.147 28.1214C166.107 28.1814 166.047 28.2414 165.987 28.3014C165.687 28.5614 165.627 28.9414 165.827 29.2814C165.927 29.4814 166.007 29.6814 166.107 29.8614C166.227 30.1414 166.347 30.4014 166.467 30.6814C166.467 30.7214 166.487 30.7614 166.507 30.7814C166.627 31.1414 166.767 31.4814 166.947 31.8214C167.027 31.9614 167.047 32.1414 167.087 32.3214C167.127 32.5214 167.147 32.7214 167.167 32.9414C167.207 33.2214 167.027 33.4214 166.847 33.6014C166.687 33.7614 166.507 33.7414 166.327 33.7414C166.227 33.7414 166.107 33.7614 166.007 33.7614C165.827 33.7614 165.627 33.7814 165.447 33.7614C165.167 33.7214 164.867 33.6614 164.607 33.5214C164.427 33.4014 164.247 33.2614 164.147 33.0414C164.067 32.8414 164.007 32.6414 163.907 32.4614C163.787 32.2414 163.647 32.0414 163.507 31.8214C163.327 31.5214 163.147 31.2214 163.007 30.8814C162.967 30.8014 162.927 30.7414 162.907 30.6814C162.847 30.5414 162.767 30.4014 162.727 30.2414C162.647 29.9814 162.467 29.8214 162.187 29.8614C162.067 29.8614 161.927 29.8814 161.807 29.8614C161.687 29.8614 161.607 29.9214 161.567 30.0414C161.507 30.2214 161.467 30.4214 161.467 30.6214C161.467 30.9814 161.487 31.3414 161.487 31.7014ZM161.487 24.9414C161.507 24.9414 161.507 24.9414 161.507 24.9414C161.487 25.4014 161.487 25.8614 161.467 26.3414C161.467 26.4614 161.467 26.5814 161.467 26.7014C161.467 27.0214 161.667 27.2214 161.987 27.2214C162.107 27.2214 162.247 27.2214 162.387 27.2214C162.427 27.2214 162.487 27.2214 162.527 27.2014C162.747 27.1214 162.987 27.0814 163.207 26.9614C163.407 26.8814 163.547 26.7414 163.687 26.6014C163.867 26.3814 164.007 26.1214 164.067 25.8214C164.147 25.3814 164.107 24.9214 164.107 24.4814C164.107 24.3214 164.087 24.1614 164.067 24.0014C164.047 23.7814 163.947 23.6014 163.887 23.4014C163.807 23.2014 163.687 23.0214 163.567 22.8614C163.327 22.5814 163.027 22.4414 162.667 22.4414C162.547 22.4414 162.407 22.4414 162.287 22.4414C162.087 22.4614 161.887 22.5214 161.747 22.6614C161.567 22.8014 161.507 23.0014 161.487 23.2414C161.487 23.8014 161.487 24.3614 161.487 24.9414ZM176.37 31.7014C176.37 32.0814 176.37 32.4414 176.37 32.8214C176.37 33.1614 176.23 33.4414 175.99 33.6814C175.81 33.8414 175.59 33.9614 175.33 33.9614C175.13 33.9814 174.93 33.9814 174.73 33.9614C174.37 33.9414 174.05 33.8214 173.81 33.5414C173.67 33.3814 173.57 33.1814 173.57 32.9614C173.55 32.4614 173.55 31.9614 173.53 31.4614C173.51 30.6614 173.49 29.8414 173.47 29.0414C173.43 28.0214 173.41 27.0214 173.37 26.0014C173.35 25.2414 173.31 24.4814 173.29 23.7214C173.29 23.2014 173.29 22.6814 173.31 22.1614C173.35 21.7014 173.41 21.2614 173.45 20.8214C173.45 20.8014 173.45 20.7814 173.45 20.7614C173.57 20.4614 173.69 20.1814 173.93 19.9614C174.07 19.8214 174.25 19.7614 174.43 19.7814C174.71 19.8014 174.97 19.7614 175.23 19.7614C175.37 19.7414 175.51 19.7614 175.63 19.7614C176.17 19.7614 176.69 19.7814 177.21 19.7814C177.77 19.7814 178.33 19.7614 178.87 19.7614C179.09 19.7614 179.31 19.8014 179.51 19.8614C180.25 20.1014 180.75 20.6214 181.15 21.2614C181.25 21.4014 181.29 21.5614 181.37 21.7214C181.71 22.5814 181.89 23.4614 181.89 24.4014C181.89 24.7614 181.89 25.1014 181.89 25.4614C181.87 26.0414 181.71 26.6014 181.53 27.1414C181.43 27.5014 181.23 27.8214 181.03 28.1214C180.99 28.1814 180.93 28.2414 180.87 28.3014C180.57 28.5614 180.51 28.9414 180.71 29.2814C180.81 29.4814 180.89 29.6814 180.99 29.8614C181.11 30.1414 181.23 30.4014 181.35 30.6814C181.35 30.7214 181.37 30.7614 181.39 30.7814C181.51 31.1414 181.65 31.4814 181.83 31.8214C181.91 31.9614 181.93 32.1414 181.97 32.3214C182.01 32.5214 182.03 32.7214 182.05 32.9414C182.09 33.2214 181.91 33.4214 181.73 33.6014C181.57 33.7614 181.39 33.7414 181.21 33.7414C181.11 33.7414 180.99 33.7614 180.89 33.7614C180.71 33.7614 180.51 33.7814 180.33 33.7614C180.05 33.7214 179.75 33.6614 179.49 33.5214C179.31 33.4014 179.13 33.2614 179.03 33.0414C178.95 32.8414 178.89 32.6414 178.79 32.4614C178.67 32.2414 178.53 32.0414 178.39 31.8214C178.21 31.5214 178.03 31.2214 177.89 30.8814C177.85 30.8014 177.81 30.7414 177.79 30.6814C177.73 30.5414 177.65 30.4014 177.61 30.2414C177.53 29.9814 177.35 29.8214 177.07 29.8614C176.95 29.8614 176.81 29.8814 176.69 29.8614C176.57 29.8614 176.49 29.9214 176.45 30.0414C176.39 30.2214 176.35 30.4214 176.35 30.6214C176.35 30.9814 176.37 31.3414 176.37 31.7014ZM176.37 24.9414C176.39 24.9414 176.39 24.9414 176.39 24.9414C176.37 25.4014 176.37 25.8614 176.35 26.3414C176.35 26.4614 176.35 26.5814 176.35 26.7014C176.35 27.0214 176.55 27.2214 176.87 27.2214C176.99 27.2214 177.13 27.2214 177.27 27.2214C177.31 27.2214 177.37 27.2214 177.41 27.2014C177.63 27.1214 177.87 27.0814 178.09 26.9614C178.29 26.8814 178.43 26.7414 178.57 26.6014C178.75 26.3814 178.89 26.1214 178.95 25.8214C179.03 25.3814 178.99 24.9214 178.99 24.4814C178.99 24.3214 178.97 24.1614 178.95 24.0014C178.93 23.7814 178.83 23.6014 178.77 23.4014C178.69 23.2014 178.57 23.0214 178.45 22.8614C178.21 22.5814 177.91 22.4414 177.55 22.4414C177.43 22.4414 177.29 22.4414 177.17 22.4414C176.97 22.4614 176.77 22.5214 176.63 22.6614C176.45 22.8014 176.39 23.0014 176.37 23.2414C176.37 23.8014 176.37 24.3614 176.37 24.9414ZM189.489 30.9814C190.169 30.9414 190.869 30.9214 191.549 30.9014C191.909 30.8814 192.169 31.0414 192.309 31.3614C192.529 31.8614 192.549 32.3614 192.469 32.8814C192.449 33.0414 192.369 33.2014 192.309 33.3614C192.229 33.5214 192.089 33.6014 191.929 33.6214C191.649 33.6414 191.389 33.6414 191.109 33.6414C190.949 33.6414 190.789 33.6214 190.609 33.6214C190.169 33.6414 189.709 33.6614 189.269 33.6614C188.949 33.6814 188.649 33.6414 188.349 33.6614C187.629 33.6814 186.929 33.7014 186.229 33.7214C185.809 33.7214 185.389 33.7014 184.969 33.6814C184.949 33.6814 184.909 33.6814 184.889 33.6814C184.729 33.5614 184.569 33.4614 184.429 33.3414C184.389 33.3014 184.369 33.2614 184.349 33.2014C184.229 32.8614 184.169 32.5214 184.209 32.1414C184.249 31.5414 184.269 30.9614 184.309 30.3814C184.349 29.6014 184.369 28.8214 184.409 28.0414C184.429 27.7414 184.409 27.4214 184.449 27.1214C184.509 26.4814 184.449 25.8414 184.429 25.2214C184.429 25.1614 184.429 25.1014 184.429 25.0614C184.389 24.0014 184.369 22.9614 184.349 21.9014C184.349 21.6014 184.389 21.3014 184.429 20.9814C184.429 20.8414 184.469 20.7214 184.509 20.5814C184.609 20.2814 184.689 19.9814 184.849 19.7014C184.929 19.5614 185.049 19.4614 185.209 19.4014C185.429 19.3414 185.649 19.3014 185.869 19.3214C186.209 19.3414 186.549 19.3414 186.889 19.3614C187.329 19.3814 187.769 19.4014 188.209 19.4414C188.829 19.4614 189.449 19.4814 190.069 19.4414C190.429 19.4014 190.789 19.4014 191.149 19.4014C191.309 19.4014 191.469 19.4614 191.629 19.5014C191.729 19.5214 191.829 19.5614 191.909 19.6014C192.129 19.7014 192.249 19.9014 192.289 20.1214C192.409 20.6414 192.429 21.1614 192.329 21.6814C192.309 21.8214 192.249 21.9214 192.149 22.0214C191.969 22.1814 191.769 22.3214 191.529 22.4014C191.349 22.4614 191.149 22.4414 190.949 22.4614C190.889 22.4614 190.849 22.4614 190.789 22.4614C190.409 22.5614 190.009 22.5214 189.609 22.5214C189.349 22.5214 189.089 22.5214 188.829 22.5814C188.749 22.6014 188.649 22.6014 188.549 22.6214C188.389 22.6414 188.209 22.6814 188.049 22.7214C187.829 22.7614 187.709 22.9014 187.709 23.1214C187.689 23.3814 187.689 23.6414 187.689 23.9014C187.689 23.9614 187.689 24.0214 187.689 24.0814C187.729 24.2814 187.809 24.4214 188.009 24.4814C188.069 24.5014 188.129 24.5014 188.209 24.5014C188.429 24.5014 188.669 24.4814 188.889 24.4814C188.969 24.4814 189.049 24.4814 189.129 24.4814C189.549 24.5214 189.969 24.4814 190.369 24.5014C190.769 24.5014 191.069 24.7614 191.149 25.1414C191.189 25.2814 191.189 25.4214 191.229 25.5614C191.269 25.7214 191.269 25.8614 191.269 26.0214C191.269 26.3414 191.149 26.5814 190.909 26.7614C190.729 26.9014 190.529 26.9814 190.309 26.9814C190.129 26.9814 189.949 27.0214 189.769 27.0214C189.729 27.0414 189.689 27.0414 189.649 27.0414C189.309 27.0814 188.969 27.1014 188.649 27.1214C188.429 27.1414 188.209 27.1814 188.009 27.2014C187.829 27.2214 187.769 27.3214 187.729 27.4814C187.649 27.8214 187.669 28.1614 187.649 28.5014C187.589 29.0014 187.589 29.4814 187.609 29.9814C187.609 30.1414 187.649 30.3214 187.669 30.4814C187.689 30.7614 187.889 30.8814 188.129 30.9214C188.329 30.9414 188.529 30.9414 188.729 30.9614C188.989 30.9614 189.229 30.9614 189.489 30.9614V30.9814ZM194.036 31.1814C194.036 31.1614 194.036 31.1214 194.036 31.0814C193.996 30.8214 194.096 30.6014 194.236 30.4014C194.396 30.2014 194.576 30.0014 194.796 29.8614C194.836 29.8414 194.876 29.8214 194.936 29.8014C195.076 29.8014 195.236 29.8014 195.396 29.8214C195.556 29.8214 195.716 29.9214 195.836 30.0214C196.096 30.2414 196.376 30.4414 196.656 30.6214C196.676 30.6414 196.716 30.6614 196.756 30.6814C196.976 30.7414 197.196 30.7814 197.416 30.8414C197.516 30.8614 197.636 30.8614 197.736 30.8814C198.016 30.9414 198.276 30.8614 198.536 30.7014C198.576 30.6814 198.596 30.6414 198.636 30.5814C198.896 30.2614 198.976 29.9014 198.976 29.4814C198.976 29.2614 198.876 29.0614 198.736 28.9014C198.596 28.7614 198.456 28.6214 198.256 28.5414C197.796 28.3614 197.376 28.1014 196.936 27.8414C196.516 27.6014 196.116 27.3414 195.696 27.0814C195.456 26.9414 195.216 26.7814 194.996 26.6014C194.736 26.3614 194.476 26.0814 194.296 25.7414C194.056 25.3014 193.936 24.8214 193.896 24.3214C193.876 23.9814 193.876 23.6414 193.876 23.3014C193.876 23.2814 193.876 23.2614 193.876 23.2414C193.976 22.8414 194.056 22.4614 194.236 22.1014C194.356 21.8614 194.516 21.6614 194.636 21.4214C194.796 21.1614 195.056 20.9614 195.276 20.7214C195.536 20.4214 195.856 20.1814 196.196 19.9814C196.316 19.9014 196.436 19.8614 196.576 19.8214C196.796 19.7614 197.016 19.7014 197.236 19.6614C197.816 19.5614 198.396 19.5614 198.976 19.6614C199.276 19.7214 199.556 19.8414 199.836 19.9814C200.156 20.1414 200.436 20.3614 200.736 20.5814C200.856 20.6614 200.976 20.7814 201.096 20.9014C201.116 20.9214 201.136 20.9614 201.156 20.9814C201.176 21.0414 201.196 21.0814 201.216 21.1414C201.356 21.5014 201.356 21.5014 201.296 21.8814C201.296 21.9414 201.276 22.0014 201.236 22.0614C201.176 22.2014 201.116 22.3414 201.036 22.4614C200.896 22.7014 200.696 22.8614 200.476 22.9814C200.456 22.9814 200.436 23.0014 200.416 23.0014C200.116 23.2014 199.796 23.1414 199.476 23.0414C199.316 23.0014 199.156 22.9214 198.996 22.8614C198.796 22.7814 198.596 22.7014 198.376 22.7014C198.096 22.7014 197.816 22.6814 197.556 22.7214C197.336 22.7614 197.176 22.8614 197.036 23.0614C196.876 23.3014 196.796 23.5414 196.816 23.8414C196.816 23.8814 196.816 23.9214 196.836 23.9614C196.976 24.2414 197.076 24.5214 197.376 24.6814C197.556 24.7614 197.736 24.8614 197.936 24.9414C198.376 25.1214 198.836 25.3414 199.276 25.5614C199.736 25.8214 200.176 26.1414 200.576 26.4814C200.696 26.5614 200.816 26.6614 200.916 26.7614C201.416 27.2014 201.716 27.7614 201.796 28.4214C201.836 28.8414 201.876 29.2814 201.896 29.7214C201.916 30.3414 201.756 30.9214 201.496 31.4814C201.376 31.7214 201.236 31.9414 201.076 32.1614C200.856 32.4814 200.636 32.8014 200.316 33.0414C199.956 33.3214 199.576 33.5814 199.136 33.7614C198.876 33.8614 198.616 33.9414 198.356 34.0014C197.876 34.1014 197.416 34.1014 196.976 33.9414C196.656 33.8414 196.316 33.7414 196.016 33.5814C195.776 33.4614 195.536 33.4014 195.296 33.3014C195.236 33.2814 195.176 33.2414 195.116 33.2014C195.076 33.1814 195.036 33.1414 194.996 33.1214C194.716 32.9814 194.516 32.7214 194.376 32.4614C194.376 32.4414 194.356 32.4214 194.356 32.4014C194.076 32.0414 194.016 31.6214 194.036 31.1814ZM212.143 24.4214C212.143 25.3214 212.143 26.2214 212.123 27.1214C212.123 27.6814 212.103 28.2214 212.063 28.7814C212.003 29.6214 211.903 30.4814 211.643 31.3014C211.483 31.8414 211.283 32.3814 210.883 32.8214C210.803 32.9014 210.703 32.9814 210.623 33.0614C210.563 33.1214 210.503 33.1614 210.463 33.2014C210.203 33.4814 209.863 33.6214 209.503 33.7414C209.343 33.7814 209.163 33.8214 208.983 33.8814C208.663 33.9614 208.343 33.9814 208.003 34.0014C207.683 34.0014 207.363 33.9614 207.063 33.8414C206.823 33.7414 206.543 33.6614 206.303 33.5814C205.923 33.4414 205.583 33.2214 205.283 32.9814C205.043 32.7814 204.883 32.5014 204.743 32.2414C204.663 32.0614 204.583 31.8614 204.483 31.6814C204.323 31.3814 204.223 31.0414 204.123 30.7214C204.023 30.3214 203.923 29.9214 203.863 29.5014C203.823 29.2814 203.803 29.0414 203.783 28.8214C203.763 28.5814 203.743 28.3414 203.723 28.1014C203.643 27.4414 203.603 26.7614 203.623 26.0814C203.663 24.9214 203.683 23.7614 203.723 22.5814C203.723 22.3214 203.743 22.0614 203.743 21.8014C203.743 21.7214 203.763 21.6414 203.783 21.5814C203.863 21.2214 203.943 20.8614 204.043 20.5014C204.103 20.1614 204.323 19.9014 204.623 19.7414C205.003 19.5414 205.563 19.6014 205.823 19.9014C205.943 20.0214 206.003 20.1614 206.063 20.3014C206.183 20.6214 206.223 20.9814 206.223 21.3414C206.263 22.0614 206.183 22.7814 206.163 23.5014C206.163 23.6214 206.163 23.7214 206.163 23.8414C206.163 24.0614 206.143 24.2814 206.123 24.5014C206.123 24.6614 206.103 24.8214 206.103 24.9814C206.103 25.7014 206.083 26.4214 206.103 27.1414C206.103 27.7214 206.123 28.3214 206.163 28.9014C206.183 29.3214 206.263 29.7414 206.423 30.1414C206.583 30.5414 206.823 30.9014 207.183 31.1814C207.243 31.2014 207.303 31.2414 207.363 31.2614C207.643 31.3414 207.923 31.3414 208.203 31.2414C208.363 31.1814 208.503 31.0814 208.603 30.9214C208.803 30.6414 208.943 30.3214 209.043 29.9814C209.283 29.2614 209.383 28.5414 209.423 27.7814C209.483 26.5814 209.503 25.4014 209.563 24.2014C209.603 23.5014 209.683 22.8214 209.743 22.1214C209.763 21.7814 209.783 21.4414 209.823 21.1014C209.863 20.6214 210.043 20.2014 210.323 19.8214C210.363 19.7814 210.403 19.7414 210.443 19.7414C210.643 19.6814 210.843 19.6014 211.063 19.5814C211.223 19.5614 211.403 19.6014 211.583 19.6614C211.743 19.6814 211.863 19.8014 211.963 19.9414C212.103 20.2014 212.203 20.4414 212.183 20.7414C212.163 21.0614 212.163 21.3614 212.163 21.6814C212.163 22.6014 212.163 23.5014 212.163 24.4214C212.163 24.4214 212.163 24.4214 212.143 24.4214ZM213.995 26.2614C213.995 24.7614 213.975 23.2414 213.995 21.7214C213.995 21.3814 213.975 21.0414 214.015 20.7214C214.055 20.4014 214.155 20.0814 214.315 19.8014C214.395 19.6614 214.495 19.5414 214.615 19.4414C214.795 19.2614 215.015 19.1614 215.255 19.1614C215.555 19.1814 215.835 19.2014 216.135 19.2414C216.455 19.2614 216.695 19.4214 216.855 19.6814C217.055 19.9614 217.235 20.2414 217.355 20.5614C217.535 20.9814 217.735 21.4014 217.935 21.8414C218.275 22.5414 218.615 23.2414 218.955 23.9614C218.975 24.0014 218.995 24.0414 219.015 24.0614C219.095 24.1414 219.195 24.1614 219.275 24.0814C219.315 24.0414 219.375 23.9814 219.415 23.9214C219.615 23.5414 219.815 23.1614 220.015 22.7614C220.075 22.6214 220.135 22.4814 220.195 22.3414C220.455 21.7414 220.695 21.1414 220.975 20.5414C221.135 20.1614 221.435 19.8614 221.775 19.6214C222.115 19.3614 222.495 19.2814 222.915 19.2814C223.035 19.3014 223.155 19.2814 223.275 19.3014C223.355 19.3014 223.435 19.3014 223.495 19.3214C223.815 19.4014 223.935 19.6614 224.055 19.9214C224.195 20.2814 224.255 20.6414 224.235 21.0214C224.235 21.8014 224.295 22.5814 224.355 23.3614C224.395 23.7814 224.395 24.2014 224.415 24.6214C224.415 25.3414 224.415 26.0614 224.455 26.8014C224.475 27.5614 224.515 28.3214 224.555 29.1014C224.575 29.6414 224.615 30.1814 224.575 30.7214C224.535 31.1214 224.575 31.5214 224.575 31.9214C224.595 32.3414 224.555 32.7414 224.435 33.1414C224.355 33.4414 224.175 33.6614 223.835 33.6814C223.715 33.7014 223.595 33.7214 223.475 33.7214C223.235 33.7414 222.975 33.7614 222.715 33.7414C222.615 33.7414 222.495 33.7414 222.375 33.7214C222.175 33.6614 222.035 33.5414 221.955 33.3414C221.795 32.9014 221.675 32.4414 221.675 31.9414C221.655 31.3214 221.655 30.7014 221.635 30.0614C221.615 29.6614 221.595 29.2614 221.575 28.8614C221.555 28.4014 221.555 27.9614 221.535 27.5014C221.535 27.4414 221.535 27.3614 221.515 27.3014C221.455 27.1414 221.335 27.1014 221.215 27.2214C221.135 27.3014 221.055 27.3814 221.015 27.4614C220.855 27.7214 220.735 27.9814 220.595 28.2214C220.415 28.5614 220.235 28.8814 220.035 29.2214C219.895 29.4614 219.695 29.6214 219.395 29.6614C219.175 29.7014 218.975 29.6414 218.795 29.5414C218.735 29.5014 218.695 29.4814 218.655 29.4614C218.535 29.3614 218.435 29.2614 218.355 29.1214C218.235 28.8214 218.075 28.5214 217.955 28.2014C217.795 27.8414 217.635 27.4814 217.495 27.1214C217.455 27.0414 217.395 26.9814 217.315 26.9414C217.215 26.9214 217.155 26.9414 217.115 27.0414C217.075 27.2014 217.055 27.3414 217.035 27.5014C217.035 28.0014 217.015 28.4814 217.015 28.9614C217.015 30.0414 217.015 31.1014 216.995 32.1614C216.995 32.3214 216.975 32.5014 216.975 32.6614C216.955 32.9414 216.855 33.1814 216.695 33.4014C216.555 33.6214 216.315 33.6814 216.055 33.6814C215.835 33.7014 215.615 33.7214 215.395 33.7014C215.155 33.7014 214.935 33.6814 214.715 33.5814C214.455 33.4414 214.315 33.2214 214.195 32.9814C213.995 32.5614 213.915 32.1214 213.915 31.6614C213.935 30.6814 213.955 29.7214 213.975 28.7614C213.995 27.9214 213.995 27.1014 214.015 26.2614C213.995 26.2614 213.995 26.2614 213.995 26.2614ZM231.813 30.9814C232.493 30.9414 233.193 30.9214 233.873 30.9014C234.233 30.8814 234.493 31.0414 234.633 31.3614C234.853 31.8614 234.873 32.3614 234.793 32.8814C234.773 33.0414 234.693 33.2014 234.633 33.3614C234.553 33.5214 234.413 33.6014 234.253 33.6214C233.973 33.6414 233.713 33.6414 233.433 33.6414C233.273 33.6414 233.113 33.6214 232.933 33.6214C232.493 33.6414 232.033 33.6614 231.593 33.6614C231.273 33.6814 230.973 33.6414 230.673 33.6614C229.953 33.6814 229.253 33.7014 228.553 33.7214C228.133 33.7214 227.713 33.7014 227.293 33.6814C227.273 33.6814 227.233 33.6814 227.213 33.6814C227.053 33.5614 226.893 33.4614 226.753 33.3414C226.713 33.3014 226.693 33.2614 226.673 33.2014C226.553 32.8614 226.493 32.5214 226.533 32.1414C226.573 31.5414 226.593 30.9614 226.633 30.3814C226.673 29.6014 226.693 28.8214 226.733 28.0414C226.753 27.7414 226.733 27.4214 226.773 27.1214C226.833 26.4814 226.773 25.8414 226.753 25.2214C226.753 25.1614 226.753 25.1014 226.753 25.0614C226.713 24.0014 226.693 22.9614 226.673 21.9014C226.673 21.6014 226.713 21.3014 226.753 20.9814C226.753 20.8414 226.793 20.7214 226.833 20.5814C226.933 20.2814 227.013 19.9814 227.173 19.7014C227.253 19.5614 227.373 19.4614 227.533 19.4014C227.753 19.3414 227.973 19.3014 228.193 19.3214C228.533 19.3414 228.873 19.3414 229.213 19.3614C229.653 19.3814 230.093 19.4014 230.533 19.4414C231.153 19.4614 231.773 19.4814 232.393 19.4414C232.753 19.4014 233.113 19.4014 233.473 19.4014C233.633 19.4014 233.793 19.4614 233.953 19.5014C234.053 19.5214 234.153 19.5614 234.233 19.6014C234.453 19.7014 234.573 19.9014 234.613 20.1214C234.733 20.6414 234.753 21.1614 234.653 21.6814C234.633 21.8214 234.573 21.9214 234.473 22.0214C234.293 22.1814 234.093 22.3214 233.853 22.4014C233.673 22.4614 233.473 22.4414 233.273 22.4614C233.213 22.4614 233.173 22.4614 233.113 22.4614C232.733 22.5614 232.333 22.5214 231.933 22.5214C231.673 22.5214 231.413 22.5214 231.153 22.5814C231.073 22.6014 230.973 22.6014 230.873 22.6214C230.713 22.6414 230.533 22.6814 230.373 22.7214C230.153 22.7614 230.033 22.9014 230.033 23.1214C230.013 23.3814 230.013 23.6414 230.013 23.9014C230.013 23.9614 230.013 24.0214 230.013 24.0814C230.053 24.2814 230.133 24.4214 230.333 24.4814C230.393 24.5014 230.453 24.5014 230.533 24.5014C230.753 24.5014 230.993 24.4814 231.213 24.4814C231.293 24.4814 231.373 24.4814 231.453 24.4814C231.873 24.5214 232.293 24.4814 232.693 24.5014C233.093 24.5014 233.393 24.7614 233.473 25.1414C233.513 25.2814 233.513 25.4214 233.553 25.5614C233.593 25.7214 233.593 25.8614 233.593 26.0214C233.593 26.3414 233.473 26.5814 233.233 26.7614C233.053 26.9014 232.853 26.9814 232.633 26.9814C232.453 26.9814 232.273 27.0214 232.093 27.0214C232.053 27.0414 232.013 27.0414 231.973 27.0414C231.633 27.0814 231.293 27.1014 230.973 27.1214C230.753 27.1414 230.533 27.1814 230.333 27.2014C230.153 27.2214 230.093 27.3214 230.053 27.4814C229.973 27.8214 229.993 28.1614 229.973 28.5014C229.913 29.0014 229.913 29.4814 229.933 29.9814C229.933 30.1414 229.973 30.3214 229.993 30.4814C230.013 30.7614 230.213 30.8814 230.453 30.9214C230.653 30.9414 230.853 30.9414 231.053 30.9614C231.313 30.9614 231.553 30.9614 231.813 30.9614V30.9814Z" fill="white"/>
</g>
<mask id="mask1_2072_1887" style="mask-type:luminance" maskUnits="userSpaceOnUse" x="0" y="0" width="53" height="53">
<path d="M0 0.748047H52.4162V52.7093H0V0.748047Z" fill="white"/>
</mask>
<g mask="url(#mask1_2072_1887)">
<path d="M51.4836 26.7287C51.4836 28.4349 51.3244 30.126 50.9907 31.8019C50.6646 33.4703 50.1717 35.0931 49.5271 36.6705C48.8825 38.2478 48.0863 39.7493 47.1535 41.1674C46.2132 42.5855 45.1439 43.8974 43.9533 45.1032C42.7552 46.3089 41.4584 47.3857 40.0555 48.3337C38.6526 49.2816 37.1662 50.0778 35.6116 50.73C34.0495 51.3898 32.4418 51.8827 30.781 52.2088C29.1279 52.5424 27.4519 52.7093 25.7684 52.7093C24.0773 52.7093 22.4014 52.5424 20.7482 52.2088C19.0875 51.8827 17.4798 51.3898 15.9252 50.73C14.363 50.0778 12.8767 49.2816 11.4738 48.3337C10.0709 47.3857 8.77411 46.3089 7.57594 45.1032C6.38535 43.8974 5.31609 42.5855 4.37576 41.1674C3.443 39.7493 2.64675 38.2478 2.00216 36.6705C1.35758 35.0931 0.864657 33.4703 0.538574 31.8019C0.204905 30.126 0.0456543 28.4349 0.0456543 26.7287C0.0456543 25.0224 0.204905 23.3313 0.538574 21.663C0.864657 19.987 1.35758 18.3642 2.00216 16.7869C2.64675 15.2095 3.443 13.7156 4.37576 12.2975C5.31609 10.8794 6.38535 9.5675 7.57594 8.36175C8.77411 7.15599 10.0709 6.07915 11.4738 5.13123C12.8767 4.18331 14.363 3.37948 15.9252 2.7273C17.4798 2.07514 19.0875 1.58222 20.7482 1.24855C22.4014 0.914881 24.0773 0.748047 25.7684 0.748047C27.4519 0.748047 29.1279 0.914881 30.781 1.24855C32.4418 1.58222 34.0495 2.07514 35.6116 2.7273C37.1662 3.37948 38.6526 4.18331 40.0555 5.13123C41.4584 6.07915 42.7552 7.15599 43.9533 8.36175C45.1439 9.5675 46.2132 10.8794 47.1535 12.2975C48.0863 13.7156 48.8825 15.2095 49.5271 16.7869C50.1717 18.3642 50.6646 19.987 50.9907 21.663C51.3244 23.3313 51.4836 25.0224 51.4836 26.7287Z" fill="white"/>
</g>
<path d="M25.7684 49.7054C13.2255 49.7054 3.01831 39.3996 3.01831 26.7278C3.01831 14.0636 13.2255 3.75781 25.7684 3.75781C38.3037 3.75781 48.5109 14.0636 48.5109 26.7278C48.5109 39.3996 38.3113 49.7054 25.7684 49.7054ZM25.7684 4.40998C13.5819 4.40998 3.6629 14.42 3.6629 26.7278C3.6629 39.0356 13.5819 49.0533 25.7684 49.0533C37.9473 49.0533 47.8663 39.0356 47.8663 26.7278C47.8663 14.42 37.9473 4.40998 25.7684 4.40998Z" fill="#E5AD4D" fill-opacity="0.85"/>
<path d="M25.4117 40.4704C25.3586 40.4477 25.3055 40.4249 25.2524 40.4098C24.1831 40.1216 23.5234 39.2798 23.5234 38.1651C23.5158 35.2607 23.5158 32.3562 23.5234 29.4518V20.7613C23.3793 20.8902 23.2883 20.966 23.2049 21.057C21.9385 22.331 20.6872 23.6202 19.4056 24.8866C18.1316 26.1455 16.0538 25.554 15.6443 23.8249C15.4395 22.9604 15.6974 22.2249 16.3192 21.5954C18.3136 19.5934 20.308 17.5763 22.2949 15.5667C22.894 14.96 23.4931 14.3457 24.0997 13.7391C25.1083 12.7381 26.4354 12.7381 27.4364 13.7466C30.0375 16.3705 32.6386 18.9943 35.2397 21.6333C35.8691 22.2704 36.1042 23.0287 35.8691 23.9008C35.6416 24.7425 35.0804 25.281 34.2387 25.4857C33.3969 25.6905 32.6689 25.4478 32.0623 24.8335C30.8262 23.5823 29.5901 22.3234 28.3464 21.0722C28.263 20.9812 28.1872 20.875 28.1189 20.7688L28.0052 20.8219V21.2163C28.0052 26.6839 27.9824 32.1439 28.0279 37.6115C28.0355 39.0372 27.5805 40.0306 26.1852 40.4704H25.4117Z" fill="#E5AD4D" fill-opacity="0.85"/>
<path d="M15.3638 37.4893C15.4548 37.6713 15.523 37.8608 15.6292 38.0353C15.8339 38.3538 16.16 38.5054 16.5089 38.604H15.3638V37.4893Z" fill="white"/>
</svg>
