<svg width="81" height="81" viewBox="0 0 81 81" fill="none" xmlns="http://www.w3.org/2000/svg">
<g clip-path="url(#clip0_2059_1451)">
<path d="M38.2708 38.0685C38.7703 37.9454 38.669 37.2105 38.1549 37.225L23.331 36.454C23.2586 36.3236 23.1789 36.1969 23.092 36.0702L18.9218 29.9922L12.7134 20.9531C12.4238 20.5331 11.7722 20.8807 11.9641 21.3549C11.9641 21.3549 19.8521 33.529 14.8746 38.9083C12.2899 41.6957 0.785498 44.6533 0.785498 44.6533C0.296796 44.8053 0.434357 45.533 0.944779 45.4931C3.96387 45.2578 6.97934 45.0406 9.99844 44.8307C12.9306 44.628 16.0945 44.7474 18.9399 44.0089C19.1969 43.9438 19.4539 43.8714 19.7109 43.7881C21.1445 43.3356 22.4911 42.6587 23.8522 42.0215C25.188 41.3917 26.3862 41.0478 27.7981 40.7002C29.2823 40.3346 30.7665 39.9545 32.2507 39.5817C34.2562 39.0785 36.2653 38.5717 38.2708 38.0685Z" fill="#85C536"/>
<path d="M23.751 29.938C22.7482 32.0376 23.4686 34.4702 25.3655 35.3752C27.2624 36.2838 29.6154 35.3173 30.6218 33.2213C31.6281 31.1253 30.9041 28.6891 29.0072 27.784C27.1103 26.8754 24.7573 27.842 23.751 29.938Z" fill="#85C536"/>
<path d="M41.5866 34.9551C41.8581 35.3895 42.5278 35.0673 42.354 34.5822L38.506 20.2759C38.6073 20.1637 38.7051 20.0479 38.7992 19.9284L43.3025 14.0893L49.9959 5.40851C50.3108 5.00307 49.7751 4.48903 49.3805 4.81845C49.3805 4.81845 40.2182 16.0695 33.5574 13.0033C30.1039 11.4141 23.7291 1.40839 23.7291 1.40839C23.4322 0.988473 22.7842 1.34323 22.9797 1.81746C24.1345 4.60849 25.2748 7.40676 26.4079 10.2087C27.5084 12.9273 28.3699 15.9681 29.9519 18.4406C30.093 18.665 30.2451 18.8858 30.4007 19.103C31.2768 20.3266 32.3375 21.3945 33.3655 22.4877C34.3755 23.5593 35.0742 24.5946 35.8416 25.8254C36.6489 27.125 37.4706 28.4137 38.2851 29.7061C39.3856 31.4545 40.4861 33.2066 41.5866 34.9551Z" fill="#F14624"/>
<path d="M44.8481 18.6606C42.5385 18.3529 40.4426 19.7901 40.1638 21.8716C39.8851 23.9531 41.5322 25.8862 43.8417 26.1939C46.1513 26.5016 48.2473 25.0644 48.526 22.9829C48.8012 20.9014 47.1541 18.9683 44.8481 18.6606Z" fill="#F14624"/>
<path d="M45.5795 37.1416C45.2501 37.5326 45.7641 38.0683 46.1695 37.7534L58.6151 29.6807C58.7491 29.7423 58.8903 29.8002 59.0351 29.8509L65.9891 32.3197L76.3315 35.9941C76.8166 36.1642 77.1388 35.4981 76.7044 35.2266C76.7044 35.2266 63.151 30.0065 64.0126 22.7339C64.4615 18.9655 72.0237 9.82134 72.0237 9.82134C72.335 9.41228 71.7956 8.90548 71.4047 9.2349C69.0987 11.1933 66.7855 13.1445 64.4687 15.0848C62.2171 16.9673 59.5853 18.7266 57.7174 20.9927C57.5472 21.1991 57.3843 21.409 57.2251 21.6226C56.3309 22.8317 55.6395 24.1711 54.9155 25.4851C54.206 26.7739 53.4385 27.7585 52.5009 28.8662C51.5127 30.0319 50.5389 31.212 49.5579 32.3813C48.2329 33.9668 46.9044 35.556 45.5795 37.1416Z" fill="#EC058E"/>
<path d="M62.1121 35.1978C61.6922 32.9135 59.6722 31.3678 57.6052 31.7479C55.5345 32.128 54.1988 34.2891 54.6223 36.5734C55.0422 38.8612 57.0622 40.407 59.1292 40.0269C61.1963 39.6468 62.532 37.4856 62.1121 35.1978Z" fill="#EC058E"/>
<mask id="mask0_2059_1451" style="mask-type:luminance" maskUnits="userSpaceOnUse" x="44" y="41" width="36" height="30">
<path d="M44.1245 41.5469H79.5065V70.8871H44.1245V41.5469Z" fill="white"/>
</mask>
<g mask="url(#mask0_2059_1451)">
<path d="M44.7292 41.6041C44.2549 41.4122 43.9038 42.0638 44.3273 42.3534L55.8643 51.6714C55.8498 51.8198 55.839 51.9718 55.8317 52.1275L55.629 59.487L55.3249 70.4411C55.3105 70.9552 56.0453 71.0565 56.172 70.557C56.172 70.557 56.9576 56.0805 64.1542 54.6506C67.8828 53.9122 78.9347 58.267 78.9347 58.267C79.4198 58.4336 79.7347 57.7638 79.2967 57.496C76.7192 55.914 74.149 54.3212 71.5824 52.7175C69.0919 51.1646 66.6049 49.2098 63.8682 48.1382C63.6184 48.0405 63.3686 47.9464 63.1152 47.8631C61.6853 47.3889 60.1975 47.1463 58.7241 46.8676C57.2725 46.5889 56.0996 46.1653 54.753 45.6187C53.3376 45.0431 51.9113 44.482 50.4922 43.9101C48.5736 43.1426 46.6514 42.3715 44.7292 41.6041Z" fill="#98198E"/>
</g>
<path d="M51.6865 56.6997C53.7354 55.592 54.5862 53.1992 53.5834 51.3529C52.5843 49.5067 50.1118 48.9058 48.0629 50.0135C46.014 51.1176 45.1669 53.5141 46.166 55.3567C47.1687 57.2029 49.6376 57.8038 51.6865 56.6997Z" fill="#98198E"/>
<mask id="mask1_2059_1451" style="mask-type:luminance" maskUnits="userSpaceOnUse" x="15" y="41" width="26" height="40">
<path d="M15.6313 41.6953H40.28V80.2304H15.6313V41.6953Z" fill="white"/>
</mask>
<g mask="url(#mask1_2059_1451)">
<path d="M40.215 42.1752C40.2476 41.6648 39.5199 41.5345 39.3751 42.0268L34.0609 55.8589C33.9125 55.8878 33.7641 55.924 33.6193 55.9675L26.5386 58.049L16.0079 61.1477C15.5156 61.2925 15.6459 62.0201 16.16 61.9839C16.16 61.9839 30.1984 58.2589 33.7822 64.6446C35.6429 67.9569 34.9044 79.7944 34.9044 79.7944C34.8972 80.3048 35.632 80.3989 35.7515 79.903C36.4646 76.9672 37.1886 74.0313 37.9199 71.1027C38.633 68.2574 39.7263 65.289 39.9037 62.364C39.9181 62.0961 39.929 61.8283 39.929 61.564C39.9399 60.0617 39.7118 58.5739 39.5236 57.086C39.3389 55.6236 39.3787 54.3783 39.4837 52.9303C39.5959 51.4099 39.6901 49.8822 39.7951 48.3618C39.9362 46.2984 40.0738 44.2386 40.215 42.1752Z" fill="#51ADE5"/>
</g>
<path d="M27.979 53.4462C29.6695 55.0498 32.2108 55.1186 33.6588 53.5946C35.1104 52.0778 34.9186 49.5438 33.2316 47.9401C31.5447 46.3401 28.9998 46.2713 27.5518 47.7917C26.1002 49.3121 26.2921 51.8461 27.979 53.4462Z" fill="#51ADE5"/>
</g>
<defs>
<clipPath id="clip0_2059_1451">
<rect width="79.9299" height="79.9299" fill="white" transform="translate(0.278687 0.988281)"/>
</clipPath>
</defs>
</svg>
