<svg width="73" height="49" viewBox="0 0 73 49" fill="none" xmlns="http://www.w3.org/2000/svg">
<g clip-path="url(#clip0_2056_1443)">
<path d="M20.4246 24.6564H24.4091V32.6516H32.376V24.6564H36.3583L28.3914 16.6611L20.4246 24.6564Z" fill="#FFFBF4"/>
<mask id="mask0_2056_1443" style="mask-type:luminance" maskUnits="userSpaceOnUse" x="0" y="0" width="73" height="49">
<path d="M0.484497 0.670898H72.2321V48.6422H0.484497V0.670898Z" fill="white"/>
</mask>
<g mask="url(#mask0_2056_1443)">
<path d="M70.3194 5.26608C70.0315 5.08724 69.724 4.94766 69.399 4.84516C69.0763 4.74484 68.7448 4.68814 68.4045 4.67287C68.0665 4.6576 67.7306 4.68377 67.397 4.75574C67.0655 4.82553 66.7492 4.93894 66.4439 5.0916L56.0388 10.3127C55.9036 9.6388 55.7138 8.98017 55.4652 8.33898C55.2187 7.69779 54.9178 7.08278 54.5645 6.49393C54.2112 5.90508 53.8121 5.34895 53.3628 4.8299C52.9157 4.30866 52.4272 3.83104 51.8972 3.39486C51.3673 2.95867 50.8046 2.57047 50.207 2.23243C49.6116 1.89221 48.9901 1.60869 48.3467 1.37533C47.7011 1.14416 47.0403 0.967502 46.3664 0.849733C45.6903 0.731964 45.0121 0.673079 44.3251 0.670898H12.4576C12.0672 0.670898 11.6769 0.690526 11.2865 0.729783C10.8983 0.769039 10.5123 0.827924 10.1284 0.904256C9.74458 0.980588 9.3651 1.07655 8.98998 1.18996C8.61705 1.30554 8.24848 1.4364 7.88644 1.58688C7.52659 1.73736 7.17329 1.90529 6.8287 2.09067C6.48194 2.27605 6.14826 2.47887 5.8233 2.69696C5.49617 2.91506 5.18211 3.14841 4.88115 3.39704C4.578 3.64784 4.28794 3.90955 4.01315 4.18871C3.73617 4.46568 3.47228 4.75574 3.22366 5.05889C2.97721 5.36204 2.74386 5.67827 2.52577 6.00541C2.30767 6.33036 2.10703 6.66622 1.92383 7.01299C1.73846 7.35975 1.57053 7.71306 1.42222 8.07727C1.27174 8.4393 1.13871 8.80788 1.0253 9.18517C0.911891 9.56029 0.815932 9.93977 0.7396 10.3258C0.663268 10.7096 0.606564 11.0978 0.567308 11.4882C0.528051 11.8808 0.508423 12.2712 0.508423 12.6637V36.6494C0.508423 37.0419 0.528051 37.4345 0.567308 37.8249C0.606564 38.2153 0.663268 38.6035 0.7396 38.9873C0.815932 39.3733 0.911891 39.7528 1.0253 40.1301C1.13871 40.5052 1.27174 40.8738 1.42222 41.2358C1.57053 41.6 1.73846 41.9534 1.92383 42.3001C2.10703 42.6469 2.30767 42.9827 2.52577 43.3099C2.74386 43.6348 2.97721 43.9511 3.22366 44.2542C3.47228 44.5574 3.73617 44.8474 4.01315 45.1266C4.28794 45.4036 4.578 45.6674 4.88115 45.9161C5.18211 46.1647 5.49617 46.3981 5.8233 46.6161C6.14826 46.8342 6.48194 47.0371 6.8287 47.2224C7.17329 47.4078 7.52659 47.5757 7.88644 47.7262C8.24848 47.8767 8.61705 48.0076 8.98998 48.1232C9.3651 48.2366 9.74458 48.3325 10.1284 48.4089C10.5123 48.4874 10.8983 48.5441 11.2865 48.5833C11.6769 48.6226 12.0672 48.6422 12.4576 48.6422H44.3251C45.0121 48.6422 45.6903 48.5811 46.3664 48.4634C47.0403 48.3456 47.7011 48.169 48.3467 47.9378C48.9901 47.7066 49.6116 47.4209 50.207 47.0807C50.8046 46.7426 51.3673 46.3544 51.8972 45.9183C52.4272 45.4821 52.9157 45.0045 53.3628 44.4854C53.8121 43.9642 54.2112 43.4102 54.5645 42.8192C54.9178 42.2303 55.2187 41.6153 55.4652 40.9741C55.7138 40.3329 55.9036 39.6765 56.0388 39.0026L66.4439 44.2237C66.5966 44.2978 66.7514 44.3654 66.9106 44.42C67.0698 44.4767 67.2334 44.5225 67.3991 44.5574C67.5627 44.5923 67.7306 44.6184 67.8986 44.6315C68.0687 44.6446 68.2366 44.649 68.4045 44.6402C68.5746 44.6337 68.7426 44.6141 68.9083 44.5857C69.0763 44.5574 69.2398 44.5181 69.4012 44.4679C69.5626 44.4178 69.7196 44.3567 69.8745 44.2869C70.0271 44.2171 70.1776 44.1364 70.3216 44.047C70.4655 43.9598 70.6029 43.8617 70.7337 43.7548C70.8646 43.6479 70.9889 43.5323 71.1067 43.4102C71.2223 43.2881 71.3313 43.1572 71.4316 43.022C71.532 42.8846 71.6236 42.7428 71.7064 42.5945C71.7871 42.4462 71.8613 42.2936 71.9245 42.1344C71.9856 41.9773 72.0401 41.8181 72.0815 41.6524C72.1252 41.4888 72.1557 41.3231 72.1775 41.1551C72.1993 40.985 72.2102 40.8171 72.2102 40.647V8.66612C72.2102 8.32589 72.1666 7.99003 72.0815 7.66072C71.9965 7.3314 71.87 7.01735 71.7043 6.72075C71.5407 6.42196 71.34 6.14935 71.1045 5.90508C70.8711 5.65864 70.6073 5.44491 70.3194 5.26608ZM48.3096 36.6494C48.3096 36.9111 48.2835 37.1728 48.2333 37.4301C48.1809 37.6875 48.1046 37.9361 48.0065 38.1782C47.9062 38.4225 47.7818 38.6515 47.6379 38.8695C47.4918 39.0876 47.326 39.2905 47.1428 39.4758C46.9575 39.6612 46.7568 39.827 46.5387 39.9731C46.3206 40.1192 46.0916 40.2413 45.8496 40.3417C45.6075 40.442 45.3589 40.5183 45.1037 40.5707C44.8463 40.6208 44.5868 40.647 44.3251 40.647H12.4576C12.1959 40.647 11.9386 40.6208 11.6812 40.5707C11.4261 40.5183 11.1753 40.442 10.9354 40.3417C10.6933 40.2413 10.4643 40.117 10.2462 39.9731C10.0281 39.827 9.82745 39.6612 9.64208 39.4758C9.45888 39.2905 9.29313 39.0876 9.14701 38.8695C9.00307 38.6515 8.87876 38.4203 8.77844 38.1782C8.67811 37.9361 8.60396 37.6875 8.55162 37.4301C8.50146 37.1728 8.47529 36.9111 8.47529 36.6494V12.6637C8.47529 12.402 8.50146 12.1425 8.55162 11.8851C8.60396 11.6278 8.67811 11.377 8.77844 11.1349C8.87876 10.8928 9.00307 10.6617 9.14701 10.4436C9.29313 10.2255 9.45888 10.0248 9.64208 9.83945C9.82745 9.65189 10.0281 9.48832 10.2462 9.3422C10.4643 9.19608 10.6933 9.07177 10.9354 8.97144C11.1753 8.87112 11.4261 8.79479 11.6812 8.74463C11.9386 8.69229 12.1959 8.66612 12.4576 8.66612H44.3251C44.5868 8.66612 44.8463 8.69229 45.1037 8.74463C45.3589 8.79479 45.6075 8.87112 45.8496 8.97144C46.0916 9.07177 46.3206 9.19608 46.5387 9.34002C46.7568 9.48614 46.9575 9.65189 47.1428 9.83727C47.326 10.0248 47.4918 10.2255 47.6379 10.4436C47.7818 10.6617 47.9062 10.8928 48.0065 11.1349C48.1046 11.377 48.1809 11.6278 48.2333 11.8851C48.2835 12.1425 48.3096 12.402 48.3096 12.6637V36.6494ZM64.2434 34.1784L56.2765 30.1808V19.1323L64.2434 15.1347V34.1784Z" fill="#FFFBF4"/>
</g>
</g>
<defs>
<clipPath id="clip0_2056_1443">
<rect width="72.8599" height="48.5732" fill="white" transform="translate(0.0700684 0.287109)"/>
</clipPath>
</defs>
</svg>
