<svg width="73" height="60" viewBox="0 0 73 60" fill="none" xmlns="http://www.w3.org/2000/svg">
<g clip-path="url(#clip0_2056_1400)">
<mask id="mask0_2056_1400" style="mask-type:luminance" maskUnits="userSpaceOnUse" x="0" y="0" width="70" height="57">
<path d="M0.10022 0.436523H69.0356V56.1607H0.10022V0.436523Z" fill="white"/>
</mask>
<g mask="url(#mask0_2056_1400)">
<path d="M8.25109 0.453125H60.3739C60.9084 0.453125 61.4364 0.504849 61.9623 0.608297C62.486 0.711746 62.9946 0.866918 63.4903 1.0695C63.9838 1.27425 64.4537 1.52425 64.8976 1.8195C65.3416 2.11692 65.7532 2.45313 66.1326 2.83028C66.5097 3.20744 66.8481 3.61692 67.1455 4.06088C67.4407 4.50269 67.6929 4.97037 67.8976 5.4639C68.1024 5.95528 68.2554 6.4639 68.361 6.98761C68.4644 7.50916 68.5162 8.03718 68.5162 8.5695V47.5372C68.5162 48.0717 68.4644 48.5997 68.361 49.1212C68.2554 49.6449 68.1024 50.1514 67.8976 50.6449C67.6929 51.1363 67.4407 51.6061 67.1455 52.048C66.8481 52.4919 66.5097 52.9014 66.1326 53.2786C65.7532 53.6557 65.3416 53.9919 64.8976 54.2872C64.4537 54.5846 63.9838 54.8346 63.4903 55.0393C62.9946 55.2419 62.486 55.3971 61.9623 55.5005C61.4364 55.604 60.9084 55.6557 60.3739 55.6557H8.25109C7.71445 55.6557 7.18643 55.604 6.66057 55.5005C6.13686 55.3971 5.62824 55.2419 5.13255 55.0393C4.63902 54.8346 4.16919 54.5846 3.72522 54.2872C3.28126 53.9919 2.86962 53.6557 2.49031 53.2786C2.11316 52.9014 1.77479 52.4919 1.47953 52.048C1.18212 51.6061 0.929965 51.1363 0.725224 50.6449C0.520482 50.1514 0.367465 49.6449 0.261862 49.1212C0.158413 48.5997 0.106689 48.0717 0.106689 47.5372V8.5695C0.106689 8.03718 0.158413 7.50916 0.261862 6.98761C0.367465 6.4639 0.520482 5.95528 0.725224 5.4639C0.929965 4.97037 1.18212 4.50269 1.47953 4.06088C1.77479 3.61692 2.11316 3.20744 2.49031 2.83028C2.86962 2.45313 3.28126 2.11692 3.72522 1.8195C4.16919 1.52425 4.63902 1.27425 5.13255 1.0695C5.62824 0.866918 6.13686 0.711746 6.66057 0.608297C7.18643 0.504849 7.71445 0.453125 8.25109 0.453125Z" fill="#0D3B8D"/>
</g>
<mask id="mask1_2056_1400" style="mask-type:luminance" maskUnits="userSpaceOnUse" x="0" y="45" width="70" height="12">
<path d="M0.10022 45.6768H69.0356V56.1595H0.10022V45.6768Z" fill="white"/>
</mask>
<g mask="url(#mask1_2056_1400)">
<path d="M0.106689 45.9141V47.5369C0.106689 48.0714 0.158413 48.5994 0.261862 49.121C0.367465 49.6447 0.520482 50.1511 0.725224 50.6447C0.929965 51.136 1.18212 51.6059 1.47953 52.0477C1.77479 52.4916 2.11315 52.9011 2.49247 53.2783C2.86962 53.6554 3.28126 53.9916 3.72522 54.2869C4.16919 54.5843 4.63902 54.8343 5.13255 55.0391C5.62824 55.2416 6.13686 55.3968 6.66057 55.5003C7.18643 55.6037 7.7166 55.6554 8.25109 55.6554H60.3739C60.9084 55.6554 61.4364 55.6037 61.9623 55.5003C62.486 55.3968 62.9946 55.2416 63.4903 55.0391C63.9838 54.8343 64.4537 54.5843 64.8976 54.2869C65.3416 53.9916 65.7532 53.6554 66.1326 53.2783C66.5097 52.9011 66.8481 52.4916 67.1455 52.0477C67.4407 51.6059 67.6929 51.136 67.8976 50.6447C68.1024 50.1511 68.2554 49.6447 68.361 49.121C68.4644 48.5994 68.5162 48.0714 68.5162 47.5369V45.9141H0.106689Z" fill="#00286F"/>
</g>
<path d="M44.9796 22.1364L28.3653 12.5739C28.249 12.5071 28.1283 12.4468 28.0033 12.3951C27.8783 12.3433 27.7511 12.3002 27.6196 12.2658C27.4903 12.2313 27.3567 12.2054 27.2231 12.186C27.0895 12.1688 26.9537 12.1602 26.8179 12.1602C26.6843 12.1602 26.5485 12.1688 26.4149 12.186C26.2813 12.2054 26.1477 12.2313 26.0183 12.2658C25.8869 12.3002 25.7597 12.3433 25.6347 12.3951C25.5097 12.4468 25.389 12.5071 25.2705 12.5739C25.1541 12.6408 25.0421 12.7162 24.9343 12.7981C24.8287 12.88 24.7252 12.9683 24.6304 13.0632C24.5356 13.1602 24.4451 13.2614 24.3632 13.3671C24.2813 13.4748 24.2058 13.5869 24.139 13.7033C24.0722 13.8196 24.0119 13.9403 23.9602 14.0653C23.9084 14.1903 23.8653 14.3175 23.8287 14.4468C23.7942 14.5761 23.7683 14.7097 23.7511 14.8433C23.7339 14.977 23.7252 15.1106 23.7252 15.2464V34.3692C23.7231 34.9209 23.8589 35.436 24.1347 35.9145C24.4106 36.3929 24.7877 36.7701 25.2683 37.0459C25.7468 37.3218 26.264 37.4597 26.8179 37.4597C27.3718 37.4576 27.8869 37.3175 28.3653 37.0395L44.9796 27.4791C45.0981 27.4123 45.2102 27.3369 45.3179 27.255C45.4235 27.1731 45.5248 27.0847 45.6218 26.9877C45.7166 26.8929 45.805 26.7916 45.889 26.686C45.9709 26.5783 46.0464 26.4662 46.1132 26.3498C46.18 26.2334 46.2403 26.1127 46.2921 25.9877C46.3438 25.8627 46.3869 25.7356 46.4214 25.6063C46.458 25.4748 46.4839 25.3433 46.5011 25.2097C46.5183 25.0761 46.527 24.9425 46.527 24.8067C46.527 24.6731 46.5183 24.5373 46.5011 24.4037C46.4839 24.2701 46.458 24.1386 46.4214 24.0093C46.3869 23.8778 46.3438 23.7507 46.2921 23.6278C46.2403 23.5028 46.18 23.3821 46.1132 23.2658C46.0464 23.1472 45.9709 23.0373 45.889 22.9296C45.805 22.8218 45.7166 22.7205 45.6218 22.6257C45.5248 22.5308 45.4235 22.4425 45.3179 22.3606C45.2102 22.2787 45.0981 22.2033 44.9796 22.1364Z" fill="#FCF9F0"/>
<mask id="mask2_2056_1400" style="mask-type:luminance" maskUnits="userSpaceOnUse" x="43" y="30" width="29" height="29">
<path d="M43.6562 30.7812H71.764V58.9192H43.6562V30.7812Z" fill="white"/>
</mask>
<g mask="url(#mask2_2056_1400)">
<path d="M71.7749 45.1023C71.7749 45.5549 71.7533 46.0053 71.7081 46.4558C71.6628 46.9062 71.5981 47.3523 71.5098 47.7963C71.4193 48.2381 71.3093 48.6777 71.1779 49.1088C71.0464 49.542 70.8934 49.9665 70.721 50.3846C70.5464 50.8027 70.3546 51.2101 70.1391 51.6088C69.9257 52.0075 69.693 52.3954 69.4408 52.7704C69.1887 53.1454 68.9193 53.5096 68.6326 53.8588C68.3438 54.2079 68.0399 54.542 67.7188 54.8609C67.3999 55.182 67.0637 55.4838 66.7124 55.7704C66.3632 56.0592 65.999 56.3264 65.6218 56.5786C65.2447 56.8286 64.8568 57.0614 64.4559 57.2747C64.0572 57.4881 63.6477 57.6799 63.2274 57.8545C62.8093 58.0269 62.3826 58.1777 61.9494 58.3092C61.5141 58.4407 61.0744 58.5506 60.6305 58.6389C60.1865 58.7273 59.7382 58.7941 59.2878 58.8372C58.8352 58.8825 58.3826 58.904 57.93 58.904C57.4753 58.904 57.0249 58.8825 56.5723 58.8372C56.1218 58.7941 55.6736 58.7273 55.2296 58.6389C54.7835 58.5506 54.3438 58.4407 53.9106 58.3092C53.4774 58.1777 53.0507 58.0269 52.6305 57.8545C52.2124 57.6799 51.8029 57.4881 51.4042 57.2747C51.0033 57.0614 50.6154 56.8286 50.2382 56.5786C49.8611 56.3264 49.4968 56.0592 49.1456 55.7704C48.7964 55.4838 48.4602 55.182 48.1391 54.8609C47.8201 54.542 47.5141 54.2079 47.2274 53.8588C46.9387 53.5096 46.6693 53.1454 46.4171 52.7704C46.1649 52.3954 45.9322 52.0075 45.7188 51.6088C45.5055 51.2101 45.3115 50.8027 45.1391 50.3846C44.9645 49.9665 44.8115 49.542 44.68 49.1088C44.5486 48.6777 44.4387 48.2381 44.3503 47.7963C44.2619 47.3523 44.1951 46.9062 44.152 46.4558C44.1068 46.0053 44.0852 45.5549 44.0852 45.1023C44.0852 44.6519 44.1068 44.1993 44.152 43.751C44.1951 43.3006 44.2619 42.8545 44.3503 42.4105C44.4387 41.9665 44.5486 41.529 44.68 41.0958C44.8115 40.6648 44.9645 40.2402 45.1391 39.8221C45.3115 39.404 45.5055 38.9967 45.7188 38.598C45.9322 38.1993 46.1649 37.8114 46.4171 37.4364C46.6693 37.0592 46.9387 36.6971 47.2274 36.348C47.5141 35.9989 47.8201 35.6648 48.1391 35.3437C48.4602 35.0247 48.7964 34.7208 49.1456 34.4342C49.4968 34.1476 49.8611 33.8782 50.2382 33.6282C50.6154 33.376 51.0033 33.1454 51.4042 32.932C51.8029 32.7187 52.2124 32.5247 52.6305 32.3523C53.0507 32.1799 53.4774 32.0269 53.9106 31.8954C54.3438 31.7639 54.7835 31.6562 55.2296 31.5678C55.6736 31.4795 56.1218 31.4126 56.5723 31.3674C57.0249 31.3243 57.4753 31.3027 57.93 31.3027C58.3826 31.3027 58.8352 31.3243 59.2878 31.3674C59.7382 31.4126 60.1865 31.4795 60.6305 31.5678C61.0744 31.6562 61.5141 31.7639 61.9494 31.8954C62.3826 32.0269 62.8093 32.1799 63.2274 32.3523C63.6477 32.5247 64.0572 32.7187 64.4559 32.932C64.8568 33.1454 65.2447 33.376 65.6218 33.6282C65.999 33.8782 66.3632 34.1476 66.7124 34.4342C67.0637 34.7208 67.3999 35.0247 67.7188 35.3437C68.0399 35.6648 68.3438 35.9989 68.6326 36.348C68.9193 36.6971 69.1887 37.0592 69.4408 37.4364C69.693 37.8114 69.9257 38.1993 70.1391 38.598C70.3546 38.9967 70.5464 39.404 70.721 39.8221C70.8934 40.2402 71.0464 40.6648 71.1779 41.0958C71.3093 41.529 71.4214 41.9665 71.5098 42.4105C71.5981 42.8545 71.6628 43.3006 71.7081 43.751C71.7533 44.1993 71.7749 44.6519 71.7749 45.1023Z" fill="#FFC343"/>
</g>
<path d="M63.1541 42.3304L59.0809 38.2722C58.9278 38.1192 58.7533 38.0028 58.5528 37.9209C58.3524 37.8368 58.1455 37.7959 57.93 37.7959C57.7145 37.7959 57.5054 37.8368 57.3072 37.9209C57.1067 38.0028 56.93 38.1192 56.777 38.2722L52.7059 42.3304C52.5528 42.4834 52.4343 42.658 52.3524 42.8584C52.2684 43.0567 52.2274 43.2636 52.2274 43.4791C52.2274 43.6946 52.2684 43.9015 52.3524 44.1019C52.4343 44.3002 52.5528 44.4748 52.7059 44.6278C52.8567 44.7808 53.0335 44.8972 53.2339 44.9791C53.4343 45.0631 53.6412 45.1041 53.8567 45.1041C54.0744 45.1041 54.2813 45.0631 54.4817 44.9791C54.68 44.8972 54.8567 44.7787 55.0097 44.6278L56.3007 43.339V50.7851C56.3028 50.9985 56.346 51.2054 56.43 51.4015C56.5119 51.5998 56.6304 51.7722 56.7835 51.9231C56.9365 52.0739 57.111 52.1903 57.3093 52.2722C57.5076 52.3519 57.7145 52.3929 57.93 52.3929C58.1434 52.3929 58.3503 52.3519 58.5485 52.2722C58.7468 52.1903 58.9235 52.0739 59.0766 51.9231C59.2274 51.7722 59.346 51.5998 59.43 51.4015C59.5141 51.2054 59.5572 50.9985 59.5593 50.7851V43.339L60.8503 44.6278C61.0033 44.7808 61.1778 44.8993 61.3783 44.9834C61.5787 45.0674 61.7878 45.1106 62.0033 45.1106C62.221 45.1127 62.43 45.0718 62.6304 44.9899C62.8309 44.9058 63.0076 44.7894 63.1628 44.6364C63.3158 44.4834 63.4343 44.3067 63.5162 44.1062C63.5981 43.9058 63.6391 43.6989 63.6391 43.4812C63.6391 43.2657 63.596 43.0567 63.5119 42.8584C63.4278 42.658 63.3072 42.4834 63.1541 42.3304Z" fill="#0D3B8D"/>
</g>
<defs>
<clipPath id="clip0_2056_1400">
<rect width="72" height="58.7586" fill="white" transform="translate(0.0700684 0.435547)"/>
</clipPath>
</defs>
</svg>
