<svg xmlns="http://www.w3.org/2000/svg" xmlns:xlink="http://www.w3.org/1999/xlink" width="214" zoomAndPan="magnify" viewBox="0 0 160.5 54.75" height="73" preserveAspectRatio="xMidYMid meet" version="1.0"><defs><clipPath id="4880a7dce8"><path d="M 1 0.304688 L 159 0.304688 L 159 54 L 1 54 Z M 1 0.304688 " clip-rule="nonzero"/></clipPath><clipPath id="ed1b6ecaa9"><path d="M 0.75 0.304688 L 159 0.304688 L 159 54.058594 L 0.75 54.058594 Z M 0.75 0.304688 " clip-rule="nonzero"/></clipPath></defs><g clip-path="url(#4880a7dce8)"><path fill="#ff61c8" d="M 61.53125 2.835938 C 62.238281 2.519531 62.929688 2.246094 63.59375 2.023438 C 64.335938 1.769531 65.058594 1.558594 65.746094 1.398438 C 66.707031 1.167969 67.726562 0.992188 68.8125 0.871094 C 69.878906 0.75 70.933594 0.6875 71.964844 0.6875 C 72.992188 0.6875 74.046875 0.75 75.113281 0.871094 C 76.199219 0.992188 77.222656 1.167969 78.179688 1.398438 C 79.140625 1.625 80.121094 1.925781 81.109375 2.304688 C 82.074219 2.671875 83.007812 3.09375 83.902344 3.574219 C 84.714844 4.011719 85.515625 4.507812 86.304688 5.0625 L 88.867188 2.714844 C 89.28125 2.335938 89.773438 2.027344 90.324219 1.8125 L 90.320312 1.808594 C 90.863281 1.59375 91.429688 1.480469 92.007812 1.480469 L 122.996094 1.480469 C 123.511719 1.480469 124.007812 1.5625 124.472656 1.71875 C 124.9375 1.5625 125.425781 1.480469 125.921875 1.480469 L 153.214844 1.480469 C 154.5 1.480469 155.664062 2.003906 156.507812 2.84375 C 156.761719 3.097656 156.976562 3.378906 157.15625 3.675781 C 157.613281 4.394531 157.875 5.238281 157.875 6.136719 L 157.875 14.914062 C 157.875 15.554688 157.730469 16.183594 157.472656 16.769531 L 157.464844 16.78125 L 157.472656 16.785156 C 157.214844 17.371094 156.835938 17.894531 156.363281 18.332031 L 155.90625 18.753906 L 155.910156 18.957031 L 155.910156 27.335938 C 155.910156 27.457031 155.90625 27.578125 155.894531 27.695312 C 156.355469 27.921875 156.773438 28.222656 157.132812 28.582031 C 157.386719 28.835938 157.605469 29.117188 157.78125 29.414062 C 158.238281 30.132812 158.5 30.976562 158.5 31.875 L 158.5 40.652344 C 158.5 41.292969 158.355469 41.921875 158.097656 42.507812 L 158.089844 42.523438 L 158.097656 42.527344 C 157.839844 43.113281 157.460938 43.636719 156.992188 44.074219 L 148.738281 51.640625 C 148.324219 52.019531 147.832031 52.328125 147.28125 52.542969 L 147.285156 52.546875 C 146.746094 52.757812 146.175781 52.875 145.59375 52.875 L 117.679688 52.875 C 117.15625 52.875 116.65625 52.777344 116.191406 52.609375 C 115.410156 52.34375 114.726562 51.882812 114.203125 51.292969 L 114.195312 51.285156 L 114.1875 51.292969 C 113.460938 50.46875 113.023438 49.394531 113.023438 48.21875 L 113.039062 48.21875 L 113.035156 47.078125 L 108.070312 51.636719 C 107.652344 52.015625 107.160156 52.324219 106.613281 52.539062 L 106.617188 52.542969 C 106.074219 52.753906 105.507812 52.871094 104.925781 52.871094 L 93.605469 52.871094 C 92.335938 52.871094 91.175781 52.347656 90.320312 51.496094 L 90.3125 51.503906 C 89.46875 50.664062 88.945312 49.5 88.945312 48.214844 L 88.945312 39.53125 L 88.628906 39.835938 L 88.476562 39.972656 L 88.480469 39.976562 L 80.230469 47.542969 C 79.546875 48.171875 78.816406 48.757812 78.050781 49.296875 C 77.300781 49.828125 76.5 50.316406 75.660156 50.769531 C 74.765625 51.246094 73.835938 51.671875 72.871094 52.039062 C 71.878906 52.414062 70.90625 52.714844 69.941406 52.945312 C 68.980469 53.175781 67.960938 53.347656 66.875 53.472656 C 65.804688 53.589844 64.753906 53.652344 63.722656 53.652344 C 62.695312 53.652344 61.640625 53.59375 60.574219 53.472656 C 59.488281 53.347656 58.464844 53.175781 57.507812 52.945312 C 56.546875 52.714844 55.566406 52.414062 54.578125 52.039062 C 53.613281 51.671875 52.675781 51.246094 51.785156 50.769531 C 51.34375 50.53125 50.84375 50.234375 50.292969 49.882812 C 49.800781 49.566406 49.328125 49.242188 48.878906 48.90625 C 48.472656 48.601562 48.140625 48.335938 47.878906 48.117188 C 47.570312 47.859375 47.253906 47.578125 46.9375 47.273438 C 46.207031 46.582031 45.535156 45.847656 44.925781 45.078125 C 44.414062 44.4375 43.941406 43.769531 43.503906 43.066406 C 43.460938 43.140625 43.417969 43.207031 43.367188 43.273438 C 43.183594 43.542969 42.953125 43.800781 42.695312 44.035156 L 42.6875 44.046875 L 42.695312 44.054688 L 34.429688 51.636719 C 34.019531 52.011719 33.53125 52.308594 32.988281 52.523438 L 32.992188 52.527344 C 32.445312 52.738281 31.871094 52.855469 31.300781 52.855469 L 31.300781 52.839844 L 20.175781 52.839844 L 20.175781 52.855469 C 19.6875 52.855469 19.175781 52.757812 18.671875 52.585938 L 18.667969 52.601562 C 18.199219 52.4375 17.742188 52.1875 17.320312 51.855469 C 16.960938 51.574219 16.640625 51.234375 16.375 50.855469 L 16.371094 50.847656 L 16.359375 50.855469 C 16.121094 50.515625 15.925781 50.132812 15.785156 49.714844 L 1.671875 15.464844 C 1.296875 14.554688 1.238281 13.59375 1.433594 12.699219 C 1.640625 11.773438 2.121094 10.921875 2.816406 10.28125 L 11.085938 2.699219 C 11.125 2.660156 11.167969 2.625 11.210938 2.589844 C 11.425781 2.40625 11.65625 2.25 11.890625 2.121094 C 12.078125 2.015625 12.265625 1.917969 12.445312 1.84375 L 12.464844 1.835938 L 12.460938 1.828125 C 12.730469 1.71875 13.015625 1.632812 13.316406 1.574219 C 13.425781 1.554688 13.53125 1.539062 13.632812 1.523438 C 13.832031 1.496094 14.027344 1.484375 14.207031 1.484375 L 14.207031 1.492188 L 14.375 1.496094 L 26.390625 1.496094 L 26.390625 1.476562 C 27.410156 1.476562 28.367188 1.820312 29.15625 2.40625 L 29.160156 2.402344 C 29.917969 2.96875 30.5 3.757812 30.800781 4.671875 L 32.542969 9.050781 L 39.460938 2.714844 C 39.878906 2.332031 40.375 2.027344 40.917969 1.8125 L 40.914062 1.808594 C 41.425781 1.605469 41.996094 1.5 42.589844 1.5 L 53.734375 1.5 L 53.734375 1.476562 C 55.019531 1.476562 56.183594 2 57.027344 2.839844 C 57.539062 3.351562 57.929688 3.980469 58.160156 4.679688 C 58.753906 4.285156 59.375 3.917969 60.023438 3.570312 C 60.117188 3.515625 60.359375 3.394531 60.761719 3.195312 L 60.765625 3.191406 C 60.957031 3.097656 61.214844 2.980469 61.53125 2.835938 Z M 61.53125 2.835938 " fill-opacity="1" fill-rule="nonzero"/></g><path fill="#ff0015" d="M 58.328125 9.984375 L 58.359375 9.957031 C 59.453125 8.953125 60.6875 8.082031 62.058594 7.347656 C 63.527344 6.558594 65.085938 5.964844 66.738281 5.574219 C 68.386719 5.183594 70.128906 4.984375 71.964844 4.984375 C 73.796875 4.984375 75.539062 5.183594 77.191406 5.574219 C 78.839844 5.964844 80.402344 6.558594 81.871094 7.347656 C 83.339844 8.132812 84.644531 9.074219 85.796875 10.171875 C 86.007812 10.371094 86.214844 10.574219 86.410156 10.789062 L 91.773438 5.871094 C 91.835938 5.8125 91.921875 5.777344 92.011719 5.777344 L 123 5.777344 C 123.199219 5.777344 123.355469 5.9375 123.355469 6.132812 L 123.355469 8.003906 L 125.679688 5.871094 C 125.742188 5.8125 125.832031 5.777344 125.921875 5.777344 L 130.777344 5.777344 L 130.320312 37.339844 L 124.167969 48.570312 L 117.671875 48.570312 C 117.472656 48.570312 117.3125 48.40625 117.3125 48.214844 L 117.234375 20.757812 C 117.460938 13.777344 116.074219 15.730469 115.199219 16.828125 C 114.289062 17.96875 113.882812 18.503906 113.523438 23.082031 L 113.523438 40.644531 C 113.523438 40.746094 113.480469 40.839844 113.410156 40.910156 L 105.160156 48.476562 C 105.09375 48.535156 105.007812 48.570312 104.917969 48.570312 L 93.597656 48.570312 C 93.398438 48.570312 93.242188 48.40625 93.242188 48.214844 L 93.242188 23.082031 L 91.269531 23.082031 C 91.269531 23.183594 91.273438 23.285156 91.273438 23.390625 C 91.273438 26.90625 90.441406 30.0625 88.777344 32.867188 C 87.945312 34.265625 86.953125 35.515625 85.800781 36.613281 C 85.726562 36.683594 85.652344 36.753906 85.570312 36.828125 L 77.320312 44.394531 C 76.226562 45.398438 74.992188 46.269531 73.621094 47.003906 C 72.152344 47.789062 70.59375 48.382812 68.941406 48.777344 C 67.292969 49.167969 65.550781 49.363281 63.714844 49.363281 C 61.882812 49.363281 60.140625 49.167969 58.488281 48.777344 C 56.839844 48.382812 55.277344 47.789062 53.808594 47.003906 C 52.339844 46.214844 51.035156 45.273438 49.882812 44.179688 C 48.730469 43.082031 47.738281 41.835938 46.910156 40.4375 C 46.078125 39.039062 45.453125 37.546875 45.035156 35.964844 C 44.621094 34.382812 44.410156 32.714844 44.410156 30.960938 C 44.410156 30.515625 44.421875 30.082031 44.449219 29.65625 L 39.867188 40.785156 C 39.847656 40.835938 39.816406 40.875 39.78125 40.914062 L 31.53125 48.480469 C 31.464844 48.539062 31.378906 48.574219 31.289062 48.574219 L 20.164062 48.574219 C 20 48.574219 19.867188 48.46875 19.824219 48.324219 L 5.636719 13.832031 C 5.578125 13.691406 5.617188 13.53125 5.722656 13.433594 L 13.976562 5.867188 C 14.007812 5.839844 14.042969 5.816406 14.082031 5.800781 C 14.125 5.78125 14.171875 5.773438 14.214844 5.773438 L 26.398438 5.773438 C 26.5625 5.773438 26.699219 5.878906 26.742188 6.027344 L 31.859375 18.902344 L 34.03125 13.5625 C 34.050781 13.511719 34.085938 13.46875 34.121094 13.433594 L 42.371094 5.867188 C 42.4375 5.808594 42.527344 5.773438 42.613281 5.773438 L 53.738281 5.773438 C 53.9375 5.773438 54.09375 5.933594 54.09375 6.128906 C 54.09375 6.1875 54.078125 6.242188 54.054688 6.289062 L 48.960938 18.679688 C 49.253906 18.351562 49.5625 18.035156 49.882812 17.730469 C 49.957031 17.65625 50.03125 17.585938 50.109375 17.515625 Z M 130.78125 5.773438 L 153.21875 5.773438 C 153.414062 5.773438 153.578125 5.933594 153.578125 6.128906 L 153.578125 14.90625 C 153.578125 15.007812 153.535156 15.101562 153.460938 15.171875 L 149.734375 18.589844 L 151.253906 18.589844 C 151.453125 18.589844 151.613281 18.753906 151.613281 18.949219 L 151.613281 27.328125 C 151.613281 27.433594 151.570312 27.527344 151.5 27.59375 L 147.230469 31.511719 L 153.847656 31.511719 C 154.042969 31.511719 154.207031 31.671875 154.207031 31.867188 L 154.207031 40.644531 C 154.207031 40.746094 154.164062 40.839844 154.09375 40.910156 L 145.839844 48.476562 C 145.777344 48.535156 145.691406 48.570312 145.597656 48.570312 L 124.179688 48.570312 L 130.332031 37.339844 Z M 64.808594 22.765625 C 65.089844 22.804688 65.363281 22.863281 65.628906 22.9375 C 66.230469 23.105469 66.800781 23.359375 67.339844 23.695312 C 67.878906 24.03125 68.359375 24.433594 68.792969 24.914062 C 69.222656 25.390625 69.601562 25.941406 69.921875 26.5625 C 70.566406 27.808594 70.886719 29.273438 70.886719 30.960938 C 70.886719 31.175781 70.882812 31.378906 70.871094 31.585938 C 70.589844 31.546875 70.316406 31.488281 70.050781 31.410156 C 69.449219 31.246094 68.878906 30.992188 68.339844 30.65625 C 67.800781 30.320312 67.320312 29.917969 66.886719 29.4375 C 66.457031 28.957031 66.078125 28.410156 65.757812 27.789062 C 65.113281 26.542969 64.792969 25.074219 64.792969 23.390625 C 64.792969 23.175781 64.796875 22.964844 64.808594 22.765625 Z M 64.808594 22.765625 " fill-opacity="1" fill-rule="evenodd"/><path fill="#000000" d="M 130.78125 5.773438 L 130.324219 37.335938 L 124.171875 48.566406 L 145.589844 48.566406 C 145.6875 48.566406 145.769531 48.53125 145.832031 48.472656 L 154.085938 40.90625 C 154.15625 40.835938 154.199219 40.746094 154.199219 40.640625 L 154.199219 31.867188 C 154.199219 31.667969 154.035156 31.511719 153.839844 31.511719 L 147.222656 31.511719 L 151.492188 27.59375 C 151.5625 27.527344 151.605469 27.4375 151.605469 27.328125 L 151.605469 18.953125 C 151.605469 18.753906 151.441406 18.59375 151.246094 18.59375 L 149.726562 18.59375 L 153.453125 15.175781 C 153.527344 15.105469 153.570312 15.015625 153.570312 14.910156 L 153.570312 6.132812 C 153.570312 5.933594 153.40625 5.777344 153.210938 5.777344 Z M 130.78125 5.773438 L 125.925781 5.773438 C 125.832031 5.773438 125.746094 5.808594 125.683594 5.867188 L 123.359375 8 L 123.359375 6.128906 C 123.359375 5.929688 123.199219 5.773438 123.003906 5.773438 L 92.015625 5.773438 C 91.921875 5.773438 91.839844 5.808594 91.777344 5.867188 L 86.414062 10.785156 C 86.21875 10.574219 86.011719 10.367188 85.800781 10.167969 C 84.652344 9.070312 83.34375 8.128906 81.875 7.34375 C 80.40625 6.554688 78.84375 5.960938 77.195312 5.570312 C 75.542969 5.179688 73.800781 4.980469 71.96875 4.980469 C 70.132812 4.980469 68.390625 5.179688 66.742188 5.570312 C 65.089844 5.960938 63.53125 6.554688 62.0625 7.34375 C 60.691406 8.078125 59.457031 8.949219 58.363281 9.953125 L 50.113281 17.519531 L 49.886719 17.734375 C 49.566406 18.039062 49.261719 18.355469 48.964844 18.683594 L 54.058594 6.292969 C 54.082031 6.246094 54.097656 6.191406 54.097656 6.132812 C 54.097656 5.933594 53.9375 5.777344 53.742188 5.777344 L 42.617188 5.777344 C 42.527344 5.777344 42.4375 5.8125 42.375 5.871094 L 34.117188 13.4375 C 34.078125 13.472656 34.046875 13.515625 34.027344 13.566406 L 31.855469 18.90625 L 26.742188 6.027344 C 26.699219 5.882812 26.5625 5.773438 26.398438 5.773438 L 14.214844 5.773438 C 14.171875 5.773438 14.125 5.78125 14.082031 5.800781 C 14.042969 5.816406 14.007812 5.839844 13.976562 5.867188 L 5.722656 13.4375 C 5.617188 13.535156 5.578125 13.695312 5.636719 13.835938 L 19.824219 48.320312 C 19.871094 48.46875 20.003906 48.570312 20.164062 48.570312 L 31.289062 48.570312 C 31.378906 48.570312 31.46875 48.535156 31.53125 48.476562 L 39.78125 40.910156 C 39.816406 40.871094 39.847656 40.828125 39.867188 40.78125 L 44.449219 29.652344 C 44.421875 30.082031 44.410156 30.515625 44.410156 30.957031 C 44.410156 32.710938 44.621094 34.378906 45.035156 35.960938 C 45.453125 37.542969 46.078125 39.035156 46.910156 40.433594 C 47.738281 41.832031 48.734375 43.082031 49.882812 44.175781 C 51.035156 45.269531 52.339844 46.210938 53.808594 47 C 55.277344 47.785156 56.839844 48.378906 58.488281 48.773438 C 60.140625 49.164062 61.882812 49.359375 63.714844 49.359375 C 65.550781 49.359375 67.292969 49.164062 68.941406 48.773438 C 70.59375 48.378906 72.152344 47.785156 73.621094 47 C 74.992188 46.265625 76.222656 45.394531 77.320312 44.390625 L 85.570312 36.824219 L 85.800781 36.609375 C 86.953125 35.511719 87.941406 34.265625 88.777344 32.863281 C 90.441406 30.0625 91.273438 26.902344 91.273438 23.386719 L 91.269531 23.078125 L 93.242188 23.078125 L 93.242188 48.210938 C 93.242188 48.40625 93.402344 48.566406 93.597656 48.566406 L 104.917969 48.566406 C 105.011719 48.566406 105.09375 48.53125 105.160156 48.472656 L 113.410156 40.90625 C 113.480469 40.835938 113.523438 40.746094 113.523438 40.640625 L 113.523438 23.078125 C 113.882812 18.5 114.292969 17.964844 115.199219 16.824219 C 116.074219 15.722656 117.460938 13.769531 117.234375 20.753906 L 117.3125 48.210938 C 117.3125 48.40625 117.476562 48.566406 117.671875 48.566406 L 124.167969 48.566406 L 130.320312 37.335938 Z M 64.808594 22.765625 C 65.089844 22.804688 65.363281 22.863281 65.628906 22.9375 C 66.230469 23.105469 66.800781 23.359375 67.339844 23.695312 C 67.878906 24.03125 68.359375 24.433594 68.792969 24.914062 C 69.222656 25.390625 69.601562 25.941406 69.921875 26.5625 C 70.566406 27.808594 70.886719 29.273438 70.886719 30.960938 C 70.886719 31.175781 70.882812 31.378906 70.871094 31.585938 C 70.589844 31.546875 70.316406 31.488281 70.050781 31.410156 C 69.449219 31.246094 68.878906 30.992188 68.339844 30.65625 C 67.800781 30.320312 67.320312 29.917969 66.886719 29.4375 C 66.457031 28.957031 66.078125 28.410156 65.757812 27.789062 C 65.113281 26.542969 64.792969 25.074219 64.792969 23.390625 C 64.792969 23.175781 64.796875 22.964844 64.808594 22.765625 Z M 58.875 10.519531 L 50.628906 18.085938 L 50.414062 18.292969 C 50.113281 18.574219 49.820312 18.878906 49.535156 19.195312 L 46.566406 22.492188 L 53.132812 6.535156 L 42.773438 6.535156 L 34.707031 13.9375 L 31.851562 20.957031 L 26.121094 6.535156 L 14.378906 6.535156 L 6.453125 13.808594 L 20.4375 47.804688 L 31.128906 47.804688 L 39.199219 40.40625 L 45.503906 25.089844 L 45.21875 29.699219 C 45.203125 29.929688 45.195312 30.136719 45.191406 30.324219 C 45.1875 30.472656 45.183594 30.6875 45.183594 30.960938 C 45.183594 31.808594 45.234375 32.632812 45.332031 33.433594 C 45.433594 34.238281 45.582031 35.015625 45.78125 35.765625 C 45.976562 36.523438 46.226562 37.257812 46.527344 37.96875 C 46.824219 38.679688 47.175781 39.375 47.574219 40.042969 C 47.972656 40.714844 48.410156 41.347656 48.878906 41.941406 C 49.355469 42.539062 49.867188 43.101562 50.417969 43.621094 C 50.972656 44.148438 51.558594 44.632812 52.179688 45.082031 C 52.800781 45.527344 53.464844 45.945312 54.179688 46.324219 C 54.882812 46.703125 55.609375 47.03125 56.355469 47.316406 C 57.097656 47.597656 57.871094 47.835938 58.671875 48.023438 C 59.476562 48.214844 60.292969 48.355469 61.121094 48.453125 C 61.957031 48.546875 62.824219 48.59375 63.71875 48.59375 C 64.613281 48.59375 65.480469 48.546875 66.316406 48.453125 C 67.148438 48.355469 67.96875 48.214844 68.769531 48.023438 C 69.566406 47.835938 70.339844 47.597656 71.085938 47.316406 C 71.828125 47.035156 72.558594 46.703125 73.261719 46.324219 C 73.917969 45.972656 74.542969 45.582031 75.136719 45.167969 C 75.726562 44.753906 76.277344 44.304688 76.800781 43.828125 C 79.621094 41.242188 82.488281 38.671875 85.269531 36.054688 C 85.820312 35.53125 86.332031 34.972656 86.808594 34.375 C 87.277344 33.78125 87.71875 33.144531 88.113281 32.476562 C 88.910156 31.132812 89.507812 29.710938 89.902344 28.199219 C 90.304688 26.6875 90.5 25.085938 90.5 23.390625 L 90.5 23.09375 L 90.492188 22.316406 L 94.007812 22.316406 L 94.007812 47.804688 L 104.761719 47.804688 L 112.761719 40.46875 L 112.761719 23.082031 L 112.765625 23.027344 C 112.945312 20.675781 113.148438 19.351562 113.429688 18.441406 C 113.730469 17.457031 114.097656 16.984375 114.605469 16.347656 L 114.679688 16.253906 C 115.160156 15.648438 115.734375 14.921875 116.492188 14.949219 C 117.433594 14.980469 118.152344 16.257812 118.007812 20.777344 L 118.085938 47.800781 L 123.722656 47.800781 L 129.566406 37.140625 L 130.007812 6.539062 L 126.085938 6.539062 L 122.59375 9.742188 L 122.59375 6.539062 L 92.175781 6.539062 L 86.375 11.855469 L 85.855469 11.308594 L 85.5625 11.007812 L 85.265625 10.71875 C 84.710938 10.195312 84.125 9.707031 83.503906 9.261719 C 82.882812 8.8125 82.21875 8.398438 81.503906 8.019531 C 80.800781 7.640625 80.070312 7.3125 79.328125 7.027344 C 78.585938 6.746094 77.8125 6.507812 77.011719 6.316406 C 76.210938 6.128906 75.390625 5.984375 74.5625 5.890625 C 73.726562 5.796875 72.859375 5.75 71.964844 5.75 C 71.066406 5.75 70.203125 5.796875 69.367188 5.890625 C 68.535156 5.984375 67.714844 6.128906 66.914062 6.316406 C 66.117188 6.507812 65.34375 6.746094 64.597656 7.027344 C 63.855469 7.308594 63.125 7.640625 62.421875 8.019531 C 61.765625 8.371094 61.136719 8.757812 60.546875 9.171875 C 59.957031 9.59375 59.398438 10.039062 58.875 10.519531 Z M 131.53125 6.539062 L 131.085938 37.539062 L 125.460938 47.796875 L 145.433594 47.796875 L 153.429688 40.460938 L 153.429688 32.273438 L 145.253906 32.273438 L 150.835938 27.152344 L 150.835938 19.359375 L 147.757812 19.359375 L 152.804688 14.726562 L 152.804688 6.539062 Z M 14.214844 6.539062 L 14.226562 6.539062 Z M 64.914062 22.003906 C 65.066406 22.023438 65.21875 22.058594 65.378906 22.089844 L 65.382812 22.089844 C 65.527344 22.121094 65.675781 22.15625 65.835938 22.199219 C 66.179688 22.292969 66.503906 22.414062 66.816406 22.546875 C 67.132812 22.6875 67.445312 22.851562 67.746094 23.039062 C 68.046875 23.222656 68.332031 23.429688 68.601562 23.65625 C 68.871094 23.878906 69.128906 24.128906 69.367188 24.390625 C 69.605469 24.65625 69.824219 24.941406 70.035156 25.246094 C 70.242188 25.542969 70.429688 25.867188 70.605469 26.207031 C 70.957031 26.890625 71.222656 27.632812 71.402344 28.429688 C 71.574219 29.214844 71.664062 30.058594 71.664062 30.953125 C 71.664062 31.144531 71.65625 31.367188 71.644531 31.613281 L 71.601562 32.460938 L 70.769531 32.335938 C 70.625 32.316406 70.46875 32.289062 70.308594 32.253906 C 70.15625 32.222656 70.007812 32.1875 69.855469 32.144531 C 69.511719 32.046875 69.183594 31.929688 68.871094 31.796875 C 68.554688 31.65625 68.246094 31.492188 67.945312 31.304688 C 67.644531 31.117188 67.359375 30.910156 67.089844 30.683594 C 66.820312 30.457031 66.5625 30.210938 66.324219 29.949219 C 66.085938 29.683594 65.867188 29.398438 65.65625 29.09375 C 65.449219 28.796875 65.261719 28.476562 65.085938 28.132812 C 64.734375 27.449219 64.46875 26.707031 64.289062 25.910156 C 64.117188 25.121094 64.027344 24.28125 64.027344 23.386719 C 64.027344 23.191406 64.035156 22.96875 64.046875 22.726562 L 64.089844 21.882812 Z M 64.914062 22.003906 " fill-opacity="1" fill-rule="evenodd"/><path fill="#4447ff" d="M 154.199219 31.867188 L 154.199219 40.644531 C 154.199219 40.746094 154.15625 40.839844 154.085938 40.910156 L 145.832031 48.476562 C 145.769531 48.535156 145.683594 48.570312 145.589844 48.570312 L 117.675781 48.570312 C 117.65625 48.570312 117.640625 48.570312 117.628906 48.566406 L 117.621094 48.25 L 125.929688 39.972656 L 133.863281 10.550781 L 153.582031 10.65625 L 153.582031 14.90625 C 153.582031 15.007812 153.539062 15.101562 153.464844 15.171875 L 149.738281 18.589844 L 151.257812 18.589844 C 151.457031 18.589844 151.617188 18.753906 151.617188 18.953125 L 151.617188 27.332031 C 151.617188 27.4375 151.574219 27.53125 151.503906 27.597656 L 147.234375 31.515625 L 153.851562 31.515625 C 154.035156 31.511719 154.199219 31.667969 154.199219 31.867188 Z M 93.628906 48.332031 C 93.6875 48.410156 93.75 48.492188 93.816406 48.570312 L 104.917969 48.570312 C 105.011719 48.570312 105.09375 48.535156 105.160156 48.476562 L 113.410156 40.910156 C 113.480469 40.839844 113.523438 40.75 113.523438 40.644531 L 113.523438 38.996094 L 102.019531 40.097656 Z M 93.640625 23.082031 L 102.417969 15.238281 C 102.417969 15.238281 102.824219 13.597656 104.777344 10.480469 C 101.519531 9.050781 96.902344 10.390625 91.65625 14.933594 L 79.652344 27.421875 L 86.4375 30.007812 L 91.199219 25.15625 C 91.246094 24.578125 91.269531 23.988281 91.269531 23.386719 C 91.269531 23.28125 91.269531 23.179688 91.265625 23.078125 L 93.640625 23.078125 Z M 112.875 14.917969 L 107.660156 29.992188 L 112.421875 25.140625 C 112.46875 24.558594 112.492188 23.972656 112.492188 23.371094 C 112.492188 23.265625 112.492188 23.164062 112.488281 23.0625 L 114.863281 23.0625 L 123.265625 15.386719 C 114.410156 10.234375 124.582031 4.789062 112.875 14.917969 Z M 64.535156 32.492188 L 67.246094 29.800781 C 67.125 29.683594 67.007812 29.558594 66.890625 29.433594 C 66.460938 28.953125 66.082031 28.40625 65.761719 27.785156 C 65.117188 26.539062 64.796875 25.070312 64.796875 23.386719 C 64.796875 23.175781 64.800781 22.964844 64.8125 22.761719 C 65.09375 22.800781 65.367188 22.859375 65.632812 22.933594 C 66.234375 23.101562 66.804688 23.355469 67.34375 23.691406 C 67.882812 24.027344 68.363281 24.429688 68.796875 24.910156 C 69.226562 25.386719 69.605469 25.9375 69.925781 26.558594 C 69.992188 26.6875 70.054688 26.824219 70.117188 26.957031 L 86.417969 10.785156 C 86.222656 10.574219 86.015625 10.367188 85.804688 10.167969 C 84.65625 9.070312 83.347656 8.128906 81.878906 7.34375 C 80.410156 6.554688 78.847656 5.960938 77.199219 5.570312 C 75.546875 5.179688 73.804688 4.980469 71.972656 4.980469 C 70.136719 4.980469 68.394531 5.179688 66.746094 5.570312 C 65.546875 5.855469 64.390625 6.246094 63.285156 6.742188 C 61.980469 19.976562 61.707031 29.246094 62.460938 34.554688 L 51.445312 45.484375 C 52.183594 46.039062 52.972656 46.539062 53.816406 46.992188 C 55.285156 47.777344 56.847656 48.371094 58.496094 48.765625 C 60.148438 49.15625 61.890625 49.351562 63.722656 49.351562 C 65.558594 49.351562 67.300781 49.15625 68.949219 48.765625 C 70.601562 48.371094 72.160156 47.777344 73.628906 46.992188 C 75 46.257812 76.230469 45.386719 77.328125 44.382812 L 85.578125 36.8125 C 85.65625 36.742188 85.734375 36.671875 85.808594 36.601562 C 86.082031 36.34375 86.34375 36.074219 86.597656 35.796875 C 78.820312 37.296875 71.46875 36.195312 64.535156 32.492188 Z M 28.058594 40.308594 L 20.191406 48.113281 L 19.941406 48.496094 C 20 48.542969 20.082031 48.570312 20.164062 48.570312 L 31.289062 48.570312 C 31.378906 48.570312 31.46875 48.535156 31.53125 48.476562 L 39.78125 40.910156 C 39.816406 40.871094 39.847656 40.828125 39.867188 40.78125 L 40.1875 40.015625 L 34.566406 35.464844 Z M 28.058594 40.308594 " fill-opacity="1" fill-rule="evenodd"/><path fill="#000000" d="M 153.839844 31.511719 L 147.222656 31.511719 L 151.492188 27.59375 C 151.5625 27.527344 151.605469 27.4375 151.605469 27.328125 L 151.605469 18.953125 C 151.605469 18.753906 151.441406 18.589844 151.246094 18.589844 L 149.726562 18.589844 L 153.453125 15.171875 C 153.527344 15.101562 153.570312 15.011719 153.570312 14.90625 L 153.570312 10.660156 L 133.851562 10.554688 L 125.917969 39.976562 L 117.609375 48.253906 L 117.617188 48.570312 L 117.664062 48.574219 L 145.578125 48.574219 C 145.675781 48.574219 145.757812 48.539062 145.820312 48.480469 L 154.074219 40.914062 C 154.144531 40.84375 154.1875 40.753906 154.1875 40.648438 L 154.1875 31.867188 C 154.199219 31.667969 154.035156 31.511719 153.839844 31.511719 Z M 153.429688 40.464844 L 145.433594 47.800781 L 119.15625 47.800781 L 126.613281 40.367188 L 134.449219 11.316406 L 152.808594 11.417969 L 152.808594 14.726562 L 147.761719 19.359375 L 150.839844 19.359375 L 150.839844 27.15625 L 145.257812 32.277344 L 153.433594 32.277344 L 153.433594 40.464844 Z M 93.628906 48.332031 C 93.6875 48.410156 93.75 48.492188 93.816406 48.570312 L 104.917969 48.570312 C 105.011719 48.570312 105.09375 48.535156 105.160156 48.476562 L 113.410156 40.910156 C 113.480469 40.839844 113.523438 40.75 113.523438 40.644531 L 113.523438 38.996094 L 102.019531 40.097656 Z M 112.757812 39.839844 L 112.757812 40.46875 L 104.757812 47.804688 L 95.261719 47.804688 L 102.363281 40.835938 Z M 93.640625 23.082031 L 102.417969 15.238281 C 102.417969 15.238281 102.824219 13.597656 104.777344 10.480469 C 101.519531 9.050781 96.902344 10.390625 91.65625 14.933594 L 79.652344 27.421875 L 86.4375 30.007812 L 91.199219 25.15625 C 91.246094 24.578125 91.269531 23.988281 91.269531 23.386719 L 91.265625 23.078125 L 93.640625 23.078125 Z M 90.492188 22.3125 L 90.5 23.089844 L 90.5 23.386719 C 90.5 23.875 90.484375 24.355469 90.453125 24.824219 L 86.246094 29.113281 L 81.007812 27.117188 L 92.183594 15.488281 C 94.664062 13.347656 96.984375 11.945312 99.066406 11.238281 C 100.777344 10.65625 102.3125 10.550781 103.628906 10.890625 C 102.402344 12.972656 101.90625 14.308594 101.746094 14.808594 L 93.351562 22.308594 L 90.492188 22.308594 Z M 112.875 14.917969 L 107.660156 29.992188 L 112.421875 25.140625 C 112.46875 24.558594 112.492188 23.972656 112.492188 23.371094 L 112.488281 23.0625 L 114.863281 23.0625 L 123.265625 15.386719 C 114.410156 10.234375 124.582031 4.789062 112.875 14.917969 Z M 114.570312 22.292969 L 111.714844 22.292969 L 111.726562 23.371094 L 111.722656 23.371094 C 111.722656 23.859375 111.707031 24.339844 111.675781 24.808594 L 109.492188 27.03125 L 113.53125 15.363281 C 116.101562 13.132812 117.597656 11.667969 118.472656 10.800781 C 118.691406 12.019531 119.445312 13.765625 122.011719 15.503906 Z M 64.535156 32.492188 L 67.246094 29.800781 C 67.125 29.683594 67.007812 29.558594 66.890625 29.433594 C 66.460938 28.953125 66.082031 28.40625 65.761719 27.785156 C 65.117188 26.539062 64.796875 25.070312 64.796875 23.386719 C 64.796875 23.175781 64.800781 22.964844 64.8125 22.761719 C 65.09375 22.800781 65.367188 22.859375 65.632812 22.933594 C 66.234375 23.101562 66.804688 23.355469 67.34375 23.691406 C 67.882812 24.027344 68.363281 24.429688 68.796875 24.910156 C 69.226562 25.386719 69.605469 25.9375 69.925781 26.558594 C 69.992188 26.6875 70.054688 26.824219 70.117188 26.957031 L 86.417969 10.785156 C 86.222656 10.574219 86.015625 10.367188 85.804688 10.167969 C 84.65625 9.070312 83.347656 8.128906 81.878906 7.34375 C 80.410156 6.554688 78.847656 5.960938 77.199219 5.570312 C 75.546875 5.179688 73.804688 4.980469 71.972656 4.980469 C 70.136719 4.980469 68.394531 5.179688 66.746094 5.570312 C 65.546875 5.855469 64.390625 6.246094 63.285156 6.742188 C 61.980469 19.976562 61.707031 29.246094 62.460938 34.554688 L 51.445312 45.484375 C 52.183594 46.039062 52.972656 46.539062 53.816406 46.992188 C 55.285156 47.777344 56.847656 48.371094 58.496094 48.765625 C 60.148438 49.15625 61.890625 49.351562 63.722656 49.351562 C 65.558594 49.351562 67.300781 49.15625 68.949219 48.765625 C 70.601562 48.371094 72.160156 47.777344 73.628906 46.992188 C 75 46.257812 76.230469 45.386719 77.328125 44.382812 L 85.578125 36.8125 L 85.808594 36.601562 C 86.082031 36.34375 86.34375 36.074219 86.597656 35.796875 C 78.820312 37.296875 71.46875 36.195312 64.535156 32.492188 Z M 62.859375 23.648438 C 62.996094 19.136719 63.371094 13.679688 63.996094 7.265625 C 64.394531 7.101562 64.800781 6.945312 65.214844 6.804688 C 65.761719 6.617188 66.328125 6.457031 66.914062 6.316406 C 67.714844 6.128906 68.535156 5.984375 69.367188 5.890625 C 70.203125 5.796875 71.070312 5.75 71.964844 5.75 C 72.863281 5.75 73.726562 5.796875 74.5625 5.890625 C 75.390625 5.984375 76.210938 6.128906 77.011719 6.316406 C 77.8125 6.507812 78.582031 6.746094 79.328125 7.027344 C 80.070312 7.308594 80.800781 7.640625 81.503906 8.019531 C 82.214844 8.398438 82.882812 8.8125 83.503906 9.261719 C 84.125 9.707031 84.714844 10.195312 85.265625 10.71875 L 85.324219 10.78125 L 70.308594 25.683594 C 70.21875 25.535156 70.125 25.386719 70.027344 25.25 C 69.816406 24.945312 69.59375 24.660156 69.359375 24.394531 C 69.121094 24.128906 68.867188 23.882812 68.59375 23.660156 C 68.324219 23.433594 68.039062 23.226562 67.738281 23.042969 C 67.4375 22.855469 67.128906 22.691406 66.808594 22.550781 C 66.496094 22.414062 66.167969 22.296875 65.828125 22.203125 C 65.667969 22.160156 65.515625 22.125 65.375 22.09375 L 65.371094 22.09375 C 65.210938 22.0625 65.058594 22.027344 64.90625 22.007812 L 64.078125 21.886719 L 64.035156 22.730469 L 64.015625 23.390625 C 64.015625 24.285156 64.105469 25.125 64.277344 25.914062 C 64.453125 26.707031 64.71875 27.453125 65.074219 28.136719 C 65.25 28.476562 65.441406 28.796875 65.644531 29.097656 C 65.808594 29.34375 65.988281 29.570312 66.171875 29.789062 L 63.027344 32.910156 C 62.804688 30.472656 62.75 27.386719 62.859375 23.648438 Z M 84.300781 36.945312 L 76.796875 43.828125 C 76.273438 44.304688 75.722656 44.753906 75.128906 45.167969 C 74.539062 45.582031 73.914062 45.972656 73.257812 46.324219 C 72.554688 46.703125 71.824219 47.03125 71.082031 47.316406 C 70.339844 47.597656 69.5625 47.835938 68.765625 48.023438 C 67.960938 48.214844 67.144531 48.355469 66.3125 48.453125 C 65.476562 48.546875 64.609375 48.59375 63.714844 48.59375 C 62.820312 48.59375 61.953125 48.546875 61.117188 48.453125 C 60.289062 48.355469 59.46875 48.214844 58.667969 48.023438 C 57.867188 47.835938 57.097656 47.597656 56.351562 47.316406 C 55.605469 47.035156 54.878906 46.703125 54.175781 46.324219 C 53.753906 46.097656 53.363281 45.867188 53 45.636719 L 52.625 45.390625 L 64.683594 33.429688 C 68.070312 35.171875 71.558594 36.316406 75.140625 36.855469 C 78.125 37.304688 81.179688 37.332031 84.300781 36.945312 Z M 28.058594 40.308594 L 20.191406 48.113281 L 19.941406 48.496094 C 20 48.542969 20.082031 48.570312 20.164062 48.570312 L 31.289062 48.570312 C 31.378906 48.570312 31.46875 48.535156 31.53125 48.476562 L 39.78125 40.910156 C 39.816406 40.871094 39.847656 40.828125 39.867188 40.78125 L 40.1875 40.015625 L 34.566406 35.464844 Z M 39.199219 40.402344 L 31.128906 47.800781 L 21.59375 47.800781 L 28.566406 40.882812 L 34.550781 36.429688 L 39.261719 40.246094 Z M 39.199219 40.402344 " fill-opacity="1" fill-rule="evenodd"/><path fill="#ffcb00" d="M 53.738281 6.132812 L 39.539062 40.644531 L 28.414062 40.644531 L 14.214844 6.132812 L 26.398438 6.132812 L 34.410156 26.296875 L 42.613281 6.132812 Z M 71.964844 41.433594 C 68.347656 41.433594 65.105469 40.664062 62.226562 39.117188 C 59.347656 37.570312 57.097656 35.425781 55.464844 32.679688 C 53.832031 29.9375 53.019531 26.839844 53.019531 23.386719 C 53.019531 19.933594 53.832031 16.835938 55.464844 14.089844 C 57.097656 11.34375 59.347656 9.203125 62.226562 7.65625 C 65.105469 6.109375 68.351562 5.335938 71.964844 5.335938 C 75.578125 5.335938 78.820312 6.109375 81.699219 7.65625 C 84.578125 9.203125 86.832031 11.34375 88.460938 14.089844 C 90.09375 16.835938 90.910156 19.933594 90.910156 23.386719 C 90.910156 26.839844 90.09375 29.9375 88.460938 32.679688 C 86.832031 35.425781 84.578125 37.570312 81.699219 39.117188 C 78.824219 40.660156 75.578125 41.433594 71.964844 41.433594 Z M 71.964844 32.015625 C 73.367188 32.015625 74.640625 31.664062 75.777344 30.957031 C 76.914062 30.25 77.816406 29.246094 78.484375 27.949219 C 79.15625 26.652344 79.488281 25.128906 79.488281 23.390625 C 79.488281 21.648438 79.152344 20.125 78.484375 18.828125 C 77.8125 17.53125 76.910156 16.527344 75.777344 15.824219 C 74.640625 15.113281 73.367188 14.761719 71.964844 14.761719 C 70.558594 14.761719 69.285156 15.113281 68.152344 15.824219 C 67.015625 16.53125 66.113281 17.53125 65.441406 18.828125 C 64.769531 20.125 64.4375 21.648438 64.4375 23.390625 C 64.4375 25.128906 64.773438 26.652344 65.441406 27.949219 C 66.117188 29.246094 67.019531 30.253906 68.152344 30.957031 C 69.285156 31.660156 70.558594 32.015625 71.964844 32.015625 Z M 101.847656 15.15625 L 92.015625 15.15625 L 92.015625 6.132812 L 123.003906 6.132812 L 123.003906 15.15625 L 113.171875 15.15625 L 113.171875 40.644531 L 101.851562 40.644531 L 101.851562 15.15625 Z M 153.839844 31.867188 L 153.839844 40.644531 L 125.921875 40.644531 L 125.921875 6.132812 L 153.214844 6.132812 L 153.214844 14.910156 L 137.046875 14.910156 L 137.046875 18.953125 L 151.246094 18.953125 L 151.246094 27.332031 L 137.046875 27.332031 L 137.046875 31.871094 Z M 153.839844 31.867188 " fill-opacity="1" fill-rule="nonzero"/><g clip-path="url(#ed1b6ecaa9)"><path fill="#000000" d="M 158.683594 30.480469 C 158.554688 30.027344 158.355469 29.601562 158.109375 29.203125 C 158.015625 29.042969 157.90625 28.886719 157.785156 28.734375 C 157.664062 28.578125 157.535156 28.433594 157.40625 28.300781 C 157.210938 28.109375 157 27.925781 156.773438 27.769531 C 156.617188 27.65625 156.457031 27.554688 156.289062 27.464844 L 156.292969 27.328125 C 156.292969 24.539062 156.351562 21.6875 156.289062 18.910156 L 156.621094 18.605469 C 156.878906 18.367188 157.113281 18.105469 157.3125 17.824219 C 157.511719 17.542969 157.6875 17.242188 157.820312 16.929688 L 157.976562 16.582031 L 157.957031 16.574219 C 158.035156 16.359375 158.09375 16.140625 158.144531 15.917969 C 158.21875 15.585938 158.257812 15.246094 158.257812 14.90625 L 158.257812 6.132812 C 158.257812 5.65625 158.191406 5.191406 158.058594 4.746094 C 157.929688 4.292969 157.730469 3.863281 157.484375 3.46875 C 157.390625 3.308594 157.28125 3.152344 157.160156 3 C 157.039062 2.84375 156.910156 2.699219 156.78125 2.566406 C 156.316406 2.105469 155.761719 1.730469 155.144531 1.476562 C 154.550781 1.230469 153.898438 1.09375 153.21875 1.09375 L 125.925781 1.09375 C 125.664062 1.09375 125.398438 1.117188 125.136719 1.160156 C 124.914062 1.195312 124.695312 1.246094 124.476562 1.3125 C 124.257812 1.246094 124.035156 1.195312 123.8125 1.160156 C 123.542969 1.117188 123.273438 1.09375 123 1.09375 L 92.011719 1.09375 C 91.703125 1.09375 91.394531 1.125 91.089844 1.183594 C 90.78125 1.242188 90.476562 1.335938 90.183594 1.449219 L 89.832031 1.585938 L 89.839844 1.605469 C 89.667969 1.691406 89.507812 1.777344 89.347656 1.875 C 89.082031 2.042969 88.835938 2.226562 88.613281 2.433594 L 86.277344 4.574219 C 85.953125 4.351562 85.636719 4.140625 85.316406 3.945312 C 84.910156 3.691406 84.503906 3.453125 84.085938 3.234375 C 83.625 2.984375 83.160156 2.753906 82.691406 2.542969 C 82.226562 2.332031 81.742188 2.132812 81.246094 1.941406 C 80.75 1.753906 80.25 1.582031 79.75 1.429688 C 79.246094 1.269531 78.753906 1.136719 78.273438 1.023438 C 77.792969 0.90625 77.289062 0.804688 76.761719 0.714844 C 76.246094 0.625 75.710938 0.550781 75.164062 0.488281 C 74.625 0.429688 74.085938 0.378906 73.550781 0.347656 C 73.007812 0.316406 72.480469 0.300781 71.96875 0.300781 C 71.453125 0.300781 70.925781 0.316406 70.382812 0.347656 C 69.847656 0.378906 69.3125 0.425781 68.773438 0.488281 C 68.222656 0.550781 67.6875 0.625 67.171875 0.714844 C 66.644531 0.804688 66.144531 0.90625 65.660156 1.023438 C 65.328125 1.101562 64.972656 1.195312 64.589844 1.304688 C 64.214844 1.417969 63.84375 1.53125 63.472656 1.660156 C 63.128906 1.777344 62.785156 1.898438 62.441406 2.039062 C 62.105469 2.171875 61.75 2.324219 61.375 2.488281 L 60.941406 2.6875 L 60.597656 2.851562 L 60.25 3.023438 L 60.253906 3.03125 L 59.847656 3.238281 C 59.523438 3.410156 59.203125 3.59375 58.882812 3.78125 C 58.703125 3.890625 58.523438 3.996094 58.355469 4.105469 C 58.265625 3.898438 58.15625 3.691406 58.035156 3.496094 C 57.824219 3.15625 57.578125 2.847656 57.300781 2.570312 C 56.839844 2.109375 56.285156 1.734375 55.667969 1.480469 C 55.074219 1.234375 54.417969 1.097656 53.738281 1.097656 L 53.355469 1.097656 L 53.355469 1.117188 L 42.59375 1.117188 C 42.273438 1.117188 41.960938 1.148438 41.664062 1.203125 C 41.355469 1.257812 41.0625 1.347656 40.78125 1.453125 L 40.425781 1.589844 L 40.433594 1.609375 C 40.265625 1.691406 40.101562 1.78125 39.945312 1.878906 C 39.679688 2.046875 39.429688 2.230469 39.207031 2.4375 L 32.699219 8.398438 L 31.167969 4.542969 C 31.003906 4.050781 30.765625 3.597656 30.46875 3.191406 C 30.167969 2.777344 29.804688 2.410156 29.386719 2.097656 L 29.097656 1.882812 L 29.085938 1.894531 C 28.734375 1.671875 28.355469 1.488281 27.960938 1.355469 C 27.46875 1.183594 26.9375 1.09375 26.398438 1.09375 L 26.015625 1.09375 L 26.015625 1.113281 L 14.601562 1.113281 L 14.601562 1.097656 L 14.214844 1.097656 C 14.121094 1.097656 14.019531 1.101562 13.910156 1.109375 C 13.8125 1.117188 13.710938 1.128906 13.597656 1.140625 L 13.25 1.195312 C 13.085938 1.226562 12.929688 1.265625 12.773438 1.3125 C 12.621094 1.363281 12.46875 1.414062 12.324219 1.472656 L 11.972656 1.613281 L 11.980469 1.636719 C 11.886719 1.6875 11.792969 1.738281 11.703125 1.789062 C 11.574219 1.859375 11.449219 1.9375 11.324219 2.023438 C 11.207031 2.101562 11.089844 2.195312 10.964844 2.296875 C 8.15625 4.660156 5.296875 7.492188 2.558594 10 C 2.183594 10.34375 1.867188 10.746094 1.613281 11.183594 C 1.359375 11.625 1.175781 12.109375 1.058594 12.613281 C 0.949219 13.109375 0.914062 13.625 0.957031 14.128906 C 1 14.625 1.113281 15.117188 1.316406 15.605469 L 15.398438 49.847656 C 15.476562 50.070312 15.566406 50.28125 15.671875 50.492188 C 15.777344 50.699219 15.894531 50.894531 16.027344 51.082031 L 16.242188 51.394531 L 16.265625 51.378906 C 16.347656 51.476562 16.429688 51.570312 16.515625 51.664062 C 16.6875 51.839844 16.871094 52.011719 17.066406 52.164062 C 17.292969 52.34375 17.53125 52.5 17.777344 52.636719 C 18.019531 52.769531 18.269531 52.886719 18.523438 52.972656 L 18.886719 53.097656 L 18.894531 53.070312 C 19.050781 53.109375 19.199219 53.144531 19.351562 53.175781 C 19.628906 53.226562 19.898438 53.25 20.15625 53.25 L 20.539062 53.25 L 20.539062 53.230469 L 30.898438 53.230469 L 30.898438 53.25 L 31.28125 53.25 C 31.585938 53.25 31.894531 53.21875 32.203125 53.160156 C 32.511719 53.097656 32.816406 53.011719 33.113281 52.894531 L 33.484375 52.75 L 33.472656 52.730469 C 33.636719 52.652344 33.796875 52.566406 33.949219 52.472656 C 34.210938 52.3125 34.457031 52.128906 34.675781 51.929688 L 43.226562 44.085938 L 43.210938 44.066406 L 43.339844 43.921875 L 43.476562 43.765625 C 43.601562 43.953125 43.730469 44.140625 43.859375 44.324219 C 44.101562 44.664062 44.351562 45.003906 44.613281 45.328125 C 44.917969 45.710938 45.242188 46.089844 45.589844 46.46875 C 45.9375 46.847656 46.292969 47.214844 46.660156 47.558594 C 46.824219 47.714844 46.988281 47.867188 47.140625 48.003906 C 47.300781 48.148438 47.457031 48.285156 47.617188 48.417969 C 47.757812 48.535156 47.90625 48.660156 48.074219 48.792969 C 48.21875 48.90625 48.40625 49.046875 48.636719 49.222656 C 48.863281 49.398438 49.097656 49.5625 49.335938 49.730469 C 49.570312 49.890625 49.816406 50.054688 50.070312 50.21875 C 50.367188 50.410156 50.632812 50.570312 50.867188 50.710938 C 51.117188 50.859375 51.359375 50.996094 51.589844 51.117188 C 52.042969 51.363281 52.511719 51.59375 52.980469 51.804688 C 53.457031 52.023438 53.941406 52.226562 54.425781 52.40625 C 54.925781 52.597656 55.425781 52.765625 55.925781 52.921875 C 56.429688 53.078125 56.921875 53.214844 57.402344 53.328125 C 57.882812 53.441406 58.386719 53.546875 58.914062 53.636719 C 59.429688 53.722656 59.960938 53.800781 60.511719 53.863281 C 61.050781 53.921875 61.589844 53.96875 62.125 54 C 62.667969 54.03125 63.195312 54.046875 63.703125 54.046875 C 64.214844 54.046875 64.742188 54.03125 65.285156 54 C 65.820312 53.96875 66.355469 53.925781 66.894531 53.863281 C 67.445312 53.800781 67.980469 53.722656 68.496094 53.636719 C 69.023438 53.546875 69.523438 53.441406 70.007812 53.328125 C 70.488281 53.214844 70.980469 53.078125 71.484375 52.921875 C 71.984375 52.765625 72.480469 52.597656 72.980469 52.40625 C 73.46875 52.222656 73.949219 52.023438 74.425781 51.804688 C 74.898438 51.59375 75.359375 51.363281 75.820312 51.117188 C 76.238281 50.890625 76.65625 50.652344 77.066406 50.398438 C 77.480469 50.144531 77.871094 49.882812 78.246094 49.621094 C 78.636719 49.347656 79.019531 49.058594 79.390625 48.761719 C 79.761719 48.464844 80.121094 48.152344 80.46875 47.835938 L 88.542969 40.429688 L 88.542969 48.222656 C 88.542969 48.902344 88.675781 49.554688 88.925781 50.148438 C 89.183594 50.765625 89.554688 51.320312 90.019531 51.78125 L 90.292969 52.054688 L 90.3125 52.035156 C 90.714844 52.382812 91.175781 52.667969 91.667969 52.875 C 92.261719 53.121094 92.914062 53.257812 93.585938 53.257812 L 104.90625 53.257812 C 105.214844 53.257812 105.523438 53.226562 105.828125 53.167969 C 106.136719 53.105469 106.441406 53.015625 106.734375 52.902344 L 107.097656 52.757812 L 107.089844 52.738281 C 107.257812 52.660156 107.414062 52.574219 107.570312 52.476562 C 107.839844 52.3125 108.085938 52.125 108.308594 51.921875 L 112.617188 47.96875 L 112.617188 48.222656 C 112.617188 48.84375 112.734375 49.445312 112.941406 49.996094 C 113.160156 50.570312 113.480469 51.097656 113.878906 51.546875 L 114.132812 51.839844 L 114.152344 51.820312 C 114.375 52.035156 114.617188 52.234375 114.875 52.402344 C 115.230469 52.640625 115.625 52.828125 116.039062 52.972656 C 116.296875 53.066406 116.5625 53.136719 116.835938 53.1875 C 117.105469 53.234375 117.378906 53.257812 117.65625 53.257812 L 145.574219 53.257812 C 145.882812 53.257812 146.191406 53.226562 146.496094 53.167969 C 146.808594 53.105469 147.113281 53.015625 147.40625 52.902344 L 147.757812 52.761719 L 147.75 52.742188 C 147.917969 52.664062 148.082031 52.574219 148.238281 52.472656 C 148.507812 52.308594 148.753906 52.121094 148.980469 51.917969 L 157.230469 44.347656 C 157.484375 44.117188 157.71875 43.855469 157.921875 43.570312 C 158.121094 43.289062 158.296875 42.988281 158.433594 42.675781 L 158.589844 42.328125 L 158.570312 42.320312 C 158.648438 42.105469 158.707031 41.886719 158.761719 41.664062 C 158.832031 41.332031 158.871094 40.992188 158.871094 40.652344 L 158.871094 31.867188 C 158.882812 31.390625 158.8125 30.929688 158.683594 30.480469 Z M 158.113281 40.644531 C 158.113281 40.933594 158.082031 41.222656 158.023438 41.496094 C 157.960938 41.785156 157.871094 42.070312 157.75 42.339844 L 157.625 42.621094 C 157.53125 42.796875 157.429688 42.960938 157.320312 43.117188 C 157.148438 43.351562 156.949219 43.574219 156.734375 43.777344 L 148.480469 51.34375 C 148.292969 51.515625 148.082031 51.675781 147.859375 51.8125 C 147.636719 51.953125 147.398438 52.070312 147.144531 52.167969 L 146.925781 52.257812 C 146.742188 52.316406 146.5625 52.367188 146.375 52.402344 C 146.121094 52.449219 145.859375 52.476562 145.59375 52.476562 L 117.679688 52.476562 C 117.441406 52.476562 117.210938 52.457031 116.988281 52.417969 C 116.757812 52.378906 116.539062 52.316406 116.324219 52.242188 L 116.3125 52.238281 C 115.957031 52.117188 115.625 51.953125 115.316406 51.75 C 115.007812 51.542969 114.726562 51.304688 114.488281 51.03125 L 114.253906 50.761719 C 114.011719 50.441406 113.816406 50.089844 113.675781 49.714844 C 113.539062 49.355469 113.453125 48.980469 113.417969 48.589844 L 113.410156 46.203125 L 107.804688 51.347656 C 107.613281 51.519531 107.402344 51.679688 107.183594 51.816406 C 106.960938 51.957031 106.71875 52.074219 106.464844 52.171875 L 106.246094 52.261719 C 106.066406 52.320312 105.882812 52.371094 105.695312 52.40625 C 105.445312 52.453125 105.183594 52.480469 104.917969 52.480469 L 93.597656 52.480469 C 93.023438 52.480469 92.476562 52.367188 91.972656 52.15625 C 91.453125 51.941406 90.980469 51.621094 90.582031 51.222656 L 90.371094 51.015625 C 90.070312 50.671875 89.824219 50.273438 89.644531 49.847656 C 89.441406 49.34375 89.320312 48.796875 89.320312 48.214844 L 89.320312 38.628906 L 88.355469 39.558594 L 87.925781 39.9375 L 87.933594 39.945312 L 79.960938 47.261719 C 79.625 47.570312 79.277344 47.871094 78.925781 48.15625 C 78.566406 48.441406 78.199219 48.71875 77.820312 48.984375 C 77.441406 49.25 77.0625 49.503906 76.679688 49.738281 C 76.292969 49.972656 75.890625 50.207031 75.46875 50.433594 C 75.03125 50.667969 74.585938 50.886719 74.121094 51.101562 C 73.667969 51.308594 73.203125 51.5 72.722656 51.683594 C 72.234375 51.867188 71.75 52.035156 71.269531 52.179688 C 70.800781 52.328125 70.324219 52.457031 69.839844 52.574219 C 69.363281 52.6875 68.875 52.785156 68.378906 52.871094 C 67.878906 52.957031 67.355469 53.027344 66.824219 53.089844 C 66.292969 53.152344 65.769531 53.195312 65.253906 53.226562 C 64.746094 53.253906 64.230469 53.269531 63.710938 53.269531 C 63.195312 53.269531 62.679688 53.253906 62.171875 53.226562 C 61.65625 53.199219 61.132812 53.152344 60.601562 53.089844 C 60.070312 53.03125 59.546875 52.957031 59.042969 52.871094 C 58.546875 52.785156 58.058594 52.683594 57.578125 52.574219 C 57.097656 52.457031 56.617188 52.328125 56.148438 52.179688 C 55.671875 52.035156 55.1875 51.863281 54.695312 51.683594 C 54.21875 51.5 53.75 51.308594 53.296875 51.101562 C 52.835938 50.890625 52.386719 50.671875 51.949219 50.4375 C 51.734375 50.324219 51.5 50.191406 51.257812 50.046875 C 50.996094 49.890625 50.734375 49.730469 50.480469 49.570312 C 50.242188 49.421875 50.003906 49.261719 49.765625 49.097656 C 49.535156 48.933594 49.308594 48.773438 49.089844 48.609375 C 48.910156 48.476562 48.730469 48.335938 48.539062 48.1875 C 48.375 48.054688 48.226562 47.9375 48.105469 47.835938 C 47.953125 47.707031 47.804688 47.574219 47.644531 47.433594 C 47.488281 47.292969 47.332031 47.144531 47.179688 47.003906 C 46.8125 46.65625 46.46875 46.308594 46.144531 45.957031 C 45.824219 45.601562 45.507812 45.234375 45.203125 44.851562 C 44.953125 44.539062 44.710938 44.214844 44.476562 43.886719 C 44.242188 43.558594 44.019531 43.222656 43.804688 42.878906 L 43.480469 42.363281 C 43.328125 42.601562 43.183594 42.839844 43.027344 43.070312 C 42.949219 43.1875 42.859375 43.304688 42.75 43.421875 C 42.640625 43.546875 42.527344 43.660156 42.414062 43.769531 L 42.117188 44.035156 L 42.128906 44.050781 L 34.160156 51.363281 C 33.972656 51.53125 33.765625 51.6875 33.550781 51.820312 C 33.332031 51.957031 33.089844 52.074219 32.835938 52.171875 L 32.628906 52.257812 C 32.441406 52.320312 32.253906 52.367188 32.066406 52.402344 C 31.921875 52.429688 31.78125 52.449219 31.636719 52.460938 L 19.828125 52.460938 C 19.714844 52.449219 19.601562 52.4375 19.488281 52.417969 C 19.257812 52.375 19.019531 52.3125 18.78125 52.234375 L 18.460938 52.121094 C 18.355469 52.074219 18.25 52.023438 18.148438 51.96875 C 17.941406 51.851562 17.738281 51.71875 17.542969 51.5625 C 17.378906 51.4375 17.222656 51.296875 17.078125 51.140625 C 16.933594 50.984375 16.792969 50.816406 16.675781 50.648438 L 16.46875 50.351562 L 16.363281 50.148438 C 16.273438 49.976562 16.199219 49.792969 16.132812 49.597656 L 2.027344 15.316406 C 1.859375 14.910156 1.761719 14.488281 1.722656 14.070312 C 1.6875 13.632812 1.714844 13.195312 1.8125 12.78125 C 1.90625 12.355469 2.066406 11.941406 2.28125 11.5625 C 2.496094 11.191406 2.761719 10.851562 3.078125 10.5625 C 5.835938 8.035156 8.640625 5.300781 11.460938 2.875 C 11.550781 2.800781 11.652344 2.722656 11.761719 2.652344 C 11.863281 2.578125 11.972656 2.511719 12.082031 2.453125 L 12.089844 2.449219 C 12.175781 2.398438 12.261719 2.355469 12.34375 2.3125 C 12.433594 2.265625 12.519531 2.226562 12.589844 2.199219 L 12.925781 2.070312 L 12.992188 2.050781 C 13.125 2.011719 13.257812 1.980469 13.398438 1.949219 L 13.539062 1.921875 L 13.691406 1.902344 C 13.777344 1.890625 13.867188 1.882812 13.957031 1.875 L 14.039062 1.871094 C 18.207031 2.007812 22.566406 1.875 26.753906 1.875 C 27.089844 1.902344 27.414062 1.976562 27.722656 2.078125 C 28.15625 2.222656 28.566406 2.441406 28.933594 2.714844 L 29.074219 2.820312 C 29.367188 3.058594 29.628906 3.335938 29.851562 3.640625 C 30.105469 3.992188 30.308594 4.378906 30.445312 4.792969 C 31.035156 6.421875 31.757812 8.089844 32.398438 9.707031 L 39.722656 2.996094 C 39.914062 2.816406 40.121094 2.664062 40.34375 2.523438 C 40.566406 2.386719 40.808594 2.265625 41.0625 2.167969 L 41.257812 2.089844 C 41.433594 2.03125 41.613281 1.988281 41.800781 1.949219 C 42.058594 1.902344 42.328125 1.875 42.597656 1.875 L 54.105469 1.875 C 54.554688 1.914062 54.976562 2.019531 55.375 2.183594 C 55.894531 2.402344 56.367188 2.71875 56.761719 3.113281 C 57 3.351562 57.210938 3.617188 57.386719 3.898438 C 57.558594 4.183594 57.703125 4.484375 57.804688 4.800781 L 57.964844 5.277344 L 58.382812 5 C 58.679688 4.804688 58.980469 4.613281 59.28125 4.433594 C 59.582031 4.257812 59.894531 4.078125 60.214844 3.90625 C 60.574219 3.722656 60.933594 3.550781 61.289062 3.367188 L 61.695312 3.179688 C 62.035156 3.03125 62.378906 2.882812 62.730469 2.746094 C 63.074219 2.613281 63.40625 2.488281 63.726562 2.378906 C 64.109375 2.25 64.46875 2.136719 64.8125 2.039062 C 65.144531 1.941406 65.492188 1.847656 65.847656 1.765625 C 66.324219 1.652344 66.8125 1.550781 67.3125 1.46875 C 67.8125 1.382812 68.335938 1.308594 68.867188 1.246094 C 69.398438 1.1875 69.921875 1.140625 70.433594 1.113281 C 70.941406 1.085938 71.457031 1.070312 71.976562 1.070312 C 72.492188 1.070312 73.007812 1.085938 73.515625 1.113281 C 74.03125 1.140625 74.554688 1.1875 75.082031 1.246094 C 75.613281 1.304688 76.136719 1.382812 76.640625 1.46875 C 77.136719 1.554688 77.625 1.65625 78.105469 1.765625 C 78.585938 1.878906 79.066406 2.011719 79.535156 2.15625 C 80.011719 2.304688 80.496094 2.46875 80.988281 2.65625 C 81.457031 2.832031 81.925781 3.027344 82.382812 3.238281 C 82.851562 3.449219 83.300781 3.671875 83.730469 3.902344 C 84.128906 4.113281 84.527344 4.34375 84.921875 4.589844 C 85.332031 4.84375 85.722656 5.101562 86.097656 5.367188 L 86.351562 5.546875 L 89.140625 2.988281 C 89.328125 2.808594 89.539062 2.65625 89.761719 2.515625 C 89.980469 2.378906 90.222656 2.257812 90.476562 2.160156 L 90.699219 2.074219 C 90.882812 2.015625 91.0625 1.96875 91.25 1.925781 C 91.503906 1.878906 91.765625 1.851562 92.03125 1.851562 L 123.015625 1.851562 C 123.253906 1.851562 123.480469 1.871094 123.703125 1.90625 C 123.933594 1.941406 124.15625 2 124.371094 2.074219 L 124.488281 2.113281 L 124.609375 2.074219 C 124.828125 2.003906 125.050781 1.945312 125.277344 1.90625 C 125.488281 1.871094 125.714844 1.851562 125.941406 1.851562 L 153.234375 1.851562 C 153.8125 1.851562 154.367188 1.96875 154.867188 2.175781 C 155.390625 2.394531 155.863281 2.710938 156.257812 3.105469 C 156.375 3.226562 156.484375 3.347656 156.578125 3.464844 C 156.675781 3.59375 156.769531 3.722656 156.851562 3.863281 L 156.855469 3.871094 C 157.070312 4.207031 157.234375 4.570312 157.347656 4.953125 C 157.453125 5.324219 157.511719 5.714844 157.511719 6.125 L 157.511719 14.902344 C 157.511719 15.191406 157.480469 15.480469 157.421875 15.753906 C 157.359375 16.042969 157.265625 16.324219 157.148438 16.59375 L 157.007812 16.90625 C 156.917969 17.070312 156.820312 17.226562 156.714844 17.375 C 156.539062 17.613281 156.34375 17.835938 156.128906 18.035156 L 155.542969 18.570312 L 155.550781 18.941406 L 155.550781 27.320312 L 155.546875 27.488281 L 155.511719 27.910156 L 155.746094 28.027344 C 155.957031 28.128906 156.160156 28.25 156.347656 28.386719 C 156.539062 28.519531 156.722656 28.675781 156.882812 28.839844 C 157.003906 28.957031 157.109375 29.082031 157.203125 29.199219 C 157.304688 29.328125 157.394531 29.457031 157.476562 29.597656 L 157.480469 29.605469 C 157.695312 29.941406 157.863281 30.304688 157.972656 30.6875 C 158.078125 31.058594 158.136719 31.449219 158.136719 31.859375 L 158.136719 40.644531 Z M 71.964844 41.816406 Z M 54.078125 6.304688 C 54.105469 6.253906 54.121094 6.195312 54.121094 6.132812 C 54.121094 5.917969 53.953125 5.75 53.738281 5.75 L 42.609375 5.75 C 42.457031 5.75 42.3125 5.839844 42.253906 5.984375 L 34.414062 25.269531 L 26.765625 6.019531 C 26.71875 5.863281 26.574219 5.746094 26.398438 5.746094 L 14.214844 5.746094 C 14.167969 5.746094 14.117188 5.753906 14.070312 5.773438 C 13.875 5.851562 13.78125 6.078125 13.859375 6.269531 L 28.046875 40.753906 C 28.09375 40.910156 28.242188 41.023438 28.414062 41.023438 L 39.539062 41.023438 C 39.691406 41.023438 39.832031 40.933594 39.894531 40.785156 Z M 39.28125 40.257812 L 28.667969 40.257812 L 14.785156 6.515625 L 26.136719 6.515625 L 34.050781 26.4375 C 34.132812 26.636719 34.355469 26.730469 34.546875 26.652344 C 34.652344 26.613281 34.722656 26.535156 34.761719 26.441406 L 42.871094 6.515625 L 53.167969 6.515625 Z M 123 5.75 L 92.011719 5.75 C 91.800781 5.75 91.628906 5.917969 91.628906 6.132812 L 91.628906 15.15625 C 91.628906 15.367188 91.800781 15.539062 92.011719 15.539062 L 101.460938 15.539062 L 101.460938 40.644531 C 101.460938 40.855469 101.628906 41.027344 101.84375 41.027344 L 113.164062 41.027344 C 113.378906 41.027344 113.546875 40.855469 113.546875 40.644531 L 113.546875 15.539062 L 122.996094 15.539062 C 123.210938 15.539062 123.378906 15.367188 123.378906 15.15625 L 123.378906 6.132812 C 123.382812 5.917969 123.210938 5.75 123 5.75 Z M 122.617188 14.769531 L 113.167969 14.769531 C 112.953125 14.769531 112.785156 14.941406 112.785156 15.15625 L 112.785156 40.257812 L 102.234375 40.257812 L 102.234375 15.15625 C 102.234375 14.941406 102.0625 14.769531 101.847656 14.769531 L 92.402344 14.769531 L 92.402344 6.515625 L 122.621094 6.515625 L 122.621094 14.769531 Z M 88.792969 13.902344 C 87.964844 12.496094 86.96875 11.246094 85.8125 10.152344 C 84.660156 9.054688 83.351562 8.113281 81.882812 7.324219 C 80.414062 6.535156 78.847656 5.941406 77.199219 5.550781 C 75.546875 5.160156 73.800781 4.960938 71.964844 4.960938 C 70.125 4.960938 68.382812 5.160156 66.730469 5.550781 C 65.074219 5.941406 63.515625 6.535156 62.046875 7.328125 C 60.578125 8.113281 59.265625 9.058594 58.113281 10.15625 C 56.960938 11.25 55.96875 12.5 55.132812 13.90625 C 54.300781 15.304688 53.675781 16.800781 53.253906 18.382812 C 52.839844 19.964844 52.628906 21.632812 52.628906 23.390625 C 52.628906 25.144531 52.839844 26.816406 53.253906 28.398438 C 53.671875 29.980469 54.296875 31.472656 55.132812 32.875 C 55.964844 34.277344 56.957031 35.527344 58.113281 36.625 C 59.265625 37.71875 60.578125 38.660156 62.046875 39.453125 C 63.515625 40.238281 65.078125 40.832031 66.730469 41.226562 C 68.378906 41.617188 70.125 41.8125 71.964844 41.8125 C 73.800781 41.8125 75.546875 41.617188 77.199219 41.226562 C 78.851562 40.832031 80.414062 40.238281 81.882812 39.453125 C 83.351562 38.664062 84.660156 37.71875 85.8125 36.625 C 86.964844 35.527344 87.960938 34.277344 88.792969 32.875 C 89.625 31.472656 90.25 29.980469 90.671875 28.398438 C 91.085938 26.816406 91.296875 25.144531 91.296875 23.390625 C 91.296875 21.632812 91.085938 19.964844 90.671875 18.382812 C 90.25 16.796875 89.625 15.300781 88.792969 13.902344 Z M 89.925781 28.203125 C 89.527344 29.71875 88.929688 31.144531 88.132812 32.488281 C 87.335938 33.828125 86.386719 35.023438 85.285156 36.070312 C 84.1875 37.117188 82.925781 38.019531 81.519531 38.777344 C 80.113281 39.53125 78.613281 40.097656 77.023438 40.476562 C 75.433594 40.855469 73.746094 41.046875 71.96875 41.046875 C 70.191406 41.046875 68.507812 40.855469 66.910156 40.476562 C 65.320312 40.097656 63.820312 39.53125 62.414062 38.777344 C 61.003906 38.019531 59.75 37.117188 58.648438 36.070312 C 57.546875 35.023438 56.597656 33.828125 55.800781 32.488281 C 55.003906 31.144531 54.402344 29.71875 54.007812 28.203125 C 53.609375 26.6875 53.410156 25.082031 53.410156 23.390625 C 53.410156 21.695312 53.609375 20.089844 54.007812 18.574219 C 54.40625 17.0625 55.003906 15.632812 55.800781 14.292969 C 56.597656 12.953125 57.546875 11.757812 58.648438 10.707031 C 59.75 9.660156 61.003906 8.757812 62.414062 8.003906 C 63.824219 7.246094 65.320312 6.679688 66.910156 6.300781 C 68.503906 5.921875 70.191406 5.734375 71.96875 5.734375 C 73.746094 5.734375 75.433594 5.921875 77.023438 6.300781 C 78.613281 6.683594 80.117188 7.246094 81.519531 8.003906 C 82.929688 8.757812 84.1875 9.660156 85.285156 10.707031 C 86.386719 11.757812 87.335938 12.953125 88.132812 14.292969 C 88.929688 15.632812 89.527344 17.0625 89.925781 18.574219 C 90.328125 20.089844 90.523438 21.695312 90.523438 23.390625 C 90.523438 25.082031 90.328125 26.6875 89.925781 28.203125 Z M 153.839844 31.484375 L 137.433594 31.484375 L 137.433594 27.71875 L 151.25 27.71875 C 151.464844 27.71875 151.632812 27.546875 151.632812 27.332031 L 151.632812 18.953125 C 151.632812 18.738281 151.464844 18.566406 151.25 18.566406 L 137.433594 18.566406 L 137.433594 15.292969 L 153.21875 15.292969 C 153.429688 15.292969 153.601562 15.121094 153.601562 14.910156 L 153.601562 6.132812 C 153.601562 5.917969 153.429688 5.75 153.21875 5.75 L 125.925781 5.75 C 125.710938 5.75 125.542969 5.917969 125.542969 6.132812 L 125.542969 40.644531 C 125.542969 40.855469 125.710938 41.027344 125.925781 41.027344 L 153.84375 41.027344 C 154.054688 41.027344 154.226562 40.855469 154.226562 40.644531 L 154.226562 31.867188 C 154.222656 31.65625 154.050781 31.484375 153.839844 31.484375 Z M 126.308594 40.257812 L 126.308594 6.515625 L 152.832031 6.515625 L 152.832031 14.527344 L 137.050781 14.527344 C 136.835938 14.527344 136.667969 14.695312 136.667969 14.910156 L 136.667969 18.953125 C 136.667969 19.164062 136.835938 19.335938 137.050781 19.335938 L 150.863281 19.335938 L 150.863281 26.949219 L 137.050781 26.949219 C 136.835938 26.949219 136.667969 27.121094 136.667969 27.332031 L 136.667969 31.871094 C 136.667969 32.082031 136.835938 32.253906 137.050781 32.253906 L 153.453125 32.253906 L 153.453125 40.261719 L 126.308594 40.261719 Z M 78.828125 18.652344 C 78.476562 17.96875 78.066406 17.371094 77.59375 16.84375 C 77.117188 16.316406 76.578125 15.867188 75.980469 15.496094 C 75.382812 15.121094 74.75 14.84375 74.078125 14.65625 C 73.40625 14.46875 72.703125 14.375 71.96875 14.375 C 71.230469 14.375 70.53125 14.46875 69.855469 14.65625 C 69.183594 14.84375 68.550781 15.121094 67.953125 15.496094 C 67.355469 15.867188 66.816406 16.316406 66.339844 16.84375 C 65.871094 17.371094 65.453125 17.96875 65.105469 18.652344 C 64.757812 19.328125 64.492188 20.0625 64.316406 20.859375 C 64.144531 21.648438 64.054688 22.492188 64.054688 23.386719 C 64.054688 24.28125 64.144531 25.121094 64.316406 25.914062 C 64.492188 26.707031 64.757812 27.445312 65.105469 28.121094 C 65.457031 28.800781 65.871094 29.402344 66.339844 29.929688 C 66.816406 30.453125 67.355469 30.90625 67.953125 31.277344 C 68.550781 31.648438 69.183594 31.929688 69.855469 32.117188 C 70.53125 32.300781 71.230469 32.394531 71.96875 32.394531 C 73.449219 32.394531 74.785156 32.023438 75.980469 31.277344 C 76.578125 30.90625 77.117188 30.453125 77.59375 29.929688 C 78.066406 29.402344 78.480469 28.800781 78.828125 28.121094 C 79.175781 27.445312 79.441406 26.707031 79.617188 25.914062 C 79.789062 25.121094 79.878906 24.28125 79.878906 23.386719 C 79.878906 22.492188 79.789062 21.648438 79.617188 20.859375 C 79.441406 20.0625 79.175781 19.328125 78.828125 18.652344 Z M 78.867188 25.75 C 78.710938 26.480469 78.46875 27.152344 78.148438 27.773438 C 77.828125 28.390625 77.449219 28.9375 77.023438 29.417969 C 76.597656 29.890625 76.113281 30.296875 75.578125 30.632812 C 74.503906 31.300781 73.300781 31.632812 71.96875 31.632812 C 71.292969 31.632812 70.660156 31.550781 70.0625 31.382812 C 69.464844 31.21875 68.894531 30.96875 68.359375 30.632812 C 67.824219 30.300781 67.34375 29.890625 66.914062 29.417969 C 66.484375 28.9375 66.113281 28.394531 65.789062 27.773438 C 65.46875 27.152344 65.230469 26.480469 65.070312 25.75 C 64.90625 25.023438 64.828125 24.230469 64.828125 23.386719 C 64.828125 22.539062 64.90625 21.75 65.070312 21.019531 C 65.226562 20.292969 65.46875 19.621094 65.789062 19 C 66.113281 18.382812 66.488281 17.832031 66.914062 17.355469 C 67.34375 16.878906 67.824219 16.476562 68.359375 16.140625 C 68.898438 15.804688 69.464844 15.554688 70.066406 15.386719 C 70.664062 15.222656 71.300781 15.136719 71.972656 15.136719 C 72.644531 15.136719 73.277344 15.222656 73.878906 15.386719 C 74.476562 15.554688 75.046875 15.804688 75.582031 16.140625 C 76.117188 16.472656 76.601562 16.878906 77.027344 17.355469 C 77.457031 17.832031 77.832031 18.378906 78.152344 19 C 78.472656 19.621094 78.714844 20.292969 78.871094 21.019531 C 79.035156 21.75 79.113281 22.535156 79.113281 23.386719 C 79.113281 24.234375 79.03125 25.023438 78.867188 25.75 Z M 78.867188 25.75 " fill-opacity="1" fill-rule="nonzero"/></g></svg>