<svg width="212" height="92" viewBox="0 0 212 92" fill="none" xmlns="http://www.w3.org/2000/svg">
<g opacity="0.8">
<mask id="path-1-inside-1_1130_1116" fill="white">
<path fill-rule="evenodd" clip-rule="evenodd" d="M3.16602 38.5068H211.651V91.9995H3.16602V38.5068ZM22.3496 49.1309C22.3496 51.6345 20.111 53.6641 17.3496 53.6641C14.5882 53.6641 12.3496 51.6345 12.3496 49.1309C12.3496 46.6272 14.5882 44.5976 17.3496 44.5976C20.111 44.5976 22.3496 46.6272 22.3496 49.1309ZM197.35 53.8483C200.111 53.8483 202.35 51.8186 202.35 49.315C202.35 46.8113 200.111 44.7817 197.35 44.7817C194.588 44.7817 192.35 46.8113 192.35 49.315C192.35 51.8186 194.588 53.8483 197.35 53.8483Z"/>
</mask>
<path fill-rule="evenodd" clip-rule="evenodd" d="M3.16602 38.5068H211.651V91.9995H3.16602V38.5068ZM22.3496 49.1309C22.3496 51.6345 20.111 53.6641 17.3496 53.6641C14.5882 53.6641 12.3496 51.6345 12.3496 49.1309C12.3496 46.6272 14.5882 44.5976 17.3496 44.5976C20.111 44.5976 22.3496 46.6272 22.3496 49.1309ZM197.35 53.8483C200.111 53.8483 202.35 51.8186 202.35 49.315C202.35 46.8113 200.111 44.7817 197.35 44.7817C194.588 44.7817 192.35 46.8113 192.35 49.315C192.35 51.8186 194.588 53.8483 197.35 53.8483Z" fill="#7B3F25"/>
<path d="M211.651 38.5068H212.651V37.5068H211.651V38.5068ZM3.16602 38.5068V37.5068H2.16602V38.5068H3.16602ZM211.651 91.9995V92.9995H212.651V91.9995H211.651ZM3.16602 91.9995H2.16602V92.9995H3.16602V91.9995ZM211.651 37.5068H3.16602V39.5068H211.651V37.5068ZM212.651 91.9995V38.5068H210.651V91.9995H212.651ZM3.16602 92.9995H211.651V90.9995H3.16602V92.9995ZM2.16602 38.5068V91.9995H4.16602V38.5068H2.16602ZM17.3496 54.6641C20.5689 54.6641 23.3496 52.2768 23.3496 49.1309H21.3496C21.3496 50.9923 19.6532 52.6641 17.3496 52.6641V54.6641ZM11.3496 49.1309C11.3496 52.2768 14.1304 54.6641 17.3496 54.6641V52.6641C15.046 52.6641 13.3496 50.9923 13.3496 49.1309H11.3496ZM17.3496 43.5976C14.1304 43.5976 11.3496 45.985 11.3496 49.1309H13.3496C13.3496 47.2694 15.046 45.5976 17.3496 45.5976V43.5976ZM23.3496 49.1309C23.3496 45.985 20.5689 43.5976 17.3496 43.5976V45.5976C19.6532 45.5976 21.3496 47.2694 21.3496 49.1309H23.3496ZM201.35 49.315C201.35 51.1764 199.653 52.8483 197.35 52.8483V54.8483C200.569 54.8483 203.35 52.4609 203.35 49.315H201.35ZM197.35 45.7817C199.653 45.7817 201.35 47.4535 201.35 49.315H203.35C203.35 46.1691 200.569 43.7817 197.35 43.7817V45.7817ZM193.35 49.315C193.35 47.4535 195.046 45.7817 197.35 45.7817V43.7817C194.13 43.7817 191.35 46.1691 191.35 49.315H193.35ZM197.35 52.8483C195.046 52.8483 193.35 51.1764 193.35 49.315H191.35C191.35 52.4609 194.13 54.8483 197.35 54.8483V52.8483Z" fill="black" mask="url(#path-1-inside-1_1130_1116)"/>
<mask id="path-3-inside-2_1130_1116" fill="white">
<path fill-rule="evenodd" clip-rule="evenodd" d="M0.349609 33.7178H206.834V87.2104H0.349609V33.7178ZM19.3291 46.6673C19.3291 49.1709 17.0905 51.2005 14.3291 51.2005C11.5677 51.2005 9.3291 49.1709 9.3291 46.6673C9.3291 44.1636 11.5677 42.134 14.3291 42.134C17.0905 42.134 19.3291 44.1636 19.3291 46.6673ZM194.31 51.2005C197.071 51.2005 199.31 49.1709 199.31 46.6673C199.31 44.1636 197.071 42.134 194.31 42.134C191.548 42.134 189.31 44.1636 189.31 46.6673C189.31 49.1709 191.548 51.2005 194.31 51.2005Z"/>
</mask>
<path fill-rule="evenodd" clip-rule="evenodd" d="M0.349609 33.7178H206.834V87.2104H0.349609V33.7178ZM19.3291 46.6673C19.3291 49.1709 17.0905 51.2005 14.3291 51.2005C11.5677 51.2005 9.3291 49.1709 9.3291 46.6673C9.3291 44.1636 11.5677 42.134 14.3291 42.134C17.0905 42.134 19.3291 44.1636 19.3291 46.6673ZM194.31 51.2005C197.071 51.2005 199.31 49.1709 199.31 46.6673C199.31 44.1636 197.071 42.134 194.31 42.134C191.548 42.134 189.31 44.1636 189.31 46.6673C189.31 49.1709 191.548 51.2005 194.31 51.2005Z" fill="#AE7A55"/>
<path d="M206.834 33.7178H207.834V32.7178H206.834V33.7178ZM0.349609 33.7178V32.7178H-0.650391V33.7178H0.349609ZM206.834 87.2104V88.2104H207.834V87.2104H206.834ZM0.349609 87.2104H-0.650391V88.2104H0.349609V87.2104ZM206.834 32.7178H0.349609V34.7178H206.834V32.7178ZM207.834 87.2104V33.7178H205.834V87.2104H207.834ZM0.349609 88.2104H206.834V86.2104H0.349609V88.2104ZM-0.650391 33.7178V87.2104H1.34961V33.7178H-0.650391ZM14.3291 52.2005C17.5483 52.2005 20.3291 49.8132 20.3291 46.6673H18.3291C18.3291 48.5287 16.6327 50.2005 14.3291 50.2005V52.2005ZM8.3291 46.6673C8.3291 49.8132 11.1099 52.2005 14.3291 52.2005V50.2005C12.0255 50.2005 10.3291 48.5287 10.3291 46.6673H8.3291ZM14.3291 41.134C11.1099 41.134 8.3291 43.5214 8.3291 46.6673H10.3291C10.3291 44.8058 12.0255 43.134 14.3291 43.134V41.134ZM20.3291 46.6673C20.3291 43.5214 17.5483 41.134 14.3291 41.134V43.134C16.6327 43.134 18.3291 44.8058 18.3291 46.6673H20.3291ZM198.31 46.6673C198.31 48.5287 196.613 50.2005 194.31 50.2005V52.2005C197.529 52.2005 200.31 49.8132 200.31 46.6673H198.31ZM194.31 43.134C196.613 43.134 198.31 44.8058 198.31 46.6673H200.31C200.31 43.5214 197.529 41.134 194.31 41.134V43.134ZM190.31 46.6673C190.31 44.8058 192.006 43.134 194.31 43.134V41.134C191.09 41.134 188.31 43.5214 188.31 46.6673H190.31ZM194.31 50.2005C192.006 50.2005 190.31 48.5287 190.31 46.6673H188.31C188.31 49.8132 191.09 52.2005 194.31 52.2005V50.2005Z" fill="black" mask="url(#path-3-inside-2_1130_1116)"/>
</g>
<path opacity="0.8" d="M15.5039 51L15.5039 1" stroke="black" stroke-width="1.5" stroke-linecap="square"/>
<path opacity="0.8" d="M194.654 51C194.654 51.4142 194.99 51.75 195.404 51.75C195.819 51.75 196.154 51.4142 196.154 51H194.654ZM196.154 51V1H194.654V51H196.154Z" fill="black"/>
</svg>
