<svg width="273" height="187" viewBox="0 0 273 187" fill="none" xmlns="http://www.w3.org/2000/svg">
<path d="M255.272 19.904C253.452 15.0021 250.441 10.5901 245.75 7.22927C233.287 -1.80595 215.433 0.645956 201.081 1.76624C198.351 1.97571 195.62 2.18705 192.818 2.32732C177.695 3.16707 162.572 3.93761 147.378 4.77736C129.525 5.75738 111.671 6.66819 93.818 7.64821C86.7466 7.99982 79.6751 8.41875 72.6037 8.76849C62.94 9.26037 52.648 8.63009 43.407 11.9909C27.233 17.944 21.2108 33.9104 24.783 49.8768C29.4736 70.747 34.095 91.6154 38.5051 112.555C40.6054 122.639 41.5854 134.265 48.8682 142.249C60 154.363 79.0448 152.262 93.818 151.142C96.3372 150.933 98.9294 150.861 101.308 151.703C103.48 152.403 105.371 153.873 107.121 155.273C112.932 159.756 118.674 164.238 124.485 168.721C134.146 176.213 144.438 182.235 156.06 175.302C165.372 169.701 171.325 160.175 178.675 152.472C179.096 151.982 179.586 151.492 180.216 151.282C180.916 151.002 181.617 151.073 182.386 151.142C198.91 152.752 220.616 159.616 235.389 148.761C241.759 144.069 245.75 136.715 247.71 129.013C250.232 119.419 250.091 109.123 251.071 99.319C252.192 88.464 253.243 77.5398 254.292 66.6848C255.902 52.8187 260.454 34.1199 255.272 19.904Z" fill="#FEE031"/>
<mask id="mask0_1316_1901" style="mask-type:luminance" maskUnits="userSpaceOnUse" x="15" y="4" width="239" height="183">
<path d="M15.3193 4.87695H253.755V186.591H15.3193V4.87695Z" fill="white"/>
</mask>
<g mask="url(#mask0_1316_1901)">
<path d="M139.51 186.582C131.528 186.582 124.107 181.961 117.174 176.567L99.7412 163.122C98.0599 161.861 96.3804 160.46 94.4896 159.83C92.3893 159.131 90.0084 159.2 87.7678 159.409C87.0684 159.48 86.2978 159.55 85.5983 159.55C81.1172 159.901 76.2863 160.251 71.3844 160.251C60.3218 160.251 49.0497 158.36 41.2788 149.886C34.8376 142.953 33.1563 133.639 31.4768 124.675C31.1252 122.853 30.7754 121.103 30.4257 119.352C26.2251 99.3234 21.6037 78.2437 16.7036 56.674C14.8128 48.2017 15.5123 39.7276 18.7328 32.7235C22.234 25.1602 28.3254 19.5587 36.5171 16.5476C43.9383 13.8152 51.9206 13.6057 59.6223 13.4654C61.8629 13.3962 64.1035 13.3251 66.273 13.256L186.489 6.81291C189.08 6.67264 191.67 6.46317 194.191 6.25183L194.681 6.18263C195.873 6.11343 197.062 5.97316 198.323 5.90209C211.835 4.7126 228.709 3.31178 240.682 11.9954C245.373 15.4273 248.803 19.9795 250.834 25.581C255.106 37.2065 253.144 51.3531 251.464 63.8184C250.974 67.1101 250.553 70.2615 250.273 73.1323L249.153 84.1968C248.453 91.4104 247.754 98.5529 246.983 105.766C246.702 108.637 246.493 111.648 246.284 114.521C245.794 121.593 245.304 128.806 243.553 135.81C241.872 142.182 238.301 150.937 230.459 156.609C223.809 161.44 215.967 162.912 207.844 162.912C200.913 162.912 193.772 161.792 187.051 160.81C183.2 160.18 179.489 159.621 176.057 159.34C175.638 159.269 175.077 159.269 174.797 159.34C174.587 159.409 174.237 159.83 173.957 160.111C171.716 162.42 169.616 164.943 167.516 167.464C162.685 173.275 157.643 179.228 150.923 183.291C146.932 185.531 143.15 186.582 139.51 186.582ZM90.4292 155.418C92.1798 155.418 93.9996 155.558 95.6809 156.189C98.2002 157.028 100.231 158.641 102.122 160.04L119.486 173.487C123.686 176.778 128.727 180.279 133.909 181.89C139.159 183.5 144.061 182.801 148.892 179.93C155.052 176.217 159.883 170.476 164.576 164.943C166.676 162.422 168.845 159.83 171.157 157.449C171.647 156.888 172.347 156.189 173.398 155.768C174.518 155.349 175.638 155.418 176.478 155.489C180.048 155.839 183.759 156.398 187.681 157.028C201.472 159.131 217.156 161.581 228.219 153.527C235.081 148.485 238.37 140.572 239.84 134.899C241.591 128.316 242.012 121.243 242.502 114.381C242.711 111.439 242.923 108.428 243.201 105.486C243.903 98.2723 244.602 91.1298 245.373 83.9162L246.493 72.8518C246.774 69.8407 247.192 66.6893 247.682 63.3284C249.364 51.2821 251.255 37.6273 247.264 26.9818C245.442 22.0088 242.571 18.1579 238.442 15.1468C227.588 7.30291 212.256 8.63454 198.672 9.75482C197.412 9.89509 196.222 9.96429 195.031 10.0335L194.541 10.1046C192.022 10.314 189.36 10.5254 186.77 10.6638L66.5535 17.1068C64.3129 17.2471 62.0032 17.3182 59.7626 17.3182C52.3414 17.5276 44.7089 17.6679 37.918 20.189C30.7062 22.8504 25.3143 27.7523 22.3032 34.3356C19.4342 40.5673 18.8039 48.2017 20.5545 55.8343C25.3854 77.404 30.0049 98.4837 34.2766 118.512C34.6263 120.263 34.976 122.154 35.3276 123.975C36.8669 132.448 38.5482 141.131 44.1497 147.296C54.1612 158.149 71.4554 156.819 85.387 155.768C86.1576 155.699 86.8589 155.628 87.6276 155.628C88.3981 155.489 89.4492 155.418 90.4292 155.418Z" fill="#333333"/>
</g>
<path d="M47.736 79.1444C47.5957 75.1533 48.5757 72.4919 50.186 70.8105C51.8674 69.131 53.8966 68.57 55.9277 68.5008C57.8877 68.4297 59.988 68.7794 61.8078 70.3205C63.5583 71.7906 64.7497 74.3827 64.9592 78.3739V79.0752C65.0284 80.1244 64.1886 80.966 63.2086 81.0352L61.6694 81.1063C60.6183 81.1755 59.7785 80.3358 59.7075 79.2847V78.5852C59.5672 75.0822 58.3085 73.6122 56.2082 73.6814C54.0369 73.7525 52.9166 75.3628 53.0568 78.8639L53.6871 93.7811C53.8274 97.2822 55.0169 98.8233 57.2574 98.7541C58.2375 98.683 59.1483 98.2622 59.6383 97.703C60.1975 96.8633 60.4088 95.3914 60.3378 93.5005V92.801C60.2686 91.75 61.1083 90.9102 62.1594 90.8391L63.6986 90.7699C64.6786 90.6989 65.5894 91.5405 65.5894 92.5897V93.2911C65.7989 97.4225 64.7497 99.8744 63.2086 101.625C61.5291 103.375 59.3577 103.866 57.4669 104.006C55.5069 104.075 53.3374 103.796 51.5157 102.184C49.8363 100.645 48.5757 98.2622 48.3662 94.1308L47.736 79.1444Z" fill="white"/>
<path d="M68.5311 78.2366C68.2524 71.6551 70.983 67.8735 76.7228 67.6621C82.4645 67.3816 85.4756 70.8846 85.7562 77.5371L86.3864 92.3832C86.5959 96.5146 85.5448 98.9665 84.0056 100.717C82.3242 102.468 80.1547 102.958 78.1928 103.098C76.3039 103.169 74.0633 102.888 72.3127 101.278C70.6314 99.7371 69.3727 97.3562 69.1614 93.2229L68.5311 78.2366ZM74.413 92.8732C74.5533 96.3051 75.7428 97.9154 77.9834 97.8462C80.1547 97.7752 81.275 96.1649 81.1348 92.5927L80.5045 77.7466C80.3642 74.2454 79.1747 72.7754 76.9341 72.8446C74.6225 72.9157 73.6425 74.5952 73.7828 78.0271L74.413 92.8732Z" fill="white"/>
<path d="M105.136 101.836C104.506 101.836 103.597 101.346 103.385 100.785L95.3338 83.0682L96.1043 100.366C96.1754 101.415 95.2646 102.326 94.2846 102.326L92.7435 102.397C91.7635 102.467 90.8526 101.627 90.7834 100.576L89.3826 68.9927C89.3134 67.9416 90.2224 67.0308 91.2043 67.0308L92.4629 66.9616C93.1643 66.9616 94.004 67.4516 94.2135 68.0108L102.267 85.7296L101.496 68.4316C101.425 67.3805 102.267 66.5407 103.316 66.4715L104.786 66.4005C105.837 66.3313 106.677 67.171 106.746 68.2221L108.147 99.8052C108.218 100.856 107.376 101.696 106.327 101.767L105.136 101.836Z" fill="white"/>
<path d="M110.729 68.0201C110.659 66.9709 111.499 66.1292 112.55 66.06L126.272 65.4298C127.323 65.3606 128.163 66.2003 128.232 67.2514L128.303 68.7214C128.373 69.7725 127.533 70.6123 126.482 70.6815L122.212 70.8928L123.473 99.115C123.542 100.164 122.702 101.006 121.651 101.075L120.252 101.146C119.201 101.215 118.361 100.376 118.29 99.3245L117.031 71.1023L112.76 71.3117C111.709 71.3828 110.869 70.5412 110.8 69.492L110.729 68.0201Z" fill="white"/>
<path d="M139.733 90.6339L134.412 90.8433L132.942 99.108C132.731 99.8785 131.96 100.649 131.191 100.649L129.65 100.718C128.39 100.787 127.481 99.7383 127.69 98.5469L129.719 87.3422L133.57 66.6141C133.782 65.8436 134.552 65.073 135.321 65.073L136.441 65.002C137.212 65.002 138.123 65.6322 138.332 66.4028L146.945 97.6361C147.223 98.8275 146.455 99.9477 145.194 100.019L143.653 100.088C142.882 100.088 141.973 99.4577 141.762 98.6872L139.733 90.6339ZM135.321 85.6608L138.263 85.5224C137.561 83.0013 137.633 81.6005 136.441 77.1886L135.321 85.6608Z" fill="white"/>
<path d="M146.808 74.8139C146.668 70.8208 147.648 68.1595 149.258 66.48C150.94 64.7986 152.969 64.2375 155 64.1683C156.96 64.0991 159.06 64.4489 160.882 65.99C162.631 67.46 163.822 70.0503 164.031 74.0433V74.7428C164.103 75.7939 163.261 76.6336 162.281 76.7047L160.742 76.7739C159.691 76.8431 158.851 76.0033 158.78 74.9523V74.2528C158.641 70.7516 157.381 69.2798 155.28 69.3508C153.109 69.42 151.989 71.0322 152.129 74.5333L152.759 89.3794C152.9 92.8806 154.089 94.4217 156.33 94.3525C157.31 94.2814 158.221 93.8606 158.711 93.3014C159.272 92.4616 159.481 90.9897 159.41 89.0989V88.3994C159.341 87.3483 160.181 86.5086 161.232 86.4375L162.771 86.3683C163.751 86.2972 164.662 87.1389 164.662 88.1881V88.8894C164.871 93.0208 163.822 95.4727 162.281 97.2233C160.601 98.9739 158.43 99.4639 156.541 99.6041C154.579 99.6733 152.41 99.3947 150.588 97.7825C148.909 96.2433 147.648 93.8606 147.438 89.7292L146.808 74.8139Z" fill="white"/>
<path d="M165.367 65.6355C165.298 64.5863 166.138 63.7447 167.189 63.6755L180.911 63.0452C181.962 62.9741 182.802 63.8158 182.871 64.865L182.942 66.3369C183.011 67.3861 182.172 68.2277 181.122 68.2969L176.851 68.5082L178.111 96.7305C178.18 97.7797 177.341 98.6213 176.29 98.6905L174.891 98.7616C173.84 98.8308 173 97.991 172.931 96.9399L171.67 68.7177L167.398 68.9272C166.349 68.9982 165.508 68.1566 165.438 67.1074L165.367 65.6355Z" fill="white"/>
<path d="M197.215 64.2341C197.144 63.1849 197.986 62.3433 198.966 62.2741L200.436 62.2049C201.485 62.1338 202.327 62.9735 202.396 64.0246L203.447 87.906C203.587 90.7057 204.496 92.2468 207.017 92.1776C209.679 92.0374 210.378 90.1465 210.238 87.6254L209.187 63.7441C209.117 62.6949 209.957 61.8532 210.937 61.784L212.409 61.713C213.458 61.6438 214.298 62.4835 214.369 63.5346L215.418 87.4159C215.699 93.2979 213.318 97.1488 207.227 97.3601C200.926 97.6388 198.476 93.7187 198.195 88.1154L197.215 64.2341Z" fill="white"/>
<path d="M218.776 85.873C218.707 84.8219 219.547 83.9822 220.598 83.9111L222.068 83.8419C223.048 83.7709 223.957 84.6125 224.028 85.6617V86.363C224.168 88.8841 224.658 90.0736 225.429 90.6347C226.059 91.1958 226.899 91.265 227.67 91.1958C229.839 91.1247 231.03 90.0736 230.89 87.3431C230.75 84.893 228.3 83.0714 225.638 81.1805V81.2497C222.068 78.6594 218.286 75.9981 218.077 70.8156C217.796 64.8625 220.736 61.3614 226.338 61.0809C232.01 60.8022 235.16 64.3033 235.44 70.9558V71.6572C235.51 72.7064 234.67 73.548 233.621 73.6172L232.151 73.6864C231.1 73.7575 230.26 72.9177 230.189 71.8667V71.1653C230.048 67.7353 228.859 66.1942 226.549 66.2634C224.378 66.3344 223.188 67.595 223.329 70.3256C223.467 72.9869 226.128 74.947 228.79 76.8378H228.719C232.289 79.3589 235.93 81.88 236.14 86.9933C236.42 92.8753 233.409 96.1669 227.879 96.3764C222.137 96.6569 219.057 93.3653 218.776 86.5033V85.873Z" fill="white"/>
<path d="M44.9947 82.0941C44.8545 78.1011 45.8345 75.4416 47.4448 73.7603C49.1243 72.0789 51.1554 71.5197 53.1865 71.4486C55.1465 71.3794 57.2468 71.7291 59.0666 73.2702C60.8171 74.7403 62.0085 77.3324 62.218 81.3236V82.0231C62.2872 83.0741 61.4474 83.9139 60.4674 83.985L58.9282 84.0542C57.8771 84.1252 57.0373 83.2836 56.9663 82.2344V81.533C56.826 78.0319 55.5673 76.5619 53.467 76.6311C51.2956 76.7022 50.1754 78.3125 50.3156 81.8136L50.9459 96.6597C51.0862 100.161 52.2757 101.702 54.5162 101.633C55.4962 101.562 56.4071 101.143 56.8971 100.582C57.4563 99.7419 57.6676 98.27 57.5965 96.3792V95.6797C57.5273 94.6286 58.3671 93.7889 59.4182 93.7197L60.9574 93.6486C61.9374 93.5794 62.8482 94.4191 62.8482 95.4702V96.1697C63.0577 100.301 62.0085 102.753 60.4674 104.504C58.7879 106.254 56.6165 106.744 54.7257 106.884C52.7657 106.955 50.5962 106.675 48.7745 105.065C47.095 103.524 45.8345 101.143 45.625 97.0094L44.9947 82.0941Z" fill="#333333"/>
<path d="M65.7247 81.1848C65.4441 74.6015 68.1747 70.8198 73.9164 70.6104C79.6581 70.3298 82.6674 73.831 82.9479 80.4853L83.5782 95.3315C83.7876 99.4629 82.7384 101.915 81.1973 103.665C79.5178 105.416 77.3465 105.906 75.3864 106.046C73.4956 106.115 71.255 105.835 69.5045 104.225C67.825 102.683 66.5644 100.303 66.355 96.1712L65.7247 81.1848ZM71.6048 95.8215C71.745 99.2534 72.9364 100.864 75.177 100.793C77.3465 100.723 78.4668 99.1131 78.3265 95.5409L77.6962 80.6948C77.5578 77.1937 76.3665 75.7218 74.1259 75.7929C71.8161 75.8621 70.8361 77.5434 70.9764 80.9753L71.6048 95.8215Z" fill="#333333"/>
<path d="M102.425 104.784C101.795 104.784 100.886 104.294 100.674 103.733L92.6228 86.0157L93.3934 103.312C93.4645 104.363 92.5536 105.274 91.5736 105.274L90.0325 105.343C89.0525 105.414 88.1417 104.572 88.0725 103.523L86.6717 71.9383C86.6025 70.889 87.5114 69.9782 88.4933 69.9782L89.752 69.9072C90.4533 69.9072 91.2931 70.399 91.5026 70.9582L99.5559 88.6771L98.7853 71.379C98.7143 70.328 99.5559 69.4882 100.605 69.4171L102.075 69.3479C103.126 69.2769 103.966 70.1185 104.035 71.1677L105.436 102.753C105.507 103.804 104.665 104.643 103.616 104.713L102.425 104.784Z" fill="#333333"/>
<path d="M107.942 70.9529C107.871 69.9018 108.712 69.0621 109.761 68.9929L123.485 68.3626C124.535 68.2915 125.374 69.1331 125.445 70.1824L125.515 71.6542C125.586 72.7035 124.746 73.5451 123.695 73.6143L119.423 73.8237L120.684 102.046C120.755 103.097 119.913 103.937 118.864 104.008L117.463 104.077C116.414 104.148 115.572 103.307 115.503 102.257L114.243 74.0351L109.971 74.2446C108.922 74.3138 108.082 73.474 108.011 72.4229L107.942 70.9529Z" fill="#333333"/>
<path d="M136.924 93.5772L131.603 93.7867L130.133 102.049C129.924 102.82 129.153 103.591 128.383 103.591L126.844 103.662C125.583 103.731 124.672 102.68 124.882 101.49L126.913 90.2856L130.764 69.5556C130.973 68.7851 131.744 68.0145 132.514 68.0145L133.634 67.9453C134.405 67.9453 135.314 68.5756 135.525 69.3461L144.136 100.579C144.416 101.771 143.646 102.891 142.385 102.96L140.846 103.031C140.076 103.031 139.165 102.401 138.955 101.631L136.924 93.5772ZM132.583 88.535L135.525 88.3947C134.824 85.8736 134.895 84.4728 133.704 80.0609L132.583 88.535Z" fill="#333333"/>
<path d="M144.088 77.7509C143.947 73.7597 144.927 71.0984 146.538 69.417C148.219 67.7375 150.248 67.1764 152.279 67.1072C154.239 67.0361 156.34 67.3859 158.161 68.927C159.91 70.3989 161.101 72.9892 161.311 76.9803V77.6817C161.382 78.7309 160.54 79.5725 159.56 79.6417L158.021 79.782C156.97 79.853 156.13 79.0114 156.059 77.9622V77.2609C155.921 73.7597 154.66 72.2897 152.56 72.3589C150.388 72.4281 149.268 74.0403 149.408 77.5414L150.039 92.3875C150.179 95.8886 151.368 97.4297 153.609 97.3605C154.589 97.2895 155.5 96.8686 155.99 96.3094C156.551 95.4697 156.76 93.9978 156.689 92.107V91.4075C156.62 90.3564 157.46 89.5167 158.511 89.4456L160.05 89.3764C161.03 89.3053 161.941 90.1469 161.941 91.1962V91.8975C162.15 96.0289 161.101 98.4808 159.56 100.231C157.881 101.982 155.709 102.472 153.82 102.612C151.858 102.681 149.689 102.403 147.867 100.791C146.188 99.2514 144.927 96.8686 144.718 92.7372L144.088 77.7509Z" fill="#333333"/>
<path d="M162.561 68.5818C162.491 67.5307 163.331 66.691 164.38 66.6218L178.104 65.9915C179.154 65.9204 179.995 66.7602 180.064 67.8113L180.134 69.2813C180.205 70.3324 179.365 71.1721 178.314 71.2432L174.044 71.4527L175.303 99.6749C175.374 100.726 174.534 101.566 173.483 101.637L172.082 101.706C171.033 101.777 170.193 100.935 170.122 99.8862L168.862 71.664L164.592 71.8735C163.541 71.9427 162.701 71.1029 162.63 70.0518L162.561 68.5818Z" fill="#333333"/>
<path d="M194.496 67.1813C194.425 66.1303 195.267 65.2905 196.247 65.2213L197.717 65.1502C198.766 65.081 199.608 65.9208 199.677 66.9719L200.728 90.8513C200.868 93.653 201.777 95.1941 204.298 95.123C206.96 94.9846 207.659 93.0938 207.519 90.5727L206.468 66.6913C206.399 65.6403 207.238 64.8005 208.218 64.7313L209.69 64.6602C210.74 64.591 211.579 65.4308 211.65 66.4819L212.7 90.3613C212.98 96.2433 210.599 100.096 204.508 100.306C198.207 100.586 195.757 96.6641 195.476 91.0627L194.496 67.1813Z" fill="#333333"/>
<path d="M216.056 88.8079C215.987 87.7587 216.826 86.917 217.877 86.8478L219.347 86.7786C220.327 86.7076 221.236 87.5473 221.307 88.5984V89.2998C221.448 91.8209 221.938 93.0103 222.708 93.5714C223.339 94.1306 224.178 94.2017 224.949 94.1306C227.118 94.0614 228.31 93.0103 228.169 90.2798C228.029 87.8279 225.579 86.0081 222.918 84.1173V84.1865C219.347 81.5962 215.566 78.9348 215.356 73.7523C215.076 67.7993 218.016 64.2981 223.617 64.0176C229.29 63.737 232.439 67.24 232.72 73.8926V74.592C232.789 75.6431 231.949 76.4829 230.9 76.5539L229.43 76.6231C228.379 76.6942 227.539 75.8526 227.468 74.8034V74.102C227.328 70.6701 226.138 69.1309 223.829 69.2001C221.657 69.2693 220.468 70.5298 220.608 73.2623C220.746 75.9237 223.408 77.8837 226.069 79.7745H225.998C229.568 82.2956 233.21 84.8167 233.419 89.93C233.7 95.812 230.689 99.1037 225.158 99.3131C219.417 99.5937 216.336 96.302 216.056 89.4382V88.8079Z" fill="#333333"/>
</svg>
