<svg width="414" height="279" viewBox="0 0 414 279" fill="none" xmlns="http://www.w3.org/2000/svg">
<mask id="mask0_1316_1928" style="mask-type:luminance" maskUnits="userSpaceOnUse" x="68" y="0" width="278" height="279">
<path d="M68.0293 0.241211H345.97V278.182H68.0293V0.241211Z" fill="white"/>
</mask>
<g mask="url(#mask0_1316_1928)">
<path d="M206.992 0.241211C130.246 0.241211 68.0293 62.4583 68.0293 139.213C68.0293 215.965 130.246 278.182 206.992 278.182C283.741 278.182 345.964 215.965 345.964 139.213C345.964 62.4583 283.73 0.241211 206.992 0.241211ZM277.949 217.861C277.949 218.262 277.93 218.659 277.89 219.059C277.851 219.457 277.794 219.851 277.716 220.243C277.637 220.638 277.541 221.024 277.425 221.407C277.31 221.79 277.174 222.168 277.022 222.537C276.87 222.906 276.701 223.267 276.512 223.622C276.323 223.975 276.118 224.318 275.898 224.651C275.675 224.984 275.438 225.305 275.185 225.615C274.931 225.925 274.663 226.224 274.381 226.506C274.1 226.79 273.804 227.058 273.496 227.314C273.186 227.568 272.868 227.808 272.535 228.03C272.203 228.253 271.862 228.462 271.509 228.65C271.157 228.842 270.796 229.014 270.427 229.166C270.058 229.321 269.68 229.459 269.3 229.575C268.916 229.693 268.53 229.792 268.139 229.874C267.744 229.952 267.349 230.012 266.952 230.054C266.555 230.096 266.154 230.116 265.754 230.119L235.989 230.268C235.588 230.271 235.185 230.254 234.785 230.215C234.382 230.178 233.985 230.122 233.59 230.046C233.193 229.967 232.804 229.871 232.418 229.755C232.031 229.64 231.651 229.507 231.279 229.355C230.907 229.203 230.543 229.031 230.185 228.842C229.83 228.653 229.484 228.447 229.148 228.225C228.813 228.002 228.489 227.765 228.179 227.509C227.866 227.255 227.567 226.985 227.28 226.7C226.995 226.418 226.724 226.119 226.468 225.809C226.211 225.499 225.972 225.175 225.746 224.84C225.524 224.507 225.315 224.161 225.123 223.805C224.935 223.453 224.763 223.09 224.608 222.718C224.453 222.346 224.317 221.965 224.199 221.582C224.081 221.196 223.985 220.804 223.906 220.409C223.827 220.015 223.768 219.617 223.728 219.217C223.689 218.814 223.669 218.414 223.669 218.011V179.598C223.675 177.975 223.365 176.411 222.736 174.911C222.387 174.066 221.975 173.248 221.499 172.465C221.025 171.681 220.493 170.937 219.904 170.235C219.315 169.534 218.675 168.88 217.984 168.277C217.297 167.671 216.564 167.124 215.792 166.631C215.017 166.14 214.21 165.709 213.371 165.343C212.531 164.973 211.668 164.672 210.783 164.435C209.895 164.201 208.996 164.035 208.086 163.936C207.176 163.838 206.26 163.812 205.344 163.854C204.431 163.897 203.523 164.009 202.624 164.19C201.725 164.373 200.845 164.621 199.986 164.94C199.126 165.255 198.295 165.636 197.492 166.081C196.691 166.524 195.927 167.028 195.203 167.589C194.479 168.15 193.799 168.764 193.171 169.429C192.54 170.094 191.965 170.805 191.443 171.56C190.919 172.313 190.459 173.102 190.059 173.928C189.659 174.751 189.324 175.602 189.053 176.478C188.687 177.639 188.506 178.832 188.518 180.049V217.312C188.518 217.712 188.498 218.109 188.458 218.51C188.419 218.907 188.36 219.302 188.284 219.693C188.205 220.088 188.109 220.474 187.991 220.857C187.875 221.241 187.743 221.618 187.59 221.988C187.435 222.357 187.266 222.718 187.077 223.07C186.891 223.425 186.686 223.769 186.463 224.101C186.243 224.434 186.004 224.755 185.75 225.065C185.499 225.375 185.231 225.671 184.947 225.956C184.665 226.238 184.372 226.508 184.062 226.762C183.754 227.016 183.433 227.255 183.101 227.478C182.768 227.703 182.427 227.909 182.075 228.098C181.722 228.29 181.362 228.462 180.992 228.614C180.623 228.769 180.248 228.904 179.865 229.022C179.482 229.141 179.096 229.239 178.704 229.318C178.312 229.397 177.917 229.459 177.517 229.499C177.12 229.541 176.722 229.561 176.322 229.564L146.59 229.713C146.187 229.716 145.784 229.699 145.384 229.659C144.981 229.623 144.584 229.564 144.186 229.487C143.792 229.411 143.4 229.313 143.014 229.197C142.625 229.082 142.247 228.946 141.872 228.794C141.5 228.642 141.134 228.47 140.779 228.278C140.421 228.09 140.077 227.884 139.739 227.661C139.403 227.436 139.079 227.196 138.769 226.942C138.456 226.686 138.158 226.415 137.87 226.131C137.586 225.846 137.315 225.547 137.059 225.234C136.802 224.922 136.562 224.6 136.34 224.262C136.114 223.927 135.909 223.583 135.717 223.225C135.528 222.87 135.356 222.506 135.201 222.131C135.049 221.759 134.914 221.379 134.795 220.993C134.68 220.607 134.584 220.215 134.505 219.82C134.426 219.423 134.37 219.025 134.33 218.622C134.291 218.222 134.274 217.819 134.274 217.416C134.344 196.644 134.415 175.872 134.488 155.1C134.491 154.255 134.581 153.418 134.756 152.592C134.933 151.766 135.19 150.966 135.531 150.191C135.872 149.418 136.289 148.688 136.782 148.001C137.273 147.313 137.831 146.685 138.454 146.112L197.982 91.4149C198.543 90.902 199.143 90.4426 199.789 90.0395C200.431 89.6393 201.108 89.2983 201.815 89.0221C202.52 88.7459 203.247 88.5373 203.994 88.3964C204.738 88.2554 205.49 88.1822 206.251 88.1822C207.009 88.1793 207.762 88.2498 208.509 88.3879C209.256 88.526 209.983 88.7318 210.69 89.0051C211.398 89.2785 212.074 89.6139 212.72 90.0141C213.365 90.4144 213.968 90.8681 214.529 91.3783C234.329 109.436 254.131 127.499 273.939 145.568C274.567 146.141 275.134 146.772 275.63 147.462C276.129 148.153 276.552 148.886 276.895 149.664C277.242 150.441 277.504 151.245 277.682 152.079C277.859 152.91 277.947 153.75 277.949 154.602V217.861ZM296.729 153.001H296.698C295.181 153.001 293.721 152.713 292.321 152.133C290.92 151.552 289.68 150.726 288.606 149.655L214.275 75.3188C214.01 75.0539 213.734 74.8002 213.444 74.5635C213.154 74.3267 212.855 74.1012 212.542 73.8955C212.232 73.6869 211.911 73.4925 211.578 73.3177C211.248 73.1402 210.91 72.9795 210.563 72.8358C210.217 72.692 209.864 72.5652 209.507 72.4581C209.149 72.3482 208.785 72.258 208.419 72.1847C208.049 72.1114 207.68 72.0551 207.305 72.0184C206.933 71.9818 206.558 71.9649 206.184 71.9649C205.809 71.9649 205.437 71.9818 205.062 72.0184C204.69 72.0551 204.321 72.1114 203.951 72.1847C203.585 72.258 203.221 72.3482 202.863 72.4581C202.503 72.5652 202.15 72.692 201.804 72.8358C201.46 72.9795 201.122 73.1402 200.789 73.3177C200.459 73.4925 200.138 73.6869 199.828 73.8955C199.515 74.1012 199.214 74.3267 198.926 74.5635C198.636 74.8002 198.357 75.0539 198.092 75.3188L123.634 149.661C122.56 150.732 121.323 151.558 119.922 152.135C118.519 152.716 117.059 153.003 115.543 153.001C105.371 153.001 100.261 140.709 107.451 133.503L198.3 42.3064C198.565 42.0387 198.844 41.785 199.135 41.5454C199.425 41.3059 199.724 41.0832 200.037 40.8718C200.349 40.6633 200.671 40.4688 201.003 40.2912C201.333 40.1137 201.674 39.953 202.021 39.8093C202.367 39.6627 202.72 39.5359 203.08 39.426C203.441 39.3189 203.805 39.2259 204.174 39.1526C204.543 39.0793 204.912 39.0229 205.287 38.9863C205.662 38.9497 206.037 38.9299 206.412 38.9299C206.79 38.9299 207.164 38.9497 207.539 38.9863C207.911 39.0229 208.283 39.0793 208.653 39.1526C209.022 39.2259 209.385 39.3189 209.746 39.426C210.104 39.5359 210.459 39.6627 210.806 39.8093C211.152 39.953 211.491 40.1137 211.823 40.2912C212.156 40.4688 212.477 40.6633 212.787 40.8718C213.1 41.0832 213.402 41.3059 213.692 41.5454C213.982 41.785 214.258 42.0387 214.523 42.3064L249.134 77.2438V58.1291C249.131 57.5626 249.187 57.0018 249.297 56.4465C249.407 55.8913 249.571 55.3502 249.788 54.8287C250.005 54.3045 250.27 53.8085 250.585 53.335C250.898 52.8643 251.256 52.4303 251.656 52.0272C252.056 51.627 252.493 51.2691 252.964 50.9562C253.435 50.6405 253.931 50.3756 254.455 50.1586C254.979 49.9416 255.518 49.7781 256.073 49.6654C256.628 49.5554 257.189 49.5019 257.755 49.5019H263.437C264.004 49.4991 264.565 49.5554 265.12 49.6654C265.678 49.7753 266.216 49.9388 266.741 50.1558C267.265 50.3728 267.761 50.6377 268.232 50.9534C268.705 51.2691 269.139 51.627 269.539 52.0272C269.942 52.4274 270.3 52.8643 270.613 53.335C270.929 53.8057 271.194 54.3017 271.411 54.8259C271.628 55.3502 271.791 55.8913 271.901 56.4465C272.011 57.0018 272.067 57.5626 272.067 58.1291V100.425L304.849 133.525C311.996 140.743 306.884 153.001 296.723 153.001H296.729Z" fill="black"/>
</g>
</svg>
