<svg width="86" height="91" viewBox="0 0 86 91" fill="none" xmlns="http://www.w3.org/2000/svg">
<g filter="url(#filter0_dd_1397_1640)">
<path fill-rule="evenodd" clip-rule="evenodd" d="M19.0925 28.2207H66.4201L74.4535 79.206H11.0605L19.0925 28.2207Z" fill="#77C655"/>
<path fill-rule="evenodd" clip-rule="evenodd" d="M61.3217 34.2764V38.478H24.0039V34.2764H61.3217ZM26.2278 72.4083H58.6649V45.2778H26.2278V72.4083Z" fill="#F4E042"/>
<path fill-rule="evenodd" clip-rule="evenodd" d="M24.0039 38.4795H61.2588V47.8116H24.0039V38.4795Z" fill="#F8BC32"/>
<path fill-rule="evenodd" clip-rule="evenodd" d="M31.6629 52.8797H54.0287V72.409H31.6629V52.8797ZM19.0918 28.2207V31.1258H66.1364V28.2207H19.0918Z" fill="white"/>
<mask id="mask0_1397_1640" style="mask-type:luminance" maskUnits="userSpaceOnUse" x="10" y="10" width="66" height="71">
<path d="M10 10.5645H75.532V80.1842H10V10.5645Z" fill="white"/>
</mask>
<g mask="url(#mask0_1397_1640)">
<path d="M75.4528 78.8395L67.4943 27.9405C67.4561 27.357 66.9695 26.8943 66.3774 26.8943H57.2908V25.1776C57.2908 21.1733 55.6547 17.5332 53.0177 14.8948C50.3799 12.2571 46.7385 10.6182 42.7342 10.6182C38.7313 10.6182 35.0919 12.255 32.4542 14.8934C29.8172 17.5311 28.1811 21.1719 28.1811 25.1755V26.8929H19.0944V26.8979C18.5526 26.8979 18.0766 27.2926 17.9917 27.8436L10.0325 78.7369C10.0106 78.8232 10 78.9159 10 79.0093C10 79.6282 10.5022 80.1304 11.1204 80.1304H74.35V80.1255C74.4052 80.1255 74.4625 80.1219 74.5198 80.1113C75.1295 80.0194 75.5468 79.4471 75.4528 78.8395ZM30.4199 25.1776C30.4199 21.7908 31.8063 18.711 34.0373 16.48C36.2697 14.2469 39.3481 12.8619 42.7342 12.8619C46.1203 12.8619 49.1987 14.2483 51.4296 16.48C53.6599 18.711 55.0463 21.7922 55.0463 25.1776V26.8943H30.4199V25.1776ZM60.4215 46.2447C60.4215 46.5297 60.2723 46.7993 60.0311 47.0044C59.7375 47.2527 59.3223 47.4076 58.8547 47.4076C58.3872 47.4076 57.972 47.2527 57.6784 47.0044C57.4372 46.7993 57.2879 46.5297 57.2879 46.2447V39.8757H60.4201L60.4215 46.2447ZM43.8546 71.563V58.0688H52.7064V71.563H43.8546ZM32.764 71.563V58.0688H41.6137V71.563H32.764ZM52.7064 54.0772V55.8272H43.8546V54.0772H52.7064ZM41.6137 55.8272H32.764V54.0772H41.6137V55.8272ZM54.9473 52.956C54.9473 52.3378 54.4451 51.8356 53.8269 51.8356H31.6429C31.0246 51.8356 30.5224 52.3378 30.5224 52.956V71.563H27.7899V49.4808C28.3353 49.321 28.8304 49.0564 29.235 48.7126C29.2577 48.6935 29.2803 48.6723 29.3015 48.6532C29.3242 48.6723 29.3447 48.6935 29.3687 48.7126C30.0499 49.2913 30.978 49.6513 31.9888 49.6513C33.0003 49.6513 33.9276 49.2913 34.6088 48.7126C34.6314 48.6935 34.6541 48.6723 34.6746 48.6532C34.6972 48.6723 34.7184 48.6935 34.7411 48.7126C35.4215 49.2913 36.3496 49.6513 37.3604 49.6513C38.3719 49.6513 39.2993 49.2913 39.9804 48.7126C40.0031 48.6935 40.0257 48.6723 40.0462 48.6532C40.0689 48.6723 40.0901 48.6935 40.1127 48.7126C40.7939 49.2913 41.7212 49.6513 42.7327 49.6513C43.7436 49.6513 44.6716 49.2913 45.3521 48.7126C45.3747 48.6935 45.3973 48.6723 45.42 48.6532C45.4426 48.6723 45.4638 48.6935 45.4879 48.7126C46.1691 49.2913 47.0964 49.6513 48.1079 49.6513C49.1187 49.6513 50.0468 49.2913 50.7272 48.7126C50.7499 48.6935 50.7725 48.6723 50.7952 48.6532C50.8178 48.6723 50.839 48.6935 50.8616 48.7126C51.5421 49.2913 52.4702 49.6513 53.481 49.6513C54.4925 49.6513 55.4198 49.2913 56.101 48.7126C56.1236 48.6935 56.1463 48.6723 56.1689 48.6518C56.1915 48.6723 56.2142 48.6914 56.2368 48.7126C56.6414 49.0564 57.1344 49.321 57.6805 49.4808V71.563H54.9459V52.956H54.9473ZM25.0482 39.8757H28.1811V46.2447C28.1811 46.5297 28.0311 46.7993 27.7899 47.0044C27.4964 47.2527 27.0812 47.4076 26.6136 47.4076C26.146 47.4076 25.7308 47.2527 25.4373 47.0044C25.1961 46.7993 25.0468 46.5297 25.0468 46.2447V39.8757H25.0482ZM38.9279 39.8757V46.2447C38.9279 46.5297 38.7786 46.7993 38.5367 47.0044C38.2432 47.2527 37.828 47.4076 37.3604 47.4076C36.8935 47.4076 36.4783 47.2527 36.1848 47.0044C35.9429 46.7993 35.7936 46.5297 35.7936 46.2447V39.8757H38.9279ZM49.6747 39.8757V46.2447C49.6747 46.5297 49.5255 46.7993 49.2835 47.0044C48.9921 47.2527 48.5748 47.4076 48.1079 47.4076C47.6404 47.4076 47.2251 47.2527 46.9316 47.0044C46.6904 46.7993 46.5404 46.5297 46.5404 46.2447V39.8757H49.6747ZM55.0485 39.8757V46.2447C55.0485 46.5297 54.8985 46.7993 54.6573 47.0044C54.3652 47.2527 53.9485 47.4076 53.481 47.4076C53.0141 47.4076 52.5989 47.2527 52.3054 47.0044C52.0634 46.7993 51.9142 46.5297 51.9142 46.2447V39.8757H55.0485ZM44.3009 46.2447C44.3009 46.5297 44.1517 46.7993 43.9105 47.0044C43.6169 47.2527 43.2017 47.4076 42.7342 47.4076C42.2666 47.4076 41.8514 47.2527 41.5578 47.0044C41.3166 46.7993 41.1674 46.5297 41.1674 46.2447V39.8757H44.2995L44.3009 46.2447ZM33.5541 46.2447C33.5541 46.5297 33.4049 46.7993 33.1637 47.0044C32.8694 47.2527 32.4542 47.4076 31.9874 47.4076C31.5198 47.4076 31.1046 47.2527 30.811 47.0044C30.5698 46.7993 30.4199 46.5297 30.4199 46.2447V39.8757H33.5527L33.5541 46.2447ZM60.4215 37.6341H25.0482V35.4632H60.4236V37.6341H60.4215ZM30.4199 33.2216V29.1359H55.0485V33.2216H30.4199ZM12.4248 77.8888L20.0487 29.1359H28.1811V33.2216H23.9278C23.3095 33.2216 22.8073 33.7238 22.8073 34.3428V38.7552C22.8073 38.7588 22.8073 38.7602 22.8073 38.7637V46.2447C22.8073 47.2166 23.2622 48.0888 23.9936 48.7126C24.4265 49.079 24.9584 49.357 25.5469 49.5119V72.6841C25.5469 73.3023 26.0491 73.8046 26.6674 73.8046H58.801C59.4192 73.8046 59.9214 73.3023 59.9214 72.6841V49.5119C60.5106 49.357 61.044 49.079 61.4762 48.7126C62.2076 48.0902 62.6631 47.218 62.6631 46.2468V37.0816C62.6631 37.0781 62.6631 37.0746 62.6631 37.071V34.3428C62.6631 33.7238 62.1609 33.2216 61.542 33.2216H57.2894V29.1359H65.4218L73.0449 77.8888H12.4248Z" fill="#36383E"/>
</g>
</g>
<defs>
<filter id="filter0_dd_1397_1640" x="0" y="0.618164" width="85.4668" height="89.5127" filterUnits="userSpaceOnUse" color-interpolation-filters="sRGB">
<feFlood flood-opacity="0" result="BackgroundImageFix"/>
<feColorMatrix in="SourceAlpha" type="matrix" values="0 0 0 0 0 0 0 0 0 0 0 0 0 0 0 0 0 0 127 0" result="hardAlpha"/>
<feOffset/>
<feGaussianBlur stdDeviation="5"/>
<feComposite in2="hardAlpha" operator="out"/>
<feColorMatrix type="matrix" values="0 0 0 0 0.976471 0 0 0 0 0.870588 0 0 0 0 0.694118 0 0 0 1 0"/>
<feBlend mode="normal" in2="BackgroundImageFix" result="effect1_dropShadow_1397_1640"/>
<feColorMatrix in="SourceAlpha" type="matrix" values="0 0 0 0 0 0 0 0 0 0 0 0 0 0 0 0 0 0 127 0" result="hardAlpha"/>
<feOffset/>
<feGaussianBlur stdDeviation="3"/>
<feComposite in2="hardAlpha" operator="out"/>
<feColorMatrix type="matrix" values="0 0 0 0 0.976471 0 0 0 0 0.870588 0 0 0 0 0.694118 0 0 0 1 0"/>
<feBlend mode="normal" in2="effect1_dropShadow_1397_1640" result="effect2_dropShadow_1397_1640"/>
<feBlend mode="normal" in="SourceGraphic" in2="effect2_dropShadow_1397_1640" result="shape"/>
</filter>
</defs>
</svg>
