<svg width="456" height="484" viewBox="0 0 456 484" fill="none" xmlns="http://www.w3.org/2000/svg">
<path fill-rule="evenodd" clip-rule="evenodd" d="M63.4286 122.749H392.452L448.301 477.201H7.58984L63.4286 122.749Z" fill="#77C655"/>
<path fill-rule="evenodd" clip-rule="evenodd" d="M357.005 164.849V194.059H97.5703V164.849H357.005ZM113.031 429.944H338.535V241.331H113.031V429.944Z" fill="#F4E042"/>
<path fill-rule="evenodd" clip-rule="evenodd" d="M97.5703 194.065H356.568V258.943H97.5703V194.065Z" fill="#F8BC32"/>
<path fill-rule="evenodd" clip-rule="evenodd" d="M150.816 294.18H306.304V429.948H150.816V294.18ZM63.4209 122.749V142.945H390.477V122.749H63.4209Z" fill="white"/>
<mask id="mask0_1342_1130" style="mask-type:luminance" maskUnits="userSpaceOnUse" x="0" y="0" width="456" height="484">
<path d="M0.208984 0H455.79V484H0.208984V0Z" fill="white"/>
</mask>
<g mask="url(#mask0_1342_1130)">
<path d="M455.24 474.647L399.912 120.795C399.647 116.738 396.264 113.522 392.148 113.522H328.977V101.587C328.977 73.7488 317.602 48.4431 299.27 30.1006C280.932 11.7631 255.617 0.369141 227.778 0.369141C199.95 0.369141 174.649 11.7484 156.312 30.0908C137.979 48.4283 126.605 73.739 126.605 101.572V113.512H63.4339V113.547C59.6671 113.547 56.3576 116.291 55.7675 120.121L0.43519 473.934C0.282747 474.534 0.208984 475.178 0.208984 475.827C0.208984 480.13 3.70044 483.622 7.99838 483.622H447.573V483.587C447.957 483.587 448.355 483.563 448.753 483.489C452.992 482.85 455.894 478.871 455.24 474.647ZM142.169 101.587C142.169 78.0418 151.807 56.6308 167.317 41.1209C182.837 25.5962 204.238 15.9676 227.778 15.9676C251.319 15.9676 272.72 25.606 288.23 41.1209C303.735 56.6308 313.373 78.0517 313.373 101.587V113.522H142.169V101.587ZM350.742 248.046C350.742 250.028 349.704 251.902 348.027 253.328C345.987 255.054 343.1 256.131 339.849 256.131C336.599 256.131 333.712 255.054 331.672 253.328C329.995 251.902 328.957 250.028 328.957 248.046V203.769H350.732L350.742 248.046ZM235.568 424.06V330.248H297.106V424.06H235.568ZM158.466 424.06V330.248H219.989V424.06H158.466ZM297.106 302.498V314.664H235.568V302.498H297.106ZM219.989 314.664H158.466V302.498H219.989V314.664ZM312.685 294.704C312.685 290.406 309.193 286.915 304.895 286.915H150.671C146.373 286.915 142.882 290.406 142.882 294.704V424.06H123.885V270.544C127.677 269.433 131.119 267.594 133.932 265.204C134.089 265.071 134.247 264.923 134.394 264.791C134.552 264.923 134.694 265.071 134.861 265.204C139.597 269.226 146.049 271.729 153.076 271.729C160.108 271.729 166.555 269.226 171.291 265.204C171.448 265.071 171.605 264.923 171.748 264.791C171.905 264.923 172.053 265.071 172.21 265.204C176.941 269.226 183.393 271.729 190.42 271.729C197.452 271.729 203.899 269.226 208.634 265.204C208.792 265.071 208.949 264.923 209.092 264.791C209.249 264.923 209.397 265.071 209.554 265.204C214.29 269.226 220.737 271.729 227.769 271.729C234.796 271.729 241.248 269.226 245.978 265.204C246.136 265.071 246.293 264.923 246.45 264.791C246.608 264.923 246.755 265.071 246.922 265.204C251.658 269.226 258.105 271.729 265.137 271.729C272.164 271.729 278.616 269.226 283.347 265.204C283.504 265.071 283.661 264.923 283.819 264.791C283.976 264.923 284.124 265.071 284.281 265.204C289.012 269.226 295.464 271.729 302.491 271.729C309.523 271.729 315.97 269.226 320.705 265.204C320.863 265.071 321.02 264.923 321.177 264.781C321.335 264.923 321.492 265.056 321.65 265.204C324.462 267.594 327.89 269.433 331.686 270.544V424.06H312.675V294.704H312.685ZM104.825 203.769H126.605V248.046C126.605 250.028 125.562 251.902 123.885 253.328C121.845 255.054 118.958 256.131 115.707 256.131C112.457 256.131 109.57 255.054 107.53 253.328C105.853 251.902 104.815 250.028 104.815 248.046V203.769H104.825ZM201.317 203.769V248.046C201.317 250.028 200.28 251.902 198.598 253.328C196.557 255.054 193.67 256.131 190.42 256.131C187.174 256.131 184.288 255.054 182.247 253.328C180.565 251.902 179.527 250.028 179.527 248.046V203.769H201.317ZM276.029 203.769V248.046C276.029 250.028 274.992 251.902 273.31 253.328C271.284 255.054 268.383 256.131 265.137 256.131C261.887 256.131 259 255.054 256.959 253.328C255.282 251.902 254.24 250.028 254.24 248.046V203.769H276.029ZM313.388 203.769V248.046C313.388 250.028 312.346 251.902 310.669 253.328C308.638 255.054 305.741 256.131 302.491 256.131C299.245 256.131 296.359 255.054 294.318 253.328C292.636 251.902 291.598 250.028 291.598 248.046V203.769H313.388ZM238.671 248.046C238.671 250.028 237.633 251.902 235.956 253.328C233.916 255.054 231.029 256.131 227.778 256.131C224.528 256.131 221.641 255.054 219.601 253.328C217.924 251.902 216.886 250.028 216.886 248.046V203.769H238.661L238.671 248.046ZM163.958 248.046C163.958 250.028 162.921 251.902 161.244 253.328C159.198 255.054 156.312 256.131 153.066 256.131C149.816 256.131 146.929 255.054 144.888 253.328C143.211 251.902 142.169 250.028 142.169 248.046V203.769H163.949L163.958 248.046ZM350.742 188.185H104.825V173.093H350.757V188.185H350.742ZM142.169 157.509V129.106H313.388V157.509H142.169ZM17.0663 468.038L70.0677 129.106H126.605V157.509H97.0355C92.7376 157.509 89.2461 161.001 89.2461 165.304V195.979C89.2461 196.004 89.2461 196.014 89.2461 196.038V248.046C89.2461 254.803 92.4081 260.866 97.4929 265.204C100.502 267.751 104.2 269.684 108.292 270.761V431.855C108.292 436.152 111.783 439.644 116.081 439.644H339.476C343.774 439.644 347.265 436.152 347.265 431.855V270.761C351.361 269.684 355.069 267.751 358.074 265.204C363.159 260.876 366.325 254.813 366.325 248.061V184.344C366.325 184.32 366.325 184.295 366.325 184.271V165.304C366.325 161.001 362.834 157.509 358.531 157.509H328.967V129.106H385.504L438.5 468.038H17.0663Z" fill="#36383E"/>
</g>
</svg>
