<svg width="89" height="110" viewBox="0 0 89 110" fill="none" xmlns="http://www.w3.org/2000/svg">
<g filter="url(#filter0_d_2812_1363)">
<path d="M7.26135 14.9665C7.26135 14.9665 22.4821 10.0855 35.0361 6.06102C39.8648 4.51179 50.0862 1.31934 55.0159 0.17047C55.653 0.0207691 55.6008 0.49076 55.6217 0.720533C55.6809 1.33674 56.0395 4.59187 56.0395 4.59187C56.0395 4.59187 59.406 3.07397 60.1092 2.72583C60.8125 2.38117 60.9726 2.48213 60.9726 2.97301C60.9726 3.46041 61.9892 59.7514 61.9892 61.2206C61.9892 62.6897 61.7316 63.1771 60.6663 64.0127C59.6044 64.8482 24.6162 90.9867 24.0104 91.4462C23.4081 91.9057 21.9111 92.5115 20.4594 92.1947C19.0076 91.8779 9.05776 89.803 8.2257 89.4305C7.39016 89.0545 7.10468 88.682 7.09076 87.0109C7.07683 85.3433 6.01152 17.4835 6.01152 17.0518C6.01152 16.6202 5.8096 15.4991 7.26135 14.9665Z" fill="#52C7AD"/>
<path d="M56.0343 4.58868C56.0343 4.58868 24.1097 17.4281 22.7868 17.9155C21.4638 18.4064 19.5804 18.2637 15.5002 17.9155C11.4165 17.5709 8.84371 17.355 8.5269 17.3133C8.21009 17.268 7.93506 16.4325 9.45992 16.0599C10.9848 15.6839 55.5782 1.02023 55.7244 0.964526C55.8672 0.905341 55.909 1.02023 55.9264 1.48326C55.9368 1.9428 56.0343 4.59216 56.0343 4.59216V4.58868Z" fill="#DFFAF9"/>
<path d="M12.3316 68.1195C12.718 68.0011 13.1149 67.9768 13.5257 68.0429C13.9365 68.1091 14.3299 68.2623 14.7024 68.5059C15.0749 68.7462 15.3987 69.0595 15.6772 69.439C15.9557 69.8184 16.1646 70.2397 16.3039 70.6992C16.4431 71.1588 16.5058 71.6253 16.4849 72.0953C16.4675 72.5653 16.37 73.0039 16.196 73.4113C16.0219 73.8221 15.7852 74.1702 15.4788 74.4557C15.1759 74.7377 14.8312 74.9396 14.4448 75.058C14.0584 75.1763 13.658 75.2042 13.2472 75.1346C12.8364 75.0684 12.4465 74.9152 12.074 74.6715C11.7015 74.4313 11.3777 74.1215 11.0992 73.7385C10.8207 73.359 10.6118 72.9413 10.4725 72.4782C10.3333 72.0187 10.2706 71.5557 10.288 71.0857C10.3089 70.6122 10.4029 70.1735 10.577 69.7662C10.7545 69.3554 10.9912 69.0108 11.2941 68.7253C11.6005 68.4398 11.9452 68.2379 12.3316 68.1195Z" fill="#14A582"/>
<path d="M12.6241 69.0893C12.9026 69.0023 13.1916 68.9849 13.4875 69.0336C13.7834 69.0823 14.0654 69.1937 14.3335 69.3678C14.605 69.5419 14.8383 69.7647 15.0367 70.0397C15.2386 70.3148 15.3883 70.6176 15.4893 70.9484C15.5903 71.2791 15.6355 71.6168 15.6216 71.9545C15.6077 72.2957 15.538 72.6125 15.4127 72.9084C15.2874 73.2009 15.1168 73.4515 14.8975 73.6569C14.6781 73.8623 14.4275 74.0085 14.149 74.0956C13.8704 74.1791 13.585 74.1965 13.289 74.1478C12.9896 74.1025 12.7077 73.9911 12.4396 73.8136C12.1715 73.6395 11.9383 73.4167 11.7363 73.1417C11.5379 72.8666 11.3882 72.5638 11.2872 72.233C11.1828 71.9023 11.141 71.5646 11.1549 71.2269C11.1689 70.8857 11.235 70.5689 11.3638 70.2765C11.4892 69.9805 11.6597 69.7299 11.8791 69.5245C12.0984 69.3191 12.3456 69.1729 12.6241 69.0893Z" fill="#DFFAF9"/>
<path d="M9.63925 24.8786L18.3637 25.8569C18.684 25.8952 18.9207 26.1807 18.8929 26.5044L19.0077 59.0452C19.0077 59.3759 18.7432 59.644 18.4124 59.6475C18.3602 59.6475 18.3115 59.6405 18.2627 59.6301L15.2617 59.1601C14.9728 59.1148 14.7569 58.8607 14.7569 58.5683C14.7534 58.5091 14.7465 58.4569 14.736 58.4046C14.7256 58.342 14.7082 58.2758 14.6908 58.2097C14.5759 57.8372 14.3496 57.5412 14.0781 57.3637C13.8378 57.207 13.5593 57.1513 13.3052 57.2279C13.1381 57.2767 12.9953 57.3846 12.8874 57.5273C12.7621 57.6875 12.682 57.8963 12.6507 58.1261C12.6089 58.4569 12.306 58.6866 11.9788 58.6414C11.9579 58.6379 11.9335 58.6344 11.9126 58.6309L9.88295 58.3141C9.57659 58.2654 9.35726 57.9869 9.37815 57.677L8.94297 25.4774H8.93949C8.93601 25.1467 9.19711 24.8751 9.52785 24.8682C9.56614 24.8682 9.60444 24.8716 9.63925 24.8786Z" fill="#DFFAF9"/>
<path d="M11.6759 18.0399C11.4879 18.0399 11.3173 17.925 11.2511 17.7405C11.1711 17.5073 11.2929 17.2496 11.5262 17.1696L55.7993 1.65638C56.0326 1.5763 56.2902 1.69815 56.3703 1.93489C56.4538 2.16814 56.332 2.42229 56.0952 2.50584L11.8221 18.0155C11.7733 18.033 11.7246 18.0399 11.6759 18.0399Z" fill="#14A582"/>
<path d="M16.6784 18.4619C16.4938 18.4619 16.3232 18.3505 16.2571 18.1694C16.1701 17.9362 16.2884 17.6786 16.5217 17.595L55.8408 3.04617C56.074 2.95913 56.3317 3.0775 56.4187 3.31075C56.5023 3.54401 56.3839 3.80163 56.1541 3.88867L16.8315 18.434C16.7828 18.4549 16.7271 18.4619 16.6784 18.4619Z" fill="#14A582"/>
<path d="M25.7658 40.8001L30.5527 38.8644C31.3082 38.5616 31.9244 39.0316 31.9244 39.9089C31.9244 40.7897 31.3082 41.7575 30.5527 42.0604L25.7658 43.9961C25.0103 44.2989 24.3906 43.8324 24.3906 42.9516C24.3906 42.0743 25.0103 41.103 25.7658 40.8001ZM25.7658 58.9418L30.5527 57.0061C31.3082 56.7032 31.9244 57.1732 31.9244 58.0505C31.9244 58.9313 31.3082 59.8992 30.5527 60.202L25.7658 62.1377C25.0103 62.4441 24.3906 61.9741 24.3906 61.0933C24.3906 60.216 25.0103 59.2446 25.7658 58.9418Z" fill="#DFFAF9"/>
<path d="M21.5897 92.7211C21.3391 92.7211 21.1406 92.5227 21.1406 92.2755V18.1805C21.1406 17.9334 21.3391 17.7314 21.5897 17.7314C21.8369 17.7314 22.0353 17.9334 22.0353 18.1805V92.2755C22.0353 92.5227 21.8369 92.7211 21.5897 92.7211Z" fill="#14A582"/>
<mask id="mask0_2812_1363" style="mask-type:luminance" maskUnits="userSpaceOnUse" x="26" y="5" width="57" height="94">
<path d="M26.3047 5.46777H82.9995V98.157H26.3047V5.46777Z" fill="white"/>
</mask>
<g mask="url(#mask0_2812_1363)">
<path d="M28.2828 20.7378C28.2828 20.7378 43.5036 15.8569 56.0576 11.8323C60.8828 10.2866 71.1077 7.09414 76.0339 5.94179C76.6745 5.79209 76.6223 6.26557 76.6432 6.49186C76.6989 7.11155 77.0575 10.3632 77.0575 10.3632C77.0575 10.3632 80.424 8.84529 81.1307 8.50063C81.834 8.15597 81.9906 8.25694 81.9906 8.74433C81.9906 9.23521 83.0107 65.5262 83.0107 66.9954C83.0107 68.4645 82.7531 68.9519 81.6877 69.7875C80.6259 70.623 45.6342 96.758 45.0319 97.221C44.4262 97.6806 42.9326 98.2863 41.4809 97.9695C40.0291 97.6527 30.0792 95.5778 29.2472 95.2053C28.4116 94.8293 28.1262 94.4568 28.1088 92.7857C28.0948 91.1146 27.033 23.2584 27.033 22.8267C27.033 22.395 26.8311 21.2705 28.2828 20.7378Z" fill="#9DB4E0"/>
</g>
<path d="M77.0604 10.3623C77.0604 10.3623 45.1359 23.1983 43.8129 23.6891C42.49 24.18 40.6065 24.0338 36.5228 23.6891C32.4391 23.3445 29.8664 23.1286 29.5496 23.0834C29.2362 23.0416 28.9612 22.2061 30.4861 21.8301C32.0074 21.4575 76.6044 6.79383 76.7471 6.73465C76.8933 6.67894 76.9351 6.79383 76.949 7.25338C76.9629 7.71292 77.0604 10.3623 77.0604 10.3623Z" fill="#DFFAF9"/>
<path d="M33.3494 73.8902C34.9613 73.3993 36.7403 74.5552 37.3217 76.47C37.9065 78.3882 37.0745 80.3413 35.4661 80.8322C33.8542 81.3265 32.0752 80.1707 31.4938 78.2524C30.9089 76.3377 31.741 74.3846 33.3494 73.8902Z" fill="#5F86C4"/>
<path d="M33.6451 74.8593C34.8079 74.5042 36.089 75.3362 36.5103 76.7184C36.9315 78.1005 36.3327 79.507 35.1699 79.8621C34.0071 80.2172 32.726 79.3851 32.3047 78.003C31.8835 76.6209 32.4823 75.2109 33.6451 74.8593Z" fill="#DFFAF9"/>
<path d="M30.452 30.0173L39.3052 31.0095C39.629 31.0478 39.8692 31.3402 39.8414 31.6675L39.9563 64.6922C39.9597 65.0264 39.6882 65.3014 39.354 65.3014C39.3018 65.3014 39.2495 65.2945 39.2008 65.284L36.1546 64.8071C35.8621 64.7618 35.6428 64.5042 35.6428 64.2083C35.6393 64.1491 35.6324 64.0934 35.6219 64.0411C35.6115 63.9785 35.5941 63.9123 35.5732 63.8427C35.4583 63.4667 35.232 63.1638 34.9535 62.9863C34.7098 62.8261 34.4278 62.767 34.1702 62.847C34.003 62.8992 33.8568 63.0072 33.7454 63.1499C33.6201 63.3135 33.5365 63.5259 33.5052 63.7592C33.4599 64.0934 33.1571 64.3266 32.8228 64.2814C32.802 64.2814 32.7776 64.2744 32.7567 64.2709L30.6957 63.9472C30.3859 63.8984 30.163 63.6164 30.1874 63.3031L29.7418 30.623H29.7383C29.7348 30.2888 30.0029 30.0138 30.3371 30.0068C30.3754 30.0068 30.4137 30.0103 30.452 30.0173Z" fill="#DFFAF9"/>
<path d="M32.6972 23.8128C32.5127 23.8128 32.3386 23.6944 32.2759 23.5099C32.1924 23.2767 32.3177 23.0225 32.551 22.939L76.8241 7.42926C77.0574 7.34571 77.315 7.47104 77.3951 7.70429C77.4786 7.93755 77.3533 8.19517 77.12 8.27524L32.8469 23.7849C32.7982 23.8024 32.7459 23.8128 32.6972 23.8128Z" fill="#5F86C4"/>
<path d="M37.698 24.234C37.517 24.234 37.3464 24.1226 37.2768 23.9416C37.1932 23.7083 37.3116 23.4507 37.5448 23.3637L76.8639 8.81484C77.0972 8.73129 77.3548 8.84966 77.4384 9.08291C77.5254 9.31269 77.407 9.57379 77.1738 9.65735L37.8547 24.2062C37.8025 24.2271 37.7502 24.234 37.698 24.234Z" fill="#5F86C4"/>
<path d="M46.7838 46.5704L51.5742 44.6382C52.3262 44.3354 52.9459 44.8019 52.9459 45.6827C52.9459 46.56 52.3262 47.5313 51.5742 47.8342L46.7838 49.7698C46.0283 50.0727 45.4121 49.6027 45.4121 48.7254C45.4121 47.8446 46.0283 46.8768 46.7838 46.5704ZM46.7838 64.7156L51.5742 62.7799C52.3262 62.4735 52.9459 62.9435 52.9459 63.8243C52.9459 64.7016 52.3262 65.6695 51.5742 65.9758L46.7838 67.9115C46.0283 68.2144 45.4121 67.7444 45.4121 66.8671C45.4121 65.9863 46.0283 65.0184 46.7838 64.7156Z" fill="#DFFAF9"/>
<mask id="mask1_2812_1363" style="mask-type:luminance" maskUnits="userSpaceOnUse" x="41" y="23" width="3" height="76">
<path d="M41.4551 23.2891H43.2376V98.4981H41.4551V23.2891Z" fill="white"/>
</mask>
<g mask="url(#mask1_2812_1363)">
<path d="M42.6093 98.4897C42.3621 98.4897 42.1602 98.2912 42.1602 98.0406V23.9491C42.1602 23.7019 42.3621 23.5 42.6093 23.5C42.8564 23.5 43.0584 23.7019 43.0584 23.9491V98.0406C43.0584 98.2912 42.8564 98.4897 42.6093 98.4897Z" fill="#5F86C4"/>
</g>
</g>
<defs>
<filter id="filter0_d_2812_1363" x="0.298218" y="0.141602" width="88.4055" height="109.755" filterUnits="userSpaceOnUse" color-interpolation-filters="sRGB">
<feFlood flood-opacity="0" result="BackgroundImageFix"/>
<feColorMatrix in="SourceAlpha" type="matrix" values="0 0 0 0 0 0 0 0 0 0 0 0 0 0 0 0 0 0 127 0" result="hardAlpha"/>
<feOffset dy="5.70374"/>
<feGaussianBlur stdDeviation="2.85187"/>
<feComposite in2="hardAlpha" operator="out"/>
<feColorMatrix type="matrix" values="0 0 0 0 0 0 0 0 0 0 0 0 0 0 0 0 0 0 0.55 0"/>
<feBlend mode="normal" in2="BackgroundImageFix" result="effect1_dropShadow_2812_1363"/>
<feBlend mode="normal" in="SourceGraphic" in2="effect1_dropShadow_2812_1363" result="shape"/>
</filter>
</defs>
</svg>
