<svg width="150" height="144" viewBox="0 0 150 144" fill="none" xmlns="http://www.w3.org/2000/svg">
<mask id="mask0_4290_7761" style="mask-type:luminance" maskUnits="userSpaceOnUse" x="0" y="116" width="150" height="28">
<path d="M0.478302 116.609H149.522V143.648H0.478302V116.609Z" fill="white"/>
</mask>
<g mask="url(#mask0_4290_7761)">
<path fill-rule="evenodd" clip-rule="evenodd" d="M75 116.633C116.151 116.633 149.51 122.68 149.51 130.14C149.51 137.602 116.151 143.649 75 143.649C33.8485 143.649 0.489685 137.602 0.489685 130.14C0.489685 122.68 33.8485 116.633 75 116.633Z" fill="black" fill-opacity="0.231"/>
</g>
<path fill-rule="evenodd" clip-rule="evenodd" d="M50.8922 12.8496H113.436C117.211 12.8496 120.301 16.2041 120.301 20.2886V120.893C120.301 124.998 117.211 128.331 113.436 128.331H50.8922C47.1159 128.331 44.0256 124.998 44.0256 120.893V20.2886C44.0256 16.2041 47.1159 12.8496 50.8922 12.8496Z" fill="#67AF87"/>
<path fill-rule="evenodd" clip-rule="evenodd" d="M50.5386 19.625H113.79C113.943 19.625 114.054 19.7585 114.054 19.9119V121.289C114.054 121.444 113.943 121.576 113.79 121.576H50.5386C50.3838 121.576 50.273 121.444 50.273 121.289V19.9119C50.273 19.7585 50.3838 19.625 50.5386 19.625Z" fill="#F6F4F7"/>
<mask id="mask1_4290_7761" style="mask-type:luminance" maskUnits="userSpaceOnUse" x="65" y="0" width="37" height="25">
<path d="M65.1027 0.599609H101.096V24.9914H65.1027V0.599609Z" fill="white"/>
</mask>
<g mask="url(#mask1_4290_7761)">
<path fill-rule="evenodd" clip-rule="evenodd" d="M65.462 11.4811V24.8139H100.764L100.477 11.4811L91.4912 0.599609H72.9691L65.462 11.4811ZM80.7617 5.45666C80.7617 6.75898 81.7558 7.83974 82.9701 7.83974C84.1843 7.83974 85.1558 6.75898 85.1558 5.45666C85.1558 4.13162 84.1843 3.07216 82.9701 3.07216C81.7558 3.07216 80.7617 4.13162 80.7617 5.45666Z" fill="#358E70"/>
</g>
<mask id="mask2_4290_7761" style="mask-type:luminance" maskUnits="userSpaceOnUse" x="65" y="0" width="36" height="12">
<path d="M65.1027 0.599609H100.732V11.5393H65.1027V0.599609Z" fill="white"/>
</mask>
<g mask="url(#mask2_4290_7761)">
<path fill-rule="evenodd" clip-rule="evenodd" d="M65.462 11.4811H100.477L91.4912 0.599609H72.9691L65.462 11.4811ZM82.9701 3.07216C84.1843 3.07216 85.1558 4.13162 85.1558 5.45666C85.1558 6.75898 84.1843 7.83974 82.9701 7.83974C81.7558 7.83974 80.7617 6.75898 80.7617 5.45666C80.7617 4.13162 81.7558 3.07216 82.9701 3.07216Z" fill="#67AF87"/>
</g>
<path fill-rule="evenodd" clip-rule="evenodd" d="M56.698 36.3574H70.0989V49.071H56.698V36.3574Z" fill="#67AF87"/>
<path fill-rule="evenodd" clip-rule="evenodd" d="M76.5664 36.3574H106.747V39.0501H76.5664V36.3574Z" fill="#B3B3B3"/>
<path fill-rule="evenodd" clip-rule="evenodd" d="M76.5664 41.125H106.747V43.795H76.5664V41.125Z" fill="#B3B3B3"/>
<path fill-rule="evenodd" clip-rule="evenodd" d="M76.5664 45.8691H106.747V48.5618H76.5664V45.8691Z" fill="#B3B3B3"/>
<path fill-rule="evenodd" clip-rule="evenodd" d="M56.698 56.9492H70.0989V69.6628H56.698V56.9492Z" fill="#67AF87"/>
<path fill-rule="evenodd" clip-rule="evenodd" d="M56.698 77.5645H70.0989V90.2567H56.698V77.5645Z" fill="#67AF87"/>
<path fill-rule="evenodd" clip-rule="evenodd" d="M56.698 98.1582H70.0989V110.872H56.698V98.1582Z" fill="#67AF87"/>
<path fill-rule="evenodd" clip-rule="evenodd" d="M76.5664 56.9492H106.747V59.6419H76.5664V56.9492Z" fill="#B3B3B3"/>
<path fill-rule="evenodd" clip-rule="evenodd" d="M76.5664 77.5645H106.747V80.2358H76.5664V77.5645Z" fill="#B3B3B3"/>
<path fill-rule="evenodd" clip-rule="evenodd" d="M76.5664 98.1582H106.747V100.851H76.5664V98.1582Z" fill="#B3B3B3"/>
<path fill-rule="evenodd" clip-rule="evenodd" d="M76.5664 61.7188H106.747V64.4114H76.5664V61.7188Z" fill="#B3B3B3"/>
<path fill-rule="evenodd" clip-rule="evenodd" d="M76.5664 82.3125H106.747V85.0052H76.5664V82.3125Z" fill="#B3B3B3"/>
<path fill-rule="evenodd" clip-rule="evenodd" d="M76.5664 102.928H106.747V105.598H76.5664V102.928Z" fill="#B3B3B3"/>
<path fill-rule="evenodd" clip-rule="evenodd" d="M76.5664 66.4844H106.747V69.1558H76.5664V66.4844Z" fill="#B3B3B3"/>
<path fill-rule="evenodd" clip-rule="evenodd" d="M76.5664 87.0781H106.747V89.7481H76.5664V87.0781Z" fill="#B3B3B3"/>
<path fill-rule="evenodd" clip-rule="evenodd" d="M76.5664 107.672H106.747V110.365H76.5664V107.672Z" fill="#B3B3B3"/>
<path fill-rule="evenodd" clip-rule="evenodd" d="M65.3739 32.5822C65.6608 32.2953 65.8823 31.8991 66.0357 31.4134C66.1692 31.0157 66.2133 30.5513 66.2133 30.0003C66.2133 29.3825 66.1465 28.874 66.0144 28.4324C65.8823 28.0134 65.6835 27.6612 65.4179 27.3729C65.1751 27.0647 64.8669 26.8659 64.4906 26.7551C64.2264 26.6671 63.8288 26.623 63.3203 26.623H61.0466V33.2667H63.3871C63.8515 33.2667 64.2264 33.1999 64.4906 33.1119C64.8669 32.9798 65.1538 32.825 65.3739 32.5822ZM64.4693 31.7883C64.3358 31.9204 64.1824 32.0311 63.9836 32.0752C63.8288 32.1192 63.5632 32.1405 63.2323 32.1405H62.2836V27.7493H62.8573C63.3658 27.7493 63.6967 27.7706 63.8728 27.8146C64.1156 27.8586 64.2917 27.9694 64.4465 28.1242C64.6013 28.279 64.7121 28.4991 64.8002 28.7647C64.8882 29.0516 64.9322 29.4265 64.9322 29.9562C64.9322 30.4632 64.8882 30.8609 64.8002 31.1705C64.7121 31.4574 64.6241 31.6775 64.4693 31.7883Z" fill="#67AF87"/>
<path fill-rule="evenodd" clip-rule="evenodd" d="M67.25 26.623H68.5097V33.2667H67.25V26.623Z" fill="#67AF87"/>
<path fill-rule="evenodd" clip-rule="evenodd" d="M69.7012 26.623V33.2667H74.4035V32.1405H70.9368V30.3312H74.0499V29.2277H70.9368V27.7493H74.2714V26.623H69.7012Z" fill="#67AF87"/>
<path fill-rule="evenodd" clip-rule="evenodd" d="M76.8547 27.7493V33.2667H78.113V27.7493H79.9451V26.623H75.0213V27.7493H76.8547Z" fill="#67AF87"/>
<path fill-rule="evenodd" clip-rule="evenodd" d="M83.1462 26.623V33.2667H84.4045V30.7501H85.2211C85.7948 30.7501 86.2152 30.7288 86.5234 30.6621C86.7449 30.618 86.9438 30.5073 87.1639 30.3539C87.3854 30.1991 87.5388 29.9775 87.6936 29.6907C87.8257 29.4265 87.8925 29.0729 87.8925 28.6752C87.8925 28.1455 87.7817 27.7052 87.5388 27.3729C87.296 27.042 86.9878 26.8219 86.6342 26.7338C86.414 26.6671 85.9283 26.623 85.1557 26.623H83.1462ZM84.4045 29.6466V27.7493H85.0009C85.4639 27.7493 85.7508 27.7706 85.9056 27.7933C86.1044 27.8373 86.2805 27.9254 86.414 28.1015C86.5461 28.2563 86.6129 28.4551 86.6129 28.6979C86.6129 28.8968 86.5674 29.0516 86.4581 29.205C86.37 29.3598 86.2365 29.4705 86.0817 29.5373C85.9056 29.6026 85.5747 29.6466 85.089 29.6466H84.4045Z" fill="#67AF87"/>
<path fill-rule="evenodd" clip-rule="evenodd" d="M88.9519 26.6895V33.2664H93.3233V32.1401H90.2102V26.6895H88.9519Z" fill="#67AF87"/>
<path fill-rule="evenodd" clip-rule="evenodd" d="M95.9733 26.623L93.5888 33.2667H94.9125L95.4209 31.7443H97.8934L98.4459 33.2667H99.7922L97.297 26.623H95.9733ZM97.4958 30.618H95.7958L96.6351 28.1682L97.4958 30.618Z" fill="#67AF87"/>
<path fill-rule="evenodd" clip-rule="evenodd" d="M100.454 26.623V33.2667H101.624V28.8968L104.12 33.2667H105.378V26.623H104.23V31.081L101.668 26.623H100.454Z" fill="#67AF87"/>
<path d="M58.7729 42.6706C58.53 42.4718 58.486 42.0741 58.6848 41.8099C58.8837 41.5671 59.2813 41.5231 59.5455 41.7219C59.8991 42.0088 60.1419 42.2062 60.3621 42.405C61.3562 43.2216 61.8419 43.598 62.1515 43.4872C62.5918 43.3111 63.211 42.5158 64.4025 41.0146C64.8882 40.4196 65.4407 39.7123 66.0585 38.9625C66.2786 38.6969 66.6549 38.6529 66.9191 38.8744C67.1847 39.0732 67.206 39.4695 67.0071 39.7123C66.324 40.5517 65.8156 41.2135 65.3526 41.7659C64.0276 43.4432 63.3431 44.3251 62.5918 44.6134C61.6204 44.9883 60.9586 44.4586 59.5895 43.3324C59.3253 43.1123 59.0385 42.8694 58.7729 42.6706Z" fill="#DCE9B5"/>
<path d="M58.7729 63.7033C58.53 63.4832 58.486 63.1069 58.6848 62.8427C58.8837 62.5771 59.2813 62.5331 59.5455 62.7546C59.8991 63.0415 60.1419 63.2404 60.3621 63.4165C61.3562 64.2331 61.8419 64.6307 62.1515 64.5199C62.5918 64.3438 63.211 63.5485 64.4025 62.0474C64.8882 61.4523 65.4407 60.7451 66.0585 59.9952C66.2786 59.7311 66.6549 59.6856 66.9191 59.9072C67.1847 60.106 67.206 60.4809 67.0071 60.7451C66.324 61.5844 65.8156 62.2249 65.3526 62.7987C64.0276 64.4759 63.3431 65.3593 62.5918 65.6462C61.6204 66.0211 60.9586 65.4914 59.5895 64.3651C59.3253 64.145 59.0385 63.9022 58.7729 63.7033Z" fill="#DCE9B5"/>
<path d="M58.7729 84.7377C58.53 84.5176 58.486 84.1426 58.6848 83.877C58.8837 83.6129 59.2813 83.5689 59.5455 83.789C59.8991 84.0532 60.1419 84.2747 60.3621 84.4508C61.3562 85.2674 61.8419 85.6651 62.1515 85.533C62.5918 85.3782 63.211 84.5829 64.4025 83.0832C64.8882 82.464 65.4407 81.7808 66.0585 81.0083C66.2786 80.7654 66.6549 80.7214 66.9191 80.9202C67.1847 81.1403 67.206 81.5153 67.0071 81.7808C66.324 82.5975 65.8156 83.2593 65.3526 83.833C64.0276 85.5103 63.3431 86.3709 62.5918 86.6578C61.6204 87.0554 60.9586 86.5044 59.5895 85.4009C59.3253 85.1794 59.0385 84.9365 58.7729 84.7377Z" fill="#DCE9B5"/>
<path d="M58.7729 105.753C58.53 105.554 58.486 105.179 58.6848 104.913C58.8837 104.649 59.2813 104.605 59.5455 104.804C59.8991 105.091 60.1419 105.29 60.3621 105.487C61.3562 106.304 61.8419 106.701 62.1515 106.569C62.5918 106.393 63.211 105.621 64.4025 104.097C64.8882 103.502 65.4407 102.794 66.0585 102.044C66.2786 101.779 66.6549 101.735 66.9191 101.956C67.1847 102.177 67.206 102.552 67.0071 102.817C66.324 103.634 65.8156 104.295 65.3526 104.848C64.0276 106.525 63.3431 107.409 62.5918 107.695C61.6204 108.07 60.9586 107.541 59.5895 106.414C59.3253 106.216 59.0385 105.973 58.7729 105.753Z" fill="#DCE9B5"/>
<path fill-rule="evenodd" clip-rule="evenodd" d="M114.628 128.221C121.008 128.221 126.218 127.14 128.713 125.042C131.893 121.711 131.671 117.869 128.493 114.735C126.02 113.235 123.127 112.484 120.301 111.889V120.894C120.301 124.447 117.719 127.492 114.628 128.221Z" fill="#3C6B25"/>
<path fill-rule="evenodd" clip-rule="evenodd" d="M78.157 86.9239C55.0193 94.5389 33.8925 98.5552 14.7512 98.9969C16.5833 109.217 18.2832 118.354 19.8511 126.388C29.1235 129.501 44.4673 129.037 65.8383 125.021C83.1235 119.591 95.2661 115.816 102.288 113.697C112.377 110.387 121.03 110.938 128.227 115.308C131.407 118.442 131.407 121.687 128.227 125.021C138.073 125.992 141.429 115 138.339 92.0664C132.069 79.8826 120.081 76.859 107.718 77.9625C96.9661 78.9339 85.9283 83.0397 78.157 86.9239Z" fill="#5A8945"/>
<path fill-rule="evenodd" clip-rule="evenodd" d="M74.7784 88.0063L74.1393 88.2278C74.1393 88.2278 74.1393 88.2491 74.1606 88.2719L75.8166 93.0394C75.8833 93.2383 76.0594 93.349 76.2355 93.2596C76.4131 93.1715 76.4784 92.9287 76.4131 92.7298L74.7784 88.0063ZM69.0835 89.7503C68.8619 89.817 68.6631 89.8823 68.4429 89.9491C68.4429 89.9718 68.4643 89.9931 68.4643 90.0158L71.2251 97.719C71.3132 97.9178 71.4893 98.0058 71.6654 97.9178C71.8429 97.8283 71.9082 97.5869 71.8429 97.3881L69.0835 89.7503ZM63.5859 91.3182L62.9241 91.4943C62.9454 91.517 62.9454 91.5383 62.9454 91.561L68.95 108.6C69.0167 108.799 69.2155 108.909 69.3703 108.821C69.5464 108.733 69.6132 108.49 69.5464 108.291L63.5859 91.3182ZM58.0883 92.7526C57.8895 92.8193 57.6694 92.8633 57.4478 92.9074C57.4478 92.9287 57.4478 92.9514 57.4706 92.9954L59.2813 98.5128C59.3466 98.7117 59.5242 98.7997 59.7003 98.7344C59.8551 98.6463 59.9431 98.4035 59.8764 98.2047L58.0883 92.7526ZM52.6803 94.0321C52.4814 94.0989 52.2599 94.1429 52.0397 94.1869C52.0397 94.2097 52.0397 94.231 52.061 94.2537L54.5336 102.376C54.6003 102.575 54.7765 102.685 54.954 102.596C55.1301 102.531 55.2181 102.309 55.1528 102.089L52.6803 94.0321ZM47.7351 95.1143C47.5136 95.1584 47.2935 95.2024 47.0946 95.2464C47.0946 95.2691 47.0946 95.2904 47.0946 95.3132L52.2826 113.102C52.3493 113.301 52.5255 113.412 52.7016 113.345C52.8791 113.28 52.9671 113.037 52.9004 112.838L47.7351 95.1143ZM42.6352 96.0857C42.4137 96.1298 42.1936 96.1738 41.972 96.1951C41.972 96.2178 41.972 96.2391 41.9947 96.2391L43.209 101.869C43.253 102.089 43.4291 102.221 43.6067 102.156C43.7828 102.112 43.8935 101.89 43.8495 101.67L42.6352 96.0857ZM36.8721 97.0344C36.652 97.0572 36.4532 97.1012 36.233 97.1225C36.233 97.1452 36.233 97.1665 36.233 97.1892L38.021 105.156C38.0651 105.355 38.2412 105.487 38.4187 105.443C38.5948 105.378 38.7056 105.156 38.6615 104.936L36.8721 97.0344ZM31.0436 97.8283C30.8235 97.851 30.6034 97.8738 30.4046 97.8951C30.4046 97.9178 30.4046 97.9391 30.4046 97.9618L34.2235 116.105C34.2675 116.304 34.4436 116.436 34.6211 116.392C34.7759 116.325 34.8853 116.105 34.8412 115.906L31.0436 97.8283ZM25.7236 98.3808C25.5035 98.4035 25.2819 98.4248 25.0831 98.4475V98.4688L25.8344 104.097C25.8784 104.319 26.0332 104.473 26.2093 104.428C26.4081 104.384 26.5189 104.185 26.4962 103.965L25.7236 98.3808ZM20.0059 98.7997C19.7844 98.8224 19.5642 98.8224 19.3441 98.8438C19.3441 98.8438 19.3441 98.8665 19.3654 98.8878L20.4476 106.989C20.4689 107.21 20.6464 107.363 20.8225 107.319C20.9986 107.298 21.1094 107.099 21.0881 106.879L20.0059 98.7997ZM134.299 86.2197C134.123 86.0209 133.924 85.7993 133.725 85.6005C133.681 85.6672 133.637 85.778 133.637 85.866L133.968 104.12C133.989 104.34 134.123 104.517 134.32 104.517C134.497 104.517 134.63 104.34 134.63 104.12L134.299 86.2197ZM128.912 81.827C128.713 81.6949 128.514 81.5842 128.294 81.4521C128.271 81.5174 128.271 81.5615 128.271 81.6055L128.117 87.4552C128.095 87.6754 128.25 87.8529 128.426 87.8742C128.602 87.8742 128.757 87.6981 128.757 87.4765L128.912 81.827ZM122.024 78.9355C121.802 78.8915 121.582 78.8247 121.362 78.7807C121.362 78.8247 121.362 78.8475 121.362 78.8915L122.156 87.6981C122.179 87.9182 122.332 88.0957 122.51 88.073C122.708 88.029 122.818 87.8302 122.818 87.61L122.024 78.9355ZM115.599 77.8761C115.379 77.8533 115.157 77.8533 114.937 77.832C114.937 77.8761 114.937 77.8974 114.937 77.9201L117.586 95.9522C117.609 96.1738 117.785 96.3286 117.962 96.2846C118.138 96.2391 118.249 96.0417 118.226 95.8202L115.599 77.8761ZM109.418 77.8533C109.197 77.8533 108.977 77.8761 108.755 77.8974C108.755 77.9201 108.755 77.9414 108.755 77.9641L109.661 82.9078C109.705 83.1293 109.881 83.2614 110.057 83.2174C110.235 83.1734 110.346 82.9518 110.3 82.7317L109.418 77.8533ZM103.655 78.4711C103.435 78.5166 103.213 78.5606 103.016 78.5819C103.016 78.6046 103.016 78.6046 103.016 78.6046L104.34 86.6827C104.362 86.9028 104.539 87.0363 104.716 86.9923C104.892 86.9468 105.003 86.7494 104.98 86.5279L103.655 78.4711ZM96.922 79.8842C96.7019 79.9282 96.4804 79.995 96.2602 80.0603C96.2815 80.083 96.2815 80.1058 96.2815 80.1271L101.802 96.7035C101.89 96.9023 102.066 97.0117 102.242 96.9237C102.397 96.8356 102.485 96.5927 102.42 96.3939L96.922 79.8842ZM90.8294 81.6722C90.6079 81.7603 90.3877 81.827 90.1889 81.8924C90.1889 81.9151 90.1889 81.9364 90.2102 81.9591L92.2865 87.6754C92.3746 87.8742 92.5507 87.9623 92.7282 87.8742C92.8816 87.7861 92.9711 87.5433 92.8816 87.3445L90.8294 81.6722ZM85.1558 83.7684C84.9569 83.8579 84.7354 83.946 84.5365 84.034C84.5365 84.034 84.5365 84.0553 84.5593 84.078L87.7164 91.6491C87.8044 91.8479 87.9805 91.9359 88.158 91.8252C88.3114 91.7371 88.3782 91.4943 88.2901 91.2954L85.1558 83.7684ZM79.769 86.1529C79.5474 86.241 79.3486 86.329 79.1498 86.4398V86.4625L85.9937 102.95C86.0817 103.148 86.2805 103.236 86.4353 103.126C86.5901 103.038 86.6569 102.795 86.5674 102.596L79.769 86.1529Z" fill="white"/>
<path fill-rule="evenodd" clip-rule="evenodd" d="M26.7391 27.395C24.7082 27.7699 23.4272 29.0509 22.9202 31.2352C20.0059 36.7754 17.2465 42.1607 14.6404 47.3927C14.2442 48.8044 14.3763 49.7985 15.0608 50.3936L22.5012 64.4094C22.6986 64.631 22.9415 64.6083 23.2298 64.3441C22.9202 65.0059 22.9642 65.4689 23.3831 65.7345C23.7595 65.7345 23.9569 65.7345 23.9569 65.7345C22.9642 77.3445 22.4558 83.1716 22.4558 83.1716C22.2356 88.0272 22.1476 90.477 22.1476 90.477C23.3391 90.7639 23.9569 90.9187 23.9569 90.9187C23.8688 96.8125 23.9129 101.756 24.0464 105.751C24.2892 109.547 25.1058 114.028 26.4962 119.215C27.0927 126.675 27.4023 130.406 27.4023 130.406C28.3282 130.913 29.4545 130.935 30.4046 130.472C31.1331 127.713 31.6401 125.042 31.971 122.504C32.8771 117.715 32.9211 112.858 32.1486 107.958C31.6842 104.56 31.9057 100.896 32.7891 96.9659C34.7532 87.6523 35.7686 81.2955 35.8567 77.8743C35.9234 77.7422 36.0555 77.6527 36.1876 77.6527C36.3424 77.6527 36.4759 77.7422 36.5412 77.8743C36.5199 83.5025 36.4972 86.3059 36.4972 86.3059C36.3424 92.221 36.2984 100.234 36.3424 110.276C36.5852 113.035 37.0709 119.987 37.7995 131.112C38.8149 131.134 39.8304 131.134 40.8472 131.134C41.7292 127.956 42.4364 125.175 42.9434 122.835C43.7828 118.796 44.1804 114.315 44.1364 109.393C43.3851 105.994 43.4732 102.705 44.3792 99.5265C45.1958 96.635 45.6375 93.965 45.7256 91.5592C47.16 91.6686 47.8885 91.3604 47.9326 90.6318C49.4351 80.7217 49.4564 72.6423 47.978 66.419C46.4769 61.4299 45.9244 55.0078 46.3661 47.1498C47.8885 50.946 49.1468 53.153 50.141 53.7708C50.8695 54.7209 51.9957 54.8089 53.5182 53.9923C58.4647 50.1962 61.9967 47.4367 64.1383 45.7368C63.6739 44.5225 63.1229 43.7286 62.5037 43.3977C60.5836 43.8834 57.8015 45.1857 53.4741 48.7163C52.6135 48.8044 52.1945 48.2306 52.1945 46.951C51.4873 38.917 50.5386 34.5684 50.0969 32.5162C49.766 30.4186 48.485 28.9402 46.2553 28.0795C46.2993 22.4286 45.9912 17.661 45.3066 13.7541C44.5994 9.22934 42.8554 6.53666 40.0959 5.6533C37.8662 5.43317 35.7246 5.38914 33.671 5.49992C30.7355 6.66873 29.1022 8.92116 28.7926 12.2529L28.395 27.0414C27.7985 27.1521 27.2475 27.2842 26.7391 27.395ZM25.6569 39.8657C24.5094 69.3758 28.1521 68.0082 19.4094 46.7522C19.4094 46.7522 21.0441 44.4785 24.7749 39.3147C25.7904 37.9016 25.7904 38.2097 25.6569 39.8657Z" fill="#358E70"/>
<path fill-rule="evenodd" clip-rule="evenodd" d="M32.6116 26.3137C35.1281 29.5588 37.8876 29.5588 40.8685 26.3137C40.4269 25.9387 40.3161 24.483 40.5149 21.9665C42.1709 20.2452 42.8781 18.1263 42.7006 15.6097C38.7936 13.2479 39.3901 11.0409 35.5045 9.67188C32.5008 11.9669 31.1104 15.2788 31.3092 19.626C31.8177 20.863 32.5675 21.6356 33.5389 21.9437C33.5176 24.6151 33.208 26.0722 32.6116 26.3137Z" fill="#FFA573"/>
<path fill-rule="evenodd" clip-rule="evenodd" d="M32.6115 26.3128C33.208 26.0714 33.5176 24.6143 33.5389 21.9429C32.5675 21.6347 31.8176 20.8621 31.3092 19.6251C31.1104 15.2779 32.5008 11.966 35.5045 9.67102C39.3901 11.0401 38.7936 13.2471 42.7006 15.6088C42.8781 18.1254 42.1708 20.2443 40.5149 21.9656C40.3161 24.4822 40.4268 25.9379 40.8685 26.3128C40.9353 26.3796 41.0233 26.4236 41.1341 26.4236C42.5017 26.888 43.297 27.2189 43.5399 27.3723C44.5781 27.5271 45.46 27.7699 46.2553 28.0795C46.2993 22.4286 45.9912 17.661 45.3066 13.7541C44.5994 9.22934 42.8554 6.53666 40.0959 5.6533C37.8662 5.43317 35.7246 5.38914 33.671 5.49992C30.7355 6.66873 29.1022 8.92116 28.7926 12.2529L28.395 27.0414C29.632 26.7985 31.0223 26.5557 32.6115 26.3128Z" fill="#3F1008"/>
<path fill-rule="evenodd" clip-rule="evenodd" d="M41.2435 91.3603C41.2435 91.3603 42.7446 91.4257 45.7256 91.5592C47.16 91.6685 47.8885 91.3603 47.9326 90.6318C49.4351 80.7217 49.4564 72.6422 47.978 66.419C46.4769 61.4298 45.9244 55.0077 46.3661 47.1498C47.8885 50.946 49.1468 53.153 50.141 53.7707C50.8695 54.7209 51.9957 54.8089 53.5182 53.9923C58.4647 50.1961 61.9967 47.4367 64.1384 45.7367C63.674 44.5225 63.1229 43.7286 62.5037 43.3977C60.5836 43.8834 57.8015 45.1857 53.4741 48.7163C52.6135 48.8043 52.1946 48.2306 52.1946 46.951C51.4873 38.917 50.5386 34.5683 50.0969 32.5162C49.766 30.4186 48.485 28.9401 46.2553 28.0795C45.46 27.7699 44.5781 27.527 43.5399 27.3722C43.3851 27.2629 42.9875 27.1081 42.3484 26.8652C39.4995 38.961 39.1245 60.4584 41.2435 91.3603Z" fill="#F6F4F7"/>
<path fill-rule="evenodd" clip-rule="evenodd" d="M30.7795 91.228C33.2293 48.8267 32.4354 27.4387 28.395 27.041C27.7985 27.1518 27.2475 27.2839 26.7391 27.3946C24.7082 27.7696 23.4272 29.0506 22.9202 31.2348C20.0059 36.775 17.2465 42.1604 14.6404 47.3923C14.2442 48.804 14.3763 49.7982 15.0608 50.3932L22.5012 64.4091C22.6986 64.6306 22.9415 64.6079 23.2298 64.3437C22.9202 65.0056 22.9642 65.4685 23.3831 65.7341C23.7595 65.7341 23.9569 65.7341 23.9569 65.7341C22.9642 77.3442 22.4558 83.1712 22.4558 83.1712C22.2356 88.0268 22.1476 90.4767 22.1476 90.4767C23.3391 90.7636 23.9569 90.9184 23.9569 90.9184C28.5058 91.1172 30.7795 91.228 30.7795 91.228ZM25.6569 39.8653C24.3105 69.0673 27.9533 67.5434 19.4094 46.7518C19.4094 46.7518 21.0441 44.4781 24.7749 39.3143C25.7904 37.9012 25.7904 38.2094 25.6569 39.8653Z" fill="#F6F4F7"/>
<path fill-rule="evenodd" clip-rule="evenodd" d="M24.6201 62.225C23.9129 62.688 23.2511 63.3725 22.6106 64.2558C23.0309 66.5282 25.2819 66.8818 29.3451 65.3366C29.1236 63.2404 27.5557 62.2023 24.6201 62.225Z" fill="#FFA573"/>
<path fill-rule="evenodd" clip-rule="evenodd" d="M62.5037 43.3984C62.3716 44.215 62.5918 45.5614 62.8346 46.6208C64.3812 46.8409 64.7774 46.0471 66.6109 45.0757C67.1847 44.7661 66.5214 43.1328 66.9631 43.0888C72.3499 42.5818 65.7716 39.6903 62.5037 43.3984Z" fill="#FFA573"/>
<path fill-rule="evenodd" clip-rule="evenodd" d="M30.8903 128.531C31.1772 130.076 31.2425 131.399 30.9996 132.503C29.4985 132.216 28.6819 132.548 28.5498 133.497C26.8271 135.108 24.9951 134.976 23.0522 133.099C25.5035 132.371 27.0927 130.782 27.2475 128.464C28.5498 128.156 29.5652 128.2 30.8903 128.531Z" fill="#003333"/>
<path fill-rule="evenodd" clip-rule="evenodd" d="M37.6007 128.2C37.2925 129.767 37.5126 131.136 37.7555 132.26C39.2793 131.974 40.14 132.306 40.272 133.276C42.0388 134.955 43.9148 134.821 45.9017 132.901C43.3851 132.151 41.7959 130.518 41.6638 128.133C40.3161 127.802 38.9484 127.869 37.6007 128.2Z" fill="#003333"/>
<path fill-rule="evenodd" clip-rule="evenodd" d="M112.685 123.432C114.914 120.408 115.18 116.368 113.392 113.058C111.604 109.747 108.071 107.783 104.318 108.003C101.514 108.467 97.9815 109.571 93.7437 111.314C91.0283 112.903 89.2615 115.706 88.996 118.841C88.7318 121.954 89.9901 125.021 92.3959 127.052C95.4649 129.523 99.4613 130.561 103.347 129.854C107.254 129.171 110.654 126.831 112.685 123.432Z" fill="#DC3721"/>
<path fill-rule="evenodd" clip-rule="evenodd" d="M90.7854 110.166C93.346 108.114 95.6638 107.651 97.7827 108.776C98.7328 108.931 98.5553 108.29 97.2316 106.879C97.0981 106.569 97.2316 106.215 97.5398 106.039C97.8267 105.884 98.2031 105.973 98.4019 106.238C99.3506 108.135 99.9684 108.776 100.278 108.202C102.265 105.598 104.804 104.714 107.894 105.598C104.848 105.708 102.485 106.789 100.808 108.82C98.8649 109.438 97.8935 109.747 97.8935 109.747C95.7305 108.864 93.3673 109.019 90.7854 110.166Z" fill="#3E6D15"/>
<path fill-rule="evenodd" clip-rule="evenodd" d="M93.3233 116.324C95.2221 114.714 98.0695 114.957 99.6815 116.877C101.293 118.776 101.051 121.622 99.1304 123.234C97.2316 124.844 94.3827 124.603 92.7722 122.681C91.1603 120.784 91.4032 117.936 93.3233 116.324Z" fill="#FF624E"/>
<path fill-rule="evenodd" clip-rule="evenodd" d="M104.318 108.003C109.329 110.122 112.178 115.486 111.096 120.827C110.013 126.191 105.311 130.032 99.859 130.032C101.006 130.12 102.198 130.076 103.347 129.854C107.254 129.171 110.654 126.831 112.685 123.432C114.914 120.408 115.18 116.369 113.392 113.058C111.604 109.747 108.071 107.783 104.318 108.003Z" fill="#BF1704"/>
<path fill-rule="evenodd" clip-rule="evenodd" d="M87.4735 110.056C88.5543 108.842 88.4662 106.987 87.296 105.862C86.1272 104.713 84.2724 104.713 83.0794 105.818C83.2782 104.361 82.7485 102.883 81.6663 101.889C80.5856 100.873 79.0844 100.454 77.6273 100.764C75.6405 97.6948 71.5773 96.7461 68.4202 98.6222C66.743 98.0697 64.9109 98.5341 63.6967 99.7924C62.062 99.3067 60.318 99.5269 58.8609 100.366C57.4038 101.204 56.3443 102.617 55.9694 104.273C53.9385 104.516 52.1505 105.641 51.0243 107.341C49.9208 109.041 49.6112 111.137 50.185 113.08C48.6398 114.095 47.6684 115.772 47.6016 117.626C47.5136 119.481 48.3302 121.246 49.81 122.372C52.1065 126.675 54.4015 128.972 56.6752 129.303C60.7157 136.034 66.9418 138.065 75.3749 135.416C75.9273 135.306 76.2142 135.24 76.2142 135.24C78.7081 136.696 81.4022 135.505 84.2497 131.642C89.9901 128.463 92.2425 121.357 89.3723 115.463C89.3936 113.675 88.7758 111.888 87.4735 110.056Z" fill="#5AA026"/>
<path fill-rule="evenodd" clip-rule="evenodd" d="M52.7016 116.546C52.2159 121.159 53.6517 125.772 56.6753 129.304C55.8146 127.802 55.8146 125.993 56.6753 124.492C57.5373 123.014 59.1265 122.107 60.8478 122.13C62.5705 122.151 64.1384 123.102 64.955 124.603C67.8252 125.154 69.5024 126.433 70.0321 128.508C70.5846 128.73 71.2904 128.686 72.107 128.311C73.807 128.288 74.4702 129.038 74.0939 130.583C76.2796 130.474 76.6772 131.467 75.2641 133.519C75.3309 134.115 75.1761 134.578 74.8679 134.932C75.2428 135.131 75.6845 135.241 76.2142 135.241C76.9868 134.756 77.7367 134.27 78.488 133.762C79.7235 132.836 80.0331 131.113 79.4807 128.598C79.1285 126.169 79.1725 124.117 79.5914 122.394C79.769 119.349 80.6736 116.678 82.3736 114.427C82.7926 112.66 83.0354 109.792 83.0794 105.819C76.3903 99.8375 66.3681 99.4398 59.2146 104.913C55.5277 107.739 53.1873 111.955 52.7016 116.546Z" fill="#B2D67E"/>
<path fill-rule="evenodd" clip-rule="evenodd" d="M79.5914 122.392C79.1725 124.115 79.1285 126.167 79.4807 128.596C80.0331 131.111 79.7235 132.834 78.488 133.76C77.7367 134.268 76.9868 134.754 76.2142 135.239C78.0903 135.129 79.3926 134.289 80.0999 132.767C80.8057 131.796 81.3354 130.405 81.645 128.573C81.7998 126.498 82.3296 125.417 83.1902 125.351C85.7735 122.878 86.5674 120.185 85.596 117.273C85.1771 115.772 85.2211 114.446 85.7508 113.322C86.6782 113.299 87.252 112.218 87.4735 110.055C88.5543 108.841 88.4662 106.986 87.296 105.861C86.1272 104.712 84.2724 104.712 83.0794 105.817C83.0354 109.79 82.7926 112.658 82.3736 114.425C80.6736 116.676 79.769 119.348 79.5914 122.392Z" fill="#5AA026"/>
<path fill-rule="evenodd" clip-rule="evenodd" d="M85.596 117.274C86.5674 120.187 85.7735 122.88 83.1902 125.352C82.3296 125.419 81.7998 126.5 81.645 128.575C81.3354 130.407 80.8057 131.797 80.0999 132.768C79.3926 134.291 78.0903 135.13 76.2142 135.241C78.7081 136.697 81.4022 135.505 84.2497 131.642C89.9901 128.464 92.2425 121.357 89.3723 115.463C89.3936 113.675 88.7758 111.889 87.4735 110.057C87.252 112.22 86.6782 113.3 85.7508 113.323C85.2211 114.448 85.1771 115.773 85.596 117.274Z" fill="#81C454"/>
<path fill-rule="evenodd" clip-rule="evenodd" d="M79.5701 122.858C79.5701 122.858 79.3486 122.24 78.9069 121.004C78.9069 121.004 76.0367 123.476 70.2977 128.42C71.1356 129.414 71.556 129.921 71.556 129.921C71.556 129.921 74.2274 127.559 79.5701 122.858ZM68.112 126.765C68.1774 125.264 68.2214 124.513 68.2214 124.513C71.1143 120.254 74.8892 117.053 79.5701 114.89C76.0594 114.492 72.0417 116.854 67.5383 121.975C67.4488 118.554 67.3835 116.832 67.3835 116.832C71.7761 113.014 75.7498 110.166 79.3486 108.246C74.7344 108.688 70.8488 110.652 67.6917 114.14C67.4275 113.256 67.8692 111.711 68.95 109.504C72.5487 105.222 75.5965 102.595 77.2069 102.264C77.2069 102.264 76.2796 102.065 75.4417 101.625C71.2024 103.17 68.068 106.37 66.0144 111.225C64.8882 109.791 64.4252 107.275 64.6681 103.744C62.4597 105.62 62.5264 108.665 64.8882 112.859C64.8882 116.104 64.8882 117.716 64.8882 117.716C63.0334 116.722 61.1801 113.367 59.3466 107.628C58.1764 112.925 60.1419 117.561 65.2631 121.533C65.6608 124.205 65.8596 125.551 65.8596 125.551C67.3608 126.368 68.112 126.765 68.112 126.765ZM62.4824 123.497C61.1346 121.468 58.6181 118.863 54.954 115.662C56.5432 119.414 57.979 121.82 59.2586 122.902C61.4229 123.3 62.4824 123.497 62.4824 123.497Z" fill="#DCE9B5"/>
<path fill-rule="evenodd" clip-rule="evenodd" d="M56.6753 129.303C60.7157 136.034 66.9418 138.065 75.3749 135.417C75.9274 135.306 76.2142 135.241 76.2142 135.241C75.6845 135.241 75.2428 135.13 74.8679 134.931C75.1761 134.577 75.3309 134.114 75.2641 133.518C76.6772 131.466 76.2796 130.473 74.0939 130.582C74.4702 129.037 73.807 128.287 72.1071 128.31C71.2904 128.685 70.5846 128.729 70.0322 128.507C69.5024 126.433 67.8252 125.153 64.955 124.602C64.1384 123.101 62.5705 122.151 60.8478 122.129C59.1265 122.107 57.5373 123.013 56.6753 124.491C55.8146 125.992 55.8146 127.802 56.6753 129.303Z" fill="#81C454"/>
<path fill-rule="evenodd" clip-rule="evenodd" d="M60.8478 122.129C59.1265 122.107 57.5373 123.013 56.6753 124.491C55.8146 125.992 55.8146 127.802 56.6753 129.303C56.8528 127.448 57.3598 126.388 58.2432 126.124C59.5242 128.574 61.6658 128.884 64.6454 127.096C65.6835 129.435 67.8252 130.473 71.0036 130.207C73.256 129.987 74.1606 131.068 73.6977 133.453C73.9178 134.158 74.2927 134.644 74.8679 134.931C75.1761 134.577 75.3309 134.114 75.2641 133.518C76.6772 131.466 76.2796 130.473 74.0939 130.582C74.4702 129.037 73.807 128.287 72.1071 128.31C71.2904 128.685 70.5846 128.729 70.0322 128.507C69.5024 126.433 67.8252 125.153 64.955 124.602C64.1384 123.101 62.5705 122.151 60.8478 122.129Z" fill="#58A126"/>
<path fill-rule="evenodd" clip-rule="evenodd" d="M73.3213 132.215C72.6822 132.083 72.063 131.685 71.468 131.046C67.1179 132.701 64.1824 133.561 62.7025 133.651C62.4157 132.37 62.2836 131.729 62.2836 131.729C64.8215 131.333 66.787 130.935 68.1774 130.582C65.7488 130.318 63.7847 130.45 62.2836 130.935C62.0848 129.656 61.9967 129.015 61.9967 129.015C64.9109 129.037 67.0966 128.992 68.487 128.883C65.0643 128.199 63.0121 127.845 62.3276 127.824C62.5264 126.521 62.6145 125.881 62.6145 125.881C65.043 126.388 67.8692 127.16 71.0703 128.176C71.556 127.271 72.4394 126.786 73.763 126.72C72.9904 128.199 72.7035 129.721 72.9691 131.09C73.0344 131.488 73.1679 131.863 73.3213 132.215Z" fill="#6AA028"/>
<path fill-rule="evenodd" clip-rule="evenodd" d="M122.708 128.376C97.0768 135.131 83.5438 137.669 78.0023 136.079C71.3132 134.159 71.0263 128.222 75.8166 123.675C77.7154 122.174 80.7404 121.755 84.9129 122.417C106.724 124.315 119.309 126.301 122.708 128.376Z" fill="#FF882B"/>
<path fill-rule="evenodd" clip-rule="evenodd" d="M77.2509 134.203C78.1343 134.468 79.2378 134.601 80.5415 134.645L81.2261 128.795C81.2474 128.641 81.4022 128.508 81.5783 128.531C81.7331 128.552 81.8651 128.707 81.8438 128.884L81.1593 134.667C83.433 134.689 86.2805 134.402 89.814 133.849L89.9901 132.019C90.0114 131.864 90.1449 131.73 90.321 131.753C90.4971 131.753 90.6078 131.908 90.5865 132.084L90.4317 133.761C92.153 133.474 94.0305 133.143 96.0387 132.724L96.0614 130.892C96.0827 130.738 96.2162 130.606 96.3923 130.606C96.5471 130.606 96.6792 130.738 96.6792 130.914L96.6579 132.614C99.1304 132.107 101.846 131.51 104.804 130.804L104.737 128.487C104.737 128.332 104.869 128.177 105.047 128.177C105.202 128.177 105.355 128.311 105.355 128.487L105.399 130.671C107.122 130.275 108.91 129.833 110.786 129.37L110.566 127.251C110.543 127.074 110.654 126.919 110.831 126.919C111.007 126.897 111.14 127.008 111.162 127.184L111.382 129.215C113.943 128.575 116.658 127.89 119.551 127.14C120.964 127.538 122.024 127.957 122.708 128.376C97.0768 135.13 83.5438 137.668 78.0022 136.079C74.8011 135.152 73.0571 133.32 72.6367 131.157C73.4988 132.482 75.0212 133.562 77.2509 134.203ZM80.408 123.123C80.4521 122.946 80.3427 122.792 80.1652 122.748C80.0118 122.725 79.857 122.814 79.813 122.99C79.6354 123.784 79.5261 124.337 79.4806 124.668C79.4366 124.844 79.4153 124.999 79.3926 125.132C79.2605 125.551 79.2378 125.794 79.3045 125.903C79.2605 126.699 79.5034 126.456 80.0331 125.176C80.0771 125.087 80.0771 125.021 80.0558 124.933C80.0558 124.889 80.0771 124.823 80.0771 124.778C80.1439 124.425 80.2547 123.874 80.408 123.123ZM85.7295 127.869C85.7508 127.691 85.6187 127.559 85.4426 127.559C85.2878 127.538 85.133 127.67 85.133 127.846L84.8461 133.099C84.8234 133.275 84.9569 133.409 85.133 133.43C85.3091 133.43 85.4426 133.298 85.4426 133.143L85.7295 127.869ZM92.109 125.838C92.1317 125.662 91.9996 125.528 91.8448 125.507C91.6673 125.484 91.5139 125.616 91.5139 125.771L91.2043 129.127C91.1816 129.303 91.3151 129.458 91.4912 129.458C91.646 129.479 91.8008 129.37 91.8221 129.192L92.109 125.838ZM98.6887 125.616C98.71 125.44 98.6007 125.286 98.4459 125.264C98.2684 125.22 98.115 125.33 98.0922 125.507L97.6065 128.022C97.5625 128.2 97.6733 128.355 97.8494 128.376C98.0042 128.42 98.159 128.311 98.203 128.133L98.6887 125.616Z" fill="#E17623"/>
<path fill-rule="evenodd" clip-rule="evenodd" d="M85.2438 123.806C82.7485 123.938 80.7617 124.601 80.8057 125.284C80.8284 125.991 82.8806 126.432 85.3759 126.3C87.8925 126.168 89.8793 125.506 89.8353 124.821C89.814 124.137 87.7604 123.674 85.2438 123.806Z" fill="#FF9E50"/>
</svg>
