<svg width="268" height="75" viewBox="0 0 268 75" fill="none" xmlns="http://www.w3.org/2000/svg">
<mask id="mask0_4290_6072" style="mask-type:luminance" maskUnits="userSpaceOnUse" x="0" y="0" width="268" height="75">
<path d="M0.873672 0.791016H267.126V74.4577H0.873672V0.791016Z" fill="white"/>
</mask>
<g mask="url(#mask0_4290_6072)">
<path d="M2.06186 63.7924C2.15469 65.0874 2.47029 66.3266 3.00404 67.5101C3.54243 68.6937 4.26648 69.7472 5.17617 70.6755L5.60781 71.1025C6.63354 72.1468 7.82171 72.9544 9.17233 73.5206C10.5229 74.0868 11.9293 74.37 13.3959 74.37H14.9832C15.6284 74.37 16.2642 74.3143 16.8954 74.1982L21.7688 74.0683C22.2144 74.0636 22.6553 74.0219 23.0916 73.9522L23.8899 73.8362L32.3138 73.5624C33.7016 73.5206 35.0336 73.2189 36.3054 72.6666C37.5817 72.1143 38.7095 71.3485 39.6889 70.3645L40.3758 69.6822C41.2623 68.7958 41.9724 67.784 42.5108 66.6468C43.0492 65.5144 43.3833 64.3215 43.5086 63.073C43.6897 64.0152 43.9867 64.911 44.3998 65.7743C44.8175 66.6329 45.3373 67.4266 45.9593 68.1506C46.5812 68.8747 47.2913 69.5059 48.0803 70.0443C48.8647 70.5827 49.7094 71.0143 50.6145 71.3299L51.8351 71.7615C52.8423 72.1189 53.8819 72.3185 54.9494 72.3696L67.3046 72.9497H67.8198C68.8594 72.9497 69.8851 72.8012 70.8877 72.5134L72.6142 72.0075C72.8231 71.9379 73.0366 71.8776 73.2408 71.8033C73.7699 72.0215 74.3083 72.2025 74.8606 72.3417L76.0163 72.6295C76.8796 72.843 77.7614 72.9497 78.6526 72.9497C79.2049 72.9497 79.7572 72.9079 80.3049 72.8244L81.3631 72.662H93.0823C93.8621 72.662 94.6325 72.5784 95.3937 72.4113C96.3962 72.8662 97.4405 73.1632 98.5359 73.2978L100.917 73.5902C101.372 73.6459 101.827 73.6738 102.286 73.6738H115.625C116.869 73.6738 118.08 73.4649 119.25 73.0518C120.758 73.7991 122.35 74.175 124.035 74.1797H124.634L133.949 73.6738C134.204 73.6738 134.45 73.6738 134.701 73.6041L142.865 72.5923C143.561 72.5134 144.243 72.3649 144.912 72.1514L149.827 70.5595C150.152 70.4481 150.509 70.3274 150.802 70.1881L153.642 68.9582L153.726 69.0603C154.765 70.2346 155.995 71.1443 157.425 71.7894C158.854 72.4299 160.353 72.7548 161.922 72.7501H178.533C179.889 72.7548 181.197 72.5088 182.46 72.0215C183.727 71.5341 184.859 70.8333 185.862 69.9236C186.261 70.2392 186.674 70.527 187.11 70.7915L187.834 71.2185C189.468 72.1885 191.232 72.6944 193.13 72.7455L209.955 73.1818H210.247C211.036 73.1818 211.821 73.0936 212.591 72.9172L213.009 73.0333C213.923 73.27 214.856 73.3906 215.808 73.3953C216.03 73.3953 216.258 73.3953 216.49 73.3953L227.03 72.7084L228.395 72.6202L232.841 72.3464C233.412 72.3139 233.974 72.235 234.531 72.1096L235.18 71.9658C236.791 71.6084 238.253 70.9215 239.552 69.9004C240.857 68.8839 241.873 67.6308 242.611 66.1502L243.038 65.2823C243.799 63.7507 244.18 62.1309 244.18 60.4229V49.488C244.356 48.8289 244.468 48.1606 244.514 47.4783L244.946 41.3982L248.134 37.7362L263.051 22.7495C263.483 22.3085 263.873 21.8351 264.221 21.3339C265.163 20.3221 265.887 19.171 266.393 17.8854C266.899 16.5997 267.15 15.2677 267.15 13.8846V13.0631C267.154 11.4943 266.834 9.99517 266.189 8.56565C265.544 7.13613 264.639 5.90155 263.464 4.86189L262.815 4.29102C261.817 3.40917 260.689 2.73154 259.445 2.25813C258.197 1.78936 256.906 1.55265 255.574 1.55729H250.446C249.717 1.55729 248.993 1.63155 248.278 1.77543H248.176L232.275 2.03999C230.869 2.06783 229.518 2.35095 228.218 2.89399L227.699 3.11213C227.508 2.99145 227.304 2.87542 227.104 2.76403L226.278 2.35559C224.668 1.49231 222.951 1.05603 221.122 1.05139H212.958C212.638 1.05139 212.313 1.06531 211.997 1.09316L207.834 1.45982L206.195 1.59906L201.577 2.0075C200.468 1.57586 199.317 1.33451 198.129 1.28346L191.557 0.986412C191.404 0.986412 191.237 0.986412 191.074 0.986412L179.313 1.19527C178.208 1.21384 177.132 1.39949 176.083 1.74294C175.034 2.09104 174.059 2.58766 173.163 3.22816C172.263 3.8733 171.479 4.63447 170.81 5.51168C170.142 6.39352 169.622 7.34963 169.246 8.38928L168.425 10.645L167.241 9.45678C166.921 9.13189 166.577 8.83484 166.22 8.55173L164.92 7.54456C164.326 7.08508 163.695 6.68592 163.022 6.35175L159.342 4.55093C158.989 4.37456 158.627 4.22604 158.26 4.09144L155.874 3.22352C155.132 2.95432 154.371 2.76867 153.586 2.66192L143.835 1.35772C143.45 1.30666 143.06 1.27881 142.675 1.26953L125.599 0.837891H125.316C124.536 0.837891 123.766 0.921434 123 1.09316L121.362 1.44126C120.503 1.62691 119.682 1.91931 118.897 2.30918H118.721L113.537 2.10032L112.121 2.03535L108.863 1.90539L104.574 1.72438H104.11C102.379 1.72438 100.745 2.11425 99.1996 2.88934C97.6587 3.66444 96.3684 4.74586 95.338 6.13361L95.1338 5.96188C94.4747 5.42349 93.76 4.96864 92.9895 4.59734L90.6039 3.44166C89.9123 3.10748 89.1883 2.84757 88.4411 2.66192L84.6166 1.72438C83.7626 1.51552 82.8993 1.40877 82.0175 1.41341H75.2923L69.8619 1.7151C69.3143 1.74294 68.7712 1.81256 68.2375 1.92395L65.7637 2.43914L60.5283 3.18175C60.1616 3.23744 59.795 3.30706 59.4329 3.39525L58.2494 3.68765L56.0077 3.99397C54.9959 3.02858 53.8402 2.28133 52.5453 1.76151C51.2457 1.23704 49.8951 0.97713 48.4934 0.97713L12.2402 1.19527C11.5533 1.19991 10.871 1.26489 10.1934 1.39949C9.52043 1.53408 8.86136 1.72902 8.2255 1.98429C7.585 2.2442 6.97699 2.55981 6.39683 2.93112C5.82131 3.30242 5.28292 3.72478 4.78166 4.20283C4.28504 4.67624 3.83484 5.19143 3.43104 5.75302C3.03189 6.30998 2.68379 6.90406 2.39603 7.526C2.10363 8.15257 1.87621 8.79771 1.70912 9.46606C1.54203 10.1344 1.43993 10.812 1.39815 11.4989L1.21714 14.6504L1.00364 16.0149C0.915459 16.5719 0.873688 17.1288 0.873688 17.6904V47.0281C0.873688 47.2973 0.873688 47.5525 0.873688 47.8217L2.06186 63.7924Z" fill="#FFFDFA"/>
</g>
<path d="M48.6883 18.845L48.4795 11.9062L12.282 12.1244L12.0685 15.8096L11.8039 17.6893V47.0269L12.9643 63.0209L13.3959 63.4571H14.9832L15.7769 63.3133L21.481 63.1601L22.3954 63.0255L22.9291 62.9512L23.8899 62.9141L31.9518 62.6542L32.6341 61.9719V60.4032L31.8358 57.4374L30.6522 50.3548V48.9067L35.2054 48.7628L37.9344 48.4008L38.6585 48.1873L39.3825 47.4632V37.6376L39.2386 36.5515L37.9344 35.976H31.6501L30.6383 36.1895L30.2438 28.5267L47.3191 28.0997L48.4052 27.877L48.6883 20.8547V18.845Z" fill="#77BFD6"/>
<path d="M92.052 38.2136L94.2195 34.8904L95.0874 32.839L95.4494 30.523V25.9327L94.7254 22.6049L93.2077 19.6438L90.9659 16.678L88.2368 14.4362L85.8512 13.2806L82.0268 12.3477H75.8771L70.4607 12.6308L67.6387 13.2156L62.0738 14.0046L60.3473 14.4362L56.1515 15.0164L53.3389 15.6662L53.0465 16.678V36.552L53.9098 46.3776L54.2068 61.0488L55.4275 61.4804L67.8105 62.0606L69.5417 61.5547L70.2239 60.8724L70.5117 60.1484L69.2818 48.3688V44.6093H71.8809L77.5201 61.7403L78.6711 62.0281L80.5508 61.7403H93.0823L95.1338 60.6868V59.6007L87.717 41.3233L89.4528 40.2372L92.052 38.2136ZM78.5412 24.2619L80.5926 24.7028L81.3631 25.4315L81.5069 26.0813V28.1652L81.0707 30.8432L77.8914 31.7111L75.0045 31.855L71.9087 32.2681H67.1282L66.4459 24.9209L73.38 24.2387L78.5412 24.2619Z" fill="#7985D8"/>
<path d="M118.266 13.2154L116.943 13.1319L115.579 13.0762L113.035 12.9741L111.671 12.9137L108.413 12.7838L107.048 12.7281L104.101 12.6074L103.595 15.7821L102.871 18.8175L101.72 27.0604L99.7798 52.8846L99.854 62.4921L102.235 62.7845H115.625L115.987 62.1022L119.403 18.0981V13.7213L118.266 13.2154Z" fill="#FFCE77"/>
<path d="M123.687 12.1257L125.344 11.7637L142.419 12.1953L152.166 13.4995L154.556 14.3674L158.246 16.1729L159.546 17.1847L162.071 19.7142L164.238 23.5479L165.603 27.9572L165.965 31.7816V38.5764L164.888 42.9161L162.98 47.3021L160.52 51.2704L156.909 54.821L151.28 58.0745L146.439 60.1724L141.528 61.7551L133.383 62.7808L124.068 63.2913L123.706 60.3256L123.687 12.1257ZM138.711 47.8265L142.614 46.9586L144.341 46.3785L146.077 45.2506L149.182 42.076L150.918 38.6043L151.6 35.4946V32.1436L150.458 29.331L148.657 27.5951L146.703 26.5833L141.649 25.4973H138.395L138.692 29.331L138.711 47.8265Z" fill="#7985D8"/>
<path d="M197.646 12.2033L191.074 11.9062L179.517 12.1244L162.071 60.1804L161.644 60.6863L161.356 61.1922L161.927 61.8791H178.538L178.682 60.3614L182.441 48.4333H191.9L192.411 60.7373L192.698 61.4614L193.422 61.893L210.247 62.3293L210.396 60.3753L197.646 12.2033ZM187.537 35.6836L186.888 35.8275H184.502L188.48 23.6905L189.774 28.0208L190.86 35.4701L187.537 35.6836Z" fill="#FFCE77"/>
<path d="M255.574 12.491H250.446L249.364 12.7091L243.86 12.802L241.845 12.8391L232.465 12.9923L231.607 13.3589L226.399 23.4723L226.037 23.1845L223.99 18.1255L222.691 13.5678L221.92 12.4492L221.122 12.0176H212.958L208.785 12.3842L207.189 12.5235L202.343 12.9551L201.981 13.2475L203.736 16.2458L217.316 34.9595L215.418 49.4125L214.666 61.4799L214.954 62.2828L215.752 62.4917L219.641 62.255L221.006 62.1714L226.269 61.8419L227.638 61.7537L232.085 61.4799L232.767 61.336L233.199 60.4681V48.0387L233.561 46.7391L234.21 37.6375V36.6954L235.152 36.0131L240.133 30.2996L255.3 15.053L255.588 14.5471L256.238 13.8973V13.0619L255.574 12.491Z" fill="#FF88A5"/>
</svg>
