<svg width="333" height="75" viewBox="0 0 333 75" fill="none" xmlns="http://www.w3.org/2000/svg">
<mask id="mask0_4290_6045" style="mask-type:luminance" maskUnits="userSpaceOnUse" x="0" y="0" width="333" height="75">
<path d="M0.333313 0.574219H332.333V74.1746H0.333313V0.574219Z" fill="white"/>
</mask>
<g mask="url(#mask0_4290_6045)">
<path d="M1.08389 63.3049C1.4133 64.8686 2.05127 66.2946 3.00614 67.5789L3.4398 68.1585C3.94851 68.8423 4.5281 69.4595 5.18275 70.0057C5.83741 70.5561 6.54626 71.019 7.30933 71.4026C8.07239 71.7862 8.86882 72.0739 9.6986 72.2741C10.5284 72.47 11.3748 72.5659 12.2255 72.5701H20.6067C21.2196 72.5659 21.8284 72.5159 22.433 72.42L25.9398 71.8237L27.787 71.6569C30.1763 71.4318 32.2653 70.5228 34.0541 68.9299L34.7046 68.3503C36.4934 66.7575 37.636 64.7893 38.1238 62.4459L39.012 62.4876C39.4289 62.5835 39.8459 62.6586 40.2712 62.7045L44.0324 63.134C44.4452 63.184 44.8621 63.2048 45.2749 63.2048H47.1722C47.3557 64.043 47.635 64.8519 48.0145 65.6233L48.223 66.0611C48.6524 66.9368 49.1862 67.7415 49.8325 68.4796C50.4746 69.2135 51.2043 69.8514 52.0216 70.3893C52.8347 70.9272 53.7104 71.3525 54.6402 71.6569C55.5701 71.9655 56.5208 72.1406 57.5007 72.1948L66.2196 72.6452L68.2711 72.7536L72.787 72.9829H73.3457C75.6808 72.9746 77.7949 72.2949 79.6879 70.9397L81.4184 69.7138C82.5651 68.9007 83.5158 67.9042 84.2788 66.7283L84.4623 66.8158L91.6926 69.768C92.339 70.0307 93.0061 70.2309 93.69 70.3685L97.3051 71.0898C97.8222 71.1899 98.3434 71.2566 98.8646 71.2858L102.913 71.5068H108.714C109.869 71.5068 110.994 71.3275 112.095 70.9731L114.768 70.1058C115.01 70.0266 115.248 69.9432 115.452 69.8473L116.136 69.5637L117.332 69.1801C118.312 68.9007 119.234 68.4963 120.097 67.9625L122.361 66.4739C123.612 68.5588 125.363 70.0557 127.619 70.9731L128.345 71.265C129.662 71.7945 131.03 72.0614 132.448 72.0656H137.135L139.974 72.7452C140.783 72.9287 141.605 73.0246 142.434 73.0246H147.784C149.156 73.0246 150.482 72.7744 151.762 72.2782C153.042 71.782 154.189 71.069 155.198 70.1433C157.141 71.5819 159.322 72.2991 161.745 72.3032H162.9C164.638 72.3032 166.281 71.9113 167.832 71.1315H167.887L175.463 70.9522C176.001 70.9397 176.535 70.8855 177.064 70.798L179.116 70.4435H180.054C180.367 70.4435 180.675 70.4435 180.992 70.3852C182.026 71.5277 183.248 72.4117 184.657 73.0371C186.071 73.6626 187.547 73.9753 189.09 73.9795H189.69L199.022 73.4749C199.268 73.4749 199.518 73.4332 199.773 73.4082L207.945 72.3992C208.646 72.3116 209.33 72.1615 209.997 71.9488L214.917 70.3601C215.251 70.2517 215.601 70.1266 215.893 69.9932L218.741 68.7631L218.828 68.8757C219.867 70.0432 221.105 70.9481 222.535 71.5902C223.966 72.2324 225.467 72.5493 227.035 72.5493H243.672C245.027 72.5493 246.34 72.3032 247.608 71.8196C248.872 71.3317 250.01 70.6353 251.015 69.7263C251.411 70.0391 251.824 70.3268 252.253 70.5853L252.979 71.0148C254.617 71.9822 256.39 72.4951 258.295 72.5409L275.133 72.9787H275.358C276.15 72.9746 276.934 72.887 277.705 72.7119L278.122 72.8286C279.04 73.0663 279.978 73.1872 280.924 73.1872C281.154 73.1872 281.383 73.1872 281.608 73.1872L297.958 72.1782C298.525 72.1448 299.088 72.0656 299.647 71.9405L300.297 71.7987C301.911 71.4401 303.37 70.7563 304.671 69.743C305.976 68.7256 306.994 67.4788 307.732 66.0027L308.161 65.1396C308.924 63.6093 309.304 61.9914 309.304 60.286V49.3821C309.479 48.7275 309.592 48.0603 309.642 47.3848L310.075 41.3053L313.29 37.5442L328.23 22.5831C328.664 22.1494 329.064 21.6824 329.427 21.1862C330.365 20.1771 331.091 19.0305 331.595 17.7462C332.1 16.4661 332.354 15.1359 332.354 13.7557V12.9385C332.354 11.3748 332.033 9.87785 331.391 8.4518C330.745 7.02574 329.836 5.79567 328.66 4.76157L328.026 4.19448C327.025 3.31466 325.899 2.63916 324.648 2.17215C323.402 1.70097 322.109 1.46746 320.775 1.46746H315.638C314.908 1.46746 314.187 1.54252 313.469 1.68846H313.365L297.445 1.95115C296.036 1.97617 294.685 2.26388 293.388 2.80595L292.862 3.02278C292.671 2.89769 292.47 2.7851 292.266 2.67669L291.466 2.24721C289.839 1.3799 288.105 0.950411 286.262 0.95875H278.093C277.772 0.95875 277.451 0.97126 277.13 0.996279L266.714 1.90946C265.596 1.48414 264.441 1.24229 263.245 1.18809L256.661 0.896205H256.173L244.393 1.10052C243.288 1.12137 242.212 1.30484 241.162 1.65093C240.115 1.99702 239.139 2.49322 238.243 3.13119C237.342 3.77334 236.558 4.53223 235.891 5.40788C235.22 6.2877 234.699 7.24257 234.319 8.27667L233.493 10.5242L232.301 9.33996C231.984 9.01889 231.65 8.72283 231.292 8.44763L229.991 7.43855C229.395 6.97154 228.757 6.57541 228.077 6.246L224.383 4.44467C224.032 4.27788 223.699 4.12776 223.315 3.99016L220.93 3.12285C220.184 2.85599 219.416 2.66835 218.628 2.56411L208.871 1.27148C208.483 1.22145 208.095 1.19226 207.708 1.18392L190.608 0.746094H190.328C189.54 0.746094 188.765 0.829489 187.993 0.996279L186.359 1.35071C185.57 1.5175 184.812 1.76768 184.082 2.10126H179.87C179.478 2.10126 179.087 2.12211 178.699 2.16381L174.596 2.6058H170.709L168.975 2.39732C168.541 2.34728 168.103 2.32226 167.666 2.32226C166.652 2.31809 165.656 2.45986 164.68 2.73507L163.667 3.02278C162.428 3.36887 161.29 3.91094 160.248 4.65732C158.525 3.544 156.637 2.95606 154.581 2.89769L144.92 2.62665L143.706 2.47654C143.252 2.41816 142.797 2.38898 142.338 2.38898H135.896C135.046 2.38898 134.207 2.48488 133.378 2.68086L130.642 3.3647C129.421 3.65241 128.278 4.14027 127.223 4.81994C126.164 5.50378 125.255 6.3419 124.488 7.33848L122.257 5.92493C121.436 5.40788 120.56 5.00758 119.63 4.71987L114.497 3.13119C114.005 2.98108 113.505 2.86433 112.996 2.7851L106.341 1.70097C106.116 1.66761 105.891 1.63008 105.657 1.6134L100.612 1.07967C100.249 1.07967 99.8779 1.02547 99.5151 1.02547C98.4893 1.02547 97.4803 1.16724 96.492 1.44661L95.754 1.65927L93.1812 1.75517C91.5801 1.81355 90.0664 2.20551 88.632 2.92687L85.0794 4.73238C84.7333 4.91168 84.3914 5.09932 84.0787 5.30364L81.4059 7.03825C80.7637 7.45523 80.1758 7.93475 79.6337 8.47265L79.2501 8.85627C78.854 8.08069 78.3703 7.36349 77.8032 6.7005C77.2319 6.04168 76.594 5.45792 75.8851 4.94921C75.1763 4.4405 74.4174 4.02352 73.6084 3.69828C72.7995 3.36887 71.9614 3.1437 71.0982 3.01444L69.1468 2.7309C68.6172 2.65167 68.0877 2.61414 67.5539 2.61414H51.5629C50.9208 2.61414 50.2828 2.66835 49.649 2.7851L48.8484 2.92687C46.5842 3.33134 44.6411 4.34876 43.0191 5.97496L42.8064 6.19179C42.6897 6.06253 42.5771 5.93744 42.452 5.81651L42.0893 5.45375C41.1302 4.49887 40.0252 3.74415 38.7868 3.19374C37.5442 2.64333 36.2433 2.33477 34.8881 2.26388L32.6781 2.15547L30.8935 1.84274C30.268 1.73433 29.6342 1.68012 29.0004 1.68012H26.6111C26.2192 1.68012 25.8272 1.70097 25.4353 1.74267L21.4531 2.17215C21.1946 2.17215 20.9403 2.23887 20.6901 2.28056L20.0604 2.39732H17.9297C16.4244 2.39732 14.9733 2.69337 13.589 3.28964L13.0803 3.50647C12.263 3.8609 11.4999 4.30706 10.7911 4.84496C10.0822 5.38286 9.44841 5.99998 8.88967 6.69633C8.33092 7.38851 7.86391 8.13907 7.4928 8.948C7.11752 9.75276 6.84649 10.5951 6.6797 11.4665L5.73733 16.366C5.68729 16.5912 5.65394 16.8247 5.62892 17.0498L0.49178 57.6299C0.33333 58.8308 0.383367 60.0275 0.633552 61.2117L1.08389 63.3049Z" fill="#FFFDFA"/>
</g>
<path d="M73.5459 37.0109L71.8154 28.5797L70.5853 19.0393L70.2226 17.5257L69.9349 14.7194L69.4845 13.8062L67.5331 13.5185H51.5629L50.7623 13.6895L49.6824 14.7736L48.2313 18.0844L41.6514 29.447L41.1469 27.4038L35.722 15.7327L34.9298 14.5818L34.7088 13.4977L34.346 13.1391L31.4522 13.0057L29.0004 12.5762H26.6111L22.629 13.0057L21.0362 13.2934H17.9297L17.4251 13.5102L16.4828 18.4138L11.3456 58.9939L11.7835 61.0829L12.213 61.6625H20.6067L21.3739 61.5333L23.4254 61.1955L24.5179 61.0079L26.7612 60.7994L27.4117 60.2198V57.989L29.7217 38.462L30.1596 38.0284L34.9506 50.425L35.1424 51.1756L35.8638 51.4591L40.8592 51.6801L41.543 51.897L45.3041 52.3264H47.1096L47.9019 52.1096L48.4106 51.4591L49.7157 48.0524L51.8089 43.7326L53.1141 41.6894L54.5568 38.8039L57.8551 60.8661L58.0677 61.3039L60.4153 61.4248L62.5335 61.5333L66.8075 61.7543L68.8174 61.8627L73.3332 62.092L75.0637 60.8661V50.9963L73.5459 37.0109Z" fill="#90AAE8"/>
<path d="M125.768 26.9889L124.467 22.9567L123.525 21.5932L122.728 20.2297L119.309 16.994L116.348 15.1176L111.207 13.5164L104.548 12.4323L101.262 12.107L99.4901 11.9277L97.4386 12.5073L93.5315 12.6491L91.8094 13.5248L89.983 14.4504L87.3061 16.1809L86.076 17.4068L85.3921 18.6369L82.9361 21.3013L81.7936 23.1861L81.4809 23.6781L79.4085 27.998L78.4703 30.8126L77.8907 33.9148V40.3988L78.7581 44.2892L80.6386 48.6174L81.7936 50.6606L86.0635 55.1264L88.5945 56.7901L95.8207 59.7381L99.44 60.4637L103.489 60.6805H108.701L111.378 59.8132L112.462 59.3795L114.051 58.875L115.068 58.1912L116.799 57.0612L121.644 52.537L123.695 49.2178L124.379 47.8543L125.138 46.299L126.439 39.8859L126.877 35.7954V31.6799L125.768 26.9889ZM111.299 35.5702L110.432 39.1687L109.276 40.9492L106.821 42.9924L103.635 44.506L99.8779 44.2892L97.7805 43.7847L94.7407 42.6338L92.8602 40.3279L92.3556 38.9644L91.9929 37.1589L92.3556 33.4854L92.8602 31.8967L93.9485 29.8118L95.2494 28.4483L96.7672 27.3183L98.9355 26.2342L99.3566 26.1716L100.958 25.9464H104.865L106.821 26.6303L109.493 28.5025L110.865 30.5499L111.295 31.5589L111.299 35.5702Z" fill="#FF88A5"/>
<path d="M183.773 13.0039H179.87L175.171 13.5084H170.026L167.641 13.2249L166.627 13.5084L166.34 14.3007L165.76 23.7452V34.4198L165.472 34.2029L160.114 24.0412L158.538 21.6603L155.423 15.6767L154.297 13.8045L144.098 13.5168L142.359 13.3H135.896L133.161 13.9463L132.731 14.8886V35.2871L131.205 57.4785V59.6426L131.71 60.8643L132.435 61.1562H138.365L142.409 62.0777H147.755L148.118 61.6483L149.56 34.3864L151.616 41.0872L154.944 49.2641L161.136 60.7976L161.715 61.3689H162.874L163.742 60.8643L166.415 60.1847L175.171 59.972L178.132 59.4591H180.012L180.596 59.1756L181.964 45.1193L182.251 29.6954L182.973 25.6091L183.911 14.8678L184.349 14.1839V13.5376L183.773 13.0039Z" fill="#7985D8"/>
<path d="M230.641 27.7898L229.274 23.3907L227.105 19.5671L224.574 17.0485L223.273 16.0395L219.579 14.2381L217.219 13.375L207.462 12.0782L190.362 11.6445L188.698 12.0031V60.0721L189.061 63.0326L198.392 62.528L206.599 61.519L211.515 59.9303L216.364 57.8371L221.96 54.5805L225.579 51.0487L228.039 47.0916L229.924 42.6925L231.004 38.3685V31.6051L230.641 27.7898ZM216.614 35.287L215.964 38.381L214.225 41.8419L211.114 45.0401L209.376 46.1909L207.645 46.7414L203.738 47.6087V29.1575L203.446 25.3338H206.703L211.765 26.418L213.72 27.4271L215.526 29.1575L216.614 31.9679V35.287Z" fill="#77BFD6"/>
<path d="M262.761 12.0809L256.206 11.7891L244.581 12.0059L227.097 59.933L226.668 60.4376L226.38 60.9421L226.955 61.6218H243.588L243.73 60.1123L247.495 48.216H256.973L257.478 60.4876L257.766 61.209L258.491 61.6385L265.421 61.8136L267.473 61.8678L275.312 62.0721L275.462 60.1249L262.761 12.0809ZM255.96 35.2898L252.628 35.4983L251.982 35.6442H249.593L253.575 23.5394L254.872 27.8593L255.96 35.2898Z" fill="#90AAE8"/>
<path d="M320.762 12.3677H315.625L314.545 12.5845L297.616 12.8722L296.753 13.2308L291.541 23.3174L291.178 23.0339L289.126 17.9885L287.83 13.4435L287.062 12.326L286.262 11.8965H278.093L267.464 12.8305L267.102 13.1224L268.84 16.1496L278.827 29.8556L282.438 34.8093L281.391 42.8194L280.557 49.2241L279.832 61.2622L280.12 62.0586L280.92 62.2713L297.245 61.2288L297.929 61.0829L298.362 60.2198V47.8231L298.725 46.5263L299.125 40.9221L299.371 37.4487V36.5064L300.318 35.8267L305.305 30.1266L306.614 28.8132L320.5 14.8904L320.787 14.3858L321.438 13.7353V12.9389L320.762 12.3677Z" fill="#FFCE77"/>
</svg>
