<svg width="387" height="75" viewBox="0 0 387 75" fill="none" xmlns="http://www.w3.org/2000/svg">
<mask id="mask0_4290_6058" style="mask-type:luminance" maskUnits="userSpaceOnUse" x="0" y="0" width="387" height="75">
<path d="M0.575806 0.654297H386.758V74.597H0.575806V0.654297Z" fill="white"/>
</mask>
<g mask="url(#mask0_4290_6058)">
<path d="M328.381 73.5677C329.18 73.5677 329.969 73.4784 330.745 73.3092L331.088 73.3985C332.037 73.657 333.005 73.7886 333.988 73.7886C334.218 73.7886 334.448 73.7886 334.679 73.7886L351.142 72.7688C351.716 72.7359 352.284 72.656 352.848 72.5291L353.501 72.3787C355.123 72.0168 356.585 71.3306 357.896 70.3107C359.202 69.2909 360.227 68.036 360.97 66.5556L361.411 65.6814C362.187 64.1304 362.572 62.4902 362.572 60.756V49.7442C362.746 49.0815 362.859 48.4095 362.911 47.7233L363.343 41.59L366.638 37.8301L381.644 22.6872C382.077 22.2595 382.476 21.7989 382.838 21.3101C383.787 20.2903 384.52 19.1294 385.033 17.8322C385.545 16.5351 385.799 15.1862 385.799 13.7904V12.9773C385.804 11.4028 385.484 9.8895 384.84 8.45134C384.192 7.00849 383.28 5.76773 382.1 4.71497L381.414 4.13218C380.403 3.24391 379.266 2.55774 378.006 2.08305C376.747 1.61307 375.445 1.37337 374.096 1.37807H368.926C368.198 1.37807 367.479 1.45327 366.769 1.58957H366.652L350.602 1.86686C349.206 1.89506 347.866 2.18175 346.579 2.72223L346.01 2.96192C345.831 2.84443 345.643 2.74103 345.46 2.63763L344.661 2.20525C343.016 1.29348 341.258 0.832891 339.383 0.828191H331.154C330.829 0.828191 330.505 0.842292 330.181 0.87519L319.705 1.83866C318.572 1.39687 317.397 1.15248 316.185 1.10078L309.558 0.814092C309.403 0.814092 309.243 0.814092 309.083 0.814092L297.226 1.01149C296.112 1.03498 295.026 1.21828 293.969 1.57077C292.911 1.91856 291.929 2.41674 291.022 3.06532C290.115 3.7092 289.325 4.47527 288.653 5.36354C287.976 6.25182 287.45 7.21528 287.069 8.26335L286.242 10.5334L285.044 9.34432C284.724 9.02003 284.386 8.71924 284.028 8.44195L282.717 7.42208C282.115 6.95209 281.476 6.55261 280.79 6.21892L278.562 5.12855L277.044 4.38128C276.697 4.21678 276.353 4.06169 275.996 3.93479L273.59 3.05592C272.838 2.78803 272.063 2.60003 271.268 2.49194L261.455 1.18538C261.06 1.13368 260.665 1.10078 260.271 1.09608L243.05 0.654297H242.778C241.998 0.654297 241.232 0.734194 240.47 0.898689L238.797 1.25588C236.767 1.70236 235.004 2.65173 233.51 4.09929L231.874 3.30501C231.179 2.96662 230.459 2.70813 229.712 2.52954L225.854 1.55197C224.984 1.34048 224.105 1.23708 223.217 1.23238H216.416L210.974 1.54257C210.438 1.58017 209.902 1.64597 209.371 1.74936L206.843 2.26634L201.579 3.00892C201.184 3.06532 200.794 3.14522 200.409 3.24391L199.267 3.5353L196.559 3.90659L195.685 4.02409C195.333 4.06639 194.99 4.13219 194.647 4.21678L192.372 4.74316C191.817 4.57867 191.253 4.45647 190.675 4.38128L189.58 4.24028C188.753 3.93479 187.898 3.7327 187.019 3.6387L175.434 2.32274C175.02 2.28044 174.606 2.25225 174.193 2.25225H172.52C170.992 2.25225 169.526 2.55774 168.125 3.16872L166.617 2.47784C165.761 2.07365 164.864 1.77756 163.933 1.59897L161.24 1.06318C160.559 0.936289 159.868 0.87049 159.172 0.87049H158.636L146.835 1.45327C145.599 1.51907 144.405 1.78226 143.254 2.25225C142.873 2.17705 142.488 2.12065 142.098 2.07835L136.589 1.57077C136.251 1.57077 135.899 1.52847 135.56 1.52847H135.302L111.13 2.10185L100.081 1.47677H99.4559C98.8167 1.47207 98.1822 1.52847 97.5572 1.64126L94.6433 2.14885C93.9853 2.26634 93.3461 2.44024 92.721 2.67053C91.1278 1.72116 89.4076 1.20418 87.5559 1.12428L80.9432 0.804692H80.4544L68.6014 1.02089C67.4875 1.03968 66.4019 1.22768 65.3444 1.57547C64.2869 1.92326 63.3047 2.42144 62.3976 3.07002C61.4952 3.7139 60.7057 4.47997 60.0289 5.36824C59.3568 6.25181 58.8304 7.21528 58.445 8.26335L57.5803 10.6509C57.1103 10.0399 56.5839 9.48531 56.0011 8.98713L55.4183 8.47484C54.3703 7.54897 53.1859 6.844 51.8699 6.36931L51.1791 6.12022C50.5352 5.66903 49.8443 5.29305 49.1158 4.99226L45.5862 3.54C44.745 3.19222 43.8708 2.94782 42.9684 2.81153L34.6497 1.57077C34.1092 1.49557 33.5687 1.45327 33.0235 1.45327H26.6882C25.5367 1.45327 24.4087 1.63186 23.3137 1.98435L19.2342 3.29091C18.6655 3.47421 18.1203 3.7045 17.5892 3.98179L14.3323 5.64554C13.7918 5.92283 13.2748 6.24242 12.7907 6.6043L10.8262 8.05656C9.98959 8.67224 9.25642 9.39131 8.62664 10.2185L5.79263 13.9267C5.16285 14.7491 4.65996 15.6374 4.28398 16.6009L2.82702 20.3185C2.59203 20.92 2.40404 21.5404 2.27714 22.1749L1.76956 24.7504C1.68026 25.2063 1.62386 25.6669 1.59096 26.1275L1.21498 31.2785C1.14448 32.3266 1.21967 33.3605 1.43587 34.3898L2.27714 38.0886C2.53093 39.3387 2.99152 40.5137 3.6542 41.6041L3.5602 41.8297C3.22181 42.6145 2.97742 43.4229 2.82702 44.2642L1.07868 53.7955C0.961183 54.4535 0.900085 55.1161 0.900085 55.7882V59.1345C0.900085 60.7231 1.22437 62.2411 1.88235 63.6887C2.53563 65.1409 3.4662 66.3864 4.65996 67.4344L5.24744 67.9467C6.30491 68.8585 7.49867 69.5494 8.81933 70.01L11.0753 70.8089C11.7473 71.0439 12.4335 71.2131 13.1385 71.3165L19.4081 72.2659C19.6948 72.3082 19.9909 72.3458 20.2823 72.3646L22.8108 72.5432L24.6155 72.8675C25.2641 72.985 25.9221 73.0461 26.5848 73.0461H34.0904C34.9834 73.0461 35.8576 72.938 36.7223 72.7312L41.4551 71.5609C41.911 71.4481 42.3527 71.3118 42.7898 71.1473L44.1152 70.635C45.0928 71.4387 46.1831 72.0497 47.3722 72.4774C48.5659 72.9051 49.7973 73.1213 51.0616 73.1213H67.7883C69.1513 73.1213 70.4719 72.8769 71.7456 72.3834C73.0193 71.8899 74.166 71.1896 75.1765 70.2731C75.5619 70.5786 75.9661 70.8559 76.389 71.1097L77.1128 71.5468C78.7719 72.5432 80.5719 73.0696 82.5035 73.1166L99.4794 73.5536H99.7614C101.618 73.5536 103.366 73.1072 105.002 72.2189C105.932 72.4774 106.882 72.6043 107.845 72.6137H109.518C110.11 72.6137 110.698 72.562 111.281 72.468L113.1 72.1719H119.369C120.088 72.3176 120.817 72.3928 121.555 72.3928H124.102C125.662 72.3928 127.152 72.0732 128.576 71.4434L129.267 71.152C131.542 70.1322 133.276 68.5295 134.46 66.3347L134.902 65.5357C135.805 63.9002 136.265 62.1518 136.279 60.2813V51.704L136.425 52.0988C136.707 52.9072 137.088 53.6733 137.558 54.3971L140.547 58.9888C140.782 59.346 141.035 59.6844 141.308 60.0134L144.875 64.309C145.369 64.9529 145.923 65.5357 146.539 66.0574L148.8 67.8057C149.843 68.6094 150.99 69.211 152.245 69.6105L160.187 72.0826C160.709 72.2471 161.245 72.374 161.79 72.4539L164.629 72.8957C165.183 72.9756 165.747 73.0179 166.307 73.0179H172.858C174.118 73.0179 175.335 72.8158 176.524 72.3975L180.458 71.0204C181.323 70.7149 182.14 70.306 182.906 69.7985L184.871 68.4872C185.285 68.2052 185.679 67.895 186.055 67.5613C187.395 69.5353 189.19 70.9264 191.441 71.7301L192.673 72.1719C193.707 72.5385 194.769 72.75 195.864 72.797L199.116 72.9568L200.493 73.0132L208.337 73.375H208.854C209.907 73.375 210.936 73.2294 211.947 72.938L213.69 72.4257C213.902 72.3646 214.109 72.2941 214.325 72.2189C214.851 72.4398 215.396 72.6231 215.956 72.7641L217.121 73.0508C218.545 73.4032 219.984 73.469 221.436 73.2529L222.507 73.0884H234.393C234.854 73.0837 235.314 73.0555 235.77 72.9991C237.533 74.08 239.441 74.6205 241.509 74.6158H242.12L246.007 74.4043L247.741 74.315L251.515 74.1082C251.773 74.1082 252.018 74.0659 252.267 74.0377L260.496 73.0179C261.201 72.9333 261.887 72.7782 262.564 72.562L267.386 71.0063C267.776 70.8888 268.157 70.7478 268.528 70.588L269.652 70.0993L271.381 69.3567L271.428 69.4178C272.476 70.6115 273.722 71.5374 275.174 72.1954C276.621 72.8487 278.139 73.1777 279.728 73.1777H296.384C297.752 73.1777 299.073 72.9333 300.346 72.4398C301.625 71.9463 302.767 71.246 303.782 70.3248C304.153 70.6256 304.548 70.8982 304.957 71.1473L305.69 71.5938C307.358 72.5949 309.163 73.1213 311.109 73.1683L322.736 73.4643L324.193 73.516L328.08 73.61L328.381 73.5677Z" fill="#FFFDFA"/>
</g>
<path d="M21.0249 61.3895L14.76 60.4401L12.5041 59.6411L11.9213 59.1335V55.7873L13.6697 46.2419L14.182 45.081H17.3121L20.8839 45.3019L26.5567 47.116L29.1416 47.4685L31.5432 47.1818L33.9401 46.6695L34.2362 45.8706L33.9401 44.5593L33.0706 43.2481L27.9713 42.9614L18.91 40.0616L14.8352 37.8714L13.0164 35.7659L12.208 32.0483L12.6075 26.8832L13.1198 24.3359L14.5438 20.6183L17.3825 16.9101L19.3518 15.4485L22.6229 13.7753L26.707 12.4688H33.0471L41.3095 13.7095L44.8109 15.1618L45.497 15.815L48.1901 16.7644L48.7775 17.272V19.0203L46.5169 24.7495L45.7884 28.6832L45.0976 29.3365L42.2259 29.1344L39.3872 27.9735L33.6252 26.1265H31.3646L30.5186 27.0289L29.9405 30.0838L30.7865 30.9486L32.7511 31.7428L38.8656 32.7627L42.5079 33.6369L46.0751 35.9633L47.7389 38.52L49.0454 41.0673L49.8021 43.7744V50.5375L49.1159 53.5266L48.0867 55.4912L47.0668 56.5862L42.9356 59.2745L38.8045 60.8819L34.0717 62.0427H26.5567L24.155 61.6104L21.0249 61.3895Z" fill="#77BFD6"/>
<path d="M82.7903 62.1208L82.0571 61.6837L81.7704 60.9506L81.2581 48.5618H71.7221L67.9294 60.5746L67.7884 62.102H51.0381L50.4506 61.4112L50.742 60.9036L51.1791 60.396L68.8082 12.0299L80.4545 11.8184L87.0859 12.1051L99.9024 60.5934L99.7614 62.5579L82.7903 62.1208ZM76.2293 35.9145L76.8873 35.7688L80.2383 35.5479L79.1432 28.0516L77.8366 23.6808L73.8277 35.9145H76.2293Z" fill="#FFCE77"/>
<path d="M106.971 59.862L106.604 50.3965L107.042 38.6892L107.662 33.2891V28.9229H102.995L98.6288 29.5762L95.5739 29.3553L95.2637 27.8279L95.7713 14.7952L96.0674 13.5638L96.5797 12.9763L99.4889 12.4688L110.994 13.122L135.612 12.5439L141.073 13.0515L141.759 13.4134L142.051 14.1419L141.83 14.6495L141.538 29.9428L141.101 30.7418H134.211L129.389 31.0285L127.133 30.7418L125.315 30.3047L125.239 60.2944L124.802 61.1028L124.116 61.3895H121.564L120.69 61.1686H112.211L109.518 61.6104H107.845L107.338 61.3895L106.971 59.862Z" fill="#7985D8"/>
<path d="M155.549 59.0552L153.293 57.3162L149.721 53.0206L146.732 48.4335L146.003 46.3703L144.918 33.4833L145.496 20.6715L146.732 14.0447V13.1236L147.423 12.4703L159.219 11.8828L161.922 12.3951L163.449 13.1236L163.886 13.852L161.818 26.9364L161.527 31.6692V41.5906L161.893 44.9368L162.472 46.1024L163.491 47.1176L164.511 47.4842H168.008L169.827 46.9766L171.068 45.7358L171.58 44.0627L172.454 36.4912L171.942 13.9225L172.529 13.2693H174.202L185.778 14.5852L186.436 14.9424L189.279 15.3043L189.646 21.7854V28.7036L188.175 42.3895L187.014 46.7839L186.281 48.6074L184.321 52.4613L181.262 56.8322L178.78 59.3043L176.811 60.6202L172.882 61.9973H166.33L163.487 61.5649L155.549 59.0552Z" fill="#FFCE77"/>
<path d="M233.341 38.3154L235.521 34.9644L236.4 32.8964L236.762 30.57V25.936L236.034 22.5897L234.506 19.6006L232.245 16.6209L229.491 14.3649L227.085 13.1994L223.226 12.25H217.027L211.566 12.5461L208.732 13.1242L203.807 13.815L203.116 13.909L202.43 14.0829L201.367 14.3508L199.356 14.6234L198.012 14.8114L197.138 14.9289L194.299 15.6151L194.012 16.635V36.6422L194.877 46.5401L195.173 61.3164L196.409 61.7582L199.619 61.9086L201.029 61.9697L204.389 62.1295L205.767 62.1906L208.859 62.3363L210.603 61.824L211.294 61.1707L211.58 60.4422L210.339 48.5798V44.7917H212.967L218.649 62.0449L219.814 62.3363L221.708 62.0449H234.393L236.461 60.9498V59.8642L228.965 41.4455L230.713 40.3551L233.341 38.3154ZM219.716 24.2628L221.784 24.6952L222.559 25.4425L222.705 26.1287V28.1966L222.263 30.8849L219.062 31.7591L216.148 31.9048L213.042 32.3231H208.22L207.491 24.8973L214.48 24.2064L219.716 24.2628Z" fill="#FF88A5"/>
<path d="M283.37 27.9756L283.084 27.0451L282.52 25.2403L281.989 23.5343L279.803 19.6804L277.256 17.1331L275.949 16.1132L273.656 15.0041L272.415 14.3931L272.199 14.2897L269.797 13.4155L267.457 13.1053L265.892 12.8985L259.97 12.1043L256.44 12.015L254.776 11.9727L242.801 11.6719L241.128 12.0291V60.5926L241.495 63.5723L245.405 63.3608L247.116 63.2715L250.89 63.0647L259.119 62.0448L264.012 60.4704H264.101L265.257 59.9675L268.984 58.3649L274.633 55.0421L275.639 54.0598L276.72 52.9976L278.276 51.4796L280.753 47.4706L282.642 43.0293L283.737 38.6678V31.8342L283.37 27.9756ZM269.247 35.5471L268.556 38.6819L266.808 42.1692L263.706 45.4074L261.944 46.54L260.2 47.1181L256.271 47.9923V29.3574L255.975 25.5035H259.251L264.35 26.5892L266.319 27.6091L268.143 29.3574L269.238 32.2008L269.247 35.5471Z" fill="#7985D8"/>
<path d="M315.71 12.1051L309.083 11.8184L297.428 12.0299L279.803 60.443L279.371 60.9506L279.079 61.4629L279.657 62.149H296.384L296.525 60.6216L300.318 48.6088H309.863L310.366 61.0023L310.662 61.7307L311.391 62.1725L318.098 62.3417H319.479L323.089 62.431L324.499 62.4733L328.381 62.572L328.536 60.6075L315.71 12.1051ZM305.516 35.7688L304.863 35.9145H302.456L306.461 23.6808L307.777 28.0516L308.862 35.5479L305.516 35.7688Z" fill="#77BFD6"/>
<path d="M332.888 61.7576L333.616 49.5991L335.506 35.039L321.825 16.1785L320.086 13.1236L320.447 12.8369L331.154 11.8828H339.383L340.182 12.3246L340.981 13.4902L342.297 18.0725L344.365 23.1671L344.727 23.4632L349.967 13.2693L350.846 12.9027L367.883 12.616L368.978 12.3951H374.153L374.839 12.9779V13.7769L374.153 14.4677L373.861 14.9753L358.54 30.3062L353.511 36.0541L352.566 36.7873V37.7273L351.913 46.9061L351.546 48.2126V60.7377L351.105 61.6119L350.451 61.7576L333.988 62.7728L333.189 62.5566L332.888 61.7576Z" fill="#FFCE77"/>
</svg>
