<svg width="395" height="75" viewBox="0 0 395 75" fill="none" xmlns="http://www.w3.org/2000/svg">
<mask id="mask0_4290_6084" style="mask-type:luminance" maskUnits="userSpaceOnUse" x="0" y="0" width="395" height="75">
<path d="M0.461487 0.65625H394.205V74.5938H0.461487V0.65625Z" fill="white"/>
</mask>
<g mask="url(#mask0_4290_6084)">
<path d="M391.275 21.4626C392.218 20.4458 392.942 19.2943 393.448 18.0035C393.95 16.7127 394.205 15.3755 394.205 13.9918V13.1932C394.205 11.6331 393.889 10.138 393.253 8.71256C392.617 7.28711 391.721 6.05668 390.556 5.01197L389.906 4.43157C388.903 3.5308 387.77 2.84362 386.511 2.36073C385.253 1.87784 383.948 1.64104 382.602 1.64104H377.462C376.733 1.64104 376.009 1.71533 375.294 1.85927H375.191L359.228 2.14714C357.817 2.175 356.461 2.45823 355.161 3.00613L354.632 3.229C354.464 3.12221 354.283 3.02006 354.107 2.91791L353.304 2.47681C351.669 1.57139 349.919 1.11636 348.048 1.10708H339.894C339.574 1.10708 339.253 1.12101 338.928 1.14887L328.518 2.07285C327.381 1.65033 326.211 1.42281 324.999 1.38567L318.443 1.06993H317.965L306.18 1.27888C305.075 1.29745 303.998 1.48317 302.944 1.83141C301.895 2.17965 300.92 2.67646 300.019 3.31722C299.118 3.96262 298.333 4.72873 297.665 5.61093C296.991 6.49313 296.471 7.45426 296.091 8.49897L295.264 10.7602L294.071 9.57154C293.755 9.25116 293.416 8.94936 293.059 8.67541L291.759 7.65856C291.169 7.19425 290.533 6.79958 289.855 6.46992L286.159 4.6498C285.811 4.47801 285.458 4.32478 285.091 4.19013L282.705 3.32186C281.952 3.04791 281.186 2.85755 280.397 2.76004L270.618 1.45532C270.233 1.41353 269.843 1.39031 269.448 1.38567L252.338 0.953855H252.064C251.289 0.953855 250.528 1.03743 249.771 1.1953L248.104 1.55282C246.126 1.98463 244.403 2.89933 242.931 4.29228L241.877 3.85582C241.037 3.50759 240.173 3.2615 239.277 3.12685L231.026 1.89177C230.492 1.81748 229.954 1.78034 229.41 1.77569H223.114C221.967 1.77569 220.848 1.95213 219.757 2.30501L215.709 3.60974C215.142 3.79082 214.594 4.01833 214.069 4.29228L210.819 5.95917C210.29 6.22383 209.789 6.52563 209.315 6.87387L208.094 7.77928L206.041 6.09846C205.378 5.55522 204.658 5.09554 203.882 4.72409L201.496 3.56795C200.804 3.21971 200.084 2.95041 199.332 2.76004L195.492 1.81284C194.633 1.60389 193.765 1.4971 192.883 1.4971H186.127L180.699 1.78962C180.165 1.82677 179.636 1.89641 179.111 1.99856L176.599 2.50931L171.348 3.25686C170.967 3.31257 170.591 3.39151 170.22 3.48437L169.068 3.77225L165.502 4.27835C165.168 4.32014 164.838 4.38514 164.509 4.46408L162.243 4.98875C161.699 4.82624 161.142 4.70552 160.58 4.63123L159.443 4.48729C158.644 4.19477 157.822 3.99976 156.982 3.89761L156.295 3.81403L154.182 3.57259L152.125 3.34043L145.421 2.57896C145.012 2.53253 144.603 2.50931 144.195 2.50931H142.505C140.977 2.51395 139.514 2.82504 138.122 3.44258L136.645 2.76004C135.805 2.33751 134.932 2.03107 134.012 1.8407L131.278 1.31602C130.595 1.19066 129.912 1.13029 129.221 1.13494C128.956 1.13494 128.687 1.13494 128.422 1.13494L116.953 1.7014C115.885 1.75712 114.845 1.96606 113.833 2.32823C112.723 1.95213 111.581 1.76641 110.411 1.76176H105.949C105.545 1.76176 105.141 1.78498 104.737 1.83141L100.168 2.33751C99.6066 2.22608 99.0355 2.15179 98.4597 2.12857L95.6785 2.07285L94.6802 1.92892C93.2826 1.7339 91.8943 1.80819 90.5246 2.14714L89.3685 2.43502C88.3748 2.68111 87.4369 3.06185 86.5501 3.57259C86.1415 3.32186 85.7236 3.0897 85.2871 2.89005L84.3492 2.45824C83.337 1.99392 82.2784 1.68747 81.1733 1.54353L75.4947 0.791345C75.0397 0.730984 74.58 0.703125 74.125 0.703125H66.6402C66.3291 0.703125 66.0134 0.712411 65.6977 0.74027L60.7017 1.17208C59.3551 1.29281 58.0783 1.64568 56.8664 2.23536L52.604 1.8407C52.2651 1.80819 51.9215 1.78962 51.5825 1.78962H51.3225L27.3035 2.36073L16.276 1.73855C16.0671 1.73855 15.8581 1.73855 15.6492 1.73855C15.0177 1.73855 14.3862 1.78962 13.7594 1.90106L10.8667 2.40716C9.6363 2.62539 8.47552 3.03863 7.38902 3.65617C6.29788 4.26906 5.34139 5.04447 4.51956 5.98703L4.01345 6.57207C2.82945 7.94179 2.02618 9.50654 1.61294 11.2756L1.32507 12.5014C1.1672 13.1793 1.07434 13.8665 1.04184 14.5583L0.818964 20.3204L0.740031 22.3402L0.53109 27.5545C0.493945 28.3809 0.554305 29.2074 0.712172 30.02L1.00933 31.5568C1.12077 32.1465 1.27864 32.7269 1.48294 33.2887C1.69188 33.8552 1.94261 34.3985 2.23512 34.9231C2.53229 35.4478 2.86659 35.9446 3.24269 36.4136C3.61878 36.8779 4.03202 37.3144 4.48241 37.7137C4.92815 38.113 5.4064 38.4751 5.9125 38.8002C6.4186 39.1205 6.95256 39.3991 7.5051 39.6313C8.05763 39.8681 8.6241 40.0538 9.20913 40.1931C9.79417 40.337 10.3839 40.4299 10.9828 40.4717L12.1808 40.5553L11.8232 50.0691C11.8232 50.343 11.8232 50.6263 11.8232 50.9095L12.1668 60.3165C12.1947 61.0316 12.2922 61.742 12.4593 62.4384L12.8494 63.9614C13.2487 65.6468 14.0009 67.1559 15.1106 68.4838C16.2203 69.8071 17.5714 70.8147 19.1548 71.5065L19.6701 71.7247C21.0538 72.3237 22.5025 72.6209 24.0115 72.6209H25.6784C26.2727 72.6209 26.867 72.5744 27.4521 72.4769L29.2443 72.1844H35.4058C36.1255 72.3283 36.8544 72.4026 37.5881 72.4026H40.1232C41.6647 72.4026 43.1413 72.0915 44.5528 71.4647L45.2353 71.1768C47.5058 70.1646 49.2331 68.5674 50.4171 66.3758L50.5285 66.1715C51.0671 67.8384 51.954 69.2917 53.189 70.5314L53.4769 70.8193C54.4984 71.8547 55.6824 72.6534 57.0196 73.2152C58.3569 73.777 59.7545 74.0649 61.2078 74.0695H64.6855C65.2287 74.0695 65.772 74.0277 66.3152 73.9442L71.8638 73.1084L79.7293 72.9041C81.3172 72.8669 82.8216 72.5001 84.2471 71.799C86.1322 73.1223 88.2262 73.7816 90.5246 73.7816H92.5769C93.134 73.7816 93.6819 73.7399 94.2298 73.6563H97.09L98.0001 73.7491C98.3622 73.7491 98.6873 73.8002 99.0819 73.8002H100.67C101.617 73.8002 102.546 73.6795 103.465 73.4381H103.525L103.79 73.4938C104.528 73.6516 105.276 73.7259 106.028 73.7259C106.706 73.7259 107.375 73.6656 108.034 73.5402L109.989 73.178C111.716 72.8577 113.276 72.1565 114.669 71.0793L115.352 70.5732C116.526 69.6446 117.469 68.5256 118.179 67.2116L118.945 67.8106C119.981 68.6092 121.123 69.2035 122.372 69.5935L130.256 72.059C130.785 72.2262 131.324 72.3516 131.872 72.4398L134.7 72.8716C135.247 72.9505 135.795 72.9923 136.348 72.9923H142.858C144.102 72.997 145.309 72.788 146.479 72.3748L150.389 71.005C151.262 70.6986 152.083 70.29 152.854 69.77L154.809 68.4606C155.218 68.182 155.603 67.8802 155.965 67.5552C157.312 69.5239 159.099 70.9075 161.342 71.7108L162.572 72.1519C163.598 72.5094 164.652 72.7184 165.734 72.7648L178.113 73.3452H178.619C179.659 73.3452 180.681 73.1966 181.679 72.9041L183.415 72.398C183.638 72.333 183.847 72.268 184.061 72.189C184.586 72.4119 185.124 72.593 185.677 72.7323L186.833 73.0202C187.701 73.2338 188.583 73.3405 189.475 73.3452C190.032 73.3405 190.584 73.3034 191.132 73.2198L192.191 73.0527H203.952C205.73 73.0573 207.411 72.6487 208.99 71.8269L209.867 71.3765L215.857 72.2819C216.145 72.3191 216.438 72.3562 216.725 72.3748L219.237 72.5559L221.039 72.8762C221.684 72.9923 222.339 73.0527 222.998 73.0527H230.451C231.337 73.0527 232.206 72.9459 233.065 72.7416L237.777 71.5761C238.223 71.4647 238.664 71.3254 239.096 71.1629L241.947 70.0578C242.453 70.759 243.033 71.3858 243.688 71.9476C244.343 72.5094 245.058 72.983 245.824 73.3777C246.59 73.7724 247.393 74.0695 248.234 74.2692C249.07 74.4735 249.919 74.5756 250.783 74.5756H251.386L260.724 74.0695C260.97 74.0695 261.221 74.0277 261.476 73.9999L269.653 72.9877C270.354 72.8994 271.036 72.7462 271.71 72.5326L276.631 70.9354C276.956 70.8332 277.281 70.7125 277.597 70.5732L280.448 69.3381L280.504 69.3985C281.544 70.5872 282.779 71.5065 284.209 72.1612C285.644 72.8112 287.143 73.1409 288.717 73.1455H305.368C306.728 73.1455 308.038 72.8994 309.305 72.4119C310.573 71.9197 311.71 71.2186 312.718 70.3039C313.08 70.5964 313.461 70.8611 313.855 71.1025L314.538 71.539C316.223 72.5651 318.048 73.0991 320.017 73.1455H320.899L331.165 73.4102L336.844 73.5634H337.132C337.921 73.5588 338.701 73.4706 339.472 73.3034L339.815 73.3916C340.758 73.6516 341.724 73.7816 342.703 73.7816C342.931 73.7816 343.158 73.7816 343.386 73.7816L359.748 72.7648C360.315 72.7323 360.881 72.6534 361.438 72.528L362.121 72.3841C363.737 72.0172 365.195 71.3254 366.495 70.2993C367.795 69.2731 368.812 68.0149 369.541 66.529L369.973 65.6561C370.734 64.1193 371.119 62.4895 371.115 60.7762V49.8044C371.291 49.1405 371.403 48.4718 371.454 47.7893L371.885 41.6789L375.126 37.9598L390.077 22.8742C390.514 22.4377 390.913 21.9641 391.275 21.4626Z" fill="#FFFDFA"/>
</g>
<path d="M57.6605 13.6254L57.0104 13.2679L51.5826 12.7618L27.1178 13.3375L15.6771 12.6875L12.7844 13.1936L12.2783 13.7786L11.9904 15.0044L11.7629 20.7387L11.6886 22.7956L11.4843 28.0052L11.7676 29.5003L14.8088 29.7186L19.1548 29.0685H23.8026V33.4145L23.2222 38.7866L22.7858 50.4409L23.1201 59.8898L23.4822 61.4127L23.9883 61.6309H25.6599L28.3343 61.1945H36.7431L37.6113 61.4127H40.1419L40.829 61.1248L41.233 60.3541L41.3026 30.4893L43.1135 30.9211L45.3608 31.209L50.1525 30.9211H56.9965L57.4329 30.1225L57.6001 21.5513V19.4944L57.6883 14.9209L57.9065 14.4148L57.6605 13.6254Z" fill="#7985D8"/>
<path d="M110.43 12.763H105.949L99.5045 13.4827L97.9862 13.1205L94.6617 12.9766L93.1388 12.763L91.9826 13.0509L91.0401 24.4359L91.3279 32.1899L88.0731 31.7581H82.427L78.7311 32.2642V30.8713L80.9087 16.589V13.6266L80.6905 12.8327L79.7526 12.4008L74.0972 11.6719H66.6403L61.6443 12.1037L61.2078 12.4008V13.1205L61.3564 13.6266L60.92 62.7929L61.2078 63.0808H64.6855L70.9074 62.1383L79.4508 61.92L80.319 61.0425L79.9336 50.6836L79.5065 48.0695H89.271L90.1439 48.5756V62.2915L90.5061 62.7976H92.5584L93.5056 62.6536H97.6101L99.0634 62.7976H100.651L101.956 62.4354H104.635L106.005 62.7233L107.955 62.3611L108.638 61.8504L110.574 15.7857L110.718 14.5553V13.1205L110.43 12.763Z" fill="#FFCE77"/>
<path d="M159.15 15.5116L157.098 15.2469L156.332 15.1494L155.645 14.7919L154.962 14.713L152.905 14.4762L150.853 14.244L148.309 13.9561L146.233 13.7286L144.181 13.4965H142.505L141.92 14.1465L142.426 36.624L141.557 44.1691L141.051 45.836L139.821 47.0711L138.01 47.5772H134.532L133.52 47.215L132.508 46.1982L131.96 45.0234L131.598 41.6943V31.8323L131.886 27.1148L133.938 14.0861L133.506 13.3618L131.96 12.6143L131.175 12.461L129.221 12.1035H129.146L126.894 12.215L124.652 12.3264L121.318 12.4889L119.159 12.6003L117.501 12.6793L116.851 13.334V14.2812L115.621 20.8744L115.068 33.6152L116.146 46.4535L116.874 48.5104L119.846 53.0747L123.389 57.3556L125.636 59.0875L133.52 61.5577L136.348 61.9895H142.858L146.767 60.6198L148.726 59.3104L151.183 56.8449L154.229 52.4943L156.179 48.6544L156.903 46.8343L158.064 42.4883L159.513 28.856V21.9609L159.15 15.5116Z" fill="#FF88A5"/>
<path d="M202.94 38.4147L205.108 35.0762L205.981 33.0193L206.343 30.6978V26.0732L205.614 22.7394L204.105 19.7631L201.858 16.7962L199.119 14.5442L196.732 13.3881L192.883 12.4688H186.721L181.294 12.7613L178.466 13.337L172.894 14.1356L171.158 14.5721L166.96 15.1478L164.133 15.784L163.845 16.8008V36.7617L164.722 46.6423L165.01 61.3565L166.24 61.7976L178.619 62.3733L180.356 61.8626L181.006 61.18L181.303 60.451L180.068 48.6389V44.864H182.673L188.319 62.0483L189.475 62.3362L191.36 62.0483H203.952L206.056 60.9572V59.8892L198.599 41.5395L200.34 40.4716L202.94 38.4147ZM192.372 28.3344L191.94 31.0135L188.778 31.9003L185.881 32.0443L182.765 32.4807H177.974L177.249 25.0842L184.205 24.397H189.414L191.467 24.8288L192.2 25.5903L192.344 26.2775L192.372 28.3344Z" fill="#77BFD6"/>
<path d="M217.529 61.4127L211.307 60.4655L209.027 59.6715L208.442 59.1654V55.8316L210.183 46.3271L210.689 45.1663H213.805L217.348 45.3892L223.003 47.2L225.538 47.5622L227.925 47.2743L230.316 46.7682L230.604 45.9696L230.316 44.6602L229.448 43.3601L224.373 43.0723L215.397 40.1703L211.367 37.988L209.561 35.8893L208.758 32.1887L209.12 27.0441L209.626 24.509L211.079 20.8037L213.898 17.1078L215.857 15.6545L219.117 13.9922L223.17 12.6875H229.466L237.712 13.9226L241.19 15.3666L241.877 16.0213L244.552 16.9638L245.137 17.4746V19.2158L242.857 24.9408L242.128 28.8549L241.487 29.5003L238.59 29.2821L235.734 28.1306L230.014 26.3198H227.795L226.931 27.1881L226.351 30.234L227.219 31.1069L229.164 31.9008L235.228 32.927L238.845 33.7999L242.397 36.1168L244.06 38.6613L245.36 41.1964L246.089 43.8987V50.6406L245.402 53.6169L244.422 55.5577L243.41 56.6488L239.3 59.3279L235.196 60.9252L230.492 62.086H223.003L220.616 61.6541L217.529 61.4127Z" fill="#FFCE77"/>
<path d="M292.409 28.1304L291.039 23.7054L288.861 19.9027L286.331 17.3629L285.031 16.3507L281.335 14.5306L278.953 13.6623L269.174 12.3576L252.064 11.9258L250.398 12.2833V60.6185L250.76 63.5855L260.125 63.0979L268.306 62.0857L273.228 60.4885L278.08 58.3898L283.721 55.1256L287.352 51.5504L289.813 47.5619L291.698 43.137L292.78 38.791V31.9749L292.409 28.1304ZM278.368 35.6708L277.718 38.791L275.981 42.2688L272.866 45.4632L271.134 46.6426L269.393 47.2184L265.488 48.0913V29.5001L265.191 25.6602H268.45L273.516 26.7421L275.475 27.7589L277.281 29.5001L278.368 32.3324V35.6708Z" fill="#7985D8"/>
<path d="M333.9 47.7343L331.272 37.7655L324.549 12.3582L317.965 12.0703L306.38 12.2839L288.861 60.4659L288.43 60.972L288.146 61.4827L288.717 62.1652H305.368L305.512 60.6469L308.284 51.825L309.254 48.6537H318.745L319.241 60.9952L319.539 61.7195L320.254 62.1606H321.187L331.453 62.4253L337.132 62.5692L337.28 60.6191L333.9 47.7343ZM314.417 35.8897L313.73 36.0336H311.376L315.072 24.6997L315.355 23.85L315.49 24.3189L316.66 28.2053L317.742 35.6714L314.417 35.8897Z" fill="#FFCE77"/>
<path d="M382.602 12.6137H377.462L376.38 12.832L359.437 13.1199L358.578 13.482L353.359 23.6366L352.997 23.3301L350.945 18.2552L349.645 13.7281L348.851 12.572L348.048 12.1309H339.894L329.257 13.0456L328.895 13.3334L330.631 16.3747L344.24 35.1562L342.36 49.6614L341.635 61.7754L341.923 62.5694L342.722 62.7923L359.084 61.7754L359.767 61.6315L360.199 60.7632V48.2871L360.561 46.987L361.248 37.8446V36.9067L362.191 36.1777L367.182 30.4527L382.384 15.1489L382.672 14.6428L383.359 13.9928V13.1941L382.602 12.6137Z" fill="#FF88A5"/>
</svg>
