<svg width="330" height="75" viewBox="0 0 330 75" fill="none" xmlns="http://www.w3.org/2000/svg">
<mask id="mask0_4290_6032" style="mask-type:luminance" maskUnits="userSpaceOnUse" x="0" y="0" width="330" height="75">
<path d="M0.748047 0.689453H329.252V74.0594H0.748047V0.689453Z" fill="white"/>
</mask>
<g mask="url(#mask0_4290_6032)">
<path d="M1.28853 31.3319C1.39993 31.9178 1.55671 32.4913 1.763 33.0483C1.96517 33.6094 2.21272 34.1499 2.50566 34.6656C2.79859 35.1855 3.13279 35.6764 3.50411 36.1427C3.87956 36.6047 4.28802 37.0338 4.72949 37.4299C5.17508 37.8301 5.64543 38.1849 6.14878 38.5068C6.65213 38.8245 7.17611 39.1009 7.72485 39.3319C8.27359 39.563 8.8347 39.7486 9.41232 39.8889C9.99406 40.0292 10.5799 40.12 11.1699 40.1612L12.3582 40.252L12.0034 49.6589C12.0034 49.9395 12.0034 50.2077 12.0034 50.4882L12.3458 59.8291C12.3706 60.5388 12.4654 61.2443 12.6346 61.9333L13.0224 63.4434C13.2163 64.2644 13.5052 65.0566 13.8806 65.8116C14.2602 66.5666 14.7223 67.2722 15.2628 67.9199C15.8033 68.5677 16.4139 69.1453 17.0905 69.6528C17.7672 70.1561 18.4933 70.577 19.269 70.9153L19.7764 71.1339C21.1503 71.7281 22.582 72.0251 24.0756 72.021H25.73C26.32 72.021 26.9059 71.9756 27.4876 71.8807L29.2576 71.5878H35.401C36.1148 71.7363 36.8327 71.8065 37.5588 71.8065H40.0673C41.5939 71.8065 43.0586 71.497 44.4572 70.8823L45.1339 70.5976C46.2272 70.1066 47.2133 69.4547 48.0921 68.6419C48.9709 67.8291 49.6971 66.8926 50.2664 65.8405L50.6996 65.0442C51.5908 63.4269 52.0447 61.694 52.0571 59.8498V51.3835L52.1932 51.7714C52.482 52.5759 52.8575 53.3351 53.3196 54.0488L56.2613 58.5707C56.4882 58.9256 56.7358 59.2639 57.0081 59.5857L60.4944 63.8353C60.9895 64.4625 61.5506 65.0236 62.1777 65.5228L64.4016 67.2474C65.4248 68.0478 66.5553 68.6378 67.793 69.0256L75.6115 71.4723C76.1272 71.6373 76.6553 71.7569 77.1917 71.8395L79.9849 72.2686C80.5295 72.3552 81.0782 72.3965 81.6311 72.3965H88.0881C89.3258 72.3965 90.5264 72.1902 91.6899 71.7776L95.5641 70.4202C96.4223 70.119 97.2268 69.7147 97.9818 69.2113L99.9169 67.9199C100.086 67.8044 100.247 67.6765 100.412 67.5527C100.573 67.7714 100.738 67.9942 100.907 68.2335L101.266 68.6584C102.215 69.8013 103.354 70.709 104.674 71.3856C105.998 72.0623 107.401 72.446 108.882 72.545L118.566 73.2258C118.805 73.2258 119.048 73.2258 119.284 73.2258H143.663C145.895 73.2216 147.929 72.5904 149.769 71.3237L152.48 71.7363C152.765 71.7858 153.058 71.8106 153.351 71.8312L155.847 72.0086L157.633 72.3346C158.273 72.4501 158.912 72.5079 159.56 72.5037H166.966C167.845 72.5079 168.707 72.4006 169.557 72.1943L174.223 71.0432C174.673 70.9359 175.114 70.7956 175.544 70.6306L178.362 69.5372C178.861 70.2263 179.438 70.8534 180.086 71.4063C180.738 71.9632 181.444 72.4377 182.203 72.8255C182.962 73.2134 183.758 73.5104 184.587 73.7085C185.421 73.9106 186.263 74.0097 187.117 74.0138C187.31 74.0138 187.509 74.0138 187.711 74.0138L196.961 73.5104C197.204 73.5104 197.456 73.5104 197.708 73.4444L205.811 72.4377C206.504 72.3552 207.185 72.2108 207.845 71.9962L212.722 70.4119C213.035 70.3129 213.34 70.1974 213.638 70.0654L214.203 69.8302L216.505 68.8235L216.6 68.9307C217.635 70.0984 218.857 71.0019 220.276 71.6373C221.695 72.2768 223.185 72.5945 224.74 72.5945H241.231C242.58 72.5945 243.88 72.3511 245.134 71.8683C246.393 71.3856 247.519 70.6925 248.517 69.7889C248.885 70.0819 249.272 70.3542 249.677 70.5976L250.382 70.9565C252.02 71.9509 253.794 72.4707 255.713 72.5202L272.423 72.9452H272.707C273.487 72.9452 274.263 72.8586 275.026 72.6894L275.34 72.776C276.28 73.036 277.242 73.1639 278.219 73.1639C278.442 73.1639 278.669 73.1639 278.9 73.1639L295.106 72.1572C295.668 72.1242 296.225 72.0499 296.773 71.9261L297.454 71.7858C299.047 71.4351 300.487 70.7544 301.774 69.7559C303.061 68.7533 304.072 67.5238 304.806 66.0633L305.24 65.201C306.011 63.662 306.399 62.0282 306.399 60.3036V49.4361C306.568 48.7884 306.675 48.1324 306.725 47.464L307.158 41.399L310.318 37.6692L312.352 35.631L315.777 32.1818L321.718 26.187L325.11 22.7914C325.559 22.3541 325.968 21.8755 326.335 21.3639C327.276 20.3572 328.002 19.2143 328.509 17.9312C329.013 16.6439 329.264 15.3154 329.264 13.9332V13.1452C329.26 11.598 328.938 10.121 328.303 8.71404C327.668 7.30712 326.772 6.09 325.617 5.06266L324.982 4.47267C323.983 3.57736 322.865 2.89247 321.619 2.418C320.369 1.9394 319.078 1.7001 317.745 1.7001H312.65C311.932 1.7001 311.218 1.77436 310.516 1.91877H310.401L294.611 2.18695C293.221 2.20758 291.884 2.48814 290.605 3.0245L290.052 3.25554C289.891 3.1524 289.73 3.0575 289.557 2.97086L288.773 2.53352C287.144 1.62996 285.394 1.18024 283.529 1.17612H275.426C275.108 1.17612 274.787 1.19262 274.469 1.22563L264.154 2.16219C263.044 1.72485 261.889 1.48143 260.697 1.42779L254.174 1.14311H253.699L242.027 1.34528C240.93 1.36591 239.861 1.54744 238.822 1.89401C237.782 2.23646 236.812 2.72744 235.921 3.36694C235.03 4.00232 234.25 4.76148 233.59 5.63616C232.926 6.50671 232.406 7.45978 232.031 8.49124L231.209 10.7398L230.038 9.55983C229.716 9.23389 229.373 8.93271 229.01 8.65627L227.719 7.64957C227.137 7.19985 226.518 6.81202 225.858 6.49021L222.203 4.68721C221.852 4.51393 221.493 4.36127 221.126 4.22512L218.754 3.36281C218.011 3.09464 217.252 2.90485 216.472 2.8017L206.789 1.51031C206.401 1.4608 206.013 1.42779 205.621 1.41954L199.606 1.27101L188.717 0.986328H188.437C187.669 0.986328 186.914 1.06884 186.168 1.22975L184.517 1.58458C182.558 2.00954 180.845 2.91722 179.389 4.29938L178.341 3.85792C177.52 3.50722 176.666 3.25967 175.783 3.11939L167.605 1.89814C167.073 1.81562 166.541 1.77436 166.005 1.77436H159.766C158.632 1.77436 157.526 1.94765 156.449 2.29835L152.435 3.58974C151.874 3.77127 151.333 3.9982 150.813 4.26638L150.137 4.63358C149.217 3.74652 148.177 3.041 147.009 2.52114C145.846 2.00129 144.624 1.69597 143.354 1.6052L142.079 1.49381L141.658 1.41542C140.986 1.27926 140.309 1.20912 139.624 1.205L115.426 0.986328C115.013 0.986328 114.601 1.00696 114.192 1.05234L109.819 1.55569C107.525 1.82387 105.52 2.73156 103.803 4.27463C103.218 4.10134 102.623 3.98169 102.017 3.91568L90.6131 2.62429C90.2046 2.57478 89.8003 2.55415 89.3918 2.55415H87.7415C86.2397 2.55415 84.7998 2.85534 83.4217 3.45358L81.9364 2.77282C81.0948 2.36849 80.2118 2.07968 79.2918 1.91052L76.6471 1.39479C75.9746 1.26689 75.2979 1.20087 74.613 1.205C74.4356 1.205 74.2624 1.205 74.0767 1.205L62.4624 1.77436C61.2412 1.84038 60.0653 2.10443 58.9348 2.5624C58.5511 2.48814 58.1674 2.43863 57.7837 2.40562L52.4036 1.89814C52.0653 1.86101 51.727 1.84038 51.3804 1.84038H51.137L27.3391 2.41387L16.4139 1.79499C16.2117 1.79499 16.0013 1.79499 15.795 1.79499C15.1679 1.79499 14.5449 1.84863 13.926 1.9559L11.0544 2.45925C9.83316 2.6738 8.67792 3.09051 7.59695 3.70113C6.51598 4.31176 5.56703 5.08742 4.75012 6.02811L4.24676 6.60573C3.07915 7.95488 2.29111 9.50207 1.88678 11.2432L1.6021 12.4603C1.44532 13.1287 1.35455 13.8095 1.32567 14.4985L0.814061 27.3794C0.781054 28.2004 0.842942 29.0132 0.999723 29.8219L1.28853 31.3319Z" fill="#FFFDFA"/>
</g>
<path d="M57.4165 13.5733L56.7729 13.2143L51.3928 12.7027L27.1576 13.2804L15.8239 12.6367L12.9564 13.1401L12.4531 13.7136L12.1684 14.9307L12.0611 17.7363L11.9786 19.7744L11.8342 23.4794L11.7558 25.5135L11.665 27.7992L11.9497 29.3051L14.9616 29.5238L19.269 28.876H23.8734V33.1834L23.2958 38.5058L22.8626 50.054L23.1968 59.4073L23.5557 60.9132L24.055 61.1319H25.7094L27.8755 60.7647L28.3747 60.6822H36.6924L37.5506 60.9009H40.0632L40.7399 60.6162L41.1731 59.8199L41.2432 30.2293L43.038 30.6584L45.2618 30.9431L50.0106 30.6584H56.7935L57.2267 29.8704L57.3216 24.8781L57.3629 22.8399L57.4083 20.121L57.4495 18.0828L57.5114 14.7698L57.726 14.2664L57.4165 13.5733Z" fill="#7985D8"/>
<path d="M71.04 58.62L68.8203 56.8954L65.3092 52.6541L62.3675 48.1321L61.6455 46.094L60.5769 33.4029L61.171 20.7613L62.3923 14.226V13.2894L63.0359 12.6416L74.6543 12.0723L77.3072 12.5756L78.8049 13.2894L79.234 14.0073L77.1958 26.9171L76.9111 31.5834V41.3781L77.2659 44.6788L77.8436 45.8341L78.8461 46.8408L79.8487 47.1997H83.2938L85.0844 46.6964L86.3057 45.4751L86.809 43.8248L87.6672 36.3529L87.168 14.0816L87.7373 13.4049H89.3836L100.792 14.6963L101.435 15.0553L104.228 15.4142L104.575 21.8423V28.6334L103.143 42.1373L102.025 46.4983L101.307 48.2931L99.3681 52.1053L96.3562 56.4127L93.922 58.8552L91.9828 60.1466L88.1087 61.5081H81.6517L78.8585 61.0708L71.04 58.62Z" fill="#FFCE77"/>
<path d="M109.27 61.2069V60.2703L108.907 56.6066V42.818L110.677 12.786L111.04 12.3569L115.426 11.8535L139.521 12.0722L140.598 12.2826L142.533 12.4311L143.036 17.6751V26.7272L142.533 27.2264L124.457 26.5498L124.247 32.8004L127.403 32.4374H135.539L136.402 32.9407L136.831 33.803V39.1171L136.451 44.2496L136.022 45.7597L135.234 46.1187L127.057 45.7597L125.023 45.4008L124.519 50.0753L142.302 50.5003L143.094 50.9294L143.453 52.3693L143.737 60.6293L143.882 60.9139V61.3513L143.663 62.2796H119.304L109.629 61.603L109.27 61.2069Z" fill="#FF88A5"/>
<path d="M181.769 40.8761L180.474 38.3511L178.828 35.8302L175.317 33.5321L171.715 32.6863L165.691 31.6796L163.764 30.8792L162.898 30.0293L163.467 27.0133L164.342 26.1221H166.566L172.231 27.9169L175.032 29.0639L177.891 29.2825L178.572 28.6348L179.257 24.7647L179.789 23.4032L180.532 21.5507L181.485 19.1123V17.3877L180.915 16.8844L178.25 15.9313L177.607 15.2877L174.17 13.8931L165.988 12.6719H159.75L155.735 13.9633L152.509 15.6136L150.574 17.0535L147.773 20.6884L146.345 24.3563L145.842 26.8689L145.483 31.9643L146.271 35.6322L148.065 37.7116L152.08 39.8736L160.971 42.7452L165.988 43.0298L166.85 44.3212L167.135 45.6167L166.85 46.4048L164.486 46.9081L162.118 47.1928L159.61 46.8339L154.015 45.0391L150.5 44.8246H147.414L146.914 45.9716L146.118 50.3202L145.734 52.4409L145.198 55.3867V58.6874L145.767 59.1908L147.979 59.9788L154.143 60.9154L157.229 61.134L159.593 61.5631H166.966L171.632 60.4161L175.7 58.8318L179.773 56.1748L180.775 55.0938L181.778 53.1588L182.421 50.2088V43.5332L181.769 40.8761Z" fill="#7985D8"/>
<path d="M228.383 27.9402L227.703 25.8278L227.026 23.5585L224.876 19.7545L222.368 17.2419L221.072 16.2352L217.417 14.4363L215.049 13.574L205.365 12.2826L199.337 12.1341L188.437 11.8535L186.791 12.2083V60.1259L187.15 63.0676L196.4 62.5643L204.536 61.5617L209.413 59.9774L209.92 59.7587L214.215 57.898L219.777 54.6509L222.937 51.5524L223.362 51.1316L225.796 47.179L227.661 42.7974L228.742 38.49V31.7525L228.383 27.9402ZM205.576 46.8324L201.701 47.6947V29.3058L201.417 25.5018H204.647L209.664 26.5745L211.595 27.5812L213.394 29.3058L214.438 32.1114V35.4121L213.761 38.5065L212.037 41.9474L209.012 45.1408L207.292 46.2878L205.576 46.8324Z" fill="#77BFD6"/>
<path d="M260.222 12.2827L253.7 11.998L242.242 12.2085L224.868 59.9775L224.435 60.4809L224.15 60.9842L224.728 61.6608H241.219L241.363 60.1549L245.093 48.3014H254.483L254.987 60.5304L255.271 61.2483L255.989 61.6815L272.699 62.1106L272.843 60.1755L260.222 12.2827ZM250.184 35.6309L249.508 35.7753H247.139L251.088 23.7031L252.375 28.0146L253.452 35.4122L250.184 35.6309Z" fill="#FF88A5"/>
<path d="M317.737 12.5678H312.645L311.564 12.7865L294.789 13.0711L293.926 13.4301L292.619 15.984L291.595 17.9685L289.293 22.4533L288.765 23.4806L288.406 23.1877L288.13 22.5069L286.397 18.1789L286.285 17.7705L285.695 15.7323L285.105 13.6983L284.289 12.5348L283.505 12.1016H275.426L264.881 13.0381L264.53 13.3228L265.578 15.1712L266.259 16.3388L266.894 17.2217L271.437 23.493L272.843 25.428L274.626 27.887L276.185 30.049L279.453 34.5503L279.738 34.9464L279.544 36.5554L278.863 41.3909L278.628 43.1981L277.84 49.3126L277.786 50.1914L277.679 52.0934L277.51 55.2909L277.378 57.4735L277.155 61.2775L277.44 62.0655L278.228 62.2801L294.463 61.2775L295.106 61.1331L295.54 60.2708V47.9139L295.895 46.6225L296.055 44.3409L296.204 42.3027L296.542 37.5456V36.638L297.297 36.0521L297.475 35.9159L299.29 33.8324L302.426 30.2429L302.69 29.9788L304.724 27.9407L308.115 24.5039L310.059 22.5069L314.036 18.5007L316.07 16.4626L317.423 15.1011L317.716 14.6018L318.36 13.9211V13.1454L317.737 12.5678Z" fill="#FFCE77"/>
</svg>
