<svg width="445" height="75" viewBox="0 0 445 75" fill="none" xmlns="http://www.w3.org/2000/svg">
<mask id="mask0_4290_6017" style="mask-type:luminance" maskUnits="userSpaceOnUse" x="0" y="0" width="446" height="75">
<path d="M0.330811 0.400391H445.003V74.3483H0.330811V0.400391Z" fill="white"/>
</mask>
<g mask="url(#mask0_4290_6017)">
<path d="M0.768298 18.4577L7.20059 63.1921C7.29434 63.8379 7.44538 64.4733 7.64851 65.0931L8.17455 66.6087C8.66413 68.0723 9.42455 69.3691 10.461 70.5098C11.4975 71.6504 12.7214 72.5306 14.1277 73.1504L14.7787 73.4369C16.185 74.0619 17.6589 74.3744 19.1954 74.3744H19.56C20.3985 74.3744 21.2266 74.2806 22.0443 74.0879H23.8204C24.3256 74.0879 24.8308 74.0514 25.3308 73.9837L26.4975 73.8223L27.9558 74.0046C28.4089 74.0619 28.862 74.0879 29.3204 74.0879H34.6641C36.7162 74.0879 38.6173 73.5514 40.3673 72.4837C42.1693 73.6348 44.1329 74.2129 46.2735 74.2129H60.935C61.5339 74.2129 62.1277 74.1608 62.7162 74.0671L64.4506 73.7806C66.7579 73.4004 68.7423 72.3796 70.3933 70.7233L70.7579 70.3639C71.2371 69.8796 71.6693 69.3535 72.0496 68.791C72.9975 69.8223 74.1016 70.6452 75.3621 71.2546C76.6225 71.8639 77.9558 72.2129 79.3516 72.3119L89.1068 72.9941C89.3464 72.9941 89.5912 72.9941 89.8308 72.9941H114.393C114.654 72.9941 114.899 72.9941 115.154 72.9941C116.482 73.541 117.867 73.8171 119.305 73.8223H119.909L129.227 73.3171C129.477 73.3171 129.727 73.2754 129.977 73.2494L138.143 72.2337C138.836 72.1504 139.524 71.9994 140.19 71.7858L145.06 70.2077C145.409 70.0931 145.747 69.9681 146.081 69.8223L150.919 67.7233C151.3 67.5566 151.669 67.3691 152.029 67.166L155.966 64.8952C156.529 66.2598 157.336 67.4629 158.383 68.4994C159.43 69.541 160.643 70.3327 162.013 70.8848L162.732 71.1712C164.034 71.6921 165.388 71.9525 166.794 71.9577H171.461L174.289 72.64C175.102 72.8275 175.925 72.916 176.758 72.9212H182.107C183.477 72.9212 184.8 72.6712 186.081 72.1712C187.357 71.6712 188.503 70.9577 189.513 70.0306C191.456 71.4629 193.638 72.1712 196.055 72.1608H197.211C198.945 72.1608 200.591 71.7702 202.143 70.9837H202.19L209.721 70.7962C210.247 70.7806 210.768 70.7285 211.289 70.6452L213.341 70.2858H214.289C215.159 70.291 216.013 70.1869 216.852 69.9785C218.638 71.4108 220.675 72.2077 222.961 72.3587L232.711 73.041C232.951 73.041 233.195 73.041 233.435 73.041H257.992C260.242 73.041 262.289 72.4004 264.143 71.1296L266.878 71.5462C267.164 71.5879 267.451 71.6191 267.737 71.64L270.237 71.8171L272.018 72.1452C272.675 72.265 273.331 72.3223 273.992 72.3223H281.435C282.32 72.3223 283.195 72.2181 284.06 72.0046L288.758 70.8431C289.201 70.7337 289.638 70.5983 290.065 70.4316L292.914 69.3379C293.94 70.7494 295.227 71.8535 296.784 72.6452C298.336 73.4421 299.987 73.8379 301.732 73.8431H302.32L305.3 73.6869L311.654 73.3379C311.914 73.3379 312.164 73.2962 312.425 73.2702L313.518 73.1244L315.622 72.8691L320.576 72.2546C321.263 72.166 321.935 72.015 322.591 71.8066L327.503 70.2129C327.841 70.1035 328.169 69.9785 328.487 69.8431L331.315 68.6139L331.425 68.7389C332.466 69.9056 333.701 70.8119 335.128 71.4525C336.56 72.0931 338.055 72.4108 339.622 72.4056H356.237C357.591 72.4056 358.904 72.1608 360.164 71.6712C361.43 71.1869 362.565 70.4889 363.57 69.5775C363.951 69.8848 364.352 70.166 364.774 70.416L365.497 70.8483C367.138 71.8379 368.919 72.3535 370.836 72.4056L387.669 72.8379H387.961C388.747 72.8379 389.529 72.7441 390.294 72.5723L390.638 72.666C391.581 72.9212 392.539 73.0462 393.513 73.0514C393.737 73.0514 393.966 73.0514 394.195 73.0514L410.524 72.0358C411.096 72.0046 411.659 71.9212 412.221 71.7962L412.867 71.6556C414.477 71.2962 415.925 70.6139 417.221 69.5983C418.518 68.5879 419.539 67.3431 420.274 65.8744L420.711 65.0046C421.482 63.4629 421.867 61.8327 421.867 60.1139V49.1764C422.034 48.515 422.149 47.8483 422.201 47.166L422.633 41.0775L425.899 37.3066L440.815 22.3118C441.253 21.8743 441.649 21.4056 442.008 20.9056C442.951 19.89 443.675 18.7441 444.185 17.4577C444.69 16.166 444.945 14.8327 444.945 13.4473V12.6348C444.951 11.0671 444.628 9.57227 443.992 8.13997C443.352 6.71289 442.445 5.47331 441.274 4.43164L440.591 3.85872C439.591 2.97852 438.466 2.30143 437.216 1.82747C435.966 1.35872 434.675 1.12435 433.336 1.12435H428.206C427.487 1.12435 426.774 1.19727 426.065 1.33789H425.951L410.034 1.61393C408.643 1.63997 407.31 1.92122 406.029 2.45247L405.471 2.68685C405.289 2.57747 405.107 2.4681 404.925 2.36914L404.128 1.93164C402.497 1.05143 400.753 0.613933 398.899 0.619141H390.768C390.445 0.619141 390.122 0.634765 389.805 0.660807L379.378 1.58268C378.258 1.14518 377.096 0.90039 375.893 0.848307L369.32 0.561849H368.841L357.076 0.764974C355.977 0.785807 354.904 0.973307 353.857 1.32227C352.815 1.67122 351.841 2.16602 350.945 2.80664C350.05 3.45247 349.268 4.21289 348.607 5.08789C347.94 5.9681 347.419 6.92643 347.044 7.96289L346.221 10.2181L344.992 9.02539C344.669 8.69727 344.326 8.39518 343.961 8.10872L342.664 7.09831C342.076 6.64518 341.445 6.25456 340.779 5.92643L337.096 4.11914C336.742 3.94727 336.388 3.79622 336.024 3.66081L333.638 2.79622C332.888 2.52539 332.117 2.33789 331.331 2.23372L321.586 0.936849C321.19 0.879557 320.794 0.848307 320.399 0.848307L315.029 0.707682L308.784 0.546224L306.8 0.499349L303.388 0.410807H303.096C302.315 0.405599 301.534 0.494141 300.768 0.660807L299.107 1.01497C297.154 1.44727 295.445 2.3431 293.987 3.70768L292.94 3.27018C292.102 2.92122 291.237 2.68164 290.336 2.54622L282.096 1.31706C281.565 1.23372 281.024 1.19727 280.487 1.19727H274.201C273.055 1.19206 271.935 1.36914 270.846 1.72331L266.8 3.02539C266.242 3.20768 265.706 3.43685 265.19 3.70768L264.466 4.07747C263.544 3.18685 262.503 2.47331 261.336 1.94727C260.169 1.42122 258.945 1.10872 257.664 1.00977L256.404 0.921224L255.987 0.837891C255.31 0.702475 254.628 0.629557 253.935 0.619141L229.534 0.400391C229.117 0.400391 228.701 0.421224 228.289 0.468099L223.883 0.978516C222.638 1.12435 221.456 1.47331 220.336 2.0306C219.591 1.85872 218.836 1.77539 218.07 1.77018H214.169C213.774 1.77018 213.383 1.79102 212.992 1.83268L208.893 2.27539H205.013L203.284 2.06185C202.846 2.01497 202.409 1.98893 201.971 1.98893C200.951 1.98372 199.951 2.12435 198.966 2.4056L197.956 2.69727C196.732 3.04622 195.602 3.5931 194.576 4.33789C192.857 3.21289 190.966 2.62435 188.914 2.56706L179.258 2.29622L178.039 2.14518C177.586 2.08268 177.133 2.05664 176.675 2.05664H170.242C169.393 2.05664 168.555 2.1556 167.721 2.34831L164.992 3.03581C162.721 3.57747 160.82 4.72852 159.284 6.48893C158.966 6.29102 158.638 6.10872 158.305 5.94206L154.617 4.13997C154.268 3.9681 153.914 3.81706 153.55 3.68164L151.149 2.79622C150.404 2.52539 149.638 2.33789 148.852 2.23372L139.096 0.936849C138.711 0.884765 138.326 0.853515 137.935 0.848307L120.904 0.400391H120.622C119.836 0.400391 119.06 0.483723 118.294 0.655599L116.622 1.01497C116.3 1.08789 115.982 1.16602 115.68 1.26497C115.149 1.13997 114.612 1.05664 114.07 1.00977L112.774 0.916016L112.352 0.832682C111.675 0.697266 110.992 0.624349 110.3 0.619141L85.9298 0.400391C85.5183 0.4056 85.1068 0.426432 84.6954 0.478516L80.2891 0.983724C79.8256 1.04102 79.3725 1.12435 78.9193 1.24414C78.1485 1.07227 77.3621 0.983724 76.5704 0.983724H69.2423C68.7423 0.983724 68.2423 1.01497 67.7423 1.08789L65.9193 1.29102L60.1798 1.49414C57.5808 1.5931 55.2996 2.50456 53.3516 4.22852L52.7735 4.73372C51.1381 6.18164 50.0287 7.95768 49.4558 10.0671L49.0912 11.3379C48.6016 11.1296 48.1016 10.9629 47.586 10.8327L45.5339 10.3171C44.8621 10.1504 44.1798 10.041 43.4818 10.0046L39.487 9.76497L39.4037 9.50977C38.8725 7.89518 38.0027 6.47852 36.8048 5.27018L35.435 3.90039C33.6745 2.13477 31.56 1.0931 29.0912 0.775391L27.4298 0.567057C26.9766 0.504557 26.5183 0.478516 26.0652 0.478516H25.7058L14.6954 0.848307C13.7475 0.879557 12.8204 1.0306 11.9141 1.30664L8.78392 2.24935C7.44017 2.6556 6.21622 3.30143 5.12246 4.18164C4.02351 5.06185 3.12767 6.11393 2.44017 7.33789L2.02871 8.10872C0.815173 10.3014 0.408924 12.6348 0.804757 15.1087L0.752672 15.5046C0.627672 16.4889 0.632882 17.4733 0.768298 18.4577Z" fill="#FFFDFA"/>
</g>
<path d="M78.2735 12.349L76.5391 11.9167H69.1537L66.9662 12.1667H66.711L60.5651 12.3854L59.9922 12.8906L57.1068 23.5521L56.5287 26.224L52.7683 39.3594H52.586L50.7735 34.1563L47.4245 26.5156L45.9089 22.1094L44.8985 21.4271L42.8464 20.9115L36.8724 20.5885L35.862 21.6719L33.6172 27.3854L31.0183 33.0156L29.9454 15.6042L29.0756 13L27.711 11.6302L26.0495 11.4219L21.6381 11.5625L19.586 11.6302L15.0912 11.7813L13.7266 12.1979L11.9558 12.7031L11.7162 13.1302L11.5912 13.3854L11.7787 13.7656L11.9558 14.1146L11.8933 14.5833L11.5912 16.901L18.0235 61.6354L18.5287 63.1563L19.211 63.4427H19.5704L19.8568 63.1563H23.836L26.4401 62.7917L29.3308 63.1563H34.6693L35.461 62.3594L35.9714 60.9948L40.8151 51.0156H40.9558L42.3204 53.8385L45.2631 61.7031L46.2735 63.276H60.9349L62.6693 62.9896L63.0287 62.625L63.2474 61.6146L65.2995 55.7604L72.2318 31.1927L78.7318 13.1979L78.2735 12.349Z" fill="#FF88A5"/>
<path d="M79.7214 60.9889V60.041L79.3568 56.3587V42.4889L81.1641 12.2806L81.5235 11.8431L85.9297 11.3379L110.206 11.5566L111.289 11.7754L113.237 11.916L113.742 17.1921V26.2962L113.237 26.8014L95.0391 26.1191L94.8204 32.4056L97.9974 32.0462H106.159L107.029 32.5514L107.461 33.416V38.7598L107.096 43.8952L106.664 45.4108L105.872 45.7754L97.6329 45.4108L95.586 45.0514L95.0808 49.7494L112.997 50.1816L113.794 50.6191L114.154 52.0619L114.44 60.3691L114.586 60.6608V61.0983L114.367 62.0306H89.8308L80.0808 61.3483L79.7214 60.9889Z" fill="#7985D8"/>
<path d="M160.852 27.5254L159.482 23.1191L157.32 19.2858L154.789 16.7546L153.487 15.7441L149.805 13.9421L147.419 13.0723L137.664 11.7754L120.581 11.3379L118.925 11.6973V59.9004L119.284 62.8639L128.602 62.3587L136.768 61.3483L141.399 59.8587L141.742 59.7494L146.581 57.6504L152.18 54.39L153.747 52.8587L155.794 50.8535L158.247 46.8744L160.128 42.4681L161.211 38.1452V31.3535L160.852 27.5254ZM137.872 46.5306L133.971 47.4004V28.9004L133.685 25.0671H136.94L141.992 26.1556L143.94 27.166L145.753 28.9004L146.867 31.7181V35.0462L146.18 38.1452L144.445 41.6191L141.346 44.8223L139.612 45.9785L137.872 46.5306Z" fill="#90AAE8"/>
<path d="M172.695 60.9889H166.773L166.05 60.6921L165.544 59.4681V57.2962L167.06 35.0462V14.5879L167.497 13.6452L170.232 12.9993H176.659L178.388 13.2181L188.576 13.5046L189.737 15.3848L192.836 21.3848L194.43 23.7702L199.773 33.9577L200.065 34.1764V23.4785L200.638 14.0098L200.935 13.2181L201.945 12.9316L204.331 13.2181H209.451L214.154 12.7129H218.055L218.628 13.291V13.9421L218.201 14.6243L217.263 25.3952L216.539 29.4941L216.242 44.9629L214.878 59.0514L214.305 59.3379H212.451L209.487 59.8535L200.747 60.0619L198.076 60.7494L197.211 61.2546H196.055L195.477 60.6816L189.221 49.0619L185.898 40.8587L183.846 34.14L182.404 61.4785L182.044 61.9108H176.695L172.695 60.9889Z" fill="#FFCE77"/>
<path d="M258.091 60.4056L257.805 52.0931L257.44 50.6556L256.649 50.2181L238.727 49.7858L239.232 45.0827L241.284 45.4473L249.524 45.8066L250.315 45.4473L250.748 43.9264L251.107 38.7962V33.4525L250.675 32.5827L249.81 32.0775H241.617L238.44 32.4421L238.654 26.1556L256.862 26.8379L257.367 26.3327V17.1921L256.862 11.916L254.914 11.7754L253.826 11.5566L229.534 11.3379L225.128 11.8431L224.763 12.2806L222.961 42.4889V56.3587L223.32 60.041V60.9889L223.685 61.416L233.435 62.0983H257.992L258.211 61.166V60.7285L258.091 60.4056Z" fill="#FF88A5"/>
<path d="M296.383 40.5313L295.076 37.9896L293.419 35.4635L289.878 33.151L286.237 32.2969L280.169 31.2865L278.242 30.474L277.357 29.6198L277.935 26.5833L278.826 25.6875H281.065L286.768 27.5L289.586 28.6563L292.477 28.875L293.159 28.1927L293.846 24.3229L296.091 18.6146V16.901L295.513 16.3958L292.836 15.4375L292.154 14.7552L288.727 13.3854L280.487 12.1562H274.201L270.154 13.4635L266.904 15.0938L264.956 16.5365L262.133 20.224L260.695 23.9063L260.185 26.4323L259.826 31.5677L260.617 35.2552L262.419 37.3542L266.471 39.5208L275.43 42.4115L280.487 42.6979L281.352 44.0052L281.638 45.3021L281.352 46.0938L278.966 46.599L276.586 46.8958L274.055 46.5313L268.419 44.724L264.883 44.5104H261.774L261.268 45.6667L259.539 55.1302V58.4948L260.112 59L262.326 59.7552L268.534 60.6927L271.643 60.9115L274.029 61.349H281.471L286.169 60.1875L290.268 58.6042L294.367 55.9219L295.378 54.8438L296.487 52.8906L297.133 49.9323V43.2031L296.383 40.5313Z" fill="#90AAE8"/>
<path d="M343.341 27.5254L341.971 23.1191L339.805 19.2858L337.279 16.7546L335.977 15.7441L332.294 13.9421L329.909 13.0723L320.154 11.7754L314.768 11.64L312.716 11.5827L308.508 11.4733L306.524 11.4264L303.107 11.3379L301.445 11.6973V59.9004L301.81 62.8639L304.758 62.7077L306.732 62.5931L311.133 62.3535L312.274 62.2077L314.326 61.9577L319.268 61.3431L324.18 59.7494L329.018 57.6504L334.669 54.39L338.284 50.8535L340.737 46.8744L342.617 42.4681L343.701 38.1243V31.3535L343.341 27.5254ZM324.482 26.1608L326.43 27.1712L328.242 28.9056L329.32 31.7233V35.0514L328.669 38.1556L326.935 41.6243L323.815 44.8223L322.076 45.9785L320.399 46.5306L316.498 47.4004V28.9004L316.211 25.0671H319.461L324.482 26.1608Z" fill="#FFCE77"/>
<path d="M371.154 61.416L370.43 60.9889L370.143 60.2598L369.633 47.9629H360.175L356.414 59.8848L356.274 61.4056H339.659L339.076 60.7181L339.362 60.2129L339.8 59.7077L357.289 11.6973L368.852 11.4785L375.425 11.7754L388.138 59.9004L387.992 61.8535L371.154 61.416ZM364.649 35.4004L365.331 35.2546L368.654 35.0462L367.539 27.5931L366.242 23.2598L362.268 35.4004H364.649Z" fill="#7985D8"/>
<path d="M392.466 61.0566L393.19 48.9837L395.065 34.5306L381.482 15.8223L379.753 12.7858L380.117 12.4941L390.768 11.5566H398.899L399.69 11.9837L400.482 13.14L401.784 17.6973L403.836 22.7546L404.201 23.041L409.399 12.9316L410.263 12.5671L427.169 12.2806L428.253 12.0618H433.383L434.034 12.6348V13.4368L433.383 14.0827L433.096 14.5879L417.899 29.8379L412.909 35.5514L411.971 36.2337V37.1764L411.326 46.2806L410.961 47.5775V60.041L410.524 60.9108L409.878 61.0566L393.55 62.0671L392.753 61.8535L392.466 61.0566Z" fill="#90AAE8"/>
</svg>
