<svg width="414" height="92" viewBox="0 0 414 92" fill="none" xmlns="http://www.w3.org/2000/svg">
<g opacity="0.8">
<mask id="path-1-inside-1_1011_1099" fill="white">
<path fill-rule="evenodd" clip-rule="evenodd" d="M6.81641 33H413.25V92H6.81641V33ZM41.9998 48.2222C41.9998 51.6587 38.1975 54.4444 33.5072 54.4444C28.8168 54.4444 25.0145 51.6587 25.0145 48.2222C25.0145 44.7858 28.8168 42 33.5072 42C38.1975 42 41.9998 44.7858 41.9998 48.2222ZM387.772 54.4444C392.462 54.4444 396.265 51.6587 396.265 48.2222C396.265 44.7858 392.462 42 387.772 42C383.082 42 379.279 44.7858 379.279 48.2222C379.279 51.6587 383.082 54.4444 387.772 54.4444Z"/>
</mask>
<path fill-rule="evenodd" clip-rule="evenodd" d="M6.81641 33H413.25V92H6.81641V33ZM41.9998 48.2222C41.9998 51.6587 38.1975 54.4444 33.5072 54.4444C28.8168 54.4444 25.0145 51.6587 25.0145 48.2222C25.0145 44.7858 28.8168 42 33.5072 42C38.1975 42 41.9998 44.7858 41.9998 48.2222ZM387.772 54.4444C392.462 54.4444 396.265 51.6587 396.265 48.2222C396.265 44.7858 392.462 42 387.772 42C383.082 42 379.279 44.7858 379.279 48.2222C379.279 51.6587 383.082 54.4444 387.772 54.4444Z" fill="#6B4336"/>
<path d="M413.25 33H414.25V32H413.25V33ZM6.81641 33V32H5.81641V33H6.81641ZM413.25 92V93H414.25V92H413.25ZM6.81641 92H5.81641V93H6.81641V92ZM413.25 32H6.81641V34H413.25V32ZM414.25 92V33H412.25V92H414.25ZM6.81641 93H413.25V91H6.81641V93ZM5.81641 33V92H7.81641V33H5.81641ZM33.5072 55.4444C36.0424 55.4444 38.3778 54.6929 40.1034 53.4287C41.8284 52.1648 42.9998 50.336 42.9998 48.2222H40.9998C40.9998 49.5449 40.2701 50.8272 38.9214 51.8153C37.5732 52.8031 35.6623 53.4444 33.5072 53.4444V55.4444ZM24.0145 48.2222C24.0145 50.336 25.186 52.1648 26.9109 53.4287C28.6366 54.6929 30.9719 55.4444 33.5072 55.4444V53.4444C31.352 53.4444 29.4411 52.8031 28.093 51.8153C26.7442 50.8272 26.0145 49.5449 26.0145 48.2222H24.0145ZM33.5072 41C30.9719 41 28.6366 41.7515 26.9109 43.0158C25.186 44.2796 24.0145 46.1085 24.0145 48.2222H26.0145C26.0145 46.8995 26.7442 45.6173 28.093 44.6291C29.4411 43.6414 31.352 43 33.5072 43V41ZM42.9998 48.2222C42.9998 46.1085 41.8284 44.2796 40.1034 43.0158C38.3778 41.7515 36.0424 41 33.5072 41V43C35.6623 43 37.5732 43.6414 38.9214 44.6291C40.2701 45.6173 40.9998 46.8995 40.9998 48.2222H42.9998ZM395.265 48.2222C395.265 49.5449 394.535 50.8272 393.186 51.8153C391.838 52.8031 389.927 53.4444 387.772 53.4444V55.4444C390.307 55.4444 392.642 54.6929 394.368 53.4287C396.093 52.1648 397.265 50.336 397.265 48.2222H395.265ZM387.772 43C389.927 43 391.838 43.6414 393.186 44.6291C394.535 45.6173 395.265 46.8995 395.265 48.2222H397.265C397.265 46.1085 396.093 44.2796 394.368 43.0158C392.642 41.7515 390.307 41 387.772 41V43ZM380.279 48.2222C380.279 46.8995 381.009 45.6173 382.358 44.6291C383.706 43.6414 385.617 43 387.772 43V41C385.237 41 382.901 41.7515 381.176 43.0158C379.451 44.2796 378.279 46.1085 378.279 48.2222H380.279ZM387.772 53.4444C385.617 53.4444 383.706 52.8031 382.358 51.8153C381.009 50.8272 380.279 49.5449 380.279 48.2222H378.279C378.279 50.336 379.451 52.1648 381.176 53.4287C382.901 54.6929 385.237 55.4444 387.772 55.4444V53.4444Z" fill="black" mask="url(#path-1-inside-1_1011_1099)"/>
<mask id="path-3-inside-2_1011_1099" fill="white">
<path fill-rule="evenodd" clip-rule="evenodd" d="M0.75 28H407.184V87H0.75V28ZM38.934 44.2222C38.934 47.6587 35.1317 50.4444 30.4414 50.4444C25.751 50.4444 21.9487 47.6587 21.9487 44.2222C21.9487 40.7858 25.751 38 30.4414 38C35.1317 38 38.934 40.7858 38.934 44.2222ZM383.706 51.4444C388.396 51.4444 392.199 48.6587 392.199 45.2222C392.199 41.7858 388.396 39 383.706 39C379.016 39 375.213 41.7858 375.213 45.2222C375.213 48.6587 379.016 51.4444 383.706 51.4444Z"/>
</mask>
<path fill-rule="evenodd" clip-rule="evenodd" d="M0.75 28H407.184V87H0.75V28ZM38.934 44.2222C38.934 47.6587 35.1317 50.4444 30.4414 50.4444C25.751 50.4444 21.9487 47.6587 21.9487 44.2222C21.9487 40.7858 25.751 38 30.4414 38C35.1317 38 38.934 40.7858 38.934 44.2222ZM383.706 51.4444C388.396 51.4444 392.199 48.6587 392.199 45.2222C392.199 41.7858 388.396 39 383.706 39C379.016 39 375.213 41.7858 375.213 45.2222C375.213 48.6587 379.016 51.4444 383.706 51.4444Z" fill="#DBA08C"/>
<path d="M407.184 28H408.184V27H407.184V28ZM0.75 28V27H-0.25V28H0.75ZM407.184 87V88H408.184V87H407.184ZM0.75 87H-0.25V88H0.75V87ZM407.184 27H0.75V29H407.184V27ZM408.184 87V28H406.184V87H408.184ZM0.75 88H407.184V86H0.75V88ZM-0.25 28V87H1.75V28H-0.25ZM30.4414 51.4444C32.9766 51.4444 35.312 50.6929 37.0376 49.4287C38.7626 48.1648 39.934 46.336 39.934 44.2222H37.934C37.934 45.5449 37.2043 46.8271 35.8556 47.8153C34.5074 48.8031 32.5965 49.4444 30.4414 49.4444V51.4444ZM20.9487 44.2222C20.9487 46.336 22.1202 48.1648 23.8452 49.4287C25.5708 50.6929 27.9061 51.4444 30.4414 51.4444V49.4444C28.2863 49.4444 26.3753 48.8031 25.0272 47.8153C23.6784 46.8271 22.9487 45.5449 22.9487 44.2222H20.9487ZM30.4414 37C27.9061 37 25.5708 37.7515 23.8452 39.0158C22.1202 40.2796 20.9487 42.1085 20.9487 44.2222H22.9487C22.9487 42.8995 23.6784 41.6173 25.0272 40.6291C26.3753 39.6414 28.2863 39 30.4414 39V37ZM39.934 44.2222C39.934 42.1085 38.7626 40.2796 37.0376 39.0158C35.312 37.7515 32.9766 37 30.4414 37V39C32.5965 39 34.5074 39.6414 35.8556 40.6291C37.2043 41.6173 37.934 42.8995 37.934 44.2222H39.934ZM391.199 45.2222C391.199 46.5449 390.469 47.8272 389.12 48.8153C387.772 49.8031 385.861 50.4444 383.706 50.4444V52.4444C386.241 52.4444 388.577 51.6929 390.302 50.4287C392.027 49.1648 393.199 47.336 393.199 45.2222H391.199ZM383.706 40C385.861 40 387.772 40.6414 389.12 41.6291C390.469 42.6173 391.199 43.8995 391.199 45.2222H393.199C393.199 43.1085 392.027 41.2796 390.302 40.0158C388.577 38.7515 386.241 38 383.706 38V40ZM376.213 45.2222C376.213 43.8995 376.943 42.6173 378.292 41.6291C379.64 40.6414 381.551 40 383.706 40V38C381.171 38 378.835 38.7515 377.11 40.0158C375.385 41.2796 374.213 43.1085 374.213 45.2222H376.213ZM383.706 50.4444C381.551 50.4444 379.64 49.8031 378.292 48.8153C376.943 47.8272 376.213 46.5449 376.213 45.2222H374.213C374.213 47.336 375.385 49.1648 377.11 50.4287C378.835 51.6929 381.171 52.4444 383.706 52.4444V50.4444Z" fill="black" mask="url(#path-3-inside-2_1011_1099)"/>
</g>
<line opacity="0.8" x1="29.1177" y1="50" x2="29.1177" stroke="black" stroke-width="1.5"/>
<line opacity="0.8" x1="383.382" y1="50" x2="383.382" stroke="black" stroke-width="1.5"/>
</svg>
