<svg width="532" height="44" viewBox="0 0 532 44" fill="none" xmlns="http://www.w3.org/2000/svg">
<g clip-path="url(#clip0_1172_1140)">
<g filter="url(#filter0_d_1172_1140)">
<path d="M531.016 44.0011V0H491.482L491.352 0.246731C491.02 1.53461 491.626 3.39457 491.626 4.76921C491.626 5.95406 491.979 6.9925 492.104 8.07703H499.401V30.7111H477.843V8.07703H485.347C485.163 7.26634 484.936 6.44481 485.097 5.66124C485.367 4.3354 486.389 3.48405 486.134 1.87895C486.056 1.37464 485.621 0.694098 485.265 0H442.141L442.016 0.246731C441.668 1.53461 442.266 3.39457 442.266 4.76921C442.266 5.95406 442.623 6.9925 442.748 8.07703H450.049V30.7111H428.506V8.07703H436.015L436.014 8.07535C435.803 7.25169 435.596 6.44428 435.741 5.66124C436.015 4.3354 437.056 3.48405 436.809 1.87895C436.723 1.37464 436.285 0.694098 435.933 0H399.041L398.919 0.246731C398.563 1.53461 399.19 3.39457 399.19 4.76921C399.19 5.95406 399.522 6.9925 399.651 8.07703H406.948V30.7111H385.406V8.07703H392.914C392.726 7.26634 392.495 6.44481 392.664 5.66124C392.934 4.3354 393.956 3.48405 393.705 1.87895C393.623 1.37464 393.184 0.694098 392.824 0H349.704L349.556 0.246731C349.227 1.53461 349.834 3.39457 349.834 4.76921C349.834 5.95406 350.186 6.9925 350.311 8.07703H357.612V30.7111H336.05V8.07703H343.554L343.523 7.94172C343.345 7.16434 343.17 6.40189 343.3 5.66124C343.582 4.3354 344.6 3.48405 344.349 1.87895C344.259 1.37464 343.825 0.694098 343.468 0H300.035L299.914 0.246731C299.561 1.53461 300.184 3.39457 300.184 4.76921C300.184 5.95406 300.54 6.9925 300.661 8.07703H307.939V30.7111H286.4V8.07703H293.905C293.721 7.26634 293.49 6.44481 293.658 5.66124C293.924 4.3354 294.95 3.48405 294.703 1.87895C294.617 1.37464 294.179 0.694098 293.827 0H246.823L246.702 0.246731C246.342 1.53461 246.968 3.39457 246.968 4.76921C246.968 5.95406 247.324 6.9925 247.45 8.07703H254.727V30.7111H233.188V8.07703H240.693C240.509 7.26634 240.278 6.44481 240.446 5.66124C240.712 4.3354 241.734 3.48405 241.488 1.87895C241.401 1.37464 240.967 0.694098 240.607 0H200.258L200.137 0.246731C199.785 1.53461 200.387 3.39457 200.387 4.76921C200.387 5.95406 200.74 6.9925 200.869 8.07703H208.166V30.7111H186.624V8.07703H194.132C193.92 7.25279 193.717 6.44481 193.858 5.66124C194.132 4.3354 195.173 3.48405 194.927 1.87895C194.84 1.37464 194.406 0.694098 194.05 0H150.906L150.785 0.246731C150.421 1.53461 151.051 3.39457 151.051 4.76921C151.051 5.95406 151.403 6.9925 151.533 8.07703H158.81V30.7111H137.271V8.07703H144.776C144.588 7.26634 144.361 6.44481 144.525 5.66124C144.795 4.3354 145.817 3.48405 145.571 1.87895C145.484 1.37464 145.05 0.694098 144.69 0H97.3967L97.2519 0.246731C96.9191 1.53461 97.5259 3.39457 97.5259 4.76921C97.5259 5.95406 97.8782 6.9925 98.0035 8.07703H105.3V30.7111H83.7424V8.07703H91.2664L91.2591 8.04807C91.0541 7.23386 90.8531 6.43563 90.9963 5.66124C91.2664 4.3354 92.292 3.48405 92.0611 1.87895C91.9749 1.37464 91.5404 0.694098 91.1881 0H47.7275L47.6062 0.246731C47.2499 1.53461 47.8528 3.39457 47.8528 4.76921C47.8528 5.95406 48.209 6.9925 48.3343 8.07703H55.9483V30.7111H34.4099V8.07703H41.5972L41.5904 8.04994C41.3852 7.23508 41.1841 6.43622 41.3505 5.66124C41.6207 4.3354 42.6424 3.48405 42.3918 1.87895C42.3057 1.37464 41.8712 0.694098 41.5189 0H0V44.0011H531.016Z" fill="#D49832"/>
</g>
</g>
<defs>
<filter id="filter0_d_1172_1140" x="-4" y="0" width="539.016" height="52.001" filterUnits="userSpaceOnUse" color-interpolation-filters="sRGB">
<feFlood flood-opacity="0" result="BackgroundImageFix"/>
<feColorMatrix in="SourceAlpha" type="matrix" values="0 0 0 0 0 0 0 0 0 0 0 0 0 0 0 0 0 0 127 0" result="hardAlpha"/>
<feOffset dy="4"/>
<feGaussianBlur stdDeviation="2"/>
<feColorMatrix type="matrix" values="0 0 0 0 0 0 0 0 0 0 0 0 0 0 0 0 0 0 0.25 0"/>
<feBlend mode="normal" in2="BackgroundImageFix" result="effect1_dropShadow_1172_1140"/>
<feBlend mode="normal" in="SourceGraphic" in2="effect1_dropShadow_1172_1140" result="shape"/>
</filter>
<clipPath id="clip0_1172_1140">
<rect width="531.016" height="44.0011" fill="white"/>
</clipPath>
</defs>
</svg>
