<svg width="539" height="88" viewBox="0 0 539 88" fill="none" xmlns="http://www.w3.org/2000/svg">
<g filter="url(#filter0_d_1170_1128)">
<mask id="mask0_1170_1128" style="mask-type:luminance" maskUnits="userSpaceOnUse" x="4" y="0" width="531" height="73">
<path d="M4 0H535V72.0703H4V0Z" fill="white"/>
</mask>
<g mask="url(#mask0_1170_1128)">
<path d="M535.016 20.8252V-1.71191H4V16.2892C6.48189 16.7664 7.93815 18.0678 6.98297 21.56C9.7154 21.1858 13.5518 22.2107 16.3038 21.8501C16.3429 34.7641 36.7579 30.7486 48.2709 33.4057C47.1435 42.1172 63.0526 41.884 72.1033 41.7268C79.4629 41.5966 78.3981 38.6359 83.5733 43.603C87.2413 47.1305 84.3014 51.2029 87.073 54.7249C92.0603 61.11 105.131 58.7132 113.473 62.3383C116.871 63.8105 118.101 67.6714 123.233 68.1893C129.594 68.8238 130.134 64.0139 137.2 65.1987C141.498 75.4827 159.803 65.6325 167.707 66.21C172.526 66.5571 176.738 69.0406 183.327 68.8807C190.393 68.7234 197.4 67.178 204.18 65.9931C209.226 65.1255 218.402 61.918 223.675 63.0893C230.177 64.5344 228.968 68.089 237.541 68.8807C251.136 70.155 259.725 63.7265 272.115 61.9777C271.359 61.1534 271.508 59.4344 270.072 58.2794C273.258 57.0376 286.149 51.8509 288.96 51.6936C295.818 51.333 300.41 59.3911 305.683 58.3824C312.088 57.1678 305.914 47.6483 309.727 44.975C313.857 42.0738 322.743 44.2266 327.891 40.8456C330.502 45.1919 335.916 47.4314 339.251 42.0874C347.746 40.5121 353.395 45.9863 361.252 46.7373C372.225 47.7812 376.374 44.8041 375.376 37.2477C387.382 36.7597 391.575 39.4737 401.643 41.9003C414.659 45.021 413.783 39.7041 423.499 36.8437C427.374 35.7185 446.85 35.9354 451.61 37.3209C460.281 39.8614 462.301 45.8887 475.047 44.6713C475.501 39.4439 475.004 35.789 478.069 31.3424C481.299 26.6464 487.245 25.1579 486.58 18.9625C492.123 19.0764 493.352 23.0648 498.962 22.7014C504.192 22.3707 506.967 17.2571 512.784 16.8965C518.562 16.5359 521.984 19.5672 526.987 20.5215C529.297 20.9729 531.92 20.9051 534.563 20.8368L535.016 20.8252Z" fill="#D49832"/>
</g>
<mask id="mask1_1170_1128" style="mask-type:luminance" maskUnits="userSpaceOnUse" x="4" y="3" width="531" height="78">
<path d="M4 3H535V80.0708H4V3Z" fill="white"/>
</mask>
<g mask="url(#mask1_1170_1128)">
<path d="M535.028 9.70507V22.2164C532.233 22.2988 529.442 22.4192 526.999 21.8615C521.997 20.746 518.575 17.203 512.797 17.6245C506.98 18.046 504.204 24.0227 498.974 24.4094C493.365 24.834 492.135 20.1724 486.592 20.0393C487.258 27.2805 481.311 29.0203 478.082 34.5091C475.017 39.7063 475.514 43.9781 475.06 50.088C462.314 51.5109 460.294 44.4662 451.623 41.4968C446.862 39.8774 427.387 39.6239 423.512 40.939C413.795 44.2824 414.672 50.4968 401.656 46.8493C391.587 44.013 387.395 40.8408 375.389 41.4112C376.387 50.2433 372.237 53.7229 361.265 52.5028C353.408 51.625 347.759 45.2267 339.264 47.0679C335.929 53.3141 330.515 50.6965 327.904 45.6165C322.756 49.5683 313.87 47.0521 309.74 50.4429C305.927 53.5676 312.1 64.6941 305.696 66.1138C300.423 67.2927 295.831 57.8743 288.973 58.2958C286.162 58.4796 273.271 64.542 270.084 65.9934C271.521 67.3434 271.372 69.3525 272.128 70.3159C259.738 72.3599 251.149 79.8737 237.553 78.3843C228.98 77.4589 230.19 73.3043 223.688 71.6152C218.415 70.2462 209.239 73.9952 204.193 75.0093C197.413 76.3941 190.405 78.2005 183.339 78.3843C176.751 78.5712 172.539 75.6684 167.72 75.2628C159.816 74.5878 141.511 86.1009 137.213 74.0807C130.147 72.6959 129.607 78.3177 123.245 77.5762C118.113 76.9709 116.884 72.4582 113.486 70.7374C105.144 66.5004 92.073 69.3018 87.0857 61.8388C84.3141 57.7222 87.254 52.9623 83.586 48.8394C78.4108 43.0338 79.4756 46.4943 72.116 46.6464C63.0653 46.8303 47.1562 47.1028 48.2836 36.9207C36.7706 33.815 16.3556 38.5084 16.3165 23.4143C13.5645 23.8358 9.7281 22.6379 6.99567 23.0752C7.95084 18.9935 6.49459 17.4724 4.0127 16.9146V3.57617C8.05654 4.06737 11.0199 6.27935 14.0851 7.25858C22.7796 10.0759 34.5392 10.5512 41.9223 16.1889C43.86 17.6562 41.5269 20.8315 43.2141 21.8773C46.0522 23.652 48.6124 22.0611 51.2626 23.2463C55.8506 25.2555 59.8945 27.3978 65.1714 28.8682C76.1168 31.9041 88.4832 25.8291 99.7261 26.7893C100.435 37.3295 93.2826 46.7795 110.793 45.9176C112.57 56.8444 124.807 50.1577 131.897 50.2591C140.76 50.3764 145.786 57.063 154.124 55.881C158.732 55.2218 167.426 49.5303 171.889 47.7619C180.544 44.3331 186.029 41.9183 187.72 33.5457C194.786 31.9738 198.704 38.2707 203.465 39.4718C204.251 40.1436 204.67 40.7869 205.547 41.4302C208.796 39.4718 211.905 36.3471 215.24 34.6105C223.441 40.619 230.777 54.4961 243.101 54.7497C251.881 54.9366 249.211 51.8278 255.24 48.8584C262.866 45.0746 260.947 47.7081 268.06 48.3007C281.699 49.4479 288.722 45.4802 298.34 38.6922C300.337 37.2756 306.177 32.7154 308.765 32.4999C316.751 31.8217 314.872 36.5689 319.883 38.7777C331.779 44.0288 338.434 38.5084 348.444 35.2823C353.678 33.5964 357.6 34.3189 362.599 31.9929C368.941 29.0362 375.158 19.8682 383.206 19.5988C391.94 19.2946 394.069 30.0851 404.369 31.1119C415.4 32.2274 427.387 28.1742 437.733 26.6245C449.427 24.8499 458.626 18.9745 469.348 17.7766C470.116 18.347 470.613 19.1615 471.427 19.7002C475.62 15.1241 480.208 6.61527 489.47 5.48393C498.348 4.40329 510.714 9.04592 519.742 9.97761C524.204 10.4498 529.798 9.67021 535.028 9.70507Z" fill="#B67D1C"/>
</g>
</g>
<defs>
<filter id="filter0_d_1170_1128" x="0" y="0" width="539" height="87.585" filterUnits="userSpaceOnUse" color-interpolation-filters="sRGB">
<feFlood flood-opacity="0" result="BackgroundImageFix"/>
<feColorMatrix in="SourceAlpha" type="matrix" values="0 0 0 0 0 0 0 0 0 0 0 0 0 0 0 0 0 0 127 0" result="hardAlpha"/>
<feOffset dy="4"/>
<feGaussianBlur stdDeviation="2"/>
<feComposite in2="hardAlpha" operator="out"/>
<feColorMatrix type="matrix" values="0 0 0 0 0 0 0 0 0 0 0 0 0 0 0 0 0 0 0.25 0"/>
<feBlend mode="normal" in2="BackgroundImageFix" result="effect1_dropShadow_1170_1128"/>
<feBlend mode="normal" in="SourceGraphic" in2="effect1_dropShadow_1170_1128" result="shape"/>
</filter>
</defs>
</svg>
