<svg width="161" height="29" viewBox="0 0 161 29" fill="none" xmlns="http://www.w3.org/2000/svg">
<g clip-path="url(#clip0_746_1338)">
<path d="M59.3643 14.7725H59.4238C59.4238 14.2323 59.6032 13.6931 59.6627 13.153C59.7231 12.6129 59.3643 11.9528 59.5437 11.4136C59.6627 10.8735 60.3209 10.5137 60.5598 10.034C60.7987 9.49392 60.5598 8.77437 60.8591 8.29468C61.1575 7.81405 61.5759 7.39478 61.9347 6.97458C62.2936 6.55438 62.7128 6.1946 63.1312 5.77533C63.5495 5.35513 64.0283 5.11528 64.5061 4.81501C64.9245 4.45523 65.2238 3.85561 65.7017 3.55533C66.1804 3.25599 66.7187 3.07564 67.1965 2.83579C67.6753 2.59594 68.2731 2.47601 68.8113 2.35609C69.3496 2.23617 69.8879 1.93589 70.4261 1.87639C70.9635 1.81596 71.5622 1.93589 72.1004 1.93589C72.9371 1.93589 72.9371 1.87639 73.7738 1.87639C74.6114 1.87639 74.6114 2.05581 75.4481 2.05581C76.2857 2.05581 76.2857 2.29566 77.1224 2.29566C77.96 2.29566 77.96 1.93589 78.7967 1.99632C79.6343 1.99632 79.6343 1.87639 80.471 1.87639C81.3086 1.87639 81.3086 1.93589 82.1453 1.93589C82.9829 1.93589 82.9829 2.29566 83.8196 2.29566C84.6562 2.29566 84.6562 2.17574 85.4938 2.17574C86.3305 2.17574 86.3305 2.05581 87.1681 2.05581C88.0048 2.05581 88.0048 1.99632 88.8424 1.99632C89.3807 1.99632 89.9785 2.05581 90.5167 2.11624C91.055 2.17574 91.6528 2.17574 92.191 2.35609C92.7284 2.47601 93.0872 3.13606 93.6255 3.31549C94.1637 3.55533 94.8219 3.43541 95.2998 3.67526C95.7785 3.97554 96.3168 4.21538 96.7351 4.51566C97.1535 4.87543 97.3924 5.47506 97.7512 5.89526C98.1696 6.31453 98.4689 6.6743 98.8278 7.15493C99.1866 7.5742 99.366 8.11432 99.605 8.59402C99.9043 9.07372 100.263 9.49392 100.502 9.97362C100.741 10.4533 100.98 10.9934 101.159 11.5336C101.279 12.0728 101.339 12.6129 101.399 13.153C101.459 13.6931 101.758 14.2323 101.758 14.8329H101.698C101.698 15.3721 101.758 15.9717 101.698 16.5118C101.638 17.052 101.1 17.5316 100.92 18.0718C100.8 18.611 100.502 19.0916 100.263 19.5713C100.023 20.1105 100.263 20.831 99.9638 21.2502C99.6645 21.7309 99.1866 22.0906 98.8278 22.5099C98.4689 22.9301 98.2895 23.5297 97.8712 23.8895C97.4528 24.3097 96.8541 24.4296 96.4358 24.7894C96.0175 25.1492 95.5991 25.5694 95.1203 25.8697C94.6425 26.169 94.1637 26.4088 93.6255 26.6487C93.1476 26.8895 92.5489 27.0094 92.0116 27.1293C91.4733 27.2493 90.8756 27.0689 90.3373 27.1888C89.799 27.2493 89.2608 27.6685 88.7225 27.6685C87.8858 27.6685 87.8858 27.7289 87.0482 27.7289C86.2115 27.7289 86.2115 27.6685 85.3739 27.6685C84.5372 27.6685 84.5372 27.609 83.6996 27.609C82.8629 27.609 82.8629 27.3692 82.0253 27.3692C81.1887 27.3692 81.1887 27.4287 80.352 27.3692C79.5144 27.3692 79.5144 27.609 78.6777 27.609C77.8401 27.609 77.8401 27.2493 77.0034 27.2493C76.1658 27.2493 76.1658 27.2493 75.3291 27.2493C74.4915 27.2493 74.4915 27.2493 73.6548 27.2493C72.8172 27.2493 72.8172 27.3087 71.9805 27.3087C71.4422 27.3087 70.8445 27.7289 70.3062 27.6685C69.7679 27.609 69.2901 27.0094 68.7518 26.8895C68.2136 26.7686 67.7348 26.5892 67.1965 26.4088C66.6592 26.169 65.9415 26.4088 65.4627 26.1095C64.9849 25.8092 64.865 25.0293 64.3862 24.7299C63.9679 24.3701 63.49 24.1294 63.1312 23.7101C62.7128 23.2899 62.473 22.8706 62.1142 22.4504C61.7553 22.0302 61.0386 21.8508 60.7392 21.3702C60.4399 20.8905 60.6797 20.1709 60.5003 19.6308C60.2604 19.1511 60.0819 18.6714 59.9025 18.1313C59.7826 17.5921 59.5437 17.1114 59.4238 16.5723C59.4238 15.8518 59.3643 15.3126 59.3643 14.7725ZM95.838 14.8329C95.838 14.2928 95.838 13.6931 95.7181 13.153C95.5991 12.6129 95.5387 12.0133 95.2998 11.5336C95.0608 11.0539 94.3432 10.814 94.0438 10.3938C93.6859 9.97362 93.6859 9.19364 93.2666 8.8943C92.8483 8.53452 92.1306 8.71395 91.5923 8.4741C91.1145 8.23425 90.6962 7.93397 90.1579 7.81405C89.6196 7.69412 89.1409 7.5147 88.5431 7.5147C87.7064 7.5147 87.7064 7.33435 86.8688 7.33435C86.0321 7.33435 86.0321 7.69412 85.1945 7.69412C84.3578 7.69412 84.3578 7.69412 83.5202 7.69412C82.6835 7.69412 82.6835 7.63463 81.8459 7.63463C81.0092 7.63463 81.0092 7.81405 80.1726 7.81405C79.3349 7.81405 79.3349 7.69412 78.4983 7.63463C77.6606 7.63463 77.6606 7.69412 76.824 7.69412C75.9863 7.69412 75.9863 7.5147 75.1497 7.5147C74.3121 7.5147 74.3121 7.27485 73.4754 7.27485C72.6378 7.27485 72.6378 7.63463 71.8011 7.5742C71.2628 7.5742 70.7245 7.75455 70.2467 7.87448C69.7084 7.9944 69.2297 8.11432 68.7518 8.35417C68.2731 8.59402 67.6158 8.59402 67.1965 8.9538C66.7782 9.31357 66.4193 9.7942 66.1209 10.2135C65.7621 10.6337 65.5827 11.1738 65.3437 11.6535C65.1039 12.1332 64.9849 12.6733 64.865 13.2125C64.7451 13.7526 64.6856 14.2323 64.6856 14.8329H64.8055C64.8055 15.3721 64.3862 15.9717 64.5061 16.5118C64.6261 17.052 65.1643 17.4722 65.4032 17.9519C65.6422 18.4315 66.001 18.8517 66.3599 19.271C66.7187 19.6912 66.8377 20.2908 67.257 20.6506C67.6753 21.0104 68.1531 21.3107 68.6319 21.5505C69.1107 21.7904 69.648 22.0906 70.1863 22.2106C70.7245 22.3305 71.3223 22.2106 71.8606 22.2106C72.6982 22.2106 72.6982 22.0906 73.5349 22.0906C74.3725 22.0906 74.3725 22.1501 75.2092 22.1501C76.0468 22.1501 76.0468 21.9103 76.8835 21.9103C77.7201 21.9103 77.7201 21.9707 78.5578 21.9707C79.3944 21.9707 79.3944 21.8508 80.232 21.8508C81.0687 21.8508 81.0687 22.2701 81.9063 22.2701C82.743 22.2701 82.743 22.39 83.5806 22.39C84.4173 22.39 84.4173 21.9103 85.2549 21.9103C86.0916 21.9103 86.0916 22.1501 86.9292 22.1501C87.7659 22.1501 87.7659 21.9103 88.6026 21.9103C89.1409 21.9103 89.7386 22.1501 90.2174 22.0302C90.7557 21.9103 91.2335 21.5505 91.7123 21.3702C92.191 21.1303 92.6094 20.831 93.0277 20.4712C93.4461 20.1105 93.8644 19.8111 94.2232 19.3909C94.5821 18.9717 95.1203 18.611 95.3593 18.1313C95.5991 17.6516 95.4197 16.9915 95.5387 16.4523C95.6586 15.9122 95.6586 15.4325 95.6586 14.8329C95.5991 14.7725 95.838 14.8329 95.838 14.8329Z" fill="#F8CF61"/>
<mask id="mask0_746_1338" style="mask-type:luminance" maskUnits="userSpaceOnUse" x="0" y="1" width="44" height="27">
<path d="M0.955078 1.39551H43.3172V27.526H0.955078V1.39551Z" fill="white"/>
</mask>
<g mask="url(#mask0_746_1338)">
<path d="M1.18738 14.352H1.12695C1.12695 13.8128 1.24688 13.2727 1.30638 12.7326C1.3668 12.1934 1.4858 11.6532 1.60572 11.1131C1.72565 10.573 1.96457 10.0933 2.14399 9.61359C2.38291 9.07346 2.4424 8.53427 2.74175 8.05364C3.0411 7.57394 3.33951 7.09424 3.63886 6.67404C3.9977 6.25477 4.23662 5.71465 4.59547 5.35487C5.01381 4.93467 5.61157 4.81475 6.03084 4.5154C6.44918 4.15563 6.86752 3.79493 7.34629 3.55508C7.82413 3.25573 8.18297 2.71561 8.66174 2.47576C9.13958 2.23591 9.79777 2.35583 10.3351 2.23591C10.8734 2.11598 11.4116 1.99606 11.9499 1.93563C12.4882 1.87614 13.0264 1.45593 13.5647 1.45593C14.4014 1.45593 14.4014 1.45593 15.239 1.45593C16.0757 1.45593 16.0757 1.87614 16.9133 1.87614C17.75 1.87614 17.75 1.99606 18.5867 1.99606C19.4243 1.99606 19.4243 1.87614 20.2609 1.87614C21.0986 1.87614 21.0986 1.81571 21.9352 1.81571C22.7729 1.81571 22.7729 1.57586 23.6095 1.57586C24.4471 1.57586 24.4471 1.57586 25.2838 1.57586C26.1214 1.57586 26.1214 1.75621 26.9581 1.75621C27.7957 1.75621 27.7957 1.39551 28.6324 1.39551C29.4691 1.39551 29.4691 1.81571 30.3067 1.81571C30.845 1.81571 31.3832 1.87614 31.9206 1.99606C32.4588 2.05556 32.9971 2.23591 33.5354 2.35583C34.0736 2.47576 34.6714 2.47576 35.1502 2.65518C35.5685 2.89596 36.0464 3.25573 36.5251 3.49558C37.0039 3.79493 37.6612 3.85535 38.0795 4.15563C38.4988 4.5154 38.6773 5.11503 39.0965 5.53523C39.5149 5.9545 40.0531 6.19435 40.3516 6.61455C40.7104 7.03475 40.6509 7.69387 40.9502 8.17449C41.2487 8.65419 41.4876 9.07346 41.7274 9.61359C41.9664 10.0933 42.5641 10.5135 42.684 11.0536C42.803 11.5928 42.7435 12.1934 42.803 12.7326C42.8635 13.2727 43.0429 13.8128 43.0429 14.4124H42.6245C42.6245 14.9526 43.1619 15.5522 43.1024 16.0914C43.0429 16.6315 42.5046 17.1112 42.3252 17.6513C42.2053 18.1914 42.3847 18.8515 42.2053 19.3907C41.9664 19.9308 41.3686 20.2311 41.0692 20.7108C40.7708 21.1905 40.412 21.6107 40.1126 22.03C39.7538 22.4502 39.5744 23.0498 39.2155 23.4095C38.7972 23.8298 38.5583 24.3094 38.0795 24.6692C37.6612 25.029 37.0634 25.1489 36.5846 25.4492C36.1068 25.7495 35.6884 26.1092 35.1502 26.3491C34.6714 26.5889 34.0141 26.4086 33.4759 26.5889C32.9376 26.7089 32.4588 26.8288 31.8611 26.9487C31.3228 27.0091 30.7846 27.249 30.2472 27.249C29.4096 27.249 29.4096 27.4284 28.5729 27.4284C27.7353 27.4284 27.7353 27.4888 26.8986 27.4888C26.061 27.4888 26.061 26.9487 25.2243 26.9487C24.3867 26.9487 24.3867 27.249 23.55 27.249C22.7124 27.249 22.7124 27.1291 21.8757 27.1291C21.0391 27.1291 21.0391 27.4888 20.2015 27.4888C19.3648 27.4888 19.3648 27.4284 18.5272 27.4284C17.6905 27.4284 17.6905 27.4284 16.8529 27.4284C16.0162 27.4284 16.0162 27.4888 15.1786 27.4888C14.3419 27.4888 14.3419 27.1291 13.5043 27.1291C12.9669 27.1291 12.4287 27.0686 11.8904 26.9487C11.3521 26.8892 10.8139 26.8288 10.2756 26.7089C9.73734 26.5889 9.25951 26.3491 8.72124 26.1092C8.18297 25.8694 7.64471 25.7495 7.16687 25.4492C6.6881 25.1489 6.32926 24.6692 5.91092 24.3699C5.49258 24.0092 5.07331 23.7098 4.65496 23.2896C4.23662 22.8704 3.69836 22.69 3.33951 22.2103C2.98067 21.7901 2.74175 21.25 2.4424 20.7703C2.14399 20.2906 1.78514 19.8704 1.60572 19.3312C1.3668 18.8515 1.30638 18.2509 1.18738 17.7117C1.06746 17.1716 1.30638 16.572 1.18738 16.0319C1.24688 15.4322 1.18738 14.9526 1.18738 14.352ZM37.7206 14.4719C37.7206 13.9327 37.6017 13.3322 37.4817 12.793C37.3618 12.2529 37.2428 11.6532 37.0039 11.1735C36.764 10.6929 36.4656 10.1537 36.1068 9.73351C35.7479 9.31331 35.3891 8.83361 34.9708 8.47384C34.5515 8.11407 33.9537 7.93372 33.4759 7.69387C32.9971 7.45402 32.4588 7.2746 31.9206 7.15467C31.3832 7.03475 30.845 7.15467 30.2472 7.15467C29.4096 7.15467 29.4096 6.8544 28.5729 6.8544C27.7353 6.8544 27.7353 6.91482 26.8986 6.91482C26.061 6.91482 26.061 7.2746 25.2243 7.2746C24.3867 7.2746 24.3867 6.97432 23.55 6.97432C22.7124 6.97432 22.7124 6.97432 21.8757 6.97432C21.0391 6.97432 21.0391 7.33409 20.2015 7.33409C19.3648 7.33409 19.3648 7.33409 18.5272 7.33409C17.6905 7.33409 17.6905 6.91482 16.8529 6.91482C16.0162 6.91482 16.0162 6.7949 15.1786 6.7949C14.3419 6.7949 14.3419 6.91482 13.5043 6.91482C12.9669 6.91482 12.3682 7.03475 11.83 7.15467C11.2926 7.2746 10.8139 7.69387 10.3351 7.87422C9.85727 8.11407 9.3785 8.35392 8.96016 8.71369C8.54182 9.07346 8.06305 9.31331 7.70421 9.79394C7.34629 10.2132 7.40579 10.8733 7.16687 11.353C6.92702 11.8327 6.38876 12.1934 6.26976 12.7326C6.14984 13.2727 6.03084 13.8128 6.03084 14.4124H5.97041C5.97041 14.9526 6.26976 15.4917 6.38876 16.0319C6.50868 16.572 6.56818 17.1112 6.80803 17.5918C7.04695 18.0715 7.58521 18.3709 7.94406 18.7911C8.3029 19.2113 8.42189 19.8704 8.84116 20.2311C9.25951 20.5909 9.85727 20.6504 10.3351 20.8902C10.8139 21.1301 11.2322 21.6702 11.7705 21.7901C12.3087 21.91 12.9065 21.91 13.4448 21.91C14.2824 21.91 14.2824 21.4303 15.1191 21.4303C15.9558 21.4303 15.9558 21.6702 16.7934 21.6702C17.63 21.6702 17.63 21.5503 18.4677 21.5503C19.3043 21.5503 19.3043 21.9705 20.142 21.9705C20.9786 21.9705 20.9786 21.3699 21.8162 21.3699C22.6529 21.3699 22.6529 21.7901 23.4905 21.7901C24.3272 21.7901 24.3272 21.3699 25.1639 21.3699C26.0015 21.3699 26.0015 21.8505 26.8382 21.8505C27.6758 21.8505 27.6758 21.91 28.5125 21.91C29.3501 21.91 29.3501 21.6702 30.1868 21.6702C30.7251 21.6702 31.2633 21.4303 31.8016 21.3104C32.3399 21.1905 32.9376 21.1905 33.4155 20.9506C33.8942 20.7108 34.2531 20.2906 34.6714 19.9308C35.0897 19.571 35.7479 19.4511 36.0464 19.0309C36.4052 18.6107 36.7045 18.0715 36.9435 17.5918C37.1833 17.1112 37.1833 16.5116 37.3023 15.9714C37.4222 15.4322 37.3023 14.8326 37.3023 14.2925C37.3023 14.2321 37.7206 14.4719 37.7206 14.4719Z" fill="#F8CF61"/>
</g>
<path d="M31.2607 14.953C31.2607 14.293 31.2607 14.293 31.2607 13.6329C31.2607 13.0928 31.3202 12.4932 31.7395 12.1334C32.1579 11.7736 32.6357 11.7736 33.2335 11.7736C34.0711 11.7736 34.0711 11.2939 34.8483 11.2939C35.6859 11.2939 35.6859 11.6537 36.463 11.6537C37.2997 11.6537 37.2997 11.5933 38.0769 11.5933C38.9145 11.5933 38.9145 11.4734 39.6917 11.4734C40.5284 11.4734 40.5284 11.5338 41.3056 11.5338C42.1432 11.5338 42.1432 11.7132 42.9204 11.7132C43.758 11.7132 43.758 11.2939 44.5352 11.2939C45.3719 11.2939 45.3719 11.7132 46.149 11.7132C46.9867 11.7132 46.9867 11.5933 47.7638 11.5933C48.6005 11.5933 48.6005 11.7736 49.3777 11.7736C50.2153 11.7736 50.2153 11.5338 50.9925 11.5338C51.8301 11.5338 51.8301 11.8331 52.6073 11.8331C53.444 11.8331 53.444 11.8331 54.2212 11.8331C55.0588 11.8331 55.0588 11.6537 55.836 11.6537C56.6726 11.6537 56.6726 11.5338 57.4498 11.5338C58.2279 11.5338 58.2874 11.8936 59.0646 11.8936C59.9022 11.8936 59.9022 11.7132 60.6794 11.7132C61.5161 11.7132 61.5161 11.7736 62.2933 11.7736C63.1309 11.7736 63.1309 11.5933 63.9081 11.5933C64.7448 11.5933 64.7448 11.7132 65.522 11.7132C66.3596 11.7132 66.3596 11.4139 67.1368 11.4139C67.9744 11.4139 67.9744 11.9531 68.7515 11.9531C69.2898 11.9531 69.8876 11.8936 70.2464 12.2533C70.6053 12.6131 70.9037 13.2127 70.9037 13.7529C70.9037 14.4129 70.9632 14.4129 70.9632 15.073C70.9632 15.6122 70.7243 16.3326 70.3654 16.6924C70.0066 17.0522 69.2898 17.3515 68.7515 17.3515C67.9139 17.3515 67.9139 17.3515 67.1368 17.3515C66.3001 17.3515 66.3001 16.8123 65.522 16.8123C64.6853 16.8123 64.6853 16.8718 63.9081 16.8718C63.0705 16.8718 63.0705 16.9918 62.2933 16.9918C61.4566 16.9918 61.4566 16.9918 60.6794 16.9918C59.8418 16.9918 59.8418 16.9323 59.0646 16.9323C58.2279 16.9323 58.2279 17.3515 57.4498 17.3515C56.6131 17.3515 56.6131 16.8123 55.836 16.8123C54.9984 16.8123 54.9984 16.8718 54.2212 16.8718C53.3845 16.8718 53.3845 16.8718 52.6073 16.8718C51.7697 16.8718 51.7697 17.2316 50.9925 17.2316C50.1558 17.2316 50.1558 16.9323 49.3777 16.9323C48.541 16.9323 48.541 17.1721 47.7638 17.1117C46.9262 17.1117 46.9262 17.0522 46.149 17.0522C45.3124 17.0522 45.3124 16.9918 44.5352 16.9918C43.758 16.9918 43.6976 16.7519 42.9204 16.7519C42.0837 16.7519 42.0837 16.7519 41.3056 16.7519C40.4689 16.7519 40.4689 16.9918 39.6917 16.9918C38.8541 16.9918 38.8541 17.1117 38.0769 17.1117C37.2402 17.1117 37.2402 17.2316 36.463 17.1721C35.6254 17.1721 35.6254 17.0522 34.8483 17.0522C34.0116 17.0522 34.0116 16.9918 33.2335 16.9918C32.6961 16.9918 32.0379 16.8123 31.6791 16.4526C31.3202 16.1523 31.2607 15.5527 31.2607 14.953Z" fill="#F8CF61"/>
<mask id="mask1_746_1338" style="mask-type:luminance" maskUnits="userSpaceOnUse" x="117" y="2" width="43" height="27">
<path d="M117.332 2.29883H159.932V28.328H117.332V2.29883Z" fill="white"/>
</mask>
<g mask="url(#mask1_746_1338)">
<path d="M117.843 15.2515H117.724C117.724 14.7114 117.604 14.1118 117.664 13.5726C117.724 13.0325 117.843 12.4328 117.963 11.8927C118.082 11.3526 118.381 10.8134 118.561 10.3328C118.8 9.79358 118.92 9.25345 119.219 8.77375C119.518 8.29405 120.235 8.1137 120.535 7.6935C120.892 7.27423 121.132 6.73411 121.491 6.37433C121.909 5.95413 122.328 5.71428 122.746 5.35451C123.165 4.99474 123.464 4.51504 123.943 4.21476C124.42 3.91449 124.959 3.79456 125.497 3.61514C125.976 3.37529 126.513 3.19494 127.051 3.07502C127.59 2.95509 128.128 3.01552 128.666 2.95509C129.204 2.89559 129.743 2.47539 130.28 2.47539C131.118 2.47539 131.118 2.35547 131.954 2.35547C132.792 2.35547 132.792 2.35547 133.629 2.35547C134.466 2.35547 134.466 2.53489 135.303 2.53489C136.141 2.53489 136.141 2.35547 136.977 2.35547C137.815 2.35547 137.815 2.59532 138.652 2.59532C139.489 2.59532 139.489 2.65482 140.326 2.65482C141.162 2.65482 141.162 2.83517 142 2.83517C142.837 2.83517 142.837 2.41497 143.674 2.41497C144.511 2.41497 144.511 2.41497 145.349 2.41497C146.185 2.41497 146.185 2.41497 147.023 2.41497C147.561 2.41497 148.099 2.95509 148.637 3.01552C149.175 3.07502 149.773 2.95509 150.311 3.13544C150.849 3.25537 151.328 3.49522 151.866 3.67464C152.404 3.91449 153.002 3.91449 153.48 4.15527C153.959 4.45461 154.198 5.05423 154.616 5.41401C155.035 5.77471 155.513 6.07406 155.872 6.43383C156.291 6.85403 156.888 6.97396 157.247 7.45365C157.606 7.87385 157.845 8.41398 158.085 8.89368C158.383 9.37337 158.383 9.973 158.622 10.5131C158.862 10.9928 159.34 11.413 159.519 11.9522C159.639 12.4923 159.34 13.092 159.4 13.6925C159.46 14.2317 159.699 14.7718 159.699 15.312H159.519C159.519 15.8512 159.759 16.4517 159.699 16.9909C159.639 17.531 159.58 18.1307 159.4 18.6708C159.28 19.2109 158.802 19.6302 158.622 20.1703C158.383 20.7104 158.324 21.2496 158.024 21.7302C157.726 22.2099 157.188 22.4498 156.829 22.9295C156.47 23.3497 156.111 23.7095 155.693 24.1297C155.275 24.5489 155.095 25.1486 154.676 25.4488C154.257 25.8086 153.899 26.2883 153.421 26.5886C152.942 26.8889 152.344 26.9484 151.806 27.1882C151.328 27.4281 150.67 27.2486 150.132 27.3686C149.593 27.4885 149.116 27.9682 148.577 28.0277C148.039 28.0881 147.501 28.3279 146.903 28.3279C146.066 28.3279 146.066 27.7878 145.229 27.7878C144.392 27.7878 144.392 28.208 143.554 28.208C142.718 28.208 142.718 27.8483 141.88 27.8483C141.043 27.8483 141.043 28.3279 140.206 28.3279C139.369 28.3279 139.369 28.1485 138.532 28.1485C137.695 28.1485 137.695 28.208 136.858 28.208C136.021 28.208 136.021 27.7878 135.184 27.7878C134.346 27.7878 134.346 27.9682 133.51 27.9682C132.672 27.9682 132.672 28.1485 131.835 28.1485C130.998 28.1485 130.998 27.8483 130.161 27.8483C129.623 27.8483 129.085 27.9077 128.546 27.8483C128.008 27.7878 127.351 28.0277 126.812 27.8483C126.274 27.7283 125.915 27.0088 125.438 26.8284C124.899 26.5886 124.182 26.8284 123.703 26.5282C123.225 26.2288 122.746 25.9285 122.328 25.5688C121.909 25.209 121.79 24.4894 121.371 24.1297C120.953 23.7095 120.594 23.3497 120.295 22.9295C119.936 22.5093 119.458 22.2099 119.159 21.7302C118.86 21.2496 118.8 20.7104 118.561 20.1703C118.322 19.6906 118.381 19.091 118.262 18.5509C118.143 18.0107 117.545 17.5915 117.484 16.9909C117.604 16.3913 117.843 15.7917 117.843 15.2515ZM154.377 15.312C154.377 14.7718 154.198 14.2317 154.078 13.6925C153.959 13.1524 153.6 12.7322 153.36 12.193C153.121 11.7124 152.823 11.2931 152.524 10.8729C152.165 10.4527 151.866 10.0334 151.447 9.67365C151.029 9.31295 150.55 9.13353 150.013 8.89368C149.534 8.65383 149.175 7.99378 148.637 7.87385C148.099 7.75393 147.501 7.81343 146.963 7.81343C146.126 7.81343 146.126 7.75393 145.288 7.75393C144.452 7.75393 144.452 8.05328 143.615 8.05328C142.777 8.05328 142.777 7.93335 141.941 7.93335C141.103 7.93335 141.103 7.93335 140.266 7.93335C139.429 7.93335 139.429 7.75393 138.592 7.75393C137.754 7.75393 137.754 8.1137 136.918 8.1137C136.08 8.1137 136.08 8.23363 135.243 8.23363C134.406 8.23363 134.406 8.23363 133.569 8.23363C132.732 8.23363 132.732 8.05328 131.895 8.05328C131.058 8.05328 131.058 8.23363 130.221 8.23363C129.682 8.23363 129.144 8.05328 128.607 8.17413C128.068 8.29405 127.53 8.41398 127.051 8.65383C126.574 8.89368 125.976 9.0731 125.557 9.37337C125.138 9.73315 125.018 10.3932 124.72 10.8134C124.361 11.2327 124.122 11.6529 123.882 12.1326C123.643 12.6123 123.523 13.092 123.404 13.6321C123.284 14.1722 122.687 14.6519 122.687 15.192H122.926C122.926 15.7312 122.926 16.3318 123.046 16.8115C123.165 17.3507 123.584 17.7709 123.823 18.2506C124.062 18.7303 124.002 19.4508 124.361 19.87C124.72 20.2902 125.198 20.65 125.617 21.0098C126.035 21.3695 126.693 21.31 127.171 21.5499C127.649 21.7897 128.128 22.0296 128.666 22.1495C129.204 22.2694 129.682 22.5697 130.28 22.5697C131.118 22.5697 131.118 22.2099 131.954 22.2099C132.792 22.2099 132.792 22.6292 133.629 22.6292C134.466 22.6292 134.466 22.4498 135.303 22.4498C136.141 22.4498 136.141 22.6292 136.977 22.6292C137.815 22.6292 137.815 22.3299 138.652 22.3299C139.489 22.3299 139.489 22.2694 140.326 22.2694C141.162 22.2694 141.162 22.5697 142 22.5697C142.837 22.5697 142.837 22.3894 143.674 22.3894C144.511 22.3894 144.511 22.7491 145.349 22.7491C146.185 22.7491 146.185 22.8096 147.023 22.8096C147.561 22.8096 148.099 22.4498 148.637 22.3299C149.175 22.2099 149.593 21.7897 150.072 21.5499C150.55 21.31 151.088 21.1901 151.508 20.8898C151.926 20.5301 152.583 20.4101 152.942 19.9899C153.301 19.5707 153.241 18.9106 153.48 18.3705C153.719 17.8908 153.719 17.3507 153.839 16.8115C153.959 16.2714 154.557 15.8512 154.557 15.312C154.496 15.312 154.377 15.312 154.377 15.312Z" fill="#F8CF61"/>
</g>
<path d="M89.0604 15.6591C89.0604 15 89 15 89 14.3399C89 13.7998 89.5978 13.3201 89.9566 12.9603C90.3155 12.6006 90.7942 12.1199 91.3325 12.1199C92.1692 12.1199 92.1692 12.4806 92.9464 12.4806C93.784 12.4806 93.784 12.3607 94.5611 12.3607C95.3978 12.3607 95.3978 12.0604 96.175 12.0604C97.0126 12.0604 97.0126 12.3003 97.7898 12.3003C98.6274 12.3003 98.6274 12.4806 99.4046 12.4806C100.241 12.4806 100.241 12.4202 101.018 12.4202C101.856 12.4202 101.856 12.4202 102.633 12.4202C103.47 12.4202 103.47 12.66 104.247 12.66C105.085 12.66 105.085 12.0604 105.862 12.0604C106.7 12.0604 106.7 12.4202 107.477 12.4202C108.313 12.4202 108.313 12.4202 109.091 12.4202C109.928 12.4202 109.928 12.1199 110.705 12.1199C111.542 12.1199 111.542 12.3607 112.319 12.3607C113.157 12.3607 113.157 12.1199 113.934 12.1199C114.772 12.1199 114.772 12.4806 115.549 12.4806C116.386 12.4806 116.386 12.4806 117.163 12.5401C118 12.5401 118 12.5401 118.778 12.5401C119.614 12.5401 119.614 12.5401 120.391 12.5401C121.229 12.5401 121.229 12.1804 122.006 12.1804C122.844 12.1804 122.844 12.1804 123.621 12.1804C124.458 12.1804 124.458 12.5401 125.235 12.5401C126.072 12.5401 126.072 12 126.85 12C127.388 12 127.747 12.7205 128.106 13.0802C128.464 13.44 129.122 13.7403 129.122 14.3399C129.122 15 128.883 15 128.883 15.6591C128.883 16.1992 128.822 16.9188 128.464 17.2785C128.106 17.6392 127.447 17.9386 126.85 17.9386C126.012 17.9386 126.012 17.5788 125.235 17.5788C124.398 17.5788 124.398 17.7592 123.621 17.7592C122.783 17.7592 122.783 17.5788 122.006 17.5184C121.17 17.5184 121.17 17.6392 120.391 17.6392C119.555 17.6392 119.555 17.6392 118.778 17.6392C117.94 17.6392 117.94 17.4589 117.163 17.4589C116.326 17.4589 116.326 17.6987 115.549 17.6987C114.711 17.6987 114.711 17.9386 113.934 17.9386C113.097 17.9386 113.097 17.999 112.319 17.9386C111.483 17.9386 111.483 17.8791 110.705 17.8791C109.868 17.8791 109.868 17.6392 109.091 17.6392C108.254 17.6392 108.254 17.3985 107.477 17.3985C106.639 17.3985 106.639 17.6392 105.862 17.6392C105.025 17.6392 105.025 17.8187 104.248 17.8187C103.41 17.8187 103.41 17.5184 102.633 17.5184C101.796 17.5184 101.796 17.6392 101.018 17.6392C100.182 17.6392 100.182 17.9386 99.4046 17.9386C98.567 17.9386 98.567 17.5184 97.7898 17.5184C96.9531 17.5184 96.9531 17.5788 96.1759 17.5788C95.3383 17.5788 95.3383 17.5788 94.5611 17.5788C93.7235 17.5788 93.7235 18.0585 92.9464 18.0585C92.1097 18.0585 92.1097 17.999 91.3325 17.999C90.7942 17.999 90.1965 17.6392 89.7772 17.2785C89.3588 16.9188 89.0604 16.1992 89.0604 15.6591Z" fill="#F8CF61"/>
</g>
<defs>
<clipPath id="clip0_746_1338">
<rect width="161" height="27.6663" fill="white" transform="translate(0.000976562 0.633789)"/>
</clipPath>
</defs>
</svg>
