<svg width="211" height="209" viewBox="0 0 211 209" fill="none" xmlns="http://www.w3.org/2000/svg">
<path d="M101.204 184.172C100.899 184.172 100.598 184.141 100.298 184.082C99.9995 184.022 99.7094 183.934 99.4277 183.817C99.146 183.7 98.8789 183.559 98.6243 183.39C98.3718 183.221 98.1381 183.026 97.921 182.812C97.7061 182.597 97.5141 182.361 97.3451 182.108C97.1739 181.856 97.032 181.587 96.9152 181.305C96.7983 181.023 96.7107 180.733 96.6501 180.435C96.5917 180.136 96.5625 179.834 96.5625 179.529V105.251C96.5625 104.946 96.5917 104.643 96.6501 104.345C96.7107 104.047 96.7983 103.756 96.9152 103.475C97.032 103.193 97.1739 102.926 97.3451 102.671C97.5141 102.419 97.7061 102.183 97.921 101.968C98.1381 101.753 98.3718 101.559 98.6243 101.39C98.8789 101.221 99.146 101.079 99.4277 100.962C99.7094 100.845 99.9995 100.758 100.298 100.697C100.598 100.639 100.899 100.607 101.204 100.607C101.508 100.607 101.811 100.639 102.109 100.697C102.41 100.758 102.7 100.845 102.982 100.962C103.263 101.079 103.53 101.221 103.783 101.39C104.037 101.559 104.271 101.753 104.486 101.968C104.703 102.183 104.895 102.419 105.064 102.671C105.233 102.926 105.377 103.193 105.494 103.475C105.609 103.756 105.699 104.047 105.757 104.345C105.818 104.643 105.847 104.946 105.847 105.251V179.529C105.847 179.834 105.818 180.136 105.757 180.435C105.699 180.733 105.609 181.023 105.494 181.305C105.377 181.587 105.233 181.856 105.064 182.108C104.895 182.361 104.703 182.597 104.486 182.812C104.271 183.026 104.037 183.221 103.783 183.39C103.53 183.559 103.263 183.7 102.982 183.817C102.7 183.934 102.41 184.022 102.109 184.082C101.811 184.141 101.508 184.172 101.204 184.172Z" fill="#566271"/>
<path d="M69.5431 184.172H27.2516C26.9469 184.172 26.6443 184.141 26.3459 184.082C26.0475 184.022 25.7574 183.934 25.4757 183.817C25.194 183.7 24.9269 183.559 24.6723 183.39C24.4198 183.221 24.1839 183.026 23.969 182.812C23.7541 182.597 23.56 182.361 23.391 182.108C23.2219 181.856 23.08 181.587 22.9632 181.305C22.8463 181.023 22.7586 180.733 22.6981 180.435C22.6397 180.136 22.6084 179.834 22.6084 179.529C22.6084 179.224 22.6397 178.922 22.6981 178.623C22.7586 178.325 22.8463 178.035 22.9632 177.753C23.08 177.471 23.2219 177.204 23.391 176.95C23.56 176.697 23.7541 176.461 23.969 176.246C24.1839 176.031 24.4198 175.837 24.6723 175.668C24.9269 175.499 25.194 175.357 25.4757 175.241C25.7574 175.124 26.0475 175.036 26.3459 174.975C26.6443 174.917 26.9469 174.886 27.2516 174.886H60.2588V105.251C60.2588 104.946 60.2881 104.643 60.3486 104.345C60.407 104.047 60.4967 103.756 60.6115 103.475C60.7284 103.193 60.8724 102.926 61.0414 102.671C61.2104 102.419 61.4024 102.183 61.6194 101.968C61.8344 101.753 62.0681 101.559 62.3227 101.39C62.5752 101.221 62.8423 101.079 63.124 100.962C63.4058 100.845 63.6958 100.758 63.9963 100.697C64.2948 100.639 64.5973 100.607 64.902 100.607C65.2067 100.607 65.5072 100.639 65.8077 100.697C66.1061 100.758 66.3962 100.845 66.6779 100.962C66.9596 101.079 67.2267 101.221 67.4813 101.39C67.7338 101.559 67.9676 101.753 68.1846 101.968C68.3995 102.183 68.5915 102.419 68.7605 102.671C68.9317 102.926 69.0736 103.193 69.1904 103.475C69.3073 103.756 69.3949 104.047 69.4555 104.345C69.5139 104.643 69.5431 104.946 69.5431 105.251V184.172Z" fill="#566271"/>
<path d="M183.072 184.775L132.863 184.172V105.251C132.863 104.946 132.892 104.643 132.953 104.345C133.011 104.047 133.101 103.756 133.218 103.475C133.333 103.193 133.477 102.926 133.646 102.671C133.815 102.419 134.009 102.183 134.224 101.968C134.439 101.753 134.673 101.559 134.927 101.39C135.18 101.221 135.449 101.079 135.731 100.962C136.01 100.845 136.302 100.758 136.601 100.697C136.899 100.639 137.202 100.607 137.506 100.607C137.811 100.607 138.114 100.639 138.412 100.697C138.711 100.758 139.001 100.845 139.282 100.962C139.564 101.079 139.831 101.221 140.086 101.39C140.338 101.559 140.574 101.753 140.789 101.968C141.004 102.183 141.196 102.419 141.367 102.671C141.536 102.926 141.678 103.193 141.795 103.475C141.912 103.756 141.999 104.047 142.06 104.345C142.118 104.643 142.148 104.946 142.148 105.251V174.886L183.118 175.397C183.423 175.397 183.725 175.426 184.024 175.487C184.322 175.545 184.612 175.635 184.894 175.75C185.176 175.867 185.443 176.011 185.697 176.18C185.95 176.349 186.186 176.541 186.401 176.758C186.616 176.973 186.808 177.206 186.979 177.461C187.148 177.713 187.29 177.981 187.407 178.262C187.523 178.544 187.611 178.834 187.672 179.135C187.73 179.433 187.759 179.736 187.759 180.04C187.765 180.351 187.743 180.658 187.686 180.965C187.63 181.269 187.544 181.568 187.429 181.856C187.315 182.144 187.171 182.419 187.002 182.678C186.831 182.939 186.637 183.179 186.417 183.4C186.198 183.619 185.96 183.817 185.702 183.991C185.445 184.164 185.172 184.308 184.884 184.427C184.596 184.546 184.299 184.633 183.995 184.692C183.69 184.75 183.381 184.777 183.072 184.775Z" fill="#566271"/>
<mask id="mask0_744_1107" style="mask-type:luminance" maskUnits="userSpaceOnUse" x="84" y="176" width="34" height="33">
<path d="M84.9453 176.091H117.533V208.933H84.9453V176.091Z" fill="white"/>
</mask>
<g mask="url(#mask0_744_1107)">
<path d="M101.206 176.558C100.68 176.562 100.154 176.591 99.6302 176.647C99.1065 176.702 98.5868 176.783 98.0714 176.889C97.5559 176.996 97.0447 177.125 96.5417 177.282C96.0388 177.438 95.5442 177.618 95.0601 177.822C94.5739 178.027 94.1002 178.256 93.6369 178.507C93.1736 178.757 92.725 179.031 92.2867 179.325C91.8506 179.621 91.4311 179.936 91.0242 180.272C90.6194 180.608 90.2312 180.963 89.8618 181.339C89.4904 181.712 89.1377 182.104 88.8059 182.511C88.4741 182.92 88.1632 183.344 87.871 183.784C87.5809 184.223 87.3117 184.675 87.0655 185.141C86.8192 185.606 86.596 186.084 86.3956 186.57C86.1974 187.059 86.02 187.553 85.8697 188.058C85.7195 188.563 85.5922 189.074 85.492 189.59C85.3898 190.107 85.3146 190.629 85.2646 191.153C85.2145 191.677 85.1894 192.203 85.1915 192.728C85.1915 193.256 85.2187 193.78 85.2708 194.306C85.3251 194.83 85.4023 195.349 85.5066 195.867C85.6089 196.382 85.7383 196.892 85.8927 197.397C86.045 197.9 86.2245 198.396 86.4269 198.882C86.6273 199.369 86.8526 199.842 87.1031 200.308C87.3514 200.771 87.6227 201.224 87.9148 201.66C88.207 202.098 88.5221 202.522 88.856 202.929C89.1899 203.336 89.5426 203.726 89.9161 204.097C90.2875 204.469 90.6778 204.824 91.0847 205.158C91.4916 205.491 91.9153 205.804 92.3514 206.099C92.7896 206.391 93.2404 206.662 93.7058 206.91C94.169 207.159 94.6448 207.384 95.1311 207.587C95.6173 207.789 96.1119 207.966 96.6169 208.121C97.1198 208.275 97.6311 208.403 98.1465 208.507C98.664 208.611 99.1837 208.688 99.7075 208.741C100.231 208.795 100.757 208.822 101.283 208.822C101.811 208.824 102.337 208.799 102.861 208.749C103.384 208.699 103.906 208.624 104.422 208.521C104.939 208.421 105.45 208.294 105.955 208.144C106.458 207.991 106.955 207.816 107.443 207.616C107.93 207.418 108.407 207.194 108.873 206.948C109.338 206.702 109.789 206.433 110.229 206.14C110.667 205.85 111.091 205.539 111.5 205.208C111.909 204.874 112.301 204.523 112.675 204.152C113.049 203.782 113.405 203.394 113.741 202.987C114.077 202.582 114.392 202.161 114.687 201.725C114.983 201.289 115.256 200.84 115.507 200.377C115.757 199.913 115.985 199.44 116.189 198.953C116.394 198.467 116.575 197.973 116.73 197.47C116.886 196.967 117.018 196.458 117.124 195.942C117.23 195.427 117.312 194.907 117.366 194.383C117.422 193.859 117.452 193.334 117.454 192.806C117.454 192.273 117.429 191.743 117.377 191.213C117.324 190.685 117.247 190.16 117.143 189.636C117.039 189.114 116.909 188.599 116.755 188.089C116.6 187.58 116.421 187.079 116.218 186.589C116.014 186.096 115.786 185.617 115.536 185.147C115.286 184.677 115.012 184.223 114.716 183.78C114.422 183.338 114.104 182.91 113.766 182.499C113.428 182.088 113.071 181.693 112.696 181.318C112.32 180.942 111.926 180.583 111.515 180.247C111.104 179.909 110.676 179.592 110.233 179.296C109.791 179.001 109.336 178.728 108.867 178.477C108.397 178.225 107.917 178 107.425 177.795C106.932 177.591 106.433 177.413 105.922 177.259C105.413 177.104 104.897 176.975 104.376 176.871C103.854 176.766 103.328 176.689 102.798 176.637C102.27 176.585 101.738 176.558 101.206 176.558Z" fill="#7F9EB2"/>
</g>
<mask id="mask1_744_1107" style="mask-type:luminance" maskUnits="userSpaceOnUse" x="0" y="163" width="33" height="33">
<path d="M0 163.269H32.5899V195.856H0V163.269Z" fill="white"/>
</mask>
<g mask="url(#mask1_744_1107)">
<path d="M15.947 163.443C15.4211 163.448 14.8953 163.477 14.3715 163.531C13.8477 163.587 13.3281 163.667 12.8126 163.773C12.2951 163.88 11.7859 164.011 11.283 164.167C10.78 164.324 10.2855 164.503 9.80133 164.708C9.3151 164.912 8.84139 165.14 8.37812 165.39C7.91484 165.643 7.46409 165.914 7.02794 166.21C6.5918 166.505 6.17026 166.82 5.76542 167.156C5.36057 167.494 4.97243 167.849 4.60097 168.222C4.2316 168.596 3.87893 168.988 3.54713 169.397C3.21532 169.806 2.9023 170.23 2.61223 170.668C2.32216 171.108 2.05296 171.561 1.80672 172.026C1.56047 172.492 1.33718 172.968 1.13685 173.456C0.936512 173.942 0.761219 174.439 0.610968 174.944C0.45863 175.447 0.333421 175.958 0.231166 176.476C0.130999 176.991 0.0558728 177.513 0.00370244 178.037C-0.0463813 178.56 -0.0693359 179.086 -0.0693359 179.614C-0.0672492 180.14 -0.0401207 180.666 0.0120497 181.19C0.0642207 181.713 0.14352 182.233 0.247861 182.751C0.350115 183.266 0.479498 183.777 0.633923 184.28C0.786261 184.785 0.96364 185.28 1.16606 185.766C1.36848 186.252 1.59386 186.728 1.84219 187.191C2.09261 187.657 2.36181 188.108 2.65605 188.546C2.94821 188.984 3.26123 189.406 3.59721 189.812C3.9311 190.219 4.28377 190.61 4.65523 190.981C5.02877 191.355 5.419 191.707 5.82594 192.041C6.23287 192.377 6.6544 192.69 7.09264 192.982C7.53087 193.277 7.98162 193.546 8.44698 193.796C8.91026 194.045 9.38605 194.27 9.87228 194.472C10.3585 194.675 10.8531 194.852 11.3581 195.004C11.861 195.159 12.3723 195.288 12.8877 195.391C13.4032 195.495 13.9249 195.574 14.4487 195.626C14.9725 195.678 15.4984 195.706 16.0242 195.708C16.5522 195.708 17.076 195.685 17.6019 195.633C18.1257 195.583 18.6453 195.507 19.1628 195.407C19.6803 195.305 20.1916 195.18 20.6945 195.027C21.1996 194.877 21.6962 194.702 22.1824 194.502C22.6708 194.301 23.1466 194.078 23.6119 193.832C24.0773 193.585 24.5301 193.316 24.9704 193.026C25.4087 192.736 25.8323 192.423 26.2413 192.091C26.6503 191.759 27.0406 191.407 27.4162 191.037C27.7897 190.666 28.1445 190.278 28.4805 189.873C28.8185 189.468 29.1336 189.047 29.4279 188.61C29.7242 188.174 29.9955 187.724 30.248 187.26C30.4984 186.797 30.7259 186.323 30.9304 185.837C31.1349 185.353 31.3144 184.858 31.4709 184.355C31.6274 183.852 31.7589 183.343 31.8653 182.826C31.9717 182.31 32.051 181.791 32.1074 181.267C32.1616 180.743 32.1908 180.217 32.195 179.691C32.195 179.159 32.17 178.629 32.1178 178.099C32.0656 177.569 31.9863 177.043 31.8841 176.521C31.7797 176 31.6504 175.484 31.4959 174.975C31.3415 174.466 31.162 173.965 30.9596 173.473C30.7551 172.982 30.5276 172.5 30.2772 172.033C30.0268 171.563 29.7534 171.106 29.4571 170.664C29.1608 170.221 28.8457 169.796 28.5076 169.382C28.1695 168.971 27.8127 168.579 27.4371 168.201C27.0593 167.826 26.667 167.469 26.2559 167.131C25.8427 166.793 25.417 166.478 24.9746 166.181C24.5322 165.885 24.0752 165.612 23.6057 165.361C23.1382 165.111 22.6562 164.883 22.1657 164.679C21.6733 164.476 21.1724 164.297 20.6632 164.142C20.1541 163.988 19.6386 163.859 19.1169 163.754C18.5952 163.652 18.0693 163.573 17.5393 163.521C17.0092 163.468 16.4792 163.443 15.947 163.443Z" fill="#7F9EB2"/>
</g>
<mask id="mask2_744_1107" style="mask-type:luminance" maskUnits="userSpaceOnUse" x="178" y="164" width="34" height="34">
<path d="M178.437 164.873H211.001V197.461H178.437V164.873Z" fill="white"/>
</mask>
<g mask="url(#mask2_744_1107)">
<path d="M194.539 165.091C194.013 165.095 193.485 165.124 192.962 165.181C192.436 165.237 191.916 165.316 191.399 165.423C190.881 165.531 190.372 165.663 189.867 165.819C189.364 165.976 188.869 166.155 188.383 166.362C187.897 166.566 187.421 166.796 186.958 167.046C186.494 167.299 186.044 167.572 185.608 167.868C185.169 168.165 184.748 168.482 184.343 168.818C183.936 169.156 183.548 169.513 183.179 169.888C182.807 170.264 182.456 170.656 182.123 171.065C181.791 171.476 181.48 171.9 181.19 172.343C180.898 172.783 180.63 173.236 180.384 173.703C180.138 174.168 179.915 174.646 179.716 175.137C179.518 175.625 179.343 176.122 179.193 176.627C179.042 177.134 178.917 177.645 178.817 178.163C178.717 178.682 178.642 179.204 178.594 179.73C178.544 180.254 178.521 180.782 178.525 181.31C178.527 181.835 178.556 182.363 178.61 182.887C178.665 183.413 178.744 183.933 178.85 184.45C178.955 184.968 179.086 185.479 179.241 185.982C179.397 186.487 179.577 186.982 179.781 187.468C179.986 187.954 180.213 188.43 180.464 188.895C180.716 189.358 180.987 189.809 181.284 190.247C181.578 190.684 181.895 191.107 182.231 191.512C182.567 191.919 182.924 192.309 183.297 192.681C183.673 193.052 184.065 193.405 184.474 193.737C184.883 194.071 185.307 194.381 185.747 194.674C186.188 194.966 186.641 195.235 187.108 195.481C187.573 195.727 188.051 195.951 188.54 196.151C189.028 196.351 189.525 196.527 190.03 196.679C190.537 196.829 191.048 196.957 191.565 197.057C192.083 197.159 192.605 197.234 193.131 197.284C193.656 197.334 194.182 197.357 194.71 197.355C195.238 197.355 195.764 197.326 196.29 197.274C196.814 197.22 197.336 197.14 197.853 197.036C198.371 196.932 198.88 196.802 199.385 196.648C199.89 196.493 200.384 196.314 200.873 196.109C201.359 195.907 201.835 195.679 202.3 195.431C202.765 195.181 203.216 194.907 203.654 194.613C204.093 194.319 204.514 194.004 204.921 193.668C205.328 193.332 205.718 192.977 206.09 192.603C206.463 192.23 206.816 191.838 207.15 191.431C207.484 191.022 207.797 190.598 208.089 190.158C208.381 189.717 208.65 189.267 208.899 188.799C209.147 188.334 209.37 187.856 209.573 187.37C209.773 186.881 209.95 186.385 210.103 185.88C210.255 185.375 210.382 184.863 210.485 184.344C210.585 183.826 210.662 183.305 210.714 182.781C210.764 182.255 210.789 181.729 210.789 181.201C210.783 180.671 210.754 180.143 210.697 179.617C210.641 179.091 210.56 178.57 210.453 178.05C210.345 177.532 210.213 177.021 210.057 176.516C209.898 176.009 209.717 175.512 209.512 175.026C209.306 174.538 209.078 174.062 208.826 173.597C208.573 173.131 208.298 172.679 208.001 172.24C207.705 171.802 207.388 171.378 207.052 170.971C206.714 170.565 206.357 170.174 205.981 169.801C205.603 169.429 205.211 169.075 204.8 168.741C204.391 168.407 203.965 168.094 203.523 167.802C203.083 167.507 202.628 167.238 202.16 166.99C201.693 166.741 201.215 166.516 200.727 166.316C200.236 166.113 199.74 165.936 199.232 165.784C198.725 165.631 198.212 165.504 197.692 165.4C197.173 165.297 196.651 165.22 196.123 165.17C195.597 165.118 195.069 165.091 194.539 165.091Z" fill="#7F9EB2"/>
</g>
<path d="M155.405 47.2209C156.017 45.3511 156.326 43.4313 156.334 41.4655C156.334 29.8586 145.47 20.3886 132.1 20.3886C129.911 20.3907 127.751 20.6515 125.624 21.1732C123.496 21.6949 121.461 22.4629 119.518 23.475C119.088 22.3857 118.606 21.3193 118.076 20.2759C117.544 19.2325 116.964 18.2183 116.336 17.2291C115.708 16.24 115.036 15.2842 114.318 14.3577C113.598 13.4332 112.838 12.5442 112.035 11.6928C111.234 10.8393 110.393 10.0254 109.514 9.25122C108.633 8.4791 107.719 7.74871 106.772 7.06214C105.823 6.37349 104.844 5.73284 103.836 5.14018C102.826 4.54544 101.791 3.99869 100.731 3.50203C99.6705 3.00745 98.5896 2.56087 97.4856 2.16646C96.3838 1.77205 95.2632 1.4319 94.13 1.14392C92.9948 0.853849 91.8471 0.620125 90.691 0.440658C89.5328 0.261192 88.3704 0.135983 87.2018 0.0650304C86.0332 -0.00383455 84.8625 -0.0184424 83.6918 0.023294C82.521 0.0629437 81.3566 0.158938 80.1942 0.309189C79.034 0.461527 77.882 0.666035 76.7406 0.926888C75.5991 1.18565 74.4722 1.50076 73.3599 1.86596C72.2476 2.23324 71.1541 2.6506 70.0815 3.12014C69.0089 3.59176 67.9613 4.11138 66.9367 4.67899C65.9141 5.2487 64.9187 5.86431 63.9546 6.52792C62.9884 7.19153 62.0577 7.89896 61.1583 8.65022C60.2609 9.40147 59.3991 10.1924 58.5769 11.025C57.7526 11.8577 56.97 12.7279 56.2292 13.6356C55.4884 14.5413 54.7914 15.4804 54.1403 16.4549C53.4871 17.4274 52.8819 18.427 52.3247 19.4579C51.7676 20.4867 51.2584 21.5405 50.8014 22.6194C50.3443 23.6962 49.9374 24.7939 49.5827 25.9103C49.23 27.0268 48.9295 28.1578 48.6811 29.3014C48.4349 30.4471 48.2429 31.6011 48.1052 32.7634C47.9654 33.9258 47.884 35.0923 47.8569 36.263C47.8276 37.4358 47.8569 38.6045 47.9382 39.7731C48.0217 40.9396 48.1594 42.102 48.3535 43.2581C48.5455 44.4121 48.7938 45.5557 49.0943 46.6867C34.0296 49.0093 22.6084 61.3112 22.6084 75.656V80.5078C22.6084 96.7558 36.9073 109.917 54.5034 109.917H147.907C165.501 109.917 179.8 96.7099 179.8 80.5078V75.7019C179.8 61.8683 169.379 50.2614 155.405 47.2209Z" fill="#44BCEC"/>
<g filter="url(#filter0_d_744_1107)">
<path d="M71.576 53.424C72.9627 53.424 74.2107 53.68 75.32 54.192C76.4293 54.6827 77.3787 55.344 78.168 56.176C78.9573 57.008 79.5547 57.968 79.96 59.056C80.3867 60.144 80.6 61.264 80.6 62.416C80.6 63.4827 80.4187 64.56 80.056 65.648C79.7147 66.736 79.2453 67.792 78.648 68.816C78.072 69.8187 77.3787 70.768 76.568 71.664C75.7787 72.5387 74.936 73.3067 74.04 73.968C73.1653 74.608 72.248 75.1093 71.288 75.472C70.3493 75.856 69.432 76.048 68.536 76.048C67.512 76.048 66.68 75.8133 66.04 75.344C65.4213 74.8747 64.9413 74.32 64.6 73.68C64.408 73.616 64.2053 73.5093 63.992 73.36C63.8 73.2107 63.6187 73.0293 63.448 72.816C63.2773 72.6027 63.128 72.368 63 72.112C62.8933 71.8347 62.84 71.536 62.84 71.216C62.84 70.7467 62.968 70.1067 63.224 69.296C63.5013 68.4853 63.8533 67.5893 64.28 66.608C64.728 65.6267 65.2293 64.6027 65.784 63.536C66.3387 62.4693 66.904 61.456 67.48 60.496C68.056 59.536 68.6107 58.672 69.144 57.904C69.6773 57.1147 70.1467 56.5173 70.552 56.112C69.592 56.368 68.6213 56.7307 67.64 57.2C66.6587 57.6693 65.7733 58.2133 64.984 58.832C64.1947 59.4507 63.544 60.1227 63.032 60.848C62.5413 61.5733 62.296 62.3093 62.296 63.056C62.04 63.056 61.784 62.9813 61.528 62.832C61.2933 62.6827 61.08 62.4907 60.888 62.256C60.7173 62 60.568 61.712 60.44 61.392C60.3333 61.0507 60.28 60.688 60.28 60.304C60.28 59.28 60.6533 58.352 61.4 57.52C62.1467 56.6667 63.0853 55.9413 64.216 55.344C65.3467 54.7253 66.5733 54.256 67.896 53.936C69.2187 53.5947 70.4453 53.424 71.576 53.424ZM65.88 71.632C65.88 72.1013 66.0187 72.5173 66.296 72.88C66.5947 73.2213 67.0533 73.392 67.672 73.392C68.3333 73.392 69.048 73.2107 69.816 72.848C70.584 72.464 71.352 71.9627 72.12 71.344C72.888 70.704 73.624 69.968 74.328 69.136C75.032 68.2827 75.6507 67.3867 76.184 66.448C76.7387 65.5093 77.176 64.5493 77.496 63.568C77.8373 62.5867 78.008 61.6373 78.008 60.72C78.008 59.2907 77.5813 58.1173 76.728 57.2C75.896 56.2613 74.6373 55.792 72.952 55.792H72.568C72.8667 55.9627 73.1013 56.1653 73.272 56.4C73.464 56.6347 73.56 56.8373 73.56 57.008C73.56 57.136 73.5173 57.232 73.432 57.296C72.7067 58.1493 71.96 59.184 71.192 60.4C70.4453 61.616 69.7307 62.8747 69.048 64.176C68.3653 65.4773 67.7467 66.7573 67.192 68.016C66.6587 69.2747 66.232 70.3733 65.912 71.312C65.8907 71.376 65.88 71.4827 65.88 71.632ZM80.4913 71.024C80.4913 70.384 80.6193 69.6693 80.8753 68.88C81.1313 68.0693 81.4726 67.248 81.8993 66.416C82.3259 65.584 82.8273 64.7733 83.4033 63.984C83.9793 63.1947 84.5873 62.5013 85.2273 61.904C85.8673 61.2853 86.5286 60.7947 87.2113 60.432C87.8939 60.048 88.5446 59.856 89.1633 59.856C89.5686 59.856 89.9419 59.9307 90.2833 60.08C90.6459 60.2293 90.9553 60.432 91.2113 60.688C91.4886 60.944 91.7019 61.2427 91.8513 61.584C92.0219 61.904 92.1073 62.2453 92.1073 62.608C92.1073 63.2693 91.8513 64.0267 91.3393 64.88C90.8273 65.7333 90.1553 66.576 89.3233 67.408C88.5126 68.2187 87.6059 68.9547 86.6033 69.616C85.6219 70.2773 84.6513 70.7467 83.6913 71.024V71.12C83.6913 71.5467 83.8086 71.9093 84.0433 72.208C84.2779 72.5067 84.6619 72.656 85.1953 72.656C85.7499 72.656 86.4006 72.496 87.1473 72.176C87.8939 71.856 88.6833 71.3973 89.5153 70.8C90.3473 70.1813 91.1899 69.4347 92.0433 68.56C92.9179 67.664 93.7393 66.6507 94.5073 65.52C94.6779 65.52 94.8699 65.6053 95.0833 65.776C95.2966 65.9253 95.4033 66.1173 95.4033 66.352C94.3366 67.952 93.3019 69.3067 92.2993 70.416C91.3179 71.504 90.3793 72.4 89.4833 73.104C88.5873 73.7867 87.7339 74.2773 86.9233 74.576C86.1126 74.896 85.3446 75.056 84.6193 75.056C84.0433 75.056 83.4993 74.9493 82.9873 74.736C82.4966 74.544 82.0593 74.2773 81.6753 73.936C81.3126 73.5733 81.0246 73.1467 80.8113 72.656C80.5979 72.144 80.4913 71.6 80.4913 71.024ZM84.0113 69.392C84.6726 69.1573 85.3659 68.7413 86.0913 68.144C86.8379 67.5467 87.5206 66.9067 88.1393 66.224C88.7793 65.52 89.3019 64.8373 89.7073 64.176C90.1126 63.4933 90.3153 62.96 90.3153 62.576C90.3153 62.2133 90.1339 62.032 89.7713 62.032C89.3446 62.032 88.8433 62.2667 88.2673 62.736C87.7126 63.2053 87.1579 63.8027 86.6033 64.528C86.0486 65.2533 85.5366 66.0533 85.0673 66.928C84.5979 67.7813 84.2459 68.6027 84.0113 69.392ZM95.8602 62.736H95.3483C95.0069 62.736 94.7403 62.6293 94.5483 62.416C94.3563 62.2027 94.2603 61.9573 94.2603 61.68C94.2603 61.4453 94.3349 61.2213 94.4843 61.008C94.6976 60.9867 95.0176 60.9653 95.4443 60.944C95.8923 60.9227 96.3936 60.9013 96.9483 60.88C97.4176 60.0907 97.8763 59.3547 98.3243 58.672C98.7723 57.9893 99.1989 57.392 99.6042 56.88C100.01 56.368 100.362 55.9733 100.66 55.696C100.98 55.3973 101.226 55.248 101.396 55.248C101.674 55.248 101.93 55.312 102.164 55.44C102.42 55.5467 102.644 55.6853 102.836 55.856C103.028 56.0053 103.178 56.176 103.284 56.368C103.412 56.5387 103.476 56.688 103.476 56.816C103.476 56.9227 103.423 57.008 103.316 57.072C103.018 57.2213 102.612 57.6267 102.1 58.288C101.588 58.9493 101.023 59.76 100.404 60.72C100.639 60.6987 100.863 60.688 101.076 60.688C101.29 60.688 101.482 60.688 101.652 60.688C102.271 60.688 102.698 60.8373 102.932 61.136C103.167 61.4347 103.284 61.7333 103.284 62.032C103.284 62.2667 103.231 62.4373 103.124 62.544C102.698 62.544 102.122 62.5547 101.396 62.576C100.692 62.576 99.9669 62.5973 99.2203 62.64C98.7509 63.4507 98.2923 64.2827 97.8443 65.136C97.3963 65.9893 97.0016 66.8107 96.6603 67.6C96.3189 68.3893 96.0416 69.1253 95.8283 69.808C95.6363 70.4907 95.5403 71.0667 95.5403 71.536C95.5403 72.112 95.7429 72.4 96.1483 72.4C96.6389 72.4 97.1936 72.208 97.8123 71.824C98.4309 71.44 99.0816 70.9387 99.7643 70.32C100.447 69.68 101.13 68.944 101.812 68.112C102.516 67.28 103.178 66.416 103.796 65.52C103.988 65.52 104.18 65.6053 104.372 65.776C104.586 65.9467 104.692 66.1387 104.692 66.352C104.436 66.7573 104.106 67.248 103.7 67.824C103.295 68.4 102.836 69.008 102.324 69.648C101.812 70.2667 101.258 70.8853 100.66 71.504C100.063 72.1227 99.4549 72.688 98.8363 73.2C98.2176 73.6907 97.5989 74.0853 96.9803 74.384C96.3616 74.704 95.7749 74.864 95.2203 74.864C94.8363 74.864 94.4736 74.7787 94.1323 74.608C93.7909 74.4587 93.4923 74.2453 93.2363 73.968C92.9803 73.6907 92.7669 73.3707 92.5963 73.008C92.4469 72.624 92.3723 72.2187 92.3723 71.792C92.3723 71.3013 92.4576 70.7253 92.6283 70.064C92.8203 69.3813 93.0763 68.6453 93.3963 67.856C93.7163 67.0453 94.0896 66.2027 94.5163 65.328C94.9429 64.4533 95.3909 63.5893 95.8602 62.736ZM101.334 71.504C101.334 70.7787 101.472 69.9893 101.75 69.136C102.027 68.2613 102.4 67.3867 102.87 66.512C103.339 65.6373 103.883 64.7947 104.502 63.984C105.142 63.1733 105.803 62.4587 106.486 61.84C107.168 61.2 107.862 60.688 108.566 60.304C109.291 59.92 109.974 59.728 110.614 59.728C111.04 59.728 111.478 59.8133 111.926 59.984C112.374 60.1547 112.779 60.3787 113.142 60.656C113.504 60.912 113.803 61.2 114.038 61.52C114.272 61.84 114.39 62.1493 114.39 62.448C114.39 62.768 114.294 63.056 114.102 63.312C113.931 63.5467 113.632 63.696 113.206 63.76C113.227 63.0347 113.078 62.5547 112.758 62.32C112.438 62.064 112.032 61.936 111.542 61.936C110.966 61.936 110.39 62.1173 109.814 62.48C109.259 62.8427 108.715 63.312 108.182 63.888C107.67 64.464 107.19 65.1147 106.742 65.84C106.315 66.5653 105.931 67.2907 105.59 68.016C105.27 68.72 105.014 69.392 104.822 70.032C104.651 70.6507 104.566 71.1627 104.566 71.568C104.566 71.824 104.598 71.9947 104.661 72.08C104.726 72.1653 104.811 72.208 104.918 72.208C105.088 72.208 105.334 72.016 105.654 71.632C105.995 71.248 106.379 70.768 106.806 70.192C107.232 69.5947 107.68 68.9653 108.15 68.304C108.64 67.6213 109.11 66.992 109.558 66.416C110.027 65.8187 110.454 65.328 110.838 64.944C111.243 64.56 111.574 64.368 111.83 64.368C112.128 64.368 112.416 64.4213 112.694 64.528C112.971 64.6347 113.216 64.7733 113.43 64.944C113.664 65.0933 113.846 65.264 113.974 65.456C114.123 65.6267 114.198 65.7973 114.198 65.968C114.198 66.096 114.166 66.192 114.102 66.256C114.016 66.2773 113.878 66.4373 113.686 66.736C113.515 67.0347 113.334 67.3973 113.142 67.824C112.971 68.2293 112.811 68.656 112.662 69.104C112.534 69.552 112.47 69.936 112.47 70.256C112.47 70.6827 112.619 70.896 112.918 70.896C113.408 70.896 114.038 70.4907 114.806 69.68C115.595 68.848 116.651 67.4613 117.974 65.52C118.144 65.52 118.336 65.6053 118.55 65.776C118.763 65.9253 118.87 66.1173 118.87 66.352C117.291 68.976 115.894 70.9067 114.678 72.144C113.462 73.3813 112.512 74 111.83 74C111.638 74 111.414 73.9467 111.158 73.84C110.923 73.7333 110.699 73.5627 110.486 73.328C110.272 73.0933 110.091 72.7947 109.942 72.432C109.814 72.0693 109.75 71.632 109.75 71.12C109.75 70.416 109.835 69.7653 110.006 69.168C110.176 68.5707 110.347 68.0373 110.518 67.568L110.262 67.504C109.92 67.952 109.515 68.6027 109.046 69.456C108.576 70.288 108.086 71.1307 107.574 71.984C107.062 72.8373 106.528 73.5733 105.974 74.192C105.44 74.832 104.918 75.152 104.406 75.152C104.022 75.152 103.638 75.0453 103.254 74.832C102.891 74.64 102.56 74.3733 102.262 74.032C101.984 73.6907 101.76 73.3067 101.59 72.88C101.419 72.432 101.334 71.9733 101.334 71.504ZM115.681 71.44C115.681 70.928 115.777 70.32 115.969 69.616C116.182 68.8907 116.438 68.144 116.737 67.376C117.057 66.608 117.409 65.8507 117.793 65.104C118.198 64.336 118.593 63.6533 118.977 63.056C119.361 62.4587 119.724 61.9787 120.065 61.616C120.406 61.232 120.673 61.04 120.865 61.04C121.164 61.04 121.441 61.0933 121.697 61.2C121.953 61.2853 122.188 61.4027 122.401 61.552C122.614 61.7013 122.774 61.872 122.881 62.064C123.009 62.2347 123.073 62.4053 123.073 62.576C123.073 62.7253 123.02 62.832 122.913 62.896C122.721 63.0027 122.486 63.2373 122.209 63.6C121.932 63.9413 121.644 64.368 121.345 64.88C121.046 65.3707 120.748 65.9147 120.449 66.512C120.172 67.1093 119.916 67.7067 119.681 68.304C119.468 68.88 119.286 69.4347 119.137 69.968C119.009 70.48 118.945 70.9173 118.945 71.28C118.945 71.5147 118.988 71.7173 119.073 71.888C119.158 72.0373 119.297 72.112 119.489 72.112C120.086 72.112 120.854 71.536 121.793 70.384C122.753 69.2107 123.926 67.5893 125.313 65.52C125.484 65.52 125.676 65.6053 125.889 65.776C126.102 65.9253 126.209 66.1173 126.209 66.352C125.974 66.7147 125.676 67.1733 125.313 67.728C124.972 68.2827 124.588 68.88 124.161 69.52C123.734 70.1387 123.286 70.7573 122.817 71.376C122.348 71.9947 121.868 72.56 121.377 73.072C120.886 73.5627 120.406 73.968 119.937 74.288C119.468 74.608 119.02 74.768 118.593 74.768C118.294 74.768 117.974 74.6827 117.633 74.512C117.292 74.3627 116.972 74.1493 116.673 73.872C116.396 73.5733 116.161 73.2213 115.969 72.816C115.777 72.4107 115.681 71.952 115.681 71.44ZM122.305 57.488C122.305 57.1467 122.38 56.7627 122.529 56.336C122.678 55.9093 122.87 55.504 123.105 55.12C123.34 54.736 123.617 54.416 123.937 54.16C124.257 53.904 124.588 53.776 124.929 53.776C125.228 53.776 125.516 53.8293 125.793 53.936C126.07 54.0427 126.305 54.1813 126.497 54.352C126.71 54.5013 126.881 54.6613 127.009 54.832C127.137 55.0027 127.201 55.1413 127.201 55.248C127.201 55.312 127.148 55.376 127.041 55.44C126.7 55.6533 126.358 55.952 126.017 56.336C125.676 56.72 125.356 57.1253 125.057 57.552C124.78 57.9573 124.524 58.352 124.289 58.736C124.076 59.0987 123.916 59.3973 123.809 59.632C123.681 59.6533 123.532 59.6213 123.361 59.536C123.19 59.4507 123.02 59.3227 122.849 59.152C122.7 58.9813 122.572 58.7573 122.465 58.48C122.358 58.2027 122.305 57.872 122.305 57.488ZM123.026 71.728C123.026 71.0667 123.207 70.1707 123.57 69.04C123.954 67.9093 124.434 66.6827 125.01 65.36C125.607 64.016 126.258 62.6613 126.962 61.296C127.666 59.9307 128.348 58.704 129.01 57.616C129.692 56.5067 130.311 55.6 130.866 54.896C131.42 54.192 131.836 53.84 132.114 53.84C132.391 53.84 132.658 53.904 132.914 54.032C133.17 54.1387 133.394 54.2773 133.586 54.448C133.778 54.5973 133.927 54.768 134.034 54.96C134.162 55.152 134.226 55.312 134.226 55.44C134.226 55.5467 134.162 55.632 134.034 55.696C133.756 55.8453 133.362 56.272 132.85 56.976C132.338 57.6587 131.794 58.5013 131.218 59.504C130.642 60.4853 130.044 61.5733 129.426 62.768C128.828 63.9627 128.284 65.1253 127.794 66.256C127.303 67.3653 126.898 68.4 126.578 69.36C126.279 70.2987 126.13 71.0347 126.13 71.568C126.13 72.1013 126.3 72.368 126.641 72.368C126.919 72.368 127.26 72.208 127.666 71.888C128.071 71.5467 128.53 71.0773 129.042 70.48C129.554 69.8827 130.108 69.168 130.706 68.336C131.324 67.4827 131.964 66.544 132.626 65.52C132.796 65.52 132.988 65.6053 133.202 65.776C133.415 65.9253 133.522 66.1173 133.522 66.352C133.287 66.7147 132.988 67.184 132.626 67.76C132.284 68.3147 131.9 68.912 131.474 69.552C131.047 70.1707 130.588 70.8 130.098 71.44C129.607 72.0587 129.106 72.624 128.594 73.136C128.082 73.648 127.57 74.064 127.058 74.384C126.567 74.704 126.098 74.864 125.65 74.864C125.33 74.864 125.01 74.7787 124.69 74.608C124.37 74.4373 124.082 74.2133 123.826 73.936C123.591 73.6373 123.399 73.296 123.25 72.912C123.1 72.528 123.026 72.1333 123.026 71.728ZM129.346 69.552C129.346 69.104 129.495 68.7413 129.794 68.464C130.093 68.1653 130.487 68.016 130.978 68.016C131.341 68.016 131.885 68.1653 132.61 68.464C133.357 68.7627 134.285 68.976 135.394 69.104C135.458 67.696 135.565 66.4373 135.714 65.328C135.863 64.2187 135.991 63.3653 136.098 62.768L135.906 62.672C135.671 63.0347 135.426 63.408 135.17 63.792C134.914 64.176 134.669 64.5387 134.434 64.88C134.221 65.2213 134.029 65.52 133.858 65.776C133.687 66.032 133.57 66.224 133.506 66.352C133.314 66.352 133.111 66.2667 132.898 66.096C132.706 65.9253 132.61 65.7333 132.61 65.52C132.738 65.328 132.951 64.9867 133.25 64.496C133.57 64.0053 133.89 63.4827 134.21 62.928C134.551 62.3733 134.871 61.8613 135.17 61.392C135.469 60.9013 135.661 60.5707 135.746 60.4C136.322 59.3333 137.111 58.8 138.114 58.8C138.562 58.8 138.999 58.9493 139.426 59.248C139.853 59.5253 140.237 59.9733 140.578 60.592C140.13 60.8693 139.767 61.296 139.49 61.872C139.213 62.4267 138.999 63.0667 138.85 63.792C138.722 64.5173 138.637 65.296 138.594 66.128C138.551 66.9387 138.53 67.7493 138.53 68.56V68.976C139.362 68.784 140.173 68.4213 140.962 67.888C141.751 67.3547 142.519 66.5653 143.266 65.52C143.437 65.52 143.629 65.6053 143.842 65.776C144.055 65.9253 144.162 66.1173 144.162 66.352C143.309 67.5253 142.402 68.4427 141.442 69.104C140.503 69.7653 139.543 70.224 138.562 70.48V71.888C138.562 72.848 138.274 73.6373 137.698 74.256C137.143 74.8747 136.45 75.184 135.618 75.184C134.978 75.184 134.285 74.992 133.538 74.608C132.813 74.2453 132.141 73.7867 131.522 73.232C130.903 72.656 130.381 72.048 129.954 71.408C129.549 70.7467 129.346 70.128 129.346 69.552ZM134.306 72.72C135.01 72.72 135.362 72.1547 135.362 71.024V70.736C134.466 70.672 133.591 70.5333 132.738 70.32C131.906 70.1067 131.202 69.9253 130.626 69.776C130.861 70.1813 131.138 70.5653 131.458 70.928C131.778 71.2907 132.109 71.6107 132.45 71.888C132.791 72.144 133.122 72.3467 133.442 72.496C133.783 72.6453 134.071 72.72 134.306 72.72Z" fill="white"/>
</g>
<defs>
<filter id="filter0_d_744_1107" x="56.2803" y="53.4238" width="91.8818" height="30.624" filterUnits="userSpaceOnUse" color-interpolation-filters="sRGB">
<feFlood flood-opacity="0" result="BackgroundImageFix"/>
<feColorMatrix in="SourceAlpha" type="matrix" values="0 0 0 0 0 0 0 0 0 0 0 0 0 0 0 0 0 0 127 0" result="hardAlpha"/>
<feOffset dy="4"/>
<feGaussianBlur stdDeviation="2"/>
<feComposite in2="hardAlpha" operator="out"/>
<feColorMatrix type="matrix" values="0 0 0 0 0 0 0 0 0 0 0 0 0 0 0 0 0 0 0.4 0"/>
<feBlend mode="normal" in2="BackgroundImageFix" result="effect1_dropShadow_744_1107"/>
<feBlend mode="normal" in="SourceGraphic" in2="effect1_dropShadow_744_1107" result="shape"/>
</filter>
</defs>
</svg>
