<svg width="28" height="33" viewBox="0 0 28 33" fill="none" xmlns="http://www.w3.org/2000/svg">
<mask id="mask0_741_2990" style="mask-type:luminance" maskUnits="userSpaceOnUse" x="10" y="28" width="8" height="5">
<path d="M10 28.7295H18V32.2067H10V28.7295Z" fill="white"/>
</mask>
<g mask="url(#mask0_741_2990)">
<path d="M13.994 32.207C15.8182 32.207 17.3697 31.0423 17.9462 29.4162C18.0624 29.0886 17.8241 28.7441 17.4763 28.7441H10.5113C10.1642 28.7441 9.92523 29.0886 10.0414 29.4162C10.6179 31.0423 12.1693 32.207 13.994 32.207Z" fill="black"/>
</g>
<mask id="mask1_741_2990" style="mask-type:luminance" maskUnits="userSpaceOnUse" x="0" y="0" width="28" height="28">
<path d="M0 0.929688H28V27.8297H0V0.929688Z" fill="white"/>
</mask>
<g mask="url(#mask1_741_2990)">
<path d="M24.7316 25.3577L24.014 24.1186C23.244 22.7886 22.8385 21.2793 22.8385 19.7427V16.8121C22.8385 12.5914 19.8768 9.06414 15.9181 8.18825V7.9173C15.9181 6.85845 15.0594 6 14 6C12.9407 6 12.082 6.85845 12.082 7.9173V8.18825C8.12324 9.06414 5.16129 12.5914 5.16129 16.8121V19.7427C5.16129 21.2793 4.756 22.7886 3.98578 24.1186L3.26842 25.3577C2.57622 26.3727 3.30306 27.7476 4.53191 27.7476H23.4681C24.6967 27.7476 25.4238 26.3727 24.7316 25.3577Z" fill="#FFFBF4"/>
</g>
</svg>
