<svg width="95" height="95" viewBox="0 0 95 95" fill="none" xmlns="http://www.w3.org/2000/svg">
<path d="M92.2673 53.8962C90.8387 52.406 88.7111 51.9885 86.8966 52.6819L83.3189 48.9346C83.7579 46.6691 83.9881 44.3448 83.9881 41.9535C83.9881 30.6893 78.8932 20.6096 70.8898 13.9118C73.7014 10.8206 74.5644 8.28759 74.7583 6.61105C74.899 5.44894 74.5048 4.29428 73.7089 3.43038L72.3185 1.93277C71.5524 1.10522 70.258 1.05396 69.4323 1.82094L67.9598 3.19181C67.5284 3.60092 67.3047 4.14517 67.3047 4.69687C67.3047 5.188 67.4911 5.68751 67.8555 6.08265C68.4575 6.73779 68.5991 7.69116 68.2049 8.48889C67.8778 9.17386 67.3792 10.0378 66.6803 10.8728C61.1167 7.42276 54.5485 5.42657 47.5198 5.42657C43.9347 5.42657 40.4763 5.94845 37.2034 6.91672H37.1959C35.8344 5.69497 34.0348 4.95688 32.0638 4.95688C29.2075 4.95688 26.7229 6.50668 25.3772 8.80108C24.038 6.49922 21.5461 4.95688 18.6981 4.95688C14.428 4.95688 10.9622 8.42179 10.9622 12.6975C10.9622 16.7579 14.086 20.0951 18.0653 20.4232C15.3208 24.1854 13.2677 28.4918 12.1224 33.1477H4.98943C3.01094 33.1477 1.4043 34.7572 1.4043 36.7384V45.6859C1.4043 47.6681 3.01094 49.2691 4.98943 49.2691H11.7878C13.223 56.3621 16.7122 62.702 21.6057 67.6486L19.4343 67C18.6235 66.7615 17.7755 67.2237 17.5369 68.0354L14.852 67.2237C13.8558 66.918 12.799 67.4623 12.457 68.4454C12.3824 68.6542 12.3526 68.8704 12.3526 69.0792C12.3526 69.8089 12.7692 70.5013 13.4616 70.8293L18.7046 73.325C20.1705 74.0184 21.1071 75.5001 21.1071 77.1245V93.656H73.9326V77.1245C73.9326 75.5001 74.8692 74.0184 76.3351 73.325L81.5781 70.8293C82.4709 70.4118 82.9024 69.3839 82.5827 68.4454C82.3078 67.6486 81.5557 67.1417 80.7524 67.1417C80.567 67.1417 80.3731 67.164 80.1877 67.2237L77.5028 68.0354C77.3089 67.3653 76.6995 66.9404 76.0369 66.9404C75.8961 66.9404 75.747 66.9553 75.6054 67L73.434 67.6486C77.376 63.6628 80.4029 58.7757 82.1811 53.3296L84.1074 55.3481C83.3339 57.129 83.6461 59.2818 85.0747 60.7794C86.4129 62.1875 88.384 62.6274 90.1248 62.0981C89.4846 62.0161 88.8677 61.7402 88.384 61.2342C87.2834 60.0795 87.3281 58.2464 88.4809 57.1365C89.6337 56.034 91.464 56.0787 92.5721 57.2334C93.0483 57.7404 93.3008 58.3657 93.353 59.0143C93.9625 57.2931 93.6056 55.3034 92.2673 53.8962Z" fill="#C2E6F9"/>
<path d="M83.3186 48.9348L86.8962 52.6821C88.7107 51.9887 90.8383 52.4062 92.266 53.8964C93.6052 55.3036 93.9621 57.2933 93.3526 59.0145C93.3005 58.3659 93.0479 57.7406 92.5717 57.2336C91.4636 56.079 89.6333 56.0342 88.4805 57.1367C87.3277 58.2466 87.283 60.0797 88.3836 61.2344C88.8673 61.7404 89.4842 62.0163 90.1244 62.0983C88.3836 62.6276 86.4126 62.1877 85.0743 60.7796C83.6457 59.282 83.3335 57.1292 84.107 55.3483L82.1807 53.3298L74.2518 45.0086C72.4364 45.701 70.3023 45.291 68.8737 43.7943C67.5354 42.3861 67.186 40.3965 67.7954 38.6836C67.8402 39.3238 68.0927 39.9575 68.5689 40.4561C69.677 41.6108 71.5073 41.6555 72.6601 40.553C73.8129 39.4431 73.8576 37.6109 72.757 36.4553C72.2734 35.9493 71.6555 35.6734 71.0162 35.5914C72.757 35.063 74.7281 35.502 76.0663 36.9101C77.4949 38.4077 77.8071 40.5605 77.0336 42.3414L83.3186 48.9348Z" fill="#B6B6B7"/>
<path d="M65.3701 77.5654V73.7137C65.3701 71.5461 66.7988 69.6384 68.8658 69.0131L73.4332 67.6497L75.6046 67.001C75.7462 66.9563 75.8953 66.9414 76.036 66.9414C76.6986 66.9414 77.3081 67.3664 77.502 68.0364L80.1868 67.2247C80.3723 67.1651 80.5661 67.1427 80.7516 67.1427C81.5549 67.1427 82.307 67.6497 82.5819 68.4465C82.9016 69.3849 82.4701 70.4128 81.5773 70.8303L76.3343 73.326C74.8683 74.0194 73.9317 75.5012 73.9317 77.1255V93.657H65.3701V77.5654Z" fill="#FFD7D2"/>
<path d="M73.7065 3.43038C74.5024 4.29428 74.8966 5.44894 74.7559 6.61105C74.5621 8.28759 73.6991 10.8206 70.8875 13.9118C70.4112 14.4411 69.8763 14.977 69.2734 15.5361C65.1608 19.358 61.9475 20.2591 59.9839 20.3561C58.8162 20.4083 57.6923 19.932 56.8964 19.0747L55.506 17.5696C54.7325 16.743 54.7847 15.4467 55.6104 14.6797L57.0828 13.3088C57.9085 12.5409 59.2029 12.5856 59.969 13.4132C60.3856 13.8596 60.9578 14.1056 61.5383 14.1056C61.8058 14.1056 62.0733 14.0534 62.3342 13.9491C63.3155 13.5549 64.6398 12.8839 65.8075 11.7963C66.1272 11.4981 66.4179 11.185 66.6779 10.8728C67.3769 10.0378 67.8755 9.17386 68.2026 8.48889C68.5968 7.69116 68.4551 6.73779 67.8531 6.08265C67.4887 5.68751 67.3023 5.188 67.3023 4.69687C67.3023 4.14517 67.526 3.60092 67.9575 3.19181L69.4299 1.82094C70.2556 1.05396 71.5501 1.10522 72.3161 1.93277L73.7065 3.43038Z" fill="#52A7D7"/>
<path d="M62.3197 43.7419C64.082 44.4418 64.8704 46.7436 64.0894 48.8899C63.4054 50.7444 61.7764 51.8618 60.207 51.6754C60.9433 49.5301 61.5015 46.684 61.8062 43.5928C61.9852 43.6301 62.1482 43.6748 62.3197 43.7419Z" fill="#FEC4B9"/>
<path d="M47.5184 21.3906C61.5989 21.3906 65.3695 37.088 61.8067 43.592C61.8067 43.592 61.8067 43.592 61.7993 43.592C61.6725 43.4056 59.5384 40.5669 56.7715 39.457C53.9226 38.3098 50.7242 39.375 46.1056 36.3872C41.486 33.3929 41.2558 28.1182 41.2558 28.1182C39.9316 33.7955 37.2616 38.9575 33.2301 43.592C29.6673 37.088 33.4379 21.3906 47.5184 21.3906Z" fill="#604533"/>
<path d="M33.2314 43.5929C37.263 38.9584 39.9329 33.7964 41.2572 28.1191C41.2572 28.1191 41.4874 33.3939 46.107 36.3881C50.7256 39.3759 53.924 38.3107 56.7729 39.4579C59.5398 40.5678 61.6739 43.4065 61.8006 43.5929C61.8081 43.5929 61.8081 43.5929 61.8081 43.5929C61.5034 46.6841 60.9451 49.5302 60.2089 51.6755C59.9713 52.3689 59.7178 52.9867 59.4354 53.5235C59.3459 53.7024 59.2574 53.8739 59.1605 54.0295C57.8139 56.2727 54.7422 59.2073 51.008 60.4366C49.8999 60.8019 48.7248 61.0181 47.5198 61.0181C46.3148 61.0181 45.1396 60.8019 44.0316 60.4366C40.2973 59.2073 37.2257 56.2727 35.8791 54.0295C35.4998 53.3968 35.1503 52.6 34.8306 51.6755C34.0944 49.5302 33.5362 46.6841 33.2314 43.5929ZM49.7583 48.9571C50.6809 48.6961 51.2242 47.7269 50.9633 46.8034C50.748 46.0513 50.0639 45.5294 49.283 45.5294C49.119 45.5294 48.9624 45.5518 48.8068 45.5965C48.3827 45.7158 47.9587 45.7755 47.5347 45.7755C47.1107 45.7755 46.6866 45.7158 46.2701 45.5965C46.1144 45.5518 45.9504 45.5294 45.7864 45.5294C45.0129 45.5294 44.3214 46.0513 44.1136 46.8034C43.8452 47.7269 44.3885 48.6961 45.3111 48.9571C46.0473 49.1649 46.791 49.2693 47.5347 49.2693C48.2784 49.2693 49.022 49.1649 49.7583 48.9571Z" fill="#FFD7D2"/>
<path d="M59.4343 53.5234C60.5349 54.6781 61.2124 56.2428 61.2124 57.9706C61.2124 61.525 58.3411 64.4074 54.7858 64.4074C54.2574 64.4074 53.7365 64.3403 53.2463 64.221C52.7179 63.5361 51.9593 63.0589 51.0068 62.7616V60.4365C54.7411 59.2073 57.8127 56.2726 59.1593 54.0295C59.2563 53.8738 59.3448 53.7024 59.4343 53.5234Z" fill="#604533"/>
<path d="M54.0717 66.3375L51.2302 69.5555L49.8016 67.03V67.0225L48.8799 65.3981L51.0065 62.7617C51.959 63.059 52.7176 63.5362 53.246 64.2211C53.6849 64.7803 53.9598 65.4802 54.0717 66.3375Z" fill="#F28379"/>
<path d="M50.9613 46.8032C51.2222 47.7268 50.6789 48.696 49.7563 48.9569C49.0201 49.1648 48.2764 49.2691 47.5327 49.2691C46.7891 49.2691 46.0454 49.1648 45.3092 48.9569C44.3865 48.696 43.8432 47.7268 44.1116 46.8032C44.3194 46.0512 45.0109 45.5293 45.7844 45.5293C45.9485 45.5293 46.1125 45.5517 46.2681 45.5964C46.6847 45.7157 47.1087 45.7753 47.5327 45.7753C47.9568 45.7753 48.3808 45.7157 48.8048 45.5964C48.9604 45.5517 49.117 45.5293 49.281 45.5293C50.062 45.5293 50.746 46.0512 50.9613 46.8032Z" fill="#FEC4B9"/>
<path d="M51.0063 60.4365V62.7617L48.8797 65.3981H46.1566L44.0299 62.7617H44.0225L44.0299 60.4365C45.138 60.8018 46.3131 61.018 47.5181 61.018C48.7231 61.018 49.8983 60.8018 51.0063 60.4365Z" fill="#FEC4B9"/>
<path d="M49.8028 67.0293V81.6093H45.2363V67.0218L46.158 65.3975H48.8811L49.8028 67.0218V67.0293ZM48.2632 69.7859C48.2632 69.3759 47.9287 69.0413 47.5196 69.0413C47.1104 69.0413 46.7759 69.3759 46.7759 69.7859C46.7759 70.196 47.1104 70.5305 47.5196 70.5305C47.9287 70.5305 48.2632 70.196 48.2632 69.7859ZM48.2632 76.7437C48.2632 76.3346 47.9287 75.9991 47.5196 75.9991C47.1104 75.9991 46.7759 76.3346 46.7759 76.7437C46.7759 77.1537 47.1104 77.4892 47.5196 77.4892C47.9287 77.4892 48.2632 77.1537 48.2632 76.7437Z" fill="#FFC05A"/>
<path d="M48.2627 69.7866C48.2627 69.8854 48.2441 69.9804 48.2059 70.0718C48.1686 70.1631 48.1146 70.2432 48.0447 70.3131C47.9757 70.383 47.8946 70.4371 47.8033 70.4753C47.7129 70.5126 47.6179 70.5312 47.5191 70.5312C47.4203 70.5312 47.3252 70.5126 47.2348 70.4753C47.1435 70.4371 47.0634 70.383 46.9935 70.3131C46.9236 70.2432 46.8695 70.1631 46.8322 70.0718C46.794 69.9804 46.7754 69.8854 46.7754 69.7866C46.7754 69.6878 46.794 69.5928 46.8322 69.5014C46.8695 69.4101 46.9236 69.33 46.9935 69.2601C47.0634 69.1902 47.1435 69.1361 47.2348 69.0979C47.3252 69.0606 47.4203 69.042 47.5191 69.042C47.6179 69.042 47.7129 69.0606 47.8033 69.0979C47.8946 69.1361 47.9757 69.1902 48.0447 69.2601C48.1146 69.33 48.1686 69.4101 48.2059 69.5014C48.2441 69.5928 48.2627 69.6878 48.2627 69.7866Z" fill="#EF9D26"/>
<path d="M48.2627 76.7446C48.2627 76.8434 48.2441 76.9385 48.2059 77.0298C48.1686 77.1211 48.1146 77.2022 48.0447 77.2721C47.9757 77.342 47.8946 77.3951 47.8033 77.4333C47.7129 77.4715 47.6179 77.4902 47.5191 77.4902C47.4203 77.4902 47.3252 77.4715 47.2348 77.4333C47.1435 77.3951 47.0634 77.342 46.9935 77.2721C46.9236 77.2022 46.8695 77.1211 46.8322 77.0298C46.794 76.9385 46.7754 76.8434 46.7754 76.7446C46.7754 76.6458 46.794 76.5508 46.8322 76.4604C46.8695 76.369 46.9236 76.288 46.9935 76.2181C47.0634 76.1482 47.1435 76.0941 47.2348 76.0568C47.3252 76.0186 47.4203 76 47.5191 76C47.6179 76 47.7129 76.0186 47.8033 76.0568C47.8946 76.0941 47.9757 76.1482 48.0447 76.2181C48.1146 76.288 48.1686 76.369 48.2059 76.4604C48.2441 76.5508 48.2627 76.6458 48.2627 76.7446Z" fill="#EF9D26"/>
<path d="M44.03 62.7617L46.1567 65.3981L45.235 67.0225V67.03L43.8063 69.5555L40.9658 66.3375C41.2035 64.4522 42.2817 63.3125 44.0225 62.7617H44.03Z" fill="#F28379"/>
<path d="M37.2021 6.91688C38.7864 8.33248 39.7901 10.3958 39.7901 12.6976C39.7901 16.9742 36.3317 20.4457 32.0626 20.4457C29.2062 20.4457 26.7142 18.8959 25.376 16.594C26.0451 15.4543 26.4244 14.1207 26.4244 12.6976C26.4244 11.282 26.0451 9.94844 25.376 8.80869V8.80124C26.7217 6.50683 29.2062 4.95703 32.0626 4.95703C34.0336 4.95703 35.8331 5.69512 37.1947 6.91688H37.2021Z" fill="#AE2C36"/>
<path d="M34.8283 51.6754C33.2589 51.8618 31.6299 50.7444 30.9459 48.8899C30.1649 46.7436 30.9533 44.4418 32.7156 43.7419C32.8871 43.6748 33.0502 43.6301 33.2291 43.5928C33.5339 46.684 34.0921 49.5301 34.8283 51.6754Z" fill="#FEC4B9"/>
<path d="M29.6687 89.0301V93.6562H21.1071V77.1247C21.1071 75.5004 20.1705 74.0186 18.7046 73.3253L13.4615 70.8296C12.7691 70.5015 12.3525 69.8091 12.3525 69.0794C12.3525 68.8706 12.3824 68.6544 12.4569 68.4457C12.7989 67.4625 13.8557 66.9183 14.852 67.2239L17.5369 68.0356C17.7754 67.2239 18.6235 66.7617 19.4343 67.0003L21.6057 67.6489L26.173 69.0123C28.241 69.6376 29.6687 71.5453 29.6687 73.7129V89.0301Z" fill="#FFD7D2"/>
<path d="M25.9793 49.2699H4.98943C3.01094 49.2699 1.4043 47.6688 1.4043 45.6866V36.7392C1.4043 34.7579 3.01094 33.1484 4.98943 33.1484H17.9022C19.8807 33.1484 21.4874 34.7579 21.4874 36.7392V45.8879C23.3913 47.3184 25.9793 49.2699 25.9793 49.2699Z" fill="#8BCB8F"/>
<path d="M18.0641 20.4233C14.0848 20.0953 10.9609 16.758 10.9609 12.6976C10.9609 8.42194 14.4268 4.95703 18.6969 4.95703C21.5449 4.95703 24.0368 6.49937 25.376 8.80124V8.80869C26.0451 9.94844 26.4244 11.282 26.4244 12.6976C26.4244 14.1207 26.0451 15.4543 25.376 16.594C24.0368 18.8959 21.5449 20.4457 18.6969 20.4457C18.4807 20.4457 18.2728 20.4382 18.0641 20.4233Z" fill="#FFC05A"/>
<path d="M63.6719 90.3974C63.9077 91.6872 64.1807 92.8008 64.5069 93.6554H65.3698V89.0293C64.8806 89.6043 64.3186 90.0526 63.6719 90.3974Z" fill="#FEC4B9"/>
<path d="M63.1963 87.215C63.337 88.3613 63.4936 89.4283 63.6716 90.3975C64.3183 90.0527 64.8803 89.6045 65.3695 89.0295V85.4238C64.7712 86.1312 64.0378 86.7192 63.1963 87.215Z" fill="#F28379"/>
<path d="M54.0714 66.3379L51.23 69.5558L49.8013 67.0303V81.6103H45.2349V67.0303L43.8062 69.5558L40.9657 66.3379C37.3945 68.103 33.0359 71.4262 29.667 77.5723V85.4247C30.2355 86.0966 30.9251 86.6633 31.7135 87.1441C32.0378 84.5208 32.3276 81.4911 32.6417 78.4623C32.6734 78.1603 32.9287 77.9302 33.2316 77.9302C33.5597 77.9302 33.8243 78.1958 33.8243 78.5238V93.6564H61.2118V78.5201C61.2118 78.1939 61.4756 77.9302 61.8018 77.9302C62.1093 77.9302 62.3646 78.1678 62.3889 78.4753C62.6274 81.5339 62.8707 84.5692 63.1959 87.215C64.0374 86.721 64.7709 86.1321 65.3692 85.4247V77.5658C62.0003 71.4262 57.6416 68.103 54.0714 66.3379Z" fill="#FBE2AE"/>
<path d="M29.667 89.0303V93.6564H30.474C30.7704 92.8596 31.0267 91.7161 31.2578 90.3378C30.6576 90.0004 30.1292 89.5727 29.667 89.0303Z" fill="#FEC4B9"/>
<path d="M31.2587 90.337C31.4199 89.3761 31.57 88.2988 31.7135 87.1432C30.9251 86.6624 30.2355 86.0967 29.667 85.4238V89.0295C30.1292 89.5728 30.6576 90.0005 31.2587 90.337Z" fill="#F28379"/>
<path d="M61.2129 91.1747V93.6555H64.5073C64.1811 92.8 63.908 91.6873 63.6723 90.3975C62.9631 90.7758 62.1513 91.0302 61.2129 91.1747Z" fill="#F7B6AD"/>
<path d="M63.197 87.2148C62.594 87.569 61.9426 87.883 61.2129 88.1281V91.1755C62.1513 91.0311 62.9631 90.7776 63.6723 90.3983C63.4943 89.4282 63.3377 88.3611 63.197 87.2148Z" fill="#E27B76"/>
<path d="M62.3899 78.4739C62.3657 78.1664 62.1103 77.9287 61.8028 77.9287C61.4766 77.9287 61.2129 78.1934 61.2129 78.5196V88.1277C61.9426 87.8817 62.594 87.5686 63.197 87.2135C62.8717 84.5678 62.6285 81.5325 62.3899 78.4739Z" fill="#F7D79F"/>
<path d="M33.8247 78.5233C33.8247 78.1953 33.56 77.9297 33.232 77.9297C32.9291 77.9297 32.6738 78.1599 32.6421 78.4618C32.328 81.4906 32.0382 84.5203 31.7139 87.1437C32.3494 87.5304 33.0456 87.8659 33.8247 88.1278V78.5233Z" fill="#F7D79F"/>
<path d="M31.2584 90.3369C31.0263 91.7152 30.77 92.8587 30.4746 93.6555H33.8249V91.1747C32.838 91.0237 31.9927 90.7498 31.2584 90.3369Z" fill="#F7B6AD"/>
<path d="M33.8244 91.1761V88.1286C33.0444 87.8658 32.3482 87.5313 31.7136 87.1445C31.5701 88.3001 31.42 89.3765 31.2588 90.3383C31.9931 90.7502 32.8384 91.0241 33.8244 91.1761Z" fill="#E27B76"/>
<path d="M39.7934 39.0272C39.9416 39.0272 40.0916 38.9834 40.2211 38.8912C41.2164 38.1885 42.7215 38.4308 42.7374 38.4336C43.1455 38.5026 43.5248 38.2314 43.5957 37.8269C43.6665 37.4215 43.3944 37.0357 42.9908 36.9649C42.9042 36.949 40.8716 36.6107 39.3656 37.6731C39.0292 37.9099 38.9491 38.3749 39.1858 38.7104C39.3302 38.9173 39.5604 39.0272 39.7934 39.0272Z" fill="#3A322B"/>
<path d="M52.7441 44.4086C53.1112 44.4086 53.4411 44.2557 53.6788 44.0125C53.7347 44.0144 53.7888 44.0218 53.8465 44.0218C54.2948 44.0218 54.7691 43.9501 55.1913 43.7693C55.5697 43.6062 55.7439 43.1682 55.5827 42.7907C55.4215 42.4133 54.9844 42.2381 54.6061 42.3993C54.5567 42.4208 54.5017 42.4357 54.4486 42.4506C54.4607 42.4357 54.4775 42.4245 54.4886 42.4105C54.7384 42.0834 54.6778 41.6156 54.3516 41.3658C54.0255 41.1142 53.5586 41.1757 53.3088 41.5028C53.1206 41.7479 52.813 41.7843 52.6453 41.7843C52.5884 41.7843 52.5381 41.8048 52.4859 41.8169C52.4822 41.8178 52.4794 41.8187 52.4766 41.8187C52.4225 41.8318 52.3694 41.843 52.32 41.8672C51.8075 42.0443 51.4375 42.5261 51.4375 43.0992C51.4375 43.8214 52.0218 44.4086 52.7441 44.4086Z" fill="#3A322B"/>
<path d="M42.7196 41.8655C42.6702 41.8413 42.6171 41.8301 42.563 41.8171C42.5602 41.8161 42.5575 41.8152 42.5547 41.8152C42.5006 41.804 42.4512 41.7826 42.3944 41.7826C42.2266 41.7826 41.9191 41.7463 41.7308 41.5012C41.4811 41.175 41.0132 41.1135 40.688 41.3642C40.3618 41.6149 40.3013 42.0827 40.551 42.4089C40.5641 42.4247 40.5818 42.4368 40.5939 42.4527C40.5426 42.4377 40.4904 42.4228 40.4448 42.4023C40.0683 42.2346 39.6284 42.4023 39.4625 42.7788C39.2948 43.1544 39.4625 43.5952 39.8381 43.7629C40.2407 43.9428 40.7188 44.0155 41.1782 44.0155C41.2388 44.0155 41.2975 44.008 41.3571 44.0062C41.5938 44.2522 41.9265 44.4069 42.2956 44.4069C43.0169 44.4069 43.6021 43.8207 43.6021 43.0975C43.6021 42.5244 43.2322 42.0426 42.7196 41.8655Z" fill="#3A322B"/>
<path d="M45.1104 49.6758C45.91 49.9032 46.7254 50.0178 47.5353 50.0178C48.3432 50.0178 49.1596 49.9032 49.9592 49.6758C51.2798 49.3012 52.0495 47.921 51.6777 46.6023C51.3776 45.5315 50.3916 44.7841 49.2798 44.7841C49.0506 44.7841 48.8223 44.8158 48.6033 44.8783C47.8922 45.0796 47.1765 45.0786 46.4719 44.8792C46.2501 44.8158 46.0199 44.7832 45.7888 44.7832C44.6808 44.7832 43.6957 45.5297 43.3938 46.5986C43.021 47.921 43.7908 49.3012 45.1104 49.6758ZM44.8252 47.0031C44.9464 46.5734 45.3424 46.2734 45.7888 46.2734C45.882 46.2734 45.9734 46.2864 46.0647 46.3125C47.0395 46.5883 48.0338 46.5874 49.0086 46.3125C49.5203 46.1662 50.099 46.4858 50.2444 47.0068C50.3954 47.538 50.085 48.0925 49.5529 48.2435C48.2174 48.6227 46.8503 48.6218 45.5158 48.2435C44.9855 48.0915 44.6752 47.5361 44.8252 47.0031Z" fill="#3A322B"/>
<path d="M48.2627 69.7866C48.2627 69.8854 48.2441 69.9804 48.2059 70.0718C48.1686 70.1631 48.1146 70.2432 48.0447 70.3131C47.9757 70.383 47.8946 70.4371 47.8033 70.4753C47.7129 70.5126 47.6179 70.5312 47.5191 70.5312C47.4203 70.5312 47.3252 70.5126 47.2348 70.4753C47.1435 70.4371 47.0634 70.383 46.9935 70.3131C46.9236 70.2432 46.8695 70.1631 46.8322 70.0718C46.794 69.9804 46.7754 69.8854 46.7754 69.7866C46.7754 69.6878 46.794 69.5928 46.8322 69.5014C46.8695 69.4101 46.9236 69.33 46.9935 69.2601C47.0634 69.1902 47.1435 69.1361 47.2348 69.0979C47.3252 69.0606 47.4203 69.042 47.5191 69.042C47.6179 69.042 47.7129 69.0606 47.8033 69.0979C47.8946 69.1361 47.9757 69.1902 48.0447 69.2601C48.1146 69.33 48.1686 69.4101 48.2059 69.5014C48.2441 69.5928 48.2627 69.6878 48.2627 69.7866Z" fill="#3A322B"/>
<path d="M48.2627 76.7426C48.2627 76.8414 48.2441 76.9365 48.2059 77.0278C48.1686 77.1191 48.1146 77.1993 48.0447 77.2692C47.9757 77.339 47.8946 77.3931 47.8033 77.4304C47.7129 77.4686 47.6179 77.4872 47.5191 77.4872C47.4203 77.4872 47.3252 77.4686 47.2348 77.4304C47.1435 77.3931 47.0634 77.339 46.9935 77.2692C46.9236 77.1993 46.8695 77.1191 46.8322 77.0278C46.794 76.9365 46.7754 76.8414 46.7754 76.7426C46.7754 76.6438 46.794 76.5488 46.8322 76.4574C46.8695 76.3661 46.9236 76.286 46.9935 76.2161C47.0634 76.1462 47.1435 76.0921 47.2348 76.0539C47.3252 76.0166 47.4203 75.9971 47.5191 75.9971C47.6179 75.9971 47.7129 76.0166 47.8033 76.0539C47.8946 76.0921 47.9757 76.1462 48.0447 76.2161C48.1146 76.286 48.1686 76.3661 48.2059 76.4574C48.2441 76.5488 48.2627 76.6438 48.2627 76.7426Z" fill="#3A322B"/>
<path d="M4.01223 38.7089H10.9626C11.3735 38.7089 11.7062 38.3753 11.7062 37.9643C11.7062 37.5534 11.3735 37.2197 10.9626 37.2197H4.01223C3.60125 37.2197 3.26855 37.5534 3.26855 37.9643C3.26855 38.3753 3.60125 38.7089 4.01223 38.7089Z" fill="#3A322B"/>
<path d="M18.5121 41.209H4.01223C3.60125 41.209 3.26855 41.5435 3.26855 41.9545C3.26855 42.3655 3.60125 42.6991 4.01223 42.6991H18.5121C18.9231 42.6991 19.2567 42.3655 19.2567 41.9545C19.2567 41.5435 18.9231 41.209 18.5121 41.209Z" fill="#3A322B"/>
<path d="M16.8687 12.2739C17.2787 12.2739 17.6124 11.9403 17.6124 11.5293V9.64398C17.6124 9.23207 17.2787 8.89844 16.8687 8.89844C16.4577 8.89844 16.125 9.23207 16.125 9.64398V11.5293C16.125 11.9403 16.4568 12.2739 16.8687 12.2739Z" fill="#3A322B"/>
<path d="M20.5181 12.2739C20.9291 12.2739 21.2618 11.9403 21.2618 11.5293V9.64398C21.2618 9.23207 20.9291 8.89844 20.5181 8.89844C20.1071 8.89844 19.7744 9.23207 19.7744 9.64398V11.5293C19.7744 11.9403 20.1071 12.2739 20.5181 12.2739Z" fill="#3A322B"/>
<path d="M23.1026 14.1323C23.3057 13.7781 23.1864 13.3308 22.836 13.123C22.4856 12.9142 22.0309 13.0307 21.8184 13.3802C21.7839 13.4371 20.9386 14.7856 18.6927 14.7856C16.4477 14.7856 15.6024 13.4371 15.5717 13.3867C15.3648 13.0307 14.9109 12.9068 14.5549 13.1146C14.1999 13.3206 14.0778 13.7763 14.2837 14.1323C14.3341 14.2189 15.5568 16.2757 18.6927 16.2757C21.8296 16.2757 23.0513 14.2199 23.1026 14.1323Z" fill="#3A322B"/>
<path d="M30.2349 12.2739C30.6459 12.2739 30.9786 11.9403 30.9786 11.5293V9.64398C30.9786 9.23207 30.6459 8.89844 30.2349 8.89844C29.8248 8.89844 29.4912 9.23207 29.4912 9.64398V11.5293C29.4912 11.9403 29.8239 12.2739 30.2349 12.2739Z" fill="#3A322B"/>
<path d="M33.8843 12.2739C34.2953 12.2739 34.628 11.9403 34.628 11.5293V9.64398C34.628 9.23207 34.2953 8.89844 33.8843 8.89844C33.4743 8.89844 33.1406 9.23207 33.1406 9.64398V11.5293C33.1406 11.9403 33.4743 12.2739 33.8843 12.2739Z" fill="#3A322B"/>
<path d="M27.9174 15.9847C28.2687 16.1926 28.7235 16.0761 28.935 15.7275C28.9695 15.6707 29.8157 14.3213 32.0607 14.3213C34.3048 14.3213 35.151 15.6707 35.1817 15.7201C35.3187 15.9587 35.5685 16.0928 35.8266 16.0928C35.9524 16.0928 36.0811 16.0612 36.1985 15.9931C36.5535 15.7872 36.6756 15.3315 36.4697 14.9755C36.4193 14.8888 35.1967 12.832 32.0607 12.832C28.9238 12.832 27.7021 14.8888 27.6508 14.9755C27.4477 15.3287 27.567 15.776 27.9174 15.9847Z" fill="#3A322B"/>
<mask id="mask0_746_1352" style="mask-type:luminance" maskUnits="userSpaceOnUse" x="0" y="0" width="95" height="95">
<path d="M0.501953 0.532227H94.5V94.4017H0.501953V0.532227Z" fill="white"/>
</mask>
<g mask="url(#mask0_746_1352)">
<path d="M92.8027 53.3823C91.3256 51.8334 89.1365 51.2482 87.1049 51.8297L84.1143 48.6938C84.5169 46.4832 84.7284 44.2196 84.7284 41.955C84.7284 31.1334 80.0688 20.9391 71.934 13.8462C74.4763 10.8677 75.2945 8.38319 75.4968 6.70106C75.6608 5.33019 75.2088 3.95373 74.2564 2.92674L72.8631 1.42448C72.3571 0.878366 71.6684 0.562442 70.9247 0.534484C70.1699 0.504663 69.4709 0.771194 68.9267 1.27909L67.4514 2.64996C66.3266 3.69745 66.2604 5.46532 67.306 6.59388C67.703 7.02164 67.7934 7.63764 67.5381 8.16512C67.3023 8.64972 66.9482 9.26293 66.4887 9.89198C60.762 6.48578 54.2199 4.68436 47.5184 4.68436C44.0684 4.68436 40.6557 5.16058 37.3669 6.09344C35.9131 4.91921 34.0679 4.21187 32.0596 4.21187C29.4353 4.21187 26.9629 5.44575 25.3693 7.49133C23.8176 5.4998 21.4048 4.21187 18.6929 4.21187C14.0202 4.21187 10.218 8.01973 10.218 12.6999C10.218 16.7193 13.0259 20.0882 16.7787 20.9605C14.3856 24.4655 12.6298 28.306 11.5488 32.4055H4.98519C2.59945 32.4055 0.65918 34.3486 0.65918 36.738V45.6846C0.65918 48.0731 2.59945 50.0171 4.98519 50.0171H11.1872C12.5077 56.0131 15.2746 61.5553 19.2698 66.2131C18.8048 66.1553 18.3351 66.2382 17.9148 66.4675C17.6091 66.6334 17.3593 66.8673 17.1636 67.1413L15.0687 66.5066C13.6829 66.0854 12.23 66.8319 11.7575 68.2018C11.3111 69.4963 11.9066 70.9165 13.1433 71.5036L18.3891 73.9975C19.5866 74.5669 20.3611 75.7924 20.3611 77.1194V93.6537C20.3611 94.0656 20.6938 94.3993 21.1048 94.3993C21.5148 94.3993 21.8484 94.0656 21.8484 93.6537V77.1194C21.8484 75.2202 20.7413 73.4653 19.0275 72.6518L13.7807 70.1579C13.2309 69.8961 12.9653 69.2642 13.1638 68.6874C13.3744 68.076 14.0221 67.748 14.6381 67.9316L16.7443 68.5699C16.7918 69.4431 17.337 70.2521 18.1915 70.5773L22.4225 72.1914C22.8065 72.3359 23.2361 72.1448 23.3833 71.7599C23.5287 71.376 23.3358 70.9454 22.9518 70.7982L18.72 69.1841C18.3453 69.0415 18.1394 68.6258 18.2512 68.2391C18.3099 68.0387 18.4422 67.8747 18.6258 67.7741C18.8085 67.6743 19.0182 67.651 19.2195 67.7116L25.9564 69.7246C27.7019 70.2474 28.9208 71.8848 28.9208 73.7095V93.6537C28.9208 94.0647 29.2535 94.3983 29.6645 94.3983C30.0746 94.3983 30.4082 94.0647 30.4082 93.6537V90.6883C31.1631 91.2037 32.0419 91.5662 33.0782 91.7889V93.6537C33.0782 94.0647 33.4118 94.3983 33.8219 94.3983C34.2328 94.3983 34.5655 94.0647 34.5655 93.6537V77.9284C34.5655 77.5164 34.2328 77.1828 33.8219 77.1828C33.4118 77.1828 33.0782 77.5164 33.0782 77.9284V87.0249C32.0083 86.5375 31.1165 85.8963 30.4082 85.1154V77.7755C33.6299 71.978 37.735 68.8775 40.7927 67.2587L43.252 70.0433C43.3937 70.2036 43.5969 70.294 43.8093 70.294C43.8354 70.294 43.8615 70.2931 43.8867 70.2903C44.1262 70.2651 44.3377 70.1263 44.4561 69.9166L44.4915 69.8532V81.6085C44.4915 82.0195 44.8251 82.3531 45.2361 82.3531H49.8007C50.2117 82.3531 50.5453 82.0195 50.5453 81.6085V69.8551L50.5807 69.9184C50.6991 70.1281 50.9106 70.267 51.1501 70.2931C51.1762 70.2949 51.2023 70.2968 51.2275 70.2968C51.44 70.2968 51.6431 70.2055 51.7848 70.0452L54.2441 67.2624C57.3018 68.8793 61.4069 71.9817 64.6286 77.7783V85.1163C63.9203 85.8982 63.0285 86.5394 61.9586 87.0258V77.9293C61.9586 77.5183 61.625 77.1847 61.215 77.1847C60.804 77.1847 60.4713 77.5183 60.4713 77.9293V93.6546C60.4713 94.0666 60.804 94.4002 61.215 94.4002C61.625 94.4002 61.9586 94.0666 61.9586 93.6546V91.7899C62.9959 91.5671 63.8747 91.2055 64.6286 90.6902V93.6546C64.6286 94.0666 64.9622 94.4002 65.3723 94.4002C65.7833 94.4002 66.116 94.0666 66.116 93.6546V73.7114C66.116 71.8876 67.3359 70.2493 69.0804 69.7283L75.8183 67.7144C76.0168 67.6548 76.2283 67.6771 76.411 67.7759C76.5946 67.8756 76.7269 68.0415 76.7856 68.2419C76.8975 68.6286 76.6924 69.0434 76.3169 69.1859L72.085 70.801C71.702 70.9473 71.509 71.3778 71.6544 71.7627C71.8007 72.1476 72.2322 72.3386 72.6152 72.1942L76.8462 70.5792C77.7008 70.2539 78.2469 69.4459 78.2935 68.5718L80.3996 67.9344C81.0138 67.7498 81.6633 68.0779 81.8739 68.6892C82.0724 69.2661 81.8068 69.8979 81.2561 70.1598L76.0103 72.6536C74.2964 73.4681 73.1893 75.222 73.1893 77.1222V93.6565C73.1893 94.0675 73.522 94.4011 73.933 94.4011C74.344 94.4011 74.6767 94.0675 74.6767 93.6565V77.1222C74.6767 75.7942 75.4511 74.5688 76.6486 73.9993L81.8945 71.5064C83.1311 70.9184 83.7257 69.4991 83.2802 68.2037C82.8087 66.8347 81.3558 66.0873 79.97 66.5085L77.8732 67.1432C77.6775 66.8692 77.4277 66.6352 77.123 66.4694C76.6971 66.2373 76.2199 66.1562 75.7484 66.2187C78.6588 62.8199 80.9485 58.9002 82.475 54.7131L83.2458 55.522C82.5748 57.5256 83.0566 59.7436 84.5337 61.2934C85.6315 62.4434 87.117 63.0632 88.6509 63.0632C89.212 63.0632 89.7804 62.9802 90.3387 62.8097C90.6741 62.7072 90.8922 62.3829 90.8615 62.0334C90.8316 61.682 90.5605 61.4015 90.2119 61.3577C89.8587 61.3139 89.348 61.1686 88.9231 60.7222C88.5261 60.3065 88.3154 59.7604 88.3285 59.1863C88.3415 58.6123 88.5773 58.0773 88.993 57.6803C89.8494 56.8602 91.2119 56.8929 92.0292 57.7493C92.4551 58.1966 92.5771 58.7129 92.6042 59.0689C92.6321 59.4193 92.8996 59.7036 93.2481 59.7492C93.5957 59.7949 93.9294 59.5927 94.0468 59.2609C94.7784 57.206 94.3003 54.9545 92.8027 53.3823ZM68.8754 8.8156C69.4019 7.73084 69.2137 6.46062 68.3955 5.57808C67.9081 5.05247 67.9388 4.22772 68.4635 3.74032L69.9378 2.36852C70.1913 2.13274 70.5268 2.00973 70.8697 2.02277C71.2155 2.03582 71.5361 2.18213 71.7728 2.43748L73.166 3.93975C73.8202 4.64615 74.1315 5.58833 74.0197 6.52306C73.7988 8.36362 72.7075 11.3262 68.7692 14.9896C64.8299 18.654 61.7983 19.5235 59.9503 19.6083C59.0054 19.6465 58.0958 19.27 57.4425 18.5645L56.0493 17.0622C55.8135 16.8078 55.6896 16.4761 55.7026 16.1294C55.7156 15.7827 55.862 15.4612 56.1164 15.2254L57.5907 13.8536C57.8404 13.6216 58.1573 13.506 58.4742 13.506C58.8227 13.506 59.1712 13.6458 59.4257 13.9216C60.2439 14.8032 61.4945 15.0856 62.6129 14.6392C63.596 14.2487 65.0359 13.5321 66.3154 12.343C67.594 11.1519 68.4132 9.7671 68.8754 8.8156ZM32.0596 5.70203C35.9112 5.70203 39.0462 8.8417 39.0462 12.6999C39.0462 16.5581 35.9112 19.6977 32.0596 19.6977C29.7139 19.6977 27.5257 18.4927 26.2388 16.5441C26.8277 15.3885 27.167 14.0838 27.167 12.6999C27.167 11.315 26.8277 10.0113 26.2388 8.85474C27.5257 6.90608 29.7139 5.70203 32.0596 5.70203ZM11.7063 12.6999C11.7063 8.8417 14.8413 5.70203 18.6939 5.70203C22.5465 5.70203 25.6805 8.8417 25.6805 12.6999C25.6805 16.5581 22.5465 19.6977 18.6939 19.6977C14.8403 19.6977 11.7063 16.5581 11.7063 12.6999ZM2.14654 45.6846V36.738C2.14654 35.1705 3.42048 33.8957 4.98519 33.8957H17.9036C19.4683 33.8957 20.7413 35.1705 20.7413 36.738V45.8877C20.7413 46.1216 20.8513 46.3425 21.0395 46.4832C21.9053 47.1346 22.9127 47.8942 23.7524 48.5279H4.98519C3.42048 48.5269 2.14654 47.2511 2.14654 45.6846ZM33.0772 88.6297V90.2596C31.9543 89.9717 31.1025 89.4824 30.4073 88.7331V87.1321C31.1798 87.7378 32.0708 88.2383 33.0772 88.6297ZM43.6751 68.2764L41.7563 66.104C41.9874 64.9177 42.6407 64.1237 43.7832 63.6447L45.2594 65.4703L43.6751 68.2764ZM53.6496 63.5394C53.1631 62.9923 52.5275 62.5646 51.7522 62.2496L51.7531 60.9598C55.3037 59.6262 58.1405 56.8994 59.5244 54.8277C60.1376 55.7531 60.4713 56.8379 60.4713 57.9702C60.4713 61.1089 57.9215 63.6633 54.7865 63.6633C54.4026 63.6624 54.0223 63.6149 53.6496 63.5394ZM62.4321 44.6445C63.5355 45.3677 63.9716 47.0433 63.3901 48.6295C62.9828 49.7375 62.1525 50.5567 61.2373 50.8391C61.7499 49.0786 62.1581 46.9725 62.4321 44.6445ZM61.6166 42.2001C60.6949 41.1684 59.0436 39.5711 57.0511 38.7687C55.9123 38.3102 54.7558 38.1788 53.5303 38.0399C51.5434 37.8144 49.29 37.5591 46.511 35.7595C42.2856 33.0234 42.0023 28.1317 42.0005 28.0842C41.9837 27.7123 41.6957 27.4094 41.3257 27.375C40.9623 27.3442 40.6165 27.5856 40.5327 27.9481C39.3296 33.1147 36.928 37.8964 33.4183 42.1926C32.0493 38.5646 32.7007 33.1716 35.1172 29.0795C36.9885 25.9118 40.6594 22.1357 47.5175 22.1357C54.3793 22.1357 58.0511 25.9146 59.9224 29.0841C62.3398 33.1781 62.9884 38.573 61.6166 42.2001ZM33.7995 50.8391C32.8843 50.5557 32.0531 49.7366 31.6467 48.6295C31.0643 47.0433 31.5004 45.3677 32.6048 44.6445C32.8787 46.9725 33.2869 49.0786 33.7995 50.8391ZM34.0054 43.8272C37.2886 39.984 39.6949 35.7483 41.1738 31.1912C41.8281 33.0346 43.1272 35.3429 45.703 37.0111C48.7756 39.0008 51.3188 39.2887 53.3635 39.5208C54.534 39.6531 55.5451 39.7677 56.4957 40.1508C58.6848 41.0324 60.4899 43.1348 61.0314 43.8142C60.585 48.0889 59.6502 51.7505 58.5161 53.6432C56.9803 56.207 52.6366 60.2748 47.5165 60.2748C42.3975 60.2748 38.0537 56.207 36.5179 53.6432C35.3866 51.7514 34.4537 48.0955 34.0054 43.8272ZM47.5184 61.765C48.4624 61.765 49.3795 61.6327 50.2657 61.4155L50.2648 62.5012L48.5268 64.6502H46.511L44.7701 62.4975L44.7711 61.4146C45.6564 61.6327 46.5734 61.765 47.5184 61.765ZM49.057 80.8658H45.9798V67.2214L46.5893 66.1404H48.4466L49.057 67.2214V80.8658ZM51.3617 68.2764L49.7774 65.4703L51.2536 63.6447C52.3952 64.1237 53.0494 64.9168 53.2805 66.104L51.3617 68.2764ZM61.9596 90.2596V88.6297C62.9661 88.2392 63.8579 87.7378 64.6295 87.1321V88.7331C63.9343 89.4824 63.0816 89.9707 61.9596 90.2596ZM73.0309 66.9922L68.6555 68.2997C66.2856 69.0079 64.6295 71.2334 64.6295 73.7114V74.9089C61.3967 70.0331 57.6009 67.3193 54.7325 65.8384C54.6859 65.5952 54.6253 65.3613 54.5517 65.1386C54.6309 65.1414 54.7092 65.1525 54.7884 65.1525C58.7426 65.1525 61.9605 61.9309 61.9605 57.9702C61.9605 56.2871 61.3762 54.6861 60.3147 53.4009C60.4545 53.0953 60.5915 52.7719 60.722 52.4243C62.4609 52.3469 64.0778 51.0776 64.787 49.1439C65.6742 46.7293 64.7982 44.1161 62.8402 43.1618C64.569 39.1182 63.9241 32.933 61.2047 28.3265C58.2794 23.3742 53.4194 20.6464 47.5184 20.6464C41.6202 20.6464 36.7612 23.3723 33.8368 28.3218C31.1155 32.9293 30.4697 39.1163 32.1975 43.1628C30.2395 44.1161 29.3644 46.7302 30.2507 49.1448C30.9599 51.0776 32.5768 52.3469 34.3148 52.4252C34.6028 53.1903 34.9141 53.8604 35.244 54.4111C36.5058 56.5182 39.4908 59.5358 43.2828 60.9598V62.2515C41.6323 62.9206 40.6343 64.1246 40.3053 65.8366C37.4368 67.3174 33.6411 70.0312 30.4073 74.907V73.7114C30.4073 71.2334 28.7512 69.0079 26.3804 68.2997L22.0013 66.9912C17.3789 62.2664 14.1815 56.4176 12.7099 50.018H25.975C26.2947 50.018 26.5789 49.813 26.6805 49.5092C26.7811 49.2054 26.6777 48.8708 26.4223 48.6779C26.4223 48.6779 24.0944 46.9184 22.2287 45.5149V36.738C22.2287 34.3486 20.2884 32.4055 17.9027 32.4055H13.0911C14.2029 28.3703 15.9978 24.5978 18.4413 21.1748C18.5252 21.1767 18.6072 21.187 18.692 21.187C21.4039 21.187 23.8167 19.899 25.3693 17.9075C26.9619 19.954 29.4343 21.187 32.0586 21.187C36.7313 21.187 40.5327 17.38 40.5327 12.6999C40.5327 10.6496 39.8039 8.769 38.5924 7.30029C41.4935 6.55381 44.4906 6.17452 47.5175 6.17452C53.8639 6.17452 60.0612 7.85572 65.5037 11.0383C65.4338 11.1081 65.376 11.1818 65.3024 11.2507C64.1925 12.2833 62.9288 12.9105 62.063 13.2544C61.5197 13.4706 60.913 13.3355 60.516 12.9068C59.4723 11.7801 57.7053 11.7139 56.5786 12.7605L55.1052 14.1313C54.5601 14.6392 54.2441 15.3279 54.2162 16.0725C54.1892 16.8181 54.4529 17.5282 54.9599 18.0752L56.3522 19.5784C57.2561 20.5532 58.5049 21.1012 59.8077 21.1012C59.8776 21.1012 59.9485 21.0994 60.0184 21.0966C62.1161 21.0006 65.5121 20.0528 69.7822 16.0809C70.196 15.696 70.5734 15.3186 70.9322 14.9458C78.7585 21.7564 83.242 31.5537 83.242 41.954C83.242 43.7629 83.1013 45.5709 82.8329 47.349L77.8928 42.1693C78.5637 40.1647 78.0829 37.9477 76.6058 36.3979C75.1063 34.8267 72.8827 34.2442 70.8008 34.8807C70.4643 34.9842 70.2463 35.3075 70.277 35.6579C70.3078 36.0093 70.578 36.2898 70.9275 36.3327C71.2807 36.3765 71.7905 36.5218 72.2164 36.9692C73.0346 37.8265 73.0029 39.1918 72.1474 40.011C71.2891 40.8301 69.9276 40.7994 69.1093 39.942C68.6844 39.4947 68.5623 38.9775 68.5343 38.6224C68.5073 38.2711 68.2389 37.9878 67.8913 37.9412C67.5455 37.8955 67.2101 38.0987 67.0926 38.4304C66.3629 40.4835 66.8401 42.735 68.3386 44.3072C69.8157 45.857 72.0058 46.4413 74.0364 45.8607L81.3288 53.509C79.6159 58.5312 76.7586 63.1815 73.0309 66.9922ZM90.5614 55.5928C89.5903 55.5705 88.6696 55.9283 87.9669 56.6002C87.2642 57.2722 86.8654 58.178 86.843 59.1509C86.8234 59.9822 87.0816 60.7781 87.5764 61.4304C86.8421 61.2347 86.1599 60.8386 85.611 60.2627C84.4321 59.0251 84.1096 57.2125 84.7918 55.6441C84.9111 55.3692 84.8543 55.0486 84.6474 54.8314L74.7857 44.4898C74.6431 44.3398 74.4474 44.2596 74.248 44.2596C74.1594 44.2596 74.069 44.2755 73.9824 44.309C72.3869 44.9194 70.593 44.5141 69.4141 43.2774C68.8642 42.7015 68.4998 42.0016 68.3386 41.257C69.7384 42.4228 71.8259 42.3771 73.1735 41.0883C74.521 39.7985 74.6608 37.7119 73.563 36.2581C74.2983 36.4547 74.9795 36.8499 75.5294 37.4258C76.7092 38.6634 77.0298 40.476 76.3485 42.0444C76.2283 42.3194 76.2852 42.6399 76.4921 42.8571L86.3547 53.1978C86.5615 53.4149 86.8784 53.4867 87.158 53.3795C88.7544 52.7691 90.5474 53.1735 91.7272 54.4102C92.2761 54.9861 92.6405 55.686 92.8008 56.4306C92.1727 55.9078 91.3908 55.6124 90.5614 55.5928Z" fill="#3A322B"/>
</g>
<path d="M15.43 65.563C15.58 65.563 15.7301 65.5182 15.8615 65.4241C16.196 65.1855 16.2734 64.7205 16.0357 64.385C13.7758 61.2099 12.0173 57.7292 10.8076 54.0387C10.679 53.6483 10.2606 53.4358 9.86918 53.5635C9.4787 53.6921 9.26529 54.1124 9.39389 54.5038C10.6511 58.3368 12.4776 61.9517 14.8242 65.2498C14.9687 65.4539 15.1979 65.563 15.43 65.563Z" fill="#3A322B"/>
<path d="M84.7299 31.5134C84.8221 31.8424 85.1203 32.0586 85.4456 32.0586C85.5118 32.0586 85.5789 32.0493 85.646 32.0297C86.042 31.9197 86.2731 31.5088 86.1622 31.1118C84.7727 26.1343 82.4625 21.5287 79.2967 17.4189C79.046 17.0928 78.5782 17.0331 78.2539 17.2838C77.9277 17.5354 77.8681 18.0033 78.1188 18.3285C81.168 22.2864 83.3925 26.7214 84.7299 31.5134Z" fill="#3A322B"/>
<path d="M40.2218 3.94879C44.997 3.03364 50.0397 3.03364 54.8186 3.94879C54.8652 3.95811 54.9127 3.96184 54.9593 3.96184C55.3097 3.96184 55.621 3.71395 55.689 3.35702C55.7664 2.95349 55.5017 2.56301 55.0982 2.48566C50.1347 1.53603 44.901 1.53603 39.9422 2.48566C39.5396 2.56301 39.2749 2.95349 39.3523 3.35702C39.4296 3.76147 39.8183 4.02614 40.2218 3.94879Z" fill="#3A322B"/>
<path d="M72.1768 63.9671C72.3166 64.0864 72.489 64.1451 72.6587 64.1451C72.8693 64.1451 73.078 64.0566 73.2262 63.8832C75.7881 60.8722 77.7852 57.4734 79.1617 53.783C79.3052 53.3981 79.1095 52.9685 78.7246 52.824C78.3406 52.6815 77.9119 52.8762 77.7675 53.2611C76.4525 56.7894 74.5439 60.0381 72.0939 62.9159C71.8274 63.23 71.8647 63.7006 72.1768 63.9671Z" fill="#3A322B"/>
<path d="M19.7639 22.6853C18.216 24.9182 16.9392 27.3347 15.9709 29.8686C15.8246 30.2535 16.0166 30.6841 16.3996 30.8313C16.4882 30.8649 16.5767 30.8807 16.6652 30.8807C16.9644 30.8807 17.2468 30.6981 17.3604 30.4017C18.2859 27.9806 19.5057 25.6703 20.9866 23.5353C21.2205 23.197 21.1376 22.7329 20.7993 22.498C20.4628 22.2641 19.9997 22.347 19.7639 22.6853Z" fill="#3A322B"/>
</svg>
