<svg width="540" height="90" viewBox="0 0 540 90" fill="none" xmlns="http://www.w3.org/2000/svg">
<g filter="url(#filter0_d_1185_1525)">
<path d="M535.016 22.5371V0H4V18.0011C6.48189 18.4783 8.93815 19.7797 7.98297 23.2719C10.7154 22.8977 13.5518 23.9226 16.3038 23.562C16.3429 36.476 36.7579 32.4606 48.2709 35.1177C47.1435 43.8291 63.0526 43.596 72.1033 43.4387C79.4629 43.3086 78.3981 40.3478 83.5733 45.3149C87.2413 48.8424 84.3014 52.9148 87.073 56.4368C92.0603 62.822 105.131 60.4251 113.473 64.0502C116.871 65.5224 118.101 69.3834 123.233 69.9012C129.594 70.5357 130.134 65.7258 137.2 66.9106C141.498 77.1947 159.803 67.3444 167.707 67.9219C172.526 68.269 176.738 70.7526 183.327 70.5926C190.393 70.4353 197.4 68.8899 204.18 67.705C209.226 66.8374 218.402 63.6299 223.675 64.8012C230.177 66.2463 228.968 69.8009 237.541 70.5926C251.136 71.8669 259.725 65.4384 272.115 63.6896C271.359 62.8653 271.508 61.1464 270.072 59.9913C273.258 58.7495 286.149 53.5628 288.96 53.4055C295.818 53.0449 300.41 61.103 305.683 60.0944C312.088 58.8797 305.914 49.3602 309.727 46.6869C313.857 43.7858 322.743 45.9385 327.891 42.5575C330.502 46.9038 335.916 49.1433 339.251 43.7993C347.746 42.224 353.395 47.6982 361.252 48.4492C372.225 49.4931 376.374 46.5161 375.376 38.9596C387.382 38.4716 391.575 41.1856 401.643 43.6122C414.659 46.733 413.783 41.4161 423.499 38.5556C427.374 37.4304 446.85 37.6473 451.61 39.0328C460.281 41.5733 462.301 47.6006 475.047 46.3832C475.501 41.1558 475.004 37.5009 478.069 33.0544C481.299 28.3583 487.245 26.8698 486.58 20.6745C492.123 20.7883 493.352 24.7767 498.962 24.4134C504.192 24.0826 506.967 18.969 512.784 18.6084C518.562 18.2478 521.984 21.2791 526.987 22.2335C529.297 22.6849 531.92 22.6171 534.563 22.5487L535.016 22.5371Z" fill="#D49832"/>
<path d="M535.016 11.7491V24.2604C532.221 24.3428 529.43 24.4633 526.987 23.9055C521.984 22.79 518.562 19.247 512.784 19.6685C506.967 20.09 504.192 26.0668 498.962 26.4534C493.352 26.8781 492.123 22.2164 486.58 22.0833C487.245 29.3245 481.299 31.0643 478.069 36.5531C475.004 41.7503 475.501 46.0222 475.047 52.132C462.301 53.5549 460.281 46.5102 451.61 43.5408C446.85 41.9214 427.374 41.6679 423.499 42.9831C413.783 46.3264 414.659 52.5409 401.643 48.8933C391.575 46.057 387.382 42.8848 375.376 43.4552C376.374 52.2873 372.225 55.7669 361.252 54.5468C353.395 53.669 347.746 47.2708 339.251 49.112C335.916 55.3581 330.502 52.7405 327.891 47.6605C322.743 51.6123 313.857 49.0961 309.727 52.487C305.914 55.6116 312.088 66.7381 305.683 68.1578C300.41 69.3367 295.818 59.9184 288.96 60.3398C286.149 60.5236 273.258 66.586 270.072 68.0374C271.508 69.3874 271.359 71.3966 272.115 72.36C259.725 74.404 251.136 81.9177 237.541 80.4283C228.968 79.503 230.177 75.3484 223.675 73.6593C218.402 72.2902 209.226 76.0392 204.18 77.0533C197.4 78.4382 190.393 80.2445 183.327 80.4283C176.738 80.6153 172.526 77.7125 167.707 77.3068C159.803 76.6318 141.498 88.1449 137.2 76.1248C130.134 74.7399 129.594 80.3618 123.233 79.6202C118.101 79.0149 116.871 74.5022 113.473 72.7814C105.131 68.5444 92.0603 71.3459 87.073 63.8828C84.3014 59.7662 87.2413 55.0064 83.5733 50.8834C78.3981 45.0778 79.4629 48.5384 72.1033 48.6905C63.0526 48.8743 47.1435 49.1468 48.2709 38.9647C36.7579 35.8591 16.3429 40.5524 16.3038 25.4583C13.5518 25.8798 9.7154 24.6819 6.98297 25.1192C7.93815 21.0375 6.48189 19.5164 4 18.9587V5.62021C8.04384 6.11141 11.0072 8.32339 14.0724 9.30262C22.7669 12.1199 34.5265 12.5952 41.9096 18.2329C43.8473 19.7002 41.5142 22.8756 43.2014 23.9214C46.0395 25.696 48.5997 24.1052 51.2499 25.2904C55.8379 27.2995 59.8818 29.4418 65.1587 30.9122C76.1041 33.9482 88.4705 27.8731 99.7134 28.8333C100.422 39.3735 93.2699 48.8236 110.78 47.9616C112.557 58.8884 124.795 52.2018 131.884 52.3032C140.747 52.4204 145.773 59.1071 154.112 57.925C158.719 57.2659 167.414 51.5743 171.876 49.806C180.532 46.3771 186.016 43.9623 187.707 35.5897C194.773 34.0179 198.692 40.3147 203.452 41.5158C204.239 42.1876 204.658 42.8309 205.534 43.4743C208.784 41.5158 211.892 38.3911 215.227 36.6545C223.428 42.663 230.764 56.5402 243.088 56.7937C251.868 56.9807 249.199 53.8718 255.227 50.9025C262.853 47.1186 260.935 49.7521 268.048 50.3447C281.686 51.4919 288.709 47.5243 298.328 40.7362C300.324 39.3197 306.165 34.7594 308.752 34.5439C316.738 33.8658 314.859 38.613 319.87 40.8218C331.767 46.0729 338.422 40.5524 348.431 37.3263C353.665 35.6404 357.588 36.363 362.587 34.0369C368.928 31.0802 375.145 21.9122 383.193 21.6428C391.927 21.3386 394.057 32.1291 404.356 33.1559C415.388 34.2714 427.374 30.2182 437.721 28.6686C449.414 26.8939 458.613 21.0185 469.336 19.8206C470.103 20.3911 470.6 21.2055 471.414 21.7442C475.607 17.1681 480.195 8.65931 489.457 7.52796C498.335 6.44733 510.702 11.09 519.729 12.0216C524.192 12.4938 529.786 11.7143 535.016 11.7491Z" fill="#B67D1C"/>
</g>
<defs>
<filter id="filter0_d_1185_1525" x="0" y="0" width="539.016" height="89.6299" filterUnits="userSpaceOnUse" color-interpolation-filters="sRGB">
<feFlood flood-opacity="0" result="BackgroundImageFix"/>
<feColorMatrix in="SourceAlpha" type="matrix" values="0 0 0 0 0 0 0 0 0 0 0 0 0 0 0 0 0 0 127 0" result="hardAlpha"/>
<feOffset dy="4"/>
<feGaussianBlur stdDeviation="2"/>
<feComposite in2="hardAlpha" operator="out"/>
<feColorMatrix type="matrix" values="0 0 0 0 0 0 0 0 0 0 0 0 0 0 0 0 0 0 0.25 0"/>
<feBlend mode="normal" in2="BackgroundImageFix" result="effect1_dropShadow_1185_1525"/>
<feBlend mode="normal" in="SourceGraphic" in2="effect1_dropShadow_1185_1525" result="shape"/>
</filter>
</defs>
</svg>
